<?xml version="1.0" standalone="no"?>
<!DOCTYPE svg PUBLIC "-//W3C//DTD SVG 20010904//EN"
 "http://www.w3.org/TR/2001/REC-SVG-20010904/DTD/svg10.dtd">
<svg version="1.0" xmlns="http://www.w3.org/2000/svg"
 width="300.000000pt" height="300.000000pt" viewBox="0 0 300.000000 300.000000"
 preserveAspectRatio="xMidYMid meet">
<metadata>
Created by potrace 1.11, written by Peter Selinger 2001-2013
</metadata>
<g transform="translate(0.000000,300.000000) scale(0.100000,-0.100000)"
fill="#000000" stroke="none">
<path d="M1759 2727 c-99 -30 -193 -110 -222 -191 -5 -12 -13 -16 -25 -11 -48
19 -161 55 -187 59 -17 3 -41 9 -55 12 -42 11 -281 13 -345 3 -102 -16 -235
-58 -327 -104 -468 -234 -689 -740 -541 -1240 104 -353 452 -659 823 -721 236
-40 471 -11 663 81 l47 23 36 -54 c234 -353 740 -434 1074 -174 137 107 243
268 264 404 4 21 9 42 12 47 3 5 6 53 6 106 3 357 -243 646 -612 720 -14 3
-69 6 -122 6 -61 1 -98 5 -99 11 0 6 -2 18 -4 26 -2 8 -6 31 -10 50 -10 55
-54 180 -86 240 l-29 55 27 20 c118 85 166 167 170 289 1 57 -3 92 -17 128
-67 177 -260 271 -441 215z"/>
</g>
</svg>
