<?xml version="1.0" encoding="utf-8"?>
<!-- Generator: Adobe Illustrator 18.1.1, SVG Export Plug-In . SVG Version: 6.00 Build 0)  -->
<svg version="1.1" id="Boundaries" xmlns="http://www.w3.org/2000/svg" xmlns:xlink="http://www.w3.org/1999/xlink" x="0px" y="0px"
	 viewBox="0 0 1280 720" enable-background="new 0 0 1280 720" xml:space="preserve">
<g id="local">
	<g id="background-solid" display="none">
		<rect x="22.9" y="12.5" display="inline" fill="#7CACD1" width="1234.3" height="694.9"/>
	</g>
	<g id="us-map-background">
		<path id="us-map-state-53_1_" fill="#FFFFFF" stroke="#0979AF" stroke-width="0.9906" stroke-miterlimit="10" d="M1147.2,186.2
			l4.8-6.7l13.5,35.3c-1.6,7.9-1,8.4-6.7,12c-5.3,3.3-14,4.3-20.1,6.2l-4.1-38L1147.2,186.2z"/>
		<path id="us-map-state-19_1_" fill="#FFFFFF" stroke="#0979AF" stroke-width="0.9906" stroke-miterlimit="10" d="M1135.8,231.6
			c6.6-1.4,23.7-2.1,26.3-9c-0.1,0.1,1.8-1,3.4-1.3c-0.6,3.2,1.5,1.8,2.7,2.8c0.3,1.1-1.7,3.8-3.4,6.2c2.4,1,5.3,2.3,7.5,4.7
			c-0.8,0.4-1.9-1.6-1.4,0.8c7,6,13.1-2.5,4.7-3.5c6.4-0.7,7.9,8.4,0,8.3c-0.7,1-1,1.6-1.9,2.8c-0.2-1.2-0.6-2.3-0.8-3.5
			c-1.6,2.7-3.4,3.9-5.4,5.5c-0.6-2-1.2-2.7-1.4-4.8c-0.7,0.9,0.2,1.9-1.9,1.4c-0.5-7-21.9,0.2-28.4,1.9
			C1135.8,239.8,1135.8,235.7,1135.8,231.6"/>
		<path id="us-map-state-18_1_" fill="#FFFFFF" stroke="#0979AF" stroke-width="0.9906" stroke-miterlimit="10" d="M1135.8,243.9
			c2.5-0.7,19.8-5.8,21.6-4.8c1.1,0.6,3.7,9.6,2.7,11.7c-0.8,1.7-6.6,1.7-7.5,1.5c0,0.1-9.7,7.9-11.7,8.5c-5.9,1.9-0.9-0.1-1.7-1.6
			C1137.2,255,1136.8,248.7,1135.8,243.9"/>
		<path id="us-map-state-17_1_" fill="#FFFFFF" stroke="#0979AF" stroke-width="0.9906" stroke-miterlimit="10" d="M1157.4,239.1
			c4.2-1.7,6.7-0.1,7.4,2.9c-3.3,0.4,2.7,7.2-4.7,8.8C1160,246.7,1158.6,243,1157.4,239.1"/>
		<path id="us-map-state-6_1_" fill="#FFFFFF" stroke="#0979AF" stroke-width="0.9906" stroke-miterlimit="10" d="M1143.1,267.4
			c-1.5,1.9-3.9,3.8-6.4,3.7c-0.2,0-0.4,0-0.6-0.1c-1.9-0.7,0.8-4.1,1.6-4.9c1.3-1.3,3-2.1,4.7-2.7c3.6-1.4,7.6-2.3,10.4-5.1
			c0.8-0.8,1.4-1.7,2-2.6c-1.1,1.6-1.8,3-2.7,4.8c1.3-1,4-2.3,5.4-3.4c1,0.1,1.9-0.1,2.7-0.7
			C1154.6,260.8,1150.1,265.2,1143.1,267.4"/>
		<path id="us-map-state-51_1_" fill="#FFFFFF" stroke="#0979AF" stroke-width="0.9906" stroke-miterlimit="10" d="M580.3,425.7
			c1.3-0.7,2.3-0.6,3.4,0v-1.4h0.8l0.6-1.9l-0.6-1.6l-0.8-0.6l-1.3-0.7v-0.7v-1.3l0.6-1.4l-0.6-0.8l0.6-1.3l0.7-0.6l2.2-2.9l0.5-2
			l0.8-0.7V405l0.6-2.1h0.8l0.5-1.2l4.1-2.2l1.4-1.3l-1.4-0.7l-1.9-2.8v-0.8l-0.8-1.2v-1.5V390l-1.4-2.1v-2.2v-0.5l0.8-2.2l0.6-0.6
			v-2.7v-2.9v-1.4l0.8-1.3l-0.8-2v-1.4l1.3-0.8l-1.3-2.7l0.8-1.4l1.3-0.7h1.4h0.6h1.3l1.4,2.1l0.7,0.6h0.6l1.4-0.6l1.3-2.1l2.1-13.7
			l12.8,2l18.9,3.5l17.5,2.7l19.7,2.1l-12.9,100.5c-11.5,3.5-31.2-4.4-41.9-10.6c-13.1-7.6-25.7-16.2-39.2-23.2
			C579.4,427.6,579.4,426.7,580.3,425.7"/>
		<path id="us-map-state-50_1_" fill="#FFFFFF" stroke="#0979AF" stroke-width="0.9906" stroke-miterlimit="10" d="M616.2,162.1
			l0.7-1.4v-1.4l-0.7-2.1v-0.6l-2-3.5l3.3-16.4c7-1.8,25.2,4.2,33.6,5.8c12.4,2.3,24.8,4.2,37.3,5.7c22.3,2.8,44.7,4.9,67.1,7.1
			l-3.5,53.6l-1.4,15.8v1.3l-16.2-1.3l-24.3-2.7l-22.3-2.8l-22.2-2.7l-0.8,0.7l-0.6,8.2l-1.3-1.3l-0.8-1.5l-0.6-2l-1.3-0.7l-2.2,2.7
			v0.7l-2.7-0.7l-0.5,0.7l-1.4-1.3h-2.1l-2.7-0.7l0,0l-1.4,1.3h-1.3l-1.4-0.6l-1.3-0.7l-1.4,0.7l-0.6,2.1l0,0l-1.3-1.5l-0.8-1.3
			v-0.7l-0.6-1.4l0.6-0.6l-0.6-2.9l-1.3-0.6l-0.7,0.6l-1.4-1.2v-0.7l0.7-2.2l-0.7-1.4v-1.3l-0.6-0.6l-1.4-2.1v-2.8v-2.7l-1.3-1.4
			v-0.8l-4.8,2.2l-0.6,0.6l-1.4-1.4l-1.5-0.6l0.8-1.4l0.7-2.1l-0.7-0.6l0.7-0.8h1.4v-2.7v-1.4v-0.7v-1.4l0.6-1.3l0.7-0.7l0.7-2.1
			l1.3-4.1l-1.3-0.6L627,180l-0.6-0.6v-1.5h-0.7l-1.4-0.7l-0.8-1.3v-0.8v-0.6l-0.5-1.4l-1.4-2l-0.8-1.5v-0.7l-0.5-1.2l-2.2-0.8v-1.3
			l-1.9-2.1h0.7L616.2,162.1"/>
		<polyline id="us-map-state-46_1_" fill="#FFFFFF" stroke="#0979AF" stroke-width="0.9906" stroke-miterlimit="10" points="
			747.9,261.3 750.6,226 750.6,224.7 752,208.9 773.6,211 797.9,211.6 819.5,212.3 841.9,212.3 841.9,215.1 841.2,215.7 
			839.8,216.5 838.5,217.2 838.5,218.6 839.2,219.2 840.4,221.3 841.9,222 842.5,222.6 843.1,224.1 843.9,255.7 841.9,255.7 
			841.9,257.1 842.5,257.8 842.5,259.2 841.9,259.2 841.9,260.5 843.9,261.9 843.9,262.5 843.1,264 843.1,265.4 841.9,267.4 
			841.9,267.4 841.9,269.5 841.9,270.3 842.5,271.5 843.1,273.6 841.9,273.6 841.2,272.2 840.4,271.5 839.8,270.8 838.5,270.3 
			837.7,270.3 837.1,269.5 836.5,268.1 835,268.1 833.1,266.8 828.2,267.4 826.3,267.4 825.7,268.1 824.4,268.1 819.5,265.4 
			818.2,264.7 804.1,264 783.1,263.2 760.9,261.9 747.9,261.3 		"/>
		<polyline id="us-map-state-45_1_" fill="#FFFFFF" stroke="#0979AF" stroke-width="0.9906" stroke-miterlimit="10" points="
			754,378.9 754.7,369.9 768.2,370.7 789.9,372.1 820.9,372.7 852,372.7 870.3,372.1 870.3,381 873,396.1 873,401 873.6,432.6 
			870.3,431.9 868.9,431.1 868.2,430.6 865.5,429.2 862.8,427.1 862.2,427.1 860.8,428.4 860,428.4 858.7,428.4 858.7,428.4 
			857.4,427.8 855.4,428.4 854.7,429.2 852.7,429.2 852,428.4 850.7,429.2 850,429.2 848,430.6 847.3,430.6 846.6,431.9 
			845.8,430.6 844.6,430.6 843.1,429.8 842.5,428.4 841.9,428.4 840.4,429.2 839.8,429.2 838.5,427.8 837.7,427.8 837.1,427.8 
			837.1,428.4 835.8,429.2 835.8,431.1 834.4,431.1 834.4,431.1 834.4,429.8 834.4,429.2 833.1,428.4 831.7,429.8 830.4,429.8 
			829.6,428.4 829,428.4 828.2,427.1 827.7,427.1 825.7,428.4 824.4,429.2 823.6,428.4 823.6,427.1 823,426.3 821.7,426.3 
			821.7,425.7 821.7,424.3 820.3,424.3 818.2,424.3 816.8,425.1 816.3,425.1 814.9,424.3 814.1,423.6 813.6,423.6 812.2,424.3 
			809.5,423 808.7,422.4 807.4,423 807.4,422.4 806,422.4 806,421.6 806,420.2 804.7,419.5 804.1,418.8 803.3,417.5 802.6,419.5 
			801.4,419.5 800.6,418.8 799.3,419.5 798.7,418.8 796.6,416.8 796,416.1 793.9,416.1 794.5,414 796,381.6 793.9,381 793.3,380.3 
			787.2,380.3 772.9,380.3 754,378.9 		"/>
		<polyline id="us-map-state-44_1_" fill="#FFFFFF" stroke="#0979AF" stroke-width="0.9906" stroke-miterlimit="10" points="
			768.2,370.7 770.9,316.9 787.2,317.7 819.5,318.3 836.5,318.3 858.7,318.3 862.2,321.2 862.8,319.8 864.1,320.4 864.9,321.2 
			864.9,322.5 864.9,323.2 863.5,323.2 863.5,323.9 862.2,325.2 862.2,327.2 863.5,328 864.9,329.4 864.9,330 866.8,332.1 
			868.2,332.7 868.9,333.5 870.3,372.1 852,372.7 820.9,372.7 789.9,372.1 768.2,370.7 		"/>
		<path id="us-map-state-41_1_" fill="#FFFFFF" stroke="#0979AF" stroke-width="0.9906" stroke-miterlimit="10" d="M1068.1,301.9
			l23.1-4.3l25-5.5c3,9.5,2,24.1,14.2,20.1c0.8,3.9-3.6,11.4-8.2,9.1c-0.9-0.5-1.7-1.2-2.4-2c-1.9-2.2-3.4-4.9-4.1-7.8
			c-0.5-1.9-0.4-6.7-3.9-5.3c-1,0.4-1.5,1.3-1.7,2.3c-0.4,1.9,0.7,4.3,1.7,6c1.5,2.4,2,4.8,1.9,7.7c-3.3-0.9-6.7-1.4-10.2-1.4
			c-0.3,0-0.6,0-0.9-0.2c-0.2-0.2-0.3-0.5-0.3-0.8c-0.2-1.3-0.2-2.6,0-3.9c0.3-2.2,1-4.6-0.2-6.5c-0.6-0.8-1.4-1.3-2.3-1.8
			c-2.5-1.5-4.2-2.9-7.1-2.9v-0.8l-1.4-1.3v-0.6l-0.7-0.8v-0.8h-2l-1.3-0.5l-1.4-0.7l-1.3,0.7v0.5h-1.4l-0.8,1.6v0.6l-1.9,0.7
			l-1.5-0.7l-0.5-0.6h-0.7v0.6l-2,2.7l-1.4-0.6l-0.8,0.6l-0.6,1.4l-1.3,1.5v1.2l-1.4,0.8l-0.6,1.3L1068.1,301.9"/>
		<polyline id="us-map-state-40_1_" fill="#FFFFFF" stroke="#0979AF" stroke-width="0.9906" stroke-miterlimit="10" points="
			852.7,307.4 868.2,307.4 877.6,307.4 897.9,306.6 906,305.2 906.7,306.6 908.7,308.1 909.4,309.3 910.1,309.3 909.4,310.8 
			909.4,312.2 909.4,314.2 909.4,316.2 910.1,316.9 910.8,319.8 911.5,320.4 911.5,321.2 913.5,322.5 914.2,323.2 916.2,324.5 
			916.2,325.2 918.9,327.2 920.3,328 920.3,329.4 921.6,334.2 923,335.6 923.5,334.8 924.3,333.5 924.9,333.5 926.3,334.2 
			927.6,334.2 929.7,335.6 929.7,336.2 928.4,337.5 928.4,339.7 928.4,342.5 927.6,343.8 926.3,345.2 926.3,346.5 927,347.3 
			929,349.3 931.7,352 933,352 933,353.4 933.8,352.8 936.5,354.1 936.5,354.9 937.8,356.1 939.2,356.1 939.2,358.8 940.5,361.7 
			940.5,362.3 939.8,363.1 940.5,365.8 942.5,367.8 943.8,367.2 945.2,368.6 946,369.3 945.2,370.7 946,372.1 944.6,373.4 
			945.2,374.1 944.6,375.4 943.2,375.4 941.9,375.4 941.9,377.5 940.5,378.1 941.1,377.5 940.5,376.2 940.5,377.5 940.5,378.1 
			940.5,380.3 939.8,380.3 940.5,381.6 938.4,382.4 939.8,383.7 939.2,384.4 938.4,386.5 930.3,387.1 929.7,385.7 930.3,385.2 
			931.1,383.7 932.4,383 933,382.4 933,381 933,380.3 931.7,378.9 931.1,377.5 906,380.3 883.8,380.3 870.3,381 870.3,372.1 
			868.9,333.5 868.2,332.7 866.8,332.1 864.9,330 864.9,329.4 863.5,328 862.2,327.2 862.2,325.2 863.5,323.9 863.5,323.2 
			864.9,323.2 864.9,322.5 864.9,321.2 864.1,320.4 862.8,319.8 862.2,321.2 858.7,318.3 858.1,317.7 858.1,316.2 856.8,314.9 
			856.8,314.2 856.1,312.8 854.7,312.2 854.1,310.1 852.7,309.3 852.7,307.4 		"/>
		<polyline id="us-map-state-39_1_" fill="#FFFFFF" stroke="#0979AF" stroke-width="0.9906" stroke-miterlimit="10" points="
			870.3,381 883.8,380.3 906,380.3 931.1,377.5 931.7,378.9 933,380.3 933,381 933,382.4 932.4,383 931.1,383.7 930.3,385.2 
			929.7,385.7 930.3,387.1 938.4,386.5 938.4,387.1 939.2,387.9 937.8,388.5 938.4,390 937.8,390.6 936.5,391.2 935.7,392 
			935.7,392.7 936.5,393.4 935.7,393.9 935.1,394.7 934.4,394.7 935.1,396.1 934.4,396.8 933.8,396.1 933,396.8 933,398.2 
			933.8,397.5 933.8,398.8 934.4,402.3 933.8,402.9 933,402.9 932.4,403.7 931.7,404.4 931.7,404.4 931.7,405 931.7,406.4 
			931.1,407.1 929.7,407.8 929.7,407.1 929.7,409.9 929,409.9 928.4,408.5 928.4,410.5 929.7,411.3 928.4,411.3 928.4,410.5 
			928.4,411.9 929,413.4 928.4,414.8 928.4,416.1 927.6,416.8 927,417.5 926.3,417.5 926.3,418.1 924.9,419.5 924.9,419.5 
			923.5,419.5 924.3,420.2 923.5,420.8 923.5,422.4 924.3,423 921.6,424.3 922.2,425.1 922.2,425.7 922.2,427.1 922.2,427.8 
			920.9,427.8 920.9,428.4 922.2,428.4 921.6,429.8 920.9,429.2 920.3,429.8 920.9,430.6 920.3,431.1 920.3,432.6 920.3,433.9 
			920.9,432.6 921.6,433.3 920.3,434.7 921.6,434.7 921.6,434.7 921.6,435.3 921.6,436.6 922.2,436.6 922.2,438.8 922.2,438.8 
			921.6,438.8 921.6,440.1 921.6,441.5 897.9,442.9 880.3,443.6 879.8,433.9 876.3,433.3 875.7,433.9 873.6,433.3 873.6,432.6 
			873.6,432.6 873,401 873,396.1 870.3,381 		"/>
		<path id="us-map-state-38_1_" fill="#FFFFFF" stroke="#0979AF" stroke-width="0.9906" stroke-miterlimit="10" d="M880.3,443.6
			l17.6-0.7l23.7-1.4l-0.7,0.7v0.7h0.7h1.4v0.7l-1.4,1.4v1.4h1.9l-1.9,2.1h0.6h2.1l-0.8,0.6v1.4H923l0.5,1.4h0.8l0.6,1.3h1.4v0.8
			h-1.4l-0.6,1.3H923l-0.8,1.4h1.3h1.4l-1.4,0.8v0.5l-0.5,0.7h0.5l-1.9,2.7l-1.3,0.8v1.3h0.6l-0.6,1.4l-0.7,1.4l-1.4,0.7h1.4
			l-1.4,1.4v2h-0.7l0.7,0.7v1.4l-2,0.8l1.3,0.5l-0.6,1.5l1.3,1.3l-2,1.4l14.9-1.4l14.1-0.6l-0.6,1.3l-0.8,2v2.2v0.6
			c1.1,2.2,1.8,3.6,4.1,4.9c1.1,0.6,2.2,1,3.3,1.6s2,1.5,2.4,2.6c0.7,2.2-0.8,4.3-1.6,6.4c-0.4,1.1-0.7,2.3-1.7,2.9
			c-0.2,0.1-0.4,0.2-0.6,0.5c-0.1,0.2-0.1,0.5,0,0.7c0.5,1.8,2.4,2.4,4,3.1c0.9,0.4,2.9,1,3.4,1.9c0.7,1.1-0.6,3-1.2,3.9
			c-0.3-0.8-1.4-0.9-2.2-1.2c-1.3-0.4-2.3-1.3-3.3-2.1c-1.5-1.2-3.2-2.3-4.8-3.3c-1.6-1-3.2-1.5-5-1.8c1,1.4,1.7,2.9,1.7,4.6
			c0,0.5-1.3,3.7-1.5,3.3c-0.3-0.4-1-0.4-1.5-0.8c-0.2-0.2-0.4-0.4-0.6-0.6c-2.5-2.4-6.3,0.3-9.1,0.6c-1.7,0.2-3-0.4-4.1-1.8
			c-0.5-0.7-1-1.5-1.6-2.2c-0.8-1-1.4-1.3-2.4-2.1c-1.2-0.9-2.3-0.6-3.5-1.4c-0.5-0.3-2.7-2.7-3.2-2.4c-1.9,0.8-3.6,0.8-5.4,1.3
			c1,1,2,0.9,2.1,2.8c-3.6,1.5-7.2,0.5-10.6-0.7c-1.7-0.6-3.2-1.3-5-1.2c-1.8,0-3.7,0.2-5.5,0.2c-0.5,0-4.8,0.7-4.6,1
			c-1.1-1.8-0.9-3.1,0-5.5c0.3-0.8,0.8-1.4,1.4-2l-0.6-2.9l-0.8-2l0.8-0.7V487l0.6-0.7l0.8-1.5v-1.2l0.6-1.5v-1.4v-1.4v-0.5l0.7-0.8
			l-0.7-1.4V476h-0.6l-1.4-2.7v-1.6l-0.8-0.6v-0.7l-0.5-1.4l-1.4-0.6l0.6-2.1l-1.4-2l-0.5-0.8l-1.4-2.1L880.3,443.6"/>
		<path id="us-map-state-37_1_" fill="#FFFFFF" stroke="#0979AF" stroke-width="0.9906" stroke-miterlimit="10" d="M895.9,195.8
			c0.9,0.9,1.7,0.6,2,2.1c3.6-3,8.8-3.7,12.9-6.2c-0.3,2.2,0.4,3.6-1.4,6.2c2.1-0.5,1.3-0.4,2.7-1.4c2.4,1.3,6.4,5.6,8.2,6.3
			c5.6,2.3,13.6,2.2,18.5,3.8c3.1,1,6.9,1.1,9.2,3.6c2.5,2.8-0.7,5.8,3.5,7c-1.7,2.3-0.2,2.3,0.6,4.1c-1.4,3.1-3.9,6.9-3.3,10.3
			c1.2-1.6,3.8-6.3,5.6-6.1c3.9,0.5-0.6,8.9,1,12.4c-7.7,5.1-0.1,22.2-1.3,29.5l-15.6,2.9l-20.2,1.2l-0.7-3.4l-3.3-0.7h-1.4
			l-0.7-1.4v-1.3l-0.6-1.5v-1.9l-0.7-1.5l0.7-2.7v-0.7l-0.7-0.7l-0.7-0.7l-0.7-0.7v-0.6v-1.4v-0.7v-1.4l-0.7-2.8l-0.6-1.3l-1.4-1.4
			H906l-1.3-0.8l-1.4-0.5l-2-2.2l-1.3-2.1l-2.1-1.2h-1.3l-0.7-1.5l-0.7-0.6l-2-0.8l-2-0.6l-0.7-0.8l-1.3-1.3v-1.4v-1.3v-2.8V226
			v-2.7l1.3-2.7l-1.3-2.8h-1.3v-0.6v-1.5v-0.6l1.3-1.3v-1.5l2-1.3l2-1.4l0.7-0.7v-1.4v-9C894.3,198,895.5,196.3,895.9,195.8"/>
		<path id="us-map-state-36_1_" fill="#FFFFFF" stroke="#0979AF" stroke-width="0.9906" stroke-miterlimit="10" d="M910.1,309.3h0.7
			l0.7-1.9l-1.4-0.8l1.4-1.4l2-1.4l0.7-1.3v-0.6v-1.6l2-1.2V297l-2.7-2.7l0.7-2.2v-1.3l4.7-0.7l1.4-1.3h1.3l1.4-1.4l0.5-2.9l1.4-1.9
			v-3.5v-0.6l-1.4-1.4l-1.3-0.8l-0.6-0.6v-2.1l-2.7-1.4l-0.7-0.7l0,0l20.2-1.2l15.6-2.9c-1.2,5.5,2.9,10.4,5.4,14.4l3.4,41.4l-0.7,2
			v0.7v1.3v0.8l0.7,2l1.3,0.7l-0.6,1.4l0.6,2.1v1.4l0,0l-2,2.7v0.7l-1.3,3.5v0.5l-1.4,1.6l-0.7,0.6l0.7,0.7l-0.7,2l0,0v2.1l-0.7,1.4
			l0.7,1.4v0.6v0.7l-1.3,0.8l0.6,1.2l0.7,1.5l-0.7,1.2l-2,0.8h-1.3l-1.4,0.8v1.3v0.6l0.7,1.6l0.7,1.2l-0.7,0.7h-1.3l-0.7-0.7h-2
			l-1.3-1.2h-1.4l-0.8,0.5l-1.9,2.2v0.6l0.6,1.4l-1.4-1.4l-1.3,0.6l-2-2l-0.7-2.7l0.7-0.8v-0.6l-1.3-2.9v-2.7h-1.4l-1.3-1.2v-0.8
			l-2.7-1.3l-0.8,0.6V352h-1.3l-2.7-2.7l-2-2l-0.7-0.8v-1.3l1.3-1.4l0.8-1.3v-2.8v-2.2l1.3-1.3v-0.6l-2.1-1.4h-1.3l-1.4-0.7h-0.6
			l-0.8,1.3l-0.5,0.8l-1.4-1.4l-1.3-4.8V328l-1.4-0.8l-2.7-2v-0.7l-2-1.3l-0.7-0.7l-2-1.3v-0.8l-0.7-0.6l-0.7-2.9l-0.7-0.7v-2v-2
			v-1.4L910.1,309.3"/>
		<path id="us-map-state-35_1_" fill="#FFFFFF" stroke="#0979AF" stroke-width="0.9906" stroke-miterlimit="10" d="M916.2,198.5
			c3.4-1.3,8.2-4.4,10.7-6c3.4-2.2,6.9-4,9.6-7.6c1.6,1.5,2.9,4.3,2.7,7.6c0.8-1.2,2-2.4,2.7-3.5c-0.3,0.6-0.5,1.3-0.8,1.9
			c5.8-4.6,11.2,4.6,17,4.2c6.6-0.4,15.8-4.8,22.9-7.5c-1.9,7.3,4.8,6.4,8.2,4.1c1.1,3.8,2.9,7.1,6,9c-4.5,0.8-10.4-2.3-10.1,4.1
			c-6.4-8.1-18.4-0.5-21.6,6.2c-0.5-0.3-0.9-0.5-1.4-0.8c0.7-1.1,1.4-1.8,2-2.7c-1.4,0.8-2.7,0.7-4.7,2.7c-0.8-1.2-0.7-2.1-0.7-3.5
			c-2.2,4.9-4,10.1-6.7,14.6c-0.8-1.8-2.2-1.9-0.6-4.1c-3.7-1-3.9-8.1-10.9-10.5C932.8,204.1,922.9,204.7,916.2,198.5"/>
		<path id="us-map-state-34_1_" fill="#FFFFFF" stroke="#0979AF" stroke-width="0.9906" stroke-miterlimit="10" d="M921.6,441.5
			v-1.4v-1.3h0.6v-2.2h-0.6v-1.3v-0.6h-1.3l1.3-1.4l-0.7-0.7l-0.6,1.3v-1.3v-1.5l0.6-0.5l-0.6-0.8l0.6-0.6l0.7,0.6l0.6-1.4h-1.3
			v-0.6h1.3v-0.7v-1.4v-0.6l-0.6-0.8l2.7-1.3l-0.8-0.6v-1.6l0.8-0.6l-0.8-0.7h1.4l1.4-1.4v-0.6h0.7l0.6-0.7l0.8-0.7v-1.3l0.6-1.4
			l-0.6-1.5v-1.4v0.8h1.3l-1.3-0.8v-2l0.6,1.4h0.7v-2.8v0.7l1.4-0.7l0.6-0.7V405v-0.6l18.9-1.5l10.2-0.6l0.6,0.6h0.7l0.7,0.8
			l-0.7,54.3l3.4,26.8c-0.4,0.7-0.2,1.5-0.7,2.2c-2.8-1.5-6-1.4-9-0.5c-1.7,0.5-3.5,2.4-5,2.8c-3.7,0.9-4.5-2.7-6.2-5.7
			c0,0-0.8-1.5-0.8-1.5v-0.6v-2.2l0.8-2l0.6-1.3l-14.1,0.6l-14.9,1.4l2-1.4l-1.3-1.3l0.6-1.5l-1.3-0.5l2-0.8v-1.4l-0.7-0.7h0.7v-2
			l1.4-1.4h-1.4l1.4-0.7l0.7-1.4l0.6-1.4h-0.6v-1.3l1.3-0.8l1.9-2.7H923l0.5-0.7v-0.5l1.4-0.8h-1.4h-1.3l0.8-1.4h1.3l0.6-1.3h1.4
			v-0.8h-1.4l-0.6-1.3h-0.8l-0.5-1.4h0.5v-1.4l0.8-0.6h-2.1h-0.6l1.9-2.1h-1.9V445l1.4-1.4v-0.7h-1.4h-0.7v-0.7L921.6,441.5"/>
		<polyline id="us-map-state-33_1_" fill="#FFFFFF" stroke="#0979AF" stroke-width="0.9906" stroke-miterlimit="10" points="
			931.7,404.4 931.7,404.4 932.4,403.7 933,402.9 933.8,402.9 934.4,402.3 933.8,398.8 933.8,397.5 933,398.2 933,396.8 
			933.8,396.1 934.4,396.8 935.1,396.1 934.4,394.7 935.1,394.7 935.7,393.9 936.5,393.4 935.7,392.7 935.7,392 936.5,391.2 
			937.8,390.6 938.4,390 937.8,388.5 939.2,387.9 938.4,387.1 938.4,386.5 939.2,384.4 939.8,383.7 938.4,382.4 940.5,381.6 
			939.8,380.3 940.5,380.3 940.5,378.1 940.5,377.5 941.1,377.5 940.5,378.1 941.9,377.5 960.8,375.4 960.8,374.1 960.1,372.1 
			962.1,372.1 964.1,372.7 969.5,372.1 974.9,372.1 982.4,370.7 989.2,369.9 995.2,369.9 999.2,369.3 1005.4,368.6 1010,367.8 
			1014.1,367.2 1019.5,367.2 1021,366.6 1024.9,365.8 1027.6,365.8 1036.4,364.4 1041.8,363.1 1046.7,362.3 1048,362.3 1048,363.9 
			1048,365.1 1047.2,367.2 1045.9,367.2 1045.3,368.6 1044.5,371.3 1043.2,372.1 1042.6,372.1 1040.5,372.1 1039.1,373.4 
			1039.1,374.1 1037.8,375.4 1037.2,375.4 1035.7,374.1 1035.1,375.4 1034.5,375.4 1034.5,376.8 1033,376.2 1032.4,378.9 
			1031.8,380.3 1031,380.3 1029.1,381.6 1025.6,384.4 1024.9,385.2 1022.2,385.2 1020.2,385.7 1019.5,387.9 1018.8,388.5 
			1018.8,390.6 1017.5,391.2 1014.9,392 1014.9,396.1 1009.5,396.8 997.3,398.2 981.7,401 961.4,402.3 961.4,402.9 960.8,402.3 
			950.6,402.9 931.7,404.4 		"/>
		<polyline id="us-map-state-32_1_" fill="#FFFFFF" stroke="#0979AF" stroke-width="0.9906" stroke-miterlimit="10" points="
			941.9,377.5 941.9,375.4 943.2,375.4 944.6,375.4 945.2,374.1 944.6,373.4 946,372.1 945.2,370.7 946,369.3 945.2,368.6 
			944.6,367.2 944.6,366.6 946.5,364.4 947.3,363.9 948.7,363.9 950,365.1 952,365.1 952.7,365.8 954,365.8 954.7,365.1 954,363.9 
			953.3,362.3 953.3,361.7 953.3,360.4 954.7,359.6 956,359.6 958,358.8 958.7,357.6 958,356.1 957.4,354.9 958.7,354.1 
			958.7,353.4 958.7,352.8 960.1,352.8 960.8,351.4 960.1,350.7 962.1,351.4 963.5,350 963.5,351.4 964.8,351.4 964.1,350 
			966.2,350 966.8,349.3 970.2,350.7 971.6,351.4 972.2,350.7 972.2,350 972.9,349.3 974.3,348.6 974.9,347.3 975.6,349.3 
			977,349.3 978.3,349.3 978.3,348.6 979,347.3 979,346.5 979.7,345.2 981,344.6 981,343 981.7,343.8 982.4,345.2 983.8,345.9 
			985.7,346.5 987,345.2 987,344.6 987,343 987.8,341 989.2,341 989.7,339.7 990.5,337 991.1,336.2 992.5,335.6 992.5,333.5 
			992.5,332.7 991.9,332.1 993.2,331.5 994.6,331.5 995.2,332.1 997.3,330 1000,330 1000.6,328.6 999.2,327.2 999.2,325.9 
			999.2,324.5 999.2,323.9 1001.3,323.2 1001.9,323.9 1004,323.2 1006.7,324.5 1007.3,325.9 1008.7,328 1010,328.6 1012.2,328 
			1012.7,328 1014.9,330 1016.2,330 1017.5,329.4 1018.3,328.6 1019.5,329.4 1021,330 1021.5,330 1022.9,330 1022.9,328.6 
			1024.3,327.2 1025.6,326.6 1027,328.6 1027.6,330 1029.1,330 1029.7,330.7 1031,332.1 1031,332.7 1031,333.5 1031,334.2 
			1031,336.2 1033,339 1033,341 1034.5,341.7 1037.2,344.6 1039.1,346.5 1041.8,346.5 1037.2,352 1033,354.9 1032.4,356.1 
			1032.4,356.9 1031,358.3 1031,359.6 1030.3,360.4 1029.1,361 1027.6,361.7 1027.6,363.1 1024.9,363.9 1024.3,365.1 1022.9,365.1 
			1021,366.6 1019.5,367.2 1014.1,367.2 1010,367.8 1005.4,368.6 999.2,369.3 995.2,369.9 989.2,369.9 982.4,370.7 974.9,372.1 
			969.5,372.1 964.1,372.7 962.1,372.1 960.1,372.1 960.8,374.1 960.8,375.4 941.9,377.5 		"/>
		<path id="us-map-state-30_1_" fill="#FFFFFF" stroke="#0979AF" stroke-width="0.9906" stroke-miterlimit="10" d="M958.7,352.8
			l-0.7-1.4l0.7-1.4v-2.1l0,0l0.7-2l-0.7-0.7l0.7-0.6l1.4-1.6v-0.5l1.3-3.5v-0.7l2-2.7l0,0v-1.4l-0.6-2.1l0.6-1.4l-1.3-0.7l-0.7-2
			v-0.8v-1.3v-0.7l0.7-2l-3.4-41.4c4.1,2.4,6.8-1,10.9-2c5.6-1.4,19.4-4.2,23.5-1.3l2.1,15.8l3.3,29.6v0.6v1.4v1.3l1.4,1.4l-0.6,1.4
			h-2.7l-2.1,2.1l-0.6-0.6h-1.4l-1.3,0.6l0.6,0.6v0.8v2.1l-1.4,0.6l-0.6,0.8l-0.8,2.7l-0.5,1.3h-1.4l-0.8,2v1.6v0.6l-1.3,1.3
			l-1.9-0.6l-1.4-0.7l-0.7-1.4L981,343v1.6l-1.3,0.6l-0.7,1.3v0.8l-0.7,1.3v0.7H977h-1.4l-0.7-2l-0.6,1.3l-1.4,0.7l-0.7,0.7v0.7
			l-0.6,0.7l-1.4-0.7l-3.4-1.4l-0.6,0.7h-2.1l0.7,1.4h-1.3V350l-1.4,1.4l-2-0.7l0.7,0.7l-0.7,1.4H958.7"/>
		<path id="us-map-state-29_1_" fill="#FFFFFF" stroke="#0979AF" stroke-width="0.9906" stroke-miterlimit="10" d="M961.4,402.9
			v-0.6l20.3-1.3l15.6-2.8l5.4,17.9l4.6,19.2l0.8,0.8l0.6,0.5l0.8,1.6l0.5,1.9l0.8,1.4l0.6,0.7l0.8,1.4l-0.8,1.4l1.3,0.6v0.8
			l-0.5,1.3l-0.8,0.8v2l-0.6,1.4v2.7l0.6,2.1l1.3,0.8v1.2v2.1v0.6v2.9v1.4l0.8,0.6l1.4,1.4v0.7l-23.8,2.7l-13.3,2.2l-0.8,0.5
			l-0.7,1.5c1,1.9,2.8,2.6,4.2,4c-1.7,2.8-2.2,6.3-5.7,7c-2.5,0.5-8.3,0-9.4-2.7c-1-2.5-0.8-6.3-1.1-8.9c-0.7-5.6-1.4-11.2-2.1-16.7
			l0.7-54.3l-0.7-0.8H961.4"/>
		<path id="us-map-state-28_1_" fill="#FFFFFF" stroke="#0979AF" stroke-width="0.9906" stroke-miterlimit="10" d="M581.8,255
			l6-30.9l0.8-1.5h0.5l1.4-2.7v-1.3v-1.4v-0.7l-1.4-0.8h-1.3v-0.6l0.8-4.1l1.3-0.8l0.6-1.9l2.1-1.6l1.4-1.2l0.6-0.7v-1.4l1.3-2.1
			l2.1-3.4l2.7-3.5l0.6-1.3l-0.6-2.2l-2.1-1.9l-0.6-0.8v-1.3v-1.5l-0.7-1.3l0.7-3.5l-1.3-2l1.3-1.4v-3.4l8.1-39.8l0,0
			c4,0.6,8.5,0.9,11.4,2.7l-3.3,16.4l2,3.5v0.6l0.7,2.1v1.4l-0.7,1.4l0.7,1.4h-0.7l1.9,2.1v1.3l2.2,0.8l0.5,1.2v0.7l0.8,1.5l1.4,2
			l0.5,1.4v0.6v0.8l0.8,1.3l1.4,0.7h0.7v1.5l0.6,0.6l1.4-0.6l1.3,0.6l-1.3,4.1l-0.7,2.1l-0.7,0.7l-0.6,1.3v1.4v0.7v1.4v2.7H625
			l-0.7,0.8l0.7,0.6l-0.7,2.1l-0.8,1.4l1.5,0.6l1.4,1.4l0.6-0.6l4.8-2.2v0.8l1.3,1.4v2.7v2.8l1.4,2.1l0.6,0.6v1.3l0.7,1.4l-0.7,2.2
			v0.7l1.4,1.2l0.7-0.6l1.3,0.6l0.6,2.9l-0.6,0.6l0.6,1.4v0.7l0.8,1.3l1.3,1.5l0,0l0.6-2.1l1.4-0.7l1.3,0.7l1.4,0.6h1.3l1.4-1.3l0,0
			l2.7,0.7h2.1l1.4,1.3l0.5-0.7l2.7,0.7v-0.7l2.2-2.7l1.3,0.7l0.6,2l0.8,1.5l1.3,1.3l-7.5,44.1l-14.9-2.7l-17.5-3.6l-5.4-0.7
			l-16.8-3.3L581.8,255"/>
		<path id="us-map-state-24_1_" fill="#FFFFFF" stroke="#0979AF" stroke-width="0.9906" stroke-miterlimit="10" d="M993.8,278.5
			c8.4-1.6,18.3-5.9,25,0c0.2-0.7,0.5-1.5,0.7-2.2c0.5,0.7,1,1.5,1.5,2.2c-1.3,0.3-2.2,0-3.5,0.6c4.2,0.1,9-0.4,13.5-2.8
			c3.6-1.9,14.9-13.1,17-10.9l3.3,23.4h-0.8h-0.5v1.3l0.5,0.7l0.8,3.5v1.3l-0.8,3.5v1.2v1.6h-0.5v0.6v1.3v0.8v2.8l-2,1.3l-0.8,2.1
			l-2.7,2l-1.3-0.6l-1.4,0.6v2.1h-1.3l-0.6,1.3v1.5l-0.8,1.3l0.8,0.8v1.4l-0.8,0.5l-1.3-1.3l-1.4-0.6l-0.7,1.4l-0.6,1.3v0.7v0.7v1.3
			l0,0v2.8l-0.6,0.6v1.4l-1.5,1.5l-1.2,0.6h-0.8l0,0l-1.3-1.4l-0.6-0.7h-1.5l-0.6-1.4l-1.4-2l-1.3,0.6l-1.4,1.4v1.4h-1.4h-0.5
			l-1.5-0.6l-1.2-0.8l-0.8,0.8l-1.3,0.6h-1.3l-2.2-2h-0.5l-2.2,0.6l-1.3-0.6l-1.4-2.1l-0.6-1.4l-2.7-1.3l-2.1,0.7l-0.6-0.7l-2.1,0.7
			l-3.3-29.6L993.8,278.5"/>
		<polyline id="us-map-state-22_1_" fill="#FFFFFF" stroke="#0979AF" stroke-width="0.9906" stroke-miterlimit="10" points="
			1031,332.1 1031,332.1 1031.8,332.1 1033,331.5 1034.5,330 1034.5,328.6 1035.1,328 1035.1,325.2 1035.1,325.2 1035.1,323.9 
			1035.1,323.2 1035.1,322.5 1035.7,321.2 1036.4,319.8 1037.8,320.4 1039.1,321.7 1039.9,321.2 1039.9,319.8 1039.1,319 
			1039.9,317.7 1039.9,316.2 1040.5,314.9 1041.8,314.9 1041.8,312.8 1043.2,312.2 1044.5,312.8 1047.2,310.8 1048,308.7 
			1050,307.4 1050,304.6 1050,303.8 1050,302.5 1050,301.9 1050.5,301.9 1050.5,300.3 1050.5,299.1 1051.3,295.6 1051.3,294.3 
			1050.5,290.8 1050,290.1 1050,288.8 1050.5,288.8 1051.3,288.8 1054,304.6 1068.1,301.9 1069.6,311.4 1070.2,310.1 1071.6,309.3 
			1071.6,308.1 1072.9,306.6 1073.5,305.2 1074.3,304.6 1075.7,305.2 1077.7,302.5 1077.7,301.9 1078.4,301.9 1078.9,302.5 
			1080.4,303.2 1082.3,302.5 1082.3,301.9 1083.1,300.3 1084.5,300.3 1084.5,299.8 1085.8,299.1 1087.2,299.8 1088.5,300.3 
			1090.5,300.3 1090.5,300.3 1090.5,301.1 1091.2,301.9 1091.2,302.5 1092.6,303.8 1092.6,304.6 1092.6,306.6 1091.2,307.4 
			1085,304.6 1084.5,304.6 1084.5,305.9 1083.7,307.4 1084.5,309.3 1083.1,310.8 1083.1,312.8 1081.8,313.5 1081,314.2 
			1079.6,316.2 1078.9,316.2 1077.7,316.2 1076.2,317.7 1075.7,319.8 1075.7,320.4 1075.7,322.5 1074.3,323.2 1073.5,323.9 
			1071.6,323.9 1071.6,323.2 1070.2,322.5 1068.9,322.5 1068.9,325.2 1068.9,325.9 1068.1,326.6 1068.1,328.6 1066.9,330 
			1066.9,331.5 1066.2,333.5 1065.4,334.8 1064.2,337.5 1063.5,339.7 1064.2,341 1063.5,342.5 1063.5,343 1063.5,343.8 
			1062.1,345.2 1060,344.6 1058.1,346.5 1056.7,346.5 1056.7,347.3 1055.9,348.6 1055.4,348.6 1052.7,350 1051.3,350 1050,349.3 
			1050,350 1047.2,351.4 1045.3,351.4 1043.2,350 1041.8,349.3 1041.3,347.9 1041.8,346.5 1039.1,346.5 1037.2,344.6 1034.5,341.7 
			1033,341 1033,339 1031,336.2 1031,334.2 1031,333.5 1031,332.7 1031,332.1 		"/>
		<path id="us-map-state-21_1_" fill="#FFFFFF" stroke="#0979AF" stroke-width="0.9906" stroke-miterlimit="10" d="M1119.4,292.9
			c1.6-3.6,3.9-4.7,5.6-8.4c1.1-0.9,1.9-2.2,2.7-3.3c-7.4-4.7-4.7-8.5-8.3-13.8c2.5-2.3,2.7-6.3,5.4-7.2c2.9-1.1,6.1-1.1,7.9,1.7
			c0.7,1.1,1.1,2.4,1.5,3.6c0.5,1.7,1,3.2,1,4.9c0,1.6,0.3,3.3,0.7,4.9c0.3,1.3,0.6,2.7,0.9,4c0.5,2.1,1,4.3,0.6,6.4
			c-0.2,0.9-0.6,1.4-0.9,2.2c-0.4,0.9-0.4,2-0.7,3c-1,4-2.5,7.8-4.1,11.6c-0.7,0-1.3,0-2,0C1130.8,297.6,1120.7,297.3,1119.4,292.9"
			/>
		<path id="us-map-state-20_1_" fill="#FFFFFF" stroke="#0979AF" stroke-width="0.9906" stroke-miterlimit="10" d="M1125,192.5
			c7.2-2.6,14.8-4.3,22.2-6.3c-0.4,2.4,0.9,4.9,0.8,6.9l0.5,1.3l-0.5,0.8l-0.8,1.3l-2,2.8l0,0l-1.3,1.4v1.3l1.3,2l-0.7,2.2v1.3
			l-0.6,0.8v1.3v1.4v0.6v2.2l-0.8,1.3l0.8,3.5v2.7l0.6,2.8c0.4,2-1,3.3,0.7,5.5c-4.1,0.9-7.9,3.3-10.1,0l-2-11.8l-1.4-1.3l-0.7,0.7
			l-0.6-0.7v-2l-0.7-2.2V211l-1.4-2.1v-2.2l0.7-0.5v-0.7l-0.7-2.1C1126.7,200,1125.9,196.2,1125,192.5"/>
		<polyline id="us-map-state-16_1_" fill="#FFFFFF" stroke="#0979AF" stroke-width="0.9906" stroke-miterlimit="10" points="
			843.1,273.6 842.5,271.5 841.9,270.3 841.9,269.5 841.9,267.4 841.9,267.4 843.1,265.4 843.1,264 843.9,262.5 843.9,261.9 
			841.9,260.5 841.9,259.2 842.5,259.2 842.5,257.8 841.9,257.1 841.9,255.7 843.9,255.7 856.8,255.7 879,255 896.6,254.3 
			909.4,253.7 909.4,254.3 910.1,255 910.8,255.7 911.5,256.4 911.5,257.1 910.8,259.8 911.5,261.3 911.5,263.2 912.1,264.7 
			912.1,266 912.8,267.4 914.2,267.4 917.5,268.1 918.2,271.5 918.2,271.5 918.9,272.2 921.6,273.6 921.6,275.7 922.2,276.3 
			923.5,277.1 924.9,278.5 924.9,279.1 924.9,282.6 923.5,284.5 923,287.4 921.6,288.8 920.3,288.8 918.9,290.1 914.2,290.8 
			914.2,292.1 913.5,294.3 916.2,297 916.2,299.1 914.2,300.3 914.2,301.9 914.2,302.5 913.5,303.8 911.5,305.2 910.1,306.6 
			911.5,307.4 910.8,309.3 910.1,309.3 909.4,309.3 908.7,308.1 906.7,306.6 906,305.2 897.9,306.6 877.6,307.4 868.2,307.4 
			852.7,307.4 852.7,306.6 852,305.9 852,302.5 851.2,300.3 851.2,299.1 852,297 850.7,296.4 851.2,294.9 850,294.3 850.7,292.1 
			850,292.1 850,290.8 848.5,290.8 848.5,290.8 848,289.4 848,288.8 848.5,286.7 848,286.1 848,284.5 848,283.9 846.6,281.8 
			846.6,280.5 845.2,279.8 845.2,278.5 844.6,277.1 844.6,276.3 844.6,275.7 844.6,273.6 843.1,273.6 		"/>
		<path id="us-map-state-15_1_" fill="#FFFFFF" stroke="#0979AF" stroke-width="0.9906" stroke-miterlimit="10" d="M1032.4,393.9
			l3.3-1.9h2.1l1.3-1.4l2.2-1.4l0.5-0.7l1.4-0.6l12.2-0.8l4.6-0.6l2.1,1.4l0.6-0.8l1.5,2.1l0.6,1.4v0.6l0.6,0.8l16.4-2.8
			c5.8,4.3,11.5,9,17.5,13.1c-1.7,3.1-5.4,5.2-6.7,8.3c-1.3,3.2,1.3,7.8-2,10.3c-0.9,0.7-2.1,0.9-3,1.6c-1.5,1-2.1,2.8-2.8,4.5
			c-0.7,1.5-1.5,3-2.5,4.4c-0.3,0.4-0.6,0.8-1.1,1.1c-0.5,0.3-1.2,0.3-1.8,0.3c-2.5,0-5,0-7.5,0c0.2,2.8,0.2,6-0.6,8.6
			c-5.7-1.7-9.8-10.4-11.5-15.6l-1.9-1.4h-0.8l-1.4-0.7V423l-1.3-0.6v-0.8l-1.4-0.8v-1.3v-0.7l-1.3-0.7l-1.4-0.6l-0.5-0.7l-1.4-0.7
			l-0.6-0.8l-1.3-1.3l-2.2-2.1l-1.9-1.4l-2.7-4.1l-0.8-0.6l-1.3-1.4v-1.5h-1.4h-1.3l-2.7-1.9h-1.4l-0.7-0.8l-0.6-1.4l0.6-1.3
			l2.1-2.8V393.9"/>
		<polyline id="us-map-state-14_1_" fill="#FFFFFF" stroke="#0979AF" stroke-width="0.9906" stroke-miterlimit="10" points="
			535.1,287.4 544.6,246.7 566.2,251.6 581.8,255 602.1,259.2 618.9,262.5 603.4,351.4 601.3,365.1 600,367.2 598.6,367.8 
			598,367.8 597.3,367.2 595.9,365.1 595.3,365.1 594.6,365.1 592.6,365.1 591.3,365.8 590.5,367.2 591.8,369.9 591.3,370.7 
			590.5,372.1 591.3,374.1 590.5,375.4 590.5,376.8 591.3,379.7 590.5,382.4 589.9,383 589.1,385.2 572.2,359.6 531.7,299.1 
			535.1,287.4 		"/>
		<path id="us-map-state-13_1_" fill="#FFFFFF" stroke="#0979AF" stroke-width="0.9906" stroke-miterlimit="10" d="M1071.1,441.7
			c-2.3,1.7-4.4,3.9-4.9,6.7c-0.1,0.8-0.1,1.5-0.1,2.3c0,3.9,2.5,17.5-3.9,14.9h-2.1h-1.2v1.3v1.4l0.6,0.6l0.6,1.4v2.9l-1.9,0.5
			h-0.8l-0.6-2.7l-1.3-0.7l-37.9,2.9l-1.3-1.6v-0.6l-1.3-2.7v-0.7l-1.4-1.4l-0.8-0.6v-1.4v-2.9v-0.6v-2.1v-1.2l-1.3-0.8l-0.6-2.1
			v-2.7l0.6-1.4v-2l0.8-0.8l0.5-1.3v-0.8l-1.3-0.6l0.8-1.4l-0.8-1.4l-0.6-0.7l-0.8-1.4l-0.5-1.9l-0.8-1.6l-0.6-0.5l-0.8-0.8
			l-4.6-19.2l-5.4-17.9"/>
		<path id="us-map-state-12_1_" fill="#FFFFFF" stroke="#0979AF" stroke-width="0.9906" stroke-miterlimit="10" d="M968.2,279.8
			c7.5-7.2,4-18.9,4-27.5c-7.9-3.5-3-24.8,0-31c0.7,0.2,1.4,0.5,2.1,0.7c0.6-2.4,1.5-3.2,2.7-4.8c-0.2,2.3,0.2,4.6,0,6.9
			c0.3-1.1,1.1-3,1.3-3.5c0,1.2-0.1,2.3,0,3.5c2.2-4-1-10.1,4.9-10.3c-7-11,9.7-6.1,14.1-4.2c8,3.5,9.8,12,6.7,20.3
			c-0.9,2.3-6.6,11.2-2,12.1c3.7,0.7,4.3-7,8-8.1c8-2.5,13.2,19.1,9.5,24.5c-0.7-1,0.8-0.9-0.7-2c-3,5.5-5.4,16.1-10.7,19.2
			c-5.4,3.2-12.7,1.3-17.4,1.7C983.1,278,975.8,280.2,968.2,279.8"/>
		<polyline id="us-map-state-11_1_" fill="#FFFFFF" stroke="#0979AF" stroke-width="0.9906" stroke-miterlimit="10" points="
			603.4,351.4 618.9,262.5 624.3,263.2 641.8,266.8 656.7,269.5 654,287.4 681,290.8 672.3,361.7 652.6,359.6 635.1,356.9 
			616.2,353.4 603.4,351.4 		"/>
		<path id="us-map-state-9_1_" fill="#FFFFFF" stroke="#0979AF" stroke-width="0.9906" stroke-miterlimit="10" d="M1116.2,292.1
			c1.3-2.1,1.9-3.8,4.7-2.7c-5.3,7.8,11.6,16.6,7.4,20.7c0.4,0.1,1.5-0.8,2.1-0.8c0.2,1,0.4,1.9,0.6,2.9c-8.6,1-6.5,2.2-10.1-3.5
			C1118.4,304.8,1117.6,296.6,1116.2,292.1"/>
		<path id="us-map-state-7_1_" fill="#FFFFFF" stroke="#0979AF" stroke-width="0.9906" stroke-miterlimit="10" d="M1021,366.6
			l1.9-1.5h1.4l0.6-1.2l2.7-0.8v-1.4l1.5-0.7l1.2-0.6l0.7-0.8v-1.3l1.4-1.4v-0.8l0.6-1.2l4.2-2.9l4.6-5.5l-0.5,1.4l0.5,1.4l1.4,0.7
			l2.1,1.4h1.9l2.8-1.4v-0.7l1.3,0.7h1.4l2.7-1.4h0.5l0.8-1.3v-0.8h1.4l1.9-1.9l2.1,0.6l1.4-1.4V343v-0.5l0.7-1.5l-0.7-1.3l0.7-2.2
			l1.2-2.7l0.8-1.3l0.7-2V330l1.2-1.4v-2l0.8-0.7v-0.7v-2.7h1.3l1.4,0.7v0.7h1.9l0.8-0.7l1.4-0.7v-2.1v-0.6l0.5-2.1l1.5-1.5h1.2h0.7
			l1.4-2l0.8-0.7l1.3-0.7v-2l1.4-1.5l-0.8-1.9l0.8-1.5v-1.3h0.5l6.2,2.8l1.4-0.8c0-0.7,0-1.3,0-2c1.7,0.1,2.6-0.2,4.1,0.5
			c1.7,0.8,3.2,1.9,5.1,2.4c0.7,0.2,1.6,0.4,2.1,1c0.5,0.6,0.5,1.6,0.3,2.3c-0.6,2-2.2,3.8-2,5.8c0.2,1.9,1.9,3.3,3.7,3.9
			s3.7,0.7,5.5,1.2c2.8,0.8,5.9,3.4,6.5,6.4c0.3,1.4,0.2,2.8,0.1,4.2c0,0.6-0.1,1.2-0.3,1.7c-0.1,0.4-0.3,0.7-0.5,1
			c-0.3,0.9-0.1,1.8,0,2.7c0.2,1,0.4,2,1.2,2.7c0.6,0.5,1.4,0.7,2.1,0.9c1.8,0.5,3.5,0.8,4.9,2.1c1.2,1.1,1.2,3.1,2.2,4.1
			c-0.5-0.5-1.3-1.1-2.1-2c0.2,2.5-0.4,1.9-0.6,2c-3.4,1.7-9.2,2.6-13.7,3.5l-14.7,3.5l-31.2,5.5l-10.8,1.3l-4.6,0.6h-2h-1.3
			l-4.9,0.8l-5.4,1.3l-8.8,1.4h-2.7L1021,366.6"/>
		<path id="us-map-state-5_1_" fill="#FFFFFF" stroke="#0979AF" stroke-width="0.9906" stroke-miterlimit="10" d="M752,208.9
			l3.5-53.6l0,0c14.4,1,28.7,1.5,43.1,1.9c9.8,0.3,27.6-2.1,35.8,1.5v0.6l0.6,4.2l0.8,0.7l-0.8,2l0.8,2.1l-0.8,0.6l0.8,0.7l-0.8,2.8
			l0.8,1.4l0.7,3.4l0,0l2,4.2v2.7v0.8v1.3v0.7v2.1l0.7,2.7l-0.7,1.4l1.3,1.3l-0.6,1.4l0.6,4.9v0.6v1.5v0.6l2.1,2.1v1.2v0.8v2.7v0.8
			v1.3h-22.4l-21.6-0.7l-24.3-0.6L752,208.9"/>
		<path id="us-map-state-4_1_" fill="#FFFFFF" stroke="#0979AF" stroke-width="0.9906" stroke-miterlimit="10" d="M591.3,392.7
			l-1.4-3.5l-0.8-1.3v-2.7l-55.9-86.1l10.6-53l-52.7-13.8v2.1l-1.3,5.5l-0.6,4.8l-2.1,4.7l-0.6,1.4h-1.4l-0.7-0.6v-0.8l-0.6-1.3H483
			l-0.6,1.3l-0.7,1.4l-0.6,5.6v2.8l0.6,1.3v2l0.7,1.5l2,2.8v2.7v0.8l-0.6,3.3l-1.4,3.5v4.1l1.4,2l0.6,2.9l0.7,2.7v2l0.6,0.8l1.4,1.3
			l2.1,2.7l-0.8,1.4l-1.3,0.6h-0.6v2.7l0.6,2.2h0.7l1.4,2.1v2l0.6,0.8h1.3h1.4l0.8-0.8h0.5v-2v-1.4l-0.5-0.7v-1.4h1.3l2,0.8l1.3,0.6
			l2.1,1.3l0.6,1.4v2.2l-1.3-0.8h-2.7v0.8l0.7,1.9l2,1.5v4.1h-2l-0.7-0.7l-0.6-1.4l-2.2-0.6l-1.3-0.8l-0.6,0.8v0.6l0.6,2.8v4.2
			l0.8,1.9l1.3,2.8l1.4,3.5l2.7,1.4v0.6l-2.1,1.5l-3.3,0.6h-0.8v1.4v1.3v0.8l0.8,2.7l0.5,1.4v3.3l1.4,1.6l1.4,0.6l0.7,1.3v4.2l2,1.3
			l4,6.3l1.4,2.7l0.7,2.1l0.6,3.5l-2.7,3.3l-0.6,1.4l1.4,2.1l0.6,1.4l2.1,0.6l2.7,2.1l1.9-0.7v0.7l8.1,6.9l2.1,1.3l1.3,0.8l5.5,4.7
			l2.7,2.2v1.3l1.3,0.8l2.7,2.7l2,1.3v3.4v1.5l2.7,1.4l2.1,4.1l0.6,8.2l-0.6,1.4c-0.7,9.6,36.2,0.4,37.8,8.9c1.7-0.2,2.9-1.2,4-2.7
			v-1.4v-0.7l-1.9-0.6v-1.4l1.9-1.4l0.8-2.7l0.6-4.1l0.8-4.9l1.3-2.1l0.6-2l3.5-0.7l2.7-0.8l0.6-0.6V401l-0.6-0.8l-1.4-0.7l1.4-0.7
			v-1.3l-1.4-1.4l-1.3-1.4V392.7z"/>
		<path id="us-map-state-3_1_" fill="#FFFFFF" stroke="#0979AF" stroke-width="0.9906" stroke-miterlimit="10" d="M1055.9,257.8
			c4.8-3.5,10.7-10.3,8.9-15.8c-3.4-0.3-2.4-1.6-2.7-4.1c4-2.5,43.4-4.3,32.4-17.3c0.9-1,1.2-1.6,2.1-2.8c-0.7,0.3-1.4,0.5-2.1,0.8
			c-0.4-2.8,0-0.5-0.6,0c-1.9-2.9,9.5-20.3,14.4-22.8c2.8-1.4,15.6-3.4,17.1-2.3c1.6,1.1,1.9,7.8,2.9,9.9l0.7,2.1v0.7l-0.7,0.5v2.2
			l1.4,2.1v1.3l0.7,2.2v2l0.6,0.7l0.7-0.7l1.4,1.3l2,11.8c2,7.1,2.9,20,3.4,27.5c0.2,2.7-0.2,8.2-3.4,11c0.7-3.6,0.5-7.2-2-9.7
			c0.8,1.3,1.1,3.1,2,4.8c-6.3-1.9-11.2-3.8-16.9-6.1v-1.4l-1.5-2.8l-1.2-0.6h-0.7l-0.8-1.5h-1.2v-0.6l-11.5,2.7l-17.6,4.2
			l-16.2,3.4C1062.2,261.2,1057.1,264.1,1055.9,257.8"/>
		<path id="us-map-state-2_2_" fill="#FFFFFF" stroke="#0979AF" stroke-width="0.9906" stroke-miterlimit="10" d="M659.4,462.9v-0.7
			l12.9-100.5l22.3,3.4l20.2,2.1l24.3,2.1l15.6,0.6l-0.7,9h-0.7v1.4l-2.7,43.3l-1.3,15.9l-1.4,18.5l-0.7,0.7h-0.6h-12.9l-12.7-1.2
			l-14.3-1.6l-10.8-0.6c0.6,1.1,0.7,2.3,1.4,3.4c-4.9-0.4-20.4-5.1-24-2.4c-2.4,1.8,0.4,5.9-1.7,7.6
			C669.7,465.4,661.8,463.2,659.4,462.9"/>
		<path id="us-map-state-42_1_" fill="#FFFFFF" stroke="#0979AF" stroke-width="0.9906" stroke-miterlimit="10" d="M1150.7,179.4
			c2.7-1.1,2.1-1.7,4.6-2.2c-2-3.5,1-9.3,1.4-13.2c0.6-5.6-0.1-11.2,0.9-16.8c0.8-4.6,3.3-11.3,8.4-12.4c3.6-0.8,7.3,0,10.6,1.6
			c2.9,1.5,3.6,3.6,5.2,6.5c2.5,4.5,1.9,12.2,4.3,15.9c1.4,2.1,3.8,1.7,5.1,3.2c0.9,1.2,1.2,4.3,2.4,5.5c1.8,1.8,6.4,1.4,6.5,4.3
			c0.1,3.7-1.9,5.1-4.1,7.7c-1.4,1.6-2.1,3.1-4.3,4c-0.7,0.3-5,0.3-5.1,0.4c-1,1.1,0,3.6-1.4,3.7c-0.5,0-0.9-0.3-1.2-0.7
			c-1.1-1.1-2.3-2.3-3.4-3.4c-1.1,2.9-0.9,6.1-1.6,9.1c-1,4.1-3.4,7.7-5.9,11.2c-0.7,1.1-9.4,12.2-8.3,13.2c-2.1-2-4.1-4.2-4.7-7.6
			l-0.7-2.9l-8.2-26.7L1150.7,179.4"/>
		<polyline id="us-map-state-52_1_" fill="#FFFFFF" stroke="#0979AF" stroke-width="0.9906" stroke-miterlimit="10" points="
			672.3,361.7 681,290.8 693.2,292.1 714.2,294.3 725.6,295.6 745.9,297 757.4,298.4 770.2,299.1 770.9,299.8 770.9,316.9 
			768.2,370.7 754.7,369.9 739.1,369.3 714.8,367.2 694.6,365.1 672.3,361.7 		"/>
		<polyline id="us-map-state-49_1_" fill="#FFFFFF" stroke="#0979AF" stroke-width="0.9906" stroke-miterlimit="10" points="
			656.7,269.5 664.2,225.4 664.8,217.2 665.6,216.5 687.8,219.2 710.1,222 734.4,224.7 750.6,226 747.9,261.3 745.9,297 
			725.6,295.6 714.2,294.3 693.2,292.1 681,290.8 654,287.4 656.7,269.5 		"/>
		<path id="us-map-state-48_1_" fill="#FFFFFF" stroke="#0979AF" stroke-width="0.9906" stroke-miterlimit="10" d="M697.3,458.7
			c-0.7-1-1.1-2.2-1.4-3.4l10.8,0.6l14.3,1.6l12.7,1.2h12.9h0.6l0.7-0.7l1.4-18.5l1.3-15.9l2.7-43.3v-1.4h0.7l18.9,1.4h14.3h6.1
			l0.6,0.7l2.1,0.6l-1.5,32.4l-0.6,2.1h2.1l0.6,0.7l2.1,2l0.6,0.7l1.3-0.7l0.8,0.7h1.2l0.7-2l0.8,1.3l0.6,0.7l1.3,0.7v1.4v0.8h1.4
			v0.6l1.3-0.6l0.8,0.6l2.7,1.3l1.4-0.7h0.5l0.8,0.7l1.4,0.8h0.5l1.4-0.8h2.1h1.4v1.4v0.6h1.3l0.6,0.8v1.3l0.8,0.8l1.3-0.8l2-1.3
			h0.5l0.8,1.3h0.6l0.8,1.4h1.3l1.4-1.4l1.3,0.8v0.6v1.3h1.4v-1.9l1.3-0.8v-0.6h0.6h0.8l1.3,1.4h0.6l1.5-0.8h0.6l0.6,1.4l1.5,0.8
			h1.2l0.8,1.3l0.7-1.3h0.7l2-1.4h0.7l1.3-0.8l0.7,0.8h2l0.7-0.8l2-0.6l1.3,0.6h1.3h0.8l1.4-1.3h0.6l2.7,2.1l2.7,1.4l0.7,0.5
			l1.4,0.8l3.3,0.7v0.7l2.1,0.6l0.6-0.6l3.5,0.6l0.5,9.7l0.8,17.8l1.4,2.1l0.5,0.8l1.4,2l-0.6,2.1l1.4,0.6l0.5,1.4v0.7l0.8,0.6v1.6
			l1.4,2.7h0.6v0.6l0.7,1.4l-0.7,0.8v0.5v1.4v1.4l-0.6,1.5v1.2l-0.8,1.5l-0.6,0.7v2.7l-0.8,0.7l0.8,2l0.6,2.9
			c-2.9,2.3-4.5,5-1.9,7.5c-2.3-0.3-4.3,0.5-6.4,1.2c-0.6,0.2-4.6,2.1-4.1,3.1c-1.5-2.8-3-5.8-2.8-9c-2.1,1-4.4,1.6-6.7,1.5
			c0.3,2.6,0.8,5.1,1.6,7.5c0.4,1.2,0.9,2.4,0.9,3.7c0,2.6-1.8,4.9-4,6.3c-1.9,1.3-4.2,2.1-6.5,2.3c-1.4,0.2-2.9,0.1-4.4,0
			c-3.9-0.3-7.7-0.9-11.5-1.9c0,1.9,1.1,3.6,2.1,5.1c1.1,1.6,2.1,3.3,3.2,4.9c-2.8,0.4-8.2,0.5-9.9,3c-1.1,1.7-2,3.7-3.3,5.3
			c-0.6,0.8-1.3,1.4-1.9,2.2c-1.1,1.6-1.6,3.5-2.1,5.4c-0.8,3.1-2.3,7.1-1.8,10.3c0.4,2.1,1.2,4.5,1.9,6.5c0.6,1.7,1.1,4.1,2.3,5.5
			c0.7,0.8,1.3,1,1.6,2.2c0.1,0.4-0.1,2.5,0.6,2.5c-3.8-0.4-7.9-0.4-11.6-1.7c-3.3-1.2-6.5-2.6-9.8-3.9c-8.5-3.1-8.2-4.1-11.5-12.8
			c-2.4-6.4-3.3-9.4-7.1-15.1c-4.2-6.3-7.6-11-10.6-17.9c-4.7-10.8-15.9-26.5-29.7-19.9c-6.4,3.1-5.4,13.6-12.8,13
			c-3.2-0.2-13.7-8.2-16.3-11.7c-5.4-7.4-3.8-15.3-10.1-22.8c-4.8-5.6-13.3-12.2-16.8-18.6C697.8,459.2,697.5,458.9,697.3,458.7"/>
		<path id="us-map-state-47_1_" fill="#FFFFFF" stroke="#0979AF" stroke-width="0.9906" stroke-miterlimit="10" d="M1068,536.3
			c0-0.1-0.1-0.3-0.2-0.4c-0.8-1.5-3.3-0.9-4.6-1.6c-1.3-0.7-2.6-2.7-3.5-3.8c-2.2-3-0.9-5.4-0.2-8.5c0.2-0.9-0.1-2-1-2.3
			c-1.3-0.4-2.5,1.2-3.9,1.1c-0.8-0.1-1.4-0.8-1.6-1.6c-0.2-0.8-0.1-1.6,0-2.3c0.5-3.9,2.7-9.2,1.8-13.1c-0.8-3.7-3.8-4.7-6.6-6.8
			c-3.8-2.8-7.8-9.8-12.4-10.9c-3.1-0.8-8.9,1.5-11.9,2.3c-3.8,1-7.5,2.3-11.1,3.7c-1.8-5.4-7.6-8.5-13.2-9.2
			c-6.1-0.8-14,2.5-19.7,0.5c-3.5-1.2-6.4-6.4-3-9.5c2.7-2.4,10.5-2.1,14.1-2.7l23.8-2.7l1.3,2.7v0.6l1.3,1.6l37.9-2.9l1.3,0.7
			l0.6,2.7h0.8l1.9-0.5v-2.9l-0.6-1.4l-0.6-0.6V467v-1.3h1.2h2.1c1.1,0.4,2.2,0.6,3.3,0.6c0.7,0.2,2,0,2.7,0
			c-0.3,3.5-0.6,1.4-1.2,1.4c2.8-0.2,10.1,20.4,11.7,23c4,6.7,5.6,14.3,10.3,20.6c2.8,3.8,6.8,8.5,7,13.5c0,0,3.6,3.6,4,4.3
			c1,2.1,1.3,4.6,1.5,6.9c0.6,5.2-0.5,10.2-1,15.4c-0.3,2.8-0.6,5.9-2.4,8.1c-1.2,1.4-6.9,5.5-8.4,2.6c-2.1-4.2-3.7-8.2-7.9-10.7
			c-4.1-2.5-8.8-2.9-10.1-8.5c-0.1-0.5-0.2-1.1-0.6-1.6c-0.7-0.8-2.2-0.7-2.9-1.6C1067.6,538.7,1068.3,537.4,1068,536.3z"/>
		<path id="us-map-state-43_1_" fill="#FFFFFF" stroke="#0979AF" stroke-width="0.9906" stroke-miterlimit="10" d="M834.4,158h14.9
			c6.1,0,11.1,1.2,8.8-6.9c6,0.9,2.4,5.8,5.4,9.6c2.6,3.4,5.5,2.9,10.1,3.4c0.9,0.1,5,0,6.2,0.1c2.6,0.3,7.2-1.6,8.1,2.7
			c1.2,1.1,3.1,1.8,4.6,2.7c3.3-4.8,3.7,2.4,7.8,2.5c3.9,0.2,5.3-2.7,9.1-3.2c-2.4,0.3,4.9,2.8,5.4,2.9c2.6,0.5,6.7,0.2,9.5,0
			c-4.3,5.4-12.7,7.8-17.8,12.8c-3.7,3.7-11,10-12.6,13.9v9v1.4l-0.7,0.7l-2,1.4l-2,1.3v1.5l-1.3,1.3v0.6v1.5v0.6h1.3l1.3,2.8
			l-1.3,2.7v2.7v0.8v2.8v1.3v1.4l1.3,1.3l0.7,0.8l2,0.6l2,0.8l0.7,0.6l0.7,1.5h1.3l2.1,1.2l1.3,2.1l2,2.2l1.4,0.5l1.3,0.8h0.7
			l1.4,1.4l0.6,1.3l0.7,2.8v1.4v0.7v1.4l-12.8,0.6L879,255l-22.2,0.7h-12.9l-0.8-31.6l-0.6-1.5l-0.6-0.6l-1.5-0.7l-1.2-2.1l-0.7-0.6
			v-1.4l1.3-0.7l1.4-0.8l0.7-0.6v-2.8V211v-0.8v-2.7v-0.8v-1.2l-2.1-2.1v-0.6v-1.5v-0.6l-0.6-4.9l0.6-1.4l-1.3-1.3l0.7-1.4l-0.7-2.7
			v-2.1v-0.7v-1.3v-0.8v-2.7l-2-4.2l0,0l-0.7-3.4l-0.8-1.4l0.8-2.8l-0.8-0.7l0.8-0.6l-0.8-2.1l0.8-2l-0.8-0.7l-0.6-4.2v-0.6
			C834.4,158.5,834.4,158.2,834.4,158"/>
		<polyline id="us-map-state-27_1_" fill="#FFFFFF" stroke="#0979AF" stroke-width="0.9906" stroke-miterlimit="10" points="
			745.9,297 747.9,261.3 760.9,261.9 783.1,263.2 804.1,264 818.2,264.7 819.5,265.4 824.4,268.1 825.7,268.1 826.3,267.4 
			828.2,267.4 833.1,266.8 835,268.1 836.5,268.1 837.1,269.5 837.7,270.3 838.5,270.3 839.8,270.8 840.4,271.5 841.2,272.2 
			841.9,273.6 843.1,273.6 844.6,273.6 844.6,275.7 844.6,276.3 844.6,277.1 845.2,278.5 845.2,279.8 846.6,280.5 846.6,281.8 
			848,283.9 848,284.5 848,286.1 848.5,286.7 848,288.8 848,289.4 848.5,290.8 848.5,290.8 850,290.8 850,292.1 850.7,292.1 
			850,294.3 851.2,294.9 850.7,296.4 852,297 851.2,299.1 851.2,300.3 852,302.5 852,305.9 852.7,306.6 852.7,307.4 852.7,309.3 
			854.1,310.1 854.7,312.2 856.1,312.8 856.8,314.2 856.8,314.9 858.1,316.2 858.1,317.7 858.7,318.3 836.5,318.3 819.5,318.3 
			787.2,317.7 770.9,316.9 770.9,299.8 770.2,299.1 757.4,298.4 745.9,297 		"/>
		<path id="us-map-state-25_1_" fill="#FFFFFF" stroke="#0979AF" stroke-width="0.9906" stroke-miterlimit="10" d="M516.4,145.9
			c0.6-4.7,0.4-9.4,0.5-14.1c0-1.8,0-3.7,0-5.5c0-0.5,0.2-5.1-0.1-5.3c6.9,2.7,13.8,5.5,20.7,8.2c-0.5,2.4-1,4.9-1.6,7.3
			c-0.2,1.2-0.5,2.3-1,3.4c-0.9,2.2-2.3,5-1.2,7.3c0.3,0.6,0.8,1.2,1.4,1.3c0.7,0.1,1.3-0.4,1.8-0.8c2-1.8,3.5-4.2,4.4-6.8
			c0.9-2.4,1.7-5.3,1.7-8c0-1.4-0.3-5.2-1.7-6c2.8,1.5,0.8-0.6,1.2-2c1.8-0.3-0.2-4.4-0.6-8.4c21.1,6.7,42.5,12.7,64.2,17.4
			l-8.1,39.8v3.4l-1.3,1.4l1.3,2l-0.7,3.5l0.7,1.3l-14.3-2.7l-11.5-2.7l-0.6,0.6h-1.3l-1.4-0.6h-2.7l-0.6-0.6l-0.7,0.6h-3.5h-2.7
			l-1.9,0.6l-1.4,0.8l-1.3-0.8l-0.8-1.2h-1.4l-3.3,0.6l-1.3-0.6l-2.1,0.6v-1.4l-1.4-0.7l-0.6-0.7h-1.3h-2.1l-0.6-0.5h-1.4l-1.3,0.5
			h-1.4h-1.3h-1.4l-1.3-0.5h-0.6l-0.8-0.8l-1.9-0.8c0,0-0.8-0.6-0.8-0.6c0.3-1.9,1.4-5.2-0.3-6.7c-0.6-0.6-1.5-0.8-2.3-1.1
			c-2.2-0.8-4.3-2-6.3-3.1c-1-0.6-2-1.2-3.1-1.8c-0.6-0.3-2-0.7-2.2-1.3c-0.2-0.7,0.9-2.8,1.1-3.5c0.4-1.2,0.7-2.4,1-3.6
			C515.6,150.9,516,148.4,516.4,145.9z"/>
		<path id="us-map-state-23_1_" fill="#FFFFFF" stroke="#0979AF" stroke-width="0.9906" stroke-miterlimit="10" d="M1014.9,396.1
			V392l2.6-0.8l1.3-0.6v-2.1l0.7-0.6l0.7-2.2l2-0.5h2.7l0.7-0.8l3.5-2.8l1.9-1.3h0.8l0.6-1.4l0.6-2.7l1.5,0.6v-1.4h0.6l0.6-1.3
			l1.5,1.3h0.6l1.3-1.3v-0.7l1.4-1.3h2.1h0.6l1.3-0.8l0.8-2.7l0.6-1.4h1.3l0.8-2.1v-1.2v-1.6h2l4.6-0.6l10.8-1.3l31.2-5.5l14.7-3.5
			c2.6-0.5,5.1-1.2,7.7-1.7c1.5-0.3,3.1-0.5,4.7-0.1c0.7,0.2,1.3,0.4,1.9,0.8c0.7,0.5,1.5,1.3,1.7,2.2c0.2,0.7,0,1.5-0.5,2
			c-0.3,0.3-0.6,0.5-1,0.7c-0.8,0.4-1.7,0.7-2.7,0.9c-0.5,0.1-1.1,0.2-1.5,0.5c-0.4,0.2-0.8,0.6-1.1,0.9c-0.6,0.5-1.1,1.1-1.7,1.6
			c-0.3,0.2-0.7,0.8-0.7,1.2c0,0.4,0.5,1,0.8,1.4c1.1-0.6,2.2-1.1,3.4-1.5c0.5-0.2,1.1-0.2,1.5-0.5c0.2-0.1,0.3-0.3,0.6-0.3
			c0.3,0,0.6,0,0.9,0c0.3,0,0.6-0.1,0.8-0.2c1.3-0.4,2.7-0.1,4,0.2c0.4,0.1,0.8,0.2,1.2,0.4c0.6,0.3,0.8,0.9,1,1.4
			c0.4,1.1,0.1,2.2-0.1,3.3c0,0.3-0.1,0.5-0.2,0.8c-0.1,0.4-0.4,0.7-0.6,1c-0.3,0.4-0.7,0.6-1,1c-0.3,0.3-0.3,0.6-0.5,0.9
			c-0.4,0.6-1,0.9-1.7,1c-1.7,0.3-3.6-0.6-5-1.5c-0.4-0.3-1-0.6-1.4-0.4c-0.2,0.1-0.4,0.3-0.6,0.5c-1.6,1.7-3.8,2.8-6.1,3
			c2.1,0.6,4.3,1.3,5.5,3.2c0.3,0.4,0.5,0.9,1,1.1c0.2,0.1,0.5,0,0.7,0c1.5,0,2.6,1.5,2.8,3c0.5,5.8-8.1,4.6-11.6,8.7
			c-2.8,3.2-3.9,7.8-5.9,11.5c-1.8,3.2-5,3.4-8.2,4.3l-17.5-13.1l-16.4,2.8l-0.6-0.8v-0.6l-0.6-1.4l-1.5-2.1l-0.6,0.8l-2.1-1.4
			l-4.6,0.6l-12.2,0.8l-1.4,0.6l-0.5,0.7l-2.2,1.4l-1.3,1.4h-2.1l-3.3,1.9L1014.9,396.1"/>
		<polyline id="us-map-state-10_1_" fill="#FFFFFF" stroke="#0979AF" stroke-width="0.9906" stroke-miterlimit="10" points="
			492.5,232.3 491.1,230.3 491.1,226 491.9,224.1 491.9,223.3 493.3,222 493.3,220.6 493.3,218.6 493.3,216.5 494.6,213.8 
			496.6,208.9 497.3,209.6 497.9,208.9 499.3,208.3 499.3,208.3 499.3,208.9 499.3,208.3 499.3,208.3 499.3,208.3 499.3,208.3 
			498.7,208.3 499.3,206.7 500,204.8 501.4,203.4 502.7,203.4 502,203.4 501.4,203.4 501.4,202.8 502,201.3 504.7,194.4 
			504.7,192.5 505.4,191.7 506,190.9 506.8,190.3 506,189.6 506.8,186.9 507.4,184.9 509.5,182.1 509.5,180 510.8,178.6 
			511.4,177.2 511.4,175.9 511.4,175.1 512.1,173.8 512.1,173.1 513.5,173.8 512.8,172.4 513.5,171.8 514.1,169.6 513.5,168.9 
			513.5,167.7 514.1,166.9 514.1,165.6 514.1,165.6 514.8,164.8 515.5,162.1 516.2,161.4 516.8,162.1 516.8,162.8 517.5,162.8 
			516.8,162.1 516.8,161.4 518.2,161.4 518.2,162.1 519.5,162.1 520.9,162.1 521.6,162.8 522.4,163.5 522.4,164.2 523.6,164.8 
			525.1,164.2 525.1,164.2 526.3,165.6 527,166.2 527.8,168.9 527,174.5 527.8,175.1 529.7,175.9 530.5,176.7 531.1,176.7 
			532.4,177.2 533.8,177.2 535.1,177.2 536.5,177.2 537.8,176.7 539.2,176.7 539.8,177.2 541.9,177.2 543.2,177.2 543.8,177.9 
			545.2,178.6 545.2,180 547.3,179.4 548.6,180 551.9,179.4 553.3,179.4 554.1,180.6 555.4,181.4 556.8,180.6 558.7,180 561.4,180 
			564.9,180 565.6,179.4 566.2,180 568.9,180 570.3,180.6 571.6,180.6 572.2,180 583.7,182.7 598,185.4 598,186.9 598,188.2 
			598.6,189 600.7,190.9 601.3,193.1 600.7,194.4 598,197.9 595.9,201.3 594.6,203.4 594.6,204.8 594,205.5 592.6,206.7 
			590.5,208.3 589.9,210.2 588.6,211 587.8,215.1 587.8,215.7 589.1,215.7 590.5,216.5 590.5,217.2 590.5,218.6 590.5,219.9 
			589.1,222.6 588.6,222.6 587.8,224.1 581.8,255 566.2,251.6 544.6,246.7 520.9,239.9 493.3,232.3 492.5,232.3 		"/>
		<path id="us-map-state-8_1_" fill="#FFFFFF" stroke="#0979AF" stroke-width="0.9906" stroke-miterlimit="10" d="M1048,264
			c2.8-2.2,5-4.2,7.9-6.2c1.2,6.3,6.3,3.4,11.6,2.7l16.2-3.4l17.6-4.2l11.5-2.7v0.6h1.2l0.8,1.5h0.7l1.2,0.6l1.5,2.8v1.4
			c7.2,0.8,5.1,6.6,1.2,10.3c3.6,5.3,0.8,9.2,8.3,13.8c-0.8,1.1-1.6,2.4-2.7,3.3l0,0c-2.2,5.3-6.6,3.1-8.8,7.6l-25,5.5l-23.1,4.3
			l-14.1,2.7l-2.7-15.8l-3.3-23.4V264"/>
	</g>
	<polygon id="us-map-state-california" fill="#0A79AE" points="591.3,392.7 589.9,389.2 589.1,387.9 589.1,385.2 533.2,299.1 
		543.8,246.1 491.1,232.3 491.1,234.4 489.8,239.9 489.2,244.7 487.1,249.4 486.5,250.8 485.1,250.8 484.4,250.2 484.4,249.4 
		483.8,248.1 483,248.1 482.4,249.4 481.7,250.8 481.1,256.4 481.1,259.2 481.7,260.5 481.7,262.5 482.4,264 484.4,266.8 
		484.4,269.5 484.4,270.3 483.8,273.6 482.4,277.1 482.4,281.2 483.8,283.2 484.4,286.1 485.1,288.8 485.1,290.8 485.7,291.6 
		487.1,292.9 489.2,295.6 488.4,297 487.1,297.6 486.5,297.6 486.5,300.3 487.1,302.5 487.8,302.5 489.2,304.6 489.2,306.6 
		489.8,307.4 491.1,307.4 492.5,307.4 493.3,306.6 493.8,306.6 493.8,304.6 493.8,303.2 493.3,302.5 493.3,301.1 494.6,301.1 
		496.6,301.9 497.9,302.5 500,303.8 500.6,305.2 500.6,307.4 499.3,306.6 496.6,306.6 496.6,307.4 497.3,309.3 499.3,310.8 
		499.3,314.9 497.3,314.9 496.6,314.2 496,312.8 493.8,312.2 492.5,311.4 491.9,312.2 491.9,312.8 492.5,315.6 492.5,319.8 
		493.3,321.7 494.6,324.5 496,328 498.7,329.4 498.7,330 496.6,331.5 493.3,332.1 492.5,332.1 492.5,333.5 492.5,334.8 492.5,335.6 
		493.3,338.3 493.8,339.7 493.8,343 495.2,344.6 496.6,345.2 497.3,346.5 497.3,350.7 499.3,352 503.3,358.3 504.7,361 505.4,363.1 
		506,366.6 503.3,369.9 502.7,371.3 504.1,373.4 504.7,374.8 506.8,375.4 509.5,377.5 511.4,376.8 511.4,377.5 519.5,384.4 
		521.6,385.7 522.9,386.5 528.4,391.2 531.1,393.4 531.1,394.7 532.4,395.5 535.1,398.2 537.1,399.5 537.1,402.9 537.1,404.4 
		539.8,405.8 541.9,409.9 542.5,418.1 541.9,419.5 541.9,422.4 579.7,426.3 579.7,428.4 581,428.4 583,426.3 583.7,425.7 
		583.7,424.3 583.7,423.6 581.8,423 581.8,421.6 583.7,420.2 584.5,417.5 585.1,413.4 585.9,408.5 587.2,406.4 587.8,404.4 
		591.3,403.7 594,402.9 594.6,402.3 594.6,401 594,400.2 592.6,399.5 594,398.8 594,397.5 592.6,396.1 591.3,394.7 	"/>
	<g id="bay-area-magnification">
		<g id="bay-area-magnification-stream" opacity="0.5" enable-background="new    ">
			<path opacity="0.5" fill="#FBFAF0" enable-background="new    " d="M293.6,211.6L505,296.5c-7.3-3.7-17.7-5.1-22.8,7.1
				c-2.4,6.3,0.9,18.4,13.2,20.4c4.6,1,10.9-3.6,10.9-3.6L387,480.2C479.5,349.3,358.8,226.4,293.6,211.6z"/>
		</g>
		<g id="bay-area-magnification-highlight">
			<path fill="none" stroke="#FBFAF0" stroke-width="5.2892" stroke-miterlimit="10" d="M420.3,388.7
				c-5.9,93.7-85.2,165.6-177.7,159.8c-91.9-6-162.4-86.8-156.9-180.9c5.9-93.7,85.4-165.6,177.7-159.8
				C356,213.8,426.2,294.9,420.3,388.7"/>
		</g>
		<g id="bay-area-magnification-focus">
			<path fill="none" stroke="#FBFAF0" stroke-width="1.8815" stroke-miterlimit="10" d="M511.3,312.3c-1.7,5.8-6.3,10.2-12.3,11.2
				c-2.2,0.4-4.5-0.1-6.8-0.6c-8-2.3-13-10.9-10.8-18.9s10.2-13,18.6-10.8C508.3,295.5,513,303.8,511.3,312.3z"/>
		</g>
	</g>
	<g id="bay-area-marker">
		<g>
			<path fill="#BDBEC0" d="M489.7,278.9c0-4.5,3.3-8.2,8-8.2s8,3.5,8,8.2s-3.6,8.2-8,8.2C493.3,287.1,489.7,283.6,489.7,278.9
				 M481.2,278.9c0,3.1,0.6,5.8,2.4,8.2l0,0l0.3,0.3c0.3,0.3,0.6,1.4,1.4,1.7l12.7,18.4l12.3-18.1c2.4-2.7,3.6-6.4,3.6-10.7
				c0-8.9-7.3-16.3-16.2-16.3C488.7,262.4,481.2,270,481.2,278.9"/>
			<path fill="none" stroke="#FFFFFF" stroke-width="3.2506" stroke-miterlimit="10" d="M489.7,278.9c0-4.5,3.3-8.2,8-8.2
				s8,3.5,8,8.2s-3.6,8.2-8,8.2C493.3,287.1,489.7,283.6,489.7,278.9"/>
		</g>
	</g>
	<g id="bay-area-county-map">
		<g id="bay-area-county-map-sonoma">
			<path id="sonoma-shape" fill="#FFFFFF" d="M237.6,319c-5-4.4-5,2.1-10-2.7c1.9-6.8-5-5.1-5-10.2c-5,0-10,0-14.7,0
				c-5.3-10.5-18.4-13.2-24.7-23.1c-3.3,3.7-12.7,2.4-19.7,2.7c1.4-9.1-1.9-15-5-20.1c-0.3-0.3-2.3-5.1-2.7-5.1
				c-1.4-0.3-4.4,0.8-5,0c-5.3-4.4-11.3-13.6-19.7-17.7c-3.3-11.6,5-11.8-1.4-15.6c0.3-3.7-5.3-13.6-1.7-15c2.7-1.4,1.9-4.4,5-5.1
				c6-1.4,13.4,0.8,19.7,0c4.6-0.8,7.3-3.7,12.7-5.1c9.6-2.1,19.7,1.7,29.7,0c7.3,7.5,7.3,22.5,19.7,25.2c2.3,9.1-4.4,13.6,0,17.7
				c-1.4,5.1,9.6,5.8,10,12.9c0.3,6.4,4.6,4.4,5,10.2c0,3.7,1.4,5.1,2.7,7.5c1.4,2.4,6.7,5.8,7.3,7.5c0.6,2.4-1.9,11.2,0,12.9
				c0.3,0.8,5.8,4.8,5,10.2C243.5,314.5,237.8,309.3,237.6,319z"/>
			<g id="sonoma-text">
				<text transform="matrix(0.9816 0 0 1 143.6587 240.1802)" fill="#0A79AE" font-family="'ArialMT'" font-size="14.8845">SONOMA</text>
			</g>
		</g>
		<g id="bay-area-county-map-marin">
			<path id="marin-shape" fill="#FFFFFF" d="M140.5,315.6c10.2,2.2,8.1,15,19.4,16.3c9.1,0-3-7.3-4.1-9.5c-2.4-4.2-1-8.6-4.1-12.9
				c-5.1-7.3-12.2-13.4-19.4-16.3c-0.5-6.8,13.2-1.8,19.4-3.5c0,3,4.6,2.6,7.6,3.5c-1,12.9,17.7,8.6,19.4,18.9
				c12.2-1.8,13.2,5.7,26.5,3.5c2.4,6,7.1,9.5,11.2,16.3c2.4,3.5,1,13.4,4.1,16.3c8.6,7.3-3.6,3.9,0,16.3c0.5,1.8,4.1,3.9,4.1,3.5
				c0.5,4.6-11.2,12.9,0,12.9c-7.6,9.5-19.9-4.2-22.4-9.5c-7.6,2.6-8.6-5.7-11.2-6.4c-2.4-0.8-5.7,2.6-4.1,3.5
				c-4.1-2.2-22.4-12.1-22.4-18.9c-0.5-8.6-23.4,0-19.4-16.3c-12.2-3-5.7,10.3-11.2,12.9C124.3,338.1,141.5,327,140.5,315.6z"/>
			<g id="marin-text">
				<text transform="matrix(0.9816 0 0 1 168.0254 343.7754)" fill="#0A79AE" font-family="'ArialMT'" font-size="14.8845">MARIN</text>
			</g>
		</g>
		<g id="bay-area-county-map-napa">
			<path id="napa-shape" fill="#FFFFFF" d="M232.4,229c4.6-4.4,12.7-5.8,19.7-7.5c8-5.4,5-21.7,19.7-20.1c2.3,6.8,3,15.6,7.3,20.1
				c-1.4,5.1,3.6,5.4,5,7.5c1.9,3.5-1.4,9.1,5,7.5c0.6,14,0.6,14,0,27.9c-0.6,7.5,5.8,7.5,5,15c-5,0-10,0-14.7,0
				c-2.3,12.9,0,15-2.7,25.2c-4.4,0-8.4,0-12.7,0c1.4-9.9-4.6-12.6-2.7-23.1c-0.6-3-3.6-5.4-5-7.5c-1.4-1.7-4.4-3.7-5-5.1
				c-1.9-3-0.6-6.8-2.7-10.2c-1.7-2.7-5.8-2.7-7.3-5.1c-2.3-3.7,0.3-15-10-12.9C232.4,237.3,232.4,233,232.4,229z"/>
			<g id="napa-text">
				<text transform="matrix(0.9816 0 0 1 247.1611 250.2969)" fill="#0A79AE" font-family="'ArialMT'" font-size="14.8845">NAPA</text>
			</g>
		</g>
		<g id="bay-area-county-map-solano">
			<path id="solano-shape" fill="#FFFFFF" d="M355.3,256.6c0,12.3,0,24.9,0,37c0.8,4.1,6.8,2.3,11.2,3c3.3,15.7-6.8,17.6-14.3,22.6
				c0.8,6.8-4.1,8.5-5.7,14.5c-10.2-2.3-14.7,3-19.5,3c-0.8,0,0.8-5,0-5.8c-3-2.7-7.5,5.3-11.2,3c-0.8-5,2.6-5,3-8.5
				c-0.8-3-5.7-1.9-5.7-5.8c-10.5-0.8-9,11.8-14.3,16.8c-12.3-0.4-21.5-5-27.8-11.4c0.4-6.2,12-1.5,16.6-3
				c-0.8-11.4,5.1-15.7,3-28.3c6.8,0.8,13.1,0.8,16.6-3c-0.8-12.6-8.2-17.6-5.7-34.1c7.5-2.3,5.7,5.8,11.2,5.8
				C324.5,252.1,336.2,256.6,355.3,256.6z"/>
			<g id="solano-text">
				<text transform="matrix(0.9816 0 0 1 300.3945 312.4639)" fill="#0A79AE" font-family="'ArialMT'" font-size="14.8845">SOLANO</text>
			</g>
		</g>
		<g id="bay-area-county-map-contra-costa">
			<path id="contra-costa-shape" fill="#FFFFFF" d="M348.8,337c3-0.3,4.4,0.8,5,2.7c-0.6,3,0.6,4.8,2.7,5.1c-2.7,8.1-0.3,5.8,0,15
				c1.4,7.5-5.8,10.5,2.7,12.9c0,3.7-5,1.7-7.3,2.7c-1.4,0.8-3.6,4.8-5,5.1c-4.4,1.7-10.7,2.1-17.4,2.7c-6,3-12.3,6.2-19.7,7.5
				c-2.7-3.5-2.3-9.1-5-12.9c-5.8,0-7.3-4.4-14.7-2.7c-3.6-5.8-8-10.5-12.7-15c-6.3,0-14,0.8-17.4-2.7c2.7-3.5,4.4-7.5,7.3-10.2
				c4.4,2.4,6-4.4,10-5.1c5.8-0.8,8.6,2.7,14.7,2.7c6.3,0,12.7-3,19.7-2.7c5.3,0.8,10,3.5,14.7,5.1c5.8,1.7,12.3,0,14.7,5.1
				C347.5,350.5,346.7,342.6,348.8,337z"/>
			<g id="contra-costa-text">
				<text transform="matrix(0.9816 0 0 1 301.4209 368.0391)" fill="#0A79AE" font-family="'ArialMT'" font-size="14.8845">CONTRA</text>
				<text transform="matrix(0.9816 0 0 1 359.2661 368.0391)" fill="#FFFFFF" font-family="'ArialMT'" font-size="14.8845">C</text>
				<text transform="matrix(0.9816 0 0 1 367.4419 368.0391)" fill="#FFFFFF" font-family="'ArialMT'" font-size="14.8845">OSTA</text>
			</g>
		</g>
		<g id="bay-area-county-map-alameda">
			<path id="alameda-shape" fill="#FFFFFF" d="M261.4,369.3c5.3,3.7,12.3,6.3,12.3,15.9c6.9,0.8,11.2,4.6,21.5,3.3
				c3.3,6.3,5.3,13.4,12.3,15.9c23.1-1.7,39.1-10.5,58.5-15.9c3,17.6-6.6,48.7,6.2,56.3c-4.6,6.3-14.5,3-21.5,3.3
				c-16.1,0.8-33.8,1.7-49.5,3.3c-5.3-4.1-9.9-8.5-15.6-12.6c-1.7-7.6-4.6-14.7-3.3-24.8c-0.8-7.2-10.7-5.8-9-15.9
				c-0.8-8.5-11.2-5.4-15.6-9.3C258.9,381.1,263.8,379,261.4,369.3z"/>
			<g id="alameda-text">
				<text transform="matrix(0.9816 0 0 1 292.8032 429.8965)" fill="#0A79AE" font-family="'ArialMT'" font-size="14.8845">ALAMEDA</text>
			</g>
		</g>
		<g id="bay-area-county-map-santa-clara">
			<path id="santa-clara-shape" fill="#FFFFFF" d="M388.3,517c6.4-0.8,10.2-4.2,19.5-3.1c2.3,4.2,3,3.5,5.7,11.6
				c-0.8-1.5-4.1,1.9-3,3.1c0,0,5.7,3.5,5.7,3.1c-0.8,5-8.4,9.6-8.4,16.8c-11.3,0.8-20.7,0-25.6-5.8c-0.8,3.9-8.4,0.8-8.4,5.8
				c-0.8,3.9-4.9,4.2-5.7,8.5c-15-3.1-18.1-20.3-27.9-28.4c-0.8-0.8-4.9,0.8-5.7,0s-2.3-5-3-5.8c-0.8-0.8-4.9,0.8-5.7,0
				s0.4-2.7,0-3.1c-0.8-0.4-4.9,0.8-5.7,0s-4.1-6.2-11.3-5.8c-4.1-10-11.3-16.8-19.5-22.8c-0.8-9.6-4.1-16.2-3-28.4
				c10.2-2.3,23.8,0.4,36.5,0c4.9,0,4.9-2.3,8.4-3.1c15-2.3,32,2.7,45.1-3.1c1.4,1.9,1.9,3.1,3,5.8c0.8,0.8-0.8,5.4,0,5.8
				c0.8,0.8,2.6-0.4,3,0c0.4,0.8-0.8,5,0,5.8c2.3,1.9,7.2,0,5.7,5.8c3,9.3-4.1,6.8-5.7,11.6C379.5,504.6,391.2,503.5,388.3,517z"/>
			<g id="santa-clara-text">
				<text transform="matrix(0.9816 0 0 1 294.1938 488.7812)" fill="#0A79AE" font-family="'ArialMT'" font-size="14.8845">SANTA CLARA</text>
			</g>
		</g>
		<g id="bay-area-county-map-san-francisco">
			<path id="san-francisco-shape" fill="#FFFFFF" d="M234.4,384.6c10.9-2.1,13.4,4.6,12.2,15.6c-5.3,0-10.2,0-15.4,0
				C230.2,392.3,231.5,387.9,234.4,384.6z"/>
			
				<line id="san-francisco-line" fill="none" stroke="#0A79AE" stroke-width="2.1444" stroke-miterlimit="10" x1="187.3" y1="392.8" x2="239.5" y2="392.8"/>
			<g>
				<g>
					<text transform="matrix(0.9816 0 0 1 149.3135 386.4893)" fill="#FFFFFF" font-family="'ArialMT'" font-size="14.8845">SAN</text>
					<text transform="matrix(0.9816 0 0 1 103.835 404.3975)" fill="#FFFFFF" font-family="'ArialMT'" font-size="14.8845">FRANCISCO</text>
				</g>
			</g>
		</g>
		<g id="bay-area-county-map-san-mateo">
			<path id="san-mateo-shape" fill="#FFFFFF" d="M242.5,471.1c-0.8-8.2-5.7-14.5-6-21.5c-0.4-5.3-10.2-2.1-8.9-9
				c-0.4-12.9,5.3-19.4,3.2-33.8c5.3,0,10.2,0,15.4,0c-0.8,9-0.8,19.8,6,24.3c2.8,2.1,8.9,0.8,12.2,3.3c7.3,5.3,8.9,16.8,17.7,15.6
				c-2.8,5.3-10.9,5.3-12.2,12.3c0.4,4.1,0.4,8.2-3.2,9L242.5,471.1L242.5,471.1z"/>
			<g>
				<g>
					<text transform="matrix(0.9816 0 0 1 170.0469 435.416)" fill="#FFFFFF" font-family="'ArialMT'" font-size="14.8845">SAN</text>
					<text transform="matrix(0.9816 0 0 1 150.6289 453.3242)" fill="#FFFFFF" font-family="'ArialMT'" font-size="14.8845">MATEO</text>
				</g>
			</g>
			<line fill="none" stroke="#0A79AE" stroke-width="2.1444" stroke-miterlimit="10" x1="204.1" y1="439.6" x2="241.4" y2="439.6"/>
		</g>
		<g id="bay-area-county-map-santa-cruz">
			<path id="santa-cruz-shape" fill="#FFFFFF" d="M266.4,480.2c1.9,10.3,10.5,13.6,8.9,28c-4.1,0-7.7,0-12.2,0
				c-3.6,5.3-10.2,8.2-17.7,9c-10.5-9-1.7-23.5-3.2-36.6L266.4,480.2L266.4,480.2z"/>
			
				<line id="santa-cruz-line" fill="none" stroke="#0A79AE" stroke-width="2.1444" stroke-miterlimit="10" x1="228.4" y1="495.8" x2="257.2" y2="495.8"/>
			<g>
				<g>
					<text transform="matrix(0.9816 0 0 1 179.1997 491.7539)" fill="#FFFFFF" font-family="'ArialMT'" font-size="14.8845">SANTA</text>
					<text transform="matrix(0.9816 0 0 1 187.2734 509.6621)" fill="#FFFFFF" font-family="'ArialMT'" font-size="14.8845">CRUZ</text>
				</g>
			</g>
		</g>
	</g>
	<g id="bay-area-county-map-text-overlay">
		<g>
			<text transform="matrix(1 0 0 1 482.145 515.7189)" fill="#0A79AE" font-family="'ArialMT'" font-size="24.9876">for charities in</text>
			<g>
				<text transform="matrix(1 0 0 1 410.0391 558.21)" fill="#0A79AE" font-family="'Arial-BoldMT'" font-size="32.1429">9 Bay Area Counties</text>
			</g>
			<text transform="matrix(1 0 0 1 411.792 480.1386)" fill="#0A79AE" font-family="'Arial-BoldMT'" font-size="46.2857">$219M Raised </text>
		</g>
	</g>
</g>
</svg>
