<?xml version="1.0" encoding="utf-8"?>
<!-- Generator: Adobe Illustrator 17.1.0, SVG Export Plug-In . SVG Version: 6.00 Build 0)  -->
<!DOCTYPE svg PUBLIC "-//W3C//DTD SVG 1.1//EN" "http://www.w3.org/Graphics/SVG/1.1/DTD/svg11.dtd">
<svg version="1.1" id="Layer_1" xmlns="http://www.w3.org/2000/svg" xmlns:xlink="http://www.w3.org/1999/xlink" x="0px" y="0px"
	 viewBox="0 0 31 31" enable-background="new 0 0 31 31" xml:space="preserve">
<g>
	<circle fill="#5FA9DD" cx="15.5" cy="15.5" r="15"/>
	<g>
		<path fill="#FFFFFF" d="M22.1,19.6c0,1.4-1.1,2.5-2.5,2.5h-8.2C10.1,22,9,20.9,9,19.6v-8.2c0-1.4,1.1-2.5,2.5-2.5h8.2
			c1.4,0,2.5,1.1,2.5,2.5V19.6z M12,11.1c-0.7,0-1.1,0.4-1.1,1c0,0.6,0.4,1,1.1,1h0c0.7,0,1.1-0.5,1.1-1
			C13.1,11.6,12.6,11.1,12,11.1z M12.9,19.9V14h-2v5.9H12.9z M20,19.9v-3.4c0-1.8-1-2.7-2.3-2.7c-1.1,0-1.5,0.6-1.8,1h0V14h-2
			c0,0,0,0.6,0,5.9h2v-3.3c0-0.2,0-0.3,0.1-0.5c0.1-0.3,0.5-0.7,1-0.7c0.7,0,1,0.5,1,1.3v3.2H20z"/>
	</g>
</g>
</svg>
