<svg xmlns="http://www.w3.org/2000/svg" viewBox="0 0 1280 720" enable-background="new 0 0 1280 720"><g><g><path fill="#D1E0C1" stroke="#729854" stroke-miterlimit="10" d="M1022.5 214.1c1.2-2.4 3.2-4.5 4.8-6.7 6 15.7 14.8 29.7 11.4 46.4l-24.8 7.6-4.3-38.3 12.9-9z"/><path fill="#D1E0C1" stroke="#729854" stroke-miterlimit="10" d="M1010.9 260l9.5-2.1 15.1-3.6 1.3-2 .6-1.3c.1-.1 1.8-1.2 3.5-1.4-.5 3.1 1.6 1.8 2.7 2.7.6 1.4-1.5 4-3.5 6.3 2.5 1.1 5.4 2.2 7.7 4.8-3.6.3 2.6 4.1 4.3 4 6.9-.3 2.6-6.4-1.1-6.8 6.4-1.2 8.3 8.9 0 8.4-.7 1.1-.9 1.6-1.9 2.8-.2-1.1-.6-2.4-.8-3.5-1.6 2.8-3.3 3.9-5.4 5.6-.5-2-1-2.9-1.2-4.9-1.7 2-3.3-.1-4.9-2.7l-4.1 1.3h-1.3l-1.4.7-6.2 1.4-1.3.7h-3.5l-8.1 2V260"/><path fill="#D1E0C1" stroke="#729854" stroke-miterlimit="10" d="M1010.9 272.4l8.1-2H1022.5l1.3-.7 6.2-1.4 1.4-.7h1.3l2.8 9.1c-.3 3.9-5 4.8-7.5 4.1-.8 2.1-19.1 15.9-14.4 4.9l-2.7-13.3"/><path fill="#D1E0C1" stroke="#729854" stroke-miterlimit="10" d="M1032.7 267.6l4.1-1.3c1.8 1.2 2.8 2.4 3.3 4.1-2.6 1.2 2.3 7.2-4.6 9.1 0-.9.1-1.9 0-2.8l-2.8-9.1"/><path fill="#D1E0C1" stroke="#729854" stroke-miterlimit="10" d="M1018.4 296.1c-1.8 2.2-4.1 3.7-6.8 4.2l1.3-.7-2.7.7c1.5-11.2 14.8-6.9 19.8-16-1 1.6-1.7 3.1-2.7 4.9 1.3-1.1 4-2.4 5.4-3.5 1 .1 2-.1 2.8-.7-6.2 4.4-9.8 8.2-17.1 11.1"/><path fill="#D1E0C1" stroke="#729854" stroke-miterlimit="10" d="M450.2 455.9c1.3-.7 2.3-.6 3.5 0v-1.4h.6l.7-2.1-.7-1.4-.6-.7-1.4-.6V447.6l.6-1.5-.6-.7.6-1.3.8-.8 1.9-2.7.8-2 .6-.8V435l.7-2.1h.8l.6-1.3 4.1-2 1.3-1.5-1.3-.7-2-2.9v-.5l-.7-1.5v-2.7l-1.4-2.1v-2.8l.8-2.1.6-.7v-7l.7-1.3-.7-2.1v-1.3l1.3-.8-1.3-2.8.7-1.3 1.4-.8h3.3l1.4 2.1.7.7h.6l1.4-.7 1.4-2.1 2.1-13.9 12.9 2.2 19.1 3.4 17.8 2.8 19.8 2-13.2 101.5c-9.9 3.9-31.1-4.2-40.8-9.8-13.7-7.9-26.7-17.4-40.9-24.3.9-.8 1.2-1.8 2-2.7"/><path fill="#D1E0C1" stroke="#729854" stroke-miterlimit="10" d="M486.4 189.8l.7-1.4v-1.3l-.7-2.2v-.7l-2.1-3.4 3.5-16.7c7-1.8 25.4 4.3 33.7 5.8 12.6 2.3 25.1 4.2 37.8 5.8 22.5 2.8 45 5.2 67.6 7.1l-3.4 54.2-1.4 16v1.3l-16.3-1.3-24.6-2.8-22.5-2.7-22.6-2.8-.6.7-.7 8.4-1.4-1.5-.6-1.3-.7-2.1-1.4-.8-2 2.9v.6l-2.7-.6-.7.6-1.4-1.4h-2.1l-2.7-.6-1.4 1.4h-1.4l-1.3-.8-1.4-.6-1.3.6-.6 2.1-1.4-1.3-.7-1.4v-.7l-.7-1.4.7-.8-.7-2.8-1.3-.5-.7.5-1.4-1.3v-.8l.7-2-.7-1.3V237l-.8-.7-1.2-2V228.6l-1.5-1.3v-.8l-4.7 2.1-.7.8-1.4-1.3-1.4-.8.8-1.4.6-2.1-.6-.6.6-.8h1.4V216.1l.7-1.3.6-.7.8-2.1 1.3-4.2-1.3-.5-1.4.5-.7-.5v-1.6h-.6l-1.4-.6-.8-1.4V202.4l-.5-1.6-1.4-2-.8-1.3v-.8l-.6-1.4-2.1-.6v-1.5l-2-2h.7l-.7-1.4"/><path fill="#ABC695" stroke="#729854" stroke-miterlimit="10" d="M619.4 289.9l2.7-35.6V253l1.4-16 21.8 2.1 24.5.7 21.9.8h22.5v2.8l-.7.5-1.4.8-1.4.7v1.3l.8.8 1.3 2.1 1.4.6.8.8.5 1.3.7 32h-2v1.4l.8.6v1.4h-.8v1.5l2 1.2v.8l-.7 1.4v1.4l-1.3 2.1v2.7l.8 1.5.5 2.1h-1.3l-.7-1.5-.7-.6-.7-.7-1.4-.8h-.6l-.7-.6-.6-1.5h-1.4l-2.1-1.2-4.7.6h-2.1l-.6.6h-1.5l-4.7-2.7-1.3-.7-14.4-.7-21.2-.6-22.5-1.6-12.9-.5"/><path fill="#D1E0C1" stroke="#729854" stroke-miterlimit="10" d="M625.6 408.7l.6-9.1 13.7.8 21.8 1.3 31.4.7h31.2l18.6-.7v9.1l2.7 15.3v4.7l.6 32.1-3.3-.7-1.5-.8-.6-.7-2.8-1.3-2.7-2.1h-.7l-1.3 1.3h-2l-1.4-.6-2.1.6-.6.8h-2.1l-.8-.8-1.2.8h-.7l-2 1.3h-.7l-.8 1.5-.6-1.5h-1.4l-1.4-.5-.5-1.6h-.8l-1.4.8h-.7l-1.4-1.4H709.4v.6l-1.4.8v2h-1.3v-2l-1.4-.8-1.3 1.6h-1.4l-.8-1.6h-.5l-.7-1.3h-.7l-2 1.3-1.5.8-.6-.8v-1.3l-.6-.7h-1.5V454.5h-3.3l-1.4.8h-.8l-1.3-.8-.6-.6h-.8l-1.3.6-2.7-1.4-.7-.7-1.3.7v-.7h-1.4v-2.1l-1.5-.6-.6-.7-.6-1.4-.8 2.1h-1.3l-.6-.7-1.5.7-.6-.7-2.2-2.1-.5-.8h-2.2l.8-2 1.4-32.7-2.2-.6-.6-.8h-20.5l-19-1.3"/><path fill="#ABC695" stroke="#729854" stroke-miterlimit="10" d="M639.9 400.4l2.7-54.3 16.3.8 32.8.6h39.6l3.3 2.7.7-1.3 1.4.7.8.6v2.1H736v.8l-1.4 1.4v2l1.4.8 1.5 1.3v.8l2 2 1.3.8.6.5 1.5 39-18.6.7h-31.2l-31.4-.7-21.8-1.3"/><path fill="#D1E0C1" stroke="#729854" stroke-miterlimit="10" d="M942.7 330.8l23.1-4.2 25.3-5.4c1.4 4.1 2.5 14.7 5 18 2.4 3.2 8.5 2.3 8.7 2.8 1.2 1.6 1.6 2.5 0 2.7 0 5-4.2 6.3-8.3 7.6.6-1.1.8-2.3 1.4-3.4-1.5.5-1.1.5-2.7.7.2-.5 1.2-2.2 1.3-2.7-2 .1-1.3-1.1-1.3-2.8-.2.9-.4 1.9-.6 2.8v-1.4c-.1.3-.6 1.8-.8 2-1.6-.3-2.1-1.1-3.4-2l.7 1.4c-.9-2.3-1.6-4-2-4.3 1.8-.2 3.1-.4 4-2-2.6.2-1.4-.3-3.4-1.4-.1 0-2 1.6-1.3 1.4-.5 1-.8-2.3-.7-2.1 1.9-1.1 1-.3 2.7-2-2.8-1.3-2.1.4-3.4 1.3.8-1.6 1.2-3.1 2.1-4.9-1.3-1.7-.5.3-1.4.7.1-3.3 0-5.2 3.4-6.3h-1.4c.5-.7.9-1.3 1.4-2-1.9-1.5-.1.3-1.4-1.4-.6.9-1.1.5-2 .6.3 3.9.1 1.7-1.3 2.8-.3.6.3 1.5 0 2.1-.3-.4-.5-.9-.8-1.3-.8 1.7-.6 2.7-.6 3.5-.6 0-2.2-.3-2.7 0 1.8 1.3 2.5 2.8 4.1 4.1-1-.1-1.2-.6-2.1-.8.8 4.1.8 7.8 4.1 11.2-2.9.8-3.4-1.3-4.7-4.1.7 5 5.6 5.8 6 9.8-.2-1.8-.9-1.2-2-1.6-2.5-.6-3.5.2-4.8-2-.6.3-.8.8-.6 1.4-2.8-2.9-3.8-2.3-5.6-1.4l-.6-1.3.6-1.4c1.8-2.6 2.9-5.3 1.4-7.7l-1.4.7h-.6l-1.3-.7-.8-.8h-2l-.7-.5v-.8l-.7-2.1h-3.3v-.7l-1.5-1.3v-.8l-.6-.6v-.8h-2.1l-1.3-.6-1.4-.7-1.3.7v.6h-1.4l-.8 1.4v.8l-1.9.6-1.4-.6-.7-.8h-.7v.8l-2 2.7-1.4-.7-.6.7-.7 1.4-1.5 1.3v1.5l-1.3.7-.6 1.4-1.4-9.8"/><path fill="#D1E0C1" stroke="#729854" stroke-miterlimit="10" d="M725.1 336.5h25.2l20.5-.8 8.2-1.4.6 1.4 2.2 1.3.5 1.5h.8l-.8 1.3v5.7l.8.6.6 2.8.8.7v.6l2.1 1.6.6.5 2.1 1.5v.7l2.7 2 1.3.8v1.3l1.4 4.9 1.3 1.4.7-.7.7-1.5h.7l1.3.8h1.4l2.1 1.4v.6l-1.4 1.4v4.9l-.7 1.3-1.4 1.6v1.2l.8.8 1.9 2.1 2.7 2.8h1.4v1.4l.7-.8 2.8 1.5v.6l1.3 1.4h1.4v2.7l1.4 2.8v.8l-.7.7.7 2.8 2 2 1.4-.7 1.3 1.5.7.5-.7 1.6.7 1.3-1.3 1.4.6.7-.6 1.3h-2.8v2.1l-1.3.8.7-.8-.7-1.3v4.1h-.7l.7 1.4-2 .7 1.3 1.5-.7.5-.6 2.2-8.3.7-.6-1.3.6-.8.7-1.3 1.4-.8.6-.7V410l-1.4-1.3-.6-1.5L779 410h-22.5l-13.6.8v-9.1l-1.5-39-.6-.5-1.3-.8-2-2v-.8l-1.5-1.3-1.4-.8v-2l1.4-1.4v-.8h1.5v-2.1l-.8-.6-1.4-.7-.7 1.3-3.3-2.7-.8-.6v-1.4l-1.3-1.4v-.7l-.6-1.4-1.4-.8-.7-2-1.4-.7v-2"/><path fill="#D1E0C1" stroke="#729854" stroke-miterlimit="10" d="M742.9 410.8l13.6-.8H779l25.2-2.8.6 1.5 1.4 1.3v2.1l-.6.7-1.4.8-.7 1.3-.6.8.6 1.3 8.3-.7v.7l.6.7-1.4.7.8 1.4-.8.6-1.3.8-.6.6v.7l.6.8-.6.7-.8.5h-.6l.6 1.6-.6.6-.8-.6-.7.6v1.4l.7-.7v1.4l.8 3.5-.8.6h-.7l-.6.8-.8.7v2.1l-.6.6-1.3.7v-.7 2.9h-.8l-.6-1.4v2l1.4.7h-1.4v-.7 1.4l.6 1.3-.6 1.6v1.2l-.7.8-.6.7h-.8v.6l-1.3 1.5h-1.4l.7.6-.7.7v1.4l.7.7-2.7 1.4.7.8v2.7H794v.6h1.4l-.7 1.6-.7-.8-.7.8.7.5-.7.7v2.9l.7-1.4.7.6-1.4 1.4h1.4v2.1h.7v2h-.7V471.9l-23.9 1.4-17.7.6-.7-9.6-3.5-.8-.5.8-2.2-.8v-.6l-.6-32.1v-4.7l-2.7-15.3"/><path fill="#D1E0C1" stroke="#729854" stroke-miterlimit="10" d="M753.1 473.9l17.7-.6 23.9-1.4-.7.7v.7h2v.6l-1.3 1.4v1.4h2l-2 2.1h2.7l-.7.6v1.6h-.7l.7 1.3h.7l.7 1.4h1.3v.6h-1.3l-.7 1.6H796l-.6 1.3h2.7l-1.4.7v.7l-.7.6h.7l-2 2.8-1.4.7v1.4h.7l-.7 1.4-.7 1.3-1.4.8h1.4l-1.4 1.4v2h-.6l.6.8v1.3l-1.9.8 1.3.6-.7 1.4 1.3 1.3-1.9 1.6 14.9-1.6 14.3-.5-.6 1.3-.7 2v2.2c1.8 3.2 3.2 6.5 5.5 9h-1.4c-4.7-.2-6.5-3-10.5-1-7.5 3.7 8.4 3.2 7.8 3.1.2-.7.5-1.4.7-2.1.3.7.5 1.4.8 2.1.2-.4.4-.9.6-1.3-.9.8-1.9 2.6-2.7 3.3 1.5.7 2.4 1.3 4 1.5.3-1.9.8-1.9 1.4-3.5 2.6 2.7 2.4 4.7-1.4 6.3.6.3 1 .8 1.4 1.3-2.3.3-1 .3-2.7.7 2.8 4.1 8.3 3.6 11 7-1 1.4-.5 1.1-1.4 3.5l-2.1-2.1c-.7 1.5-1.6 2.2-2.7 3.3 1.3-1.8 2.3-2.7 1.3-4.7v1.4h-1.3c-1.3-2-2-1.4-3.5-3.5-.7 0-1.8.7-2.7.7.6-2.6-1.8-3.8-5.4-4.3 2.1 3.3 2.5 6.3-.7 8.4 0-.6.1-2.2 0-2.7-3.7-1.2-7 .8-8.3 2-4.5.8-7.2-2.6-8.1-6.9-.2.7-.5 1.4-.7 2.1-2.8-2.6-7.2-4.8-8.1-5.6-1.8.2-3.9.9-5.6 1.4.9.9 1.3 2 2.2 2.9-6.9 2.7-12.2-2.7-19.1-2.9.3-1.6-.2-3.4 0-4.8.1 2.3-.7 3.2-.7 4.8-1.9.7-4.7 1.5-6.2 2.1-1.2-1.8-.9-3.1 0-5.5.9-2.5 1.1-5.4.7-7.7v-2.7l.6-.7.8-1.5v-1.3l.6-1.4v-3.5l.8-.6-.8-1.6v-.5h-.6l-1.4-2.8v-1.4l-.7-.7v-.8l-.7-1.4-1.3-.6.6-2.2-1.3-2.1-.7-.6-1.3-2.1-.8-18.1"/><path fill="#ABC695" stroke="#729854" stroke-miterlimit="10" d="M768.7 223.8c.9.9 1.7.7 2.1 2.1 3.9-3.1 18.7-9.8 11.5 0 1.9-.7 1.3-.4 2.7-1.4 2.7 1.3 5.6 4.2 7.9 5.2 4.3 1.9 13.1 3.6 17.3 4.7 5.7 1.5 15.2 2.7 11.7 10.2.8.4 1.9.3 2.7.7-1.4 2.4 0 2.4.8 4.2-1.4 3-3.8 6.7-3.5 10.4 1.6-1.6 3.7-6.3 5.8-6.1 4 .4-.6 8.7 1.2 12.4-8.1 4.7-.4 22.7-1.4 29.8l-15.7 2.7-20.6 1.5-.6-3.6-3.4-.6h-1.4l-.8-1.4v-1.4l-.5-1.3v-2.1l-.8-1.5.8-2.7v-.6l-.8-.7-.6-.7-.8-.7V278.7l-.5-2.8-.8-1.3-1.4-1.4h-.6l-1.4-.8-1.3-.6-2.1-2.1-1.4-2.1-2-1.3h-1.3l-.8-1.6-.6-.5-2.1-.8-2.1-.7-.6-.7-1.3-1.4v-9l1.3-2.7-1.3-2.8h-1.4v-2.7l1.4-1.6v-1.2l1.9-1.5 2.1-1.4.8-.7v-1.3c0-4.8-.5-8.8 1.9-11.9"/><path fill="#D1E0C1" stroke="#729854" stroke-miterlimit="10" d="M783.1 338.5h.6l.8-2-1.4-.8 1.4-1.4 2.1-1.4.6-1.3v-2.2l2.1-1.3v-2l-2.7-2.9.6-2v-1.4l4.8-.8 1.3-1.3h1.4l1.3-1.5.7-2.7 1.4-2.1v-4.2l-1.4-1.3-1.3-.8-.7-.6v-2.1l-2.7-1.5-.8-.6 20.6-1.5 15.7-2.7c-1 4.8 2.2 8.6 4.1 11.8v.7l1.3 2.2 3.4 41.5-.7 2.2v2.8l.7 2.1 1.3.6-.6 1.4.6 2.1v1.4l-2 2.8v.7l-1.3 3.4v.8l-1.4 1.3-.8.8.8.6-.8 2.2v2l-.5 1.3.5 1.4v1.5l-1.3.6.8 1.4.5 1.4-.5 1.3-2.2.8h-1.3l-1.4.8v2l.8 1.4.6 1.3-.6.8H826l-.6-.8h-2.1l-1.4-1.3h-1.3l-.6.7-2.1 2v.7l.6 1.5-1.3-1.5-1.4.7-2-2-.7-2.8.7-.7v-.8l-1.4-2.8v-2.7H811l-1.3-1.4v-.6l-2.8-1.5-.7.8v-1.4h-1.4l-2.7-2.8-1.9-2.1-.8-.8v-1.2l1.4-1.6.7-1.3v-4.9l1.4-1.4v-.6l-2.1-1.4h-1.4l-1.3-.8h-.7l-.7 1.5-.7.7-1.3-1.4-1.4-4.9v-1.3l-1.3-.8-2.7-2v-.7l-2.1-1.5-.6-.5-2.1-1.6v-.6l-.8-.7-.6-2.8-.8-.6V339.8l.8-1.3"/><path fill="#D1E0C1" stroke="#729854" stroke-miterlimit="10" d="M789.3 226.5c3.4-1.3 8.2-4.5 10.8-6.1 3.5-2.2 6.8-3.9 9.6-7.6 1.6 1.5 2.8 4.3 2.7 7.6.8-1.2 2-2.3 2.7-3.5l-.6 2.1c6.1-4.8 11.4 5 17.3 4.4 6.6-.7 16-5.2 22.9-7.9-.5 1.7.4 3.8 0 5.5 3.7.3 5.5.6 8.1-1.3.9 3.6 3.1 7.1 6.2 8.9-4.6 1.1-10.4-2.4-10.2 4.2-6.9-7.4-18.4-1-21.8 6.3-.5-.2-.9-.4-1.4-.6.7-1.1 1.4-1.9 2-2.8-1.9.9-2.5.4-4.7 2.8-.8-1.3-.8-2.2-.8-3.6-2.3 5.1-3.9 10.1-6.7 14.7-.9-1.7-2.1-2-.8-4.2-1.2-.4-1.6-.2-2.7-.7 3.2-6.6-4.3-8.4-9.5-10.1-7.3-2.4-16.5-2.5-23.1-8.1"/><path fill="#D1E0C1" stroke="#729854" stroke-miterlimit="10" d="M794.7 471.9V469h.7v-2h-.7v-2.1h-1.4l1.4-1.4-.7-.6-.7 1.4v-2.9l.7-.7-.7-.5.7-.8.7.8.7-1.6H794v-.6h1.4V455.3l-.7-.8 2.7-1.4-.7-.7V451l.7-.7-.7-.6h1.4l1.3-1.5v-.6h.8l.6-.7.7-.8v-1.2l.6-1.6-.6-1.3v-1.4.7h1.4l-1.4-.7v-2l.6 1.4h.8v-2.9.7l1.3-.7.6-.6v-2.1l19.2-1.5 10.3-.6.6.6h.7l.7.8-.7 54.9 3.4 27c-.3.6-.2 1.5-.7 2.2l-2.7-1.5c-1.3 2-2.3.5-4.8 0 1.6 1.7-1.8 1.8-4.8 2.1h-.6c-3.7 6.7-6.1-2.8-8.2-6.2V510l.7-2 .6-1.3-14.3.5-14.9 1.6 1.9-1.6-1.3-1.3.7-1.4-1.3-.6 1.9-.8v-1.3l-.6-.8h.6v-2l1.4-1.4h-1.4l1.4-.8.7-1.3.7-1.4h-.7v-1.4l1.4-.7 2-2.8h-.7l.7-.6v-.7l1.4-.7h-2.7l.6-1.3h1.4l.7-1.6h1.3v-.6h-1.3l-.7-1.4h-.7l-.7-1.3h.7v-1.6l.7-.6h-2.7l2-2.1h-2v-1.4l1.3-1.4v-.6h-2v-.7l.7-.7"/><path fill="#D1E0C1" stroke="#729854" stroke-miterlimit="10" d="M804.8 434.4l.8-.7.6-.8h.7l.8-.6-.8-3.5v-1.4l-.7.7v-1.4l.7-.6.8.6.6-.6-.6-1.6h.6l.8-.5.6-.7-.6-.8v-.7l.6-.6 1.3-.8.8-.6-.8-1.4 1.4-.7-.6-.7v-.7l.6-2.2.7-.5-1.3-1.5 2-.7-.7-1.4h.7v-2.8h.7l-.7.8 1.3-.8 19.2-2.1v-1.3l-.7-2.1h2l2 .7 5.4-.7h5.5l7.6-1.3 6.7-.8h6.2l4.1-.8 6-.5 4.9-.8 4.1-.7h5.4l1.5-.7 3.9-.6h2.9l8.8-1.4 5.4-1.4 4.8-.7h1.4v2.7l-.6 2.1h-1.4l-.7 1.5-.8 2.7-1.2.7h-2.7l-1.5 1.4v.7l-1.2 1.3h-.8l-1.4-1.3-.5 1.3h-.8v1.4l-1.4-.6-.7 2.8-.6 1.3h-.8l-1.9 1.4-3.5 2.7-.8.8h-2.7l-1.9.8-.8 2-.6.7v2l-1.4.8-2.7.6v4.3l-5.4.6-12.4 1.4-15.6 2.7-20.5 1.5v.6l-.6-.6-10.3.6-19.2 1.5"/><path fill="#D1E0C1" stroke="#729854" stroke-miterlimit="10" d="M815.1 407.2v-2.1h2.8l.6-1.3-.6-.7 1.3-1.4-.7-1.3.7-1.6-.7-.5-.6-1.5v-.7l2.1-2 .6-.7h1.3l1.4 1.3h2.1l.6.8h1.5l.6-.8-.6-1.3-.8-1.4v-2l1.4-.8h1.3l2.2-.8.5-1.3-.5-1.4-.8-1.4 1.3-.6v-1.5h1.5l.7-1.4-.7-.6 2 .6 1.4-1.3v1.3h1.3l-.7-1.3h2.1l.6-.7 3.5 1.4 1.4.6.6-.6v-.7l.7-.7 1.4-.8.6-1.3.7 2.1h2.7v-.8l.8-1.3v-.8l.7-1.2 1.3-.8v-1.3l.7.5.7 1.6 1.3.6 2.1.6 1.4-1.2v-2.1l.6-2.2h1.3l.8-1.4.6-2.7.8-.8 1.3-.6v-2.7l-.8-.8 1.6-.8h1.2l.7.8 2-2h2.7l.8-1.5-1.4-1.4V353.1l2.1-.8.7.8 2-.8 2.8 1.5.6 1.3 1.3 2.2 1.4.6 2.1-.6h.6l2.1 2.1h1.4l1.3-.8.8-.7 1.2.7 1.5.8h2v-1.5l1.3-1.4 1.4-.6 1.4 2 .7 1.5h1.4l.6.6 1.3 1.4v4.1l2.1 2.9v2l1.4.7 2.7 2.8 2 2h2.7l-4.7 5.7-4.1 2.7-.7 1.4v.7l-1.4 1.5v1.3l-.6.8-1.3.6-1.4.6v1.5l-2.9.7-.6 1.3H897l-2 1.4-1.5.7h-5.4l-4.1.7-4.9.8-6 .5-4.1.8h-6.2l-6.7.8-7.6 1.3H843l-5.4.7-2-.7h-2l.7 2.1v1.3l-19.2 2.1"/><path fill="#ABC695" stroke="#729854" stroke-miterlimit="10" d="M832.1 382.2l-.5-1.4.5-1.3v-2l.8-2.2-.8-.6.8-.8 1.4-1.3v-.8l1.3-3.4v-.7l2-2.8v-1.4l-.6-2.1.6-1.4-1.3-.6-.7-2.1V354.5l.7-2.2-3.4-41.5 1.4.6 1.3.6 1.4-.6 2-.6 2.7-2.2c7.6.5 20.2-5.1 26-1.4l2.1 16 3.3 29.9v3.4l1.4 1.4-.8 1.5H871l-2 2-.7-.8h-1.2l-1.6.8.8.8v2.7l-1.3.6-.8.8-.6 2.7-.8 1.4h-1.3l-.6 2.2v2.1l-1.4 1.2-2.1-.6-1.3-.6-.7-1.6-.7-.5v1.3l-1.3.8-.7 1.2v.8l-.8 1.3v.8h-2.7l-.7-2.1-.6 1.3-1.4.8-.7.7v.7l-.6.6-1.4-.6-3.5-1.4-.6.7h-2.1l.7 1.3H837v-1.3l-1.4 1.3-2-.6.7.6-.7 1.4h-1.5"/><path fill="#ABC695" stroke="#729854" stroke-miterlimit="10" d="M834.9 432.9v-.6l20.5-1.5 15.6-2.7 5.4 18 4.9 19.6.7.6.6.7.8 1.4.6 2.2.7 1.3.6.7.8 1.3-.8 1.4 1.4.8v.6l-.6 1.5-.8.6v2.2l-.6 1.3v2.8l.6 2.1 1.4.7v8.4l.7.5 1.4 1.5v.7l-23.8 2.8-13.8 2.1-.6.6c.8 2.3 6.8 12.1 0 11.1-.1 3-1.1 2.6-5.4 2.8 5.7-.8.2-6.2-1.4-9.6.8 5-1.1 8.8-4.8 6.8l-3.4-27 .7-54.9-.7-.8h-.7"/><path fill="#D1E0C1" stroke="#729854" stroke-miterlimit="10" d="M451.6 283.6l6.1-31.3.8-1.3h.6l1.4-2.9V244.7l-1.4-.8h-1.4v-.5l.8-4.3 1.4-.6.6-2.2 2.1-1.4 1.3-1.3.6-.8v-1.4l1.4-2 2.1-3.5 2.7-3.5.7-1.4-.7-2-2.1-2.1-.6-.8v-2.7l-.7-1.4.7-3.5-1.4-2 1.4-1.4v-3.5l8.2-40.2c4.2.6 8.6.8 11.6 2.7l-3.5 16.7 2.1 3.4v.7l.7 2.2v1.3l-.7 1.4.7 1.4h-.7l2 2v1.5l2.1.6.6 1.4v.8l.8 1.3 1.4 2 .5 1.6V203.7l.8 1.4 1.4.6h.6v1.6l.7.5 1.4-.5 1.3.5-1.3 4.2-.8 2.1-.6.7-.7 1.3V222.4h-1.4l-.6.8.6.6-.6 2.1-.8 1.4 1.4.8 1.4 1.3.7-.8 4.7-2.1v.8l1.5 1.3V234.3l1.2 2 .8.7v1.5l.7 1.3-.7 2v.8l1.4 1.3.7-.5 1.3.5.7 2.8-.7.8.7 1.4v.7l.7 1.4 1.4 1.3.6-2.1 1.3-.6 1.4.6 1.3.8h1.4l1.4-1.4 2.7.6h2.1l1.4 1.4.7-.6 2.7.6v-.6l2-2.9 1.4.8.7 2.1.6 1.3 1.4 1.5-7.6 44.4-14.9-2.7-17.7-3.5-5.5-.8-17-3.5-20.5-4.1"/><path fill="#D1E0C1" stroke="#729854" stroke-miterlimit="10" d="M867.7 307.2c8.8-1.6 18-5.6 25.2 0l.6-2.1 1.5 2.1c-1.4.3-2.2 0-3.5.7.5.2.9.5 1.4.7 3.5-1.7 8.9-1 13.2-3.5 3.6-2.1 13.4-14 16-11.1l3.5 23.7h-1.4v1.3l.6.8.8 3.4v1.3l-.8 3.6v2.7h-.6V336.5l-2.1 1.3-.6 2-2.9 2.2-1.2-.8-1.4.8v2.1h-1.2l-.7 1.4v1.4l-.8 1.3.8.7v1.3l-.8.8-1.2-1.4-1.5-.7-.7 1.3-.5 1.6v5.5l-.8.6v1.5l-1.4 1.2-1.3.8h-.8l-1.3-1.4-.6-.6h-1.4l-.7-1.5-1.4-2-1.4.6-1.3 1.4v1.5h-2l-1.5-.8-1.2-.7-.8.7-1.3.8h-1.4l-2.1-2.1h-.6l-2.1.6-1.4-.6-1.3-2.2-.6-1.3-2.8-1.5-2 .8-.7-.8-2.1.8-3.3-29.9-2.1-16"/><path fill="#D1E0C1" stroke="#729854" stroke-miterlimit="10" d="M905.1 361.4h.8l1.3-.8 1.4-1.2v-1.5l.8-.6V351.8l.5-1.6.7-1.3 1.5.7 1.2 1.4.8-.8v-1.3l-.8-.7.8-1.3v-1.4l.7-1.4h1.2V342l1.5-.8 1.2.8 2.9-2.2.6-2 2.1-1.3V330.8h.6v-2.7l.8-3.6v-1.3l-.8-3.4-.6-.8v-1.3h1.4l2.7 15.9 14.3-2.8 1.4 9.8.6-1.4 1.3-.7V337l1.5-1.3.7-1.4.6-.7 1.4.7 2-2.7v-.8h.7l.7.8 1.4.6 1.9-.6v-.8l.8-1.4h1.4v-.6l1.3-.7 1.4.7 1.3.6h2.1v.8l.6.6v.8l1.5 1.3v2.8l-1.5.8-6.2-2.9h-.5v1.3l-.8 1.6.8 2-1.4 1.3v2.2l-1.3.6-.8.8-1.4 2.1h-2l-1.3 1.4-.7 2V351.8l-1.4.5-.6.8H946v-.8l-1.3-.5h-1.4V355.1l-.6.8v2l-1.3 1.5v1.2l-.8 2.1-.6 1.5-1.5 2.7-.6 2.1.6 1.4-.6 1.4v1.3l-1.3 1.6-2.2-.8-2 2h-1.3v.8l-.7 1.3h-.7l-2.7 1.5h-1.3l-1.4-.7v.7l-2.7 1.3h-2.1l-2-1.3-1.5-.7-.6-1.3.6-1.6h-2.7l-2-2-2.7-2.8-1.4-.7v-2l-2.1-2.9v-4.1"/><path fill="#D1E0C1" stroke="#729854" stroke-miterlimit="10" d="M994.6 321.8c.2-2 1.2-3.6 3.3-4.1l.7-.8.6-.7v-1.3l.8-1.4 1.3-1.5.8-1.2.6-.8-2.7-2.1-.8-.7h-.6l-.7-1.3-.6-.8-.8-.6-1.3-1.5v-2.1l.7-.6.6-1.5-.6-.6-.7-1.5-.6-.6 1.3-.6 1.4-3.5v-.8l.6-1.3.7-1.5 11.6 3.6c1 5.5-2.7 6.1-2 11 .1.6 3.3 0 4 2.1.9 2.7.6 6 .7 9-.6-1.3-.8-2.7-.7-4.1.1 7.5-2.7 15.6-5.5 21.6h-1.9c1.1-5.4-9.3-4.6-10.2-9.8"/><path fill="#ABC695" stroke="#729854" stroke-miterlimit="10" d="M1000 220.4c5.9-1.7 20.4-8 22.5-4.3v3.6l.6 1.3.7 1.4-.7.8-.6 1.3-2.1 2.8-1.4 1.3v1.5l1.4 2.1-.6 2.1v1.4l-.8.6v5.5l-.6 1.6.6 3.3v2.9l.8 2.7-.8 1.5v1.3l.8 1.4.6 1.4-9.5 2.1-.7-2.1-2-11.8-1.5-1.4-.5.7-.8-.7v-2.1l-.6-2v-1.5l-1.3-2.1v-2.1l.5-.6v-.7l-.5-2.2v-.6l-.8-1.4-.6-.8-.8-2.1v-2.7c-.5-1.2-.9-2.2-1.3-3.4"/><path fill="#D1E0C1" stroke="#729854" stroke-miterlimit="10" d="M715.5 302.4l-.5-2.1-.8-1.5v-2.7l1.3-2.1v-1.4l.7-1.4v-.8l-2-1.2v-1.5h.8v-1.4l-.8-.6v-1.4h15l22.4-.7 17.9-.7 12.8-.7v.7l.8.7.6.7.8.7v.7l-.8 2.7.8 1.5v2.1l.5 1.3v1.4l.8 1.4h1.4l3.4.6.6 3.6.8.6 2.7 1.5v2.1l.7.6 1.3.8 1.4 1.3v4.2l-1.4 2.1-.7 2.7-1.3 1.5h-1.4L792 319l-4.8.8v1.4l-.6 2 2.7 2.9v2l-2.1 1.3v2.2l-.6 1.3-2.1 1.4-1.4 1.4 1.4.8-.8 2h-1.4l-.5-1.5-2.2-1.3-.6-1.4-8.2 1.4-20.5.8h-25.2v-.8l-.8-.8v-3.3l-.6-2.2v-1.3l.6-2-1.2-.8.6-1.4-1.3-.7.7-2h-.7v-1.4H721l-.6-1.5v-.6l.6-2.1-.6-.7V312.8l-1.5-2v-1.5l-1.2-.7v-1.4l-.8-1.3v-3.5h-1.4"/><path fill="#ABC695" stroke="#729854" stroke-miterlimit="10" d="M906.5 424l3.4-2.2h2.2l1.2-1.4 2.1-1.3.6-.7 1.5-.7 12.2-.7 4.7-.7 2.2 1.4.7-.7 1.2 2.1.8 1.3v.8l.7.6 16.4-2.7 17.6 13.2c-1 3.1-6.7 8.3-6.1 13.8-.8-2.1-.7-1.4-.6-4.1-1 4.3-1.1 1.7.6 5.6-1.2 1.4-.8-.3-2.1 0 1.4 2.1-4.2 8.3-7.5 7.7 1.4 3.2 0 4.9-3.3 4.9-.8 2.2-3.4 3.1-6.8 2.7 2.1.2 4.4.5 2.7 2 2.4 1.9-.2 2.3-2.7-.6-.6 3-1.4 1.5-2.2-.8 1 2.4.4 3.6 2.8 4.9-1.4 2.1-.7.8-1.3 0-.3 1.2-1.1 2.3-1.5 3.5-1.1-.5-2.7-1.4-3.3-2.1l-.7-1.4v-.7l-.6-.7-.8-2.1-.6-.6-2.1-.8-.6-.6-.7-1.5v-2l-1.4-2.1-.8-1.4-2-1.4h-.7l-1.3-.6v-.8l-1.4-.7v-.6l-1.3-.8v-2l-1.4-.8-1.4-.6-.6-.7-1.3-.8-.8-.7-1.4-1.3-2.1-2.1-1.9-1.4-2.7-4.1-.8-.8-1.2-1.3v-1.5h-2.7l-2.9-2.1h-1.4l-.6-.6-.7-1.4.7-1.4 2-2.9v-.5"/><path fill="#ABC695" stroke="#729854" stroke-miterlimit="10" d="M404.6 316.2l9.5-40.9 21.7 4.7 15.8 3.6 20.5 4.1 17 3.5-15.6 89.6-2.1 13.9-1.4 2.1-1.4.7h-.6l-.7-.7-1.4-2.1h-3.3l-1.4.8-.7 1.3 1.3 2.8-.6.8-.7 1.3.7 2.1-.7 1.3v1.4l.7 2.7-.7 2.9-.6.7-.8 2.1-17.1-25.7-40.9-61.1 3.5-11.9"/><path fill="#D1E0C1" stroke="#729854" stroke-miterlimit="10" d="M871 428.1l12.4-1.4 5.4-.6 17.7-2.1v.5l-2 2.9-.7 1.4.7 1.4.6.6h1.4l2.9 2.1h2.7v1.5l1.2 1.3.8.8 2.7 4.1 1.9 1.4 2.1 2.1 1.4 1.3.8.7 1.3.8.6.7 1.4.6 1.4.8v2l1.3.8v.6l1.4.7v.8l1.3.6h.7l2 1.4.8 1.4 1.4 2.1v2l.7 1.5.6.6 2.1.8.6.6.8 2.1.6.7v.7l.7 1.4c.6.6 2.2 1.6 3.3 2.1.5-.9-.3 2.8-.5 3.4-1 .1-1.3-.5-2.2-.6.9 3.7.4.9-.6 4.1h1.4c-.6 2.8-.3 1.8-1.4.6.3 3.4.3 3.8-.7 6.5h-1.4l-.6-.8.6.8h1.4c1 .6.8 1.9 0 3.3l-2-1.3v1.3h2l-1.4 1.4-.6-.6.6 1.4-.6.6h1.4l-.8 1.5-.6.6 1.4 1.4-.8 1.3h-2.1l-1.9-.5h-3.5v2.7l.8.6.5 1.4v2.9l-2 .6h-.7l-.6-2.7-1.4-.8-38.2 2.9-1.3-1.4v-.7l-1.4-2.8v-.7l-1.4-1.5-.7-.5v-8.4l-1.4-.7-.6-2.1v-2.8l.6-1.3v-2.2l.8-.6.6-1.5v-.6l-1.4-.8.8-1.4-.8-1.3-.6-.7-.7-1.3-.6-2.2-.8-1.4-.6-.7-.7-.6-4.9-19.6-5.4-18"/><path fill="#ABC695" stroke="#729854" stroke-miterlimit="10" d="M841.7 308.6c7.7-6.9 4-19.2 4.1-27.8-7.9-3.1-3-25.2 0-31.2l2.1.6c.6-2.3 1.6-3.2 2.7-4.8 0 2.2.3 4.7 0 6.9.3-1.4.7-2.8 1.3-3.4.1 1.1 0 2.3 0 3.4 2.4-4-1-10 4.9-10.5-7-11.1 11.9-6 16.3-3.3 6.1 3.7 7.7 12.1 4.8 19.8-.9 2.4-7.2 12-1.5 12.1 3.6.1 3.9-7.9 7.9-8.7 8.2-1.7 12.2 20.6 9.2 25.4-.6-1 .5-1-.6-2.1-4 5.7-5 15.9-11 19.4-5.4 3.1-12.6 1.3-17.4 1.8-7.7.6-15.1 2.8-22.8 2.4"/><path fill="#D1E0C1" stroke="#729854" stroke-miterlimit="10" d="M473.5 380.8l15.6-89.6 5.5.8 17.7 3.5 14.9 2.7-2.7 18 27.4 3.6-8.8 71.4-19.8-2-17.8-2.8-19.1-3.4-12.9-2.2"/><path fill="#ABC695" stroke="#729854" stroke-miterlimit="10" d="M991.1 321.2c1.3-2.3 2-3.9 4.8-2.9-5.2 8.2 11.5 16.8 7.6 20.9 1.7.2 2.6-1.6 2.7 2-8.7 1-6.7 2.4-10.4-3.4-2.4-3.8-3.2-12.2-4.7-16.6"/><path fill="#D1E0C1" stroke="#729854" stroke-miterlimit="10" d="M895 396.1l2-1.4h1.3l.6-1.3 2.9-.7v-1.5l1.4-.6 1.3-.6.6-.8v-1.3l1.4-1.5v-.7l.7-1.4 4.1-2.7 4.7-5.7-.6 1.6.6 1.3 1.5.7 2 1.3h2.1l2.7-1.3v-.7l1.4.7h1.3l2.7-1.5h.7l.7-1.3v-.8h1.3l2-2 2.2.8 1.3-1.6v-1.3l.6-1.4-.6-1.4.6-2.1 1.5-2.7.6-1.5.8-2.1v-1.2l1.3-1.5v-2l.6-.8V351.8h1.4l1.3.5v.8h2.2l.6-.8 1.4-.5V348.9l.7-2 1.3-1.4h2l1.4-2.1.8-.8 1.3-.6v-2.2l1.4-1.3-.8-2 .8-1.6v-1.3h.5l6.2 2.9 1.5-.8v-2.1h3.3l.7 2.1v.8l.7.5h2l.8.8 1.3.7h.6l1.4.7c.3 2.6 0 4.5-1.4 4.9h-.6v5.5h1.4c2.3-.5 4.3.1 6.8 1.4 1.5-.3 2.5.1 3.4 1.3 1.8.8 3.8 1.8 4.8 3.6-.5-.3-.9-.5-1.4-.8.5 1.6.9 2.6.7 4.3-4.5-.5-7.4-6.3-12.4-7.1 4.7 1.9 8.5 6.2 12.4 9.1 1.8.9 3.2.2 2.8 3.5-.8-1.2-1.6-1.2-2.8-1.4.1 1.3 1.1 1.5 0 2.8-1.6-1.4-4.1-2.5-5.4-3.6 2.6 2.8 8.4 4 8.8 6.3 1 5.8-8.1-1.8-8.8-2.1-.8.1-5 .5-6.2.8 4.7.6 8.2-.3 10.2 3.4 1 1.2 2.1.9 2.1 2.8 1.7-1.5 1.9-.1 3.4 0 0-1-1-.9-.7-2.1 4.1-1 6.6 1.6 7.5 5.7-.6-.8-1.2-1.2-2.1-2.2.2 2.1-.3 2.1-.6 2.2-3.6 1.5-9.2 2.4-13.6 3.3l-15.1 3.5L940 390l-11 1.2-4.7.8h-3.5l-4.8.7-5.4 1.4-8.8 1.4h-2.9l-3.9.6"/><path fill="#D1E0C1" stroke="#729854" stroke-miterlimit="10" d="M623.5 237l3.4-54.2c20.4 1.6 40.7 2 61.2 2.6 3.7.1 8.3-.4 12 .3 8.3 1.5 5-1.9 7.4 5.5 1.4 4.4-.1 8.7 1.4 13.9l1.9 4.2v7.6l.8 2.8-.8 1.3 1.4 1.4-.6 1.4.6 4.8V231.4l2.1 2.2v7h-22.5l-21.9-.8-24.5-.7-21.9-2.1"/><path fill="#D1E0C1" stroke="#729854" stroke-miterlimit="10" d="M461.2 422.5l-1.3-3.4-.8-1.4v-2.8l-56.7-86.8 11.1-53.5-53.3-14c-.3 4.2-3.1 24.7-8.1 16.1-4.5 7.6-.1 11.5.8 18.1 1.1 8.6-1.9 15.6 1.2 24.5.9 2.5 2.6 5.2 3 7 .1.5-1.5 3.4.4 6.4 3.1 5 7.5 3.9 4.8-2.4 4 0 7.5 2.1 7.4 6.3-1.3-.3-2.5-.5-3.9-.8 7 12.4-2.5 4-3.6 5.2-3.1 3.3.5 15.1 5.5 17.7-5.8 3.6-6.5 2.4-5.1 9.8.9 4.8 3.8 9.3 5.9 13.2 1.5 2.8 5.2 6.7 5.7 10.1.5 3.3-2.7 7.1-2.3 9 1.2 5.2 8.1 6.5 11.6 9 10.3 7.3 23.6 17.5 26.8 28.2 1 3.3.2 8.4 1.4 11.1 2.1 5-.5 2 5.7 4.1 7.6 2.6 29.1-1.1 32.1 5.5 1.8-.2 3-1.2 4.2-2.7v-2l-2.1-.8v-1.3l2.1-1.5.6-2.7.7-4.3.6-4.7 1.4-2.1.7-2.1 3.5-.7 2.7-.8.6-.6v-1.5l-.6-.6-1.3-.6 1.3-.8v-1.4l-1.3-1.3-1.4-1.6v-2.1z"/><path fill="#ABC695" stroke="#729854" stroke-miterlimit="10" d="M930.4 286.3c4.8-3.6 11-10.8 8.9-15.9-3.3-.2-2.5-1.5-2.7-4.1 7.2-5 20.5-1.8 27.3-5.7 8.7-4.9 3.7-9.2 7.4-14.5-2.6-.8-1.7-.1-2.7.6-1.4-2.1 6.4-15.1 9.6-18.3 3.8-4 21.8-12 23.1-4.6v2.7l.8 2.1.6.8.8 1.4v.6l.5 2.2v.7l-.5.6v2.1l1.3 2.1v1.5l.6 2v2.1l.8.7.5-.7 1.5 1.4 2 11.8.7 2.1V272.4l2.7 13.3c-.3 2.8.2 8-3.4 11 .7-3.5.5-7.2-2-9.6.7 1.6 1.2 3 2 4.9l-11.6-3.6v-.7l-1.3-.6h-.8l-1.9-.8-1.5-.6v-1.4l-1.3-2.7-1.4-.8h-.7l-.6-1.3h-1.4v-.8l-11.6 2.9-17.8 4.1-16.3 3.5-10.3 1.2c-.4-1.4-.9-2.7-1.3-4.1"/><path fill="#D1E0C1" stroke="#729854" stroke-miterlimit="10" d="M529.9 493.5v-.8l13.2-101.5 22.5 3.5 20.4 2.1 24.4 2 15.8.8-.6 9.1h-.8v1.3l-2.7 43.9-1.3 15.9-1.4 18.8-.7.6H605l-12.8-1.3-14.4-1.5-11-.5c.6 1 .9 2.2 1.5 3.3-5.2-.4-20.3-5.1-24.3-2.4-2.4 1.6.4 6-1.7 7.6-1.8 1.5-10.1-.7-12.4-.9"/><path fill="#729854" stroke="#D1E0C1" stroke-width=".665" stroke-miterlimit="10" d="M1025.8 207.3c3-1.2 2.2-1.8 4.9-2.2-2.1-3.3.8-8.6 1.3-11.9.9-5.3-.2-10.9 1.1-16.2.7-3.1 2.4-11.1 5.1-12.9 2.3-1.6 1.8 4.5 2.7 4.2 1.9-.7 5.7-5.1 7.5-5.3 11.7-1.3 10.4 19.2 14.2 25.4.1.1 5.5 4.2 5.8 4.5 2.6 2 4.2 3.5 7.2 5.9-.7.5-1.5.9-2.2 1.4.5.5 1.1.9 1.6 1.4 1-.7.8-1.5 1.3-2.1.3 6.4-4.5 5.6-6.2 9.8 0 0-1.2-1.5-1.3-1.5-.9 1.5-.8 2.5-.8 4.2v-2 2s-1.3-1.9-1.2 1.4c-1.1-.4-2.8-1.4-4.2-2 .3 3.1-.8.5-1.2.6.4 1.9-.7 2.7 0 4.9-1.1-.3-2.4-.5-3.5-.8.2-3.1-.4-1.2-1.4-4.1-.3 2.1.2 5.9-.7 8.7-1.4 4-4.3 2.3-4.1 7.4-.5-1.6-1.1-2.5-.8-4.3-.1 1.7-.3 2.9 0 4.8-.6-1.1-1.4-1.6-1.9-2.7v4.2c-.9-2-1.3-4.1-1.3-6.3-.1 1.3.4 1.8-.7 2.7 1.7 1.3 1.2 3 2 4.9-.4-.9-.9-1.9-1.3-2.8-.2.9-.5 1.9-.7 2.8-.8-1.8-.4-1.1-.8 0-.2-.9-.5-1.9-.7-2.8-1.4 4.2-1.6 2.9-.6 5.7-2.2 3.5-2.7 8.1-4.9 11.1-1.2-2.2-2.6-2.5-4-4.8l-.6-1.5v-1.4l-.8-2.8-8.2-27.1-.6-.5"/><path fill="#729854" stroke="#D1E0C1" stroke-width=".665" stroke-miterlimit="10" d="M543.1 391.2l8.8-71.4 12.2 1.4 21.1 2 11.6 1.3 20.6 1.6 11.5 1.2 13 .8.7.7v17.3l-2.7 54.3-13.7-.8-15.8-.8-24.4-2-20.4-2.1-22.5-3.5"/><path fill="#729854" stroke="#D1E0C1" stroke-width=".665" stroke-miterlimit="10" d="M527.2 298.2l7.6-44.4.7-8.4.6-.7 22.6 2.8 22.5 2.7 24.6 2.8 16.3 1.3-2.7 35.6-2 36.2-20.6-1.6-11.6-1.3-21.1-2-12.2-1.4-27.4-3.6 2.7-18"/><path fill="#729854" stroke="#D1E0C1" stroke-width=".665" stroke-miterlimit="10" d="M568.3 489.2c-.6-1.1-1.1-2.2-1.5-3.3l11 .5 14.4 1.5 12.8 1.3h13.7l.7-.6 1.4-18.8 1.3-15.9 2.7-43.9v-1.3h.8l19 1.3h20.5l.6.8 2.2.6-1.4 32.7-.8 2h2.2l.5.8 2.2 2.1.6.7 1.5-.7.6.7h1.3l.8-2.1.6 1.4.6.7 1.5.6v2.1h1.4v.7l1.3-.7.7.7 2.7 1.4 1.3-.6h.8l.6.6 1.3.8h.8l1.4-.8h3.3V456.6h1.5l.6.7v1.3l.6.8 1.5-.8 2-1.3h.7l.7 1.3h.5l.8 1.6h1.4l1.3-1.6 1.4.8v2h1.3v-2l1.4-.8v-.6H710.7l1.4 1.4h.7l1.4-.8h.8l.5 1.6 1.4.5h1.4l.6 1.5.8-1.5h.7l2-1.3h.7l1.2-.8.8.8h2.1l.6-.8 2.1-.6 1.4.6h2l1.3-1.3h.7l2.7 2.1 2.8 1.3.6.7 1.5.8 3.3.7v.6l2.2.8.5-.8 3.5.8.7 9.6.7 18.1 1.3 2.1.7.6 1.3 2.1-.6 2.2 1.3.6.7 1.4v.8l.7.7v1.4l1.4 2.8h.6v.5l.8 1.6-.8.6v3.5l-.6 1.4v1.3l-.8 1.5-.6.7v2.7c1.2 4.6-3.9 10.3-1.4 13.2-5.3-.7-10.2 4-14.3 6.3 1.8-1.4 2.6-2.4 4.9-3.5-1.4.5-3.4.3-4.9.7.6-1.9-.1-3.6 0-4.8-1.3.3-3.6.9-4.8 1.3 1.3 2.8 1.8 4.2 3.5 5.5-2.9 2.6-4.1 6.4-6.9 8.5-3.2 2.4-7.1 3.2-9.5 5.5.9-.6 1.7-.7 2.8-.7-2.7 1.1-5.1 1.8-7.6 3.4 1.2-.7 1.9-2 2.7-2.7-.7.2-1.4.5-2.1.7-.2-.2-1.9-1.6-3.9-2.8.4.9.8 1.9 1.2 2.8-1.4-.9-3.7-1.3-4.7-2.1 1.1 1.8 1.7 1.8 2.7 2.7-.2.5-.5.9-.7 1.4-.1-.2 2.1.7 2.1.7-2.3 3.1-4.5 3.4-6.2-.7.6 2.6-.1 4.7-2 6.3.6-2.4.4-2.1-1.3 0v-1.4c-2.5 1.6-2 .6-2.1 3.5 1.2-.6.6-1.3 2.1-1.4-.8 4.1-4.3 5.1-7.5 4.9 4.3 1.6 3.3 6.8-.7 9.6 1.1-1.7-.9-2.3-3.5-3.3 1.4 2.6 1.5 4.5 4.7 3.3-1.3 3.2-1.6 4.7-.5 7-2.5.1 2.1 11.7 4 15.4H704c.4 1.9 1 .9 2.1 0l-.8 1.3c1.3-.4 1.9-2.2 1.4.7-4.6 2.7-16.4-3-22.2-5.3-7.9-3.1-8.8-4.4-11.8-13.3-3.7-11.3-11.6-20.9-17.2-33.6-4.7-10.7-16-25.1-29.3-19.4-6 2.5-6.7 13.6-13 13.5-3.2-.1-14-8.3-16.5-11.3-6-7.4-4.4-16.1-10.8-23.6-4.9-5.8-12.6-12.9-17.1-18.8-.1-.3-.3-.5-.5-.8"/><path fill="#729854" stroke="#D1E0C1" stroke-width=".665" stroke-miterlimit="10" d="M853.4 512.2c-.3-2.9-1.8-4.9-2.8-7.7l.6-.6 13.8-2.1 23.8-2.8 1.4 2.8v.7l1.3 1.4 38.2-2.9 1.4.8.6 2.7h.7l2-.6V501l-.5-1.4-.8-.6v-2.7h3.5l1.9.5h4.2c-.1 1.4-.3 3.9-1.3 1.5 5.2 6.9 7.1 16.4 12.5 24.1 2.9 4.3 7.1 7.8 9.2 12.1.9 1.8-.1 6.2 2.7 9.6-4.3-3.9-1.9-8.1-4.3-11.8 0-.1-3.9-2.1-3.8-2 1 9.4 12.9 17.4 12.9 25.7 6.9 3 5.5 15.6 6.1 23.6l-.6-1.3c-1.2 4.3-.5 12.1-2.7 13.2h.6c-4.2 1.4-8.6 4.6-12.2 1.3l1.3-1.3c.9.5 1.7 1.7 2.7 2.1-4.2-5.2-7.2-12.6-15.6-12.5h2.7c-4.6-.7-8.9-10-4.7-13.2-1.1 2-2.5 3.4-4.1 4.1-.8-2.4-.8-5.8 0-7.6-1.8 1-2.7-.3-4.1 0 1 1.5 2.1 1.6 2 3.5-5.9-1.4-6.9-8.5-10.9-11.9 2.8 1.8 6.2-6.5-.7-9 1.9 2.7 1 3.1 1.3 6.3-.7-.8-1.7-1.6-2.7-2.1l1.4 1.4c-3.5-4.1-.1-9-.7-14.6-.9-7.8-1.9-6.2-7.1-10.1-3.2-2.4-21-22.7-22.1-10.8l-1.6-.8c1.1.7 1.8.8 2.2 2.1-4.2-1.1-13.5 9.2-16.4 2.8 1 1-.3 2.4 2 2.1-1.7-4.9-3.5-4.1-6-7 1.4 1.6 2.3 1.1 4 1.5-3.4-.6-5.1-2.3-3.4-5.6-1.6.6-1.8.3-3.4.7.4 1 1 2.4 1.2 3.4-3.4-2.1-7.2-4.3-11.4-4.1 2.9.2 2.5-1 5.4 0-2.8-2.5-1.6-1.4-4.8-.7V510c-2.6 2.7-6.2 3.6-10.2 3.5 1.7-1.4 3.9-.8 1.4-3.5-.2.2-1.2 2.1-1.4 2.2V510c-.5 3.3-2 5.5-4.7 6.3 2.3-2.3.1-2.7 0-4.1"/><path fill="#729854" stroke="#D1E0C1" stroke-width=".665" stroke-miterlimit="10" d="M706.7 185.7c7.3 0 27.2 4.7 23.8-7 5.9.9 2.4 5.5 5.5 9.4 2.8 3.5 4.4 3.1 9.5 3.7 2.2.3 4.6 0 6.9.2 2.3.2 7.8-2.1 8.2 2.7 1.5 1.2 3 1.7 4.8 2.8 2.6-5.4 4 2.2 7.8 2.3 3.9.1 5.4-2.7 9.1-3.1-2.1.2 4.9 2.7 5.6 2.8 2.7.5 6.6.2 9.5 0-2.2 3-5.5 3.8-8.6 5.8-5 3.1-6.9 5.7-10.7 9.8-7.7 8.3-11.3 8.2-11.3 20.7v1.3l-.8.7-2.1 1.4-1.9 1.5v1.2l-1.4 1.6v2.7h1.4l1.3 2.8-1.3 2.7v9l1.3 1.4.6.7 2.1.7 2.1.8.6.5.8 1.6h1.3l2 1.3 1.4 2.1 2.1 2.1 1.3.6 1.4.8h.6l1.4 1.4.8 1.3.5 2.8v3.5l-12.8.7-17.9.7-22.4.7h-13l-.7-32-.5-1.4-.8-.8-1.4-.6-1.3-2.1-.8-.8v-1.3l1.4-.7 1.4-.8.7-.5v-9.8l-2.1-2.2v-2.8l-.6-4.8.6-1.4-1.4-1.4.8-1.3-.8-2.8v-7.6l-1.9-4.2c-2-6.9-.6-12.3-2.1-19.4"/><path fill="#729854" stroke="#D1E0C1" stroke-width=".665" stroke-miterlimit="10" d="M196.5 156.9c2.1-2.1 6.1-5.9 8.7-5.8 5.4.2.3 4.9-1.3 4.9 7.6 1.3 4.2 8.9-3.3 8.9 0-.7.7-1.2-1.3-1.2.8 1.6-5 3.8-5.2 3.9-3.6 1.1-2.6-1.9-7.4.6-.1.1-7.3 11.1-8.1 9.6l1.2.6c0 .2-1.2.7-1.2 1.6 0 .7 2.1-1.4 2.1-.8-.9-.9 1.6 5.8 2.5 5.4.3-.6.5-1.2.4-1.8 2.9-1.5-.4 7.3-.4 5.8 1.1.4 1.3 0 2.5 0 0 4.2 13.1 7.9 13.1 5.3.6-.6-1.3-3.4.4-3.4 0 4.6 3.8 9.6 4.3 10.6-.2.4-.8 3.4-2.2 3.4 5.8 0 5.8-2.9 11.2-4.2 1-.2 1.1 2.6 3.9 1 .8-.5 3.1 5.3 4.8 4.4 1.6-.8-1.3-5.9 2.2-5.9 0 5.4 5.3.8 8.4.8 0-.5-4.7 13.2-3.3 12.3-2.4 1.6-4.9 4.1-7 5.7-1.7 1.3-4.4 1.7-6.1 3.1-2.3 2-3.4 1.7-3.2 1.5-.9.9-3.9 2.2-2.4 1.9-4.4 1.1-9.3 5.2-11 6.3-.3 0-2 .9-2 1.2h1.2c.1-.2 1 5.6 1 5l4.7-2.8c1 1.9 1.2-1.7 1.6-3.1.7-2 .7-.1 1.9-1.4 0 .4.8-1.6.8-.7 0 .8 9.6-3.4 9.9-4.1 0 0 1.5 2.2.4 2.2.7-.5 1.1-1.2 1.2-2.1 4.7-1.5 5.8-.5 5.8-4.2 0-.6 3.4-1.2 3.4-1.2l2.1-.4c1.3-2.7 10.9-9.5 13.9-11.3 3-1.8 8.5-10.1 12.4-10.1 0-2.3-5.1-2.4-5.1-2.8 0 0 2.4-4.7 2.1-4.3.7-.7 1.7 1.5 1.7-.8 2.8 1.4 2.7-1.1 1.8-1.1 3.7 0 2.6-.6 2.1-3.1 1.2-1.2 4.2-3.2 5.8-3.2 2.8-2.8 5.6-7.2 12.3-7.2-1.1 0-2.9 2.3-3.7 2.9 0 1.7 5.3 2.7 5 2.9 0-1.6-10.4 0-11.6 1.2 0 5.9-4.7 8.6 2.2 8.6 0 1.3-5 3.3-5.8 4 0 2.5 8.3.8 8.7.3.4-.4-.5-2-.5-2.4.4.1.7 0 .8-.4 2.6 1.4-1 0 1.2 0v1.3c2.1-2.1 1.4-2 1.2-3.5.8.4 1.5.9 2.1 1.6 0-.7 1.7-3.5 2.4-3.5.3.6.5 1.2.8 1.8.1-.9.5-1.6 1.2-2.1 0 3.5 4.3-.1 4.1-.1l-.9-1.8c3.7 0 .9-2.8 0-3.4-1.7-1.7.3-2.3.2-2.5 0 .1 1.1 1 1 1.2.7 0 1.9-.2 2 0 1.1 0 2.8-6.8 0-4.8 3.1-2.3 9.1 1 8.7 1-.8 0-2.2 3.3-2.2 2.5 0 0 3.1.3 2.9.4-.8 0-1.4.5-1.7 1.3 2.5 0 1.9.4 4.6.4 0 1.3-6.7 0-6.7 1.6 0 1.8 10-1.3 10.5-1.2l6.6-4.6c.7-9.3 1.5-18.7 2.2-28 1.1-14.7 2.3-29.3 3.4-44-1.9-.3-4.7-1.8-8.1-2.8-6.2-1.8-8.6-.5-14.7-.5-3.7-2.4-14.8-3-18.9-4-7.9-1.8-14.9-2-22.8-2.3 0 0-.2-.4 3-.4-.3-.5-2-.7-2.4-.4-.3-.3 1.6-2 1.2-2-1.1-1.1-6.3-.2-7.2 0-4.6 1-7.7-1.3-11.4-1.3.2.9.7 1.2 1.7.8 0 .4-5.1-.8-5.1-.9.4.1 3.1-1 3.6-1.2-1.1-.2-6.4-1.5-5.1-2.8-4.5 0-8.9 5.8-14.8 5.8 0-.5.3-.8.9-.8-.4.3-5.1 1.2-5.1 2.4 2.3 0 1.5.9 3.4 1.6-1.3-.1-1.7.5-1.3 1.7.1 0-1.7-.7-1.7-.4.9 0 3.2-1.2 5.1-1.2-1.4 0-8.3 1.2-10 2.9 0-3.5-6.1 3.9-7.7 5.6-6 6.6-6.3 7.3-16.3 7.3 1.7 5.4 23.8 17.2 21.6 19.3l-12.8 8.2-7.6.3c-1.8 0-13.2.6-13.7 4.1-.4 2.8 9 2.1 9 3.7-2.2 1.6-2.9-.1-4.2-.1 0 3.8 5.1 6.1 8.6 6.9 1.1.3 12.2.5 12 .7m1.6 29.6c-.8.8-4.5-1.7-6-2.3-1.6-.6 9.4 2.3 6 2.3-.4.4.9 0 0 0zm55.2-88.6c-3.1 0-5.1-1.3-6.3-1.3 2.6 0 5.3.1 7.6 1.3h-1.3z"/><path fill="#729854" stroke="#D1E0C1" stroke-width=".665" stroke-miterlimit="10" d="M617.4 326.1l2-36.2 12.9.5 22.5 1.6 21.2.6 14.4.7 1.3.7 4.7 2.7h1.5l.6-.6h2.1l4.7-.6 2.1 1.2h1.4l.6 1.5.7.6h.6l1.4.8.7.7.7.6.7 1.5h2.7v3.5l.8 1.3v1.4l1.2.7v1.5l1.5 2V314.9l.6.7-.6 2.1v.6l.6 1.5h1.4v1.4h.7l-.7 2 1.3.7-.6 1.4 1.2.8-.6 2v1.3l.6 2.2v3.3l.8.8v2.8l1.4.7.7 2 1.4.8.6 1.4v.7l1.3 1.4v1.4l.8.6h-39.6l-32.8-.6-16.3-.8v-17.3l-.7-.7-13-.8-11.5-1.2"/><path fill="#729854" stroke="#D1E0C1" stroke-width=".665" stroke-miterlimit="10" d="M389.5 181.5c-.9-.8-2.2-1.7-3.4-2.1v-3.5c1.1 1.1 2.8.9 4.9 0-2.7-.3-3-1.4-4.9-1.4 1.7-8.8-.4-17.9.7-26.4 4.4 3 6 5.7 10.6 8.4 3.9 2.3 7 .8 9.2 4.9 1.1-.9-.8-.8.7-1.5l2 4.2 1.3-8.3v-1.5c3.1 1.7 1.1-.5 1.4-2.1 2.1 0-.1-4.2-.6-8.3 21.3 6.7 42.9 12.8 64.8 17.5l-8.2 40.2v3.5l-1.4 1.4 1.4 2-.7 3.5.7 1.4-14.3-2.8-11.7-2.8-.6.7h-1.3l-1.4-.7h-2.9l-.5-.5-.8.5h-6.1l-2 .7-1.4.8-1.4-.8-.6-1.2h-1.4l-3.4.5-1.4-.5-2.1.5v-1.3l-1.2-.8-.7-.6h-3.5l-.7-.7h-1.3l-1.4.7h-4l-1.4-.7h-.8l-.5-.7-2.2-.7-.6-.6.6-5.7-.6-2.7-.7-.8-1.4-1.2H393l-1.4-.8c.2-.8 0-1.5-.6-2.1-1.4-.4-2.5.7-2.2-1.4-2.6.6-2.6.1-4.8-.6.6-1.7 1.1-4.2 2.1-5.6h3.4z"/><path fill="#729854" stroke="#D1E0C1" stroke-width=".665" stroke-miterlimit="10" d="M888.8 426.1v-4.3l2.7-.6 1.4-.8v-2l.6-.7.8-2 1.9-.8h2.7l.8-.8 3.5-2.7 1.9-1.4h.8l.6-1.3.7-2.8 1.4.6v-1.4h.8l.5-1.3 1.4 1.3h.8l1.2-1.3v-.7l1.5-1.4h2.7l1.2-.7.8-2.7.7-1.5h1.4l.6-2.1V392h2.1l4.7-.8 11-1.2 31.3-5.7 15.1-3.5c9.9-2 14.6-4.8 18.4 4.9-.9-1.6-2.2-2.2-3.5-3.5.7.7 1.4 1.4 2.2 2.1-1.6-.4-3.4-.7-4.9-1.3 2.9 2.7 1.3 3.5-2.1 3.4-.4 3.4-4.8 4.1-4.7-2.1-.1 2.5.7 4.8 2 6.9 3.5-1.6 4.8-1.8 8.3-2.8-.2 2.5.8 4 .6 5.7.3-2.9 1.7-4.2 2.7-6.2 2.5 2.6 3.6 5.8 0 6.2.7 5.3-3.1 7-6.8 4.2v1.3c-2.5-.5-1.6-1.2-1.3-2.8-.8 3.2-3.8 3.8-7.6 2.8 2.8 1.3 5.8 2 8.9 2.1 0 2-.5 1.8-1.3 2.8.4-.2.9-.5 1.3-.7-1 4.5-5 4.8-7.5 1.3 1.4 4.1 5.5 4 8.1 2.9.1-.9.3-1.5.8-2.9.8.5.4 1.7 0 2.1 1.3-.5 1.2.1 2.1-1.3 0 2-.8 4.1-2.1 6.2-.5-.4-.9-.9-1.4-1.3v1.3c-2.4-.9-7.3 1.3-8.9 4.9-.9-1.1-1.3-.8-2-2.1 1.5 4.2-4.5 8.8-4 14.7-.6-2.1-.2-3.6-2.2-4.3 3.6 6.1-4 5.9-7.5 7l-17.6-13.2-16.4 2.7-.7-.6v-.8l-.8-1.3-1.2-2.1-.7.7-2.2-1.4-4.7.7-12.2.7-1.5.7-.6.7-2.1 1.3-1.2 1.4h-2.2l-3.4 2.2-17.7 2.1"/><path fill="#729854" stroke="#D1E0C1" stroke-width=".665" stroke-miterlimit="10" d="M361.5 260.6c-3.5-5.2 2.5-24.7 7-23.6v-.7c-.6-1.7.7-3.9 3.3-4.9-3.8-3.5 8.8-23.8 9.5-30.6.5.3.9.5 1.4.8-.2-3.8 0-8.7 2.7-12.5 1.4.7.2.8 1.4 1.3-.6-.2-.9-.7-.7-1.3 2.4 0 3.9 1.2 5.5 2.9l1.4.5 1.3-.5 1.4 1.2.7.8.6 2.7-.6 5.7.6.6 2.2.7.5.7h.8l1.4.7h4l1.4-.7h1.3l.7.7h3.5l.7.6 1.2.8v1.3l2.1-.5 1.4.5 3.4-.5h1.4l.6 1.2 1.4.8 1.4-.8 2-.7h6.1l.8-.5.5.5h2.9l1.4.7h1.3l.6-.7 11.7 2.8 14.3 2.8v2.7l.6.8 2.1 2.1.7 2-.7 1.4-2.7 3.5-2.1 3.5-1.4 2v1.4l-.6.8-1.3 1.3-2.1 1.4-.6 2.2-1.4.6-.8 4.3v.5h1.4l1.4.8v3.4l-1.4 2.9h-.6l-.8 1.3-6.1 31.3-15.8-3.6-21.7-4.7-23.9-7-27.9-7.7h-.8"/><path fill="#729854" stroke="#D1E0C1" stroke-width=".665" stroke-miterlimit="10" d="M922.2 292.6c2.9-2.1 5.3-4.2 8.2-6.3.4 1.4.9 2.7 1.3 4.1l10.3-1.2 16.3-3.5 17.8-4.1 11.6-2.9v.8h1.4l.6 1.3h.7l1.4.8 1.3 2.7v1.4l1.5.6 1.9.8h.8l1.3.6v.7l-.7 1.5-.6 1.3v.8l-1.4 3.5-1.3.6.6.6.7 1.5.6.6-.6 1.5-.7.6v2.1l1.3 1.5.8.6.6.8.7 1.3h.6l.8.7 2.7 2.1-.6.8-.8 1.2-1.3 1.5-1.4 1.4v.7l-.7 1.3-1.4.8c-2.4-.4-4.4.8-5.4 3.5l-25.3 5.4-23.1 4.2-14.3 2.8-2.7-15.9-3.5-23.7v-1.4"/><g fill="#729854" stroke="#D1E0C1" stroke-width=".665" stroke-miterlimit="10"><path d="M364.1 554.9c-3 1.8 2.4 4.8 5.5 1.8 2.2-2.9-2.4-4-5.5-1.8zM363.7 533.3c-3-.4-22.5-6.4-19.5 1.3 6.4-1.7 17.4 6.6 19.5-1.3zM251.2 502.6c0-1.3-1.7-4.8-3-2.6-1.7 2.2-7.6 5.7-4.6 9 1.2 3.2 5-6.4 7.6-6.4zM353.5 541.5c-3.5 0 2.1 13 4.6 7.3.8-1.8 4.2 0 3.9-1.3-.7-3.8-5.5-6-8.5-6zM424.5 599.5c.8-1.8 2.1-1.3 3.5-2.2 3-1.8 1.3-7.3-2.1-7.3-2.1 0-1.3-.4-1.7-2.2-.8-1.8-3-2.6-4.2-3.5-2.4-2.2 1.3-4.4-2.4-6-1.3-.8-3.5-1.3-4.2-1.8-2.1-1.3-3.5-3.9-5.9-4.8-2.4-.8-5.1-.4-7.2-1.3-3.5-.8-1.3-1.3-2.4-3.5-1.7-3-6.8 1.3-5.9 3.5 2.1 2.2 5.5 2.2 3 6.4-1.7 3.5-5.5 4.8-6.8 8.2-1.3 2.6 2.1 6 3.5 8.2 2.4 4.4 1.7 7.8.8 12.6-1.3 4.4 2.1 4.4 4.6 7.3 3.5 3.9 4.6 2.2 7.6-1.3 2.1-2.6-1.7-3 0-4.4 2.1-1.3 5.9-2.2 7.6-3.9 1.7-2.6 5.5-.4 8.1-1.8 1.2-.4 3.3 0 4.1-2.2zM385.4 545c-3.5-1.3-5.9-10.4-10.2-3.9-2.1 3-3.5-1.3-4.6-3-2.1-3-5.9 1.3-5.1 4.4 1.7 3 4.2 3 7.6 3 0 4.8-1.3 11.7 5.9 8.2 3-1.3 6.3-1.3 9-3 4.6-2.2-.9-4.8-2.6-5.7zM266.1 492.7c-1.7 2.2-11.1 6-6.3 9 3 2.2 8.1 6 12.3 4.4 7.6-3.9 2.9-16.4-6-13.4zM315.4 528.6c2.1 0 4.2-1.8 6.3-1.3 0 1.3.8 1.8 1.3 2.2 2.1 1.3 5.1 1.3 7.2 1.3 1.7-.4 3.5-1.3 1.7-3.5-1.3-1.3-1.3-2.2-2.1-3.5s-3.5 1.3-3.5-.8c-.4-1.3.4-2.6-.4-3.5-.8-1.3-2.4-1.3-3-2.2-.4-.8-.4-3.5-1.7-3.9-2.4-1.3-4.2 1.8-5.9 3.5-1.3 1.3-8.5 1.3-4.6 3.5 1.7 1.3.4 3 1.7 4.4 1.3 0 1.3.8 1.3 1.8.4.3.4 1.6 1.7 2z"/></g></g><g><text transform="translate(436.632 384.019)" fill="#fff" font-family="'ArialMT'" font-size="37.481">Charities Outside of California</text><text transform="translate(501.711 331.198)" fill="#fff" font-family="'ArialMT'" font-size="37.481">$208M Raised for U.S.</text></g></g></svg>