<svg xmlns="http://www.w3.org/2000/svg" viewBox="0 0 1280 720" enable-background="new 0 0 1280 720"><g><g fill="#B2A0C9"><path d="M767.4 417.2c-5.5-6.4-1-1.6-10.4-2.5-5.6-.6-14.6.8-18.5 1.1-4.8.4 3.2-8.4.7-7.1 0-2.1-7.8-7.8-9.6-8.7-.2.5-.4 1.1-.5 1.7-2.9-.7-9.9-18.4-8-20.7-3.5-7.5-17.5-22.9-15.8-31.5-.4 1.8 5.5 8.6 5.6 8.4 8.3-11.7-7.9-13.2-7.9-13.2 0 .1-1.9-2.4-3.6 0-2.9 4-15-4.6-19.1-.1-.5.6-11-11.7-15.6-1.6s-13.2-.2-21-3.6c-2.9-1.3-9-.2-11.1-3 .6-3.1.1-10.6 1.8-12.7-.8.6-1.7 1-2.6 1.2.4-.3-22 1-25.5.6-5.7-.7-9.2 4.1-14.5 4.8-2.3.3-12.2-1.3-12.1-1.4-3.5 3.1-6.5 6.8-10 9.8-4.7 4-3 8-5.2 13.2-1 2.8-6 5.6-8.2 7.3-4.5 3.5-6.1 9.9-10.8 12.9.1-.4.4-.7.8-.9-1.9 3-3.4 6.2-4.4 9.6 1.7-2.7 10.5-.5 13.1-.5-2.8 0-11.2 2.7-13 1.9.1-.6.3-1.2.6-1.7-.4 3.4 7.3 22.3-1.9 22.3-1 0 12.6 6.4 12.3 4.8-.5-2.9-11.1 2.6-10.1 3.5.3.3 5.6 2.6 5.6 1.7-4.5 0 7.9 9.8 5.9 11 1.2 5.6 27.6 17.6 27.3 11.2-.4 0-.8-.1-1.1-.2 1.4.2 2.8.1 4.3-.2-.7 0-1.4.1-2.1.1.8 3.1 25.5-4 28-4.8.2 1.1 2.4 1.6 5 2.5-2.4-.9 9.8 11.3 9.8 3.5.2 0 1.7 1.7 1.7 1.1-.5.5-1.2.6-1.8.3 3.9-4.7 5.5 12.5 4.8 11-9.4 4.5 7.8 16.9 9.5 24 .5 2.1 2.9 21 2.8 20.9-6.9-2.2-3.3 22.5-1 24.7 5.6 5.4 4.1 17.3 6.8 24.3 2.4 6.5 6.2 12.5 10 18.2 2.5 3.7-3.2 9.5 4.3 9.8 10.2.4 19.4-1.9 27.7-6.7 11.1-6.4 11-13.8 16.6-24.2-.2.3-.5.6-.8.8-2.2-1.8 11-6.9 9.1-8.5-2.9-.3-2.2-12.7.3-16 4.9-6.5 14.4-4.6 16.5-14 2.5-11.4-5.7-20.2-4.9-31.4.8-10.4 13.7-18.2 21.1-25.2 3.7-3.8 22.2-23 19.1-27.8-1-1.2.2.3 0 0zM763.5 500.7c0-1.5-1.2-9.1-3.2-9.3.7 2.1-2.3 6.7-4.1 5.3 1 .8-1.4 4.6-1.7 5.2-.5 1.3-10 2-10.8 8.1-1 6.8-4.4 16.8-1 22.4 12.7 20.4 14.5-24 19-29 .8.4 1.4 1 1.8 1.8.2-1.5.2-3 0-4.5"/><path d="M1083.9 470.8c-2.1-1.1-2.7-.2-.7-1.3-1.4 0-2.6-.4-3.7-1.3.4-.1.7-.4 1-.7-2.7-1.9-9.5-5.9-10.2-9.7 1-.2 2-.3 3-.4 0-4.6-17.6-11.5-21.5-13.2-5.3-2.3-22.8 0-22.5.6 2-8.3-9.9-8.8-12.7-6.1 0 4.4 8.2 3.7 10.8 4.5-.3-.1-6.3.7-6.5 1.5-.4 1.6 13.2 6.7 15.5 7.2 4.1 1 5.8 2.8 6.7 6.9 1.7 7.5 8.7 5.2 15.5 6.6-.3-.1-3.6-4.2-4-2.9 1.6 0 3.3 0 4.9.1-3.6.2 2.6-2.4.1-2.4.6 0 2.4 2.2 1.4.3 2.4 4.3 17.7 7.7 22.9 10.3 0 0 .1.1 0 0zm-33.3-12.5c-.4-.4-.5-.8-.3-1.3 0 .6.6 1.6.3 1.3zM989.8 433.9c-3.1-1-6.7-5-7.4-5.4-.1 1.4-6.8 8.1-4.8 9-.9-.6-1-1.3-.4-2.2-.4 1-.7 2-1.1 3-1.2-.3-2.1-.9-2.7-2-.4-.1-10.1 7.9-9.2 10.8-2.9 0-9.3-5-7.3 2.9-.1-.5 2.1 6.5 1.4 5.9.8.8 8.3 5.2 8 7.5 3.3 0 14.1 1.4 14.1 1.6 1.8-.5 2.3-20.3 9.6-16.8-10.2-5-1.1-12.2-.6-11.3-.8-.2-1.5-.7-2-1.4-.2 0 5.4-.7 2.4-1.6-2.5-.7.3.1 0 0zM962.1 449s-.1 0 0 0c-.1 0 0 0 0 0zm-2.3-1.9c-1.6-1.4-.8-.6 0 0-.2-.1 0 0 0 0zm.2 0c.1 0 .2.1.4.4l-.4-.4zm1.8 1.7c-1.9-2.6 0 .1 0 0-.4-.5.1.2 0 0zm.7.1c-.3-.2.6.5 0 0-.1 0 0 .1 0 0zm2.5-.4c-2.2.3 1.4-.2 0 0-.5 0 .4-.1 0 0zm1 0c.5.3.5-.5 1-.5-.5 0-.5.8-1 .5zm1.7-1.5c-1.2.3 1.9-.6 0 0-.5.1.4-.2 0 0zm2-.4c0-.2.7-.1.7.1 0-.1-.7-.3-.7-.1zm.7.5c-.7.4 1-.4 0 0-.2.1.3-.1 0 0zm1.2.5c.1 0 .1 0 .2-.1-.1.1-.1.1-.2.1zm1.3-.2c.4-.3.4-.4.6-.4-.2.1-.2.1-.6.4zm3.2-2.6c0-.8.5-.2.5-.6 0 .4-.5-.2-.5.6zm1.6-3.1s.1 0 .2.1c-.1-.1-.2-.1-.2-.1zm.8 0c0-.2.1-.1.1-.2 0 0-.2 0-.1.2zm.2-1.2h.2-.2zm.5-2.7c-1.6.3 1.3-.2 0 0-.4.1.4-.1 0 0zm.5-.5c.1 0 .2 0 0 0 0 0 .1 0 0 0zm.4.3c.1.1.1.2.2.2l-.2-.2zm1.3-.1c.1.1.1.1.2.1-.1.1-.2 0-.2-.1zm.7-.2c.1.1.1.1.2.1-.1 0-.2 0-.2-.1zm.6.1c-.9-.6 1.6 1.1 0 0-.2-.1.4.3 0 0zM1024.3 337.9c1.3-1.1.2 2.1 1.1 2.3.7-.2 1.3-.4 2-.5-.4-.4-.6-.9-.5-1.5 2.7-.9-.9 3.3-.8 3.2-.2.1 2.2-.9 2-1.3-1.1-1.6 0 8.9 0 3.8.7.6.8 1.3.3 2.1 4 2.1 2.8-8.2 3.6-9.1.1-.1-2.4-.7-2.4-1.9 1.7-.1 3.3-.5 4.8-1.2-.7 1-.1.4.4.6-.5.9-1.2 1.5-2.2 1.7.9 1.1 2 2 3.3 2.5-1.1-2.8 8.9-3.3 4-5.8 5.1-3.3 1.1 1.8 1.8 1.6.4-1 1-1.5 2-1.7.7.9 1.6 4.9 3.5 4.2 4.5-1.7.5-3.5.3-4.9-.1-.8 2 .3 2.5.2-.3.2-.6.5-.9.8.5.2 7.1-.1 6.1-.1 1-1.6 2.2-2.8 3.8-3.7-.4.8-.7 1.7-.7 2.7 4.7 0 2.4-9.9 4.5-12.3 4.9-5.7-2.6-12.9-2-14.2 1.1-2.8 8.2 1.2 9.4 2.1-1.6-1.2 7.1-7 8.5-6-.6-.4-1.9-3.9-1.5-3.7-4.6-1.5-7.2-2-12.2-4.5 0 2-4 10.2-4.3 8.5.9 7.3-3.5 21.9-12.1 21.9.1-.4 1.7-.7 1.4-1.4 1.9 4.4-22.5 13-25.7 15.6 1.5-1.2-.1.1 0 0zm37.1-29.7c2.8.2 1 .1 0 0 .6.1-.2 0 0 0zm1.2-3.9c.6-.5-.5.3 0 0 .1-.1-.1.1 0 0zm-11.6 27.9c.4-.4-.2.3 0 0 .1-.1 0 0 0 0zm-5.5-1.1c1.4-2 1-1.3 0 0 .3-.3-.1.2 0 0zm-8.6 2.6c.5.6.2.2 0 0 0 0-.1-.1 0 0zm-.3-4.2c.2.1.2 0 .2.2-.2 0-.3 0-.2-.2zm-.4 4.4c.1.2-.1-.5 0 0 .1 0 0-.1 0 0zm-.4-4.3h.4-.4c.1 0-.1.1 0 0zm-.8 4.5c0 .1 0 .1 0 0zm-6.7 9.2c1-.8-1 .7 0 0 0-.1-.2.1 0 0zM944.7 470.1c7.7 3.9-2.3-13.1-2.9-14.3-2-3.9-10.1-9.7-11.8-11 .9.7-16.4-16-18.5-11.4-1.4 3.4 14.3 17.8 17 20.8 3.6 4 11.9 22.3 16.2 15.9-.9-.5-.4.6 0 0zM975.1 480.2c-3-.8-9.5-11.3-14.4-6 .8-.9-18.3-2.2-16.3-.4.1 3.4 27.7 5.5 30.7 6.4 1.3.3.3.1 0 0zM1086.4 592.8c-2.9-1.4-8.9-3.6-12-2.3-2.1 1.7 2.3 5.2 2.8 6.6-1.1-2.7 1.6 4.4 1.6 4.4s8.7-4.2 7.4-4.5c.1-1.5.1-2.8.2-4.2M1100.4 549.5c.1 0-3.3-10.7-4.1-12.1-1-1.8-9.6-13-7.7-8.9 0-7-10.3-12.4-12.7-14.3-1.6-1.4-8.4-26.9-12.2-26.3-8.8 1.3 3.8 29.7-12.3 21.6-9-4.5-15.5-7.9-5.9-16-.8-.2-1.2-.7-1.3-1.5-.9.2-1.4.8-1.5 1.7-1.8.2-11.1-5.4-14.3-3.7 1.5.5 2.6 1.5 3.3 2.9-9.9.2-8 4.5-9.6 9.1-.2.7-3.1-1.8-.5 1.1-1-1.1-2.3-1.1-4.1-1.2.1 0-1.1 1.6-1.3 2.3 1.3-6.4-7.5-7.1-7.1-2.9 0-.1-1.7-.9-1-1.3-.2.1-3.9 6.1-4 5.6.5 0 .9-.2 1.1-.7-.3.7-.7 1.4-1.1 2 .5.2 1 .4 1.5.5-.8-.1-4.2-.3-4.6-.7 1 1-.7 1.8 1.7 3.1-.1.1-.2.2-.2.4-1.9.5-.1-2.7-.8.8-1.2-1-1.9-2.3-2.1-3.8-3.3.1-6 10.9-11.9 12.5-6.2 1.6-13.9 2-17.4 8.4.1-.8 0-1.6-.5-2.3-3.7 2.5-1.7 12.8.1 15.9-.9-1.5-1.1-1.1-1.8-3.3.4 1.3.6 2.6.7 3.9-.2-.4-.4-.5-.5-.2-.1-.7-.3-1.3-.7-1.9-.3 0 .5.8-.6.6 3.5 3.3 11.3 21.7 7.1 25.8-7.3 7.3 26 1.4 27.4 1.6 4.3-9.4 24-9.7 32-6 1.4.6 6.2 8.6 5.8 8.6 2.1-.1 9.2-2 8.7-7.4.3 0-.6 10.5-2.9 9.9.3-.3 4.8-4.1 4-4.1-5.6.1 19.3 28.3 21.9 15.4-.4 0-.8-.1-1.2-.2.6-.4 1.3-.7 2-.7.8.8.5 1.3-1 1.5 3-1.2 3.5 1.8 5.7 3-1.4-3.9 11.2-3.6 11.7-9.2 1.1-9.6 8.1-20.9 12.2-29.5m-131-16.8c.4.1-.8 1.6-.8 2.1-2.2-1 1.3-1.9.8-2.1m83.8 41.7c-2.6-.2-.3 0 0 0M1165.8 571.8c.5 0-14.5-1.4-10.4-4.4.5.9.6 1.7.3 2.7-2 .6-4-12.7-9.1-10.6-.3 2.9 5.7 7.5 5.5 6.8.9 2.3-1.7 17.5 1.1 19.5 7.6 4.7 10.8-14.1 12.6-14m-8.2 4.7c-.9 1.4.9-1.4 0 0M1152 584.9c-.4.1-.8.5-.9.6.7-.4.2-.5.7-.9-2.6 2.6-5.8-2.4-3.9-1.6-1.9 3.6-17.2 13.8-16.9 14.5-.3.4-3 6.2-3 6.1-1.7-.3-2.3.1-1.9 1.3 3.3-1.6 7.9 2.3 13.3-.5-.8.4 8.8-12.4 8.6-9.1-.4-.6-1-.8-1.8-.6 2.9 1 4.5-9.4 5.8-9.8"/><path d="M483.5 475.4c.9-10.8-19.7-12.3-26.6-15.5-4.3-2-32-10.2-27.2-20.9-.6 1.4-.7-.3-1.3-1.5 0 .1-.4.8-.4.8.8-1-2-2.6-2.3-3-6.3-6.2-4 1.8-7.3 1.8 4.1 0-4.6-10.1-8.4-3.8 1.7-4-10.6-10.4-14.2-9.8 7.8 0-4.1-5.5-4.3-6.7 1.3.4 2.3.2 3.1-.6-2 .1-5.7.8-7.7.5.6-.1 1.2 0 1.6.3-8 2.9-15-6.7-21.5-5.4-.6 2.4 1.4.8 1.6 2.1-5 0-5.1 1.6-3.8 4.4.5 1.2-2.6 2.9-3.4 3-1 .1 1.8-10.6 2.2-10.1-1.3-1.8-13 6.1-14.3 6.9-.3.2-2.8 6.6-4.3 7.1 1.2-.5-1.9-2.1-2.1-2.5-1.2-2.4-13.7-2-15.4-1 .3.9-.1-2.9-2.1-1.4-3.7 2.7 6.2 7.3 8 7.6-1.7-.2 4.1-4.1 7.7-3.6-1-.2 2.3 7.3 2.4 7.5 3.6 6.1-6.6 11.5-5.4 14.6 1.2.3-3.1 3.2-3.4 3.5-6.1 5.1-.3 9.5.4 11.8.3 1.1-4.6 2.5-3.9 5.7 1.2 6.3 5.9 12.1 9.3 17.4 2 3.2 3.7 6.9 5.8 9.9 0 5.5 8.3 8.3 11.2 11.8 2.8 3.3 8.8 3.7 9.4 8.7.8 6.4-.1 11.7-1 17.9-1.4 9.5-.8 21.1-2.9 29.8-.4 1.7-11.5 35-7.3 34.6-2.4.6-3.1 9.1 1.1 4.9.3-.3-.7-1.2-.8-1.3 1.4-.2.8-.8 1.8-1.4-.8.4-1.2-1.8-1.5-2.1.6-.1 1.2 0 1.7.3 0 0 .1-1.2-.1-.9 0 0 0 .1-.1.1-.5-1.1 2.7 1.8 2 2.9-.1-1.1-.5-1.2-1.1-.5.2 1-3 11.7-2.3 12 .5-.1 1-.2 1.5-.2-.1-.1-3.4 3.1-.4 2-.5.4-1.1.8-1.5 1.3-.9-.6-1.6-1.3-2.3-2.1-.1 0-1.3 3-2.3 1.5-.3.2.3 2.1 1.1 1-.1.2-3.5 3.5-2.7 3.2.7-.3 1.3-.9 1.9-1.7-.8-1.9 3.3 4.4 2.7 2.2 1.1 4.2-1.8.5.4 2.1 1.3.9-1.9.5-1.9.3-.5 4.4 3.2-.4 3.1-.4 1.4-.3-2.2 4.1 1.7.2-.3.3-1.1 1.9.2 1.8.5-.1-1.9-.1-1.4.3-.4-.4 1.5.1 1 .5-1.4 1.2-6.6-3.5-7.3-2-.1.1.8.8.6 1.3-.7-1.3-1.7 3.7-1.6 4.3 2.4-.4 5.9.3 3.4-4.9.8 1 .4 2.9 2.4 2.7-2.2.3-1 .8-.9 1.3-.2 2.1-5.5-.1-3 4.2 0-.1-1.2-1.6-1.4-1-.6.5.2 1 0 1.4 2.8-.4 0-.5 2.7-2.1 0 0-.3 2.7-.4 2.5 1.5 1.6 2.2-3.7 2.5-4 0-.1 1.4 1.4 1 1.5-1.2.1-.4-.1.2 1 .2-.3.3-.2.1.4-1.2.2-.8-.9-1.9.1 1.5-.5 0 .2 1 .6-1.6-.7-.6 1.5-.6 1.9-.1-1.2-.6-1.4-1.6-.7-.3.4 1.7 1.6 2 .8-.2.3-.3.7-.2 1-.3.2-2.9-.1-3.1.2 1.4.7-1.8 4.1-.6 4.5.4-.3.3-.8.5-.9-.5 1.1 3.4-1.1 3.1-.9-.2-.9-.5-.5.1-1.1-.4.3-.5 1.7-.7 1.7.6.6 1.4-1 1.8-1.2-.7.4.2 1.4.8 1.9-.6-.4-2.6-.7-1.3.4.2-.1-1.8-.2-1.1.3-.1.3 1.6.8 1.5.7.1.8-2.1-.3-2.3-.8.3.4 1.7 1.9 1.9 1.7-2.5-2.8-2.9-1.9-4.4.4 1-.1 1.6.2 2.4 1 .2-.1-.2-1.2.3-1.4.4.4 1.1 1.1 1.5 1.7-.7.2-.6.7-.7 1.3 1.8-.5 1.3-1.3 1.4-2.6.1-.2.6-1.4-.1-2.2 2.2.2.7 3.4.5 4.2.6.1 1.2-.3 1.8-.2.8.2-2 1.3-1.9 1.4.8.6 2 .6 2.9.9-3.5-1.3 6.8 5 7 4.5-.4.7-4.5 1-5.2.8 1.4.8 2.8 1.5 4.3 1.9-.9-.2-1.7-.3-2.6-.4 2.9-.3 1.5 1.8 5.4-.2 0 .7-.5 1-1.4.8.7 1.5 2 2.5 3.7 3-.1 0-.6-1.3-.1-1.8.7 1 1.8 1.6 3 1.7.8.1-1.7-2.5-.1-2.8-.8.2 3.2 1.7 3.3 1 .1-1.1 3.2-2.2 5.7-1.5-5.6-1-8-7-10.5-9.9-.7 3.9-1.3 10.1 4.4 8.5-12.7 3.3-1.3.2-4.4 1.3.3.2 3.8.2 3.7.1-1.6 1.1-3.1 1-4.3-.3.8 1-1.6-10.5-1.3-9.6 1.5-1.7 1.4-1 3.8-.5-6.1-1.5 2.1-17 5.2-16.6 0-2.9 6.3-2.9 2-6-1.5-1.1-5.2-2.1-4.2-4.9.5-1.2 6.6-4.8 6.6-4.3-2.2-.4 4-8.1 4-8.3-.9 0-1.7-.3-2.3-1 1.5-1.4 2.6.7 3.9.7-.4 0 1.9-3.1-1.5-1.6-.8-.4-3.4-1.6-3.2-3.3.7-6 4.9.3 7.1-1.5 0 .2 2.3-2.9 2.4-3.1 2.3-1 .1-4.6.4-5.8-1 4.5 15.8-3.9 15.8-3.9 4.3-6-.1-10-3.3-14.9 5.9 4.4 12.5 4.8 17.3-.4 4.9-5.3 21.3-22 15.4-29.8-.1-.5 9.9-5.1 10.6-5.4-1.8-1.4 11.1-4.5 12.2-5.5 10.3-9.5 6-21.5 9.3-32 1.4-5.5 12-8.9 12.6-18.2.1-.5 0 .1 0 0zM554.7 87.3c.9-.1.9-.1 0 0-.7.2.1 0 0 0zM584.4 87.4c-13.7-3.4-24.8.9-36.8 7.4.6-.2 9.1-2.4 9.2-3.7 0-1.3-15.7 3.5-15.4 3.8.5.5 3.4.1 3.8 0-.7.4-1.3.7-2 1-.1 0 4.9-6.3 6.1-6.7-4.7 1.2-10.2 2.4-15 1.6-.1 1.2 17.2.7 15.3-7-5.4 4.3-12 5.8-18.7 4.5.1 0 8.5-4.2 7.9-4.5-2.6-1.6-26.8 6.5-26.8 2.2 13.7-.7 27.3-2.9 40.5-6.5-3.9-.9-11.7-4.9-15.3-1.3 8.1-4.9-7.3-3.6-9.7-3.4-7.8.8-16.5 3.8-24.2 3.8 1.3 0 8.1-1 8.6-2.4.3-.8-4.2-1.2-5-1.5 9.9.6 20 .6 29.7-1 0-7.3-36.5 2.9-39.2.1 2.3 0 4.5.3 6.7.9-1.9.6-3.9.8-6 .7 1.4.1 2.8.2 4.3.3-1.8.3-3.5.4-5.3.3.8.4 1.5.9 2.3 1.4-3.6-.3-20.1-3.6-22.5-2.1 1.5.6 3.1 1 4.7 1.3-.3.1-7 1.8-6.5 3.1.9 2 19.1 1 19.7-.9.2-.4-7-.6-7.1-.6 1.3 0 2.1.5 2.4 1.6.1 3.1-7.6-1.8-6.8-1.3.8.4 1.2 1.1 1.2 1.9-2.7-.9-5.5-1.6-8.3-2.1 3.5 1.3 6.9 2.6 10.5 3.7-1.8-.1-6.6-1.7-8.1-.4 1.3.1 2.5.3 3.8.7-1.5.5-3 .8-4.5 1.1 1.2.4 2.4.6 3.6.5-5.8 4.2-18.3-.8-23.8-3.6 8 4.6 0 5 4.9 6.2-1 1.2-4.1-1.7-6.3 2.2-1.5 2.8-5.4-1.4-6.3-2.6-2.5-3.4-14.5-3.6-19.9-2.5 3.3-.7 7.1 3.9 9.7 5.3-3.9-2.3-10-2.5-12.8-4.5 1.5.6 8.2 5.8 9.5 4.9.2-.1-26.4-.8-17.1 4.1-4.9-2.8-3.2-3.6-2.4.6-2.9-5.7-10.4 2.3-13.1 4 .1-.1 13.1.2 12.8.5-1.7.8-3.5 1.1-5.4.9 5.8 1.1-25.1 14.1-25.4 12.7 2 6.1 10.1.7 12.4 4.6-1.2.5-2.4.9-3.6 1.1 1.8 1.4 13.5 1.9 13.2 1.5-.6-1-9.7.6-9.2.6 1.1.2 2.1.4 3.2.6-1.7-2.7-8.6.7-10.8 1 1.8-3.1 15.2 4.8 16.4 7.1-1.9-3.8 23.5 2.5 26.4 1.3-3.6 1.4 6.4 8 7.6 8.7-4.3-1.5 1 5.3 1.2 5.7 1.3 2.1 2.4 4.3 3.3 6.7.5 1.7-1.9 7.3-3.8 5 2.8 0 7.9.1 10.4-1.6-.5.5-1.1 1-1.7 1.4 0 .4 5 .8 5.3.1-.6.4-4.2 1.8-4.3 1.7.6.8 4.1-.3 5.3-.3-1.4 0-2.8 1.1-3.8 1.9 1-1.7 2.1-2 3.3-.7-.7.4-1.5.7-2.2.9 1.5-.2 2.9.1 4.2.7-1.1.1-2.1.1-3.2-.2.8-1.4 2-2.4 3.3-3.2 1.1-.2-.9 6.5-1.9 7.2-1.8 1.1 2.8-5.1 2.8-1.5-3.1.3-3 .5.4.6-3.1 0-13.8-4.6-14.7.8-.9 5.5 10.4 3.7 10.3 3.5-.1-1.2-4-3-5.1-3.3 3.5-.3 10.8 3.3 10.3 5-6.7.6-.7 2.5 0 3.1-1.4-1.3-3.4-1.2-3.4 1.3.7 0 1.3-.1 2-.3 1.6 0-8.1.3-8.1.2 1.9 1.4 5.6.2 7.8 1.3-1.6-.8.2 2.6-2 1.7.5.3 5.3 4 6.7 4-.1 0-7-5.5-6.7-2.6.3 2.4 2 3 4.8 1.7-1.1-.2-2 0-2.9.6.8.1 1.6.2 2.4.2-.2.2-7.9 5.8-9 4.2-1.1-1.6 8.2-9.8 8.2-2.2 0-.7-11.9-1.5-11.9.6 0-.7.7.9 2.3.8-.1 0-1.9.2-1.9.1 0-.4 4.7.9 5.3.8-5.4 1.5-1.1.6-1.1.5-1.4.2-2.1.9-2.2 2 .4.1 2.9-.5 2.8-1.1-1.4-.2-2.9-.1-4.3.5.2 1.2.8 1.6 1.9 1-.7.2-1.4.5-2 1 0-1.6 9.6-4 11-4 .2-.1-8.9 3.7-7.1 5.1 3.9 2.9 1.2-5.1-.5-3.4-2.2 2.2 4.5 19 7 4.4-.4 2-6.6-1.5-6.6 2.6 1.1 1.2 2.5 1.5 4.2.8-5.8 0 5.3.5 5.5 3.9-1.1-2-2.6-2.4-4.4-1.2 6.5 1.2-2.2 1.7-2.7 1.8 1.5 0 6.6 4 2.2 4.1 1.6-.8 2.5-.7 2.9.4-1 .5-2.7.2-3.8.1 7.5.6-1.1.9 5.1 1.2-1.6 0-.9 7.2 2 4.2-1.9 2 4.8 5.4.3 4.3.2 0 1.5-4.5 3.1-.7-1-.1-1.9.1-2.8.6 6-1.5 3.4 3-.6 3.4 2.3-.2 11.1.2 12.6-1.2-.7.7-3.8 1.2-2.5-1.2.1-.2 2.3 4.9-.2 2.6.7 1.3 1.6 1.8 2.7 1.5.3-.9-1.8-4.4-2.4-3.1-2 3.8 3.6 1.7 4.9 1.7-.8.8-1.3 1.8-1.7 2.8.2-.2 2-1.9 2.1-1.9-.1 0-1.8 3-2.2 2.3 2.3-.5 4.6-.7 6.9-.6-1.2-.3-3.5.7-3.5-2 0-.3 5.2-2.3 5.2-3.5-.7-.3-1.5-.5-2.2-.6 5.2-.8-.8.7 3.2-1.3-2.1-.4.3-.5-2.3-4.5.9.4 1.8.5 2.7.4-1.1-.5-2.3-1-3.3-1.6 0 .6 7.3.3 5-5.2l3.6.3c.2-1.3-3.1-4-3.3-2.8 2-3 2.9 1.3 4.6-3.8 1.2-3.8 4.5-10.9 9.6-7.1-.9.5-1.6 1.3-2.1 2.3 0-3.4 17.2-7.2 17.2-15.4 0 4.3 35.2-1.9 34.7-8.5-.1-2-21.3-1.1-21.3.3 0 .3 6.8-2.3 7.3-1.7.4 0-9.9-1.6-9.8-1.6 1.9-1.6 12.8-.2 12.7-3.9-3.1-.6-6.5-1.9-9.4-3.2 7 3.1 14.5 5.5 22.3 7.7 0 0-1.2-6.5-1.3-7.2.1.6-3.9.5-4 .5.6-.6 1.2-1 2-1.4-4.6 1.3-9.2.6-12.5-3.1 2 .2 3.9 0 5.8-.5.3-.2-9.5-2.9-9.5-2.5-.3 1-.1 1.7.6 2.2 1.4-.3 3.3-6.1 2.6-7.3-.6-.9-3.8 5.5-3.1 4.2.1-.8-.3-1.1-1.1-1 0-.4 4.6-.2 4.4-.8-.8.7-1.7 1.1-2.7 1.2.6-1.1 8.3-5.1 8.3-3-7.1-2.7 7.7 1.2 8-.8 0 .5-5 .4-5.7.3 2.6 1.3 10.5 1.4 12.4-1.4-3.6 2-6.4.9-7.3-3.2 0-.5 11.9-1.2 11.4-1.1.7-1.1-6.4-.8-6.8-1.2 2.8 1 .5-2.4 1.3-2.5-2.1 1.1-4.1.9-5.8-.8 0 2.2 6-.4 6.3.1-1.2-.3-5.7-2.1-6.5-2.7 0 .6 3.3.4 3.5.6-1.8.4-2.7 0-2.8-1.2 2.2-1.9 7.4 2.7 9.9.4 1.4-1.2-8.2-3.1-8.7-3.1 2.3 1.4 4.6 1.4 7-.1-1-.2-3.4-.7-4.2-1.4 1.5 1.2-4.9-3.3-5.3-2.7.7-.1 10.7-1.8 10.4-4.2-.1-.8-5.7-.6-5-1.2.6-.4 6.2-1.6 6.2-1.4-.5 0-10.8-.4-10.8-2.5 0-3 11.5-5.6 11.4-9.2-.1-1.8-2.7 1-2.7 1-.1 0 5.8-5.6 7.6-6.1-3.5 2.3-6.9 2.4-10.3.2 4.5-2.1 8.3-3.7 13.4-4.4-3.6 4.1-12.8-3.6-17-.4 3-2.5 25.8-9.5 29.5-8.1-2.1-.5-4.1-1-6.2-1.5 2 .4 4.3.8 6.2 1.5-14.3-3.6.6.2 0 0zM511.6 187c-.5 0 .3-.1 0 0-.1 0 0 0 0 0zm24.6-29.2c.2-.2-.1.1 0 0 .1 0 0 0 0 0zm21.6-41h.1-.1zm-3.9 5.2c.6 0-1.3-.1 0 0 .1 0 0 0 0 0zm2.9-26.9c-1.4.5.9-.4 0 0-.3.1.3-.1 0 0zm6.3-2.5c-.2 0 .3 0 0 0 0 0 .1 0 0 0zm.5-.6c-6.2 4.8-1.2.9 0 0-.2.1.2-.2 0 0zm2.9-1.1c-4.7 0-.2 0 0 0-.4 0 .4 0 0 0zM372.5 388.9c-1.7-.3-5.5-1-2.1-1.8-4-1.4-9.2-1.7-14-1.9 1.7 1.2 1.9 2.9 3.4 4.5-1.6.1-4.9-.2-4.5 0-.8-.1-1.5-.2-2.3-.3 1.8 3.6 6.5.4 9.8 3.6 1.7-3.8 6.3-3.1 9.5-1.8.3-.8.4-1.5.2-2.3zm-10.7-3.3"/><path d="M353.7 384.1c-3.5-7.4-10-6.4-14.9-8.3 1.3.9 2.6 1.7 3.9 2.6-3-1.4-7-3.3-9.2-4.7-3.1.3-11.8 1.9-15.1 4.5 2.9-.5 6.6-2.7 10.7-2.5-1.6 2.1 5.6 1.6 9.3 3.6 2.2 1 2.5 2.8 5.4 3-.2.3-.1.5.3.4-.6.7-1.3 1.4-1.9 2.1 3.8-.1 8-.2 11.5-.7zM341.5 393.3c1.6-.3 2.6-1.1 4.6-.3-3.3-3.1-8.1-2.4-13.3-2.7 3.4 2.1 7 3.4 8.7 3"/><path d="M169.6 249.2l-1.9 1.9 2-2.1s-.1.1-.1.2zM307.1 390h.2l-.5-.1c.1.1.2.1.3.1zM321.4 288c-.1-.1 0-.1.1-.2 0 0-.1.1-.1.2zM298.3 279c0 .1 0 0 0 0zM212.9 339.9zM277.6 364.2h.1l-.3.1c.1 0 .1-.1.2-.1zM422.7 280.2c-.5-1.7-1.1-.6-1.6.4.3-1 .5-1.9.8-2.9-.8.7-1.7 1.9-2.2 2.5-.2-.2-.4-.2-.4.1.5-1.3.2-2.3 2.2-4.5-.7 0-1.7.2-2.7.5.3-.9.3-1.4-.8-1.6l1.8-1.8c-2.2 0-2.8-1-3.3-1.2-1.2.7-1.6.9-2.7 1.5.5-2.2 0-.7-.6-.6.5-1-.2-.6-.7-.1.4-1.5-1.2-.6.6-2.5-2.1.6-2.1-.2-4.3.9 1.8-4 6.8-7.7 4.5-9.2 2 0 1.1-.3-.3-.7.7 0 .6-.1-.2-.4.8-.3 2.5.4.3-.7 1.9-2.1-.1-3.7-1-4-.9.4-2.8.5-3.4.7-.2-2.7 1.8-2.1-3.1-2.5.6.1 1.3.2 1.9.2-3 .6-6.1 2.2-8.3 3.2.9-1.7 5.2-4.1 7.1-4.6 1.4-.1 2.3.1 3-1-2.2-.2-1.9-1.3-2.2-1.5-3.4-.7-3.7-.7-7-.8.4-.4 1-.3 1.1-.9-2.5.8-2.4.3-3.1.5 1.1-.7 1.7-1.3 1-1.9-.1-.2-.3-.1-.1-1.4-1.2.2-1.5-.3-3.8-.2.6-.2 1.2-.3 1.8-.5-.3-.2-.2-.2.1-.3-1.2-.7-2.3-.4-3.6-.9.6.1 1.8.4 1-.3.2.4 1.5-.1-.9-.3-.4-.5.9-.3 1-.6-3.7-.9-1.3-.8-1.3-1.2-1.3-.6.7.2 2.7-.5-.3-.8-1.3-1.1-2.7-1.7.5.4.4-.9-1.7-1 2.7-1.2 1.3-1 3-1.4-2.1-1.5-1.1-1-3.2-1.1 2-1.6 0-.8-1.4-.9 1-.6 1.5-.2 1.7-.9-.6-.3-.6-.5 0-.6-.7-.1-1.4-.1-2-.2 1.5-2.4-.1-2.1-2.5-2.7l1.9-.7c-2.1-1.8-2.4-4.3-4.9-6.4-.6 2.4-.6 1.9-.3 3.6-.8-.1-.9-1-1.8-.2 0 1.7.9 1.2 2 2.2l-2.1-.6c.2.4.4.7.6 1.1-1.6-.4-1.5-.2 0 1.1-.7-.1-.8.1-.1.7-1-.8-1.6-1.1-.8.4-1.8-1.5-.8-.2.2 1-.9-.4-.6-1.1-1.8-1.1.9.9.3 1.2.5 2.1-1.9-1.2-5.1-.4-6.3.5-1.1-2.3-4.4-2.7-6.9-2.3.7.1.9-.2.5-.9 1.9 2 .8-.1 1.3-.5 1.4.2 1.4.1-.3-.3.8-1.5.1-3-2.8-4.1 3.1-.2 3.6-2.6 2.7-5.8-.8.8.2 1.2-1.4 1.6-2.7-1.7-5.8-5.1-9.4-5.5.1-3.5-3.9-3.1-5.8-1.4-16.6-4.7-5.1 2.7-13.4 7.7 3.1.3 4.3 1.8 4.4 4.1-1.1 1-1.5 2.3-1.4 2.2-5.5 2.9-1.9 4.8 1.4 8.3 6.4 6.8-2.3 11.1-7.8 14.5 1.9 2.4 4.4 10.2 2.3 14.5-1 .2-.7-.2-2.6.8-7.4-5.2-7.2-9-8.3-17.6-2-.4-6.8.5-9.7-.3-7.2-2-16-13.4-25.2-8.1 2.9-4.7-.5-10.9-5.1-8.8.9-6.9 2.4-14.1 2.6-16.3 1.1.1 1.4 1.2 2.1.1-.6-1.3 0 .1.3-.9-.3-.2-.7-.4-1-.7 1.6.4 1.2.3.9-.7 2.6 1.5 1.1-.4 1.2-.3l1.8.1c-1-1.1-1.3-.8.8-1.2-.6-.3-1.3-.5-1.9-.8 1.1-.3 2.2-.2 3.3.1 3.6-1.7 2.8-3.2-.8-4.6 3.6 1.5 5.5.6 5.6-2.4 4 2.4 6-1.8 9.9-5.2-3.8-1.2-7.7-2.5-11.5-3.7.7.1 3.4.7 1.7-.5 3.9 2.4 10 5.1 13.2-1.3-.9-.5-1.9-.9-2.8-1.4.4-.2 2.7-.7 4.3-.8-.9 5.4-1 10.2-4.4 14 1.4-.4 2.8-.9 4.2-1.3.3 6.2 7 2.2 6.9-.5-.1-2.1 8.7 2.4 11.3.9-.7-.3-2-1.6-2.5-2.1-1 .8-1.6.3-3.3.7.6-.4 1.3-.8 1.9-1.2-3.6-1.6-8.5-7.2-11.3-5.1-1-1.5-1.7-2.6-2.1-3.7 1 0 2.1.4 3.1.5-.8-.3-1-.7-.6-1.2.7.3 1.8.9 2.5 1.4-.6-1.1-.9-2.3-1.1-3.2 2 2.5 2.7 1.6 4 2.2-.5.2-.9.1-1.2-.3 7.2-2.6 5.1-6.6 4.1-10.6-.7-.2-.4.6-1 .2-.3-1 .3-.6 1-1 0 0-2.2-.4-2-.4 1.5-.4 2.9-.9 4.4-1.3-.2-1.9-.9-.5-1.5-1.5.1-.1 1.6-1.3 1.5-1-.9-.4-2.4-1-3.3-1.3.7-.5-1.2-.7-2.5-1.2 2 .3 3.3.9 5.1.9-.5-.5-1.6-1.2-.5-.4-.6-.1-1.1-.3-1.7-.4 0-.5.4-.7 1.2-.4-.8-.7-2.4-1-3.3-1.7 4.5 2 8 5 11.4 2.4-2.6-.7-5.4-1.7-8-2.1 3.2.5 6.4 1 9.5 1.5-.9-3.5-4.8-4.3-7.4-4.9 4.5 1.2 10 .8 11.2 5.6 1.6-1 1.5-.1 2.6.3-.8 1.1.3.5 1.4-.2.2.3.3 2.8 2.7 3.8l-3.3.6c-.3 5.5 2.7 10.9 10.7 4.8-1.2-.3-3.4-.6-3.9-.7 0-.7 0-1.4.1-2.1 1.9 1 1.4-.5 1.4-.4 3.1 2.8 8 6.6 3.4 11.1l2.7.6c-4.5-.7-8.4 1.9-4.5 6.3-3.5 0-16.2-1.7-15.4 4.1.5 3.3 6.3 2.1 9 2-.6.4-.5-.8-.6-.9 2.8 0 2.7.2 4.3-.3 3.2 2.4 5.2 3.1 9.7 5.1-1.8.3-1-.2-.5.5-2.7-.4-.8.6-.9.6 7.3 2.1 12.2 5.9 19.7 7.5-.5-.7-.4-1.2.3-1.5-4.6-3.3-6.3-4.6-10-8.2 1.4.6 2.8 1.3 4.2 1.9-.2-.6-.4-1.2-.6-1.7 3.4 3.2 6.3 3.9 9.3 6.4.1-.3-.8-1.6-1-2 .9-.4 1.4 1.3 2 .1-.3-.8-1.5-3.6-1.9-4.5.9.7 1.3 1.4 1.7 2.3.9-1.7-.1-3.5-2.8-5.1.8-1.3 1 .5 1.1-1.3-.9-.9-1 .1-2.1-1.8-.6.1-.6.4 0 .9-.7-1-.9-.4-1.9 0-.2-.7 1-1.2-.8-2v1.5c-1.2-2.7-.4-1-2.4-3.1.4-1.4.4-.2.6-1.7-1 .4-1.2.1-2.4.8.9-1.8.1-1.6-1.1-2.3-.1-.4.7-1-1.1-1.6 3 1.9 2.2.9 4.8 1.7-.3-.3-.2-.6.1-.8-.9-.9-1.8-1.8-2.8-2.6.9.5 1.3.7 2.6 1.2.2-1.5-.5-.8-1.2-1.6 1.1.4 2.3.9 1.4-.4 1.4 2.3 3 3.2 5.5 1.8-.5.7-1.1 1.5-1.6 2.2 1.4-.8 3.6-1.3 4.7-1.9-1.1 1-2.2 2.1-3.4 3.1.1.1 1.5.6 1.8.1-.4.3-.8.7-1.1 1 .5-.1 1.1-.2 1.6-.2-.3.3-.7.6-1 .9.6 0 1.3.1 1.9.1-1.2 2-.4.7.8 0 .8 1.5.7 1.9 2.2 2.9.9-3.5 1-3.2.6-5.3.9.5 1.8 1 2.7 1.4-.3.3-.5-1.2-.5-1 .5.1 1 .1 1.5.2.1-1.3-.7-.6-1.4-1.2h2.7c-.6-.4-1.2-.8-1.9-1.2.4 0 .8.1 1.2.1-.6 0-1-1.1-1.2-1.2 1.9.9 1.2.3 3.2.5-.3-.6-1.4-1.3-1.5-1.8 1.1-.6 1.8 1.9 2.1-.3-3.2-1.9-2.3-2-4.9-.2-.9-2-1-.7-1.9.2 0-1.3-.3-1.3-.6-.4.6-1.2 1.6-1.9 2-3.1-.8 0-2-.1-2.6-.1.4.2 1.5.4 1.1.9-1-.3-2.6-.1-3.9.3.8-.2 1.6-.3 2.2-.8-.9.1-1.8.1-2.7.2 1.7-.2 1.7-.3 0-.7.8-.1 2.1 0 3 .1-.3-.4-.2-.8.4-1.1-1.5-.6-3.1-1.5-4.2-1.9-.1-.2 1.1-.3 1.1-.3-1-.4-2.3-1-3.4-1.6.1.3-.8 1.5.8 1-.9.2-1.1.2-1.5.9.1-.5-.1-1 .2-1.5-.6 1-.9.7-2 .4.4-.5-.8-1-2.8-1.8 1 .1 1.6.3 2.4-.2-2.3.3-2.1-.4-2.7-.6 1-.2 1.6.1 1.7-.5-1.9.1-3.9.2-5.8.3l.7-.3h-1.5c.7 0 2.4-.1 2.8-.3-1.5-.4-3-.7-4.4-1.1 2.3.4 4.6.6 4.7 0 1-.3 1.7 1 1.5-.4-.9-.1-1.7-.3-2.6-.4.2-.4.4-.4.6 0 .5 0 1-.1 1.4-.1-1.8-1.2-2.4-.4-4.2 0 .8-.4 1.9-.8.3-1.2h2.7l-4-.1h8.7l-10.6-1.8c3-.3 5.9-.6 8.9-.9-.9-1.2-1.9-2.3-2.8-3.5-1.5 1.8-4.2 1.7-6.3 3.3 1.6-.8 3.3-1.6 4.5-2.8-1.8.5-3.6 1.1-5.4 1.6.7-.4 4.8-3 6.1-3.9-3.8-1.2-3.6 0-5.5.6-1-.2-.2-1.3-1.2.1-.5-1.9.7-1.4 2.1-2.1-1.5 1.1-3.4 1.8-5 2.7-.2-.1-.4-.3-1.4-.6 1.2-.8 2.5-2.7 3.5-3.6-1.9 1-4.2 1.3-6.3 2.6.6-.3 2.5-2.8 4.4-4.1-3.4-2.7-5.9-1.6-7.3 2.1.2-.6.2-1.3.8-2-.1 0-2.3.8-1.9 1.2.1-1.8 1.5-1.3.3-2.8-.5.7-1.1 1.4-1.6 2.1.8-1.5.1-1.3 1.9-3-2.9 1.3-1.3-.4-3.7 2.4-1.1-1-.3-1.1.2-2-3.8 1 .1-.6 1.6-1.2-3-.7-1.6-1.3-5.1-.1.1-.3.9-.8 1.5-1.1l-3.6 1c1.6-.6 3-1.6 4.5-2.4-1.8-2.6-2.8-1-4.9-.4 1.1-2.8-3.6-1.6-6.9-1 1.6.8 3.3 1.7 4.9 2.3-1.6-.5-4.3-.5-5.8-.9 1.8 1.2 3.9 4.7 1.8 2.2.8-.4-.5-.2-2.1-.8.4.4.8.9 1.2 1.3-1.9-2.4-2.4-2.4-5.4-4.2.5.7.9 1.5 1.4 2.2-2 .7-2.9 1-4.2.7.7-.7 1.3-.3 1.9-2.6-.6.6-1.5.5-1.9.4 7.2-5.2-4.4-9-9.8-7 1.2.6 1.4 1.1 2.8 2-1.4-.4-6.9-2.3-3.5-.7-1.6 0-2.1-.8-3.4.3 2 .8 4 1.8 6.1 2.3-2.4-.6-5.4-1.2-7.3-.9 1.4.2 2.5.9 3.6 1.3-1.3-.3-2.5-.6-3.8-.8-.9 2.8.4 1.7 1.8 2.4-2.8.5-.5 1.6 1.2 2.4 2.9.1-3 0-4.5-.3.7.3 1.5.5 2.2.8-.2.1-.3.2-.2.4-.6.1-1.2.2-1.7.4 1.7 1 3.6 2.7 5 3.3-14-2.2.3-11-1.8-14.7-1.4-2.4-13.8 3.4-13.7 6.3-5.4 5.1-2.2 10.1 6.2 11-2.2-.5-4.8-.2-7.1-.3.9 1.3 4.2 4.4 4.2 4.5 4.9-.8 9.1 1.6 10.4 5.4-1.4.5-1.3.1.5.6-1.5-.3-2.1-.9-.6.3-.9.3-.1.6 1 1-2.9-.1-10.3 16.2-11.3 2.5.3 0 1.2-.1 1.7-.3-1.8-4.4-5.4-6.8-6.6-2-.3 1-1.1 1.9-2.2 1.9.6-1.7-.2-3.4-2.8-5.2.9-.2 1.1-.1.7.3.6-.8 1.4-1.3 2.3-1.4-1.7-.3-3.1-.1-2.8-1.1-2.6.7-2 .7-4.6-.3.8-.5 1.6-1.1 2.4-1.6-.5-.7-1.1-.8-1.7-.2.9-.3 1.6-.6 3-.5-.4-.7-1.6-1.6-2-2.4.2.4.4.5.8.4-1.5-.8-2-1.5-3-2.1.2-1.7-3.6-9-4.7-9.8 8.3 1.9 9-4.5 13.2-7.5-3.1-.1-5.8-.7-7.8-1.3 2.7-.4 2.5-.2 4 .1.2-1.3-.7-.5 1-1.5.1.3-.4.8-.5 1.1 2.8 1 5.3.9 6.1-.9.6.1.8.5.7 1.2.4-.7.8-1.2 1-1.6h.1c0 1.1.4.6.1 2.5 1.6.3 2.8-.3 4-.2-.7 0 1.8.5 2.3.4-.8.7-.6-.7-.6-.8 2.2.4.3.9 2.1 0 1.5.1 7.6 1.6 8.6-1.8 2.1 2.4 11.6 4.2 10.3-.1.1 0 .2 0 .1-.1 1 .3 2.2.2 3.5.4-1.1-.3-1.7-.7-3.3-.8.4-.2 2.6-1.3 2.9-1.7-1-1.1-.1-.7-3-1.3-.2-.1 1.5-.4 1.4-.4-.5 0-.6 0-.3-.2-1.4-.2-2.7-.4-4.1-.6 5.9-2.4 12.1-7.7 3.2-5.1.4-.2.9-.5 1.3-.7-1.5-1.4-2.5-.5-4.6.1-.2-1.2-2.8-1.4-5.8-1.4.7-.1 2.4-.1 3.2-.2-1.5-1-2.1-.5-2.5-2.2 3.6 3.6 10.4 3 13.8.5-.9-.7-1.2-1-2.3-2 4.5-.8 7.5.8 9.2-2.5-1.6 0-2.7-.3-4.3-.5 2-.1 4.1-.5 6.1-.8-1.7-.9-3.2-1-5.4-1.2 2.2.3 4.7-.4 6.9-.5-.6-2.6-4-3.8-8.3-3.7 1.2-.1 2.4-.2 3.5-.3-1.7-.2-3.8-.5-5.8-.5 4.4-.1 6.9.5 11.1 1-1.8-1.1-.5-.6-.1-1.3-3.5-.4-6.6-.5-10.1-.3.5-1.1-.8-.2-1.7.5.8-1.2.9-1.9 2.9-1.1-.1 0-.7-.9-.7-1 1.4.2 3.1.4 5 .8-1.1-.3-3.5-1.3-4.1-1.4 1.2.3 3.2.5 4.3.7 1.5.3 2.4 1.2 2.9-.5 2.8.6 3-.4 5.8-.1-1.2-.9-2.5-2.2-5.2-2.4 1.1 0 2.2 0 3.2-.1-.1.4 1.2.3 2.7.3 1.3.4 4.4 1.1 6.8-.5-.6 0-1.2-.1-1.8-.1.5-.2 2.5-.8 2.8-1.5-2.2.3-4.6 0-6.8.3-.1-.4 1-.3 1.3-.4-.6-.3-1.1-.6-1.7-.8 1.1.3 5.3.4 4.7.3 1.3-.3 2.4 0 3.5-.6-1.5-1-1.5-1.5-2.9-2.5 3.2 3.6 17.8-4.2 21.1-7.6-4.3 1.2-9.1-.3-14.1.3 1.4 1.2-2.2-2.1-2-1.8 3.9 1.7 8.7.6 13.7-.1-.6 0-1.5.1-2.4.1 3.4-.6 21-4.4 12.4-5.9-1.7-.1-2.9 0-4.6.4 2.1-1.6.3-2-1.8-2.2 1.3-.3 1.4-.2 1.9-.6-.8-.1-5.2-.7-4.1-.6.3-.2-1.5-.1-1.3-.1.6.6 1-.2-.4.4.5-.1.7 0 .7.3-1.1-.3-.8-.5-.7.4-3.4-.8-7.6.5-10.5.5 2.7-.5 5.2-1.4 7.4-2.4-3 .4-5.3.1-8.2-.1-1.1-.1-2.1-.1-3.1.1.1-.6.4-.5.5-1.1-2.2-.2-4.2-.1-5.9.2.4.3 1.6.9 2 1.2-3-1.3-5.7-2.1-9-.4 1.5.9 2.1 1.3 3.6 1.9-.4-.1-.5 0-.1.2-.1 0-.1.1-.1.1-5.2-3.5-10-3.3-15.7-2.7 1.6 1.1 3 1.4 4.5 1.9-.3-.5-.6 1 1.8 1.4-.4 0-.5.1-.5.3.5-.1-1.3.3-1.4.4-.2-.7.4-.4.6-.3-2.6-2-6.4-3.2-7-2-2.5-.6-3.8-.5-7.3-.8 0 .2-.1.2-.4.1.7.2 1.5.4 2.2.6-.1.2-1 .3-1.1.2 1.7.9 3.3 1 5.1 1-1.7.2-3.3.1-5-.1.4 0 .6.1.6.4-1.7-.5-3.4-.7-5.5-1.4 1.4.7 2.1 1.3 3.2 1.7-.3 0-.4.2-.1.4-2.6-.6-3.7-.5-5.7-.5.9.4 2 .6 2.7.9-1.4.2-3 .7-3.9.9 2.8 1 5.2 2.3 7.1 2.8-2.6-.6-6-1.2-8-1.5 1.1.4 2.4 1.1 3.8 1.6-1.1.1-3 0-4.2-.2 0 0 1-.5.7-.6-2.8-.9-5.3-1.9-7.7-2.1.5 0 .9-.1 1.4-.1-1.5-.3-1.8-.1-3.4-.3.2.1.2.1.2 0 .6.7 1.1.4 1.4 1.1-1.5.1-3.8.9-5 1 2.8.4 5.6 1.5 7.6 2.4-.8-.3-2.4-2.2-.8 0-1.1-.3-1.8-.8-3-1 0 .1 1.1.8 1.1 1.2-2.2-.9-3.1-1-5.2-1.5.4.4.2.4-.5.5-.1.1 1.4.6 1.4.6-2.1-1.5-4.8-1.8-7.8-.7-.1.6.8.5.6 1.2-.7-.1-.5-.9-1.7-.7 0 .1.4-.1.2.9-3.2-1-.5.1-1.2.6-3-.9-5.5-.7-6.9.2.3.3 0 .4-.7.5 3.1.1 5.4-1 8-.1-1.7.3-5.4.6-3 1.8 2.6-.7 7.2-1.8 10.4-.7-2.1-.3-3.3 0-5.5.1 0 .2.5.2.6.2-1.2.2-2.7.5-4 1 1.1.2 2.2.4 3.2.6-1.7.4-3 .6-4.5.6 3.2 3.4 13.8-.8 18.4-.8-5.2 1-10.4 1.9-15.6 2.9 5.9 4.3 16.5-.5 23.3-1.9-2.5 1.4-9.2 3-14.2 4.3 1.7.5 1.9.3 3.7.1.2 1.9 5 .5 8-1.6-1.3 2.5 2.6.9 4.8.2-1.8.6-3.6 1.1-4.9 2.1 3.5-.5 11.8-1.1 11.2-4.3 3.1-.9 7.1-2.2 9.8-2.4-2.4.9-5.3 2.8-6.9 3.9 3.8-.3 8.9-.8 12-.5-5.1.9-10.2 1.8-15.3 2.6l5.9.2c-.8.6-3.1-.1-.6.8-5.2.6-10.4 1.1-15.6 1.7 3.6 1.6 7.2 3.2 10.9 4.8-2.2-.5-21.7-5.9-22.2-3.7-.6 2.9 1.5 2.7 4 3.1-2-.6-3.4-.5-3.7.6-.8.4.1.6.8.7-1.1-.3-1.7-.1-1.9.6-.5-.3-1.7-.2-2.1-.2 3-2.7.1-1.4-.2-1.9 2.1-3.7-7.3-.1-6.5-5.1-.9-.2-1.9-.4-2.8-.5 0 .5 1 .3 1 1-5.6-2.1-8.1-8.9-14.7-7.3 1.5.3 2.7.6 4.3.8-.4.2-.4.3-.1.4-1.1.3-2.4.7-4.1.9 2.7-.4-3.7.8-3.3.3-1.4 1.5 1.2-.1 1.1.6l-1.6.3c2.5.4.9.6 4 .9-.3.4-.1.4.7.2.1.2-1.1.1-1.3.2.2.1 1.8 1 2.2 1.3-2 .4-4.9.4-7.5.1l2.4.9s-.6.1-.4.1c-3.3-.4-1 .9-.5.5l-3 .1 4.4.6-1.5.4c1.7-.1 3.1.2 4.9 0-2.7.3-.6 1.1-.8 1.5-3.2-.3-6.5.3-6.5.3-.1-.2-1.5.5.6 1.1-1.5-.2-.7 0-2.1 0 3 1.4 5 2 7.9.7-1.2.4-3.3 1.5-4.5 1.9.1.5 1.8 1 1.8 1.1 0 0 .4.4 0 .5 1.1 0 2.5.5 3.6.7-1.6-2.8 0 .1-1.1-.9 0 0 2-.3 2.4-.5 1.1-2.6-1.7 1.7-1.2.9 1.3-.3 7.9-1.8 4.8-.9l5.1-.1c-1.2.4-2.3.6-3.5.6 0 0-1.4.2-1.8.5 2.6.2 5.3.2 7.9 0-4.6.8-8.8.3-13 2.1 1.4.6 2.8 1.3 4.3 1.9-.2 0-1.9 0-2.6-.1 1.9.6 4.5 1.7 7.4 1.8-2 .2-3 .2-4.6.3.4.3.8.5 1.1.8-7.8 1.7-7.6-12.3-16.2-7.1-2.1-4.1-8.5-5.4-10.5-1.4 1.1 0 2.2.1 3.3.1-.3.6-.6 1.1-.9 1.7 1.5-.6 2.3-.6 3.5-.9-.3.4-.6.9-1 1.3.9.1 2.3-.4 3 .2-.7.4-1.4.8-2.1 1.1 1.5.3 1.4-.6 1.9.8-1.7-.1-3.4 0-5.1-.1 2.6 1.5 3.5 1.9 7.4 1.5-.6.3-1.1.7-1.7 1 5.9-.9 8.1 2.5 14.4 3.8 5 1.1 5.8-2.1 11.9-.6.8-.5-1.7-.9-1.6-.9.3-.1.4-.1.4.1 1.8 0 2.6.5 4 1-.8-.9-1.6-2.6-1.9-3 1.3 1 2.5 2 3.8 3 1-2 .7-1.8.4-3.3.9.3 1.3.7 2.5.8.1-.3.1-2.7-1.2-1.2.3-.9 1.1-2.4 2-3.3-.1 1.5.2 2.1.3 3.4.7-1.1 1.6-2.2 2.2-3.1 1.9.2 4.4-.8 7.1-1.5-.7-.7-1.4-1.5-2.1-2.2 2.8 2.8 4 3.8 6.9 4.7-1.4-.3-4.9.2-4.1.3-3.3.1-12 1.1-8.7 4.9-.8 1.8 2.2.7 4.9 0-.5.6-1.5.5-2.1 1.2 2.5-.9 3.6-.9 5.6-3.2-1 1.6.2 1.1.3 1.3-2.3 1.5-.1 1.4 1.7 1.3-1.4.2-2.3-.2-3.4.5.1-.2 2.3.2 2.2.2l-4.2.9c.5-.1.7.1.7.4 1.3-.1 2.6-.1 3.8-.2.1 0-2.6.5-1.6.1-.6.1-1.3.2-1.9.3.4.1.8.1 1.4 0-.8-.4-.9 1-1 1.2.5-.1 2.4-.6 2.6-.6-.5.5-2.4 1.3-3.4 1.7 4.2.6 7.9-1.1 10.2-3.4-.8 1.3-3.6 3.7-3.8 4.7-.5-.1-4.7-.7-2.8 0-3.4-1.4-7.4-5.7-11.9-3.6-1.8.8 1.6 3.4 3.6 3.5-.7.1-2.4.9-.1.6-2.5.7 0 .5.6.5-.3.3-1 .3-2.5.3-1.9.4-6.5 1.7-10 .5 1.4-.1 2.4.1 3.7.3-2.9-2-7.5-1.7-10.1.5 3.3-5-9.3-4.3-10.7-3.7-.6.1-2.8.3-1.1.8-1.2.5-1.6.1-1.6 1.7-3.4-2.1-2.2-.6-6.2-.4 1 .4 1.9.7 2.9 1.1-.7-.1-.6-.2-1.4.2 1.2.3 2.5.7 3.7 1-.9.4-1.1.4-.7.1.1-.1-2.3 0-2.3 0 .6.4 1.3.8 1.9 1.2-2.5-.1-6.4 1.2-5.4 1-2.2-.3-3.3-1-4.3-2 1-1.1.5-1 2-2.3l-3.9-1.8c-.2-.4-1.1 2-.7 1.7h1.7c-1.4 1.3-3.1 1.9-5 2.2l5.9.2c-1.4.3-2.7.6-4.1 1 .5 1 1 .4 2 .5 0-.2 1.3-.6 2.6-.7l-2.7 1.6 3.9-.9c-.2 1.4-.4.7-1.5 1.2h.3c-.5.8-2.6-.3-.6 1.4 3.3-.4 6.6-.9 9.8-1.3-1.7 1-2.6 1.9-3.3 2.3l.1-.1c0 .1.4.3 1.5.4-.3.8-.1.3-1.2.8 2.5 1.6 5.4 1.6 8.5.5-.3-1.8-.1-.6-.7-1.6 1.7-.3 1.2 0 .7-1 1 .3.8.3 2.2.8-1.1-1.8-.3-1.3-2-2.4 0-.5.7-3.7.8-4.6.7.3 1 0 1.8-.2-.2 1.3-.8 1.8 2.6 2-.5.1-1.4.2-2 .2 3.7.3 8-.7 9.8 1.7 4.7 6.1-7.8 1.6-5.2 4.3l-.6.2c.2 0-1.2-.4.1.3-.7.2-.8.3-.1.3-1.3.6-1.7 0-2.2 1.7 1.8.6-.1-.1 1.8-.1.5 1.1 1.6 1.4 2 1.4.9.4 1.9.2.5 1.3-1.3 0-4 .7-5.1 1 1.2 1.3.7.5 2.4.8-9.4 1.2 2.3 9.8-4.9 11.8 2.2-3.6-1.6-3.2-5.6-5 .6-.4 4.1-2.7 4.2-2.8-.7.7-1.4-.3-1.5-.4 1.2-.4 1.7-.1 2.5-1-4.3-.5-9.7-1.4-10.3-.6-2 .1-5-.6-2.6 1.5-1 .2-1.9.5-2.9.7 1.3.3 4 1.6 5.6 1.8-.6-.2-1.1-.4-1.7-.6-.2.5-.3.9-.5 1.4 2.2 1 .8.3.7.4-.6 1-10.7.2-6.3 3.2 3 2.1 9.8 8.5 13.9 6.1-.3-1.1-.9-.4-.9-1.7 7.2.7 1.7 4.4 5.3 7.3 3.3 2.7 7.9.9 7.5 4.6.5.2-.1-.9-1.4-1.4-.7 1.2-.7 1.9-1.3 3.2.8 0 3-1.2 2.9-1.1 1.7 4.8-8.1 3.8-5 9.6-1.9-.6-.4.3-3.1 0 1.1-2.3-.4-.7-1.3-1 2.1-1.3 2.7-3 2-4.7 1-.7 1.6-.9 2.8-1.6-2.3-.8-1.1-1-2.9-2.2-.1.5-.2.9-.4 1.4-1.7-1.9-4.6-2.7-6.4-4.6-.3.4-.7.7-1 1.1.4.3.7.7 1.1 1-.5-.2-1.1-.4-1.6-.6-1.2 1.2-.1 1.9-3.4 3.3 1.9.6 3.7 1.9 5.1 2.3-2.9-1.7-.7.6-.9.9 0 0-2.1-.4-.3 1.6-6.6-.5-14.4-2-20.1-1.4-.6-.4-2-2.1-4-4.7 1 .8 1.9.7 2.4.6-.1 1.9 7.4-.1 10.8-.5-1 0-1.3-.4-.7-1.1-1.9.3-2.8 1-4.1 1.3-.3-1.8-.2-1.5-.8-3 1 .2 2 .3 3 .5.7-1.3 2.7-1.4 5.2-.8-.6-2.5-8.1-6.3-6.5-4.6-2.9-4.5-5.7-9-8.6-13.6 1.2-.7 1.3-2.3 3.4-4.4-3.4-.9-6.8-.6-8.7 1.6-1-.4-2-.8-3-1.1-1.3 3.1 2.5 8.5.7 10.8-1.7-3.3-2.8-8.2-9.7-8.2l2.9 1.7c0-.1-1.9-.4 0 1.3-1-.2-1.6-1.3-.4.3-3.3-.1-3.8.1-6.8 1.4 1.1-.9 2.2-1.8 3.2-2.6-4.4-3.8-8.2-.6-11.6.2 3.5-5.6 11.1-5.8 16.9-6.9 2.7-.5 5.6-.2 7.6-3.2 2.2-3.2-2.9-6.1-4.2-1.6-1.2-.5-2.1-.7-3.7-1-.2-2.3.9.1-1-1.6.7-2.7-.6-2.8-1.6-5.3-1.9.7-4.3 2.3-5.2 3.7 1.4.5 2.1.9 3.5 1.2-.4.1-.4.2 0 .3-.9.4-1.7.8-2.6 1.2 2.4.9 3.1 2.1 3.8 2.6-7.7 1.4-13.1-4.7-20.9-6.5-.1-1.2-.1-2.5 0-4.1 5-1.5 1.7-.4 2.1-2.3.7 0 1.4-.1 2-.1-.6-.4-1.1-.7-1.7-1.1 4.1-.3 10.1.7 12.1-2.5-.9-.1-1.9-.3-2.8-.4.8-.2 4.2-1.8 4.4-1.8-.7-.1-1.4-.3-2.2-.4 1.5-.2 2.4.4 3-1.1-4.1-3.7-9.9-2-12.9 1.3 2 0 3.9.1 5.9 0-2.7 1.2-4.8.3-5.9 2.7 0 .1-1.8-.8-2-.9l1.8-.9c-3-1.4-2-1.6-5.4-.8 1.1.8 1.9.9 3 1.6.1-.1-2.1 1-2.1.7.5.3.9.6 1.4.9-7 1.9-13.7 4.7-20.6 8.3.1-.5 2.7-.4 0 .3 2.1 1 2.5 1.3 6.4.3.3.7.1 1.2-.6 1.5.1-.5 1.7-1.9 1.7-2.8 1.8 3 3.8 2.8 3.9-.6 4.1 1.2 2.3-2.1 5.9-3.4l-.6 3c1 .1 2 .3 3.1.4-1.8.7-3.2 2.3-4.9 3.1 1.8.4 3.8 1.1 5.7 1.1-1.7.2-3.5.6-5.2.9 1.1.2 1.1.6-.2.9 2 .1 4 .4 6 .4-2.6.3-6 .9-7.8 1.7 2.4-.1 4.8-.1 7.1-.4-8.6 1-15.3 2.1-24.4 1.9.9.9 1.4 3.4 1.1 2.8.8.2 1.6.5 2.4.7-2.1 1.9-.6.3-.8 2-.7.9-2 2-2.6 2.7.5.2 1.1.3 1.6.5-.9.2-1.7.5-2.6.7-.6 1.8-1 3.6-2.5 5.8 6.3.5 18.6 9 19.1-1.6.5.1 1 .1 1.5.2-1.4 3.6.9 1.9 3.5 2.1-.5.6.9.9-1.6 1.2 1 .5 2.3-.1 2.2 0 1.4 0 4.7.2 6.8-.1-.8.1-1.5.2-2.3.3-.1.2-3.6 1.6-6.7 2.1 3.3 4.5 18 3.3 22.5 4.5-5.9.5-12.9 1.4-19.4 2.1 1.5 2.2 2.6 2.8 5 3.8-1.3-.1-1.9 0-.4.7-10.6-2.5-19.8-4.5-27.7-3.4.6-.5 1.2-.9 1.8-1.4-1.2-1.4-1.6-.9-2.2-3.1-1 .6-.9.7-2.1 1-.1.7-.7 2.7-.8 4.1-3.4-2.4-5.6-4.4-8.7-7.2-1.3 1.5.4.6.5 1-1.6-.7 1.4 1.3 1.3 1.2-1.6.9-3.1 2-4.7 3 0-1-.7.2.1-1.5-3.1 1.7-5.8 3.9-7.2 2.5.1.9-.1.8-.7-.1.2.9-.8.8-2.2.7 1.2-.6-2.2 1.4-2.9 1.8 1.3-1.2 5.7-2.4 6.6-2.6.9-.6 3.2-2.4 4.9-3.5-.6-.2-1.1-.4-1.7-.6-5.5 1.3-9.2 3.3-14.2 5.8.5-.5.9-1 1.4-1.6-1 .2-1.8.2-2.4-.6-.8 1.3 0 .7-1.2 2.2-1.9-1.1-2.1-.4-2.3.6-1.5-1.8-.3.7 1 1.4-6.2 1.4-17.4-4.6-24.5-5.4-6.2-.8-12.1-2.4-17.9-3.4-2.2-.4-16.6-.7-12.8-1.5-.6-.7-2.1.2-.6-1.3-4.9-.2-10.2-2.1-10.1-.1-.2 0-2.1 0-2.4.1.2-.3.1-.5-.3-.5.7-.5 1.2.2 1.8-.8-1.2-.4-2.8-1.7-2.9-1.7-4.2 1.5-8.4 2.7-12.2 4.5.4.4 1.3.3 1.8.7-1.2 1-1.4.7-1.5-.2-5.9.7-17.6 6.3-22.9 12.6 3.7 2.3 7.4 4.5 11.1 6.8l-.5-.1c2.4 1 4.7 1.4 7.4 1.5-1.3 2.1 1.7 2.4 4.2 2.8-2.9.4-5.4-.5-7.5-2.9 0 .2-.2.4-.4.4 2.5 2.1 3.2 2.7 5.1 3.8-.9.2-1.7.7-2.7 1.1-1.1 0-5.3-.7-6.8-1.2.4-1.6.6-1.4 1.2-1.9-2.7.4-4.9.8-4.8.3-1.3.4-3.7 1.1-1.6 1.9-3-.2-5.7 1-7.2 3.2 1.8.5 3.5 1.2 5.3 1.5-1 .7-1.9.9-2.6 0 .4.5 1.3 2.4 1.3 2.4 3.7 1.7 7 2.3 11.2 2.3-.1-.5-.7-.9-.4-1.2.9.2 1 .9 1.5 1.7 2.5-2.4 3.7-2 6.2-2.7-.9.9-.8.8-2.1 1.8 5 4.2-1.7 5.4-5.5 7.2-3.5 1.7-2.9-.4-6 3.2-1.8 2.2-2.9 3.4-3.9 4.5.4-.1.8-.3 1.3-.4.8 1 1.4 2.1 1.6 2.2-.4 2.4 1.7 1.1-.4 3.5 1.7 1.9 8.1 5.8 9.9.8 1.7 4.1 2.9 6.2.9 8.6 3.5-1.7 7.4-2.6 10.4 1.1.1-.4 1.4-2.3 1.6-3.1 0 0 3.1.6 4.9.6-1.2 5.4-11.1 12.9-10.9 14.9-2-.1-1.8-.4-1.9-.7-1.9 1-6.7 3.2-7 3.4-.7.9-1.5.5-1.2 1.9 1.6-.8.1-.2.6-1.1 1.3 1 1.3.3 2-.1l-.2.4c.8-.3 2.1-.7 4.2-2.7-.2.4-.3.7-.5 1.1 3-1.5 5.2-2.2 6-.9 2.2-1.5 4.2-2.2 4-3.9.8-.2 1.5-.4 2.3-.7-.1-.5-.4-.5-.9-.3 1.2-.2.7-.4 2-.1 4.1-3.4 9.6-6.2 13.9-10.9-1-.4-2.1-.9-3.1-1.3 2.4-3.7 3.9-2 4.5-5.6 3.7-2.6 6.4-5.3 11.1-6.4-.6.5-1.2 1.1-1.8 1.6l2.7 1.8c-2.4-.4-5.1.7-7.5.6-.3.8-1.3 3.8-1.5 4.8 1.7 1.2 1.3-.4 2.8-.2-1.1.8-2.3 1.6-3.4 2.3 2.9-.1 3 .4 4.9-1.3-.2 0 1.3 1.1.6 1.1 1.1-1.3.8-1.4 1-2.3.3.3.7.6 1 .9.4-1.8 0-.9 1.1-2.2.1.4.2.8.4 1.2 1.7-.7 2.4-.8 4.9-.9-.3-.2-1.6-.5-1.4-.4.2-1.8.6-1.1-.6-2.7l1.2-1.8c.6 2.7.6.5 1.5-.8.7 2.1 2.2 1.9 4 .3-.6.9-.9 1.2-1.7 1.6 2.7 0 .7.9.7.9 1.5.4 1.5-.2 3.2.3-1.2.4-2.3.7-3.5 1.1 1.7-.3 4.4-.1 6.5-.6 1.1 2.8 7.5 3.1 10.9 1.5 1.4.6 3.6 1.3 6.4 1.1-1.2 3.7 8 8.5 11.5 7.4-.5-.9-1.5-1.9-2-2.7 2.1 1.1.8.3 2 .1 1.2 3.3.8 1.6 3.2 3.7-.4-1.8-.5-4.4-1-5.5 2 4.1 4.9 10.7 4.1 11.3.1-.4-.5 1.8.1 3.7-.1-.8.1-.9.5-.3.2-.8.1-1.5.3-2.4 2.4-.4 1.2.9 2.2-.5 1.4.7 2.1.9 3.4 1.9-1.8-.1-.8 0-3.1-.5-.5.6-1 2-1.6 2.4.7 0 .9-.5 1.9-.1-.4.2-.9.4-1.3.6.3-.1.5 0 .4.4.8 1.6 1.4-.9.4 1.9 1.2.6 1.7 1.6 2.6 2.7-.4-.7.5-.9-1.2-1.8.4.2.4-.1-.1-.7 1.5.8 1.6 1 3.5 2.3.4 0-.4-1.5.2-1.4.2.8 0 1.2 1 1.8-.3-1.9.5-1.5 1.4-3.1.7 1.7-.5 2.7.8 3.9.7-.4 1.5-.8 2.2-1.3-1.8 2.9-.8 5.3 2.4 7.3.6-.8 0-1 1-1.5-.4 3.5.6 3.7 1 6.4 2.5.2 2 .3 4.4 0-1.5 2-2.3 3.5-.2 2.7-.7.7-1.7 1.6-.1 1.5-1.8.6-.1 1-2.6 1 .9 1.4 1.5.9 2.9 1.2-.1.3-1.1.5-1 1.6 3.1.6 3.7 1 4.8 3.3 1.9.4 2.1 1.2 4.8 1.4 1.1 1.8 3.7 3.1 5.4 1.5-.1-.2-.3-2.2-.4-2.8 1.1 2.8.8 2 2.7 4.3-1 1.2 0 .1 0 2.4-.2-.8-.2-1.1-.2-1.5-.2-1.4.2.8.3.8 0-.3-.1 2.7-1.6 4.2.3-1.1.7-2.2 1-3.4l-1.8 2.1c.9-1.1 1.5-1.9 1.2-3.1-.7-.2-5-1-6.6-.9.7 2 1 4.5 2.1 6.3 1.1-2.3.3 0-.1 1.2 1.6-.2.5.2.2.3.1 1 .8 1.2 1.7 1.1-3.4 3.1 1.1 33.7 3.8 31.8 0 .2.7 2.5.3 2.2-.1-.9-.3-1-.7-.5 1.7 3.5 2.4 5.4 5.4 8.8 2.3 2.5 4.4 2.5 8.1 5.6 4.1 3.4 18.4 20.4 10.9 22 2.2 2 4.4 3 6.6 4.4 4.1 2.8 1.2 5.1 4.1 7.6 7.3 6.2 9.6 3.2 5.1.7-2.4-4.6-16.3-20.9-14.7-25.8 1.7-5.3 11.8 11.4 13 12.9 3 3.7 4.5 7.8 8.3 11.7 3.2 3.3 7.8 6.7 10.2 10.6 1.3 2-1.8 2.6-.2 4.4 10.6 11.1 28.2 14.2 42.8 19.6l5.6 2.3h-.1s1.7.6 1.6.5c2.5 1.1 6 1.5 8 .8.2.6 2.1 1.3.1 1.6 4.9 5.1 5.6 7.4 8.6 11.3 1.6-1.6-.9-1.1-.4-1.7 3 2.6 5.5 5.1 5.9 4.9 2.1.4 2.5-.9 2.9-3-1.2-1.4-2.3-3.5-3.7-4.6.2-13.5 5.9-12.4-7.8-17.4-.9.2-5.1.9-7.2 1.1.3.2-1.6-1.1-1.3-.9-.2.1.3 1.5-1.1 0 2.5-3.5 2.1-6.9 2.9-9.9.3.9 0 1.4.5 2.3 1.9-5.1.1-4.9 3.6-11.2-9.3-2.2-13 7.8-21.5 10.1-7 1.9-9.3-6.3-13.2-11.8-2.9-4.1-.3-9.3.5-14-.3-7.1 3.1-8.7 8.5-12.6h-.1c6.6-.9 12.9-.4 17 2.2.5-.3 1-.6 1.6-1-.6-.6-1.2-1.3-1.9-1.9.2.6 1.3-1.4 1.3-1.6-.6.1-1.7.3-1.9.3 3.1-1.2 6.7-2.8 5.7-.8 1.3-.4 4.5-1.7 2.7-.4l3.3-.3c.6 1.5 2.9 2.9 5.4 2.2-2.4-.9 2.3.2 5.1 2.5 1.3 1 1.5 3.5.9 5.6.1-.3 0-1.2.3-1.3.3.7.5.6.9.4 0 1.7-.1 1.8.5 3.9 0 0 .7-.8.7-.7-.5 2.2 1.6 5.9 5.5 5.8-.5.5-1 1.1-1.5 1.6l2-2.2c-.2-.1.1-.7.2-.8-.4-2.5-1.2-7.2-1.5-8.5v-1l.1.6c-.1-1.3-.2-2.5-.5-.5-2-9.4-2.9-9.4 4.5-15.5 4.4-3.6 8.5-7 12.7-9.9-2.5 1.6-2.7.5-4.8.9 1.4-.2 2-.6.3-1.4 1.6 0 2.5.9 3.6-1.8-.9.1-1.2.3-3-.2 1.6 0 1.8-.4 2.9-.2-.2-.9-.4-1.8-.5-2.7l1.5 5.1c-.2-4-2-4.4-3.6-6.3-1.4-1.7.9-.1 1.1.1.1-.5-1.4-1.7 0-1 .1-.9-.4-.9-1.1-1.6.4.3.5.4 1.1.4 0-1.2-1-2.4-2.5-3.2.7.6 1.5 1.2 2.3 1.6 0-3.9.1-3.6.8-5.8-.9 2.6.1 2.4.1 3.7.2 1.3.9 2.2.3 5.5 1.6-1.7 2.2-3.8 3-5.7v.1c-.4-1.2-1-2.5-1.6-3.8 1.6.6 1.5 1.8 1.9 2.5l3.2-5.8c-1.5-.8.8-.7 2.6-.7l-.9.1c1.8-.4 3.5-1.1 5.2-1.6-.4 0-1.5.3-2 .5-.3 0 .7-.7.8-.7-1.4.3-3.4.7-5 1.1 2.3-.7 6.3-2.2 8-3.6 0 .5.5.3.7.3-.4.2-.5.5-.5.8.7 0 1.3-.8 2.2-1 0 0-.2 1.4 2.1.8.1-1.2-.7-1.8-.8-2.3-.1.1.5.9.3 0-1 .7.7.7.4 1.2-7.9-2 2-8.5 4.1-11 .2 1.4.4.9.5.9.8 0 2.9-.7 5.8-2.5-.3-.3-.9.6-.8-.8.3.4.4.3.3-.1 2.9 0 5-2.2 8.9-2.6-.6.5-1.3 1.1-1.9 1.6 1.6 0 3.4.4 5 .1-3.4.1-6.4 1.5-9.6 4.1.6.3 1-.5.9 2.8.2.1.3-.8 1.2.9 4.4-3.2 5.6-4.3 15.4-7.8-.6-.1-1.1-.2-1.7-.2 1.8-.4 3.8-1.6 5.5-2.2-.7-.4-.6-.4 0-.9-.6-.6-2.2-.2-2.7-.3.5-1.5.8-2 .7-3.2-1.2 1.8-2.9 3.1-3.5 5.5-3.3-.3-7.4-.7-7.7-1.8-1.8-.9-2.8 0-3-2.2 2.9 1.9 5.5 3.5 7.9.6-3.6.9-6.3.5-6.6-2.4-.4.6-.9 1.1-1.3 1.7-1.4-1 .6-1.4-2.1-1.7l3-3.9c-1.9 1.2-3.2 1.7-6.5-.3 2.4-.1 4.8-1.6 7.3-1.9-.3-.5-.7-1-1-1.4 0 2.1-16.4 6.5-21 8.1 4.8-5.3 10.2-9.3 14.4-13.8 4.7.9 10.4 2.6 14.8 2.3-1.3-.7-2.5-1.4-3.8-2.2 5.1.7 12.4.4 13.9-3.5.4-.2 3.4-1.2 4.4-1.7-2 1.8-3.6 6.3-3.6 7.5.3.4.4.9-.9 0-1.1 1-.9 3.3-1.9 1.9-.2-.1-1.1 1-1 1 .9 0 1.8 0 2.7-.1-1.4.9-2.3 2.9-2.9 3.6 3.7-.1 7.4-.1 11.1-.2-.4.7.7-.1-.9.7 1.6.2 1 .3 2 .4.7-1.7 1.1-.7 2.9-1.2-1.3 1.1-2.8 2-4.2 3 1.3-.4 5.8-2.5 4.5-1.5.6-.7 1.2-1.4 1.9-2.1-.2 2.3.6 1.8-.5 4.2 1.2 0 1.2-1.2 2.1-1.4-.4.8-.6 1.4 0 1.1 1.6 1.6 2.8-1 3.7-3.6zM308 284.9c-.3-.5-.7-.4-1.2.4.7-1.3 1.5-2.2 2.6-2.6-3.5 1.3-7.5 2.8-10.7 3.5-1.3-.7 1.6-1.9-3.8-.8 3.6-2.2 8.6-5.3 10.7-7.1-.4.1-.5.4-.3.8.5-.8.9-1.6 1.4-2.4.6.4.6.9.2 1.5.8-.2 1.8-1 2.9-1.2-.7-.2-1.4-.4-2.2-.6 3.5-.7 7.9 2.6 11.1 4 .5 1.7 1 4.2.8 6-2.9-.4-7.7-.1-11.5-1.5zm15.5 11.5c-.5 1.1-1.2 1.1-1.7 0 5.4-4.9-3.2-10.2-5.4-3.8-2.9-1.2-4.2 9.7-5.2 13.7-4.2-4.3-.9-9.7.3-15-.9 1.8-1.8 1.6-3.1 3.1 1.5-2.9 2.5-4.6 4.5-5.3 1.1.1 7-.6 9.4-.9-.3-.2-.4-.2-.4.1 4.3-1.2 13 .3 12.6 5.3-1.7-.8-3.9-1-5.6-2.4 1.9 4.1-1.6 10-4.5 12.3 2.5-1.8 4-7.7-.9-7.1zm14.4 4.7c-2.8 2.1-14.8 9.2-13.4 2.6 2.8-.2 13.3-4.3 13.4-2.6zm9.2-4.8c-1.6 2-5.9 1.9-9.4 2.4-.3-.4.6 1.4.6 1.2-.7-1.6-1.1-.4-2.7-.9 3.5-1.2 9.6-4.3 11.5-2.7zM675.6 264.9zM677.1 194.6s.2.1 0 0zM677.2 195c0 .1 0 .1 0 0zM626.5 250.3c.4.1 0 0 0 0s.1 0 0 0zM628.9 250.9c-.2.2.4-.6 0 0 0 0 0-.1 0 0zM1024.2 327.4c-6.1-14.2-2.4-5.1-8.5-3.1-.6.2-3.6.4-1.6 1.9 2.3-1.9.5 6.8-1.2 4.8 1.2 1.5 1 1.2 1 1.3.1 0 3.5 2.9 3.4.1-.3.1-.5.4-.6.7.3.4.6.5 1 .3-.1-2.2 2.8-.7 4.3-1.2.1 0 0-.8 0-.9-.1-.1-.7.4-1 .3.9-1.3 2.9-1.6 3.2-4.2-1-2.4-.1.7 0 0zM867.6 428c.3-4.4-5.8-6.5-6.6-8.4-.1-.3.5 1.7 1.8.8-2.3 1.7-.3 1.7-1.9 4.9-.2-.4-.3-.8-.2-1.2-3.9 4.9 6.3 12.2 6.9 3.9.3-4.4 0 .2 0 0zM822.7 371.3c.1 0 .1 0 .2-.1-.1.1-.2.1-.2.1zM823.1 371.1c.1-.1.1-.1 0 0-.3.2.1 0 0 0zM891.3 378c.1-.9.1-.9 0 0zM933.4 432c0 .2-.2.1-.3.4.1-.4.3-.2.3-.4zM931.7 432c1.2-1 .2-.2 0 0 .1-.1-.2.1 0 0zM930.7 431.8c-.4.4-.3.4-.1.6-.2-.2-.3-.2.1-.6zM929 429.9c1.3.9-.5-.4 0 0 .5.3 0-.1 0 0zM928.6 429.8c-.1 0-.3 0-.4-.3.2.3.3.3.4.3zM927.7 429.6v.1-.1zM1007.8 312.1v-.1.1zM1016.4 305.8c-.4-.2.3-.7 0 0-.3-.1 0-.1 0 0zM1016.7 306.2c-.4-.1.2-.5 0 0-.2-.1 0-.1 0 0zM1020.4 305.6c-.1 0-.1-.1-.2-.2l.2.2zM1030.2 297.9c.1 0 .2.1.2.2-.1-.1-.2-.1-.2-.2zM1037.7 288.8v-.1.1zM1039 286.3l-.1-.1c.1 0 .1 0 .1.1zM1041.1 280.2c-.1 0-.2-.1-.2-.2.1 0 .2.1.2.2-.1 0 0-.1 0 0zM1041 278.3c.4.3.4.3 0 0 .1 0 0 .1 0 0zM1041.3 280.5c.2.2.2.2 0 0 .1 0 0 0 0 0zM604 256.9c0-.2-9-4.8-7.8-5.2.9-.3 1.6-.1 2.3.5-4.4-3.8-4.6-10.9-11.8-11.2 2.5.1 3.6-3.4 1-1.9 9.6-5.1-2.1-8.5-3.5-5.3 2.2-1.5 2.2-2 .1-1.7 1.5-1 2.8-2.3 3.9-3.8-7.6 0-5 3.8-9.2 3.8-.4 1.1-.2 1.9.6 2.4-1 .5-3.9-3.2-3.9-.4 0 .9 2.4 1.3 2.5 2 .5.1 1.3-.5 1.6-.4-.8.2-.7.4.1.6-.8.5-1.6.9-2.4 1.3 1.9-.2 2.2 0 .8.5l2.7-.3c-.5.5-1.3 6.2-1.9 6.4 2-.8-.2-3.3 1.7-3.9-2.1.6 1.7.8 1.9.8-.5 0-1.9 4.8-1.4 5.5 1.4 1.9 4.2-1.8 6.3-.8-4.2-1.4 1.1 5.9.9 3.6 0 .6-2 4.2.2 3.9-2.4.3.2-2.6-6.2-.2 0 .2-.3 1.4-.3 2.3 6.8-1-1.9 3.3-1.9 4.1 3.5.7 5 2 9 1-2.4.6-10.2 3.7-10.3 6.7 0-2.3 24.7-2.5 23.7-5.7-.7 0-1.3.2-1.9.7.1-.7-.2-.8-1-.5 1.7-1.4 3.1-3 4.2-4.8"/><path d="M577.7 250c-2.1-1.2-2.9-5.5-6.2-2.2 1.2-2.3 1-1.4-.8.1 1.5-1.3-3.8.7-3.9 1.6 5.8 1-3.8 1.4-4.4 1.9.4.9 1.7 1-.3 1.2 4.9-.3.1 1.6 0 2.1.4.6 3.4 2 4.2 1 0 0-3.3 2.6-3.3 3.2 1.3 0 2.6-.1 3.9-.3-2.5.1-3.8 2.6-5.6 2.3.6-.3 1.1-.3 1.5.2l-1.5.6c.6.7 1.4.8 2.3.3 0 .7-3.2 1.8.7.8-1 .7-1.3.7-.9-.1.3.5.3.9 0 1.1 1.1 0 11.4-2.9 11.4-3.2 0-1.8 1.6-12.2 2.9-10.6-1.4-.8 0 0 0 0zM553.3 199.7c.3-.1-1.5-4.9-4-3.2-.5-.3-1.7-3.4 1-3.4.1-.4-10.9.7-12.3.9 0 .9.2 1.8.6 2.6-1.2-.4-2.1-1.2-2.7-2.3-4.2.1.1 1.6-4.8.2.2 1.1.1 2.1-.2 3.2-.1.2-2.4-.6-2.1 1.7-.8-5.1-4.5-3.7-6.8-6.6-.1 0 2.1.9 2.4.9-.7 0-1.3.1-1.9.2.9.2 1.6.7 2 1.6-.5-.5-4-1.4-4.7-.8.2-.2 0 1.5 1 2-1.7-.1-1.9-.7-3.3.9.6 1.2 7.5 0 8.8.5-1 .3-1.9.8-2.7 1.5.7.9 1.7.8 3.1-.3 0 .1-6.8 2.5-7.5 2.1 2.2 1.5 6 2.1 8.2 2.4-2.1-.3-1.2 2.2-3.9 1.2-.2 9.2 28.2-2.1 29.8-5.3m-32.5-2.9c.2-.2.2-.2 0 0m21.2 9.5c.4.1.4.1 0 0"/><path d="M1224.5 194c-.7-.9-8.6-4.6-10.7-4.8 0-1 1.6 3.5-1.3 1.2-.2-1 .1-1.4 1.1-1.2-.5-.8-5.4-1-5.3-.2.2 2.1 1.9 2.5 3 3.8-.1-.2-1.7.3-2.6.3 1.4-2.7-2.7-6.2-2.6-6 0-.5.2-.7.7-.6-.6-1.1-1.5-1.7-2.8-1.7.1.3.3.6.6.8-.8-.1-1.5-.3-2.3-.5.6-.2 1-.5 1.4-1 0 .2-5.3-2.9-3.5-1.6-.3-.9-5.3.3-5.3-2.9 1.2 1 2.5 1.7 4 2.2.4-.3-8.9-3.8-9.3-4.1.3-.1.6 0 .9.2-.4-.4-6.4-2.9-2.6-1.9-10.7-1.6-18.5-5.4-28.6-4.8 2.3-.2-1.1 2.9-1.1 3.1 3-.7 3.7 4.4.4 4.4-3.7 0-5.3-2.7-7.6-5.1 1.9 1.5 3.6 1.3 5-.7 0 .1-24.5 3.7-26.5 3.2-.2-1 .3-1.7 1.2-2.1-4.5 1.7.1 3.1-1.9 4.5-.1.1-7.2-14-10-11.5.3-.2-18.3-1.2-21.5-1.2 0-2.1-6.6-4-9-3.9.6-1.6 3.9-.1 3.9-1.4-.2-7-14 .8-16.7 1.6.2-.6.2-1.2 0-1.8 1.3.1 4.4-2.3 3 .3 1.5-.5 2.6-1.4 3.3-2.8-.8 0-9 1.2-8.8.3 2.6.4 5.9.2 8.5-.4-5.6 1.1-15.5-7.3-20.4-3.4.2.5.6.9 1 1.2 0-.1-8 2.7-5.6 3.8 1-.2 2-.3 3-.5-.9.6-1.9 1.1-3 1.4.8.7 1.5 1.6 2 2.5-2.4-.9-4.7-.5-6.7 1.1.6 1.4 2.2.1.4.6.3.2.6.3 1 .2-2.1-1.1-19.1-1.8-18.1-4.3-2.9 0-4.1 6-6.9 6.4-.9.1-9.4-5.3-3.8-4.9-.4-.7-1-1.2-1.6-1.7.2.4.3.8.3 1.2-1.8-.8-3.2-2-4.4-3.6 2.8 1.3 3.2.9 5.8.7-2.7.2 5.5-2.9-2.4-.3.3-.5.7-.8 1.3-.9-.7-.2-1.5-.3-2.2-.3.9-.7 1.9-1.3 2.9-1.8-.8-.6-1.6-.7-2.5-.2.5-.7 1-1.4 1.5-2-1.3-1.1-4.2-1.8-5.1-1.8.1 0 .6-.9 1-.8-1.1-.3-13.8-3.1-9.7-2.8-3-.3-6.6 4.9-9.4 5.7.3-.3 1.7.8 1.6.8-.7-.2-16.8 1.2-11.9-3.6-1.2 1.1-18.4-4.3-17.9-.1.4.8 1 1.2 1.9 1-1.4.4-2.1 1.3-2 2.8.5.3-1.1-3.2-1.5-2.2 4 2.3-.4-4.7-.4-4.8.7.7-4.7 3.7-5.5-.1.4 0 1.2.3 1.2-.4-2.5-.2-4.7.3-6.9 1.5-1.2 1.4 4 .5 4.4.5.1 2.3-19.5 3.7-12.7 5.9-2.6.5-8.3 3.4-10.4 2.8 1.7.5 10.8-7.1 10.7-7.3-.8-.3-1.6-.5-2.4-.6-.8 1.1 15.3-5.7 10.8-4.4 3.2-.9 13.2-3 13.9-7.2.3-2.1-4.2-.1-4.5-2.4 1.4-.4 2.5 0 3.3 1.3 3.4-3.2-4.6-5.9-2.6-6.2-1 .4-2 1-3 1.6.6-.3.8-.6.4-1 .8-.1 1.6-.3 2.3-.7.5-1.3-2.6 2.5-.7-.4-1.5.4-2.3 1-3.8.6 2 .5-1.9-1.5-3.1-1.3-1.4 1.1-6.5-1.4-7.5.3.4 0 .8-.1 1-.5-.5-.1-4.5 3-5 1.6.4 0 .7.3.9.7-.5 1.3-1.9-2.6-2.3-1 1.3-.7 2.6-1.5 3.7-2.5-3.3 0-6.4 1.4-5.2-1-.3.5-5.4.7-6 .3-.1.1 9-1.5 7.3-2.9-6.4-5.4-14.5 5.2-18.1 4.2.5.6 1.1 1 1.9 1.2-.4.4-1 .6-1.5.6 1.1.8 2.4 1.2 3.9 1.1-.8-.9-10.6-1.6-10.9-.6.7 1.1 1.7 1.7 3.1 1.6-1.1.1-6.2-.1-6.2.8 2.5 0-3 1.1-4.6 1.5 2.5-3.4-.5-.2-2.7.2 1.4-1.3 3.1-2.2 5-2.6-1.3 0-13.1 3-14.4 2-.2-.1 4.7.8 4.7.4.1.9-23.1 1.8-24.3 5.3 1 .2 1.9.4 2.9.7-1.8 0-4.1 4-5.8 1.2.2.6-.1 1-.9 1.2 1.8.1 3.4.7 4.8 1.8-.7-.3-2.9-.2-4-.3.9.6 1.8 1.2 2.7 1.9-.5 0-1.1.1-1.6.2 2.5.8 4.3 1.8 6.6 2.9-1.2-.5-10.1.5-6.5 2.2-1 .1-1.7-.3-2.3-1.2.3.5 3.8-2.8 4.8-2.5-4-1.4-19.8 0-21.3 2.7-3.8 6.8 7 5.9 10.1 11.6-.6.7-1.4 1-2.3.8-2.2-7.3-12.9.4-18.1-3.6 1-.4 1.9-.2 2.6.6.1.4-6.6.1-7.4.3-.8.3 8.7 4.5 7.8 5.7-.4.6-8.4-1.9-9.3-2.2-3-1.2 1.2-7-.8-9.5-1.3-1.7-4.7 10.3-7.7 9.2 2.3.9 5.6 7.5 1.5 8.5-.9.2-5.6-9-5.3-9.5 7.8-11.4-6.3-4.7-8-7.9 0 0-9.3 12.1-9.3 12.3 3.8-1 .5 7.7 1 7.9 2.4-1.9 9 3.7 4.2 6-2.9 1.4-4.7-6.1-7.8-3.8.8.3 1.6.6 2.4.8-1-1.2-6.3-3.4-6.7-.2.1-.1 1.1-2.2 1.4-2-1-.5-15-3.5-15.3-2.2-.3 1.6 3 4.1 2.7 5.1-.2.4-6.5 2.3-6.5 2.3.1-1.1.3-2.2.7-3.2 0-.2-6.2.9-6.9 1.5 2.2.3-9.2 3.6-11.5 4.5 3-1.2 0-1.6-1.5-1.7 3.8.2-.8-4.7 4-4.4-1.2-.1-7.4.6-7.4 2.3 3.1.1 1 1.4 0 1.5-1.7-.3-12.8 3.6-11.1 3.6-5.8 0-7.7 9.1-13.1 1.3 1.9-.8 3.9-1.5 5.9-2-.1-6.7-9-1.4-11.1-4.5 1 1.5 6.9 14.9 2.4 14.9.9-2.5-8.9-.7-8.7-.7-6.8 3-2.8 1.9-3.1 7.1-5.4 1.1-7.5-2.4-11.6-.8-.2 1.8.8 3.1 3.2 3.7-4.1 0-9.1.8-10-3.9-1.2-6-2.3-2.8-5.9-8.4 1.3-1.3-2.1-2.7-2.2-2.9 6 4.8 29.4 10.2 28.4-3-1.1-10-29.5-6.1-29.1-12.3.3 0 4.3 1.4 3.1-.2-2.1-2.6-11.4 3.6-14.4-2.3 2.7-.2 5.4-.7 8.1-1.4 0 0-4.8-1.6-3.4-1.4-2.5-.3-6.8 2.3-6.9-.6.1 1.7.2.6.3-.5-.1 1.3 1.4-.5 1.4-1.1-1.5.1-2.9 0-4.3-.3-.5-.4.9 2 1.3 1.4-2.4-.8-1.1 2.6-3 2.2-.6-1.1-.6-2.2 0-3.3-2.8.3-2.8 5.2-5.2 5.4 0-.2 2.4-5.2 2.5-4.9-.7 0-1.3-.2-1.9-.5-.3.5-3.6.3-3.6 1.1.6.1 1.1.4 1.4 1-1.5-.5-1.7-.2-.9.9 0-2.7-4.4-1-5.1.3-.2 1 3.3-.5 3.6-.5.1 0-4.7 3.4-1.4 2.8 0 .9-3.6-1.5-3.7-.2.8.1 1.3-.3 1.3-1-1.8-.6-3.5-.5-5.3.2.8.7 1.7.9 2.7.6-.8.3-.3 1.7.3 2.2-5.4-.9-1.8-.7-6.4 1.9.7-1.1.8-2.2.4-3.4 0 1.3-3.1 5-1.7.9-2.8.4-3.1 1.5-.8 3.2-1-.9-2.2-1.4-3.5-1.5.3.5.6.9 1.1 1.2-1.5.5-8-3.7-6.6 1.4 3-.2 3.6-1.8 3.1-.6-1.6 3.6-3.5.1-6.1 3.3 0-.7.1-1.4.2-2.1-3.9 0-3.4 2.6-2.8 1.3-1.9 3.8 1.2-1.3 1.5.4 0 0-3.7 2.6-4.3 2.8 1.9-.7 2-1.6 1.3 0-.1-.8 3-1.4 2.9-1.7-.2.3-.5.5-.8.7.8-.3 9.2-2.1 8.4-.4-.2.5-4.9.5-5.4.2 1.1.6.8 1.4.1 2.1 2.3-2.6-5.8-.1-2.2.2-1.1-.4-2-.2-2.9.6.6.2.6.6 0 1 1-.3 2-.4 3-.5-.6-.1-1.1.2-1.5.8.6.4 1.3.6 2.1.4 0-.1-5 .5-4.9 1.5.5.1 1 0 1.5-.1.2.6-4.6 1.7-4.5 2.4.1 1.6-1.5 1-1.5 1.2-.5 1.6 2.2 2.4 2.2 2.4-1.8-.1-3.2.6-4.1 2.2 1-1 2-1.1 2.9-.1.6-1.3-2.7.5-2.5.4 2.1-1.6-1.7 1.9-1.6 2.9.5-.2 1-.4 1.5-.5-.1.3-.1.6.1 1-.8-1.1-4.9 1.8-6 1.7 0 0 3.4 0 3.6.2-1.8.2-.7.6-2 .8 1 .8 1.1 2.5.4 2 0 0-4.5-4-4.5 1 .3.2.6.2.8 0 .3.5-1.5 1.8-1.7 1.9.6-.4 1.2-.5 1.9-.4-.7.1-.9.5-.6 1.2.5.5 5-2.5 4.9-1.4 0-.4-1.9 1.7-1.9 1.7-.6 2.1-4.5-.7-5.1-.6-.9.1-1.9 1.6-1.8 2-.8-.5-1.7-.6-2.7-.2.9.4 1.5 1 1.8 2-.4-.6-1-1-1.7-1.2.7.7 1.4 1.4 2 2.2-.1.1-5.8-4.9-6-.9 1.5.2 3.1.4 4.6.5.3.6-6.9-.1-7.1.9.4.1 4.9 1.2 4.7 1.6-.8-.2-1.4.1-1.8.8.1-1.1-.4-1.6-1.5-1.5.7 2.4 1 .9-.7.1-2.3-1 1 2.5.8 1.5-.7-.1-1.4-.1-2.1.1-.7 1.1.9-2.6.7-1.7-1.5-.4-2 .1-1.7 1.6 0-.2-1.5-1-1.5-.9 1-.4-.8 2.6-.9 2.3-.2-.7 6.9-.9 6.8-.3-1-.3-1.5-.1-1.6.9-1.3-1.6-6.2-.8-5.1 1.6 2.3-.1-.3 2.1-.5 2.2.6-.2 7.5-1.7 7.1-2.8-2 3.3 2.6-.6 3.2-.8-.4.7-.9 1.2-1.5 1.6.6.2 1.1.1 1.7-.1 1.8 2.8-10.5 1.9-10.2 2.6.8.3 1.6.3 2.3-.1-.4.3-.5.7-.3 1.1-.6-.4-1.2-.6-2-.6.4.1.7 1.7 1.2 1.7.4-.5.8-.9 1.4-1.1-.6.5-3.8 2-2.8-.1 0 1.6 1.2 3.6 3.1 2.1-.2.4-.1.6.3.7 0 .2-3.9 1.9-1.9 2.8-.8-.3 4.9-4.3 4.9-4.3-1.2 1.1-2.3 2.3-3.3 3.5.1-.9 2.8-.8 2.8-.6 0 2.4-5 .2-3.2.6-1 .8-1.4 1.8-1 3 .9.2 3-2.1 1.5-1.4.5-.2.7-.5.5-1 .3.4.7.6 1.2.4-1.1.2-.2.9.5 1 .1 0-1.9.3-1.9.4 0 .2 0 .3-.1.5.8.8 1.8 1 2.8.5-.3 2.5-3.4-.6-3.5-.4-3 5.3 18.1 7.6 15.5-2.4.5 0 .9-.1 1.4-.3-.7 3.3 1 1.6 2.4 2.6-3 0 7.2 14.5 3.6 13.7.3.6 1.3 4.5 1.2 4.4 6 4.5 17.9-13.2 11.6-15.6 2.8 1.1 6.3-1.7 8.4-3.1-.6-.1-1.1-.3-1.7-.4-.4-1.6 5.7.2 1.4-3.6-2-1.8-5-3.8-6-6.5-1.5-3.8 7.1-10 10.6-12 6-3.4 6.9-17.3 15.9-9.6 2.4 2.1-16.7 19.3-11.3 19.5-2.1-.1.7 5.2-1.5 6.1 1.1.1 2.1.6 2.8 1.4-.6-1-.3-1.2 1-.5-2 1 1 .9 1.4.9-.9.1-1.3.6-1.2 1.6.6-.5 1.3-.8 2-1.1 0 .5-.1 1-.2 1.6 3-1.2 16-7.3 19.3-4.3-.3.3-.7.5-1.2.6 2 .9 4 1.9 5.9 3.1-6.9-.2-14.1 1.7-20.5 4.2.2-.1.6 7.3.7 10.4-.1-2.2-7.1-4.3-8.5-2.7-2.9 3.2.3 8.2-3 10.7-2.6 2-24.6 10.3-26.3 3.9l.8-.1c-.8.5-4.8.7-4.1 1.5-.8.6-1.8 1-2.8 1 .1-.4 1.3-2.9 1.1-3-1.4.1-2.8.3-4.1.4 1.6-.1-.6-2.9-1.5-1.8 4.9-1.3.7-.5 1.3-.6-.4-.2-.9-.5-1.3-.7.7-.5.9-1.2.8-1.9.1.5 2.5 2.9 3.3 2.7.7-1.1.7-2.2-.2-3.1-.8.7-1.7.8-2.8.4.4-.6.2-.9-.5-.9.7 0 3.8-2.2 3.9-2.4.6-1.8-.2-2.5-2.3-2.2.7-.1 2.2-5 1.8-5.1-1.9 0-7.3 3.1-7.8 5 .7-1.9 5.5-.3 6.5-1.6-.2-1.5-5 2.2-2.9 2.3-.3-.2-.6-.2-.9 0 0-5-2.9 4-2.5 3.4-.8-.3.2 9.5 3.8 10.2-3.4-.6-6.7 1.6-7.3 1.8-1.6.7-4.9-1.4-6.6.4-1.6 1.6 2.2 1.1 2 .9-.3-.3.3.6.8.9-1 .5-1.9 1.2-2.8 2 .2-1 .4-3.3-1.6-3-1.3.2-2.9 7.3-.1 5.5-2.8-.3-2.8.3-1.8 1.1-.8-.4-1.6-.5-2.5-.3.4.1 3.2.4 3.2 1.1 0-1.8-14.3 2-8.7 4.9-3.6-1.9-6.4 5.9-12.1 1.6.6 1.5 1.1 3.1 1.5 4.7-2.5.1-8.9 2.1-10.9 1 1.7.9 2.3.3.2 1.5.7 0 4.6 1.7 4.7 1.6 1 .8 2 1 3.3.8-2.2.8.6.7 1.2.8 0 0-1.4 1.1-1.2 1 1.4 1.1 4.9 7.8 5.4 7.9-4.2-.7.8 6.5-7.1 6.1-2.7-.1-22.3-1.7-21 3.7.1.5 1.7 9.1-1 15.4.8-1.9 1 .4.8 1.2 3.1-2.3 1.5 4.3.7 5.2 6.1-.2 22.8 5.8 27.4-2.3-.1-1.1 2.3-9.1 2.5-9.4 1.8-2.4 4.2-3.1 6.7-4.6 5.1-3 1.7-3.2 4-7 2.9-4.9 7.4 1.5 9.5-.4 6.5-2.5 9.3-6.2 15.2-.4 4.6 4.5 10.1 10.9 16.3 13.3 9.7 3.8-10.8 9.2-9 5.9-.5.9 7.2 5.4 8 6.1-.4-.3 6.3-13.8 4-13.1.9-.3 6.2.7 5.7 1.2-.2.2-20.2-19.4-20.3-22.4 0-.8 4.4-1 5.1-.8-2.1-.4.4 2.8.2 3.3 2.1-6.4 2.9 2.6 5.1 2.1-1 .3-1.6-1.9-2.3-1.7-.9.2 12.3 8.3 12.5 8.6 2.3 1.2 3.5 5 3.1 7.4-.5 3.4 2.4 1.9 3 3.2-.1.6-.6.9-1.3.8 1.5 1.1 2.1 2.5 2 4.3-.1.4 8.6.6 8.6 1.8 0 1.4-5.4.1-6.2 2.2-.6 1.6 3.5 1.7 3.8 4.2-.2-2.4 1.7-.4 2.4-.2-.6-1.3-1.2-2.6-1.6-4 .9.6 1.8.7 2.7.2-5-3.5 1.1-.7 1.4-.7 1.8-.1-1-2.8-1-2.8 0 .3 2.8 2.8 3.1.8-2-.3-3.1-4.6-5.7-2.7.7-.5 2.4 1.6 2.4 1.5-1.2-.4-2.3-.9-3.4-1.4.1.3.7-3.1 1.6-.9-1.4-.3.1-5.2-.4-5.9.2.8 2.6 2.5 2.6 2.7-4.7-2.5 1.6 0 .8 0 0-.6-.3-1.2-.8-1.6.8.1 1.5.4 2.2.8-.9-.6-1.6-1.4-2.1-2.4 3.4-.8 6.7-.7 10.1.4-.8.6-1.6 1.4-2.2 2.2 2.3-4.1 7-1.5 9.6-4.4-1 1.1-5.4-4.6-5.5-5-2.5-5.8 13.7-16.3 16.9-16.5-1.5-.8-2.3-.5-2.5.7.6-.2 6.6.5 6.6 1.7-1.5.5-3 1.3-4.3 2.2 3.6-.9 2.2 3.8 3.9 3.8 3.2 0 7.1-2.2 9.8-3.8-3 2-5.1-2.7-6.4-2.8.8 1 1.5 2 2.3 3.1-.6-.4-4.3-4.6-5.4-3.7 1.7-1.4 19-2.7 19.1-3.9-.1.8-5.7 2-6.1 2 .9.8 2 1.5 3.2 1.9-.5.2-.3.5.8 1-2.2-1.5-7.6 2.5-7.6 3.2 2.4.7 21.9 10.6 16.1 14.4 1.4.3 2.8.4 4.3 0-9.2-.9-14 2.9-24.1-.9-1.3-.5-20.9.9-21.1 2.9.9.9 2 1.3 3.2 1.4-.5.1-15.1 3.7-12.9 4.8.9-.5 1.8-.6 2.7-.3 0-.5-1.9 5 .5 4.1-.9.1-1.7-.1-2.4-.8.2.6 0 1.1-.5 1.4-.3 1.6 6.1 2.3 3.5 5.1 1.1-.3 2.2-.4 3.3-.5-.9.7-1.8 1.3-2.9 1.7.8-.3 1.5-.4 2.3-.4.7 2.5 5.6.8 8.7.1 0 0 17.7-.4 17.4-.6 3.1 2.1-4.4 23.1-4.8 26.8-.7 7 4.5 9.3 8.4 15.5 4.7 7.4 9.1 15 13.5 22.6 4 6.9 2.9 9.8 5.8 16.5 4.8 10.9 29-7 35.7-10.8 1.3-.8 18.2-10.3 14.2-12.5 3.4 1.8 4.9-6.6 3.9-8.4-.3-.6-11.1-10.5-10.8-10.5-3.6-.3-10.5 12-15 7.9-2.1-1.9-6.5-9.5-6.7-12.2 0 .5-6.2-6.3-10.1-6.8 1.3-1 7.4-5 8.7-5 2.4.1-1.1 1.1-.4.6.9-.6 12.6 11.4 15.3 12.4 5.4 1.9 15.2 5.1 20.8 5.4 5.9.4 15.9.7 20.4-.2 0-.2 8.1 7.9 8.8 5.6-1.6 7 4.2 0 6.5 2.3-.1 0-5.7 5-5.7 2.5 4.6.7 9.3 9.4 12.1 1-5.6 14.9 12.8 28.8 12.3 43.3-.2-.8-.5-1.5-.9-2.2 4 15.9 12.9-2 13.3-9.2.6-10.1 8.6-16.4 17.1-23 .5.4-2.1-1.6.4-.9.3.4.1.7-.4.9 3.4 1.5 7.8-7.4 8.7-9.6.2 1.1.4 2.1.8 3.1.1-.8.3-.9.6-.2-.9-3.6.9-.1.5-1.5-.1 0 1.7 3.1 1.5.7.6 1.4 1.6-1.2 1.1-.9.8 1.6 3.6-1.9 2.7.9.4-1.8 1.7-6.2-1.3-6.8.5.1 4 2.1 2.9-.2.8 1.6 7.6 14.5 8.3 14 2.8-1.9 4 11.6 4.4 13-.4-1.4.8.5.5-.9-.2.6-.2 1.2 0 1.8-1.1-1.4 2.5.1 2.3.1 0-3.1 3.8-2.7 3.6-2.5.7-.9 1.1-1.8 1.4-2.9.5 2.7 4.7 17.6 5 17.9 2 2.9-.5 9.9-.5 14.3.3-.6.6-1.2.8-1.8 1.4-1.1 6.5 9.3 7.3 11.6 1.2 3.5 2.5 7.7 5.2 10.4 1.8 1.8 7.9 2.8 6.8-1.4-2-7.6-8.7-14.6-13.1-20.9-1.5-2.1-6.5-17.8.8-16.8 1.2.2 9.2 8.1 8 8.5.8.3 1.3 0 1.6-.8-1.7.7 9.6 5.5 3.9 8.3 1-.5 6.3-4.1 6.1-3.4-3.3-2.8 9.2-5.4 8.7-11.8-.5-5.9-3.7-15-9.9-17.2-5.8-2.1 3.6-9.5 5.5-11 5.7-4.5 4.4 1.9 7.8 4.2-.4-.3 11.1-7.2 10.8-9.4.5 1.1 1.3 1.8 2.4 2.2 1.8-.4 16.1-7.9 17.6-10.6 1.2-2 .2-4.3-.2-4.9 1.6 2.6 3.8-5.6 5.1-5.6.4.3.3.6-.1.8.2.5 2.7-5.2 2.7-5.7-.6.3-1.1.5-1.7.8.8-.6 1.5-1.1 2.3-1.7-1.5-1-3.2-1.6-5-1.8 1.6-.3 3-.9 4.4-1.7.4-.5-3.1-4.2-3.8-4.3 8.2 1-2-6-4.1-11.5-1.6-4.3 11.5-6.6 10.5-8.2-1.2-1.7-11.8-1.7-12.5.2 0-.9.4-1.3 1.3-1.1-.1 0-5.8-3.4-5.7-3-.5-2.2 11.4-9.1 13.6-9.6-.6.1-.4 5.3.3 6-.8.7-1.5 1.5-2.2 2.4 2.8 1.8 7.2-2.9 9.4-4 6.2-3 3 4.6 3 4.7 0-.1 2.1 3.7 1.3 3.1-.4-.4 8.1-1.3 9.4-1.6 2-.4-2.6-4.3-2.6-4.4 0-4.5 12.5-14.2 16.3-15.8 0 7.8 14.4-7.6 16-9.2 3.6-3.5 7.4-4.7 8.7-10.2 1-4.1-.1-12.2 3.4-15.2-3.1 6.6-.6 16.2.1 23.1-.6-6.8 3.1-.4 4.4-.5.2 0-3.3-15.3.2-14 1.3 1 2.7 2.1 4 3.1-3.2 0-4.9-15.7-4.9-15.8-.2-.2.3-3.8-.3-4.4.2.3.7 1.9.7 2-.3-3.5-1.4-5.6-3.5-6.3.3-.2 1.8 3 1.5 2.3 1 3.1-8.8-1.1-9-1.2.3 1.5-.3 2.7-1.6 3.6.3-.7.7-1.5 1-2.2-1.4.8-2.8 1.5-4.3 2.1.6-.6 1.2-1.3 1.7-1.9-1.4-1.3-1.5.2-.3-1.7-2.4 0-1.1 2.8-3.3 2.5-.2-1.3 0-2.5.5-3.7-1.8.1-3.3-.4-4.6-1.5-.2-.5 13.1-10.8 14.5-12.5 6.9-8.6 20.3-10.6 29.9-8.2-.4-3.5 10.3-1.7 11.1.2-1.3.1-2.7.6-3.9.6.7 2.2 13.3-1.1 13.3-.7-.6-.2-3.4-1.2-3.4-1.1-4.6-5.3 21.4-13.3 20.9-12.7-.5.5-2.4 5.1-2.2 5.6 2.4 0 2.1-2.3 1.2 1.8 9.9 0 8.2-12.1 17.6-9.7-1.5-.3-1.6-.1-.3.4-6.5-2.9-3.1 5.9-5.9 7.9-5 3.5-9.9 7-14.8 10.7-9.1 6.8-12.5 12-10.6 24.8.3 2.3.6 13.8 5 10.2 2.7-2.2 1.9-8.3 4.8-8.8 6.3-1.1 1.1-4 5.5-6 2.8-1.3 5.8.4 5.1-4.1-.5-3 .3-4.1 3.8-4-.9 0-1.6-8.2-.1-8-10.8-2 10.1-15.1 10.5-12.8-.2 1.1-.5 2.1-.8 3.1 2.6-.6 4.3-4.3 7.1-4 .8.1 7.4 3.1 6.9 3.4 4.5-3 20.2-16.5 23.4-14.8-.2-.1 2.8 2.6 5.5 2.6-.8-1.8 1.8-1.6-.1-5.6-1.3-2.9-10.2-7-10.3-7.8 1.4.5 2.8.8 4.2.8-.4-1.1-1.3-1.5-2.7-1.3 12.9 4.6 9.4-6.9 16.5-6.9.1 1.1-.4 1.7-1.4 1.7 1.6 1 1.8 2 .5 2.9 4.3 1.3 7.6-3 9.7 2.4.4.9 9.2 4.1 9.3 4 .4-.5.4-.9-.1-1.2.8.1 1.7.2 2.5.4-3.1-1.5-1.9-1.2-3.1-1.9 5.3 2.9 1.6-3.3 1.7-4.6 0 .1 5.1 1 5.7.3-.7-.3-1.3-.7-1.7-1.4-.7.4 6.6-.3 5.5-1.7-.4-.5.1.1 0 0zM630.4 310.4c-2.4-1.6-5.9-5.2-5.3.7 1 11.9 6.2-.1 5.3-.7M626.2 303.6c.6.3.7 4.9 2.6 3.6 0-1.1-.3-6.3.2-6.7-1.1 1-2 2-2.8 3.1"/></g><g fill="#633F98"><path d="M706.3 542.8c.4.8-8-.5-7.1-2.8 1.3-.9 2.7-1.1 4.3-.6.7-3.7-2.1-9.4-4-12.3-2.6-4.1-9.1 2.1-12.3 4-6.8 4-2.3 8.2-11.6 6-3.2-.8-3.7 5.3-7.3 5.4-2 0-3.2-6.2-4.3-7.3 0 3.8.2 7.6-.7 11.3-2.2 8.5-6.5-.7-10.1 1.5.4-.2 4.2 15.9 4.5 18.3 1 7.2 14.4 3.1 19 2.4 7.8-1.4 35.3-14.4 29.6-25.9m-11.6 9.1c.1 2.8-5.3 4.2-7 2.5-3.5-3.7 6.7-8.8 7-2.5m10.4-4.9c-.2-.2 0-.6 0 0M560.3 410.3c-.5-9.2-8.3-18-16-11.4-10.8 9.3 8 5 8.6 8.6-.2-1.1-12.7 1.1-10 3.5-.3-.5 17.4-.7 17.4-.7M646.4 411.6c-7.3-3.5.4-4.9-9.8-4.2-7.2.5-14.8-1.2-21.8.8-6.8 2-7.5 16.1-7.6 22.5 1.2-.1 2.4-.4 3.5-.9.2 1.1 2.4 1.6 5 2.5-.6-.2 1.3 5.5 3 6.2 3.7 1.6 9.4-6.5 11.9-8.4 3.2-2.5 5.4-1.1 8.1-5.2.5-1.1 6.8-13.7 7.7-13.3M701 444.5c-2.3-1.6-.4-4.7-3.5-5.9-3-1.3-8.9-4.2-11.7-4-6.4.3-23.7.8-25.2 4.7-2.4 6.5-5.1 14.7-8.6 20.7-1.5 2.6-8.7 10.9-13.7 11 2.4 1.8 8.6-.3 11.3-.3 5.7 0 2.9 7 9.3 7.5 3.4.3 5.2-2.4 9.3-2.4 3.3 0 2.8 11.2 2.8 13.2.1-2.7 8.6 1.4 9.9 1.5 2.6.3 6.1-1 8.3.8 1.7 1.4 4 5.5 6.6 5.5 1.9 0-1.2-4.4.4-4.2-14.9-1.7 10.3-24.9-2.5-26.6-2.2-5.3 2.3-7.7 2.1-12.8-2.7 2.7 3.8-9.7 5.2-8.7"/><path d="M735.1 456.4c-4-4.9-3.1-13.2 1-17.8-5.4-2.8-7.1 3.9-12.2.8-2.9-1.8-11.3-6.3-13.3-1-.6 1.6 2.5 11.6.2 10.9-1.3-.4-2.9 4.7.5 4.1-6.5 1.2 6.1 8.7 7 9.2 9.4 6.1 10.8 3.2 16.8-6.2-4-4.9-2.1 3.2 0 0zM713.4 445.4c-5.9-7.4-.9-5.3-10.2-6.2-7-.7-1.9 3.4-1.5 4.8-1.2 1.2-6.6 12.4-6.1 12.4 1.8 0 20-8.3 17.8-11"/><path d="M728.1 340.6c-4-6.4-8.4 3-12.7-1.3.3-1.8 4.2-6.7 2.7-7.5-4.4-2.7-6.3 17-5.3 19.8 4.2-1.8 15.5-1.8 7.2-7.8.9-.1 8.7-2.2 8.1-3.2-4.3-6.7.1.2 0 0zM715.7 371.1c.6-.6-11-18.5-10.4-21.6-.4 1.8 5.5 8.6 5.6 8.4 9.5-13.5-11.8-13.3-19.4-13.7-3.9-.2-9 0-12.2 2.7-2.6 2.1 2.4 5.4 2.6 8.1.4 5-5.9 19.4-.1 22.5 4.6 2.4 14.4.5 19.4.4 3.3-.1 6.6-.3 9.9-.6 3.8-.5 2.8-5.9 4.6-6.2.5-.6-.5.1 0 0zM1078.5 301.2c-2.6 1.7-1.1-3.7-1.1-3.7-4.6-1.5-7.2-2-12.2-4.5 0 2-4 10.2-4.3 8.5.9 7.3-3.5 21.9-12.1 21.9.1-.4 1.7-.7 1.4-1.4 1.1 3.3-30.3 17.3-25 18.2.7-.2 1.3-.4 2-.5-.4-.4-.6-.9-.5-1.5 2.7-.9-.9 3.3-.8 3.2-.2.1 2.2-.9 2-1.3-1.1-1.6 0 8.9 0 3.8.7.6.8 1.3.3 2.1 4 2.1 2.8-8.2 3.6-9.1.1-.1-2.4-.7-2.4-1.9 1.7-.1 3.3-.5 4.8-1.2-.7 1-.1.4.4.6-.5.9-1.2 1.5-2.2 1.7.9 1.1 2 2 3.3 2.5-1.1-2.8 8.9-3.3 4-5.8 5.1-3.3 1.1 1.8 1.8 1.6.4-1 1-1.5 2-1.7.7.9 1.6 4.9 3.5 4.2 4.5-1.7.5-3.5.3-4.9-.1-.8 2 .3 2.5.2-.3.2-.6.5-.9.8.5.2 7.1-.1 6.1-.1 1-1.6 2.2-2.8 3.8-3.7-.4.8-.7 1.7-.7 2.7 4.7 0 2.4-9.9 4.5-12.3 4.9-5.7-2.6-12.9-2-14.2 1.1-2.8 8.2 1.2 9.4 2.1-1.5-1.7 7.7-5.8 8.5-6.3-2.4 1.6.2-.1 0 0zm-49.9 42.6c-.9-.7.3-.7 0 0-.1-.1.1-.2 0 0zm8-14.3c.2.1.2 0 .2.2-.2 0-.3 0-.2-.2zm-.4 4.4c.1.2-.1-.5 0 0 .1 0 0-.1 0 0zm-1.2.2zm.8-4.5h.4-.4c.1 0-.1.1 0 0zm1.9 4.2c-1.7-.6.2-.4 0 0 0 0 .1-.1 0 0zm9.1-3.6c-1.8 2.6.4-.6 0 0-.1 0 0-.1 0 0zm4.4 2.1c-.4.4.3-.4 0 0-.1 0 0-.1 0 0zm10.2-24.1c2.8.2 1 .1 0 0 .6.1-.2 0 0 0zm1.5-3.7c-.4.6.3-.6 0 0-.1 0 0-.1 0 0zM1020.8 318.3c-.1-2.9-8.8 7.3-5.1 6-1-.4-1.8-.2-2.3.7-.3 0 2.2 2.1.8.4 0-.3 1.2 8.5-1.2 5.6 1.2 1.5 1 1.2 1 1.3.1 0 3.5 2.9 3.4.1-.3.1-.5.4-.6.7 0 .3 1.2.5 1.3.4 1-.6-.5 0 .9-.6 0-.5-.2-.9-.7-1.2 1.3.3 2.6.9 3.7.5.1 0 0-.8 0-.9-.1-.1-.7.4-1 .3 2.9-4.2.2-5.9-.2-13.3M936.5 411.7c-5.1-9.4 12.1-6.4 9.5-11.4-5.4-10.3-6.8-7.8-15.2-7.2-1.4-4 3-7.7-2.9-9.6-7.7-2.5-10.6 9.4-4.1 13.7-.4 6.2.1 7.8 2 14.6.7 2.4-4 10.6-4 14.4.3-.6.6-1.2.8-1.8.4-.3 6.8 10 11 7.4-5.6 3.6-11.9-25.9-4.2-24.7-1-.3 8.6 7.4 7.1 4.6M952.5 407.9c.3-.7 0-4.1-.3-5-.6.7-4.6 2.9-4.7 2.9-1.9 1.7-8.8-4.1-11.5-.7-1.5 1.8 2.5 10.3 1.5 10.6-.7-1.6 4.3 1 1.4 1 7.6-.1 10.3-1.6 13.6-8.8M944.7 470.1c7.7 3.9-2.3-13.1-2.9-14.3-2-3.9-10.1-9.7-11.8-11 .9.7-16.4-16-18.5-11.4-.8 1.8 12.9 18.1 15.2 19.3 4.5 2.2 13.1 24.7 18 17.4M975.1 480.2c-3-.8-9.5-11.3-14.4-6 .8-.9-18.3-2.2-16.3-.4.1 3.4 27.7 5.5 30.7 6.4M958.8 445.2c-3.6 1.3-1.5 9.8-.6 10.8.8.8 8.3 5.2 8 7.5 3.3 0 14.1 1.4 14.1 1.6 1.8-.5 2.3-20.3 9.6-16.8-2.9-1.4-7.2-10.5-3.5-10.3-10.3-2.3-7.7 9.4-13.2 9.7-2.9.2-14.1-2.6-14.4-2.5M867.6 428c.3-4.4-5.8-6.5-6.6-8.4-.1-.3.5 1.7 1.8.8-2.3 1.7-.3 1.7-1.9 4.9-.2-.4-.3-.8-.2-1.2-3.9 4.9 6.3 12.2 6.9 3.9M918.6 357c-1-1-2.2-1.4-3.6-1.3 1.4.1.2-3.5-.3-3 1.9-2.3-8.7 1.7-9.1 2-4.2 2.5-4 3.8-6.8 6.3-1.9 1.7-11.1-2.4-10.6-3.7 4.5 1.3-1.6 5.9-3.8 6-2.1.1-7.1-2.9-9.4-3.7-3.5-1.3-20.3-7.7-10.1-11-1.8-6-12.5-2.5-6.6-8.7 6-6.3-11.5-15.5-15.9-6.4-3.1 6.5 6.7 5.2 1.3 12-3 3.8-16.5 14.3-15.9 16.1.4 1.3 5.4 7.3 3.2 8.4-.6.3-9 1.5-8.7 1.7.4.2.5.4.2.6.7-.3 1.3-.6 1.9-1.1-1.6 7 4.2 0 6.5 2.3-.1 0-5.7 5-5.7 2.5 6.2.9 6.3 9.6 11 .6.8-1.5 1.4 7.3 1.4 7.1 0 1.5-.3 14 2.1 14 0 8.6 10.2 14 9.9 22.6.1-.3-.8-1.8-.9-2.2 3.3 13.3 10.8 2.5 11.6-4.7 1.6-13.6 8.1-19.2 18.8-27.5.5.4-2.1-1.6.4-.9.3.4.1.7-.4.9 3.4 1.5 7.8-7.4 8.7-9.6.2 1.1.4 2.1.8 3.1.1-.8.3-.9.6-.2-.9-3.6.9-.1.5-1.5.3.1.5 1.8 1.2 1.6.1-.2.3-.3.5-.3-.2-6.2-3.3-12.9-2.1-17.3 1.9 1.3 3.2 1.5 4.1 1.3-1.6.4 8.6 4.2 9.4 4.8-1-.6-4.4 4.7-4.6 5.5 1.4-5.3 4.7 2.7 4.7 4.7 3.5-1 0-5.5 2.6-7.3 1.9-1.3 2 3.1 3.7-.8.3-.6 2.9-6.8 2-7.4-1.3-.9 7.3-2.8 6.7-2.2-.4.5-.1-4.3.7-3.3"/><path d="M853.8 329.6c-8.4-.2-13.2-10.8-21.3-2.1.7 1.1-4.3 14.1-6 14.9-7.6 3.4-17.6 12.4-27.8 7.3 4.8 8.8 10.4 6.8 3.1 14.3-4.6 4.8 12.6.9 15.3 1.9 0 1.2 7.8 7.3 14.5 3.1 1.8-1.1-7.5-9.8 2.3-13.8 5.1-2.1 11.5-8.3 12.7-14 .3-1.4-4.7-2-3.8-4.9 1.8-6.3 6.2-1.8 11-6.7-7.3-.2-3.8 3.9 0 0zM1041.5 280.7c-3.9-2.8-11.3-1.9-16.2-4.5-5.3-2.8-8.5-4.7-11-10.3-1.8-4.1-2.1-7.2-6.7-8.4-3.5-.9-13.2-2.4-14.4 3 .1-.4 3.7.9 2.4 2.4-2.9 3.1-2.9 8-6.9 10.1-5 2.7-13.1-1.5-19.2 1-10.3 4.2-17.4-4.9-26.1-2.6-3.4.9-23.2-12.5-23.2-4.1 0 9.4-8.2 5.8-14.8 3.8-8.1-2.4-12.9 4.2-19.6 4.7-.1-.1-5.5 3.6-5.8 4.7-1.8 7.5-3.9-.2-8.1 3.1-2.3 1.9-.2 7.8-2.7 7.8-1 0-9.1-.3-8.9 1.5 1.1.2 2.2.4 3.3.7.6 2.5-.4 5.9-1.2 8.3-1.1 3.3-4 4.1-7.2 5.2-9.2 3.4-18.1 4-9.5 15.2-.8.3-1.6.7-2.4 1 4.3 1 6.3 4.9 10.4 6.1 2.6.8 5.6-.7 8.2-.1-2.4-.5-5.6 13.2-3.8 15.1 5 5.3 20.4 11.7 26.5 12.8 1.4.3 6-.1 6.4 2.2 1.7-3.4 9.2-4.4 12.3-2.6 2.9 1.5 7.7-8.4 11.8-4.6-.8-.7 1.6 3.6-.1 3.5 11.6 1.2 4.3 8 4.4 15.2 4.7-2.1 7.1 1.5 5.4 6.3 3.3 2.7 4.8.5 7.2 3.5-3.1-3.9 9.1-5.8 13.1-6.3 7.2-1 2 4.7 7.6 4.6 8.6-.1 2.7 1.2 8.5 5-.4-.3 11.1-7.2 10.8-9.4.5 1.1 1.3 1.8 2.4 2.2 1.8-.4 16.1-7.9 17.6-10.6 1.2-2 .2-4.3-.2-4.9 1.6 2.6 3.8-5.6 5.1-5.6.4.3.3.6-.1.8.2.5 2.7-5.2 2.7-5.7-.6.3-1.1.5-1.7.8.8-.6 1.5-1.1 2.3-1.7-1.5-1-3.2-1.6-5-1.8 1.6-.3 3-.9 4.4-1.7.4-.5-3.1-4.2-3.8-4.3 8.2 1-2-6-4.1-11.5-1.6-4.3 11.5-6.6 10.5-8.2-1.2-1.7-11.8-1.7-12.5.2 0-.9.4-1.3 1.3-1.1-.1 0-5.8-3.4-5.7-3-.5-2.2 11.4-9.1 13.6-9.6-.6.1-.4 5.3.3 6-.8.7-1.5 1.5-2.2 2.4 1 .6 9.9-4 11-4.9 3.3-2.7 13.1-6.4 11.9-8.2-.3 2.2 7.6-4.5 6.1-4.5 1 .5 1.8 1.3 2.2 2.3 3.2-2.5.9-6.1 1.4-9.3-.1.7 6.3-3.1 6.4-3.2 1.3-1 8.9-6.5 5.6-8.8-3.8-2.7.4.3 0 0zM1050.8 444.2c-1.2.9-9.1-1.5-10.8-1.7-3.4-.4-8.9 5.2-10.5 2.3 2-8.3-9.9-8.8-12.7-6.1 0 4.4 8.2 3.7 10.8 4.5-.3-.1-6.3.7-6.5 1.5-.3 1.2 10.7 5.9 12.6 6.5 4.1 1.3 8.5 1.4 9.4 6.6 1.1 6.5 2 3.5 6.6 6.8-.4-6.8.8-13.6 1.1-20.4-.3.2-.1 2.6-.1 3 0-1 0-2 .1-3-.1 0-.3 7 0 0zM1086.4 592.8c-2.9-1.4-8.9-3.6-12-2.3-2.1 1.7 2.3 5.2 2.8 6.6-1.1-2.7 1.6 4.4 1.6 4.4s8.7-4.2 7.4-4.5c.1-1.5.1-2.8.2-4.2M1100.4 549.5c.1 0-3.3-10.7-4.1-12.1-1-1.8-9.6-13-7.7-8.9 0-7-10.3-12.4-12.7-14.3-1.6-1.4-8.4-26.9-12.2-26.3-8.8 1.3 3.8 29.7-12.3 21.6-9-4.5-15.5-7.9-5.9-16-.8-.2-1.2-.7-1.3-1.5-.9.2-1.4.8-1.5 1.7-1.8.2-11.1-5.4-14.3-3.7 1.5.5 2.6 1.5 3.3 2.9-9.9.2-8 4.5-9.6 9.1-.2.7-3.1-1.8-.5 1.1-1-1.1-2.3-1.1-4.1-1.2.1 0-1.1 1.6-1.3 2.3 1.3-6.4-7.5-7.1-7.1-2.9 0-.1-1.7-.9-1-1.3-.2.1-3.9 6.1-4 5.6.5 0 .9-.2 1.1-.7-.3.7-.7 1.4-1.1 2 .5.2 1 .4 1.5.5-.8-.1-4.2-.3-4.6-.7 1 1-.7 1.8 1.7 3.1-.1.1-.2.2-.2.4-1.9.5-.1-2.7-.8.8-1.2-1-1.9-2.3-2.1-3.8-3.3.1-6 10.9-11.9 12.5-6.2 1.6-13.9 2-17.4 8.4.1-.8 0-1.6-.5-2.3-3.7 2.5-1.7 12.8.1 15.9-.9-1.5-1.1-1.1-1.8-3.3.4 1.3.6 2.6.7 3.9-.2-.4-.4-.5-.5-.2-.1-.7-.3-1.3-.7-1.9-.3 0 .5.8-.6.6 3.5 3.3 11.3 21.7 7.1 25.8-7.3 7.3 26 1.4 27.4 1.6 4.3-9.4 24-9.7 32-6 1.4.6 6.2 8.6 5.8 8.6 2.1-.1 9.2-2 8.7-7.4.3 0-.6 10.5-2.9 9.9.3-.3 4.8-4.1 4-4.1-5.6.1 19.3 28.3 21.9 15.4-.4 0-.8-.1-1.2-.2.6-.4 1.3-.7 2-.7.8.8.5 1.3-1 1.5 3-1.2 3.5 1.8 5.7 3-1.4-3.9 11.2-3.6 11.7-9.2 1.1-9.6 8.1-20.9 12.2-29.5m-131-16.8c.4.1-.8 1.6-.8 2.1-2.2-1 1.3-1.9.8-2.1m83.8 41.7c-2.6-.2-.3 0 0 0M1165.8 571.8c.5 0-14.5-1.4-10.4-4.4.5.9.6 1.7.3 2.7-2 .6-4-12.7-9.1-10.6-.3 2.9 5.7 7.5 5.5 6.8.9 2.3-1.7 17.5 1.1 19.5 7.6 4.7 10.8-14.1 12.6-14m-8.2 4.7c-.9 1.4.9-1.4 0 0M1152 584.9c-.4.1-.8.5-.9.6.7-.4.2-.5.7-.9-2.6 2.6-5.8-2.4-3.9-1.6-1.9 3.6-17.2 13.8-16.9 14.5-.3.4-3 6.2-3 6.1-1.7-.3-2.3.1-1.9 1.3 3.3-1.6 7.9 2.3 13.3-.5-.8.4 8.8-12.4 8.6-9.1-.4-.6-1-.8-1.8-.6 2.9 1 4.5-9.4 5.8-9.8"/><path d="M745.6 313.3c-7.8-10.9-19.4-2.2-30.2-7.5-1.9-.9-21.4.4-21.6 2.6.9.9 2 1.3 3.2 1.4-.5.1-15.1 3.7-12.9 4.8.9-.5 1.8-.6 2.7-.3 0-.5-1.9 5 .5 4.1-.9.1-1.7-.1-2.4-.8.2.6 0 1.1-.5 1.4-.3 1.6 6.1 2.3 3.5 5.1 1.1-.3 2.2-.4 3.3-.5-.9.7-1.8 1.3-2.9 1.7.8-.3 1.5-.4 2.3-.4.7 2.5 5.6.8 8.7.1 0 0 17.7-.4 17.4-.6.2 1.3 0 2.6-.6 3.8 4.2-3.5 22.6-10.4 27.8-4.2-1-1.4-.1-9.9 1.7-10.7-2-2.7-1.9.8 0 0zM730.5 274.8c-.4-3.7-11.1-4.1-13.6-4.6-5-1.1-5-8.2-10.8-8.4-6.8-.3-5.8 6-11.4 4.6-4.9-1.3-14.7-6.7-19-1.5.8-.3-3.5 14.1-1.7 15.2 4.5-.4 12.3-2.3 16.4-.5 1.1.5 10.4 6.4 8.1 8.6-.8 1-5.7 0-7.4 2.4 5.2 2.8 8.8-3.7 14.3-4.1-1.1.3-2.1.3-3.2.1 2.1 1.5 3.5 1.5 6.7 1.5 0 .5.2.8.6.9-1.5.5-3 1.3-4.3 2.2 3.6-.9 2.2 3.8 3.9 3.8 3.2 0 7.1-2.2 9.8-3.8-3 2-5.1-2.7-6.4-2.8.8 1 1.5 2 2.3 3.1-.6-.4-4.3-4.6-5.4-3.7 4.8-3.9 10.7-.9 16.7-5.8 3.4-3 2.7-5.4 4.4-7.2-.4-3.4-.1 0 0 0zM690.9 289.4c-3.1-6.4-2.2-7.9-9.6-8.8-4.1 1.9-5.1-2.5-8.6 1.4-1.6 1.8-5.2 5.8-7.9 5.8-.8-.7 8.5 9.7 8.5 6.3-.4 0-.8.1-1.1.4 3.7 6.4 1.5-.9 1.2 1.9-.6 1 26.6-.6 22.1-4.6-1.8-.5-3.3-1.3-4.6-2.4M685.7 306.6c0-.4-11.9 1.2-12.7 1.4-5.5.9-5.3 4.9-9.1 5.7 1.5 1.1 2.1 2.5 2 4.3-.1.4 8.6.6 8.6 1.8 0 1.4-5.4.1-6.2 2.2-.6 1.6 3.5 1.7 3.8 4.2-.2-2.4 1.7-.4 2.4-.2-.6-1.3-1.2-2.6-1.6-4 .9.6 1.8.7 2.7.2-5-3.5 1.1-.7 1.4-.7 1.8-.1-1-2.8-1-2.8 0 .3 2.8 2.8 3.1.8-2-.3-3.1-4.6-5.7-2.7.7-.5 2.4 1.6 2.4 1.5-1.2-.4-2.3-.9-3.4-1.4-.2-.3 3-2.8 1.6-.9-.5.7-.5-6-.4-5.9.2.8 2.6 2.5 2.6 2.7-4.7-2.5 1.6 0 .8 0 0-.6-.3-1.2-.8-1.6.8.1 1.5.4 2.2.8-.9-.6-1.6-1.4-2.1-2.4 3.5-2.1 9.1 2.8 9.4-3m-18.3 10.1c-1.7-1.2.2.1 0 0M692.2 297.6c0 .2-18.1-2.4-18.8-1.2 1.1 1 .6-3.7-.3-1.6-.1.2-1 11.3-1 11.3.6 3.4 17.5 1.1 18.2-1.1-.1-1.2-.8-1.9-2-2.1-.5-1.2 3.7-3.9 3.9-5.3M671.9 303.2c8.2-10.8-13-16.2-11.2-10.3-1.3.6 4.7 6.7 4.2 8 .7-.6 1.3-1.2 1.8-1.9 2.7.6 1.8 6.8 5.2 4.2M690.3 305c1.3-4.4-7.5 5.9-6.4 4.9.8.4 1.7.4 2.6.1-.8.6-1.6 1.4-2.2 2.2 2.3-4.1 7-1.5 9.6-4.4-1.3 1.3-3.9-2-3.6-2.8M630.4 310.4c-2.4-1.6-5.9-5.2-5.3.7 1 11.9 6.2-.1 5.3-.7M643.7 289.6c-5.5-7-6.6-3.7-14.9-3.2-.3 1-.7 1.9-1.2 2.8-2-.1-3.7-1.8-5.9-1.2-1.1.3-1.8 3.6-1.8 4.6.4 5.1 3.8 4.4 7.3 4.4 7.4.1 10.6 9.7 17.6 12.1 7.6 2.7 1.9 8.6 4.9 11.3 3.9 2.7 3.3-4.7 2.9-6.5-1.3-6.9 5.2.2 6-.6 1.9-1.7-10.7-10.2-12.2-11.2-8.4-5.7-4.1-14.3-2.7-12.5M626.2 303.6c.6.3.7 4.9 2.6 3.6 0-1.1-.3-6.3.2-6.7-1.1 1-2 2-2.8 3.1M624.7 276.1c-1.5-1.5-12.8-3.4-12.8-4-.3-6.8-10.3-1.8-8-.6-3.6-1.9-6.4 5.9-12.1 1.6.6 1.5 1.1 3.1 1.5 4.7-1.9.1-10.9-2.6-10.9 1.2 1.4.2 1.9.3.2 1.2 2.8.1 5 3.4 7.9 2.3-2.2.8.6.7 1.2.8 0 0-1.4 1.1-1.2 1 1.4 1.1 4.9 7.8 5.4 7.9-3.7-.6-4.6 9 6.1 10.2.2 0 21.3-3.5 22-5.3-.4 1.1-4-13.2-6.4-9.3 1-1.7 9.2-9.5 7.1-11.7m-30.3 16.4c.2-.1.2-.1 0 0m0-.5c.3-.7.3-.7 0 0m-.1 3.3c-.4.2.3-.2 0 0m.1-.6c-.5.4.3-.1 0 0m13.9 5.5c-.5.6-.2.2 0 0m2-1.3c-1 .7.2-.2 0 0m1.2-.6c-1.5.2-.2 0 0 0m.9.4c-.9-.4 0 0 0 0m2.8.3c-1.1.6.6-.4 0 0M659.8 273.2s-8-2.9-7.1-2.2c-4.6-4.3-11.7 2.1-14.6-.3 2.9 2.4 6.1 4.3 9.2 6.3 4.6 3 8.3-4.2 12.5-3.8M647.3 266.1c1.5-4.5-6.6-13.7-6.7-13.6-.5.3-6.7 2-6.9 2.5.1-.3.1-.5-.2-.7 1-.5 1.4-1.2 1.2-2.3-3.5-.5-4.6-1.3-8.3-1.8-.1 1 .3 1.7 1.2 1.9.2.1-1.6.9-1.5.9 2.7-.8.2 2.5 3 3-4.5-.8-12.2 3.4-11.5 8 .3 1.6.1 8.5 1.3 9.7.5.6 6.3 2.3 6.3 2.4-.2 5.5-1.8 6 6.4 6.8 9.9 1 14.9-5.3 6.3-12.4 2.6 2.3 8.8-2.3 9.4-4.4m-7.7-13.2s.2-.6 0 0M573.3 322.2c-1.2-1.6 4.6-14.6 3.2-17.2.7 1.5-7.2-.9-5.6-.8-2.1-.2-3.3 11.7-4 13.4.8-1.9 1 .4.8 1.2 3.1-2.3 1.5 4.3.7 5.2 1.3-.3 2.6-.2 3.9.2-2.5-1.2 2.8.4 1-2M622 258.7c-1.9-4.3-5.9 1-6.2.7.6.1 1.1 0 1.6-.2-.3-.3.3.6.8.9-1 .5-1.9 1.2-2.8 2 .2-1 .4-3.3-1.6-3-1.4.2-1 6-2.4 4.7.6.5 1.4.8 2.2.8-2.8-.3-2.8.3-1.8 1.1-.8-.4-1.6-.5-2.5-.3 2.7.5 7.8 3.4 8.6 3.4-.2-1.6-.2-3.1-.3-4.7.3 1.2 4.5-5.2 4.4-5.4M660.5 274.1c1.9.6 12.7-1 13.1 1.9-.6-3.8 3.1-5 3.8-8.2-.7-.4-3.1-6.1-2.9-6.3-.6-3.8 3.6-3.9.1-8.1-3.2-2.5-9.5-.2-13.1-.2 1-1.2-1.3-2.6-2.8-2.1-.2-.3-5.2-.4-8.8 2.8-1.3 1.1-3.9 4.9-4.9 2.1-.4.2.6 12.7 3.2 12.7 2-.1 11.8 2.9 12.3 5.4m-8.8-21c-.8-.1 0 0 0 0m.8-.5c-1.2.5 0 0 0 0m3.3-1.3c-1.2-.4.2 0 0 0M654.3 279.7c.4-4.7-14.2-4.4-13.2 2.4-.1-.6-10.1-.2-11.5-.1.6 1.6 13.6 5.3 14.9 5 3-.7 9.6-5 9.8-7.3M659.8 273.2s-8-2.9-7.1-2.2c-4.6-4.3-11.7 2.1-14.6-.3 2.9 2.4 6.1 4.3 9.2 6.3 4.6 3 8.3-4.2 12.5-3.8M647.3 266.1c1.5-4.5-6.6-13.7-6.7-13.6-.5.3-6.7 2-6.9 2.5.1-.3.1-.5-.2-.7 1-.5 1.4-1.2 1.2-2.3-3.5-.5-4.6-1.3-8.3-1.8-.1 1 .3 1.7 1.2 1.9.2.1-1.6.9-1.5.9 2.7-.8.2 2.5 3 3-4.5-.8-12.2 3.4-11.5 8 .3 1.6.1 8.5 1.3 9.7.5.6 6.3 2.3 6.3 2.4-.2 5.5-1.8 6 6.4 6.8 9.9 1 14.9-5.3 6.3-12.4 2.6 2.3 8.8-2.3 9.4-4.4m-7.7-13.2s.2-.6 0 0M622 258.7c-1.9-4.3-5.9 1-6.2.7.6.1 1.1 0 1.6-.2-.3-.3.3.6.8.9-1 .5-1.9 1.2-2.8 2 .2-1 .4-3.3-1.6-3-1.4.2-1 6-2.4 4.7.6.5 1.4.8 2.2.8-2.8-.3-2.8.3-1.8 1.1-.8-.4-1.6-.5-2.5-.3 2.7.5 7.8 3.4 8.6 3.4-.2-1.6-.2-3.1-.3-4.7.3 1.2 4.5-5.2 4.4-5.4M660.5 274.1c1.9.6 12.7-1 13.1 1.9-.6-3.8 3.1-5 3.8-8.2-.7-.4-3.1-6.1-2.9-6.3-.6-3.8 3.6-3.9.1-8.1-3.2-2.5-9.5-.2-13.1-.2 1-1.2-1.3-2.6-2.8-2.1-.2-.3-5.2-.4-8.8 2.8-1.3 1.1-3.9 4.9-4.9 2.1-.4.2.6 12.7 3.2 12.7 2-.1 11.8 2.9 12.3 5.4m-8.8-21c-.8-.1 0 0 0 0m.8-.5c-1.2.5 0 0 0 0m3.3-1.3c-1.2-.4.2 0 0 0M626.7 250.4c.3.8 4.6.1 4.6.1 0-.1-1.7-1.2-2.2-1.1.7-.5 1-1.2.8-2 .1.5 2.5 2.9 3.3 2.7 3.3-.5-2-2.7-3-2.7.4-.6.2-.9-.5-.9.7 0 3.8-2.2 3.9-2.4.6-1.8-.2-2.5-2.3-2.2.7-.1 2.2-5 1.8-5.1-1.9 0-7.3 3.1-7.8 5 .7-1.9 5.5-.3 6.5-1.6-.2-1.5-5 2.2-2.9 2.3-.3-.2-.6-.2-.9 0 0-1.8-1 0-3-.4-.4 1.2 1.1 2.9.6 3.8-1.8-.6-.9 1.5 0 1.7-.1-.2-.2-.4-.3-.5.1-.7 1.5 3.4 1.4 3.3"/><path d="M609.1 303.2c-.6-.5-.1-.1 0 0zM609.1 303.2c-.2-.2-.4-.3-.7-.3-.1-.2-.3-.3-.6-.4-1.2 0-5.5-.9-10.8-1.7-10.7-2.6-30.8-5.9-29.1 1.2-.3-1 1.1.1 1.3.1 0 1.1-.1 2.2-.3 3.2.3-.1 1.2-.3 2.3-.4-.3.4-.7.9 1.9.5 5.7-.9 2.8 3.3 2.4 3.1.4.2.5.8.6 1.6-1.2 4.3-1.8 10 .3 14.4.4 1.2 1.1 2.1 2 2.6 2.5 1.4 6.4.2 10.1-1.8 3.5-.9 6.7-2.4 7.5-3.8 0-.5.2-1.4.5-2.4.4-.5.8-.9 1-1.3-.4.6 2-4 4.7-8.2 2.8-.9 6.7-5.2 6.4-6.7 0 .2.2.3.5.3zm-12.8 16.1s-.1 0-.2-.1c.1 0 0 0 0 0s.1 0 .2.1zM609.1 303.2zM630.4 310.4c-2.4-1.6-5.9-5.2-5.3.7 1 11.9 6.2-.1 5.3-.7"/><path d="M658.9 311.8c-5.4-6.8-20.4-10.6-20.6-20.9 0-1 4.4-.6 5-.7 0 0-1.6-3.7-.1-3.7-5 0-3.6-4.5-8.3-1.5-4.2 2.6-2.3 1.2-6 1.5-1.6.1.5 3.3-2.2 2.3-3.9-1.4-5.3-1.3-6.3 2.5-3.1 11.3 12.8.1 11.5 7.1 2.1 2.8 11.9 14.6 16.4 14 12.3-1.2-9.5 13-8.3 8.2-.3 1.1 7.4 5.4 8.8 3.7.8-1 6.6-12.7 4.4-12.5.6-.5 5.5-.3 5.7 0-1.9-2.5.3.3 0 0zM626.2 303.6c.6.3.7 4.9 2.6 3.6 0-1.1-.3-6.3.2-6.7-1.1 1-2 2-2.8 3.1"/><path d="M632.7 285.8c-.3-.1-7-6.6-7-4.3.3 0 .5.1.7.3-2.4-3.6-8.9 4.5-8.9 6.3.6 3.3 15.5-2.2 15.2-2.3.1 0 .2 0 0 0zM702 210.6c-6.9-4-5.1-9.5-6.8-16.4-.7-2.7-3.8-14.7-3-16.6 4-10.2-8.2-2.1-10.8 0-4.8 3.8-13-3-15.6.1-.4.9 4.9 2.5 5.5 3.2 4.8-.6 2.5 3.6 3.8 5.7 1 1.5 7 13 6.8 13.8-.6.5-19.7 16.3-12.7 16.5-1.9-.1.8 2.2-.6 4.5.4-1.1.1-1-.9.3.3-.4 1.1.4 1.2.6-.6-.1-1 .1-1.3.6 1.1.1 2.1.6 2.8 1.4-.6-1-.3-1.2 1-.5-2 1 1 .9 1.4.9-.9.1-1.3.6-1.2 1.6.6-.5 1.3-.8 2-1.1 0 .5-.1 1-.2 1.6 1-.3 33.9-8.5 28.6-16.2"/><path d="M677.6 195.7c-.6-11.3-5.7-12.2-13.3-17.8.2 1.1.4 2.1.4 3.2-8.4-2.4-14.3 6.4-14.9 11.7-2 .6-8.2 11.4-5.7 12.2-2.9 3.7-8.6 1.6-6 8.6 1.8 4.8 2.5 16-2.6 16.4-3 0 7.3 14.5 3.6 13.7.3.6 1.3 4.5 1.2 4.4 6 4.4 17.9-13.2 11.6-15.6 2.8 1.1 6.3-1.7 8.4-3.1-.6-.1-1.1-.3-1.7-.4-.5-2.3 2.5-2.3-1.6-6.4-4.2-4.2-1.3-3.6-1.5-7-.3-4.1 6.1-6.9 9.2-8.6 7.8-4.5 3.5-10.7 12.9-11.3-.2-2.8-.9 0 0 0zM622 258.7c-1.9-4.3-5.9 1-6.2.7.6.1 1.1 0 1.6-.2-.3-.3.3.6.8.9-1 .5-1.9 1.2-2.8 2 .2-1 .4-3.3-1.6-3-1.4.2-1 6-2.4 4.7.6.5 1.4.8 2.2.8-2.8-.3-2.8.3-1.8 1.1-.8-.4-1.6-.5-2.5-.3 2.7.5 7.8 3.4 8.6 3.4-.2-1.6-.2-3.1-.3-4.7.3 1.2 4.5-5.2 4.4-5.4M626.7 250.4c.3.8 4.6.1 4.6.1 0-.1-1.7-1.2-2.2-1.1.7-.5 1-1.2.8-2 .1.5 2.5 2.9 3.3 2.7 3.3-.5-2-2.7-3-2.7.4-.6.2-.9-.5-.9.7 0 3.8-2.2 3.9-2.4.6-1.8-.2-2.5-2.3-2.2.7-.1 2.2-5 1.8-5.1-1.9 0-7.3 3.1-7.8 5 .7-1.9 5.5-.3 6.5-1.6-.2-1.5-5 2.2-2.9 2.3-.3-.2-.6-.2-.9 0 0-1.8-1 0-3-.4-.4 1.2 1.1 2.9.6 3.8-1.8-.6-.9 1.5 0 1.7-.1-.2-.2-.4-.3-.5.1-.7 1.5 3.4 1.4 3.3M574.5 252.2c-1.7-1.5-3.6-.4-5.5-1.7.1.1 3.9-3.1 3.9-3.9-1.4-1.1-2.1-.7-2.2 1.2 2.1-1.8-3.8.6-3.9 1.6 5.8 1-3.8 1.4-4.4 1.9.4.9 1.7 1-.3 1.2 4.9-.3.1 1.6 0 2.1.4.6 3.4 2 4.2 1 0 0-3.3 2.6-3.3 3.2 1.3 0 2.6-.1 3.9-.3-2.5.1-3.8 2.6-5.6 2.3.6-.3 1.1-.3 1.5.2l-1.5.6c.1-1.4 1.1 2.6.6 1.4.9-.2 1.7-.4 2.6-.6-.5-.7-.7 1.6-1.2.1.3.5.3.9 0 1.1 4.1 0 18.9-4.6 11.2-11.4M575.2 252.1c.6 0 3.3-1.7 2.3-1.2-.3.1-.3-1.8-.3-1.8.1-.2-8.8-1.7-9 .5-.2 1.6 7 2.6 7 2.5M604 256.9c0-.2-9-4.8-7.8-5.2.9-.3 1.6-.1 2.3.5-4.4-3.8-4.6-10.9-11.8-11.2 2.5.1 3.6-3.4 1-1.9 9.6-5.1-2.1-8.5-3.5-5.3 2.2-1.5 2.2-2 .1-1.7 1.5-1 2.8-2.3 3.9-3.8-7.6 0-5 3.8-9.2 3.8-.4 1.1-.2 1.9.6 2.4-1 .5-3.9-3.2-3.9-.4 0 .9 2.4 1.3 2.5 2 .5.1 1.3-.5 1.6-.4-.8.2-.7.4.1.6-.8.5-1.6.9-2.4 1.3 1.9-.2 2.2 0 .8.5l2.7-.3c-.5.5-1.3 6.2-1.9 6.4 2-.8-.2-3.3 1.7-3.9-2.1.6 1.7.8 1.9.8-.5 0-1.9 4.8-1.4 5.5 1.4 1.9 4.2-1.8 6.3-.8-4.2-1.4 1.1 5.9.9 3.6 0 .6-2 4.2.2 3.9-2.4.3.2-2.6-6.2-.2 0 .2-.3 1.4-.3 2.3 6.8-1-1.9 3.3-1.9 4.1 3.5.7 5 2 9 1-2.4.6-10.2 3.7-10.3 6.7 0-2.3 24.7-2.5 23.7-5.7-.7 0-1.3.2-1.9.7.1-.7-.2-.8-1-.5 1.7-1.4 3.1-3 4.2-4.8M553.3 199.7c.3-.1-1.5-4.9-4-3.2-.5-.3-1.7-3.4 1-3.4.1-.4-10.9.7-12.3.9 0 .9.2 1.8.6 2.6-1.2-.4-2.1-1.2-2.7-2.3-4.2.1.1 1.6-4.8.2.2 1.1.1 2.1-.2 3.2-.1.2-2.4-.6-2.1 1.7-.8-5.1-4.5-3.7-6.8-6.6-.1 0 2.1.9 2.4.9-.7 0-1.3.1-1.9.2.9.2 1.6.7 2 1.6-.5-.5-4-1.4-4.7-.8.2-.2 0 1.5 1 2-1.7-.1-1.9-.7-3.3.9.6 1.2 7.5 0 8.8.5-1 .3-1.9.8-2.7 1.5.7.9 1.7.8 3.1-.3 0 .1-6.8 2.5-7.5 2.1 2.2 1.5 6 2.1 8.2 2.4-2.1-.3-1.2 2.2-3.9 1.2-.2 9.2 28.2-2.1 29.8-5.3m-32.5-2.9c.2-.2.2-.2 0 0m21.2 9.5c.4.1.4.1 0 0M421.7 566.6c-.8-13.3-17.9-14.2-16.1 1.1 3.3 1.9 16.6 6.9 16.1-1.1M419 533.2c-.9-6.3-17.3-17.8-23.2-14.3-6.1 3.5-2.6 10.9 2.7 12.5 8.1 2.5 8.2 5.8 6.8 12.8.8-4.4 15.6 1.8 13.7-11"/><path d="M483.6 475.5c.9-10.8-19.7-12.3-26.6-15.5-4.3-2-32-10.2-27.2-20.9-.6 1.4-.7-.3-1.3-1.5-1.1 4.5-12.7 11.1-16.2 7.9-4.6.6-6.3 6.3-9.5-1.1-1.4-3.3-1.8-7.1-4.2-9.7 1.4 2.8-13.9 7.4-13.9 3.1 0 4.1 10.5 13.4-3.2 10.6-2.6-.5-5.1-1.4-7.5-2.5-5.8-2.6-3.9 3.9-3.6 3-.9.3-1.8.6-2.8.9 1 2.2 1.6 4.4 1.8 6.8-.4 2.9-1 5.9-1.4 8.8-3.1-3.6-26 21.2-1.5 18.5.6 1.4.5 2.8-.5 4.3 6-.3 11-4.6 16.9-4.6-1.6 0 2.5 7.9 3 8.4 3.7 3.4 8.3 1.9 11.5 6.8 3.7 5.6 16.6 12.5 9.4 20.9 0 7.8 9.8 11 11.5 18 6.9 2.8-5.5 16.4-10 16.6 2.7 3.4 10.4 7.2 14.5 8.6 0 0-3.2 5.7-.4 4.6 6.1-2.2 21.2-23.2 16-30.2-.1-.5 9.9-5.1 10.6-5.4-1.8-1.4 11.1-4.5 12.2-5.5 10.3-9.5 6-21.5 9.3-32 1.8-6.2 12.5-9.7 13.1-18.9 0-.5 0 .1 0 0zM377.1 528.7c-4.1-3.5-7.8-12.5-8.1-18-.3 1.5-1.2 2.2-2.7 2.3 7.1 6-11.4 84.6-10.7 84.5-2.4.6-3.1 9.1 1.1 4.9.3-.3-.7-1.2-.8-1.3 1.4-.2.8-.8 1.8-1.4-.8.4-1.2-1.8-1.5-2.1.6-.1 1.2 0 1.7.3 0 0 .1-1.2-.1-.9 0 0 0 .1-.1.1-.5-1.1 2.7 1.8 2 2.9-.1-1.1-.5-1.2-1.1-.5.2 1-3 11.7-2.3 12 .5-.1 1-.2 1.5-.2-.1-.1-3.4 3.1-.4 2-.5.4-1.1.8-1.5 1.3-.9-.6-1.6-1.3-2.3-2.1-.1 0-1.3 3-2.3 1.5-.3.2.3 2.1 1.1 1-.1.2-3.5 3.5-2.7 3.2.7-.3 1.3-.9 1.9-1.7-.8-1.9 3.3 4.4 2.7 2.2 1.1 4.2-1.8.5.4 2.1 1.3.9-1.9.5-1.9.3-.5 4.4 3.2-.4 3.1-.4 1.4-.3-2.2 4.1 1.7.2-.3.3-1.1 1.9.2 1.8.5-.1-1.9-.1-1.4.3-.4-.4 1.5.1 1 .5-1.4 1.2-6.6-3.5-7.3-2-.1.1.8.8.6 1.3-.7-1.3-1.7 3.7-1.6 4.3 2.4-.4 5.9.3 3.4-4.9.8 1 .4 2.9 2.4 2.7-2.2.3-1 .8-.9 1.3-.2 2.1-5.5-.1-3 4.2 0-.1-1.2-1.6-1.4-1-.6.5.2 1 0 1.4 2.8-.4 0-.5 2.7-2.1 0 0-.3 2.7-.4 2.5 1.5 1.6 2.2-3.7 2.5-4 0-.1 1.4 1.4 1 1.5-1.2.1-.4-.1.2 1 .2-.3.3-.2.1.4-1.2.2-.8-.9-1.9.1 1.5-.5 0 .2 1 .6-1.6-.7-.6 1.5-.6 1.9-.1-1.2-.6-1.4-1.6-.7-.3.4 1.7 1.6 2 .8-.2.3-.3.7-.2 1-.3.2-2.9-.1-3.1.2 1.4.7-1.8 4.1-.6 4.5.4-.3.3-.8.5-.9-.5 1.1 3.4-1.1 3.1-.9-.2-.9-.5-.5.1-1.1-.4.3-.5 1.7-.7 1.7.6.6 1.4-1 1.8-1.2-.7.4.2 1.4.8 1.9-.6-.4-2.6-.7-1.3.4.2-.1-1.8-.2-1.1.3-.1.3 1.6.8 1.5.7.1.8-2.1-.3-2.3-.8.3.4 1.7 1.9 1.9 1.7-2.5-2.8-2.9-1.9-4.4.4 1-.1 1.6.2 2.4 1 .2-.1-.2-1.2.3-1.4.4.4 1.1 1.1 1.5 1.7-.7.2-.6.7-.7 1.3 1.8-.5 1.3-1.3 1.4-2.6.1-.2.6-1.4-.1-2.2 2.2.2.7 3.4.5 4.2.6.1 1.2-.3 1.8-.2.8.2-2 1.3-1.9 1.4.8.6 2 .6 2.9.9-3.5-1.3 6.8 5 7 4.5-.4.7-4.5 1-5.2.8 1.4.8 2.8 1.5 4.3 1.9-.9-.2-1.7-.3-2.6-.4 2.9-.3 1.5 1.8 5.4-.2 0 .7-.5 1-1.4.8.7 1.5 2 2.5 3.7 3-.1 0-.6-1.3-.1-1.8.7 1 1.8 1.6 3 1.7.8.1-1.7-2.5-.1-2.8-.8.2 3.2 1.7 3.3 1 .4-2.9-3.9.1-5.4-1.7.8 1-1.6-10.5-1.3-9.6 1.5-1.7 1.4-1 3.8-.5-.6-3.1-12.9-.4-15.3-8-.6-1.8-.7-6.2 1.5-7.5-.9.3-1.6 0-2-.9.4.2.5.1.4-.3-.3-.4 1.2.5 1 .6.3-.8 0-1.2-.8-1.3 1 0 1.7.5 1.7.1-1.6-1.6 2.9-6 2.6-8-1.2.1-2.4.4-3.5 1 1.6-1.8 3.1-.4 3.3-3.2 0-.3 0-6.4-.9-5-.1.1 3.2-.8 2.6-1-7.5-1.7 1.1-30 2.3-34.4 1.3-4.7 2.5-9.7 2.2-14.7-.4-6.6 1.4-5.3 3.1-11.3.1-.7 4.7-20 5.8-18.9zm-7.6 120.2c1.2-1.3-1.1 1.1 0 0 .1-.1-.1.1 0 0zm-2.3-5.8c.1 0 .3-.1.4-.1-1 1.1-1.7.2-.4.1.1-.1-.1 0 0 0zm-2.1.9c0-.1-.3 0 0 0zm-.6 2.4c0-2.5 1.7-.2 3.8-.5-.7.9-1.5 1.6-2.5 2.2.5.3 3.9 3.1 4.1 2.7-1.3 3-6.7-3.2-5.4-4.4 0-.5 0 .1 0 0zm4.1 1.9c-.1.3-.1.4-.4.4 0-.3-.1-.4.4-.4zM325.2 423.9c.9-2-1-2.9 1.2-3.7-.7-1.5-2.4-3.6-3.7-4.6-5-.8-10.8.1-4.7 4.4 1.6-1.6-.9-1.1-.4-1.7 3 2.6 5.5 5.1 5.9 4.9.6 1.1 1.3 1.9 1.7.7M377.8 292.8c-3.8-2.3-1.6-11.2-7.5-11.4-7.3 12-8 10.8-23.5 14.3-.2 3-5.1 2.4-9.2 3 1.6 4.7-9.9 9.2-14.2 6.9 2.4-2.6 5.7-12.5-1.3-8.3 4.2-5.3-3.6-11.5-5.8-4.7-2.9-1.2-4.2 9.7-5.2 13.7-4.2-4.3-.9-9.7.3-15-.9 1.8-1.8 1.6-3.1 3.1 1.5-2.9 2.5-4.6 4.5-5.3 1.1.1 7-.6 9.4-.9-2.8-3-9.6-2.2-15.5-3 .7-1.3 1.5-2.2 2.6-2.6-3.5 1.3-7.5 2.8-10.7 3.5-1.2-.7 1.6-1.9-3.8-.8l8.4-5.1c-32.6-4.7-73-4-109.6-4 .3 1.2.6.9 1.3 1.7-.6.8-1.5.1 0 2.4-.2-.8-.2-1.1-.2-1.5-.2-1.4.2.8.3.8 0-.3-.1 2.7-1.6 4.2.3-1.1.7-2.2 1-3.4l-1.8 2.1c.9-1.1 1.5-1.9 1.2-3.1-.7-.2-5-1-6.6-.9.7 2 1 4.5 2.1 6.3 1.1-2.3.3 0-.1 1.2 1.6-.2.5.2.2.3.1 1 .8 1.2 1.7 1.1-3.4 3.1 1.1 33.7 3.8 31.8 0 .2.7 2.5.3 2.2-.1-.9-.3-1-.7-.5 5.5 11.4 13.7 17.5 25.4 18.8 10.6 1.2 21.2.5 29.2 5.5 2.2 1.4 6.2 4.3 8.8 6.6.5.4 3-3.3 5.7-2.3 4.6 1.7 10.2 11 13.6 14.7 1.9-6.7 2.9-8.5 9.3-13.1h-.1c6.6-.9 12.9-.4 17 2.2.5-.3 1-.6 1.6-1-.6-.6-1.2-1.3-1.9-1.9.2.6 1.3-1.4 1.3-1.6-.6.1-1.7.3-1.9.3 3.1-1.2 6.7-2.8 5.7-.8 1.3-.4 4.5-1.7 2.7-.4l3.3-.3c.6 1.5 2.9 2.9 5.4 2.2-2.4-.9 2.3.2 5.1 2.5 1.3 1 1.5 3.5.9 5.6.1-.3 0-1.2.3-1.3.3.7.5.6.9.4 0 1.7-.1 1.8.5 3.9 0 0 .7-.8.7-.7-.5 2.2 1.6 5.9 5.5 5.8-.5.5-1 1.1-1.5 1.6l2-2.2c-.2-.1.1-.7.2-.8-.4-2.5-1.2-7.2-1.5-8.5v-1l.1.6c-.1-1.3-.2-2.5-.5-.5-2-9.4-2.9-9.4 4.5-15.5 4.4-3.6 8.5-7 12.7-9.9-2.5 1.6-2.7.5-4.8.9 1.4-.2 2-.6.3-1.4 1.6 0 2.5.9 3.6-1.8-.9.1-1.2.3-3-.2 1.6 0 1.8-.4 2.9-.2-.2-.9-.4-1.8-.5-2.7l1.5 5.1c-.2-4-2-4.4-3.6-6.3-1.4-1.7.9-.1 1.1.1.1-.5-1.4-1.7 0-1 .1-.9-.4-.9-1.1-1.6.4.3.5.4 1.1.4 0-1.2-1-2.4-2.5-3.2.7.6 1.5 1.2 2.3 1.6 0-3.9.1-3.6.8-5.8-.9 2.6.1 2.4.1 3.7.2 1.3.9 2.2.3 5.5 1.6-1.7 2.2-3.8 3-5.7v.1c-.4-1.2-1-2.5-1.6-3.8 1.6.6 1.5 1.8 1.9 2.5l3.2-5.8c-1.5-.8.8-.7 2.6-.7l-.9.1c1.8-.4 3.5-1.1 5.2-1.6-.4 0-1.5.3-2 .5-.3 0 .7-.7.8-.7-1.4.3-3.4.7-5 1.1 2.3-.7 6.3-2.2 8-3.6 0 .5.5.3.7.3-.4.2-.5.5-.5.8.7 0 1.3-.8 2.2-1 0 0-.2 1.4 2.1.8.1-1.2-.7-1.8-.8-2.3-.1.1.5.9.3 0-1 .7.7.7.4 1.2-7.9-2 2-8.5 4.1-11 .2 1.4.4.9.5.9.7.4 3-.3 5.6-2.2"/><path d="M422.7 280.2c-.5-1.7-1.1-.6-1.6.4.3-1 .5-1.9.8-2.9-.8.7-1.7 1.9-2.2 2.5-.2-.2-.4-.2-.4.1.5-1.3.2-2.3 2.2-4.5-.7 0-1.7.2-2.7.5.3-.9.3-1.4-.8-1.6l1.8-1.8c-2.2 0-2.8-1-3.3-1.2-1.2.7-1.6.9-2.7 1.5.5-2.2 0-.7-.6-.6.5-1-.2-.6-.7-.1.4-1.5-1.2-.6.6-2.5-2.1.6-2.1-.2-4.3.9 1.8-4 6.8-7.7 4.5-9.2 2 0 1.1-.3-.3-.7.7 0 .6-.1-.2-.4.8-.3 2.5.4.3-.7 1.9-2.1-.1-3.7-1-4-.9.4-2.8.5-3.4.7-.2-2.7 1.8-2.1-3.1-2.5.6.1 1.3.2 1.9.2-3 .6-6.1 2.2-8.3 3.2.9-1.7 5.2-4.1 7.1-4.6 1.4-.1 2.3.1 3-1-2.2-.2-1.9-1.3-2.2-1.5-3.4-.7-3.7-.7-7-.8.4-.4 1-.3 1.1-.9-2.5.8-2.4.3-3.1.5 1.1-.7 1.7-1.3 1-1.9-.1-.2-.3-.1-.1-1.4-1.2.2-1.5-.3-3.8-.2.6-.2 1.2-.3 1.8-.5-.3-.2-.2-.2.1-.3-1.2-.7-2.3-.4-3.6-.9.6.1 1.8.4 1-.3.2.4 1.5-.1-.9-.3-.4-.5.9-.3 1-.6-3.7-.9-1.3-.8-1.3-1.2-1.3-.6.7.2 2.7-.5-.3-.8-1.3-1.1-2.7-1.7.5.4.4-.9-1.7-1 2.7-1.2 1.3-1 3-1.4-2.1-1.5-1.1-1-3.2-1.1 2-1.6 0-.8-1.4-.9 1-.6 1.5-.2 1.7-.9-.6-.3-.6-.5 0-.6-.7-.1-1.4-.1-2-.2 1.5-2.4-.1-2.1-2.5-2.7l1.9-.7c-2.1-1.8-2.4-4.3-4.9-6.4-.6 2.4-.6 1.9-.3 3.6-.8-.1-.9-1-1.8-.2 0 1.7.9 1.2 2 2.2l-2.1-.6c.2.4.4.7.6 1.1-1.6-.4-1.5-.2 0 1.1-.7-.1-.8.1-.1.7-1-.8-1.6-1.1-.8.4-1.8-1.5-.8-.2.2 1-.9-.4-.6-1.1-1.8-1.1.9.9.3 1.2.5 2.1-1.9-1.2-5.1-.4-6.3.5-1.1-2.3-4.4-2.7-6.9-2.3.7.1.9-.2.5-.9 1.9 2 .8-.1 1.3-.5 1.4.2 1.4.1-.3-.3.8-1.5.1-3-2.8-4.1 3.1-.2 3.6-2.6 2.7-5.8-.8.8.2 1.2-1.4 1.6-2.7-1.7-5.8-5.1-9.4-5.5.1-3.5-3.9-3.1-5.8-1.4-16.6-4.7-5.1 2.7-13.4 7.7 3.1.3 4.3 1.8 4.4 4.1-1.1 1-1.5 2.3-1.4 2.2-5.5 2.9-1.9 4.8 1.4 8.3 6.4 6.8-2.3 11.1-7.8 14.5 1.9 2.4 4.4 10.2 2.3 14.5-1 .2-.7-.2-2.6.8-7.4-5.2-7.2-9-8.3-17.6-2-.4-6.8.5-9.7-.3-7.2-2-16-13.4-25.2-8.1 2.9-4.7-.5-10.9-5.1-8.8.9-6.9 2.4-14.1 2.6-16.3 1.1.1 1.4 1.2 2.1.1-.6-1.3 0 .1.3-.9-.3-.2-.7-.4-1-.7 1.6.4 1.2.3.9-.7 2.6 1.5 1.1-.4 1.2-.3l1.8.1c-1-1.1-1.3-.8.8-1.2-.6-.3-1.3-.5-1.9-.8 1.1-.3 2.2-.2 3.3.1 3.6-1.7 2.8-3.2-.8-4.6 3.6 1.5 5.5.6 5.6-2.4 4 2.4 6-1.8 9.9-5.2-3.8-1.2-7.7-2.5-11.5-3.7.7.1 3.4.7 1.7-.5 3.9 2.4 10 5.1 13.2-1.3-.9-.5-1.9-.9-2.8-1.4.4-.2 2.7-.7 4.3-.8-.9 5.4-1 10.2-4.4 14 1.4-.4 2.8-.9 4.2-1.3.3 6.2 7 2.2 6.9-.5-.1-2.1 8.7 2.4 11.3.9-.7-.3-2-1.6-2.5-2.1-1 .8-1.6.3-3.3.7.6-.4 1.3-.8 1.9-1.2-3.6-1.6-8.5-7.2-11.3-5.1-1-1.5-1.7-2.6-2.1-3.7 1 0 2.1.4 3.1.5-.8-.3-1-.7-.6-1.2.7.3 1.8.9 2.5 1.4-.6-1.1-.9-2.3-1.1-3.2 2 2.5 2.7 1.6 4 2.2-.5.2-.9.1-1.2-.3 7.2-2.6 5.1-6.6 4.1-10.6-.7-.2-.4.6-1 .2-.3-1 .3-.6 1-1 0 0-2.2-.4-2-.4 1.5-.4 2.9-.9 4.4-1.3-.2-1.9-.9-.5-1.5-1.5.1-.1 1.6-1.3 1.5-1-.9-.4-2.4-1-3.3-1.3.7-.5-1.2-.7-2.5-1.2 2 .3 3.3.9 5.1.9-.5-.5-1.6-1.2-.5-.4-.6-.1-1.1-.3-1.7-.4 0-.5.4-.7 1.2-.4-.8-.7-2.4-1-3.3-1.7 4.5 2 8 5 11.4 2.4-2.6-.7-5.4-1.7-8-2.1 3.2.5 6.4 1 9.5 1.5-.9-3.5-4.8-4.3-7.4-4.9 4.5 1.2 10 .8 11.2 5.6 1.6-1 1.5-.1 2.6.3-.8 1.1.3.5 1.4-.2.2.3.3 2.8 2.7 3.8l-3.3.6c-.3 5.5 2.7 10.9 10.7 4.8-1.2-.3-3.4-.6-3.9-.7 0-.7 0-1.4.1-2.1 1.9 1 1.4-.5 1.4-.4 3.1 2.8 8 6.6 3.4 11.1l2.7.6c-4.5-.7-8.4 1.9-4.5 6.3-3.5 0-16.2-1.7-15.4 4.1.5 3.3 6.3 2.1 9 2-.6.4-.5-.8-.6-.9 2.8 0 2.7.2 4.3-.3 3.2 2.4 5.2 3.1 9.7 5.1-1.8.3-1-.2-.5.5-2.7-.4-.8.6-.9.6 7.3 2.1 12.2 5.9 19.7 7.5-.5-.7-.4-1.2.3-1.5-4.6-3.3-6.3-4.6-10-8.2 1.4.6 2.8 1.3 4.2 1.9-.2-.6-.4-1.2-.6-1.7 3.4 3.2 6.3 3.9 9.3 6.4.1-.3-.8-1.6-1-2 .9-.4 1.4 1.3 2 .1-.3-.8-1.5-3.6-1.9-4.5.9.7 1.3 1.4 1.7 2.3.9-1.7-.1-3.5-2.8-5.1.8-1.3 1 .5 1.1-1.3-.9-.9-1 .1-2.1-1.8-.6.1-.6.4 0 .9-.7-1-.9-.4-1.9 0-.2-.7 1-1.2-.8-2v1.5c-1.2-2.7-.4-1-2.4-3.1.4-1.4.4-.2.6-1.7-1 .4-1.2.1-2.4.8.9-1.8.1-1.6-1.1-2.3-.1-.4.7-1-1.1-1.6 3 1.9 2.2.9 4.8 1.7-.3-.3-.2-.6.1-.8-.9-.9-1.8-1.8-2.8-2.6.9.5 1.3.7 2.6 1.2.2-1.5-.5-.8-1.2-1.6 1.1.4 2.3.9 1.4-.4 1.4 2.3 3 3.2 5.5 1.8-.5.7-1.1 1.5-1.6 2.2 1.4-.8 3.6-1.3 4.7-1.9-1.1 1-2.2 2.1-3.4 3.1.1.1 1.5.6 1.8.1-.4.3-.8.7-1.1 1 .5-.1 1.1-.2 1.6-.2-.3.3-.7.6-1 .9.6 0 1.3.1 1.9.1-1.2 2-.4.7.8 0 .8 1.5.7 1.9 2.2 2.9.9-3.5 1-3.2.6-5.3.9.5 1.8 1 2.7 1.4-.3.3-.5-1.2-.5-1 .5.1 1 .1 1.5.2.1-1.3-.7-.6-1.4-1.2h2.7c-.6-.4-1.2-.8-1.9-1.2.4 0 .8.1 1.2.1-.6 0-1-1.1-1.2-1.2 1.9.9 1.2.3 3.2.5-.3-.6-1.4-1.3-1.5-1.8 1.1-.6 1.8 1.9 2.1-.3-3.2-1.9-2.3-2-4.9-.2-.9-2-1-.7-1.9.2 0-1.3-.3-1.3-.6-.4.6-1.2 1.6-1.9 2-3.1-.8 0-2-.1-2.6-.1.4.2 1.5.4 1.1.9-1-.3-2.6-.1-3.9.3.8-.2 1.6-.3 2.2-.8-.9.1-1.8.1-2.7.2 1.7-.2 1.7-.3 0-.7.8-.1 2.1 0 3 .1-.3-.4-.2-.8.4-1.1-1.5-.6-3.1-1.5-4.2-1.9-.1-.2 1.1-.3 1.1-.3-1-.4-2.3-1-3.4-1.6.1.3-.8 1.5.8 1-.9.2-1.1.2-1.5.9.1-.5-.1-1 .2-1.5-.6 1-.9.7-2 .4.4-.5-.8-1-2.8-1.8 1 .1 1.6.3 2.4-.2-2.3.3-2.1-.4-2.7-.6 1-.2 1.6.1 1.7-.5-1.9.1-3.9.2-5.8.3l.7-.3h-1.5c.7 0 2.4-.1 2.8-.3-1.5-.4-3-.7-4.4-1.1 2.3.4 4.6.6 4.7 0 1-.3 1.7 1 1.5-.4-.9-.1-1.7-.3-2.6-.4.2-.4.4-.4.6 0 .5 0 1-.1 1.4-.1-1.8-1.2-2.4-.4-4.2 0 .8-.4 1.9-.8.3-1.2h2.7l-4-.1h8.7l-10.6-1.8c3-.3 5.9-.6 8.9-.9-.9-1.2-1.9-2.3-2.8-3.5-1.5 1.8-4.2 1.7-6.3 3.3 1.6-.8 3.3-1.6 4.5-2.8-1.8.5-3.6 1.1-5.4 1.6.7-.4 4.8-3 6.1-3.9-3.8-1.2-3.6 0-5.5.6-1-.2-.2-1.3-1.2.1-.5-1.9.7-1.4 2.1-2.1-1.5 1.1-3.4 1.8-5 2.7-.2-.1-.4-.3-1.4-.6 1.2-.8 2.5-2.7 3.5-3.6-1.9 1-4.2 1.3-6.3 2.6.6-.3 2.5-2.8 4.4-4.1-3.4-2.7-5.9-1.6-7.3 2.1.2-.6.2-1.3.8-2-.1 0-2.3.8-1.9 1.2.1-1.8 1.5-1.3.3-2.8-.5.7-1.1 1.4-1.6 2.1.8-1.5.1-1.3 1.9-3-2.9 1.3-1.3-.4-3.7 2.4-1.1-1-.3-1.1.2-2-3.8 1 .1-.6 1.6-1.2-3-.7-1.6-1.3-5.1-.1.1-.3.9-.8 1.5-1.1l-3.6 1c1.6-.6 3-1.6 4.5-2.4-1.8-2.6-2.8-1-4.9-.4 1.1-2.8-3.6-1.6-6.9-1 1.6.8 3.3 1.7 4.9 2.3-1.6-.5-4.3-.5-5.8-.9 1.8 1.2 3.9 4.7 1.8 2.2.8-.4-.5-.2-2.1-.8.4.4.8.9 1.2 1.3-1.9-2.4-2.4-2.4-5.4-4.2.5.7.9 1.5 1.4 2.2-2 .7-2.9 1-4.2.7.7-.7 1.3-.3 1.9-2.6-.6.6-1.5.5-1.9.4 7.2-5.2-4.4-9-9.8-7 1.2.6 1.4 1.1 2.8 2-1.4-.4-6.9-2.3-3.5-.7-1.6 0-2.1-.8-3.4.3 2 .8 4 1.8 6.1 2.3-2.4-.6-5.4-1.2-7.3-.9 1.4.2 2.5.9 3.6 1.3-1.3-.3-2.5-.6-3.8-.8-.9 2.8.4 1.7 1.8 2.4-2.8.5-.5 1.6 1.2 2.4 2.9.1-3 0-4.5-.3.7.3 1.5.5 2.2.8-.2.1-.3.2-.2.4-.6.1-1.2.2-1.7.4 1.7 1 3.6 2.7 5 3.3-14-2.2.3-11-1.8-14.7-1.4-2.4-13.8 3.4-13.7 6.3-5.4 5.1-2.2 10.1 6.2 11-2.2-.5-4.8-.2-7.1-.3.9 1.3 4.2 4.4 4.2 4.5 4.9-.8 9.1 1.6 10.4 5.4-1.4.5-1.3.1.5.6-1.5-.3-2.1-.9-.6.3-.9.3-.1.6 1 1-2.9-.1-10.3 16.2-11.3 2.5.3 0 1.2-.1 1.7-.3-1.8-4.4-5.4-6.8-6.6-2-.3 1-1.1 1.9-2.2 1.9.6-1.7-.2-3.4-2.8-5.2.9-.2 1.1-.1.7.3.6-.8 1.4-1.3 2.3-1.4-1.7-.3-3.1-.1-2.8-1.1-2.6.7-2 .7-4.6-.3.8-.5 1.6-1.1 2.4-1.6-.5-.7-1.1-.8-1.7-.2.9-.3 1.6-.6 3-.5-.4-.7-1.6-1.6-2-2.4.2.4.4.5.8.4-1.5-.8-2-1.5-3-2.1.2-1.7-3.6-9-4.7-9.8 8.3 1.9 9-4.5 13.2-7.5-3.1-.1-5.8-.7-7.8-1.3 2.7-.4 2.5-.2 4 .1.2-1.3-.7-.5 1-1.5.1.3-.4.8-.5 1.1 2.8 1 5.3.9 6.1-.9.6.1.8.5.7 1.2.4-.7.8-1.2 1-1.6h.1c0 1.1.4.6.1 2.5 1.6.3 2.8-.3 4-.2-.7 0 1.8.5 2.3.4-.8.7-.6-.7-.6-.8 2.2.4.3.9 2.1 0 1.5.1 7.6 1.6 8.6-1.8 2.1 2.4 11.6 4.2 10.3-.1.1 0 .2 0 .1-.1 1 .3 2.2.2 3.5.4-1.1-.3-1.7-.7-3.3-.8.4-.2 2.6-1.3 2.9-1.7-1-1.1-.1-.7-3-1.3-.2-.1 1.5-.4 1.4-.4-.5 0-.6 0-.3-.2-1.4-.2-2.7-.4-4.1-.6 5.9-2.4 12.1-7.7 3.2-5.1.4-.2.9-.5 1.3-.7-1.5-1.4-2.5-.5-4.6.1-.2-1.2-2.8-1.4-5.8-1.4.7-.1 2.4-.1 3.2-.2-1.5-1-2.1-.5-2.5-2.2 3.6 3.6 10.4 3 13.8.5-.9-.7-1.2-1-2.3-2 4.5-.8 7.5.8 9.2-2.5-1.6 0-2.7-.3-4.3-.5 2-.1 4.1-.5 6.1-.8-1.7-.9-3.2-1-5.4-1.2 2.2.3 4.7-.4 6.9-.5-.6-2.6-4-3.8-8.3-3.7 1.2-.1 2.4-.2 3.5-.3-1.7-.2-3.8-.5-5.8-.5 4.4-.1 6.9.5 11.1 1-1.8-1.1-.5-.6-.1-1.3-3.5-.4-6.6-.5-10.1-.3.5-1.1-.8-.2-1.7.5.8-1.2.9-1.9 2.9-1.1-.1 0-.7-.9-.7-1 1.4.2 3.1.4 5 .8-1.1-.3-3.5-1.3-4.1-1.4 1.2.3 3.2.5 4.3.7 1.5.3 2.4 1.2 2.9-.5 2.8.6 3-.4 5.8-.1-1.2-.9-2.5-2.2-5.2-2.4 1.1 0 2.2 0 3.2-.1-.1.4 1.2.3 2.7.3 1.3.4 4.4 1.1 6.8-.5-.6 0-1.2-.1-1.8-.1.5-.2 2.5-.8 2.8-1.5-2.2.3-4.6 0-6.8.3-.1-.4 1-.3 1.3-.4-.6-.3-1.1-.6-1.7-.8 1.1.3 5.3.4 4.7.3 1.3-.3 2.4 0 3.5-.6-1.5-1-1.5-1.5-2.9-2.5 3.2 3.6 17.8-4.2 21.1-7.6-4.3 1.2-9.1-.3-14.1.3 1.4 1.2-2.2-2.1-2-1.8 3.9 1.7 8.7.6 13.7-.1-.6 0-1.5.1-2.4.1 3.4-.6 21-4.4 12.4-5.9-1.7-.1-2.9 0-4.6.4 2.1-1.6.3-2-1.8-2.2 1.3-.3 1.4-.2 1.9-.6-.8-.1-5.2-.7-4.1-.6.3-.2-1.5-.1-1.3-.1.6.6 1-.2-.4.4.5-.1.7 0 .7.3-1.1-.3-.8-.5-.7.4-3.4-.8-7.6.5-10.5.5 2.7-.5 5.2-1.4 7.4-2.4-3 .4-5.3.1-8.2-.1-1.1-.1-2.1-.1-3.1.1.1-.6.4-.5.5-1.1-2.2-.2-4.2-.1-5.9.2.4.3 1.6.9 2 1.2-3-1.3-5.7-2.1-9-.4 1.5.9 2.1 1.3 3.6 1.9-.4-.1-.5 0-.1.2-.1 0-.1.1-.1.1-5.2-3.5-10-3.3-15.7-2.7 1.6 1.1 3 1.4 4.5 1.9-.3-.5-.6 1 1.8 1.4-.4 0-.5.1-.5.3.5-.1-1.3.3-1.4.4-.2-.7.4-.4.6-.3-2.6-2-6.4-3.2-7-2-2.5-.6-3.8-.5-7.3-.8 0 .2-.1.2-.4.1.7.2 1.5.4 2.2.6-.1.2-1 .3-1.1.2 1.7.9 3.3 1 5.1 1-1.7.2-3.3.1-5-.1.4 0 .6.1.6.4-1.7-.5-3.4-.7-5.5-1.4 1.4.7 2.1 1.3 3.2 1.7-.3 0-.4.2-.1.4-2.6-.6-3.7-.5-5.7-.5.9.4 2 .6 2.7.9-1.4.2-3 .7-3.9.9 2.8 1 5.2 2.3 7.1 2.8-2.6-.6-6-1.2-8-1.5 1.1.4 2.4 1.1 3.8 1.6-1.1.1-3 0-4.2-.2 0 0 1-.5.7-.6-2.8-.9-5.3-1.9-7.7-2.1.5 0 .9-.1 1.4-.1-1.5-.3-1.8-.1-3.4-.3.2.1.2.1.2 0 .6.7 1.1.4 1.4 1.1-1.5.1-3.8.9-5 1 2.8.4 5.6 1.5 7.6 2.4-.8-.3-2.4-2.2-.8 0-1.1-.3-1.8-.8-3-1 0 .1 1.1.8 1.1 1.2-2.2-.9-3.1-1-5.2-1.5.4.4.2.4-.5.5-.1.1 1.4.6 1.4.6-2.1-1.5-4.8-1.8-7.8-.7-.1.6.8.5.6 1.2-.7-.1-.5-.9-1.7-.7 0 .1.4-.1.2.9-3.2-1-.5.1-1.2.6-3-.9-5.5-.7-6.9.2.3.3 0 .4-.7.5 3.1.1 5.4-1 8-.1-1.7.3-5.4.6-3 1.8 2.6-.7 7.2-1.8 10.4-.7-2.1-.3-3.3 0-5.5.1 0 .2.5.2.6.2-1.2.2-2.7.5-4 1 1.1.2 2.2.4 3.2.6-1.7.4-3 .6-4.5.6 3.2 3.4 13.8-.8 18.4-.8-5.2 1-10.4 1.9-15.6 2.9 5.9 4.3 16.5-.5 23.3-1.9-2.5 1.4-9.2 3-14.2 4.3 1.7.5 1.9.3 3.7.1.2 1.9 5 .5 8-1.6-1.3 2.5 2.6.9 4.8.2-1.8.6-3.6 1.1-4.9 2.1 3.5-.5 11.8-1.1 11.2-4.3 3.1-.9 7.1-2.2 9.8-2.4-2.4.9-5.3 2.8-6.9 3.9 3.8-.3 8.9-.8 12-.5-5.1.9-10.2 1.8-15.3 2.6l5.9.2c-.8.6-3.1-.1-.6.8-5.2.6-10.4 1.1-15.6 1.7 3.6 1.6 7.2 3.2 10.9 4.8-2.2-.5-21.7-5.9-22.2-3.7-.6 2.9 1.5 2.7 4 3.1-2-.6-3.4-.5-3.7.6-.8.4.1.6.8.7-1.1-.3-1.7-.1-1.9.6-.5-.3-1.7-.2-2.1-.2 3-2.7.1-1.4-.2-1.9 2.1-3.7-7.3-.1-6.5-5.1-.9-.2-1.9-.4-2.8-.5 0 .5 1 .3 1 1-5.6-2.1-8.1-8.9-14.7-7.3 1.5.3 2.7.6 4.3.8-.4.2-.4.3-.1.4-1.1.3-2.4.7-4.1.9 2.7-.4-3.7.8-3.3.3-1.4 1.5 1.2-.1 1.1.6l-1.6.3c2.5.4.9.6 4 .9-.3.4-.1.4.7.2.1.2-1.1.1-1.3.2.2.1 1.8 1 2.2 1.3-2 .4-4.9.4-7.5.1l2.4.9s-.6.1-.4.1c-3.3-.4-1 .9-.5.5l-3 .1 4.4.6-1.5.4c1.7-.1 3.1.2 4.9 0-2.7.3-.6 1.1-.8 1.5-3.2-.3-6.5.3-6.5.3-.1-.2-1.5.5.6 1.1-1.5-.2-.7 0-2.1 0 3 1.4 5 2 7.9.7-1.2.4-3.3 1.5-4.5 1.9.1.5 1.8 1 1.8 1.1 0 0 .4.4 0 .5 1.1 0 2.5.5 3.6.7-1.6-2.8 0 .1-1.1-.9 0 0 2-.3 2.4-.5 1.1-2.6-1.7 1.7-1.2.9 1.3-.3 7.9-1.8 4.8-.9l5.1-.1c-1.2.4-2.3.6-3.5.6 0 0-1.4.2-1.8.5 2.6.2 5.3.2 7.9 0-4.6.8-8.8.3-13 2.1 1.4.6 2.8 1.3 4.3 1.9-.2 0-1.9 0-2.6-.1 1.9.6 4.5 1.7 7.4 1.8-2 .2-3 .2-4.6.3.4.3.8.5 1.1.8-7.8 1.7-7.6-12.3-16.2-7.1-2.1-4.1-8.5-5.4-10.5-1.4 1.1 0 2.2.1 3.3.1-.3.6-.6 1.1-.9 1.7 1.5-.6 2.3-.6 3.5-.9-.3.4-.6.9-1 1.3.9.1 2.3-.4 3 .2-.7.4-1.4.8-2.1 1.1 1.5.3 1.4-.6 1.9.8-1.7-.1-3.4 0-5.1-.1 2.6 1.5 3.5 1.9 7.4 1.5-.6.3-1.1.7-1.7 1 5.9-.9 8.1 2.5 14.4 3.8 5 1.1 5.8-2.1 11.9-.6.8-.5-1.7-.9-1.6-.9.3-.1.4-.1.4.1 1.8 0 2.6.5 4 1-.8-.9-1.6-2.6-1.9-3 1.3 1 2.5 2 3.8 3 1-2 .7-1.8.4-3.3.9.3 1.3.7 2.5.8.1-.3.1-2.7-1.2-1.2.3-.9 1.1-2.4 2-3.3-.1 1.5.2 2.1.3 3.4.7-1.1 1.6-2.2 2.2-3.1 1.9.2 4.4-.8 7.1-1.5-.7-.7-1.4-1.5-2.1-2.2 2.8 2.8 4 3.8 6.9 4.7-1.4-.3-4.9.2-4.1.3-3.3.1-12 1.1-8.7 4.9-.8 1.8 2.2.7 4.9 0-.5.6-1.5.5-2.1 1.2 2.5-.9 3.6-.9 5.6-3.2-1 1.6.2 1.1.3 1.3-2.3 1.5-.1 1.4 1.7 1.3-1.4.2-2.3-.2-3.4.5.1-.2 2.3.2 2.2.2l-4.2.9c.5-.1.7.1.7.4 1.3-.1 2.6-.1 3.8-.2.1 0-2.6.5-1.6.1-.6.1-1.3.2-1.9.3.4.1.8.1 1.4 0-.8-.4-.9 1-1 1.2.5-.1 2.4-.6 2.6-.6-.5.5-2.4 1.3-3.4 1.7 4.2.6 7.9-1.1 10.2-3.4-.8 1.3-3.6 3.7-3.8 4.7-.5-.1-4.7-.7-2.8 0-3.4-1.4-7.4-5.7-11.9-3.6-1.8.8 1.6 3.4 3.6 3.5-.7.1-2.4.9-.1.6-2.5.7 0 .5.6.5-.3.3-1 .3-2.5.3-1.9.4-6.5 1.7-10 .5 1.4-.1 2.4.1 3.7.3-2.9-2-7.5-1.7-10.1.5 3.3-5-9.3-4.3-10.7-3.7-.6.1-2.8.3-1.1.8-1.2.5-1.6.1-1.6 1.7-3.4-2.1-2.2-.6-6.2-.4 1 .4 1.9.7 2.9 1.1-.7-.1-.6-.2-1.4.2 1.2.3 2.5.7 3.7 1-.9.4-1.1.4-.7.1.1-.1-2.3 0-2.3 0 .6.4 1.3.8 1.9 1.2-2.5-.1-6.4 1.2-5.4 1-2.2-.3-3.3-1-4.3-2 1-1.1.5-1 2-2.3l-3.9-1.8c-.2-.4-1.1 2-.7 1.7h1.7c-1.4 1.3-3.1 1.9-5 2.2l5.9.2c-1.4.3-2.7.6-4.1 1 .5 1 1 .4 2 .5 0-.2 1.3-.6 2.6-.7l-2.7 1.6 3.9-.9c-.2 1.4-.4.7-1.5 1.2h.3c-.5.8-2.6-.3-.6 1.4 3.3-.4 6.6-.9 9.8-1.3-1.7 1-2.6 1.9-3.3 2.3l.1-.1c0 .1.4.3 1.5.4-.3.8-.1.3-1.2.8 2.5 1.6 5.4 1.6 8.5.5-.3-1.8-.1-.6-.7-1.6 1.7-.3 1.2 0 .7-1 1 .3.8.3 2.2.8-1.1-1.8-.3-1.3-2-2.4 0-.5.7-3.7.8-4.6.7.3 1 0 1.8-.2-.2 1.3-.8 1.8 2.6 2-.5.1-1.4.2-2 .2 3.7.3 8-.7 9.8 1.7 4.7 6.1-7.8 1.6-5.2 4.3l-.6.2c.2 0-1.2-.4.1.3-.7.2-.8.3-.1.3-1.3.6-1.7 0-2.2 1.7 1.8.6-.1-.1 1.8-.1.5 1.1 1.6 1.4 2 1.4.9.4 1.9.2.5 1.3-1.3 0-4 .7-5.1 1 1.2 1.3.7.5 2.4.8-9.4 1.2 2.3 9.8-4.9 11.8 2.2-3.6-1.6-3.2-5.6-5 .6-.4 4.1-2.7 4.2-2.8-.7.7-1.4-.3-1.5-.4 1.2-.4 1.7-.1 2.5-1-4.3-.5-9.7-1.4-10.3-.6-2 .1-5-.6-2.6 1.5-1 .2-1.9.5-2.9.7 1.3.3 4 1.6 5.6 1.8-.6-.2-1.1-.4-1.7-.6-.2.5-.3.9-.5 1.4 2.2 1 .8.3.7.4-.6 1-10.7.2-6.3 3.2 3 2.1 9.8 8.5 13.9 6.1-.3-1.1-.9-.4-.9-1.7 7.2.7 1.7 4.4 5.3 7.3 3.3 2.7 7.9.9 7.5 4.6.5.2-.1-.9-1.4-1.4-.7 1.2-.7 1.9-1.3 3.2.8 0 3-1.2 2.9-1.1 1.7 4.8-8.1 3.8-5 9.6-1.9-.6-.4.3-3.1 0 1.1-2.3-.4-.7-1.3-1 2.1-1.3 2.7-3 2-4.7 1-.7 1.6-.9 2.8-1.6-2.3-.8-1.1-1-2.9-2.2-.1.5-.2.9-.4 1.4-1.7-1.9-4.6-2.7-6.4-4.6-.3.4-.7.7-1 1.1.4.3.7.7 1.1 1-.5-.2-1.1-.4-1.6-.6-1.2 1.2-.1 1.9-3.4 3.3 1.9.6 3.7 1.9 5.1 2.3-2.9-1.7-.7.6-.9.9 0 0-2.1-.4-.3 1.6-6.6-.5-14.4-2-20.1-1.4-.6-.4-2-2.1-4-4.7 1 .8 1.9.7 2.4.6-.1 1.9 7.4-.1 10.8-.5-1 0-1.3-.4-.7-1.1-1.9.3-2.8 1-4.1 1.3-.3-1.8-.2-1.5-.8-3 1 .2 2 .3 3 .5.7-1.3 2.7-1.4 5.2-.8-.6-2.5-8.1-6.3-6.5-4.6-2.9-4.5-5.7-9-8.6-13.6 1.2-.7 1.3-2.3 3.4-4.4-3.4-.9-6.8-.6-8.7 1.6-1-.4-2-.8-3-1.1-1.3 3.1 2.5 8.5.7 10.8-1.7-3.3-2.8-8.2-9.7-8.2l2.9 1.7c0-.1-1.9-.4 0 1.3-1-.2-1.6-1.3-.4.3-3.3-.1-3.8.1-6.8 1.4 1.1-.9 2.2-1.8 3.2-2.6-4.4-3.8-8.2-.6-11.6.2 3.5-5.6 11.1-5.8 16.9-6.9 2.7-.5 5.6-.2 7.6-3.2 2.2-3.2-2.9-6.1-4.2-1.6-1.2-.5-2.1-.7-3.7-1-.2-2.3.9.1-1-1.6.7-2.7-.6-2.8-1.6-5.3-1.9.7-4.3 2.3-5.2 3.7 1.4.5 2.1.9 3.5 1.2-.4.1-.4.2 0 .3-.9.4-1.7.8-2.6 1.2 2.4.9 3.1 2.1 3.8 2.6-7.7 1.4-13.1-4.7-20.9-6.5-.1-1.2-.1-2.5 0-4.1 5-1.5 1.7-.4 2.1-2.3.7 0 1.4-.1 2-.1-.6-.4-1.1-.7-1.7-1.1 4.1-.3 10.1.7 12.1-2.5-.9-.1-1.9-.3-2.8-.4.8-.2 4.2-1.8 4.4-1.8-.7-.1-1.4-.3-2.2-.4 1.5-.2 2.4.4 3-1.1-4.1-3.7-9.9-2-12.9 1.3 2 0 3.9.1 5.9 0-2.7 1.2-4.8.3-5.9 2.7 0 .1-1.8-.8-2-.9l1.8-.9c-3-1.4-2-1.6-5.4-.8 1.1.8 1.9.9 3 1.6.1-.1-2.1 1-2.1.7.5.3.9.6 1.4.9-7 1.9-13.7 4.7-20.6 8.3.1-.5 2.7-.4 0 .3 2.1 1 2.5 1.3 6.4.3.3.7.1 1.2-.6 1.5.1-.5 1.7-1.9 1.7-2.8 1.8 3 3.8 2.8 3.9-.6 4.1 1.2 2.3-2.1 5.9-3.4l-.6 3c1 .1 2 .3 3.1.4-1.8.7-3.2 2.3-4.9 3.1 1.8.4 3.8 1.1 5.7 1.1-1.7.2-3.5.6-5.2.9 1.1.2 1.1.6-.2.9 2 .1 4 .4 6 .4-2.6.3-6 .9-7.8 1.7 2.4-.1 4.8-.1 7.1-.4-8.6 1-15.3 2.1-24.4 1.9.9.9 1.4 3.4 1.1 2.8.8.2 1.6.5 2.4.7-2.1 1.9-.6.3-.8 2-.7.9-2 2-2.6 2.7.5.2 1.1.3 1.6.5-.9.2-1.7.5-2.6.7-.6 1.8-1 3.6-2.5 5.8 6.3.5 18.6 9 19.1-1.6.5.1 1 .1 1.5.2-1.4 3.6.9 1.9 3.5 2.1-.5.6.9.9-1.6 1.2 1 .5 2.3-.1 2.2 0 1.4 0 4.7.2 6.8-.1-.8.1-1.5.2-2.3.3-.1.2-3.6 1.6-6.7 2.1 3.3 4.5 18 3.3 22.5 4.5-5.9.5-12.9 1.4-19.4 2.1 1.5 2.2 2.6 2.8 5 3.8-1.3-.1-1.9 0-.4.7-10.6-2.5-19.8-4.5-27.7-3.4.6-.5 1.2-.9 1.8-1.4-1.2-1.4-1.6-.9-2.2-3.1-1 .6-.9.7-2.1 1-.1.7-.7 2.7-.8 4.1-3.4-2.4-5.6-4.4-8.7-7.2-1.3 1.5.4.6.5 1-1.6-.7 1.4 1.3 1.3 1.2-1.6.9-3.1 2-4.7 3 0-1-.7.2.1-1.5-3.1 1.7-5.8 3.9-7.2 2.5.1.9-.1.8-.7-.1.2.9-.8.8-2.2.7 1.2-.6-2.2 1.4-2.9 1.8 1.3-1.2 5.7-2.4 6.6-2.6.9-.6 3.2-2.4 4.9-3.5-.6-.2-1.1-.4-1.7-.6-5.5 1.3-9.2 3.3-14.2 5.8.5-.5.9-1 1.4-1.6-1 .2-1.8.2-2.4-.6-.8 1.3 0 .7-1.2 2.2-1.9-1.1-2.1-.4-2.3.6-1.5-1.8-.3.7 1 1.4-4.2.9-13.5-2.5-19-4.4V225c0 1.3 5.9.4 6.7 1.4 6.3 7.9 4.7 1.7 8.7 3 1.8.6 1.8-1.3 4.1 1.3 4.2 5 19.2 16.6 14.6 22 .7-.4 1.5-.8 2.2-1.3-1.8 2.9-.8 5.3 2.4 7.3.6-.8 0-1 1-1.5-.4 3.5.6 3.7 1 6.4 2.5.2 2 .3 4.4 0-1.5 2-2.3 3.5-.2 2.7-.7.7-1.7 1.6-.1 1.5-1.8.6-.1 1-2.6 1 .9 1.4 1.5.9 2.9 1.2-.1.3-1.1.5-1 1.6 3.1.6 3.7 1 4.8 3.3 1.9.4 2.1 1.2 4.8 1.4 1.1 1.8 3.7 3.1 5.4 1.5-.1-.2-.3-2.2-.4-2.8-.3 3.4 1.8 2.6 5.8 2.6h51.5c19.8 0 37.4 1.7 53.8 4 .7-.9 2.3-2 2.3-2.1-.4.1-.5.4-.3.8.5-.8.9-1.6 1.4-2.4.6.4.6.9.2 1.5.8-.2 1.8-1 2.9-1.2-.7-.2-1.4-.4-2.2-.6 3.5-.7 7.9 2.6 11.1 4-1.1 11.8 16.6 4 15.9 13.1-1.7-.8-3.9-1-5.6-2.4 2.1 4.4-2.1 10.1-4.5 12.8 4.6-1.2 9.1-2.5 13.7-3.7-.3-.2-.3-.4.1-.6-.7-1.6-1.1-.6-2.7-1 7.7-2.5 19.8-2.7 26.8-6.6 3.1-1.7 4.5-5.9 7.9-10.7 6 .2 2.2 6.7 5.6 9.8 3 2.7 6.6-1.5 10.4-1.9-.6.5-1.3 1.1-1.9 1.6 1.6 0 3.4.4 5 .1-3.4.1-6.4 1.5-9.6 4.1.6.3 1-.5.9 2.8.2.1.3-.8 1.2.9 4.4-3.2 5.6-4.3 15.4-7.8-.6-.1-1.1-.2-1.7-.2 1.8-.4 3.8-1.6 5.5-2.2-.7-.4-.6-.4 0-.9-.6-.6-2.2-.2-2.7-.3.5-1.5.8-2 .7-3.2-1.2 1.8-2.9 3.1-3.5 5.5-3.3-.3-7.4-.7-7.7-1.8-1.8-.9-2.8 0-3-2.2 2.9 1.9 5.5 3.5 7.9.6-3.6.9-6.3.5-6.6-2.4-.4.6-.9 1.1-1.3 1.7-1.4-1 .6-1.4-2.1-1.7l3-3.9c-1.9 1.2-3.2 1.7-6.5-.3 2.4-.1 4.8-1.6 7.3-1.9-.3-.5-.7-1-1-1.4 0 2.1-16.4 6.5-21 8.1 4.8-5.3 10.2-9.3 14.4-13.8 4.7.9 10.4 2.6 14.8 2.3-1.3-.7-2.5-1.4-3.8-2.2 5.1.7 12.4.4 13.9-3.5.4-.2 3.4-1.2 4.4-1.7-2 1.8-3.6 6.3-3.6 7.5.3.4.4.9-.9 0-1.1 1-.9 3.3-1.9 1.9-.2-.1-1.1 1-1 1 .9 0 1.8 0 2.7-.1-1.4.9-2.3 2.9-2.9 3.6 3.7-.1 7.4-.1 11.1-.2-.4.7.7-.1-.9.7 1.6.2 1 .3 2 .4.7-1.7 1.1-.7 2.9-1.2-1.3 1.1-2.8 2-4.2 3 1.3-.4 5.8-2.5 4.5-1.5.6-.7 1.2-1.4 1.9-2.1-.2 2.3.6 1.8-.5 4.2 1.2 0 1.2-1.2 2.1-1.4-.4.8-.6 1.4 0 1.1 1.3 1.8 2.5-.8 3.4-3.4zM169.6 248.7c-.5-4.9-8.9-10.5-12.5-14.7-6-7-4.2-4.4-8.8-5.7-3.1-.9-1 5.3-5.9-.9-2.1-2.6-5.9-2.5-6.5-3.3-2.6-3.8-2.2-9.5-2.2-16.4v-30.8c0-4.7-3.7-3.4-9-4-4.8-.6-9.8-2.2-14.4-2.9-2.2-.4-16.6-.7-12.8-1.5-.6-.7-2.1.2-.6-1.3-4.9-.2-10.2-2.1-10.1-.1-.2 0-2.1 0-2.4.1.2-.3.1-.5-.3-.5.7-.5 1.2.2 1.8-.8-1.2-.4-2.8-1.7-2.9-1.7-4.2 1.5-8.4 2.7-12.2 4.5.4.4 1.3.3 1.8.7-1.2 1-1.4.7-1.5-.2-5.9.7-17.6 6.3-22.9 12.6 3.7 2.3 7.4 4.5 11.1 6.8l-.5-.1c2.4 1 4.7 1.4 7.4 1.5-1.3 2.1 1.7 2.4 4.2 2.8-2.9.4-5.4-.5-7.5-2.9 0 .2-.2.4-.4.4 2.5 2.1 3.2 2.7 5.1 3.8-.9.2-1.7.7-2.7 1.1-1.1 0-5.3-.7-6.8-1.2.4-1.6.6-1.4 1.2-1.9-2.7.4-4.9.8-4.8.3-1.3.4-3.7 1.1-1.6 1.9-3-.2-5.7 1-7.2 3.2 1.8.5 3.5 1.2 5.3 1.5-1 .7-1.9.9-2.6 0 .4.5 1.3 2.4 1.3 2.4 3.7 1.7 7 2.3 11.2 2.3-.1-.5-.7-.9-.4-1.2.9.2 1 .9 1.5 1.7 2.5-2.4 3.7-2 6.2-2.7-.9.9-.8.8-2.1 1.8 5 4.2-1.7 5.4-5.5 7.2-3.5 1.7-2.9-.4-6 3.2-1.8 2.2-2.9 3.4-3.9 4.5.4-.1.8-.3 1.3-.4.8 1 1.4 2.1 1.6 2.2-.4 2.4 1.7 1.1-.4 3.5 1.7 1.9 8.1 5.8 9.9.8 1.7 4.1 2.9 6.2.9 8.6 3.5-1.7 7.4-2.6 10.4 1.1.1-.4 1.4-2.3 1.6-3.1 0 0 3.1.6 4.9.6-1.2 5.4-11.1 12.9-10.9 14.9-2-.1-1.8-.4-1.9-.7-1.9 1-6.7 3.2-7 3.4-.7.9-1.5.5-1.2 1.9 1.6-.8.1-.2.6-1.1 1.3 1 1.3.3 2-.1l-.2.4c.8-.3 2.1-.7 4.2-2.7-.2.4-.3.7-.5 1.1 3-1.5 5.2-2.2 6-.9 2.2-1.5 4.2-2.2 4-3.9.8-.2 1.5-.4 2.3-.7-.1-.5-.4-.5-.9-.3 1.2-.2.7-.4 2-.1 4.1-3.4 9.6-6.2 13.9-10.9-1-.4-2.1-.9-3.1-1.3 2.4-3.7 3.9-2 4.5-5.6 3.7-2.6 6.4-5.3 11.1-6.4-.6.5-1.2 1.1-1.8 1.6l2.7 1.8c-2.4-.4-5.1.7-7.5.6-.3.8-1.3 3.8-1.5 4.8 1.7 1.2 1.3-.4 2.8-.2-1.1.8-2.3 1.6-3.4 2.3 2.9-.1 3 .4 4.9-1.3-.2 0 1.3 1.1.6 1.1 1.1-1.3.8-1.4 1-2.3.3.3.7.6 1 .9.4-1.8 0-.9 1.1-2.2.1.4.2.8.4 1.2 1.7-.7 2.4-.8 4.9-.9-.3-.2-1.6-.5-1.4-.4.2-1.8.6-1.1-.6-2.7l1.2-1.8c.6 2.7.6.5 1.5-.8.7 2.1 2.2 1.9 4 .3-.6.9-.9 1.2-1.7 1.6 2.7 0 .7.9.7.9 1.5.4 1.5-.2 3.2.3-1.2.4-2.3.7-3.5 1.1 1.7-.3 4.4-.1 6.5-.6 1.1 2.8 7.5 3.1 10.9 1.5 1.4.6 3.6 1.3 6.4 1.1-1.2 3.7 8 8.5 11.5 7.4-.5-.9-1.5-1.9-2-2.7 2.1 1.1.8.3 2 .1 1.2 3.3.8 1.6 3.2 3.7-.4-1.8-.5-4.4-1-5.5 2 4.1 4.9 10.7 4.1 11.3.1-.4-.5 1.8.1 3.7-.1-.8.1-.9.5-.3.2-.8.1-1.5.3-2.4 2.4-.4 1.2.9 2.2-.5 1.4.7 2.1.9 3.4 1.9-1.8-.1-.8 0-3.1-.5-.5.6-1 2-1.6 2.4.7 0 .9-.5 1.9-.1-.4.2-.9.4-1.3.6.3-.1.5 0 .4.4.8 1.6 1.4-.9.4 1.9 1.2.6 1.7 1.6 2.6 2.7-.4-.7.5-.9-1.2-1.8.4.2.4-.1-.1-.7 1.5.8 1.6 1 3.5 2.3.4 0-.4-1.5.2-1.4.2.8 0 1.2 1 1.8-.3-1.9.5-1.5 1.4-3.1-.2 1.7-.6 2.7.8 3.8 1-1 1.6-1.8 2.2-2.7zM110.6 366.1l1.7.6-1.7-.6M110.5 359.1l-6.5.4 6.5-.4M73.1 349.3c-1.5-1.2-2.1.5-2.5 2.2l2.5-2.2M107 361.8c.5.8 1 1.6 1.5 2.3.4-.1.9-.3 1.3-.4-.9-.6-1.9-1.2-2.8-1.9M130.5 380.4c.1-2.5-3.3-5.2-6.4-8.2-5.1-5-2.7-.3-4.8 2.2-1.7 2 .4 10.7 3.1 10.3 1.8-.2 4.6-3.7 8.1-4.3M117.6 363c-2.6-1.6-4.3-2.8-6.6-.9 2.5 3.5 6.8 5 6.6.9M78.2 346.1l-2.1 3c1.3.5 2.7.9 4 1.4-.7-1.5-1.3-3-1.9-4.4M94.4 357.6c5.7 1.1 6.6-1.1 2-5.3-3.8 1.3-2.9 2.5-2 5.3M307.3 390.1c.6.2 1.3-2.3 1.5.8 1.9-5.1.1-4.9 3.6-11.2-2.9-.7-6.9 1-10.9 2-3.6.9-7.1 10.9-14.7 7.7-2.5-1-11-12.5-10.5-15 2.3-10.7 1.9-13.2-6.3-20.5-7.9-7.1-3.5-8-11.6-1.8-.4.3-10.8-8.9-15-9.6-8.5-1.4-24.2-7.3-33.1-5.5 2.8 4.2 16.6 18.8 9 20.4 2.2 2 4.4 3 6.6 4.4 4.1 2.8 1.2 5.1 4.1 7.6 7.3 6.2 9.6 3.2 5.1.7-2.4-4.6-16.3-20.9-14.7-25.8 1.7-5.3 11.8 11.4 13 12.9 3 3.7 4.5 7.8 8.3 11.7 3.2 3.3 7.8 6.7 10.2 10.6 1.3 2-1.8 2.6-.2 4.4 10.5 11.1 28.2 14.3 42.7 19.7.1-4 2-5.9 5.9-5.4-.6-.5-1.7-2.8-3.1-3.7 1.8-2.8 7.6-1.4 10-4.3M340.7 393.8c1.8-.3 3.1-1.3 5.4-.3-3.9-3.6-9.5-2.8-15.4-3.1 3.9 2.4 8.1 3.8 10 3.4"/></g><g><path opacity=".83" fill="#643F93" enable-background="new" d="M222.1 120.5H1135v501.4H222.1z"/><g fill="#fff" font-family="'ArialMT'"><text transform="translate(370.325 179.642)" font-size="32.623">Over 50 countries received international</text><text transform="translate(425.585 230.531)" font-size="42">grants totaling $18 million</text></g><g><path fill="none" d="M216.4 265.7h230.8v318.9H216.4"/><text transform="translate(296.536 279.436)" fill="#fff" font-family="'ArialMT'" font-size="19.286">Australia</text><text transform="translate(303.478 302.579)" fill="#fff" font-family="'ArialMT'" font-size="19.286">Austria</text><text transform="translate(310.036 325.722)" fill="#fff" font-family="'ArialMT'" font-size="19.286">Brazil</text><text transform="translate(298.85 348.865)" fill="#fff" font-family="'ArialMT'" font-size="19.286">Bulgaria</text><text transform="translate(290.364 372.007)" fill="#fff" font-family="'ArialMT'" font-size="19.286">Cambodia</text><text transform="translate(301.422 395.15)" fill="#fff" font-family="'ArialMT'" font-size="19.286">Canada</text><text transform="translate(311.45 418.293)" fill="#fff" font-family="'ArialMT'" font-size="19.286">Chile</text><text transform="translate(308.493 441.436)" fill="#fff" font-family="'ArialMT'" font-size="19.286">China</text><text transform="translate(304.765 464.579)" fill="#fff" font-family="'ArialMT'" font-size="19.286">Congo</text><text transform="translate(290.75 487.721)" fill="#fff" font-family="'ArialMT'" font-size="19.286">Costa Rica</text><text transform="translate(270.307 510.865)" fill="#fff" font-family="'ArialMT'" font-size="19.286">Czech Republic</text><text transform="translate(294.736 534.007)" fill="#fff" font-family="'ArialMT'" font-size="19.286">Denmark</text><text transform="translate(308.364 557.15)" fill="#fff" font-family="'ArialMT'" font-size="19.286">Egypt</text><text transform="translate(298.593 580.293)" fill="#fff" font-family="'ArialMT'" font-size="19.286">England</text><path fill="none" d="M448.4 263h230.8v318.9H448.4z"/><text transform="translate(533.873 276.767)" fill="#fff" font-family="'ArialMT'" font-size="19.286">Finland</text><text transform="translate(536.83 299.91)" fill="#fff" font-family="'ArialMT'" font-size="19.286">France</text><text transform="translate(527.059 323.052)" fill="#fff" font-family="'ArialMT'" font-size="19.286">Germany</text><text transform="translate(535.673 346.195)" fill="#fff" font-family="'ArialMT'" font-size="19.286">Greece</text><text transform="translate(534.773 369.338)" fill="#fff" font-family="'ArialMT'" font-size="19.286">Iceland</text><text transform="translate(543.901 392.481)" fill="#fff" font-family="'ArialMT'" font-size="19.286">India</text><text transform="translate(524.616 415.623)" fill="#fff" font-family="'ArialMT'" font-size="19.286">Indonesia</text><text transform="translate(535.93 438.767)" fill="#fff" font-family="'ArialMT'" font-size="19.286">Ireland</text><text transform="translate(542.873 461.91)" fill="#fff" font-family="'ArialMT'" font-size="19.286">Israel</text><text transform="translate(546.987 485.052)" fill="#fff" font-family="'ArialMT'" font-size="19.286">Italy</text><text transform="translate(531.816 508.196)" fill="#fff" font-family="'ArialMT'" font-size="19.286">Jamaica</text><text transform="translate(540.173 531.338)" fill="#fff" font-family="'ArialMT'" font-size="19.286">Japan</text><text transform="translate(536.444 554.481)" fill="#fff" font-family="'ArialMT'" font-size="19.286">Jordan</text><text transform="translate(539.273 577.624)" fill="#fff" font-family="'ArialMT'" font-size="19.286">Kenya</text><path fill="none" d="M679 262.3h230.8v318.9H679z"/><text transform="translate(758.872 275.989)" fill="#fff" font-family="'ArialMT'" font-size="19.286">Lebanon</text><text transform="translate(742.544 299.131)" fill="#fff" font-family="'ArialMT'" font-size="19.286">Luxembourg</text><text transform="translate(765.43 322.275)" fill="#fff" font-family="'ArialMT'" font-size="19.286">Mexico</text><text transform="translate(745.115 345.417)" fill="#fff" font-family="'ArialMT'" font-size="19.286">Netherlands</text><text transform="translate(741.516 368.56)" fill="#fff" font-family="'ArialMT'" font-size="19.286">New Zealand</text><text transform="translate(765.559 391.704)" fill="#fff" font-family="'ArialMT'" font-size="19.286">Nigeria</text><text transform="translate(756.943 414.846)" fill="#fff" font-family="'ArialMT'" font-size="19.286">Paraguay</text><text transform="translate(760.801 437.989)" fill="#fff" font-family="'ArialMT'" font-size="19.286">Pakistan</text><text transform="translate(749.872 461.131)" fill="#fff" font-family="'ArialMT'" font-size="19.286">Philippines</text><text transform="translate(766.201 484.275)" fill="#fff" font-family="'ArialMT'" font-size="19.286">Poland</text><text transform="translate(760.029 507.417)" fill="#fff" font-family="'ArialMT'" font-size="19.286">Portugal</text><text transform="translate(759.001 530.561)" fill="#fff" font-family="'ArialMT'" font-size="19.286">Romania</text><text transform="translate(761.958 553.704)" fill="#fff" font-family="'ArialMT'" font-size="19.286">Rwanda</text><text transform="translate(759.13 576.846)" fill="#fff" font-family="'ArialMT'" font-size="19.286">Scotland</text><path fill="none" d="M911.7 264.2h230.8v318.9H911.7z"/><text transform="translate(995.023 277.93)" fill="#fff" font-family="'ArialMT'" font-size="19.286">Senegal</text><text transform="translate(1001.966 301.073)" fill="#fff" font-family="'ArialMT'" font-size="19.286">Serbia</text><text transform="translate(985.895 324.215)" fill="#fff" font-family="'ArialMT'" font-size="19.286">Singapore</text><text transform="translate(978.051 347.358)" fill="#fff" font-family="'ArialMT'" font-size="19.286">South Africa</text><text transform="translate(978.051 370.501)" fill="#fff" font-family="'ArialMT'" font-size="19.286">South Korea</text><text transform="translate(991.166 393.644)" fill="#fff" font-family="'ArialMT'" font-size="19.286">Sri Lanka</text><text transform="translate(994.766 416.787)" fill="#fff" font-family="'ArialMT'" font-size="19.286">Sweden</text><text transform="translate(979.98 439.93)" fill="#fff" font-family="'ArialMT'" font-size="19.286">Switzerland</text><text transform="translate(967.38 463.073)" fill="#fff" font-family="'ArialMT'" font-size="19.286">Taiwan (R.O.C.)</text><text transform="translate(992.322 486.215)" fill="#fff" font-family="'ArialMT'" font-size="19.286">Thailand</text><text transform="translate(999.908 509.358)" fill="#fff" font-family="'ArialMT'" font-size="19.286">Turkey</text><text transform="translate(995.408 532.5)" fill="#fff" font-family="'ArialMT'" font-size="19.286">Uganda</text><text transform="translate(996.051 555.644)" fill="#fff" font-family="'ArialMT'" font-size="19.286">Ukraine</text><text transform="translate(973.294 578.787)" fill="#fff" font-family="'ArialMT'" font-size="19.286">United States</text></g></g></g></svg>