<svg xmlns="http://www.w3.org/2000/svg" viewBox="0 0 1280 720" enable-background="new 0 0 1280 720"><g><g fill="#fff" stroke="#0979AF" stroke-width=".991" stroke-miterlimit="10"><path d="M1147.2 186.2l4.8-6.7 13.5 35.3c-1.6 7.9-1 8.4-6.7 12-5.3 3.3-14 4.3-20.1 6.2l-4.1-38 12.6-8.8z"/><path d="M1135.8 231.6c6.6-1.4 23.7-2.1 26.3-9-.1.1 1.8-1 3.4-1.3-.6 3.2 1.5 1.8 2.7 2.8.3 1.1-1.7 3.8-3.4 6.2 2.4 1 5.3 2.3 7.5 4.7-.8.4-1.9-1.6-1.4.8 7 6 13.1-2.5 4.7-3.5 6.4-.7 7.9 8.4 0 8.3-.7 1-1 1.6-1.9 2.8-.2-1.2-.6-2.3-.8-3.5-1.6 2.7-3.4 3.9-5.4 5.5-.6-2-1.2-2.7-1.4-4.8-.7.9.2 1.9-1.9 1.4-.5-7-21.9.2-28.4 1.9v-12.3"/><path d="M1135.8 243.9c2.5-.7 19.8-5.8 21.6-4.8 1.1.6 3.7 9.6 2.7 11.7-.8 1.7-6.6 1.7-7.5 1.5 0 .1-9.7 7.9-11.7 8.5-5.9 1.9-.9-.1-1.7-1.6-2-4.2-2.4-10.5-3.4-15.3"/><path d="M1157.4 239.1c4.2-1.7 6.7-.1 7.4 2.9-3.3.4 2.7 7.2-4.7 8.8-.1-4.1-1.5-7.8-2.7-11.7"/><path d="M1143.1 267.4c-1.5 1.9-3.9 3.8-6.4 3.7-.2 0-.4 0-.6-.1-1.9-.7.8-4.1 1.6-4.9 1.3-1.3 3-2.1 4.7-2.7 3.6-1.4 7.6-2.3 10.4-5.1.8-.8 1.4-1.7 2-2.6-1.1 1.6-1.8 3-2.7 4.8 1.3-1 4-2.3 5.4-3.4 1 .1 1.9-.1 2.7-.7-5.6 4.4-10.1 8.8-17.1 11"/><path d="M580.3 425.7c1.3-.7 2.3-.6 3.4 0v-1.4h.8l.6-1.9-.6-1.6-.8-.6-1.3-.7v-2l.6-1.4-.6-.8.6-1.3.7-.6 2.2-2.9.5-2 .8-.7V405l.6-2.1h.8l.5-1.2 4.1-2.2 1.4-1.3-1.4-.7-1.9-2.8v-.8l-.8-1.2V390l-1.4-2.1v-2.7l.8-2.2.6-.6v-7l.8-1.3-.8-2v-1.4l1.3-.8-1.3-2.7.8-1.4 1.3-.7h3.3l1.4 2.1.7.6h.6l1.4-.6 1.3-2.1 2.1-13.7 12.8 2 18.9 3.5 17.5 2.7 19.7 2.1-12.9 100.5c-11.5 3.5-31.2-4.4-41.9-10.6-13.1-7.6-25.7-16.2-39.2-23.2 1.1-.8 1.1-1.7 2-2.7"/><path d="M616.2 162.1l.7-1.4v-1.4l-.7-2.1v-.6l-2-3.5 3.3-16.4c7-1.8 25.2 4.2 33.6 5.8 12.4 2.3 24.8 4.2 37.3 5.7 22.3 2.8 44.7 4.9 67.1 7.1l-3.5 53.6-1.4 15.8v1.3l-16.2-1.3-24.3-2.7-22.3-2.8-22.2-2.7-.8.7-.6 8.2-1.3-1.3-.8-1.5-.6-2-1.3-.7-2.2 2.7v.7l-2.7-.7-.5.7-1.4-1.3h-2.1l-2.7-.7-1.4 1.3h-1.3l-1.4-.6-1.3-.7-1.4.7-.6 2.1-1.3-1.5-.8-1.3v-.7l-.6-1.4.6-.6-.6-2.9-1.3-.6-.7.6-1.4-1.2v-.7l.7-2.2-.7-1.4v-1.3l-.6-.6-1.4-2.1v-5.5l-1.3-1.4v-.8l-4.8 2.2-.6.6-1.4-1.4-1.5-.6.8-1.4.7-2.1-.7-.6.7-.8h1.4V188.2l.6-1.3.7-.7.7-2.1 1.3-4.1-1.3-.6-1.4.6-.6-.6v-1.5h-.7l-1.4-.7-.8-1.3v-1.4l-.5-1.4-1.4-2-.8-1.5v-.7l-.5-1.2-2.2-.8v-1.3l-1.9-2.1h.7l-.7-1.4"/><path d="M747.9 261.3l2.7-35.3v-1.3l1.4-15.8 21.6 2.1 24.3.6 21.6.7h22.4v2.8l-.7.6-1.4.8-1.3.7v1.4l.7.6 1.2 2.1 1.5.7.6.6.6 1.5.8 31.6h-2v1.4l.6.7v1.4h-.6v1.3l2 1.4v.6l-.8 1.5v1.4l-1.2 2V270.3l.6 1.2.6 2.1h-1.2l-.7-1.4-.8-.7-.6-.7-1.3-.5h-.8l-.6-.8-.6-1.4H835l-1.9-1.3-4.9.6h-1.9l-.6.7h-1.3l-4.9-2.7-1.3-.7-14.1-.7-21-.8-22.2-1.3-13-.6"/><path d="M754 378.9l.7-9 13.5.8 21.7 1.4 31 .6H852l18.3-.6v8.9l2.7 15.1v4.9l.6 31.6-3.3-.7-1.4-.8-.7-.5-2.7-1.4-2.7-2.1h-.6l-1.4 1.3h-2.1l-1.3-.6-2 .6-.7.8h-2l-.7-.8-1.3.8h-.7l-2 1.4h-.7l-.7 1.3-.8-1.3h-1.2l-1.5-.8-.6-1.4h-.6l-1.5.8h-.6l-1.3-1.4h-1.4v.6l-1.3.8v1.9h-1.4v-1.9l-1.3-.8-1.4 1.4h-1.3l-.8-1.4h-.6l-.8-1.3h-.5l-2 1.3-1.3.8-.8-.8v-1.3l-.6-.8h-1.3v-2h-3.5l-1.4.8h-.5l-1.4-.8-.8-.7h-.5l-1.4.7-2.7-1.3-.8-.6-1.3.6v-.6H806v-2.2l-1.3-.7-.6-.7-.8-1.3-.7 2h-1.2l-.8-.7-1.3.7-.6-.7-2.1-2-.6-.7h-2.1l.6-2.1 1.5-32.4-2.1-.6-.6-.7h-20.4l-18.9-1.4"/><path d="M768.2 370.7l2.7-53.8 16.3.8 32.3.6h39.2l3.5 2.9.6-1.4 1.3.6.8.8v2h-1.4v.7l-1.3 1.3v2l1.3.8 1.4 1.4v.6l1.9 2.1 1.4.6.7.8 1.4 38.6-18.3.6h-31.1l-31-.6-21.7-1.4"/><path d="M1068.1 301.9l23.1-4.3 25-5.5c3 9.5 2 24.1 14.2 20.1.8 3.9-3.6 11.4-8.2 9.1-.9-.5-1.7-1.2-2.4-2-1.9-2.2-3.4-4.9-4.1-7.8-.5-1.9-.4-6.7-3.9-5.3-1 .4-1.5 1.3-1.7 2.3-.4 1.9.7 4.3 1.7 6 1.5 2.4 2 4.8 1.9 7.7-3.3-.9-6.7-1.4-10.2-1.4-.3 0-.6 0-.9-.2-.2-.2-.3-.5-.3-.8-.2-1.3-.2-2.6 0-3.9.3-2.2 1-4.6-.2-6.5-.6-.8-1.4-1.3-2.3-1.8-2.5-1.5-4.2-2.9-7.1-2.9v-.8l-1.4-1.3v-.6l-.7-.8v-.8h-2l-1.3-.5-1.4-.7-1.3.7v.5h-1.4l-.8 1.6v.6l-1.9.7-1.5-.7-.5-.6h-.7v.6l-2 2.7-1.4-.6-.8.6-.6 1.4-1.3 1.5v1.2l-1.4.8-.6 1.3-1.6-9.6"/><path d="M852.7 307.4h24.9l20.3-.8 8.1-1.4.7 1.4 2 1.5.7 1.2h.7l-.7 1.5v5.4l.7.7.7 2.9.7.6v.8l2 1.3.7.7 2 1.3v.7l2.7 2 1.4.8v1.4l1.3 4.8 1.4 1.4.5-.8.8-1.3h.6l1.4.7h1.3l2.1 1.4v.6l-1.3 1.3v5l-.8 1.3-1.3 1.4v1.3l.7.8 2 2 2.7 2.7h1.3v1.4l.8-.6 2.7 1.3v.8l1.3 1.2h1.4v2.7l1.3 2.9v.6l-.7.8.7 2.7 2 2 1.3-.6 1.4 1.4.8.7-.8 1.4.8 1.4-1.4 1.3.6.7-.6 1.3h-2.7v2.1l-1.4.6.6-.6-.6-1.3v4.1h-.7l.7 1.3-2.1.8 1.4 1.3-.6.7-.8 2.1-8.1.6-.6-1.4.6-.5.8-1.5 1.3-.7.6-.6V380.3l-1.3-1.4-.6-1.4-25.1 2.8h-22.2l-13.5.7v-8.9l-1.4-38.6-.7-.8-1.4-.6-1.9-2.1v-.6l-1.4-1.4-1.3-.8v-2l1.3-1.3v-.7h1.4v-2l-.8-.8-1.3-.6-.6 1.4-3.5-2.9-.6-.6v-1.5l-1.3-1.3v-.7l-.7-1.4-1.4-.6-.6-2.1-1.4-.8v-1.9"/><path d="M870.3 381l13.5-.7H906l25.1-2.8.6 1.4 1.3 1.4V382.4l-.6.6-1.3.7-.8 1.5-.6.5.6 1.4 8.1-.6v.6l.8.8-1.4.6.6 1.5-.6.6-1.3.6-.8.8v.7l.8.7-.8.5-.6.8h-.7l.7 1.4-.7.7-.6-.7-.8.7v1.4l.8-.7v1.3l.6 3.5-.6.6h-.8l-.6.8-.7.7v2l-.6.7-1.4.7v-.7 2.8h-.7l-.6-1.4v2l1.3.8h-1.3v-.8 1.4l.6 1.5-.6 1.4v1.3l-.8.7-.6.7h-.7v.6l-1.4 1.4h-1.4l.8.7-.8.6v1.6l.8.6-2.7 1.3.6.8v2.7h-1.3v.6h1.3l-.6 1.4-.7-.6-.6.6.6.8-.6.5v2.8l.6-1.3.7.7-1.3 1.4h1.3v1.9h.6v2.2h-.6v2.7l-23.7 1.4-17.6.7-.5-9.7-3.5-.6-.6.6-2.1-.6v-.7L873 401v-4.9l-2.7-15.1"/><path d="M880.3 443.6l17.6-.7 23.7-1.4-.7.7v.7H923v.7l-1.4 1.4v1.4h1.9l-1.9 2.1h2.7l-.8.6v1.4h-.5l.5 1.4h.8l.6 1.3h1.4v.8h-1.4l-.6 1.3H923l-.8 1.4h2.7l-1.4.8v.5l-.5.7h.5l-1.9 2.7-1.3.8v1.3h.6l-.6 1.4-.7 1.4-1.4.7h1.4l-1.4 1.4v2h-.7l.7.7v1.4l-2 .8 1.3.5-.6 1.5 1.3 1.3-2 1.4 14.9-1.4 14.1-.6-.6 1.3-.8 2V482.1c1.1 2.2 1.8 3.6 4.1 4.9 1.1.6 2.2 1 3.3 1.6s2 1.5 2.4 2.6c.7 2.2-.8 4.3-1.6 6.4-.4 1.1-.7 2.3-1.7 2.9-.2.1-.4.2-.6.5-.1.2-.1.5 0 .7.5 1.8 2.4 2.4 4 3.1.9.4 2.9 1 3.4 1.9.7 1.1-.6 3-1.2 3.9-.3-.8-1.4-.9-2.2-1.2-1.3-.4-2.3-1.3-3.3-2.1-1.5-1.2-3.2-2.3-4.8-3.3-1.6-1-3.2-1.5-5-1.8 1 1.4 1.7 2.9 1.7 4.6 0 .5-1.3 3.7-1.5 3.3-.3-.4-1-.4-1.5-.8l-.6-.6c-2.5-2.4-6.3.3-9.1.6-1.7.2-3-.4-4.1-1.8-.5-.7-1-1.5-1.6-2.2-.8-1-1.4-1.3-2.4-2.1-1.2-.9-2.3-.6-3.5-1.4-.5-.3-2.7-2.7-3.2-2.4-1.9.8-3.6.8-5.4 1.3 1 1 2 .9 2.1 2.8-3.6 1.5-7.2.5-10.6-.7-1.7-.6-3.2-1.3-5-1.2-1.8 0-3.7.2-5.5.2-.5 0-4.8.7-4.6 1-1.1-1.8-.9-3.1 0-5.5.3-.8.8-1.4 1.4-2l-.6-2.9-.8-2 .8-.7V487l.6-.7.8-1.5v-1.2l.6-1.5v-3.3l.7-.8-.7-1.4v-.6h-.6l-1.4-2.7v-1.6l-.8-.6v-.7l-.5-1.4-1.4-.6.6-2.1-1.4-2-.5-.8-1.4-2.1-.9-17.8"/><path d="M895.9 195.8c.9.9 1.7.6 2 2.1 3.6-3 8.8-3.7 12.9-6.2-.3 2.2.4 3.6-1.4 6.2 2.1-.5 1.3-.4 2.7-1.4 2.4 1.3 6.4 5.6 8.2 6.3 5.6 2.3 13.6 2.2 18.5 3.8 3.1 1 6.9 1.1 9.2 3.6 2.5 2.8-.7 5.8 3.5 7-1.7 2.3-.2 2.3.6 4.1-1.4 3.1-3.9 6.9-3.3 10.3 1.2-1.6 3.8-6.3 5.6-6.1 3.9.5-.6 8.9 1 12.4-7.7 5.1-.1 22.2-1.3 29.5l-15.6 2.9-20.2 1.2-.7-3.4-3.3-.7h-1.4l-.7-1.4v-1.3l-.6-1.5v-1.9l-.7-1.5.7-2.7v-.7l-.7-.7-.7-.7-.7-.7v-4.1l-.7-2.8-.6-1.3-1.4-1.4h-.8l-1.3-.8-1.4-.5-2-2.2-1.3-2.1-2.1-1.2h-1.3l-.7-1.5-.7-.6-2-.8-2-.6-.7-.8-1.3-1.3v-9l1.3-2.7-1.3-2.8h-1.3v-2.7l1.3-1.3v-1.5l2-1.3 2-1.4.7-.7v-10.4c.4-.5 1.6-2.2 2-2.7"/><path d="M910.1 309.3h.7l.7-1.9-1.4-.8 1.4-1.4 2-1.4.7-1.3v-2.2l2-1.2V297l-2.7-2.7.7-2.2v-1.3l4.7-.7 1.4-1.3h1.3l1.4-1.4.5-2.9 1.4-1.9v-4.1l-1.4-1.4-1.3-.8-.6-.6v-2.1l-2.7-1.4-.7-.7 20.2-1.2 15.6-2.9c-1.2 5.5 2.9 10.4 5.4 14.4l3.4 41.4-.7 2v2.8l.7 2 1.3.7-.6 1.4.6 2.1v1.4l-2 2.7v.7l-1.3 3.5v.5l-1.4 1.6-.7.6.7.7-.7 2v2.1l-.7 1.4.7 1.4V354.1l-1.3.8.6 1.2.7 1.5-.7 1.2-2 .8h-1.3l-1.4.8v1.9l.7 1.6.7 1.2-.7.7h-1.3l-.7-.7h-2l-1.3-1.2h-1.4l-.8.5-1.9 2.2v.6l.6 1.4-1.4-1.4-1.3.6-2-2-.7-2.7.7-.8v-.6l-1.3-2.9v-2.7h-1.4l-1.3-1.2v-.8l-2.7-1.3-.8.6V352h-1.3l-2.7-2.7-2-2-.7-.8v-1.3l1.3-1.4.8-1.3v-5l1.3-1.3v-.6l-2.1-1.4h-1.3l-1.4-.7h-.6l-.8 1.3-.5.8-1.4-1.4-1.3-4.8V328l-1.4-.8-2.7-2v-.7l-2-1.3-.7-.7-2-1.3v-.8l-.7-.6-.7-2.9-.7-.7v-5.4l.7-1.5"/><path d="M916.2 198.5c3.4-1.3 8.2-4.4 10.7-6 3.4-2.2 6.9-4 9.6-7.6 1.6 1.5 2.9 4.3 2.7 7.6.8-1.2 2-2.4 2.7-3.5-.3.6-.5 1.3-.8 1.9 5.8-4.6 11.2 4.6 17 4.2 6.6-.4 15.8-4.8 22.9-7.5-1.9 7.3 4.8 6.4 8.2 4.1 1.1 3.8 2.9 7.1 6 9-4.5.8-10.4-2.3-10.1 4.1-6.4-8.1-18.4-.5-21.6 6.2-.5-.3-.9-.5-1.4-.8.7-1.1 1.4-1.8 2-2.7-1.4.8-2.7.7-4.7 2.7-.8-1.2-.7-2.1-.7-3.5-2.2 4.9-4 10.1-6.7 14.6-.8-1.8-2.2-1.9-.6-4.1-3.7-1-3.9-8.1-10.9-10.5-7.7-2.6-17.6-2-24.3-8.2"/><path d="M921.6 441.5v-2.7h.6v-2.2h-.6v-1.9h-1.3l1.3-1.4-.7-.7-.6 1.3v-2.8l.6-.5-.6-.8.6-.6.7.6.6-1.4h-1.3v-.6h1.3V425.1l-.6-.8 2.7-1.3-.8-.6v-1.6l.8-.6-.8-.7h1.4l1.4-1.4v-.6h.7l.6-.7.8-.7v-1.3l.6-1.4-.6-1.5v-1.4.8h1.3l-1.3-.8v-2l.6 1.4h.7v-2.8.7l1.4-.7.6-.7v-2l18.9-1.5 10.2-.6.6.6h.7l.7.8-.7 54.3 3.4 26.8c-.4.7-.2 1.5-.7 2.2-2.8-1.5-6-1.4-9-.5-1.7.5-3.5 2.4-5 2.8-3.7.9-4.5-2.7-6.2-5.7l-.8-1.5V479.3l.8-2 .6-1.3-14.1.6-14.9 1.4 2-1.4-1.3-1.3.6-1.5-1.3-.5 2-.8v-1.4l-.7-.7h.7v-2l1.4-1.4h-1.4l1.4-.7.7-1.4.6-1.4h-.6v-1.3l1.3-.8 1.9-2.7h-.5l.5-.7v-.5l1.4-.8h-2.7l.8-1.4h1.3l.6-1.3h1.4v-.8h-1.4l-.6-1.3h-.8l-.5-1.4h.5v-1.4l.8-.6h-2.7l1.9-2.1h-1.9V445l1.4-1.4v-.7H920.9v-.7l.7-.7"/><path d="M931.7 404.4l.7-.7.6-.8h.8l.6-.6-.6-3.5v-1.3l-.8.7v-1.4l.8-.7.6.7.7-.7-.7-1.4h.7l.6-.8.8-.5-.8-.7v-.7l.8-.8 1.3-.6.6-.6-.6-1.5 1.4-.6-.8-.8v-.6l.8-2.1.6-.7-1.4-1.3 2.1-.8-.7-1.3h.7V377.5h.6l-.6.6 1.4-.6 18.9-2.1v-1.3l-.7-2h2l2 .6 5.4-.6h5.4l7.5-1.4 6.8-.8h6l4-.6 6.2-.7 4.6-.8 4.1-.6h5.4l1.5-.6 3.9-.8h2.7l8.8-1.4 5.4-1.3 4.9-.8h1.3v2.8l-.8 2.1h-1.3l-.6 1.4-.8 2.7-1.3.8h-2.7l-1.4 1.3v.7l-1.3 1.3h-.6l-1.5-1.3-.6 1.3h-.6v1.4l-1.5-.6-.6 2.7-.6 1.4h-.8l-1.9 1.3-3.5 2.8-.7.8h-2.7l-2 .5-.7 2.2-.7.6v2.1l-1.3.6-2.6.8v4.1l-5.4.7-12.2 1.4-15.6 2.8-20.3 1.3v.6l-.6-.6-10.2.6-18.9 1.5"/><path d="M941.9 377.5v-2.1h2.7l.6-1.3-.6-.7 1.4-1.3-.8-1.4.8-1.4-.8-.7-.6-1.4v-.6l1.9-2.2.8-.5h1.4l1.3 1.2h2l.7.7h1.3l.7-.7-.7-1.2-.7-1.6v-1.9l1.4-.8h1.3l2-.8.7-1.2-.7-1.5-.6-1.2 1.3-.8V352.8h1.4l.7-1.4-.7-.7 2 .7 1.4-1.4v1.4h1.3l-.7-1.4h2.1l.6-.7 3.4 1.4 1.4.7.6-.7v-.7l.7-.7 1.4-.7.6-1.3.7 2h2.7v-.7l.7-1.3v-.8l.7-1.3 1.3-.6V343l.7.8.7 1.4 1.4.7 1.9.6 1.3-1.3V343l.8-2h1.4l.5-1.3.8-2.7.6-.8 1.4-.6V332.7l-.6-.6 1.3-.6h1.4l.6.6 2.1-2.1h2.7l.6-1.4-1.4-1.4V323.9l2.1-.7.6.7 2.1-.7 2.7 1.3.6 1.4 1.4 2.1 1.3.6 2.2-.6h.5l2.2 2h1.3l1.3-.6.8-.8 1.2.8 1.5.6h1.9v-1.4l1.4-1.4 1.3-.6 1.4 2 .6 1.4h1.5l.6.7 1.3 1.4v4.1l2 2.8v2l1.5.7 2.7 2.9 1.9 1.9h2.7l-4.6 5.5-4.2 2.9-.6 1.2v.8l-1.4 1.4v1.3l-.7.8-1.2.6-1.5.7v1.4l-2.7.8-.6 1.2h-1.4l-1.9 1.5-1.5.6h-5.4l-4.1.6-4.6.8-6.2.7-4 .6h-6l-6.8.8-7.5 1.4h-5.4l-5.4.6-2-.6h-2l.7 2v1.3l-18.9 2.1"/><path d="M958.7 352.8l-.7-1.4.7-1.4v-2.1l.7-2-.7-.7.7-.6 1.4-1.6v-.5l1.3-3.5v-.7l2-2.7v-1.4l-.6-2.1.6-1.4-1.3-.7-.7-2v-2.8l.7-2-3.4-41.4c4.1 2.4 6.8-1 10.9-2 5.6-1.4 19.4-4.2 23.5-1.3l2.1 15.8 3.3 29.6v3.3l1.4 1.4-.6 1.4h-2.7l-2.1 2.1-.6-.6h-1.4l-1.3.6.6.6V335.6l-1.4.6-.6.8-.8 2.7-.5 1.3h-1.4l-.8 2v2.2l-1.3 1.3-1.9-.6-1.4-.7-.7-1.4-.7-.8v1.6l-1.3.6-.7 1.3v.8l-.7 1.3v.7h-2.7l-.7-2-.6 1.3-1.4.7-.7.7v.7l-.6.7-1.4-.7-3.4-1.4-.6.7h-2.1l.7 1.4h-1.3V350l-1.4 1.4-2-.7.7.7-.7 1.4h-1.4"/><path d="M961.4 402.9v-.6l20.3-1.3 15.6-2.8 5.4 17.9 4.6 19.2.8.8.6.5.8 1.6.5 1.9.8 1.4.6.7.8 1.4-.8 1.4 1.3.6v.8l-.5 1.3-.8.8v2l-.6 1.4v2.7l.6 2.1 1.3.8v8.2l.8.6 1.4 1.4v.7l-23.8 2.7-13.3 2.2-.8.5-.7 1.5c1 1.9 2.8 2.6 4.2 4-1.7 2.8-2.2 6.3-5.7 7-2.5.5-8.3 0-9.4-2.7-1-2.5-.8-6.3-1.1-8.9-.7-5.6-1.4-11.2-2.1-16.7l.7-54.3-.7-.8h-.8"/><path d="M581.8 255l6-30.9.8-1.5h.5l1.4-2.7V216.5l-1.4-.8h-1.3v-.6l.8-4.1 1.3-.8.6-1.9 2.1-1.6 1.4-1.2.6-.7v-1.4l1.3-2.1 2.1-3.4 2.7-3.5.6-1.3-.6-2.2-2.1-1.9-.6-.8v-2.8l-.7-1.3.7-3.5-1.3-2 1.3-1.4v-3.4l8.1-39.8c4 .6 8.5.9 11.4 2.7l-3.3 16.4 2 3.5v.6l.7 2.1v1.4l-.7 1.4.7 1.4h-.7l1.9 2.1v1.3l2.2.8.5 1.2v.7l.8 1.5 1.4 2 .5 1.4v1.4l.8 1.3 1.4.7h.7v1.5l.6.6 1.4-.6 1.3.6-1.3 4.1-.7 2.1-.7.7-.6 1.3V194.4H625l-.7.8.7.6-.7 2.1-.8 1.4 1.5.6 1.4 1.4.6-.6 4.8-2.2v.8l1.3 1.4v5.5l1.4 2.1.6.6v1.3l.7 1.4-.7 2.2v.7l1.4 1.2.7-.6 1.3.6.6 2.9-.6.6.6 1.4v.7l.8 1.3 1.3 1.5.6-2.1 1.4-.7 1.3.7 1.4.6h1.3l1.4-1.3 2.7.7h2.1l1.4 1.3.5-.7 2.7.7v-.7l2.2-2.7 1.3.7.6 2 .8 1.5 1.3 1.3-7.5 44.1-14.9-2.7-17.5-3.6-5.4-.7-16.8-3.3-20.3-4.2"/><path d="M993.8 278.5c8.4-1.6 18.3-5.9 25 0 .2-.7.5-1.5.7-2.2.5.7 1 1.5 1.5 2.2-1.3.3-2.2 0-3.5.6 4.2.1 9-.4 13.5-2.8 3.6-1.9 14.9-13.1 17-10.9l3.3 23.4h-1.3v1.3l.5.7.8 3.5v1.3l-.8 3.5v2.8h-.5v5.5l-2 1.3-.8 2.1-2.7 2-1.3-.6-1.4.6v2.1h-1.3l-.6 1.3v1.5l-.8 1.3.8.8v1.4l-.8.5-1.3-1.3-1.4-.6-.7 1.4-.6 1.3v5.5l-.6.6v1.4l-1.5 1.5-1.2.6h-.8l-1.3-1.4-.6-.7h-1.5l-.6-1.4-1.4-2-1.3.6-1.4 1.4v1.4h-1.9l-1.5-.6-1.2-.8-.8.8-1.3.6h-1.3l-2.2-2h-.5l-2.2.6-1.3-.6-1.4-2.1-.6-1.4-2.7-1.3-2.1.7-.6-.7-2.1.7-3.3-29.6-2.1-15.8"/><path d="M1031 332.1h.8l1.2-.6 1.5-1.5v-1.4l.6-.6v-5.5l.6-1.3.7-1.4 1.4.6 1.3 1.3.8-.5v-1.4l-.8-.8.8-1.3v-1.5l.6-1.3h1.3v-2.1l1.4-.6 1.3.6 2.7-2 .8-2.1 2-1.3V301.9h.5v-2.8l.8-3.5v-1.3l-.8-3.5-.5-.7v-1.3h1.3l2.7 15.8 14.1-2.7 1.5 9.5.6-1.3 1.4-.8v-1.2l1.3-1.5.6-1.4.8-.6 1.4.6 2-2.7v-.6h.7l.5.6 1.5.7 1.9-.7v-.6l.8-1.6h1.4v-.5l1.3-.7 1.4.7 1.3.5h2v.8l.7.8v.6l1.4 1.3v2.8l-1.4.8-6.2-2.8h-.5v1.3l-.8 1.5.8 1.9-1.4 1.5v2l-1.3.7-.8.7-1.4 2h-1.9l-1.5 1.5-.5 2.1v2.7l-1.4.7-.8.7h-1.9v-.7l-1.4-.7h-1.3V325.9l-.8.7v2l-1.2 1.4v1.5l-.7 2-.8 1.3-1.2 2.7-.7 2.2.7 1.3-.7 1.5v1.3l-1.4 1.4-2.1-.6-1.9 1.9h-1.4v.8l-.8 1.3h-.5l-2.7 1.4h-1.4l-1.3-.7v.7l-2.8 1.4h-1.9l-2.1-1.4-1.4-.7-.5-1.4.5-1.4h-2.7l-1.9-1.9-2.7-2.9-1.5-.7v-2l-2-2.8v-4.1"/><path d="M1119.4 292.9c1.6-3.6 3.9-4.7 5.6-8.4 1.1-.9 1.9-2.2 2.7-3.3-7.4-4.7-4.7-8.5-8.3-13.8 2.5-2.3 2.7-6.3 5.4-7.2 2.9-1.1 6.1-1.1 7.9 1.7.7 1.1 1.1 2.4 1.5 3.6.5 1.7 1 3.2 1 4.9 0 1.6.3 3.3.7 4.9.3 1.3.6 2.7.9 4 .5 2.1 1 4.3.6 6.4-.2.9-.6 1.4-.9 2.2-.4.9-.4 2-.7 3-1 4-2.5 7.8-4.1 11.6h-2c1.1-4.9-9-5.2-10.3-9.6"/><path d="M1125 192.5c7.2-2.6 14.8-4.3 22.2-6.3-.4 2.4.9 4.9.8 6.9l.5 1.3-.5.8-.8 1.3-2 2.8-1.3 1.4v1.3l1.3 2-.7 2.2v1.3l-.6.8v5.5l-.8 1.3.8 3.5v2.7l.6 2.8c.4 2-1 3.3.7 5.5-4.1.9-7.9 3.3-10.1 0l-2-11.8-1.4-1.3-.7.7-.6-.7v-2l-.7-2.2V211l-1.4-2.1v-2.2l.7-.5v-.7l-.7-2.1c-1.6-3.4-2.4-7.2-3.3-10.9"/><path d="M843.1 273.6l-.6-2.1-.6-1.2V267.4l1.2-2V264l.8-1.5v-.6l-2-1.4v-1.3h.6v-1.4l-.6-.7v-1.4h14.9l22.2-.7 17.6-.7 12.8-.6v.6l.7.7.7.7.7.7v.7l-.7 2.7.7 1.5v1.9l.6 1.5v1.3l.7 1.4h1.4l3.3.7.7 3.4.7.7 2.7 1.4v2.1l.6.6 1.3.8 1.4 1.4v4.1l-1.4 1.9-.5 2.9-1.4 1.4h-1.3l-1.4 1.3-4.7.7v1.3l-.7 2.2 2.7 2.7v2.1l-2 1.2v2.2l-.7 1.3-2 1.4-1.4 1.4 1.4.8-.7 1.9h-1.4l-.7-1.2-2-1.5-.7-1.4-8.1 1.4-20.3.8h-24.9v-.8l-.7-.7v-3.4l-.8-2.2v-1.2l.8-2.1-1.3-.6.5-1.5-1.2-.6.7-2.2h-.7v-1.3h-1.5l-.5-1.4v-.6l.5-2.1-.5-.6v-2.2l-1.4-2.1v-1.3l-1.4-.7v-1.3l-.6-1.4v-3.5h-1.5"/><path d="M1032.4 393.9l3.3-1.9h2.1l1.3-1.4 2.2-1.4.5-.7 1.4-.6 12.2-.8 4.6-.6 2.1 1.4.6-.8 1.5 2.1.6 1.4v.6l.6.8 16.4-2.8c5.8 4.3 11.5 9 17.5 13.1-1.7 3.1-5.4 5.2-6.7 8.3-1.3 3.2 1.3 7.8-2 10.3-.9.7-2.1.9-3 1.6-1.5 1-2.1 2.8-2.8 4.5-.7 1.5-1.5 3-2.5 4.4-.3.4-.6.8-1.1 1.1-.5.3-1.2.3-1.8.3h-7.5c.2 2.8.2 6-.6 8.6-5.7-1.7-9.8-10.4-11.5-15.6l-1.9-1.4h-.8l-1.4-.7v-.7l-1.3-.6v-.8l-1.4-.8v-2l-1.3-.7-1.4-.6-.5-.7-1.4-.7-.6-.8-1.3-1.3-2.2-2.1-1.9-1.4-2.7-4.1-.8-.6-1.3-1.4v-1.5h-2.7l-2.7-1.9h-1.4l-.7-.8-.6-1.4.6-1.3 2.1-2.8v-.8"/><path d="M535.1 287.4l9.5-40.7 21.6 4.9 15.6 3.4 20.3 4.2 16.8 3.3-15.5 88.9-2.1 13.7-1.3 2.1-1.4.6h-.6l-.7-.6-1.4-2.1h-3.3l-1.3.7-.8 1.4 1.3 2.7-.5.8-.8 1.4.8 2-.8 1.3v1.4l.8 2.9-.8 2.7-.6.6-.8 2.2-16.9-25.6-40.5-60.5 3.4-11.7"/><path d="M1071.1 441.7c-2.3 1.7-4.4 3.9-4.9 6.7-.1.8-.1 1.5-.1 2.3 0 3.9 2.5 17.5-3.9 14.9h-3.3v2.7l.6.6.6 1.4v2.9l-1.9.5h-.8l-.6-2.7-1.3-.7-37.9 2.9-1.3-1.6v-.6l-1.3-2.7v-.7l-1.4-1.4-.8-.6v-8.2l-1.3-.8-.6-2.1v-2.7l.6-1.4v-2l.8-.8.5-1.3v-.8l-1.3-.6.8-1.4-.8-1.4-.6-.7-.8-1.4-.5-1.9-.8-1.6-.6-.5-.8-.8-4.6-19.2-5.4-17.9"/><path d="M968.2 279.8c7.5-7.2 4-18.9 4-27.5-7.9-3.5-3-24.8 0-31 .7.2 1.4.5 2.1.7.6-2.4 1.5-3.2 2.7-4.8-.2 2.3.2 4.6 0 6.9.3-1.1 1.1-3 1.3-3.5 0 1.2-.1 2.3 0 3.5 2.2-4-1-10.1 4.9-10.3-7-11 9.7-6.1 14.1-4.2 8 3.5 9.8 12 6.7 20.3-.9 2.3-6.6 11.2-2 12.1 3.7.7 4.3-7 8-8.1 8-2.5 13.2 19.1 9.5 24.5-.7-1 .8-.9-.7-2-3 5.5-5.4 16.1-10.7 19.2-5.4 3.2-12.7 1.3-17.4 1.7-7.6.7-14.9 2.9-22.5 2.5"/><path d="M603.4 351.4l15.5-88.9 5.4.7 17.5 3.6 14.9 2.7-2.7 17.9 27 3.4-8.7 70.9-19.7-2.1-17.5-2.7-18.9-3.5-12.8-2"/><path d="M1116.2 292.1c1.3-2.1 1.9-3.8 4.7-2.7-5.3 7.8 11.6 16.6 7.4 20.7.4.1 1.5-.8 2.1-.8.2 1 .4 1.9.6 2.9-8.6 1-6.5 2.2-10.1-3.5-2.5-3.9-3.3-12.1-4.7-16.6"/><path d="M1021 366.6l1.9-1.5h1.4l.6-1.2 2.7-.8v-1.4l1.5-.7 1.2-.6.7-.8v-1.3l1.4-1.4v-.8l.6-1.2 4.2-2.9 4.6-5.5-.5 1.4.5 1.4 1.4.7 2.1 1.4h1.9l2.8-1.4v-.7l1.3.7h1.4l2.7-1.4h.5l.8-1.3v-.8h1.4l1.9-1.9 2.1.6 1.4-1.4v-1.3l.7-1.5-.7-1.3.7-2.2 1.2-2.7.8-1.3.7-2V330l1.2-1.4v-2l.8-.7V322.5h1.3l1.4.7v.7h1.9l.8-.7 1.4-.7v-2.7l.5-2.1 1.5-1.5h1.9l1.4-2 .8-.7 1.3-.7v-2l1.4-1.5-.8-1.9.8-1.5v-1.3h.5l6.2 2.8 1.4-.8v-2c1.7.1 2.6-.2 4.1.5 1.7.8 3.2 1.9 5.1 2.4.7.2 1.6.4 2.1 1s.5 1.6.3 2.3c-.6 2-2.2 3.8-2 5.8.2 1.9 1.9 3.3 3.7 3.9s3.7.7 5.5 1.2c2.8.8 5.9 3.4 6.5 6.4.3 1.4.2 2.8.1 4.2 0 .6-.1 1.2-.3 1.7-.1.4-.3.7-.5 1-.3.9-.1 1.8 0 2.7.2 1 .4 2 1.2 2.7.6.5 1.4.7 2.1.9 1.8.5 3.5.8 4.9 2.1 1.2 1.1 1.2 3.1 2.2 4.1-.5-.5-1.3-1.1-2.1-2 .2 2.5-.4 1.9-.6 2-3.4 1.7-9.2 2.6-13.7 3.5l-14.7 3.5-31.2 5.5-10.8 1.3-4.6.6h-3.3l-4.9.8-5.4 1.3-8.8 1.4h-2.7l-3.8 1.2"/><path d="M752 208.9l3.5-53.6c14.4 1 28.7 1.5 43.1 1.9 9.8.3 27.6-2.1 35.8 1.5v.6l.6 4.2.8.7-.8 2 .8 2.1-.8.6.8.7-.8 2.8.8 1.4.7 3.4 2 4.2v7.6l.7 2.7-.7 1.4 1.3 1.3-.6 1.4.6 4.9v2.7l2.1 2.1v6.8h-22.4l-21.6-.7-24.3-.6-21.6-2.1"/><path d="M591.3 392.7l-1.4-3.5-.8-1.3v-2.7l-55.9-86.1 10.6-53-52.7-13.8v2.1l-1.3 5.5-.6 4.8-2.1 4.7-.6 1.4h-1.4l-.7-.6v-.8l-.6-1.3h-.8l-.6 1.3-.7 1.4-.6 5.6v2.8l.6 1.3v2l.7 1.5 2 2.8v3.5l-.6 3.3-1.4 3.5v4.1l1.4 2 .6 2.9.7 2.7v2l.6.8 1.4 1.3 2.1 2.7-.8 1.4-1.3.6h-.6v2.7l.6 2.2h.7l1.4 2.1v2l.6.8h2.7l.8-.8h.5v-3.4l-.5-.7v-1.4h1.3l2 .8 1.3.6 2.1 1.3.6 1.4v2.2l-1.3-.8h-2.7v.8l.7 1.9 2 1.5v4.1h-2l-.7-.7-.6-1.4-2.2-.6-1.3-.8-.6.8v.6l.6 2.8v4.2l.8 1.9 1.3 2.8 1.4 3.5 2.7 1.4v.6l-2.1 1.5-3.3.6h-.8v3.5l.8 2.7.5 1.4v3.3l1.4 1.6 1.4.6.7 1.3v4.2l2 1.3 4 6.3 1.4 2.7.7 2.1.6 3.5-2.7 3.3-.6 1.4 1.4 2.1.6 1.4 2.1.6 2.7 2.1 1.9-.7v.7l8.1 6.9 2.1 1.3 1.3.8 5.5 4.7 2.7 2.2v1.3l1.3.8 2.7 2.7 2 1.3v4.9l2.7 1.4 2.1 4.1.6 8.2-.6 1.4c-.7 9.6 36.2.4 37.8 8.9 1.7-.2 2.9-1.2 4-2.7V423.6l-1.9-.6v-1.4l1.9-1.4.8-2.7.6-4.1.8-4.9 1.3-2.1.6-2 3.5-.7 2.7-.8.6-.6V401l-.6-.8-1.4-.7 1.4-.7v-1.3l-1.4-1.4-1.3-1.4v-2z"/><path d="M1055.9 257.8c4.8-3.5 10.7-10.3 8.9-15.8-3.4-.3-2.4-1.6-2.7-4.1 4-2.5 43.4-4.3 32.4-17.3.9-1 1.2-1.6 2.1-2.8-.7.3-1.4.5-2.1.8-.4-2.8 0-.5-.6 0-1.9-2.9 9.5-20.3 14.4-22.8 2.8-1.4 15.6-3.4 17.1-2.3 1.6 1.1 1.9 7.8 2.9 9.9l.7 2.1v.7l-.7.5v2.2l1.4 2.1v1.3l.7 2.2v2l.6.7.7-.7 1.4 1.3 2 11.8c2 7.1 2.9 20 3.4 27.5.2 2.7-.2 8.2-3.4 11 .7-3.6.5-7.2-2-9.7.8 1.3 1.1 3.1 2 4.8-6.3-1.9-11.2-3.8-16.9-6.1v-1.4l-1.5-2.8-1.2-.6h-.7l-.8-1.5h-1.2v-.6l-11.5 2.7-17.6 4.2-16.2 3.4c-5.3.7-10.4 3.6-11.6-2.7"/><path d="M659.4 462.9v-.7l12.9-100.5 22.3 3.4 20.2 2.1 24.3 2.1 15.6.6-.7 9h-.7v1.4l-2.7 43.3-1.3 15.9-1.4 18.5-.7.7h-13.5l-12.7-1.2-14.3-1.6-10.8-.6c.6 1.1.7 2.3 1.4 3.4-4.9-.4-20.4-5.1-24-2.4-2.4 1.8.4 5.9-1.7 7.6-1.9 1.5-9.8-.7-12.2-1"/><path d="M1150.7 179.4c2.7-1.1 2.1-1.7 4.6-2.2-2-3.5 1-9.3 1.4-13.2.6-5.6-.1-11.2.9-16.8.8-4.6 3.3-11.3 8.4-12.4 3.6-.8 7.3 0 10.6 1.6 2.9 1.5 3.6 3.6 5.2 6.5 2.5 4.5 1.9 12.2 4.3 15.9 1.4 2.1 3.8 1.7 5.1 3.2.9 1.2 1.2 4.3 2.4 5.5 1.8 1.8 6.4 1.4 6.5 4.3.1 3.7-1.9 5.1-4.1 7.7-1.4 1.6-2.1 3.1-4.3 4-.7.3-5 .3-5.1.4-1 1.1 0 3.6-1.4 3.7-.5 0-.9-.3-1.2-.7l-3.4-3.4c-1.1 2.9-.9 6.1-1.6 9.1-1 4.1-3.4 7.7-5.9 11.2-.7 1.1-9.4 12.2-8.3 13.2-2.1-2-4.1-4.2-4.7-7.6l-.7-2.9-8.2-26.7-.5-.4"/><path d="M672.3 361.7l8.7-70.9 12.2 1.3 21 2.2 11.4 1.3 20.3 1.4 11.5 1.4 12.8.7.7.7v17.1l-2.7 53.8-13.5-.8-15.6-.6-24.3-2.1-20.2-2.1-22.3-3.4"/><path d="M656.7 269.5l7.5-44.1.6-8.2.8-.7 22.2 2.7 22.3 2.8 24.3 2.7 16.2 1.3-2.7 35.3-2 35.7-20.3-1.4-11.4-1.3-21-2.2-12.2-1.3-27-3.4 2.7-17.9"/><path d="M697.3 458.7c-.7-1-1.1-2.2-1.4-3.4l10.8.6 14.3 1.6 12.7 1.2h13.5l.7-.7 1.4-18.5 1.3-15.9 2.7-43.3v-1.4h.7l18.9 1.4h20.4l.6.7 2.1.6-1.5 32.4-.6 2.1h2.1l.6.7 2.1 2 .6.7 1.3-.7.8.7h1.2l.7-2 .8 1.3.6.7 1.3.7v2.2h1.4v.6l1.3-.6.8.6 2.7 1.3 1.4-.7h.5l.8.7 1.4.8h.5l1.4-.8h3.5v2h1.3l.6.8v1.3l.8.8 1.3-.8 2-1.3h.5l.8 1.3h.6l.8 1.4h1.3l1.4-1.4 1.3.8v1.9h1.4v-1.9l1.3-.8v-.6h1.4l1.3 1.4h.6l1.5-.8h.6l.6 1.4 1.5.8h1.2l.8 1.3.7-1.3h.7l2-1.4h.7l1.3-.8.7.8h2l.7-.8 2-.6 1.3.6h2.1l1.4-1.3h.6l2.7 2.1 2.7 1.4.7.5 1.4.8 3.3.7v.7l2.1.6.6-.6 3.5.6.5 9.7.8 17.8 1.4 2.1.5.8 1.4 2-.6 2.1 1.4.6.5 1.4v.7l.8.6v1.6l1.4 2.7h.6v.6l.7 1.4-.7.8v3.3l-.6 1.5v1.2l-.8 1.5-.6.7v2.7l-.8.7.8 2 .6 2.9c-2.9 2.3-4.5 5-1.9 7.5-2.3-.3-4.3.5-6.4 1.2-.6.2-4.6 2.1-4.1 3.1-1.5-2.8-3-5.8-2.8-9-2.1 1-4.4 1.6-6.7 1.5.3 2.6.8 5.1 1.6 7.5.4 1.2.9 2.4.9 3.7 0 2.6-1.8 4.9-4 6.3-1.9 1.3-4.2 2.1-6.5 2.3-1.4.2-2.9.1-4.4 0-3.9-.3-7.7-.9-11.5-1.9 0 1.9 1.1 3.6 2.1 5.1 1.1 1.6 2.1 3.3 3.2 4.9-2.8.4-8.2.5-9.9 3-1.1 1.7-2 3.7-3.3 5.3-.6.8-1.3 1.4-1.9 2.2-1.1 1.6-1.6 3.5-2.1 5.4-.8 3.1-2.3 7.1-1.8 10.3.4 2.1 1.2 4.5 1.9 6.5.6 1.7 1.1 4.1 2.3 5.5.7.8 1.3 1 1.6 2.2.1.4-.1 2.5.6 2.5-3.8-.4-7.9-.4-11.6-1.7-3.3-1.2-6.5-2.6-9.8-3.9-8.5-3.1-8.2-4.1-11.5-12.8-2.4-6.4-3.3-9.4-7.1-15.1-4.2-6.3-7.6-11-10.6-17.9-4.7-10.8-15.9-26.5-29.7-19.9-6.4 3.1-5.4 13.6-12.8 13-3.2-.2-13.7-8.2-16.3-11.7-5.4-7.4-3.8-15.3-10.1-22.8-4.8-5.6-13.3-12.2-16.8-18.6.1.2-.2-.1-.4-.3"/><path d="M1068 536.3c0-.1-.1-.3-.2-.4-.8-1.5-3.3-.9-4.6-1.6-1.3-.7-2.6-2.7-3.5-3.8-2.2-3-.9-5.4-.2-8.5.2-.9-.1-2-1-2.3-1.3-.4-2.5 1.2-3.9 1.1-.8-.1-1.4-.8-1.6-1.6-.2-.8-.1-1.6 0-2.3.5-3.9 2.7-9.2 1.8-13.1-.8-3.7-3.8-4.7-6.6-6.8-3.8-2.8-7.8-9.8-12.4-10.9-3.1-.8-8.9 1.5-11.9 2.3-3.8 1-7.5 2.3-11.1 3.7-1.8-5.4-7.6-8.5-13.2-9.2-6.1-.8-14 2.5-19.7.5-3.5-1.2-6.4-6.4-3-9.5 2.7-2.4 10.5-2.1 14.1-2.7l23.8-2.7 1.3 2.7v.6l1.3 1.6 37.9-2.9 1.3.7.6 2.7h.8l1.9-.5v-2.9l-.6-1.4-.6-.6v-2.8h3.3c1.1.4 2.2.6 3.3.6.7.2 2 0 2.7 0-.3 3.5-.6 1.4-1.2 1.4 2.8-.2 10.1 20.4 11.7 23 4 6.7 5.6 14.3 10.3 20.6 2.8 3.8 6.8 8.5 7 13.5 0 0 3.6 3.6 4 4.3 1 2.1 1.3 4.6 1.5 6.9.6 5.2-.5 10.2-1 15.4-.3 2.8-.6 5.9-2.4 8.1-1.2 1.4-6.9 5.5-8.4 2.6-2.1-4.2-3.7-8.2-7.9-10.7-4.1-2.5-8.8-2.9-10.1-8.5-.1-.5-.2-1.1-.6-1.6-.7-.8-2.2-.7-2.9-1.6-.4-1 .3-2.3 0-3.4z"/><path d="M834.4 158h14.9c6.1 0 11.1 1.2 8.8-6.9 6 .9 2.4 5.8 5.4 9.6 2.6 3.4 5.5 2.9 10.1 3.4.9.1 5 0 6.2.1 2.6.3 7.2-1.6 8.1 2.7 1.2 1.1 3.1 1.8 4.6 2.7 3.3-4.8 3.7 2.4 7.8 2.5 3.9.2 5.3-2.7 9.1-3.2-2.4.3 4.9 2.8 5.4 2.9 2.6.5 6.7.2 9.5 0-4.3 5.4-12.7 7.8-17.8 12.8-3.7 3.7-11 10-12.6 13.9v10.4l-.7.7-2 1.4-2 1.3v1.5l-1.3 1.3v2.7h1.3l1.3 2.8-1.3 2.7v9l1.3 1.3.7.8 2 .6 2 .8.7.6.7 1.5h1.3l2.1 1.2 1.3 2.1 2 2.2 1.4.5 1.3.8h.7l1.4 1.4.6 1.3.7 2.8V253.7l-12.8.6-17.6.7-22.2.7h-12.9l-.8-31.6-.6-1.5-.6-.6-1.5-.7-1.2-2.1-.7-.6v-1.4l1.3-.7 1.4-.8.7-.6v-9.6l-2.1-2.1v-2.7l-.6-4.9.6-1.4-1.3-1.3.7-1.4-.7-2.7v-7.6l-2-4.2-.7-3.4-.8-1.4.8-2.8-.8-.7.8-.6-.8-2.1.8-2-.8-.7-.6-4.2V158"/><path d="M745.9 297l2-35.7 13 .6 22.2 1.3 21 .8 14.1.7 1.3.7 4.9 2.7h1.3l.6-.7h1.9l4.9-.6 1.9 1.3h1.5l.6 1.4.6.8h.8l1.3.5.6.7.8.7.7 1.4h2.7v3.5l.6 1.4v1.3l1.4.7v1.3l1.4 2.1v2.2l.5.6-.5 2.1v.6l.5 1.4h1.5v1.3h.7l-.7 2.2 1.2.6-.5 1.5 1.3.6-.8 2.1v1.2l.8 2.2v3.4l.7.7v2.7l1.4.8.6 2.1 1.4.6.7 1.4v.7l1.3 1.3v1.5l.6.6h-39.2l-32.3-.6-16.3-.8v-17.1l-.7-.7-12.8-.7-11.5-1.4"/><path d="M516.4 145.9c.6-4.7.4-9.4.5-14.1v-5.5c0-.5.2-5.1-.1-5.3 6.9 2.7 13.8 5.5 20.7 8.2-.5 2.4-1 4.9-1.6 7.3-.2 1.2-.5 2.3-1 3.4-.9 2.2-2.3 5-1.2 7.3.3.6.8 1.2 1.4 1.3.7.1 1.3-.4 1.8-.8 2-1.8 3.5-4.2 4.4-6.8.9-2.4 1.7-5.3 1.7-8 0-1.4-.3-5.2-1.7-6 2.8 1.5.8-.6 1.2-2 1.8-.3-.2-4.4-.6-8.4 21.1 6.7 42.5 12.7 64.2 17.4l-8.1 39.8v3.4l-1.3 1.4 1.3 2-.7 3.5.7 1.3-14.3-2.7-11.5-2.7-.6.6h-1.3l-1.4-.6h-2.7l-.6-.6-.7.6h-6.2l-1.9.6-1.4.8-1.3-.8-.8-1.2h-1.4l-3.3.6-1.3-.6-2.1.6v-1.4l-1.4-.7-.6-.7H539.8l-.6-.5h-1.4l-1.3.5h-4.1l-1.3-.5h-.6l-.8-.8-1.9-.8-.8-.6c.3-1.9 1.4-5.2-.3-6.7-.6-.6-1.5-.8-2.3-1.1-2.2-.8-4.3-2-6.3-3.1-1-.6-2-1.2-3.1-1.8-.6-.3-2-.7-2.2-1.3-.2-.7.9-2.8 1.1-3.5.4-1.2.7-2.4 1-3.6.7-2.4 1.1-4.9 1.5-7.4z"/><path d="M1014.9 396.1V392l2.6-.8 1.3-.6v-2.1l.7-.6.7-2.2 2-.5h2.7l.7-.8 3.5-2.8 1.9-1.3h.8l.6-1.4.6-2.7 1.5.6v-1.4h.6l.6-1.3 1.5 1.3h.6l1.3-1.3v-.7l1.4-1.3h2.7l1.3-.8.8-2.7.6-1.4h1.3l.8-2.1v-2.8h2l4.6-.6 10.8-1.3 31.2-5.5 14.7-3.5c2.6-.5 5.1-1.2 7.7-1.7 1.5-.3 3.1-.5 4.7-.1.7.2 1.3.4 1.9.8.7.5 1.5 1.3 1.7 2.2.2.7 0 1.5-.5 2-.3.3-.6.5-1 .7-.8.4-1.7.7-2.7.9-.5.1-1.1.2-1.5.5-.4.2-.8.6-1.1.9-.6.5-1.1 1.1-1.7 1.6-.3.2-.7.8-.7 1.2 0 .4.5 1 .8 1.4 1.1-.6 2.2-1.1 3.4-1.5.5-.2 1.1-.2 1.5-.5.2-.1.3-.3.6-.3h.9c.3 0 .6-.1.8-.2 1.3-.4 2.7-.1 4 .2.4.1.8.2 1.2.4.6.3.8.9 1 1.4.4 1.1.1 2.2-.1 3.3 0 .3-.1.5-.2.8-.1.4-.4.7-.6 1-.3.4-.7.6-1 1-.3.3-.3.6-.5.9-.4.6-1 .9-1.7 1-1.7.3-3.6-.6-5-1.5-.4-.3-1-.6-1.4-.4-.2.1-.4.3-.6.5-1.6 1.7-3.8 2.8-6.1 3 2.1.6 4.3 1.3 5.5 3.2.3.4.5.9 1 1.1.2.1.5 0 .7 0 1.5 0 2.6 1.5 2.8 3 .5 5.8-8.1 4.6-11.6 8.7-2.8 3.2-3.9 7.8-5.9 11.5-1.8 3.2-5 3.4-8.2 4.3l-17.5-13.1-16.4 2.8-.6-.8v-.6l-.6-1.4-1.5-2.1-.6.8-2.1-1.4-4.6.6-12.2.8-1.4.6-.5.7-2.2 1.4-1.3 1.4h-2.1l-3.3 1.9-17.6 1.8"/><path d="M492.5 232.3l-1.4-2V226l.8-1.9v-.8l1.4-1.3v-5.5l1.3-2.7 2-4.9.7.7.6-.7 1.4-.6v.6-.6h-.6l.6-1.6.7-1.9 1.4-1.4h1.3H501.4v-.6l.6-1.5 2.7-6.9v-1.9l.7-.8.6-.8.8-.6-.8-.7.8-2.7.6-2 2.1-2.8V180l1.3-1.4.6-1.4v-2.1l.7-1.3v-.7l1.4.7-.7-1.4.7-.6.6-2.2-.6-.7v-1.2l.6-.8v-1.3l.7-.8.7-2.7.7-.7.6.7v.7h.7l-.7-.7v-.7h1.4v.7h2.7l.7.7.8.7v.7l1.2.6 1.5-.6 1.2 1.4.7.6.8 2.7-.8 5.6.8.6 1.9.8.8.8h.6l1.3.5h4.1l1.3-.5h1.4l.6.5H543.2l.6.7 1.4.7v1.4l2.1-.6 1.3.6 3.3-.6h1.4l.8 1.2 1.3.8 1.4-.8 1.9-.6h6.2l.7-.6.6.6h2.7l1.4.6h1.3l.6-.6 11.5 2.7 14.3 2.7v2.8l.6.8 2.1 1.9.6 2.2-.6 1.3-2.7 3.5-2.1 3.4-1.3 2.1v1.4l-.6.7-1.4 1.2-2.1 1.6-.6 1.9-1.3.8-.8 4.1v.6h1.3l1.4.8V219.9l-1.4 2.7h-.5l-.8 1.5-6 30.9-15.6-3.4-21.6-4.9-23.7-6.8-27.6-7.6h-.8"/><path d="M1048 264c2.8-2.2 5-4.2 7.9-6.2 1.2 6.3 6.3 3.4 11.6 2.7l16.2-3.4 17.6-4.2 11.5-2.7v.6h1.2l.8 1.5h.7l1.2.6 1.5 2.8v1.4c7.2.8 5.1 6.6 1.2 10.3 3.6 5.3.8 9.2 8.3 13.8-.8 1.1-1.6 2.4-2.7 3.3-2.2 5.3-6.6 3.1-8.8 7.6l-25 5.5-23.1 4.3-14.1 2.7-2.7-15.8-3.3-23.4V264"/></g><path fill="#0A79AE" d="M591.3 392.7l-1.4-3.5-.8-1.3v-2.7l-55.9-86.1 10.6-53-52.7-13.8v2.1l-1.3 5.5-.6 4.8-2.1 4.7-.6 1.4h-1.4l-.7-.6v-.8l-.6-1.3h-.8l-.6 1.3-.7 1.4-.6 5.6v2.8l.6 1.3v2l.7 1.5 2 2.8v3.5l-.6 3.3-1.4 3.5v4.1l1.4 2 .6 2.9.7 2.7v2l.6.8 1.4 1.3 2.1 2.7-.8 1.4-1.3.6h-.6v2.7l.6 2.2h.7l1.4 2.1v2l.6.8h2.7l.8-.8h.5v-3.4l-.5-.7v-1.4h1.3l2 .8 1.3.6 2.1 1.3.6 1.4v2.2l-1.3-.8h-2.7v.8l.7 1.9 2 1.5v4.1h-2l-.7-.7-.6-1.4-2.2-.6-1.3-.8-.6.8v.6l.6 2.8v4.2l.8 1.9 1.3 2.8 1.4 3.5 2.7 1.4v.6l-2.1 1.5-3.3.6h-.8v3.5l.8 2.7.5 1.4v3.3l1.4 1.6 1.4.6.7 1.3v4.2l2 1.3 4 6.3 1.4 2.7.7 2.1.6 3.5-2.7 3.3-.6 1.4 1.4 2.1.6 1.4 2.1.6 2.7 2.1 1.9-.7v.7l8.1 6.9 2.1 1.3 1.3.8 5.5 4.7 2.7 2.2v1.3l1.3.8 2.7 2.7 2 1.3v4.9l2.7 1.4 2.1 4.1.6 8.2-.6 1.4v2.9l37.8 3.9v2.1h1.3l2-2.1.7-.6V423.6l-1.9-.6v-1.4l1.9-1.4.8-2.7.6-4.1.8-4.9 1.3-2.1.6-2 3.5-.7 2.7-.8.6-.6V401l-.6-.8-1.4-.7 1.4-.7v-1.3l-1.4-1.4-1.3-1.4z"/><g><path opacity=".5" fill="#FBFAF0" enable-background="new" d="M293.6 211.6L505 296.5c-7.3-3.7-17.7-5.1-22.8 7.1-2.4 6.3.9 18.4 13.2 20.4 4.6 1 10.9-3.6 10.9-3.6L387 480.2c92.5-130.9-28.2-253.8-93.4-268.6z"/><path stroke="#FBFAF0" stroke-width="5.289" stroke-miterlimit="10" d="M420.3 388.7c-5.9 93.7-85.2 165.6-177.7 159.8-91.9-6-162.4-86.8-156.9-180.9 5.9-93.7 85.4-165.6 177.7-159.8 92.6 6 162.8 87.1 156.9 180.9" fill="none"/><path stroke="#FBFAF0" stroke-width="1.881" stroke-miterlimit="10" d="M511.3 312.3c-1.7 5.8-6.3 10.2-12.3 11.2-2.2.4-4.5-.1-6.8-.6-8-2.3-13-10.9-10.8-18.9s10.2-13 18.6-10.8c8.3 2.3 13 10.6 11.3 19.1z" fill="none"/></g><g><path fill="#BDBEC0" d="M489.7 278.9c0-4.5 3.3-8.2 8-8.2s8 3.5 8 8.2-3.6 8.2-8 8.2-8-3.5-8-8.2m-8.5 0c0 3.1.6 5.8 2.4 8.2l.3.3c.3.3.6 1.4 1.4 1.7l12.7 18.4 12.3-18.1c2.4-2.7 3.6-6.4 3.6-10.7 0-8.9-7.3-16.3-16.2-16.3-9 0-16.5 7.6-16.5 16.5"/><path stroke="#fff" stroke-width="3.251" stroke-miterlimit="10" d="M489.7 278.9c0-4.5 3.3-8.2 8-8.2s8 3.5 8 8.2-3.6 8.2-8 8.2-8-3.5-8-8.2" fill="none"/></g><g><g><path fill="#fff" d="M237.6 319c-5-4.4-5 2.1-10-2.7 1.9-6.8-5-5.1-5-10.2h-14.7c-5.3-10.5-18.4-13.2-24.7-23.1-3.3 3.7-12.7 2.4-19.7 2.7 1.4-9.1-1.9-15-5-20.1-.3-.3-2.3-5.1-2.7-5.1-1.4-.3-4.4.8-5 0-5.3-4.4-11.3-13.6-19.7-17.7-3.3-11.6 5-11.8-1.4-15.6.3-3.7-5.3-13.6-1.7-15 2.7-1.4 1.9-4.4 5-5.1 6-1.4 13.4.8 19.7 0 4.6-.8 7.3-3.7 12.7-5.1 9.6-2.1 19.7 1.7 29.7 0 7.3 7.5 7.3 22.5 19.7 25.2 2.3 9.1-4.4 13.6 0 17.7-1.4 5.1 9.6 5.8 10 12.9.3 6.4 4.6 4.4 5 10.2 0 3.7 1.4 5.1 2.7 7.5 1.4 2.4 6.7 5.8 7.3 7.5.6 2.4-1.9 11.2 0 12.9.3.8 5.8 4.8 5 10.2-1.3 8.4-7 3.2-7.2 12.9z"/><text transform="matrix(.982 0 0 1 143.659 240.18)" fill="#0A79AE" font-family="'ArialMT'" font-size="14.884">SONOMA</text></g><g><path fill="#fff" d="M140.5 315.6c10.2 2.2 8.1 15 19.4 16.3 9.1 0-3-7.3-4.1-9.5-2.4-4.2-1-8.6-4.1-12.9-5.1-7.3-12.2-13.4-19.4-16.3-.5-6.8 13.2-1.8 19.4-3.5 0 3 4.6 2.6 7.6 3.5-1 12.9 17.7 8.6 19.4 18.9 12.2-1.8 13.2 5.7 26.5 3.5 2.4 6 7.1 9.5 11.2 16.3 2.4 3.5 1 13.4 4.1 16.3 8.6 7.3-3.6 3.9 0 16.3.5 1.8 4.1 3.9 4.1 3.5.5 4.6-11.2 12.9 0 12.9-7.6 9.5-19.9-4.2-22.4-9.5-7.6 2.6-8.6-5.7-11.2-6.4-2.4-.8-5.7 2.6-4.1 3.5-4.1-2.2-22.4-12.1-22.4-18.9-.5-8.6-23.4 0-19.4-16.3-12.2-3-5.7 10.3-11.2 12.9-9.6-8.1 7.6-19.2 6.6-30.6z"/><text transform="matrix(.982 0 0 1 168.025 343.775)" fill="#0A79AE" font-family="'ArialMT'" font-size="14.884">MARIN</text></g><g><path fill="#fff" d="M232.4 229c4.6-4.4 12.7-5.8 19.7-7.5 8-5.4 5-21.7 19.7-20.1 2.3 6.8 3 15.6 7.3 20.1-1.4 5.1 3.6 5.4 5 7.5 1.9 3.5-1.4 9.1 5 7.5.6 14 .6 14 0 27.9-.6 7.5 5.8 7.5 5 15h-14.7c-2.3 12.9 0 15-2.7 25.2H264c1.4-9.9-4.6-12.6-2.7-23.1-.6-3-3.6-5.4-5-7.5-1.4-1.7-4.4-3.7-5-5.1-1.9-3-.6-6.8-2.7-10.2-1.7-2.7-5.8-2.7-7.3-5.1-2.3-3.7.3-15-10-12.9 1.1-3.4 1.1-7.7 1.1-11.7z"/><text transform="matrix(.982 0 0 1 247.161 250.297)" fill="#0A79AE" font-family="'ArialMT'" font-size="14.884">NAPA</text></g><g><path fill="#fff" d="M355.3 256.6v37c.8 4.1 6.8 2.3 11.2 3 3.3 15.7-6.8 17.6-14.3 22.6.8 6.8-4.1 8.5-5.7 14.5-10.2-2.3-14.7 3-19.5 3-.8 0 .8-5 0-5.8-3-2.7-7.5 5.3-11.2 3-.8-5 2.6-5 3-8.5-.8-3-5.7-1.9-5.7-5.8-10.5-.8-9 11.8-14.3 16.8-12.3-.4-21.5-5-27.8-11.4.4-6.2 12-1.5 16.6-3-.8-11.4 5.1-15.7 3-28.3 6.8.8 13.1.8 16.6-3-.8-12.6-8.2-17.6-5.7-34.1 7.5-2.3 5.7 5.8 11.2 5.8 11.8-10.3 23.5-5.8 42.6-5.8z"/><text transform="matrix(.982 0 0 1 300.394 312.464)" fill="#0A79AE" font-family="'ArialMT'" font-size="14.884">SOLANO</text></g><g><path fill="#fff" d="M348.8 337c3-.3 4.4.8 5 2.7-.6 3 .6 4.8 2.7 5.1-2.7 8.1-.3 5.8 0 15 1.4 7.5-5.8 10.5 2.7 12.9 0 3.7-5 1.7-7.3 2.7-1.4.8-3.6 4.8-5 5.1-4.4 1.7-10.7 2.1-17.4 2.7-6 3-12.3 6.2-19.7 7.5-2.7-3.5-2.3-9.1-5-12.9-5.8 0-7.3-4.4-14.7-2.7-3.6-5.8-8-10.5-12.7-15-6.3 0-14 .8-17.4-2.7 2.7-3.5 4.4-7.5 7.3-10.2 4.4 2.4 6-4.4 10-5.1 5.8-.8 8.6 2.7 14.7 2.7 6.3 0 12.7-3 19.7-2.7 5.3.8 10 3.5 14.7 5.1 5.8 1.7 12.3 0 14.7 5.1 6.4-1.8 5.6-9.7 7.7-15.3z"/><g font-family="'ArialMT'" font-size="14.884"><text transform="matrix(.982 0 0 1 301.421 368.039)" fill="#0A79AE">CONTRA</text><text transform="matrix(.982 0 0 1 359.266 368.039)" fill="#fff">C</text><text transform="matrix(.982 0 0 1 367.442 368.039)" fill="#fff">OSTA</text></g></g><g><path fill="#fff" d="M261.4 369.3c5.3 3.7 12.3 6.3 12.3 15.9 6.9.8 11.2 4.6 21.5 3.3 3.3 6.3 5.3 13.4 12.3 15.9 23.1-1.7 39.1-10.5 58.5-15.9 3 17.6-6.6 48.7 6.2 56.3-4.6 6.3-14.5 3-21.5 3.3-16.1.8-33.8 1.7-49.5 3.3-5.3-4.1-9.9-8.5-15.6-12.6-1.7-7.6-4.6-14.7-3.3-24.8-.8-7.2-10.7-5.8-9-15.9-.8-8.5-11.2-5.4-15.6-9.3 1.2-7.7 6.1-9.8 3.7-19.5z"/><text transform="matrix(.982 0 0 1 292.803 429.897)" fill="#0A79AE" font-family="'ArialMT'" font-size="14.884">ALAMEDA</text></g><g><path fill="#fff" d="M388.3 517c6.4-.8 10.2-4.2 19.5-3.1 2.3 4.2 3 3.5 5.7 11.6-.8-1.5-4.1 1.9-3 3.1 0 0 5.7 3.5 5.7 3.1-.8 5-8.4 9.6-8.4 16.8-11.3.8-20.7 0-25.6-5.8-.8 3.9-8.4.8-8.4 5.8-.8 3.9-4.9 4.2-5.7 8.5-15-3.1-18.1-20.3-27.9-28.4-.8-.8-4.9.8-5.7 0s-2.3-5-3-5.8c-.8-.8-4.9.8-5.7 0s.4-2.7 0-3.1c-.8-.4-4.9.8-5.7 0s-4.1-6.2-11.3-5.8c-4.1-10-11.3-16.8-19.5-22.8-.8-9.6-4.1-16.2-3-28.4 10.2-2.3 23.8.4 36.5 0 4.9 0 4.9-2.3 8.4-3.1 15-2.3 32 2.7 45.1-3.1 1.4 1.9 1.9 3.1 3 5.8.8.8-.8 5.4 0 5.8.8.8 2.6-.4 3 0 .4.8-.8 5 0 5.8 2.3 1.9 7.2 0 5.7 5.8 3 9.3-4.1 6.8-5.7 11.6-2.8 13.3 8.9 12.2 6 25.7z"/><text transform="matrix(.982 0 0 1 294.194 488.781)" fill="#0A79AE" font-family="'ArialMT'" font-size="14.884">SANTA CLARA</text></g><g><path fill="#fff" d="M234.4 384.6c10.9-2.1 13.4 4.6 12.2 15.6h-15.4c-1-7.9.3-12.3 3.2-15.6z"/><path stroke="#0A79AE" stroke-width="2.144" stroke-miterlimit="10" fill="none" d="M187.3 392.8h52.2"/><g fill="#fff" font-family="'ArialMT'" font-size="14.884"><text transform="matrix(.982 0 0 1 149.314 386.489)">SAN</text><text transform="matrix(.982 0 0 1 103.835 404.397)">FRANCISCO</text></g></g><g><path fill="#fff" d="M242.5 471.1c-.8-8.2-5.7-14.5-6-21.5-.4-5.3-10.2-2.1-8.9-9-.4-12.9 5.3-19.4 3.2-33.8h15.4c-.8 9-.8 19.8 6 24.3 2.8 2.1 8.9.8 12.2 3.3 7.3 5.3 8.9 16.8 17.7 15.6-2.8 5.3-10.9 5.3-12.2 12.3.4 4.1.4 8.2-3.2 9l-24.2-.2z"/><g fill="#fff" font-family="'ArialMT'" font-size="14.884"><text transform="matrix(.982 0 0 1 170.047 435.416)">SAN</text><text transform="matrix(.982 0 0 1 150.629 453.324)">MATEO</text></g><path stroke="#0A79AE" stroke-width="2.144" stroke-miterlimit="10" fill="none" d="M204.1 439.6h37.3"/></g><g><path fill="#fff" d="M266.4 480.2c1.9 10.3 10.5 13.6 8.9 28h-12.2c-3.6 5.3-10.2 8.2-17.7 9-10.5-9-1.7-23.5-3.2-36.6l24.2-.4z"/><path stroke="#0A79AE" stroke-width="2.144" stroke-miterlimit="10" fill="none" d="M228.4 495.8h28.8"/><g fill="#fff" font-family="'ArialMT'" font-size="14.884"><text transform="matrix(.982 0 0 1 179.2 491.754)">SANTA</text><text transform="matrix(.982 0 0 1 187.273 509.662)">CRUZ</text></g></g></g><g><text transform="translate(482.145 515.719)" fill="#0A79AE" font-family="'ArialMT'" font-size="24.988">for charities in</text><text transform="translate(410.039 558.21)" fill="#0A79AE" font-family="'Arial-BoldMT'" font-size="32.143">9 Bay Area Counties</text><text transform="translate(411.792 480.139)" fill="#0A79AE" font-family="'Arial-BoldMT'" font-size="46.286">$219M Raised</text></g></g></svg>