<svg width="34.6" height="34.6" viewBox="0 0 34.6 34.6"><path fill="#fff" d="M15.9 22.6c.1.2-.1.6-.2.9-.1.3-.5.5-.7.6s-.8.9-.9 1c-.1.2-.2.6-.4.7-.2.1-1.2.8-1.2.8-.1 0-.5.2-.6.4s.4.1.5.2c.1 0 .3 0 .3.3v.6c0 .1-.3.2-.4.2s-.2.2-.2.2l-.1.1-.5.5C7 27 3.8 22.4 3.8 17.1c0-4.5 2.3-8.5 5.7-10.9.2.1.3.2.3.3.1.1.4.7.4.9 0 .3-.2.5-.4.4s-.3-.3-.4-.1c-.1.2 0 .6 0 .8s0 .8-.1.9c-.1.2-.4.6-.6.5-.1-.1-.2-.6-.4-.7-.2-.1-.7-.2-.8.2-.1.3-.1.9-.1 1.1 0 .2.1.5.3.6s.6.1.8.4c.2.2.4.6.6.7l.5.5c.2.1.3.2.4.2.1 0 .1 0 .1.1v.3c0 .1.1.2-.1.4s-.2.1-.5.3c-.2.2-.2.1-.3.3 0 .2-.1.4-.1.5s.1.4 0 .6c-.1.1-.2.3-.2.3s-.1.1-.1.2V16.2c-.1 0-.1 0-.2.1-.2.1-.8.4-1.1.7-.4.3-.4.5-1.4 2s.8 2.5.9 2.6c.1.1.4-.1.6-.2.2-.1.2 0 .9.3s1 .1 1.3 0c.3 0 .4-.5.5-.7s.5-.3.7-.2.3.5.3.8l.1.3.3.2h.7s.4 0 .4-.1c.1 0 .6-.3.8-.7.2-.5.5-.3.6-.3s.2.3.2.5-.2.3-.4.5c-.2.1 0 .3.1.4.1 0 .5-.3.7-.4.2-.1.7 0 .9.1.2.1.1.4.2.5zm1.2-18.7c-2.3 0-4.4.6-6.3 1.6l-.1.7c-.1.1-.1.4-.1.5s0 .3-.1.6-.3 1.1-.3 1.4-.2.8-.4 1.4c-.1.7.2 1.4.2 1.8 0 .4.6 1.5.6 1.9s-.3.4-.5.5c-.2.2-.3.3-.6.8-.2.6-.1.7-.1.9s.3.4.3.4l.2.2c.2.2.9.8.9 1.2.1.4 0 .8.1 1.1s.1.2.3.2c.1 0 .5.4.7.6.2.3.3.4.3.5s0 .3.2.3.4-.1.6-.3.5-.4.6-.9.1-.8.3-1 1.4-.3 1.8-.3c.3 0 .8 0 .8.3s0 .3.3.3.7-.3.7-.4c0 0 .9-.9 1-1.2.1-.2.6-.7.9-.9.3-.2 1.3-1 2.2-1.1.9-.2 1.5-.2 2.2-.3.7 0 1.4-.4 1.7-.5s1.1-.2 1.2-.4c.1-.2.1-.5.4-.8s.4-.3.7-.3c.4 0 .7-.3.8.2.1.5-.1.7-.2.9-.1.1-.6.6-.8.6s-.4-.2-.6-.1c-.2.1-.4.2-.4.4s.1.4.1.6c0 .2-.3.4-.5.6-.2.1-.6.4-.7.5-.1.2-.4.7-.6.8-.2.2-.5.3-.5.7.1.4-.2 1-.4 1.1s-.2.5-.2.7-.5.7-.7.7c-.2-.1-.3-.2-.6-.1s-.4.2-.7.2-.6-.2-1-.1c-.5.1-.6.1-.8 0-.1-.1-.4-.5-.9-.4s-1.1-.1-1.6.2-.6.4-.6.8c-.1.4-.2 1.1-.1 1.3.1.3.2.6.3.7.1.1.2.4.6.4.4 0 1.7 0 2-.1.3 0 2.3-.1 2.6 0 .4.1.8.2.9.3.1.1 0 .3.2.3s.6-.1.9 0 1 .3 1.5 0 .4-.9.6-1c.2-.1.2-.3.5-.3s1.3.1 1.8-.1c.2-.1.5-.2.7-.3l.1-.1c.6-1.5.9-3.2.9-4.9 0-7.4-6-13.3-13.3-13.3zm17.5 13.4c0 4.6-1.8 9-5.1 12.2-3.3 3.3-7.6 5.1-12.2 5.1s-9-1.8-12.2-5.1C1.8 26.2 0 21.9 0 17.3s1.8-9 5.1-12.2C8.4 1.8 12.7 0 17.3 0s9 1.8 12.2 5.1c3.3 3.2 5.1 7.6 5.1 12.2zm-1.2 0c0-8.9-7.2-16.1-16.1-16.1S1.2 8.4 1.2 17.3s7.2 16.1 16.1 16.1 16.1-7.2 16.1-16.1z"/></svg>