<?xml version="1.0" encoding="utf-8"?>
<!-- Generator: Adobe Illustrator 16.0.4, SVG Export Plug-In . SVG Version: 6.00 Build 0)  -->
<!DOCTYPE svg PUBLIC "-//W3C//DTD SVG 1.1//EN" "http://www.w3.org/Graphics/SVG/1.1/DTD/svg11.dtd">
<svg version="1.1" id="Layer_1" xmlns="http://www.w3.org/2000/svg" xmlns:xlink="http://www.w3.org/1999/xlink" x="0px" y="0px"
	 width="56.617px" height="50.5px" viewBox="0 0 56.617 50.5" enable-background="new 0 0 56.617 50.5" xml:space="preserve">
<path fill="#DAD2DB" d="M10.996,25.766c-0.285,0-0.457-0.016-0.467-0.018l0.131-1.217c0.214,0.023,5.241,0.479,6.324-4.951
	c0.778-3.906,2.84-5.887,6.127-5.887v1.224c-2.695,0-4.261,1.558-4.928,4.902C17.089,25.312,12.487,25.766,10.996,25.766z"/>
<path fill="#DAD2DB" d="M10.948,25.635l-0.705-0.986l0.353,0.493l-0.354-0.492c0.045-0.033,4.52-3.374,6.024-12.906
	c1.262-7.997,4.007-8.685,6.481-8.703l0.345-0.005l0.037,1.211l-0.373,0.005c-1.627,0.012-4.086,0.03-5.293,7.681
	C15.872,22.014,11.149,25.492,10.948,25.635z"/>
<path fill="#DAD2DB" d="M23.112,36.557c-3.287,0-5.349-1.98-6.127-5.889c-1.083-5.428-6.11-4.973-6.324-4.949l-0.131-1.216
	c0.06-0.012,6.349-0.615,7.654,5.926c0.667,3.346,2.232,4.904,4.928,4.904V36.557z"/>
<path fill="#DAD2DB" d="M23.093,47.215l-0.346-0.006c-2.474-0.02-5.219-0.709-6.48-8.703c-1.505-9.531-5.979-12.874-6.024-12.905
	l0.706-0.985c0.2,0.145,4.924,3.621,6.516,13.701c1.206,7.65,3.665,7.668,5.292,7.682l0.374,0.006L23.093,47.215z"/>
<path fill="#DAD2DB" d="M32.863,17.878h-11.02v-7.075h11.018v7.075H32.863z M23.534,16.189h7.639v-3.696h-7.639V16.189z"/>
<path fill="#DAD2DB" d="M32.863,7.076h-11.02V0h11.018v7.076H32.863z M23.534,5.386h7.639V1.69h-7.639V5.386z"/>
<path fill="#A52577" d="M32.861,28.678H21.844v-7.074h11.016v7.074H32.861z M23.534,26.988h7.637v-3.694h-7.637V26.988z"/>
<path fill="#A52577" d="M11.019,28.678H0v-7.074h11.019V28.678z M1.69,26.988h7.64v-3.694H1.69V26.988z"/>
<path fill="#DAD2DB" d="M32.861,39.48H21.844v-7.074h11.016v7.074H32.861z M23.534,37.793h7.637v-3.697h-7.637V37.793z"/>
<path fill="#DAD2DB" d="M32.861,50.285H21.844v-7.078h11.016v7.078H32.861z M23.534,48.594h7.637v-3.697h-7.637V48.594z"/>
<path fill="#A52577" d="M54.705,17.878h-11.02v-7.075h11.02V17.878z M45.375,16.189h7.641v-3.696h-7.641V16.189z"/>
<path fill="#A52577" d="M54.705,7.076h-11.02V0h11.02V7.076z M45.375,5.386h7.641V1.69h-7.641V5.386z"/>
<path fill="#A52577" d="M54.705,28.678h-11.02v-7.074h11.02V28.678z M45.375,26.988h7.641v-3.694h-7.641V26.988z"/>
<path fill="#A52577" d="M54.705,39.48h-11.02v-7.074h11.02V39.48z M45.375,37.793h7.641v-3.697h-7.641V37.793z"/>
<path fill="#A52577" d="M54.705,50.285h-11.02v-7.078h11.02V50.285z M45.375,48.594h7.641v-3.697h-7.641V48.594z"/>
<rect x="10.492" y="24.609" fill="#A52577" width="12.34" height="1.151"/>
<rect x="32.016" y="24.609" fill="#A52577" width="12.516" height="1.151"/>
<path fill="#A52577" d="M32.416,25.766c-0.285,0-0.457-0.016-0.467-0.018l0.131-1.217c0.214,0.023,5.24,0.479,6.324-4.951
	c0.777-3.906,2.84-5.887,6.127-5.887v1.224c-2.695,0-4.262,1.558-4.928,4.902C38.509,25.312,33.906,25.766,32.416,25.766z"/>
<path fill="#A52577" d="M32.367,25.635l-0.705-0.986l0.354,0.493l-0.354-0.492c0.045-0.033,4.52-3.374,6.023-12.906
	c1.262-7.997,4.008-8.685,6.48-8.703l0.346-0.005l0.037,1.211l-0.373,0.005c-1.627,0.012-4.086,0.03-5.293,7.681
	C37.292,22.014,32.568,25.492,32.367,25.635z"/>
<path fill="#A52577" d="M44.531,36.557c-3.287,0-5.35-1.98-6.127-5.889c-1.084-5.428-6.11-4.973-6.324-4.949l-0.131-1.216
	c0.06-0.012,6.349-0.615,7.654,5.926c0.666,3.346,2.23,4.904,4.928,4.904V36.557z"/>
<path fill="#A52577" d="M44.512,47.215l-0.346-0.006c-2.473-0.02-5.219-0.709-6.479-8.703c-1.506-9.531-5.979-12.874-6.025-12.905
	l0.707-0.985c0.199,0.145,4.924,3.621,6.516,13.701c1.205,7.65,3.664,7.668,5.291,7.682l0.375,0.006L44.512,47.215z"/>
<path fill="none" stroke="#A52577" stroke-width="1.2233" stroke-miterlimit="10" d="M524.867,223.244c0,0,5.775,0.631,6.986-5.439
	c0.738-3.703,2.588-5.395,5.528-5.395"/>
<path fill="none" stroke="#A52577" stroke-width="1.2117" stroke-miterlimit="10" d="M524.867,223.246c0,0,4.699-3.357,6.269-13.303
	c1.376-8.717,4.459-8.145,6.247-8.197"/>
<path fill="none" stroke="#A52577" stroke-width="1.2233" stroke-miterlimit="10" d="M524.867,223.215c0,0,5.775-0.631,6.986,5.438
	c0.738,3.705,2.588,5.396,5.528,5.396"/>
<path fill="none" stroke="#A52577" stroke-width="1.2117" stroke-miterlimit="10" d="M524.867,223.213c0,0,4.699,3.357,6.269,13.303
	c1.376,8.717,4.459,8.144,6.247,8.197"/>
</svg>
