<?xml version="1.0" encoding="utf-8"?>
<!-- Generator: Adobe Illustrator 16.2.0, SVG Export Plug-In . SVG Version: 6.00 Build 0)  -->
<!DOCTYPE svg PUBLIC "-//W3C//DTD SVG 1.1//EN" "http://www.w3.org/Graphics/SVG/1.1/DTD/svg11.dtd">
<svg version="1.1" id="Layer_1" xmlns="http://www.w3.org/2000/svg" xmlns:xlink="http://www.w3.org/1999/xlink" x="0px" y="0px"
	 width="50.625px" height="62.313px" viewBox="0 0 50.625 62.313" enable-background="new 0 0 50.625 62.313" xml:space="preserve">
<path fill="none" stroke="#FFFFFF" stroke-miterlimit="10" d="M25.313,0.5C11.609,0.5,0.5,11.609,0.5,25.313
	c0,3.979,0.941,7.734,2.605,11.066l0,0l8.947,24.59l5.316-12.15c2.495,0.844,5.165,1.307,7.945,1.307
	c13.703,0,24.813-11.108,24.813-24.813C50.125,11.609,39.016,0.5,25.313,0.5z"/>
<path fill="#FFFFFF" d="M27.085,29.855h-1.717c-0.25,0-0.118-0.308-0.118-0.559v-0.441h-6.243h-7.724l-3.157-2.179l3.157-3.821
	h1.357l1.41,1h0.491l1.926-1.389l1.415,2.389h0.413l1.165-2h0.723l1.173,2.222l0.361,0.099l1.583-2.32h1.949v-0.828
	c0-0.25-0.133-0.172,0.118-0.172h1.502c1.362-3,3.922-4.134,6.863-4.134c4.366,0,7.905,3.469,7.905,7.835
	c0,4.365-3.54,7.922-7.905,7.922C30.941,33.479,28.491,31.855,27.085,29.855z M40.059,25.486c0-1.512-1.226-2.738-2.738-2.738
	c-1.512,0-2.737,1.227-2.737,2.738s1.226,2.737,2.737,2.737C38.833,28.224,40.059,26.998,40.059,25.486z"/>
</svg>
