<?xml version="1.0" encoding="utf-8"?>
<!-- Generator: Adobe Illustrator 16.2.0, SVG Export Plug-In . SVG Version: 6.00 Build 0)  -->
<!DOCTYPE svg PUBLIC "-//W3C//DTD SVG 1.1//EN" "http://www.w3.org/Graphics/SVG/1.1/DTD/svg11.dtd">
<svg version="1.1" id="Layer_1" xmlns="http://www.w3.org/2000/svg" xmlns:xlink="http://www.w3.org/1999/xlink" x="0px" y="0px"
	 width="137px" height="63px" viewBox="0 0 137 63" enable-background="new 0 0 137 63" xml:space="preserve">
<g>
	<rect fill="#FFFFFF" width="137" height="63"/>
</g>
<g>
	<path fill="#FC4C02" d="M27.998,37.058c2.602,0,3.86-2.645,3.86-5.045s-1.219-5.109-3.86-5.109c-2.754,0-3.969,2.709-3.969,5.109
		S25.283,37.058,27.998,37.058 M36.868,38.173c0,1.279,0,3.27-2.402,3.27c-1.466,0-2.052-0.807-2.404-2.125
		c-1.282,1.529-2.85,2.328-4.768,2.328c-4.69,0-8.273-4.004-8.273-9.633c0-5.498,3.687-9.707,8.273-9.707
		c1.846,0,3.654,0.727,4.768,2.292c0.139-1.217,1.189-2.083,2.404-2.083c2.402,0,2.402,1.985,2.402,3.276V38.173z"/>
	<path fill="#FC4C02" d="M47.22,37.056c2.602,0,3.89-2.715,3.89-5.043c0-2.363-1.289-5.111-3.89-5.111
		c-2.687,0-3.933,2.5-3.933,4.936C43.287,34.275,44.464,37.056,47.22,37.056 M38.277,25.3c0-1.667,1.038-2.785,2.502-2.785
		c1.384,0,2.192,0.771,2.508,2.083c0.935-1.527,2.885-2.292,4.768-2.292c5.38,0,8.06,5.044,8.06,9.912
		c0,4.734-3.19,9.428-8.236,9.428c-1.576,0-3.271-0.594-4.591-1.74v6.121c0,1.666-1.044,2.779-2.508,2.779s-2.502-1.113-2.502-2.779
		V25.3z"/>
	<path fill="#FC4C02" d="M57.301,25.3c0-1.667,1.041-2.785,2.504-2.785c1.46,0,2.504,1.118,2.504,2.785v13.35
		c0,1.676-1.044,2.793-2.504,2.793c-1.463,0-2.504-1.117-2.504-2.793V25.3z M62.626,17.752c0,1.57-1.256,2.885-2.822,2.885
		c-1.498,0-2.819-1.355-2.819-2.885c0-1.426,1.321-2.752,2.819-2.752C61.299,15,62.626,16.293,62.626,17.752"/>
	<path fill="#4A494A" d="M72.396,26.904c-2.614,0-3.896,2.709-3.896,5.033c0,2.68,1.283,5.121,3.896,5.121
		c2.677,0,3.929-2.506,3.929-4.941C76.325,29.683,75.143,26.904,72.396,26.904 M81.333,39.773c0,6.016-3.933,9.033-9.627,9.033
		c-2.058,0-7.902-1.006-7.902-3.748c0-0.949,1.042-2.201,2.018-2.201c1.598,0,3.369,1.574,6.264,1.574
		c2.429,0,4.24-1.424,4.24-3.969v-1.178H76.26c-1.055,1.533-2.75,2.361-5.053,2.361c-5.244,0-7.717-4.627-7.717-9.604
		c0-5.041,3.202-9.736,8.247-9.736c1.704,0,3.65,0.766,4.588,2.292c0.315-1.313,1.111-2.084,2.506-2.084
		c1.464,0,2.502,1.118,2.502,2.788V39.773z"/>
	<path fill="#4A494A" d="M95.211,30.314c-0.277-2.197-1.666-3.828-3.996-3.828c-2.226,0-3.73,1.699-3.972,3.828H95.211z
		 M87.353,33.652c0.346,2.463,2.402,3.613,4.726,3.613c2.578,0,4.35-2.018,5.671-2.018c1.081,0,2.056,1.076,2.056,2.158
		c0,2.152-4.454,4.24-8.178,4.24c-5.636,0-9.39-4.104-9.39-9.635c0-5.072,3.685-9.704,8.978-9.704c5.422,0,9.006,4.94,9.006,9.112
		c0,1.5-0.662,2.232-2.195,2.232H87.353z"/>
	<path fill="#4A494A" d="M114.003,30.375c-0.272-2.193-1.669-3.828-3.998-3.828c-2.228,0-3.726,1.703-3.964,3.828H114.003z
		 M106.147,33.714c0.35,2.477,2.396,3.617,4.73,3.617c2.569,0,4.345-2.02,5.665-2.02c1.082,0,2.055,1.076,2.055,2.154
		c0,2.156-4.454,4.246-8.17,4.246c-5.639,0-9.396-4.107-9.396-9.635c0-5.084,3.689-9.705,8.974-9.705
		c5.427,0,9.017,4.937,9.017,9.111c0,1.502-0.662,2.23-2.205,2.23H106.147z"/>
</g>
</svg>
