<?xml version="1.0" encoding="utf-8"?>
<!-- Generator: Adobe Illustrator 16.2.0, SVG Export Plug-In . SVG Version: 6.00 Build 0)  -->
<!DOCTYPE svg PUBLIC "-//W3C//DTD SVG 1.1//EN" "http://www.w3.org/Graphics/SVG/1.1/DTD/svg11.dtd">
<svg version="1.1" id="Layer_1" xmlns="http://www.w3.org/2000/svg" xmlns:xlink="http://www.w3.org/1999/xlink" x="0px" y="0px"
	 width="240.776px" height="22.418px" viewBox="0 0 240.776 22.418" enable-background="new 0 0 240.776 22.418"
	 xml:space="preserve">
<path fill="#4B4A4B" d="M238.476,22.418H2.3c-1.271,0-2.3-0.882-2.3-1.971V0h240.776v20.447
	C240.776,21.536,239.746,22.418,238.476,22.418"/>
<line fill="none" stroke="#FFFFFF" stroke-width="3" stroke-linecap="round" stroke-miterlimit="10" x1="32.495" y1="11.209" x2="205.997" y2="11.209"/>
<path fill="#FFFFFF" d="M65.362,16.998c0,0.55-0.45,1-1,1h-4.528c-0.55,0-1-0.45-1-1V6.083c0-0.55,0.45-1,1-1h4.528
	c0.55,0,1,0.45,1,1V16.998z"/>
<polygon fill="#FFFFFF" points="10.497,11.54 10.497,5.083 17.025,8.312 23.553,11.54 17.025,14.77 10.497,17.998 "/>
</svg>
