<?xml version="1.0" encoding="utf-8"?>
<!-- Generator: Adobe Illustrator 16.2.0, SVG Export Plug-In . SVG Version: 6.00 Build 0)  -->
<!DOCTYPE svg PUBLIC "-//W3C//DTD SVG 1.1//EN" "http://www.w3.org/Graphics/SVG/1.1/DTD/svg11.dtd">
<svg version="1.1" id="Layer_1" xmlns="http://www.w3.org/2000/svg" xmlns:xlink="http://www.w3.org/1999/xlink" x="0px" y="0px"
	 width="86.691px" height="86.69px" viewBox="0 0 86.691 86.69" enable-background="new 0 0 86.691 86.69" xml:space="preserve">
<g>
	<defs>
		<circle id="XMLID_4_" cx="43.346" cy="43.346" r="41.346"/>
	</defs>
	<clipPath id="XMLID_2_">
		<use xlink:href="#XMLID_4_"  overflow="visible"/>
	</clipPath>
	
		<circle clip-path="url(#XMLID_2_)" fill="#4A494A" stroke="#6D6E70" stroke-width="4" stroke-miterlimit="10" cx="43.346" cy="43.346" r="41.346"/>
	<g clip-path="url(#XMLID_2_)">
		<rect x="13.64" y="18.144" fill="#FFFFFF" stroke="#5A5B5C" stroke-width="2" stroke-miterlimit="10" width="59" height="53"/>
		<line fill="none" stroke="#5A5B5C" stroke-width="2" stroke-miterlimit="10" x1="15.64" y1="31.144" x2="70.64" y2="31.144"/>
		<g>
			<rect x="18.64" y="35.144" fill="none" stroke="#5A5B5C" stroke-width="2" stroke-miterlimit="10" width="4" height="4"/>
			<rect x="27.64" y="35.144" fill="none" stroke="#5A5B5C" stroke-width="2" stroke-miterlimit="10" width="4" height="4"/>
			<rect x="36.64" y="35.144" fill="none" stroke="#5A5B5C" stroke-width="2" stroke-miterlimit="10" width="4" height="4"/>
			<rect x="45.64" y="35.144" fill="none" stroke="#5A5B5C" stroke-width="2" stroke-miterlimit="10" width="4" height="4"/>
			<rect x="54.64" y="35.144" fill="none" stroke="#5A5B5C" stroke-width="2" stroke-miterlimit="10" width="4" height="4"/>
			<rect x="63.64" y="35.144" fill="none" stroke="#5A5B5C" stroke-width="2" stroke-miterlimit="10" width="4" height="4"/>
		</g>
		<g>
			<rect x="18.64" y="44.144" fill="none" stroke="#5A5B5C" stroke-width="2" stroke-miterlimit="10" width="4" height="4"/>
			<rect x="27.64" y="44.144" fill="none" stroke="#5A5B5C" stroke-width="2" stroke-miterlimit="10" width="4" height="4"/>
			<rect x="36.64" y="44.144" fill="none" stroke="#5A5B5C" stroke-width="2" stroke-miterlimit="10" width="4" height="4"/>
			<rect x="45.64" y="44.144" fill="none" stroke="#5A5B5C" stroke-width="2" stroke-miterlimit="10" width="4" height="4"/>
			<rect x="54.64" y="44.144" fill="none" stroke="#5A5B5C" stroke-width="2" stroke-miterlimit="10" width="4" height="4"/>
			<rect x="63.64" y="44.144" fill="none" stroke="#5A5B5C" stroke-width="2" stroke-miterlimit="10" width="4" height="4"/>
		</g>
		<g>
			<rect x="18.64" y="53.144" fill="none" stroke="#5A5B5C" stroke-width="2" stroke-miterlimit="10" width="4" height="4"/>
			<rect x="27.64" y="53.144" fill="none" stroke="#5A5B5C" stroke-width="2" stroke-miterlimit="10" width="4" height="4"/>
			<rect x="36.64" y="53.144" fill="none" stroke="#5A5B5C" stroke-width="2" stroke-miterlimit="10" width="4" height="4"/>
			<rect x="45.64" y="53.144" fill="none" stroke="#5A5B5C" stroke-width="2" stroke-miterlimit="10" width="4" height="4"/>
			<rect x="54.64" y="53.144" fill="none" stroke="#5A5B5C" stroke-width="2" stroke-miterlimit="10" width="4" height="4"/>
			<rect x="63.64" y="53.144" fill="none" stroke="#5A5B5C" stroke-width="2" stroke-miterlimit="10" width="4" height="4"/>
		</g>
		<g>
			<rect x="18.64" y="62.144" fill="none" stroke="#5A5B5C" stroke-width="2" stroke-miterlimit="10" width="4" height="4"/>
			<rect x="27.64" y="62.144" fill="none" stroke="#5A5B5C" stroke-width="2" stroke-miterlimit="10" width="4" height="4"/>
			<rect x="36.64" y="62.144" fill="none" stroke="#5A5B5C" stroke-width="2" stroke-miterlimit="10" width="4" height="4"/>
			<rect x="45.64" y="62.144" fill="none" stroke="#5A5B5C" stroke-width="2" stroke-miterlimit="10" width="4" height="4"/>
			<rect x="54.64" y="62.144" fill="none" stroke="#5A5B5C" stroke-width="2" stroke-miterlimit="10" width="4" height="4"/>
			<rect x="63.64" y="62.144" fill="none" stroke="#5A5B5C" stroke-width="2" stroke-miterlimit="10" width="4" height="4"/>
		</g>
		<line fill="none" stroke="#5A5B5C" stroke-width="4" stroke-miterlimit="10" x1="20.64" y1="24.144" x2="40.64" y2="24.144"/>
	</g>
	<use xlink:href="#XMLID_4_"  overflow="visible" fill="none" stroke="#6D6E70" stroke-width="4" stroke-miterlimit="10"/>
</g>
</svg>
