<?xml version="1.0" encoding="utf-8"?>
<!-- Generator: Adobe Illustrator 16.2.0, SVG Export Plug-In . SVG Version: 6.00 Build 0)  -->
<!DOCTYPE svg PUBLIC "-//W3C//DTD SVG 1.1//EN" "http://www.w3.org/Graphics/SVG/1.1/DTD/svg11.dtd">
<svg version="1.1" id="Layer_1" xmlns="http://www.w3.org/2000/svg" xmlns:xlink="http://www.w3.org/1999/xlink" x="0px" y="0px"
	 width="86.691px" height="86.69px" viewBox="0 0 86.691 86.69" enable-background="new 0 0 86.691 86.69" xml:space="preserve">
<g>
	<defs>
		<circle id="SVGID_1_" cx="43.346" cy="43.346" r="41.346"/>
	</defs>
	<clipPath id="SVGID_2_">
		<use xlink:href="#SVGID_1_"  overflow="visible"/>
	</clipPath>
	
		<circle clip-path="url(#SVGID_2_)" fill="#4A494A" stroke="#6D6E70" stroke-width="4" stroke-miterlimit="10" cx="43.346" cy="43.346" r="41.346"/>
	<g clip-path="url(#SVGID_2_)">
		<path fill-rule="evenodd" clip-rule="evenodd" fill="#FFFFFF" stroke="#6D6E70" stroke-width="2" stroke-miterlimit="10" d="
			M14.868,25.988c1.585-0.562,3.024,0.907,3.79,4.701c0.767,3.793,1.491,5.781-0.094,6.345c-1.585,0.563-3.391-0.911-4.523-4.704
			C12.909,28.536,13.283,26.552,14.868,25.988L14.868,25.988z M56.122,25.988c-1.588-0.563-3.024,0.907-3.792,4.704
			c-0.767,3.795-1.492,5.777,0.095,6.341c1.587,0.563,3.39-0.907,4.522-4.703C58.082,28.534,57.709,26.552,56.122,25.988
			L56.122,25.988z"/>
		<path fill-rule="evenodd" clip-rule="evenodd" fill="#6D6E70" stroke="#6D6E70" d="M6.984,84.302
			c-5.258,0-5.236-1.337-4.816-5.564c0.576-5.789,1.522-11.677,3.293-17.243c1.478-4.648,2.902-6.155,8.655-6.886
			c8.954-1.14,11.883-4.456,21.439-4.456s12.482,3.316,21.438,4.456c5.751,0.731,7.177,2.238,8.656,6.886
			c1.771,5.566,2.717,11.454,3.293,17.243c0.419,4.225,0.44,5.564-4.818,5.564H6.984L6.984,84.302z"/>
		<path fill-rule="evenodd" clip-rule="evenodd" fill="#FFFFFF" d="M6.986,82.827h5.755c-0.006-5.872-0.114-12.793-0.681-18.624
			c2.491,2.895,2.799,14.853,2.885,18.624h41.22c0.084-3.771,0.395-15.729,2.885-18.624c-0.566,5.83-0.675,12.752-0.683,18.624
			h5.757c3.977,0,3.718-0.252,3.352-3.944c-0.566-5.709-1.487-11.463-3.229-16.941c-1.427-4.486-2.725-5.273-7.437-5.873
			c-3.406-0.432-6.239-1.268-9.376-2.268v0.462c0,10.264-23.874,10.264-23.874,0v-0.425c-3.091,0.983-5.894,1.805-9.258,2.231
			c-4.712,0.6-6.01,1.387-7.437,5.873c-1.742,5.478-2.662,11.231-3.23,16.941C3.269,82.577,3.01,82.827,6.986,82.827L6.986,82.827z"
			/>
		<path fill-rule="evenodd" clip-rule="evenodd" fill="#FFFFFF" stroke="#6D6E70" stroke-width="2" d="M25.525,30.553h19.943v23.71
			c0,7.623-19.943,7.623-19.943,0V30.553L25.525,30.553z"/>
		<path fill-rule="evenodd" clip-rule="evenodd" fill="#FFFFFF" stroke="#6D6E70" stroke-width="2" stroke-miterlimit="10" d="
			M35.496,5.404c13.671,0,18.249,7.856,18.249,20.799c0,12.836-3.049,25.416-18.249,25.416s-18.25-12.579-18.25-25.416
			C17.246,13.26,21.825,5.404,35.496,5.404L35.496,5.404z"/>
		<path fill-rule="evenodd" clip-rule="evenodd" fill="#FFFFFF" stroke="#6D6E70" stroke-width="2" stroke-linejoin="round" d="
			M35.495,2.79c8.505,0,14.528,2.876,17.04,7.728c2.51,4.852,4.038,19.063,0.705,24.046c0.066-5.81-0.942-15.096-7.231-18.186
			c-3.505,1.334-7.011,2.781-10.514,2.787c-3.479,0.005-6.96-1.403-10.442-2.732c-6.301,3.138-7.284,12.494-7.162,18.356
			c-3.447-4.467-1.951-19.227,0.553-24.141C20.947,5.735,26.992,2.79,35.495,2.79L35.495,2.79z"/>
		<path fill-rule="evenodd" clip-rule="evenodd" fill="#FFFFFF" d="M23.559,53.839c-3.091,0.983-5.895,1.805-9.257,2.233
			c-4.05,0.515-5.576,1.168-6.83,4.185c2.39-1.473,4.187-1.393,6.83-1.729c3.366-0.427,6.551-1.193,9.738-1.897
			c-0.309-0.716-0.481-1.505-0.481-2.367V53.839L23.559,53.839z"/>
		<g>
			<g>
				<path fill-rule="evenodd" clip-rule="evenodd" fill="#59595B" d="M73.09,51.477c0,2.2,0,5.8,0,8v0.526c0,2.2-1.559,3.1-3.464,2
					L69.17,61.74c-1.905-1.1-5.022-2.9-6.928-4l-0.455-0.263c-1.906-1.1-1.906-2.9,0-4l0.455-0.263c1.905-1.1,5.022-2.9,6.928-4
					l0.456-0.263c1.905-1.1,3.464-0.2,3.464,2V51.477z"/>
				<path fill="none" stroke="#59595B" stroke-width="3" stroke-miterlimit="10" d="M73.09,51.477c0,2.2,0,5.8,0,8v0.526
					c0,2.2-1.559,3.1-3.464,2L69.17,61.74c-1.905-1.1-5.022-2.9-6.928-4l-0.455-0.263c-1.906-1.1-1.906-2.9,0-4l0.455-0.263
					c1.905-1.1,5.022-2.9,6.928-4l0.456-0.263c1.905-1.1,3.464-0.2,3.464,2V51.477z"/>
				<path fill-rule="evenodd" clip-rule="evenodd" fill="#59595B" d="M64.713,61.613c0,2.2-1.801,4-4,4H42.631c-2.199,0-4-1.8-4-4
					V48.907c0-2.2,1.801-4,4-4h18.082c2.199,0,4,1.8,4,4V61.613z"/>
				<path fill="none" stroke="#59595B" stroke-width="3" stroke-miterlimit="10" d="M64.713,61.613c0,2.2-1.801,4-4,4H42.631
					c-2.199,0-4-1.8-4-4V48.907c0-2.2,1.801-4,4-4h18.082c2.199,0,4,1.8,4,4V61.613z"/>
			</g>
			<g>
				<g>
					<g>
						<path fill-rule="evenodd" clip-rule="evenodd" fill="#FFFFFF" d="M75.09,49.477c0,2.2,0,5.8,0,8v0.526
							c0,2.2-1.559,3.1-3.464,2L71.17,59.74c-1.905-1.1-5.022-2.9-6.928-4l-0.455-0.263c-1.906-1.1-1.906-2.9,0-4l0.455-0.263
							c1.905-1.1,5.022-2.9,6.928-4l0.456-0.263c1.905-1.1,3.464-0.2,3.464,2V49.477z"/>
						<path fill="none" stroke="#6D6E70" stroke-width="3" stroke-miterlimit="10" d="M75.09,49.477c0,2.2,0,5.8,0,8v0.526
							c0,2.2-1.559,3.1-3.464,2L71.17,59.74c-1.905-1.1-5.022-2.9-6.928-4l-0.455-0.263c-1.906-1.1-1.906-2.9,0-4l0.455-0.263
							c1.905-1.1,5.022-2.9,6.928-4l0.456-0.263c1.905-1.1,3.464-0.2,3.464,2V49.477z"/>
					</g>
					<g>
						<path fill-rule="evenodd" clip-rule="evenodd" fill="#FFFFFF" d="M66.713,59.613c0,2.2-1.801,4-4,4H44.631c-2.199,0-4-1.8-4-4
							V46.907c0-2.2,1.801-4,4-4h18.082c2.199,0,4,1.8,4,4V59.613z"/>
						<path fill="none" stroke="#6D6E70" stroke-width="3" stroke-miterlimit="10" d="M66.713,59.613c0,2.2-1.801,4-4,4H44.631
							c-2.199,0-4-1.8-4-4V46.907c0-2.2,1.801-4,4-4h18.082c2.199,0,4,1.8,4,4V59.613z"/>
					</g>
				</g>
			</g>
		</g>
	</g>
	<use xlink:href="#SVGID_1_"  overflow="visible" fill="none" stroke="#6D6E70" stroke-width="4" stroke-miterlimit="10"/>
</g>
</svg>
