<?xml version="1.0" encoding="utf-8"?>
<!-- Generator: Adobe Illustrator 16.2.0, SVG Export Plug-In . SVG Version: 6.00 Build 0)  -->
<!DOCTYPE svg PUBLIC "-//W3C//DTD SVG 1.1//EN" "http://www.w3.org/Graphics/SVG/1.1/DTD/svg11.dtd">
<svg version="1.1" id="Layer_1" xmlns="http://www.w3.org/2000/svg" xmlns:xlink="http://www.w3.org/1999/xlink" x="0px" y="0px"
	 width="86.691px" height="86.691px" viewBox="0 0 86.691 86.691" enable-background="new 0 0 86.691 86.691" xml:space="preserve">
<g>
	<defs>
		<circle id="SVGID_1_" cx="43.346" cy="43.346" r="41.346"/>
	</defs>
	<clipPath id="SVGID_2_">
		<use xlink:href="#SVGID_1_"  overflow="visible"/>
	</clipPath>
	
		<circle clip-path="url(#SVGID_2_)" fill="#4A494A" stroke="#6D6E70" stroke-width="4" stroke-miterlimit="10" cx="43.346" cy="43.346" r="41.346"/>
	<g clip-path="url(#SVGID_2_)">
		<defs>
			<circle id="SVGID_3_" cx="43.347" cy="43.346" r="39.708"/>
		</defs>
		<clipPath id="SVGID_4_">
			<use xlink:href="#SVGID_3_"  overflow="visible"/>
		</clipPath>
		<g clip-path="url(#SVGID_4_)">
			<polygon fill="#FFFFFF" points="13.814,21.931 8.814,21.931 8.814,71.93 41.814,71.93 13.814,66.925 			"/>
		</g>
		<polygon clip-path="url(#SVGID_4_)" fill="#FFFFFF" points="21.815,61.919 21.815,20.29 15.814,19.289 15.814,65.23 
			38.779,69.729 		"/>
		<polygon clip-path="url(#SVGID_4_)" fill="#FFFFFF" points="23.642,60.745 41.99,69.093 41.99,23.105 23.642,14.762 		"/>
		<g clip-path="url(#SVGID_4_)">
			<polygon fill="#FFFFFF" points="72.166,21.931 77.166,21.931 77.166,71.93 44.164,71.93 72.166,66.925 			"/>
		</g>
		<polygon clip-path="url(#SVGID_4_)" fill="#FFFFFF" points="64.164,61.919 64.164,20.29 70.166,19.289 70.166,65.23 
			47.199,69.729 		"/>
		<polygon clip-path="url(#SVGID_4_)" fill="#FFFFFF" points="62.339,60.745 43.99,69.093 43.99,23.105 62.339,14.762 		"/>
	</g>
	<use xlink:href="#SVGID_1_"  overflow="visible" fill="none" stroke="#6D6E70" stroke-width="4" stroke-miterlimit="10"/>
</g>
</svg>
