<?xml version="1.0" encoding="utf-8"?>
<!-- Generator: Adobe Illustrator 16.2.0, SVG Export Plug-In . SVG Version: 6.00 Build 0)  -->
<!DOCTYPE svg PUBLIC "-//W3C//DTD SVG 1.1//EN" "http://www.w3.org/Graphics/SVG/1.1/DTD/svg11.dtd">
<svg version="1.1" id="Layer_1" xmlns="http://www.w3.org/2000/svg" xmlns:xlink="http://www.w3.org/1999/xlink" x="0px" y="0px"
	 width="86.691px" height="86.69px" viewBox="0 0 86.691 86.69" enable-background="new 0 0 86.691 86.69" xml:space="preserve">
<g>
	<circle fill="#4A494A" stroke="#6D6E70" stroke-width="4" stroke-miterlimit="10" cx="43.346" cy="43.346" r="41.346"/>
	<path fill="#FFFFFF" d="M48.296,51.144h-3.382c-0.495,0-0.919,0.295-0.919-0.199v-1.801H32.378H17.155l-6.222-4.381l6.222-7.619
		h2.676l2.779,2h0.968l3.796-2.721l2.788,4.721h0.814l2.297-4h1.424l2.311,4.931l0.713-0.083l3.119-4.848h3.155v-0.527
		c0-0.494,0.424-1.473,0.919-1.473h2.96c2.684-5,7.729-7.58,13.526-7.58c8.604,0,15.58,7.12,15.58,15.725S70.005,58.593,61.4,58.593
		C55.895,58.593,51.067,56.144,48.296,51.144z M73.865,43.433c0-2.98-2.416-5.396-5.396-5.396s-5.396,2.415-5.396,5.396
		s2.415,5.396,5.396,5.396S73.865,46.413,73.865,43.433z"/>
</g>
</svg>
