<?xml version="1.0" encoding="utf-8"?>
<!-- Generator: Adobe Illustrator 16.2.0, SVG Export Plug-In . SVG Version: 6.00 Build 0)  -->
<!DOCTYPE svg PUBLIC "-//W3C//DTD SVG 1.1//EN" "http://www.w3.org/Graphics/SVG/1.1/DTD/svg11.dtd">
<svg version="1.1" id="Layer_1" xmlns="http://www.w3.org/2000/svg" xmlns:xlink="http://www.w3.org/1999/xlink" x="0px" y="0px"
	 width="98.406px" height="96.109px" viewBox="0 0 98.406 96.109" enable-background="new 0 0 98.406 96.109" xml:space="preserve">
<g>
	<defs>
		<circle id="SVGID_1_" cx="43.907" cy="50.214" r="41.346"/>
	</defs>
	<clipPath id="SVGID_2_">
		<use xlink:href="#SVGID_1_"  overflow="visible"/>
	</clipPath>
	
		<circle clip-path="url(#SVGID_2_)" fill="#4A494A" stroke="#6D6E70" stroke-width="4" stroke-miterlimit="10" cx="43.907" cy="50.214" r="41.346"/>
	<g clip-path="url(#SVGID_2_)">
		<defs>
			<circle id="SVGID_3_" cx="43.908" cy="50.214" r="39.708"/>
		</defs>
		<clipPath id="SVGID_4_">
			<use xlink:href="#SVGID_3_"  overflow="visible"/>
		</clipPath>
		<path clip-path="url(#SVGID_4_)" fill="#FFFFFF" stroke="#6E7071" stroke-width="4" stroke-miterlimit="10" d="M2.116,68.889
			c0.51-3.012,16.021-21.949,16.021-21.949l42.945,40.875l-24.99,6.178C36.092,93.992,12.059,82.085,2.116,68.889z"/>
	</g>
	<use xlink:href="#SVGID_1_"  overflow="visible" fill="none" stroke="#6D6E70" stroke-width="4" stroke-miterlimit="10"/>
</g>
<g>
	<g>
		<path fill="none" stroke="#6D6E70" stroke-width="3" stroke-miterlimit="10" d="M74.319,30.195
			c-0.003,0.003,4.252-1.035,9.355-0.721c1.091-1.647,2.107-3.301,3.047-4.939c-5.029-0.229-8.739-1.879-8.738-1.888
			c-0.012-0.002,5.23-2.812,11.218-2.887c0.036-0.002,0.075,0.001,0.112,0.001c5.034-9.853,7.609-18.233,7.591-18.249
			c0.229-0.079-21.355-0.263-38.448,14.915c0.013,0.529,0.014,1.07-0.01,1.626c-0.256,5.768-2.529,10.607-2.529,10.616
			c0.006-0.001-1.677-3.109-2.104-7.565c-1.357,1.557-2.595,3.167-3.725,4.805c1.339,4.238,1.697,7.714,1.697,7.717
			c0.002-0.003-1.721-1.899-3.464-4.998c-10.149,16.709-13.077,31.317-8.849,33.758c5.314,4.318,21.782-7.68,36.494-23.1
			c2.165-2.295,4.098-4.696,5.851-7.131C77.43,31.428,74.317,30.201,74.319,30.195z"/>
		<path fill="#FFFFFF" d="M74.319,30.195c-0.003,0.003,4.252-1.035,9.355-0.721c1.091-1.647,2.107-3.301,3.047-4.939
			c-5.029-0.229-8.739-1.879-8.738-1.888c-0.012-0.002,5.23-2.812,11.218-2.887c0.036-0.002,0.075,0.001,0.112,0.001
			c5.034-9.853,7.609-18.233,7.591-18.249c0.229-0.079-21.355-0.263-38.448,14.915c0.013,0.529,0.014,1.07-0.01,1.626
			c-0.256,5.768-2.529,10.607-2.529,10.616c0.006-0.001-1.677-3.109-2.104-7.565c-1.357,1.557-2.595,3.167-3.725,4.805
			c1.339,4.238,1.697,7.714,1.697,7.717c0.002-0.003-1.721-1.899-3.464-4.998c-10.149,16.709-13.077,31.317-8.849,33.758
			c5.314,4.318,21.782-7.68,36.494-23.1c2.165-2.295,4.098-4.696,5.851-7.131C77.43,31.428,74.317,30.201,74.319,30.195z"/>
	</g>
	<g>
		<path fill="#4A494A" d="M87.581,8.179C87.223,7.67,70.816,21.423,54.188,41.592c-5.854,7.025-10.795,13.879-14.755,19.862
			c0.014,0.605,0.04,0.952,0.04,0.933c0.042-0.043,1.008-0.399,2.624-1.068c3.941-5.498,8.637-11.731,13.987-18.158
			C72.536,23.202,88.076,8.731,87.581,8.179z"/>
	</g>
	<g>
		<path fill="#6D6E70" d="M87.582,8.182c0.489,0.55-15.82,14.45-32.271,34.41c-9.76,11.72-17.37,22.84-22.109,29.91
			c-3.011,4.49-4.851,7.359-5.36,7.71c-0.03,0.021-0.06,0.03-0.08,0.03c-0.01,0-0.01-0.01-0.02-0.01
			c-0.03-0.011-0.03-0.091,0.01-0.24c0.01-0.041,0.02-0.08,0.04-0.131c0.12-0.41,0.45-1.17,0.97-2.229
			c0.07-0.14,0.14-0.29,0.21-0.44c0.311-0.609,0.66-1.289,1.07-2.05c0.12-0.22,0.24-0.45,0.359-0.68
			c0.431-0.78,0.891-1.62,1.41-2.521c4.23-7.42,11.63-18.949,21.601-30.92C70.042,20.852,87.221,7.672,87.582,8.182z"/>
	</g>
	<g>
		<path fill="none" stroke="#6E7071" stroke-miterlimit="10" d="M35.176,53.428c0.188,3.184,1.77,6.25,4.254,8.25
			c-0.757,0.391-1.513,0.777-2.269,1.168C35.434,60.458,34.608,57.002,35.176,53.428z"/>
		<path fill="#FFFFFF" d="M35.176,53.428c0.188,3.184,1.77,6.25,4.254,8.25c-0.757,0.391-1.513,0.777-2.269,1.168
			C35.434,60.458,34.608,57.002,35.176,53.428z"/>
	</g>
	<g>
		<path fill="none" stroke="#6E7071" stroke-miterlimit="10" d="M47.729,63.772c-1.424,0.144-5.335,0.735-7.696-1.748
			c-0.439-0.462-0.802,1.744-0.187,1.897C44.877,65.181,46.678,64.473,47.729,63.772z"/>
		<path fill="#FFFFFF" d="M47.729,63.772c-1.424,0.144-5.335,0.735-7.696-1.748c-0.439-0.462-0.802,1.744-0.187,1.897
			C44.877,65.181,46.678,64.473,47.729,63.772z"/>
	</g>
</g>
</svg>
