<?xml version="1.0" encoding="utf-8"?>
<!-- Generator: Adobe Illustrator 16.2.0, SVG Export Plug-In . SVG Version: 6.00 Build 0)  -->
<!DOCTYPE svg PUBLIC "-//W3C//DTD SVG 1.1//EN" "http://www.w3.org/Graphics/SVG/1.1/DTD/svg11.dtd">
<svg version="1.1" id="Layer_1" xmlns="http://www.w3.org/2000/svg" xmlns:xlink="http://www.w3.org/1999/xlink" x="0px" y="0px"
	 width="85px" height="85px" viewBox="0 0 85 85" enable-background="new 0 0 85 85" xml:space="preserve">
<circle fill="#59595B" cx="42.5" cy="42.5" r="42.5"/>
<g id="Smart_Phone_1_">
	<path fill="#FFFFFF" d="M23.405,15.252v54.494c0,3.701,2.998,6.701,6.701,6.701h24.813c3.702,0,6.701-3,6.701-6.701V15.252
		c0-3.699-2.999-6.701-6.701-6.701H30.105C26.403,8.552,23.405,11.551,23.405,15.252z M39.574,70.782
		c0-1.623,1.316-2.938,2.939-2.938c1.619,0,2.936,1.314,2.936,2.938c0,1.621-1.316,2.938-2.936,2.938
		C40.891,73.719,39.574,72.403,39.574,70.782z M26.521,17.106h31.98v47.533h-31.98V17.106z"/>
</g>
<g id="API_1_">
	<path fill="#FFFFFF" d="M56.835,35.342l-0.113-1.084c-0.062-0.598-0.602-1.037-1.199-0.975l-8.825,0.92
		c-0.598,0.061-1.395-0.025-1.771-0.193c-0.377-0.166-0.794-0.357-0.93-0.424c-0.133-0.068-0.604-0.254-0.729-0.311
		c-0.127-0.055-0.029-0.551,0.217-1.1l2.356-5.26c0.246-0.547-0.001-1.199-0.549-1.443l-0.997-0.447
		c-0.548-0.248-1.197,0-1.443,0.549l-3.577,7.98c-0.246,0.549-0.844,1.287-1.329,1.643l-0.598,0.438
		c-0.485,0.355-1.169,0.246-1.52-0.242l-3.336-4.635c-0.351-0.488-1.038-0.6-1.524-0.248l-0.889,0.639
		c-0.488,0.354-0.6,1.037-0.249,1.525l5.185,7.201c0.35,0.486,0.678,1.271,0.728,1.744c0.049,0.475,0.091,0.867,0.092,0.873
		c0.001,0.01,0.029,0.279,0.061,0.584c0.03,0.303-0.432,0.605-1.029,0.67l-5.708,0.623c-0.598,0.066-1.032,0.607-0.967,1.205
		l0.119,1.088c0.067,0.598,0.607,1.035,1.206,0.967l8.826-0.963c0.597-0.066,1.426,0.033,1.841,0.221
		c0.416,0.186,0.762,0.342,0.769,0.344c0.007,0.002,0.253,0.113,0.533,0.24c0.28,0.125,0.309,0.678,0.065,1.227l-2.324,5.248
		c-0.244,0.549,0.007,1.197,0.557,1.441l0.999,0.441c0.55,0.244,1.199-0.008,1.441-0.555l3.592-8.119
		c0.242-0.549,0.839-1.287,1.328-1.637l0.509-0.369c0.487-0.35,1.175-0.238,1.53,0.244l3.377,4.645
		c0.352,0.486,1.039,0.594,1.523,0.236l0.881-0.646c0.484-0.355,0.591-1.045,0.237-1.531l-5.21-7.16
		c-0.354-0.484-0.685-1.27-0.737-1.742c-0.05-0.471-0.095-0.883-0.096-0.895c0-0.01-0.027-0.248-0.058-0.531
		s0.433-0.568,1.029-0.629l5.735-0.598C56.459,36.481,56.897,35.94,56.835,35.342z M42.513,43.676c-1.797,0-3.252-1.453-3.252-3.25
		c0-1.795,1.455-3.252,3.252-3.252c1.794,0,3.25,1.457,3.25,3.252C45.763,42.223,44.307,43.676,42.513,43.676z"/>
	<circle fill="#FFFFFF" cx="42.513" cy="40.426" r="2.019"/>
</g>
</svg>
