<?xml version="1.0" encoding="utf-8"?>
<!-- Generator: Adobe Illustrator 16.2.0, SVG Export Plug-In . SVG Version: 6.00 Build 0)  -->
<!DOCTYPE svg PUBLIC "-//W3C//DTD SVG 1.1//EN" "http://www.w3.org/Graphics/SVG/1.1/DTD/svg11.dtd">
<svg version="1.1" id="Layer_1" xmlns="http://www.w3.org/2000/svg" xmlns:xlink="http://www.w3.org/1999/xlink" x="0px" y="0px"
	 width="86.691px" height="86.69px" viewBox="0 0 86.691 86.69" enable-background="new 0 0 86.691 86.69" xml:space="preserve">
<g>
	<circle fill="#4A494A" stroke="#6D6E70" stroke-width="4" stroke-miterlimit="10" cx="43.346" cy="43.346" r="41.346"/>
	<g>
		<path fill="#FFFFFF" stroke="#5A5B5C" stroke-width="2" stroke-miterlimit="10" d="M69.867,34.779h-4.131l-4.573,5.806
			l-4.58-5.806H52.46c-2.516,0-4.583,2.063-4.583,4.587V47.7c0,2.029,1.664,3.693,3.695,3.693h19.18
			c2.029,0,3.693-1.664,3.693-3.693v-8.334C74.445,36.842,72.382,34.779,69.867,34.779z"/>
		<path fill="#FFFFFF" stroke="#5A5B5C" stroke-width="2" stroke-miterlimit="10" d="M61.038,32.413
			c4.146,0,7.497-3.352,7.497-7.494c0-4.15-3.352-7.502-7.497-7.502s-7.496,3.352-7.496,7.502
			C53.542,29.062,56.893,32.413,61.038,32.413z"/>
	</g>
	<g>
		<path fill="#FFFFFF" stroke="#5A5B5C" stroke-width="2" stroke-miterlimit="10" d="M34.98,34.074H30.85l-4.573,5.807l-4.58-5.807
			h-4.123c-2.516,0-4.583,2.063-4.583,4.587v8.334c0,2.029,1.664,3.693,3.695,3.693h19.18c2.029,0,3.693-1.664,3.693-3.693v-8.334
			C39.559,36.138,37.495,34.074,34.98,34.074z"/>
		<path fill="#FFFFFF" stroke="#5A5B5C" stroke-width="2" stroke-miterlimit="10" d="M26.151,31.708
			c4.146,0,7.497-3.352,7.497-7.494c0-4.15-3.352-7.501-7.497-7.501s-7.496,3.351-7.496,7.501
			C18.655,28.356,22.006,31.708,26.151,31.708z"/>
	</g>
	<g>
		<g>
			<path fill="#FFFFFF" stroke="#5A5B5C" stroke-width="2" stroke-miterlimit="10" d="M54.487,49.273h-5.5l-6.089,7.73l-6.099-7.73
				h-5.489c-3.349,0-6.102,2.747-6.102,6.108v11.096c0,2.701,2.215,4.916,4.92,4.916h25.536c2.702,0,4.917-2.215,4.917-4.916V55.382
				C60.582,52.021,57.836,49.273,54.487,49.273z"/>
			<path fill="#FFFFFF" stroke="#5A5B5C" stroke-width="2" stroke-miterlimit="10" d="M42.732,46.124
				c5.52,0,9.981-4.463,9.981-9.979c0-5.525-4.462-9.988-9.981-9.988s-9.98,4.463-9.98,9.988
				C32.752,41.661,37.213,46.124,42.732,46.124z"/>
		</g>
	</g>
</g>
</svg>
