<svg width="34.8" height="34.8" viewBox="0 0 34.8 34.8"><path fill="#fff" d="M34.8 17.4c0 4.6-1.8 9-5.1 12.3s-7.6 5.1-12.3 5.1c-4.6 0-9-1.8-12.3-5.1S0 22.1 0 17.4c0-4.6 1.8-9 5.1-12.3S12.7 0 17.4 0c4.6 0 9 1.8 12.3 5.1 3.3 3.4 5.1 7.7 5.1 12.3m-33.4 0c0 8.9 7.2 16.1 16.1 16.1 8.9 0 16.1-7.2 16.1-16.1S26.4 1.3 17.5 1.3 1.4 8.5 1.4 17.4m11-12.1c-1.6.7-3 1.6-4.2 2.8S6 10.7 5.4 12.3c-.7 1.6-1 3.4-1 5.1 0 1.8.3 3.5 1 5.1s1.6 3 2.8 4.2 2.6 2.2 4.2 2.8c1.6.7 3.4 1 5.1 1 1.8 0 3.5-.3 5.1-1s3-1.6 4.2-2.8 2.2-2.6 2.8-4.2c.7-1.6 1-3.4 1-5.1 0-1.8-.3-3.5-1-5.1s-1.6-3-2.8-4.2-2.6-2.2-4.2-2.8c-1.6-.7-3.4-1-5.1-1-1.8 0-3.5.3-5.1 1m16.8 12.2c0 1.4-1.2 2.8-3.3 3.8-.5.2-.9.4-1.4.6V13c.5.2 1 .4 1.4.6 2.2 1.1 3.3 2.5 3.3 3.9M23 22.4c-1.5.4-3.1.6-4.7.7V11.9c1.7.1 3.3.3 4.7.7v9.8zm-4.7 7v-5c1.7 0 3.3-.3 4.7-.6v4.3c-1.4.7-3 1.2-4.7 1.3M5.8 17.5c0-1.4 1.2-2.8 3.3-3.8.6-.3 1.3-.6 2-.8v9.3c-.7-.2-1.4-.5-2-.8-2.1-1.2-3.3-2.5-3.3-3.9m6.8-5.1c1.3-.3 2.7-.5 4.2-.5V23c-1.5 0-2.9-.2-4.2-.5V12.4zm4.2 11.9v5c-1.5-.1-2.9-.5-4.2-1.1v-4.5c1.3.4 2.7.6 4.2.6m1.5-13.7v-5c1.7.1 3.3.6 4.7 1.3v4.3c-1.5-.3-3.1-.5-4.7-.6m-1.5 0c-1.5 0-2.9.2-4.2.5V6.6c1.3-.6 2.7-1 4.2-1.1v5.1zM11 7.5v4c-.9.3-1.8.6-2.5 1-1 .5-1.8 1.1-2.4 1.7.8-2.8 2.6-5.2 4.9-6.7M6.1 20.8c.6.6 1.4 1.2 2.4 1.7.8.4 1.6.7 2.5 1v4c-2.3-1.6-4.1-3.9-4.9-6.7m18.4 6.3v-3.8c.7-.2 1.4-.5 2-.8 1-.5 1.8-1.1 2.4-1.7-.7 2.5-2.3 4.8-4.4 6.3M29 14.2c-.6-.6-1.4-1.2-2.4-1.7-.6-.3-1.3-.6-2-.8V7.9c2 1.5 3.6 3.7 4.4 6.3"/></svg>