<svg xmlns="http://www.w3.org/2000/svg" viewBox="0 0 960 560" enable-background="new 0 0 960 560"><g><g><g><path fill="#fff" d="M444.2 210.3l1.9 1.4 1.9.4h2.2l1.9-1.2.2-.6 1.5-.2 1.8-2.1.2.7 1.7-1.4-.1-1h.6l.9-1.5-.3-.5.1-1-.5-1.2-.4.6-.3-.8h-.7l.1-1.2-.8-.6 1-1-.4-.2-1.5.8-1.3-1.7-.6.5.2 1.5-.9.1-.6-.2-.7.7-1.2-.3v1.6l-1.2-1.9-1 .7v1.8l-.7-.6v-.7l-.8-.8h-.5l.3 1.5-.3.7-.8-.1-.7 1-.7-1.1.3-1.2-1.7-2.1-1.5-.2-.1.2.8.4-.1.3.6.7-.1 1-.5-.6h-.5l-.4-.6-.7-.2-.3 1 .5 1-.3.1-.9-.4.3.9-.9-.1-.1.4 1 .3 1.2-.3.5-.3 1 .1 1.3.4-1 1.3v.3l1.1-.1-.7.7-1-.2-2.4.9v.6l1.2-.5 1.5.1.6 1.2h.5l-.2.8h.8l-1 1.3-1 .4.3.7 1.8-.1z"/><g fill="#fff"><path d="M386.8 181.4v-.7l.3-.7-.6-.4-.4.8.5 1.4zM380.2 181.1l-.8.2.2.5 1.3.1 1 .5-1.2.2v.4l.9.4 1.6-.2 1.2-.5.5-1.7-1.4-.9-1.5-2-1.5-.4-.6.4-.2 1.4.6.7h-.8zM374.5 151.5h1.1l.2-.6h-1.4zM374.5 153.9l1.3-.4v-.4zM378.2 162.6l-.4.9.4.3.7-1.1zM377.8 166.7l.6-.2.2-.9-.9.2zM376.9 159.2l.8.5.2-.5-.9-.4zM376.7 155.5l-.7-.1v.5l.7.1zM375.5 157.3l.8.5v-.7l-.8-.3zM382.2 172.7l-.4-.6h-.7l-.3.4.4.9.8.2zM386 175.4l.2.4.2-.3zM385.7 175.8l-.1-.6-.9-.1.3.8zM384.1 174.4l.5.1.1-.5-.8-.3zM379 177.1l.6.1v-.4l-.4-.3zM382.6 187.3l1.6-.5-1.2.1zM393.7 65.4l1.9-.3-1.3-2.7-.8-.3-.7.8.6.8-.9.5zM391.4 66.6l.3-1-1.1-.5-.7.4.5 1.1zM390.5 70.9l-1-.9-.6.1 1.4 2.1zM384.7 78.2l-.8-1.4-1.5-1.2-.7-1.9-.7-.2-.4 1.4 2 2.9zM438.5 182.5l.6-.5-.1-.2-.3.1zM438 182.6l.3-.3v-.6l.8-.4.4.1.2-.5 1-.5.7-.9-1.4.2-2.1-.1-1.9-1.1h-.8l-.2-.2-1.7.8-.3.1-1.3.1-.7 1-2.1-.4.3-.4 1 .2 1.3-1.1 1.3-.1-.1-.8-1.7.2h-1.1l-.6.2-.4-.5-1.2.1 1.3-.8.8-1.4-.5-.8 1.3.1 2.5-.1.1-.7 1.1-.8-.1-1.3-1.9-.5-1.1-.1-1.6-.3 1.3-.6-1.1-1.1-.8-.2-.5-1.1 1.5.8 1.1 1 .3.7 1 .6.4-.3 1.5.6 1.1.9.7.1.4.8.8.8-.1.4v.8l.4.7.1.7 1.5 1 1.1-.1-.1-1.4.5-1 .4 2.1h.7l.1.4.6-.1-.4-3.5-.4-.1.4-1.2v-1.4l-.8.6-.6.7-.2-1 .8-1.2-.6.3-.7-.3-.5.5.8-1.7-2.3-1.6-.2-.6-1.6-.9-.8.4-.7 2 .1-2.1-1.1-.4 2.1-.2.4-.6-.2-1.3.1-.8-1.2.4-1.8.9-.4-.6 1.8-.7.8-.2.3-1-1.4-.8-1.6-.2 1.9-.6 1-1.3.8-.2-.3-1 .6.2.8-1.1 2.3.8-1.6-.1v.4l1.9 1.9 1.7.5.8-1.3 2.4-.4-.5-1.3.3-1.2-1-.2-1.4-1-.3.3.2 1.2-.4.8-.2-2.2-.9-.2.8-1.6-.2-.2.4-1.4.5.2 2.1-.1.6.4.2 1 .7.3 1.6-1.8-.7-1-1.4-.2-1.5-.3.3-2.4-.4-.2-1.1.1.8-.8h.6l.1-.4-1.1-1.6 1.2.8.8.1.1.6.9.8.4-1.3-.2-3.6-2.1-1.7 1.2-.9s.1-.7.1-1.1v-.2h-.6s-.2.2-.4.2c-.3.1-.5.3-.5.3l-.4-.2-.7.2s-.2-.2-.5-.3c-.1-.1-.2-.1-.2-.1l-.1-1.6h-1.2l.9-.6-.4-1.1-.9.3-.4-1.1.8-.8 1 1 1.1-.8.6-.3-1.1-.4 1.4-.3-1.2-.4 1.4-.1 2.6.6 1.4.7.8-.5-.2-3.6-1.7-.9-.1 1-.6.1-.1-1.1-1.9-.3.4-.5-1.1-.5.8-.6-.7-.7.4-.6 1.2.1 1 1.1.8-.4-.5-1.1-3.1-1.9-.4.2-.3 1.3-.5 1.3-.2-.8.4-2.5.6-.8.2-3.3.4-1.2-.5-1 1-1.7.8.2.6-.8-.1-1.1.4-.8-.1-.8.5-2.1-.1-.6.1-1.8.8-1.1 1.7.3.8-.5.2-1.1.6-1.9-.8-1.1-1.5.8h-1.1l-1.3 1.3-.1 1.7-.2.1-.7-.9.1-2.5 1.1-1.8.7-.1 1.6.8 1.6-.3.7.2 1.4-.7.1-1.4.8-1.1-.4-.6-1-.1-.8-.7-1.2.1-.9.6-1.6-.3-1.1-.8-.6.3-1.3 1.1.9-1.4 1.1-.2 1.8.5 1.6-1.1.1-.8.6.6 2.8.2.7-1.3 2-.4.3-.8-1-1.3.6-1.1 1.7-.1.4-1.7.9-.7.5-1 1.3-1.7-.4-1.3-.7-.4-.2-1.1-1.4-1.3-.8.1-1.3-1.1-1.1-.2-.4.3-3.1.2-.2.8-.8.2.1 1.3-.5.1-.1 1.4-.4.5v1.1l-.4.3-.8-.7-.2.1-1.6-.5-.8.5.2.7-.6.2-.4-2.3.3-.5-1.3.8-1.5 2.3.1.8-.7 1.7-.6.4-1.1 1.9v.8l-1.1 1.4-.8 1.9-1.6 2.6.2-1.8.8-1.3.1-1.4 1.1-2.6.6-1.4-.4-.8.8-.5 1.2-3.8-.1-1.9-.1-2.9-.5-1.6-3.6.8-.5 1 .7 2.9-1.5.1-.6.8-.7.1-2.8 2.1-.8.8-.4-.6-.6-.2 1.7-1.7 1.3-.6.3-.8 1.3-1.1v-3.2l-1.5.4-2.9-.9-1.7-.4-1.6.6-.8 1.3-.1-1-.9.8-3 1-.8 1.7-1.1.1-.2-1.6 2.3-2.3 1-.1 1.9-1.3-.2-.8-2.3-.7.2-.3 1.3.2 1.6.6h1.3l.8-.5 1.1.1 1.1.8 1.8.7h2.1l.4.1 1.9-.9.2-.9 1.2-.4.4.1 2.2-1.1.2-.4-.1-.9.5-.5.4-.1 1.3-2.1-1.6-1.2-.4-1.1-.8-.2-.7.1-.7-1.1-.8.3-.1.7-.6.3.3-1.9-1.2-.1-2.4 1.6.7-1.4.8-2.1-.4-.8v-1.3l-1.8.1-1.9 1.5-.3-.9-1.1-.4-.8.6-.2-.8-2.2-.6-1.7.3-.1.4-.7.1-1.6 1.7-.4.6-.5-.6-.6.4-1.9.1-.9.7.4.8-.4.9-.2-1.3-1.3-.3-1 .7-.2 1.4-.1-2.1.8-.5 1.4-.2 1.1-.9.8.2 1.1-.8-.2-.9.7.1.1.5h1.2l1-1.1 1.1-.8 1.8-.2 1 .4 3.8.2 2.1-1.4.6-1.1-.4-1-.4-.2-.4-.6-3.4-2.1-1.4-1.7-2.6-.8-.4.3h-.9l-.8.8-1.6-.8-.6.6-.6-.8-1.9.2-1 .7.4 1.3-.3.3-.8-1.9-.7-.3-.8.7-2.8.2-.5 1.1.7.7.6 1.6-2.4-2.8-.5.2-.5 1.1.4.8-1.7-.8-.3 2.3.1 1.4 1.7.6 1.3.8-.8.3-1.9 1 1.8.4-2.3.4-.4.1 1.3 2.9-.6.1v-.7l-1.5-1.3-1.1.1-1.1-.7-.5-.9-.9-1.4-.8.4.1-1-1.6-1.5-.8.3-1.1.8.6.8-2.3.8-1.3-.1 1.2 2.3-.1 1 1.4 1.4 3.8-.4 2.2 1.5 2.2 1.6-.1 3.5-.6-2.2-1.2-.4-1.6-2.2-.1 3.3-.8-3.4-1.1-.8-4.9.4-.3 1.1 2.3 2.8 1.3 2 2.3 1.8-3-1-1.1 1.2.7 1.6 1.1.6-1.7-.2-.7-1.9 1.1-1.9-1.5-2.9-2.5-2.3-2.2 1.4 1.4 3.7 2.6 2.3.8 2.2 1.4 2.6-.1.9-1.1.1-2.5-3.6-2.3-1.2-.6-1.3-1.4-1.3-1.3-2.2-3.5-.4.6 2.3v1.9l2.5 3.9-.4 1.1-2-.8 2.2 3.8-2.8-3.1-2.6-1.8-.8.1.1 2.8-.5 1.2-.1 3.1-.5-2 .3-3.8-.2-2.8-1.4-3-.6-1-2.9 2.3-4.6 1.5-1.6 2 1.5 1.2 1.7 3.5 2 3.5-3-3.2-1.4-3.1-2.3-1.4-2 1.4-.4 1.6 1.5 2.9-.8 1.1v2.9l-.5.9-3.1-1.2.2 3.2-1.1-2.5-1.1 1.1-1 2.3-.8 2.8-1.5.2-1 1.8-1.6 1.5.6 2.8h1.7l1 1.1 2.2-.8-.7.8 1.2 1.4-1 .4-.4 1.3.8 1.6-2.3 3.6-.5 1-1.9-.7-1.3.8-2.7 1.1.2.8-1.4.5-1.8 2-1.4.1-1.6 1.3-.5 2.5.9 2.2.9.4 1 1.3 2.2-.2-.8 1 2.2-.3-1 1.5 1.3.8 1.4-.6v-.7l1.1.8 1.6-.5.7-.9 1.2.1.6 1.6-.9.5 1 1.7-.8 1.4-2.5-.7-1.4.1-1.5-.4h-3.1l-1.4 1.2.8.5v.8l1.3.4.8-1-.1 1.6 2.9 1.1-1.9 1.8s1 1.3 1.8 2.2c.5.5.8 1 .8 1l3.1.5-.8-1.3s0-.1.1-.1c.1-.3.2-.8.2-.8s.5.4.8.8c.2.1.3.3.3.3s.1-.2.2-.3c.1-.3.3-.8.3-.8h.9V138.6l1.1-.3s.1 0 .1-.1c.5-.2 1.4-.8 1.4-.8s.5.7.7.8l1.1-1.1.8-.1 1.6.8s.4.1.8.4c.8.4 1.5.8 1.5.8l.5.2 1.6 1.6 1.1.4 1.3.5v2.6l.3 1.9 2 1.6.1.6 1.3 1.6-.2 1.4.7 1.8.8 2.2-.2 1.4 1.3 1.6-.2 2 1 1.3.3 2.5-.7 1.4-1.2 1.9.7.4-.9.7.7 2.2 1.1.4 1.4-.6-.4-1.2.9-1 .1-2.2.4 2.3.8-.4.1 1.1 2.3.1-2 .9-.4 1.1 1.3.5 1.4.4.4.8-.9.2 1.6.9.2.6.1.4-.4.7.8 1-1.9-.5-2-1.7h-1.3l-1.2-.4-1 .6 1.3 1.6 2.5.8.3.8 1.2.3 1.3-.1 1.2.1h.4l-.4 1.4v.8l-.7.8-.1 1.4 1.5.1-1.9.8-.1 1.5.5.8-1.3.5-2 .1-.3 1.3 1 .4 1.6.5 1.9.9-2.6-.4-1.4-.6-.5.2.8.9-1.6-.4-.3 1.5 2.2-.2 1.9-.1 1.2.2-.5.7-1.3-.4-2.2-.1-1.5.8-.4 1 1.1-.2h3l.4.4-3.2.1-1.3.6-.2.9 1.7.6-.7.8.8.5-1.4.7.3 1.4 2.5-2.3 1.5-.8-2.5 2.3-1.1 1.1.3 1.5 1.2 1.3 1.2-.8-1 1.5.4 2.3.1 2.5.8.1.6-1.4 1.2-.8 1.2.4-1.4.1-.5 1.3 1.2.4.5.8-1.6-.7-1.1.5.7 1.3-.6.8 1.1 2.3 1 .5.7 1.1.1 1 .9.9.2.8 1.1.7-.3 1.2 1.3.3-.1 1.1 1.5.4.8.7.7-.1 1.6-.3.9-.1-.8.9 1.1-.2-.7 1.1 1.2.3v1.1l.7-.3-.1.8.8.2.8-.9.1.4 1.5-.2.1-.4-.4-1.2.8-.4.1-1.3.8-2.3.4-1.1.1-2.7-.6-1 .4-.7.4.3.8-.6.3-.7-.6-.3 1.1-.2-.3-.6.5.1.3-.8h.4l.2-1.1-.8-.4h1.1l-.3-1.9-1.4-.4.1-.3 1.3-.4 1 .2v-.6l-.5-1.6-.3.1.1 1.1-.9-1.4-.6-.2.5-.7 1.7.2.6-.8-.6-1.4.8-.7.4.3.6-.6.1.5 1.1.2.1-.2.5-.1.1-.8-.4-.9.6.1.1-.8.4-.3-.3-.9 1.8.3-.7.6-.5 1 .7.3.5-.6v.8l.4-.2.6.5.2-.7.3.2h.8l.1-1 .3-.3-.2-1 1.2.8-.1-.8.7.4.4-.2.4-1.1.8-.3-.2-.5.4-.4-.1-.4.4-.4.4-.5-.2-.5.4-.8.4-1.5.7-.1.4-.6.9-.4v-1.4h-.6l.1-.8-.5-.5.2-1.1.4.9.5-.2.3 1.1.7.2-.4.3.5.8.4-.1.8.1-.3-.8 1 .7-.1-.8.9.6.1-.4h.6l-.5-.9.4-.3.8.8.8-.7.8.1.8.2 1-.1.2-.3 1-.8.1.4.7-.2.4-.5 1-.7-.2-.5 1-.6-.1-.3.8-.4.4-.6.7-.2-.1-.8 1 1.9zM434.1 174.4l-.5.6-.8.4h-.7l-.9 1.2-1.1.3.2.6 1.3-.1 1.5-.4.8.1 1.3-.6-.4-1.6-.2-.8zM438.8 160.4l-1.4-.7-1.9-.3-.7.9v.7l2.1.8 2.3-.4.1-.4-2.4-.5 1.7.1zM441.5 162.5l-2.4-.6-2.4.3v.3l2.8.4.8.8 1.3.1zM441.2 165l-1.4-.6-.5-1-2.6-.4.2 1.4.8 1.1 1.2.2.7 1.7 1 .2.6-.5-.9-1.2h1.1zM443.8 152.4h-1.6l-.4 1.2 1 .9 2.2-.1-.6-1.4zM447.9 140.9l-.1-5.8-.8-.5.7 6zM448.9 148l1.2.4.2-1.2-.8.1-.6-.6.4-1.2-.3-.4-.3.7-.6-.6-.9.7.3.5-.3 1.6.9.4zM444.6 148l-.4 1.5.6.7.7-.7v-.6h-.6l.2-.8zM447.4 151.5l.5-.6-.4-.5-.5.5zM447.2 110.6h-1l-.3 1.5.3.6.4-1.4zM449.8 111.9l-.4-.3-.5 1.7.3.6.6-.9zM448.7 126.2h.7l.5-1.4-.2-.3h-.4l-.6 1.3zM444.4 123.8l-.1.3 1.5.7.6.2-.2-.8zM445.3 101.3l-.1 1.3 1.5-.7v-.4l-.8-1zM442.7 84l1.3-.9v-.3l-1 .2zM442.9 78.6l.7 1.9 1.4.3v-.9l-1.2-2.3-.9-1.2-.6.2.2 1.6zM445.9 81.6v.4l1.1 1 .9.1-.3-.3-.2-.8-.8-.7zM446.6 78.9l.1-.4-.8-1.3-.2-1-.3-.4-.3.1.8 2zM403.5 61.9l.4 1 1 .6.7-.1-.9-1.3-1.1-.8-.6-1.2-.6.4.3.6zM405.3 59.3l.7 1.1 1.3.6-.4-.8-.8-.6-.5-1.2-1-1.1-.9.3.3 1.5zM406.4 57.8l.2-1.4h-.7l.1 1.3zM407.9 60.2l.8.7.1-.4zM404.7 60.1l-.5.1.1 1 1.1.9.5 1.1.8-1.8-1.3-.3z"/></g></g><g fill="#fff"><path d="M377.5 260.7l-.8-.8.8-.4v-.3l-1.2-.4-1.1 1.4.2-1.2 1.5-2.4.2-1.1-.4-.2.2-.3h.6l.2-.9-1 .1-.5.4-.7.2-.5 1-.8 1-.4 1.4.2.3-.4.2-.6 1.1.1.5-.5.2-.3.5.5.5h-.6l-.7 1.5.6-.2.1.3-1.9 2v.8l.4.1 1.8-.2h1.4l1.6.2 1.2-.5.3.3-.9.5 1.5.1.2-.5h1.2v.2l-.5.2-.4.8-1.1.2-.3.8.5.1 1.2-.4.5-1.1.6-.1.7-.9.4.3.2.8-.5.4v.9l.9-.7.2 1 .6.2.4-.3.3-1.2.4-.4-.1-1-1 .6v-.3l.2-1.3-.8 1.3-.5-.4.2-.5-.2-.6 1.1-.8.3-.9-1.5.5.1-.5-.4-.3.8-.8.1-.5-.8-.7-.6.2-.5-.4-.4.8-1 .4.4-1.2zM309.6 84.4l.9-.7 1.2-.9 1.6.5-.7.9-1.4 1.1.6 1.1 3.8-2.5 2 .4 1 .3-.4.4-1.7-.4-1.4.4-2.3 2.2.2.4 1.5.5-1.7.3-.6.6.6 2 1.4-.2 3.3-.2 1.6-.7 1.3-1.5 2.3-.8-1.2 1.5-2.2 2.1-2.3.7-1.6-.4-2.1.8.3.9 1.2.8.7 1.1 1.6 1.4h.7l1.6-3.9 2.1-1.7 4.8-1-4.5 1.8-1.8 1.4-.9 3.6 1.4.4 2.4.7.1-1.3.8-2v1.1l2.2-.8.9-2.2.3 1-.6 1.5-2.3 1.7.1.9 3.1-1.1 3.6-3 .7-3.2 1-2.2 2.7-2.3-2 2.6-1.1 3.1v1.2l2.8-.7 1.7.2 2.9-.3-4.2 1.9h-1.2l-3.6 2 3.3.1-3.6 1.1-.3.5-2.4 1.3-3.1.6.7 1.9 2.4 2.4v2.4l1.6.6h1.7l-1.3.7-.3.7-1.9-1.1-1.5-3-1.3-2.2-1.7-1.8-2.1-.1-.7-.8-1.6.4-.1 3 1.8.8h-1.6l.2 2 2.2 1.1 1.5 3.4v1.5l1.5 2h-.8l-1-1.2-.6.6 1.1 1.2 3.7.9 1.4-1.2-.5 1.5-2.2.3.1.5 1.2.8-.4 1-1.6-2-3.4-1.2-.7.5-2.7.9-.3 1.8-.8.9-.1 1.9.5.5-.7.9.5.5 1.3-.3 1.2-2.2-.4 2 .3.6 1.6-1.2 1.2-3.4-.3 3.1 1.1.6-1.4.7v.7l-1.4.7.1.7 1.5-.5-.9 1.2-.1.9.5.2 1.1-.9-.5 1.3.2.5h2.1l1.7-4v1l-2 4.4-1.5.3-2.3-.6-.4-2.3-1.4-1.4-1.6-.3-2 .6.1 1.2 1.3 1.6.6 1.7.6-.2v.5l.3.9-1.2.3-.8.3-2.6 1.7.1 1.7-.1 1.9.9.1.7-2.2v1.9l1.3.8.2-1.6 1.4 1.7.4-1.2-.1-.8.8.3-.3 1.8 2.1.6.4.4.3-.4 1.1-.1-.8-1-.3-1.6 1 1.2.4.1.3-1.6.4.1.7 1.9h.9l-.1-2 .8 1.9 1.1.1.5-1.9.5 1h1.1l.6.5v2.1l2.6-.7 1.1-2.4.6 1.5.5-.5.1-1 .9-.3v-1.7l-.6-1.3-.9.7-1-.4.8-.9-.7-.9-1.4-.1-1.4 1.4.6-1.4-1.8-.5-1.1 1.5-.2-1.2 1.3-.9-.8-1.2.9.1.8 1.4h3.4l.6-.6h.8l1-2.3-.4-.6.4-1.3-1-.4.1-.9 2.6.5 1-1 .8.3.7-1.5-2.1-.3.2-.8 1.7.3 1-1.1v-.9l-1.6-.6 2.2-.5.4-.5-.1-.4-.2-2.1-1.1-.9-1.5.3.9-.9h-3.1l-.9.6.2-1.2h1.4l1.6-.3-.1-.4-2.8-.6.8-.1 2.6.1.5 1.1 2.1.7.3-1.2-.7-.6.4-.6-2.6-.3-2.4.3-1-.9 1-.3 2.7.3-.9-.8-1.8-.8.3-.4 1.2.1 2.5 1.4v-.8l1.5-.1.4-.6 1.1.3.1-1.1-.5-1.4-1.4-.8h1l1.4 1.6h1.7l1.6-.8.3-1.1h-.8l1.7-2-.5-.7-2.1.4-1.1-.3 1.1-.4 2.1-.7 1 .5.7-.8-1-1 .1-2 .6 1.9 1.1-.7.8-2.5 1-.7 1-1.5 1.2-2 1.1-.3 1.2-1.8.9-1.6.9-.3 1.9-2.9.1-1.2-2.7.8-1.9 1.8-1.2.2-1.8 1.7-1.7.1-1.3.5.3-.9 2.5-.7.9-1.6 2.3-1.3-1.2-.6-.9.5-2.1-.2 2.2-1.2h3l1.1-.3-.3-.9 1.7-.6 1 .6.6-.8 2.1-1.6 1.2-.8.2-.6.8-.7.2-1.2 1.5-1.3.4-2.6-1-1.1-2.4-.5-1.1.9.5-1.8-.9-1.2-.4-1.5.1-1.1-1.2-.7-.2.8-.7-.2-.6-1.2-.8.9V67l-.9-1.3-1.9 1.2-1.2 1.2-1.5.8-1.2.2 2.3-2.3 1.1-.9.8-1.6-2-.7-1.5.2-.5-.6-.7.1-.9.6-.9-1.2-.9-1-1.7.1-.6 1.1.7 1.4-1.6-.7.2-1.8-.7-.4-1.9.8v.5l-.9 1.1.7 3.1 1.1.3.2.8-.4.2-1.7-1.6-1.3-2.8-1.1-1.2-3.3.1-1.8.2v1.2l2.1 2.5.2 1.2 1.9 2.3-1.2 1.5v-1.4l-1.2-1.5-.3-1.7-1-1.5-1.6-1.2-.4 1.1h-.6l-.4-1.1-.5.9-.7-.8-.3-.4-1.8.5 1 1.4v1l1.8 1.4-1.5-.2v.8l-.9-.4-.6-1.9-1.6-.4v.6l1.8 4.9h-1.1l-.9-1.9-1.6-.9-.7.7 1.6 1.8h-1.6l-.2 1.9 2.7 2.9.9.3.2.9 1.9 1.2-.4.3-2.4-1.2-2.6-3.3-1.1-.2.7 1.9 1.8.9.7 1.6-1.8-1.4-1.1-.1-.8-3.2-1.8-.7-.6-1.3h-1.3l-.7.5.8 2.3-1.3.2h-1l.1 1.2 3.6 1.8.2 1.5-1-1v.7l-1.5-1.6-1-.2-.4 1.8-1-.8-.2-1.3-1.6-.1-1.2.5-.2 1.2.9 1.7-.2 1-.9-1.8-.2.9-1.1-1.2-2 1.1v.6l-1 .3-.4 1.6.6.6zM320.8 113.1l-1.6.1-.5 1.3 1.8-.5zM301.1 101.4h-.8l.2 2.2.6.5-.3.5.6 1.9 1.7.3 1.2-.3.2.9-2.7.9.2 1.5.9.2-.1.6 1.5-1.1.7.9 1.1-.9.3.4.6-.7 2.7.7-1.7.6v.4l3.2-.3-1.4 1.1-3.7.4-.3.9-.7.4-.2 1.1 1.7 1.2-.9.3.4 1.8.8-.2 1.9.5-2.4.7.1.7 1 .9.6 1.3 1-.2 2.1.8v-.9l-.5-.8h.9l1.4 1.4-.4-2-1.2-1.6.2-1 1.4 2.1.8 2.3.8-.1.2-2.3-.5-1.4.9 1.1.6-1-.6-2.1.2-2.4.4 2.9.5.7 1.4-3 .9-1.4 1.6-.6 1.3-1.6-.3-1.5-1.2-2-.5 1.2-.4-1.4-1.4-.6-1.3.8 1-1.5.1-2.5-.5-1.2h-1l.9-1.1-.6-2.3-.8-.2-.9 1.1.2.8.6 1-.5.7-.6-1.4-.3-3.2-2.8-.3-.4-1.9-.8-1.7-.8-1.5-.4-2.6-2-2-.8-.6h-.9l-.5.6-.6-.3-.6.4.4 1.7 2.9.2-.2.9-1.8.5-.4.9-.6-.2-1.3.8v1.4l1.4 1.2 1.1.1-.9.5 1 .8h-1.2l-2.3.1-.4 1.1 1.3 1.3-1.8.2.2 1.3.3.1h2l-1 .8.3.4 2.1-.1-.7.5.5.9-1.9-.2zM302.9 95.2l-.9-.3-1.2.7h2zM295.3 114.8l.2 1.5.3.5-.1.7-.8.1 1.4 3 1.9 1.2-.2.5h-1.5l1.2 1.9.1 1.2 1.1-1.1.6.4 2.3-1 .4-1.4-1-1.2 1-2.1-1.4-.9-1.2.1.2-.7-.1-.9-.6-.2-1.7-1.6-1.7-.3zM302.9 128.1h2V127l.2-1-2.5-.6-.9.2-.9-.2-1.3.8.6 1v1.2zM312.3 128.6l-.4-.3-.9-1.7-1.2.5.3 2 1.8 1.2.5-.9zM309.4 129.9l.9.4v-.5l-.6-.3zM294.3 106.1l1.1.9.3-2.3-.4-2.8-.5.4-.8-.1-.9 2.2 1.2.5zM282.9 115.7l.4-.8.6-1.3.1 2.1 1.4.5-.2 1.6-1.5-.2-.9.6v1.9l2.1.8v-.6l1.9-.7v.8l2 .7 1.2.1.8 3.2 1.2.5.8-.3.8-.6.5-1.8-1.6-2.6-.2-1.1.5-1.4-.9-.9-.2-1.1-.9-.9-1.3.3-.1-1.5-1.7-1.2-1 .5-.5 1.5-.3-.4v-2.3L284 110l-1.2.6-1.2-.1-.2 2.9h1.2zM285.6 121.8l.4.4.7-1.1-.7-.4zM287.3 124l-.1 1.2 1.3.4 1.8-.7-.6-1zM283.3 131l.7-1.1-1.7-3.4-1.2-1.1-.4.1 1.5 4.9zM268.4 119.8l.6.6 1.2.1.3-1.1 1.7 1.2 1.7-.6.4-1.6-2.1-2.1-1.2-.1-1.5 1.6h-1.3l-1.8 2.3.6.5zM264.8 126.1l.8-.7v-.9l-1.4-1.6-1 .9-.2.9.8.1zM267.6 128l1.4 1.1 1.3-.8 1 .1 1.4-1.7-.3-1.5-2.2.3v-.3l.6-.7 2.5-1 .2-1.2-1-.3-1.7.6-1.7.3-1.4.6-1.3 1.1.1 2.9zM263.6 133.4l-.1.7 1.8.5.7-.9-.6-.7zM248.5 141l.4.2 1.1-2 .1.6 1 .3.7-.3.1-1.1.3 1.4.8 1.4 1-.3.5-.9-.1-2.4.3 1.3.6-.1 1-1.9-.7-1.3 1-.4v-1.1l1-.6.3.8-.6 2.2.5.9 1 .4.5-1.1v-1.3l2-.7v-1.6l-.4-.4.4-.6-.9-1.6 1.9-1.3-.5-1.1-1.9-1.2-1.1.8.8 1.1-.8.6-1.4-.8-1.9.2-2.8 3.9-.2 1.1-1.2.5-.2 2-1.1.2-1.3.8-.5 1.4h.5zM251.5 142.1l.4-.9v-.8l-.8 1.5zM257.9 138.9l-2.2 2.4-.2 1-.8.9 1.7 1.1 1.1-1.6-.1-1.5 1.1-1.7zM273.3 135.9l-1.4.6.1.9 1.5.9.8 1.7-1.3.7 1.2.5.9 1.1-.7 1.6-1.7-.3-.5-.3-1.2.1-1-.2.2-.7-.5-1.3h-.9l.3-.8-.9-1.3-1.4-1.1-1.5.3-.6-.4.3-1.1-.8-.7-2.1.3-.7 1.4 1.3.3.4.5-2.6-.1-.8 1.2.5 1.5 2.9-.6-.1.6-3.7.7-.3 1.5 1.2.1 2.1-1 .3.8-1.8.7-2 .1-.6 2.2 1.6.4.7-.6.2 1.1 1.5.7.1-1.2.5-.3.6 1.4 1.1-1.4-.5-1.3.7.5.3-1 .6.1-.3 2.5 1.8-.3.6-1.1.5.8h.9l1.4-1 .3.3-1.4 2.2-.8-.4-2.1.4v.8l-2 .1-.3 1 1.4 1.8 2.5.1 3.5-2.2-.3-.8 3.1-.9.6-1 .2.9h1.3l.8-1 .1 1.1 1.4.5.4-1.2 1.2-.1.7-3.2.4-.9-.3-2.2-1.7-1.1-.5.5-.2 2.1-.6-1.7-.8.2-.8 1.2-.3-.6 1-1.2-.3-.8-1.4.2.9-1.4v-.8l-.7-.6-.5-1.7.5-.8-.7-1.2-1 .3zM283 147.5l1.8.2v-2.2l-.8-1-.4.2-1.1 2zM296 136.4l-1.8-1.4-.1 1.1-1.3-1.1h-1.4l-1.2.9.7 1.5-.1.5 1.1.5.3 1.7-.3.3-1.9-1.5-.6-2.2-.9-.4-.8 1.6.8.5v1.3l.6.6.8 1.6-1.9-.7-.8 1.2-.1 1.2 2.9-1 3.8-.8.1.5-1.4.6-2.2 1.5 1.1 1.5-.9.7.3.7 1.1.7 1-1.1.7.8h1.8l.1-1.1.6.4-.6-1.7.7-2 .6 1.2v-2.2l-.6-.8.6-2.9zM287.9 140.4l-1.3.5-.8.8-.1.3 1.2-.1zM287.6 140l-.3-.5-2.5.9.4.8.8-.8zM284 138.3l-.7.8 1.5.7 2.4-.8.1-.6-.6-.9zM283 135v1l1.2 1.6 1.2-.1.4-1.1-1.3-1.4zM289.7 134.3l-.8 1.2.6.2 1.3-1.3-.3-.4zM302.2 140l-.5.4v1.1l.8.2v-1.3zM299.2 142.5l-1.4 1.1-.1.6.6-.1 1.3-.9zM301.3 150.9l-.5-.6-.5.2.6.7zM297.1 150.5l-.6.4v.6l.6-.4zM313.3 148.9l.4 1.3.3-1.4.7 1.1-.4 1.6 1.5-.2.6.3 1.4-.1-.1-1 .9.7.4-.3.3.6 1-.2-.1-1.3.8 1.3.2-1 .3 1 2.8-.4.1-1.9-.6-.9 1.1.9.1 1.9 2 .9 1.6-.9 2.1-.3v-1.4l1.5-.5-.6-1.4-1.2.2.1 1.1-1-.5 1.2-1.7 1-.6-.1-1.8-1-.5v-.6l-.9-.8-1 .2-.1-.8-2.2-.5-1.4.8-1.2-.6-2 1.5-.9.1-.3 1.7-.3-1.3-1 .9.3.5-1 .1-1.9-1.4-.7.8-.5-.5-.7.3-1.1-1.1-.4.4.5 1.5h-.5l-.3-1-.7-.3.7-1.4-1.2-1.4-1.5.3-1.1 1.1.3-1.4 1.1-.6-2-1.4.2-.4 1.9 1 2.3-.3.1-1-4-1.5-.2-.5 1.9.5.2-.7-2.2-1.3-1.6.6-1.4.2-.7.9.5-2.3-1.3-1.7h-1.1l-2.1-1.1-1.9.7-.2.4h-.7l1.1 1.4.1.5-1.2-.3 1.1 1.5 1.4.2-.8.9.5.9 1.2.2-.5.7.9.2.4-.6 2.1.6v-.8l1-.2.6 1.1.3 2 .6.5.4 2.4-.9 1.6.4 1.8.7-.3.5.3-.9.8.4 1.9.8.8.6.1.1-.7.8-.9v1.3l.8 1.2 1.7.1zM310.9 134l.8 2.5.6-.6v-2.1l-.7-.6zM332.6 139.1l-.4.4-.9 2 .6.3 1-.3-.4-1.1.4-.6zM300 148l.3.9.6.8.5-.4.3.8 1.8.4 1.3-.3.2-2.7.2-2-.4-.3-1.3-.9-.1-1-1.7-.6-1.1.9-.5.6.2 1.6-1.1.2v1.3l.4.8zM244.2 168.9l.8.1.2.3.9.5.7 1.2.2 1.5.6 1.2.7-.2.3-.4 1.1-.6.9-.9.9.1 1.5-1v-2.2l.3-.8v-.9h.9l.5-.8.5-.1.3-2.1 1.6-.6.3-.5 1.2-.7.6-.5.2-.8 3.2-1.6.2-1.4-.7-1-.6-.2-1-1.2-1.5-1.7-.2-.6-1.6-.4-1.2.7.3.8-.5.6-.4-1.2-.2-.1-.7.7V153l-1.3-1-.6.3-.4-1.1-1-.5-.3.4-2.7.3v.6l-.7-.5-2.3.6.7 1.1-.3.5.9 2.2-.4.6-.1 1-.2.1-1.3 3.2.5.5v.5l-.7.4-.3 2.2.1.7-.6-.1-.6 2.3-.1.8-.3.4h1.7zM289.7 179v-.6l-.7-.2-1.7-1.4-1.1-.5-1-.8-.9-1.3-.3-.1-.1-2.2.1-.4-1-2.6v-.6l-.6-3.3-.5-2.4-1.6-1.7-.6-1-.5-.1v.9l-1.9-1.3-.6.3.8.8-.8.2-.2.8.9 2.5-.2 1.9.3 2.1.4.2.1 1-.7.9-.9-.5.1-1.4-.8-1.9-.2-2.2-.4.3v-.6l-1.9-2.1-1 .1.3 1.1.7.8-.4.9h-1l-1 1.4-1 .3-.7.3 1.1-1.7.4-.3v-1.1l-1.7-1.1-.4-.4-1.4-.4-.3.4-.7.6-.1.4.5.4-.2.4-1.1.1-.6.4.1-.9.6-.6.2-1.9-.5-1.1-.5-.3-2.2.8-.8.7-.8.2-.6.7-.5.2-1.3 1.4-1 .8-.4 1.5.5.1.1.9-.4.2-1.4 2.2.4 1.4.2-.5h.4l.2.5.9-.2h.2l-.1.6-.4.5-.1.6 1.2-.2v-.7l.4.5h.9l2.5-.7.6.1-.1.4-.6-.1-.8.4.4.2-1.4.2v1l-.4-.6-.6.4-1.4.1-.8 1.1.2.9 1.1 1.2 1.4.3 1.1-.1 1.3.1h1.4l.8-.3 1.6-.2 1 .6 1.4.3.5.7-.4.2-.4 1.1-.6-.1-.5-.5-2.7-.5-1.3.2-1.1.9-3.2 1 .7 2.2.6.3.2.5 2.5 1.1 2.1-.2.8.6.3.7-.1.9.6 1.2.6.3-.4.5 2.4.1 1.7-.5.4.1 1.1-.5.9.1 1.4-.3 1.1-1.4 1.6-.1 1.6-1.1.2-1.1.4-.7h.3l.1 1.6 1.2.1.5-.3.9.8v.9l1.3.2h.6l.8.5.8-.3 1.1-.1 1.3-.7.7-.9-.2-.5-.5.1-.4-.4.4-.7-.9-.3-1.2 1.4.2-1.9.6.2.2-.8 1.1-1.2-.2.7.8.4.3-.9.6 1.4.7-.6-.1-1.2.1-1.2zM279.7 157.1l-.9 1.5 1.7 1.2 1.1 2.1.7.6.6-1 .8-1.6.1-2-.8-1-1.3-.4zM299 168.3v-1.8l.3-.9-.1-1.6h-1l-.5-1.5-.9-.8-.6.3-.4 1.8.1.8-.6-.6.4-2 1.8-2.8.2-.4-.1-.9.5-1-.3-.9h-.9l-1.4.7-1.6.2-1-.9h-.9l-.1.5-.4-.1-1.2.7v.7l.7.2 1 1.3.4 1.2-.6.3.5 1.1v1.3l-.4.5-1.2.4-.9-.5-1-1.4h-.6l-.6 1.1.2 1.7 1.2.7.5 1.2h.5l.7.1.1.5 1 .1.4.4v.5l.5.8.5.4 1.2 2.5.6-.1.4.4.9-1-.7-1.5.6-1.5-.1 1.1.4 1h1.3l1.6-1.5zM290.4 159.5l.6 1h.5l.3-.7-.8-1.3-.9-.1-.3.7zM293.8 155.8v.4l1 .1.9-.2.9-1.2-.1-.4-1.8.5zM297.9 161.1l.1 1.3.9.1.2-1-.2-.7h-.7zM310 157.7l.7-1 .6-1.3-.5.1-.7-.5-1.9-.5-.6.3-.8-.7-1.3-.3h-1.1l-1.4.4-.4-.1-1 .6v1l1.2 1.4-.5.2-1.1-.8-.2.4.2 3.9-.5.5.1 1.7.6 1.6.5.1-.2.8v2.5h.8l1.5-.4.4-1.6.7-.8-.8-1.5-1-.1-.5-.8.8.2 1.1-.1.5-.4 1.1.8h1.2l1.5-2.9-.3-.4 1.2-1.8zM292.3 176.6l-.2-.4h-.4l-.1.4.4.4zM287.8 187.1l1 .4.2-.6-.2-.4-.3-.1zM291.2 185.3l-.2.5.3.3.1.8h.4l.2-.9-.5-.8zM297.8 181.8h-.3v-.5l-1.2-.8-.5.8.2 1.1-.7.2.1 1.5-1.4 1-.5-.2-.3.8.6.6.9-.2.8.8.7-.1 1.5 1 .3-.2 1.1.6h.6l.6-1 1-.2v-.8l-.5.2-.7-2-.6.2-.8-1.7zM299.5 182.4h-.6l.4.8.4.3zM301 182.5l-.4-.4-.5.3v1.1l.6-.4.2.4zM289.8 183.2l.7-.3-.1-.6-.5.2zM282.6 188.1l1.3.3-.2-.7-1.2-.2zM317.9 191.7l.3-.3.3-1.5-.3-.9-.7.7.3.6-.3.7zM337.3 159.7l-.6-.3-.2-1-1.8-1.1-1.7.3-1.8-.4-.4-.4-1.3-.1.3 1.7-.3.3v1.3l1 .5v.8l.5 1.6 2.2.6 1.5-1 1.1-.1 2 .5.7-.7-.5-.5v-.7zM330.1 181l-.6.5.7.2.6.8.2-.5 1.1-.3-.1-.6zM318.4 179.4l-.8-.3h-1.1l.2.5 1.5.2zM332 185.7l1-.1.7-1 .4-1.2h-.3l-1.4 1.4zM333.8 187.1h-.7l-.2.6.4.5zM334.9 181.7l-.4-.2-.9.5v.6l.9-.2zM333.1 188.8l-.7.1.2.5.5-.2zM336.1 183.4v1.1l.9-.6.1-.7-.6-.1zM341 188.2l-1.1-1.2-.3.4 1 1.5zM343.2 191.7l.3-.3-.4-.8-1-.7-.9.2.2 1.2zM337.4 189l-.8 1.9-.4.7.4 2.4.7.5 1.5-.2 1.8-1.8.1-.6-.7-1.1.2-1.1-1-.7zM349.1 215.4l.5-.1-.2-.4-1.4-.4zM344.1 170.7l.1 1.4h-.5l-.4-.9v-.6l-.7.6.7-1.9-1 .2-.9 1.1-.4-.9 1.2-1-.3-1.1h-.7l-1.1 1.2.3-1.3-1.6-.3 1.5-.2.5-.9-.2-1.1-1.1-.7-1.8-.2-.9-.7-2.2.2-.8 1.6.5.6-.8.1.2 2.3-.6-.4-.2-2.2-.7-.1-.5.4-.2-.6-.7.5-.6 1.8-.6.8-.3-.8.3-.2-.4-.7.5-.9.2-.8-1.1.6 1.4-1.4.2-.5v-.3l-.5-.3-.4-1.3.4-.7-1.2-1.2.1-.7-.8-2.4-2.3-.2-.3.6-1.6.9.4.9-.9-.5-1 .5.4 1-.6-.1-.5-.7-.2.6.6 1 1.3.6-2.6-.7v.7l2.6 1.5-.1.2-2.4-1.2-.8.4.1 2.7.9.5.5-.2.5.3-.2.5.7 1.6-1.3-1.2h-.9l-.1 1.1-1.1.4.9.6.2.9 1.3.9.5-.3-.3 1.4-.3 2.5-.2-1-1.6.2-.6.6h-.8l1.5-.9 1.5-.8v-.5l-1.5-1.4-1.5-3 .6-2-.8-1.5 1.1-2.9.2-1.5.5-.1 1-1.3.7-.3v-1.1l-2.9-.7-3 1.3-.5 1.2-.9.7-1 1.8.1.6-.4 1.5-.7 1.1-.3 2.1.5 1-.9 1.3.3 1.1-.3 1.5.4.9 2.7.9.9-.1.4.5 1 .8-.4.4-1.7-.1-1.5-.6-.3.6-.2.6.9 1.1v.7l1.3.7.4.5h1.1l2 .2v.6l.6.9 1.6.4-.5-.6h1.3l.1.4 2.4.3h1l1.3.7 1-.2.3-.6.8.5.6.8.2-.4-.5-.9-1-.8 2.8.6h.8l.3.9 1.9-.4v-.7l-.3-.4-.6-1.3-.7-.2.6-.2.2-.5.2.5 1 1.2.6-.3 1 .3.1.9-.1.7.3 1 .3-.7.9.4v.5l-.5.5.8.1.8 1.4h.5l.7.6.2.7-.8.5-.5-.3-.6.2v.7l-.3.7.1.5 1.2-.5.9-.6-.1-.4.6.2.7-.6 1.2.2-.9.2.5.4-.8.3.4.6.7.8h.7l-.1-.6.6.1v.8l-.2.5.7.7.4-.2.2.4.4.9.1 1 .7.1.2-.1.8.3-.1.4h-.4l-.2-.3-.8.1.6 2.2.5.4v.2l-1.2.8-.3 1.4h-.5l-.6.2-.8-1.6-.7.1.1.6-.6.9-.8.3 1.2.6.3 1.1-.1.3-.4.2v.6l.1.1v.1h.1l1.3 1.5v.7h-1.3l-.4.2-.1-.4-.2-.1v.6l-1 .5h-1.5l-2.5-.5.2 1.2-1.9 1.2v2l1.5 1 1.1.2 1-.6h1v-.6l-.1-.3.7-.2.4.8h1.1l.5-.5-.5-.7.6.2.1.2.7-.4.9.7v1.2l.8.3.1 1 .6.2.4.7.8-.1 1.1.8-.3.5-.7-.3 1.1 1.8.7.7 1.2.4 1 .4h1v.4l.9 1.1.6-.1 1.7 1 1.7.8.8.2 1.2.3-.2-.8.1-1-1.6-1.6-2.3-1.9-.9-1-.8-1.5 1.2.3.9 1-.1-.6.4-.2.7 1.2 1 .8.4.5 1.7.3.8.4.5 1.3.4-.2-.4-1.5 1 .4v-.6l-.8-.4-.1-1.3.8.1.3-.5-.3-1.8h-.5v-.7l-1-.5.6-1.6-.5-.2v-.7l-.7.5-.1-1-1 .1-.4-.6-.5.5-.7-1.2-.3-1.8-.5-.8-.8.5-.1-1.6.7.1.8-.6v-.5l-1.7-.8.2-.8 1.5.6.5-1.6v1.4l.6.4.7.6 1.2-.3-.8.6.2.6 1.5-.5 1.1-1.3-.6 1.3-.8.6-.3 1.1.8 1 .9 1.3 1.2.8.5.2.7-1.8-.3-1.1h1.5l.9-1.8v-1.2l1-.1.5-1.8-.6-1.1-2-.6-.9.3.3-1.5-1.7-.1-.2-1.5-.9-1.1h-1.1l.2-.9-1.6-.2-.2.4-.5-1-1.1-.4v-1l-2-.6-.9-.2.3-.5-.3-.3 1.2.4-.9-1.3.7-.9-.9-.6-.2-.4.4-.2 1.5.7 1.5-.3-.1-.7-1.8-1-.6.2-.9-.6-1.1.2.4-.7h.8l.7-.6 1.1.2.4-.4v-.8l-1.5-1.8-.5-.1-.4.7.2.4-.8.9-.8-.1.7-.9-.2-.5-1.4.5-.9.7.6-1.2 1.6-.6.7-.7.2-.7-1.4-.5-.3-.9h-.7l-.8 1.3-1.2.8.5-1.1 1.1-1.2h-.7l-.9 1.1-1 1-1.4.5.4-.9 1.2-.4 1.1-1.5.2-.9-.4-.2-.9.6-.1.4-.5-.1-.1-.6-1.3-.5h1.8l.5-.9-.7-1.4-1.7-.9-.2-.4-.7.2-.2 1zM353.9 181.9l.9.1.1-.6h-.7zM324.2 202.1l.2-.4-.4-.3-.2-.6-1.1-1h-.5l.7.6.3.9zM324.9 198.8l-.4.1.5.4.2-.2zM333 239.2l-.2-.7-.2-.4-.2-.2-.3.9-.7.6-.3 1.1.3.1.4-.4.2-.9.5-.2v1.8zM331.6 238.8l.4-1h-.3l-1.2 1.9zM328.6 250.8h.6l-.2-.7-1.2-.6-.9.3-.1.4 1 .2zM331.9 253.5l.5-.5-.2-.2-.9.7zM332.1 216.5l-.9-.3-.4.3-.5.3-.2 1.8.4.3.3.7.5-.1v-.5l.9-1.5zM324.6 216.4l.3.3.8-.7v-.4l1.1-.6.4-.7-.4-.7-2.3.3h-.6l-.2 1.1-.3.7.5 1.1zM321.6 212.5l.6-.7.4-.7 1.2-.9.2-1.5 1.1-.2-.3.7 1.4.5-.1.9h1.1l1.4.9 1.6-1.3-1.2-1.5-1.2.1v-.6l-.7-1.5-3.3-2.5-.6-.9-1.2-.6-.5.6-.8-1.2.1-.6-.7-.5-.6.3-.6 1.9.1 2.2-.5.9.2 1.9.1.7-1.7.8.1 1.5 1.2-.6 1.3-.1.3.8v1.7zM335.4 212.5l-.6-.9-1 .1.9 1.4zM335.6 211l1.2 1 .5-.2v-.5l-1.1-.6zM335.1 209l-.3-.2-.4.7-.2.2.7-.2zM321.9 201.9l-.4-.8-.3-1.1-.4.2.3 1 .5 1zM341.2 215.1l.6.2.4-.1-.1-.4h-.9zM354.5 223.7v-.3l-.4-.2-.4.3.1.5v.5zM248 255.8l-.2.2v.1l.1.2v.1l.1.2.2.1v.4l-.2-.2.2.3v.1l-.1-.1-.2-.1v.3h.2v.2l.2.2-.1.2v.4l.1.1v.1l-.2.2-.2.2v.2l-.2.2.2.1-.2.1v.4l-.2.2-.2.1.2-.6-.1-.1V259.3h.1l.2-.2v-.2l-.2-.2-.1.1v-.1l-.1-.4.1-.3-.3.2-.1-.1-.2.1v-.1l-.1-.2-.2.1h-.2l-.2-.1-.3-.1-.2-.1-.3-.1-.2-.1-.2-.1.1-.4-.2-.2-.3-.3-.3-.2.1.3-.1.1-.2.2v.1l-.1.2v.4l.2.2.1.3v.1l-.1.7.1.4-.1.5-.1.2.1.1-.1.5.1.2h.1l.1.1-.1.2.1.1-.2.1.1-.2-.1-.5-.3 1.2h.2l.2.2.4-.1.1.1h.1l-.1.1h-.1l-.1-.1h-.2l-.2-.1-.1.3-.1.3-.2.2v.2l-.1.1v.2l.1.1-.1.1-.1.2v.1h-.1v.1l-.1.1v.2l-.1.2v.1l-.2.2-.1.1-.2.5-.1.3-.1.3v.2l-.1.1-.2.2-.1.3-.3.8-.1.2-.1.2-.1.1-.2.3-.1.2-.1.1v.1l-.1-.2-.4.8-.3.5v.4l.1.3-.1.2-.1.2v.1l-.1.2v.7l.2.3h-.2l-.1.3-.1.8-.2.8-.1.8-.1.2h-.2v-.1l-.1-.2-.1-.2h-.2l-.1.2-.1.3-.2.8v.5l.2.2v.2l.1.2.2.4.1.3-.1.2-.1.5-.1.5v.6l.1.3.2.3.1.5v.2l.1.2.2.2.2.4v.2l-.2.1h-.1v.5l.1.2.1.1.2.2v.3l.2.1.2.1h.2l.2-.1.1-.1-.1-.3v-.2l-.1-.1v-.1h.1l.3.1.5.3.1.2v.1l-.2-.1-.4-.1v.3l.1.3.2.2v.5H240.9l-.1-.1-.3-.2-.3-.2-.1.2v.1l.1.4v.5l.1.4.2.4.2.5.3.2-.2.2-.5.1-.2.1-.1.2v.1l.1.2.2.3.1.2v.4l.2.2.1.1.2.2v.5l.9 1.1.2.4.1.8-.3.5-.1.3.2.3.1.2.2.1.4.2h.2l.2.1 1.1 1 .4.2.2.1.8.7.4.3v.2l.2.1.4.4.3.1v.7l.4.3.2.6.2 1.1-.1.2v.4l5.6.6-.1.1-.1.2.5.3 4.3 2.5 2.8 1.6 3.3.5 1.1.2h.1l1.3 1 .1.9.6 1.3.2 1.1.5 1.2.8.8.5 1 .3.1 1 .9.7.1.3.3.2 1 .9.6.3.7.8.2.5.6-.3 1.3.8.7 1.3.5.5.7 2 2 .6.8 2 1.9.6 2 .5.6-.7 1.1.3.4-.4.3.5 1.3 1.4 1.2.7.1.4.5.5.4.8.8.9.2.5.2.8.2h.4l.8.7 1.3.9 1 .4 1.6.5 1 .4.7.2.5.5 1.4.7 1.2.3.5.2 1.2.2.4-.3.6-.2.7-.3.5-.2.5.1 1 .1.9.3 1.7 1.5 1.4 1.3.4.6.8.5 1.2.1 1.3.3.5.3 1.1.4h.5l.7.4.8.2.8-.1.1-.5.3-.1.3.1.1.3.3.2-.2.3-.5-.2-.1.4 1.5 1.3.8.9.8.8.5.3-.1.6.1.1.2.4-.3.7.7.7h.2l.4.5.5-.1.1-.4-.7-.4v-.4h.3l.8.8.2.7.5.1 1 .5.2.2v.9l.3.3.2-.2.4.1.4.5.1.7.2-.5.4-.1.4.2.4-.1 1.1.5.5.7h.5l.2-.3h.3l-.1.4.2.3v.6l.5-.2h.4l.8-.5.1-.3-.4-.2v-.2l-.5-.3.1-.2h.3l.9-.8v-.4l.2-.5 1.3-1.3-.2-.3-1.2.1-.6.7-.4-.1-.3.2-.9.1-.5.5-.8-.1-.5-.7h-.3l.1.5-.7-.1-.2-.5.1-.1.1-.2-.6-.2-1-.8-1-1-.2-.7-.4-.4v-.4l.3-.5-.1-.7.1-1 .1-.7.1.6.2-.1-.2-.8.1-1.4.4-.8.2-.4-.1-.5.1-.8.1-.4-.5-.7-.5.1-.3-.2v-.3l-.8-.4-.8-.1-.8-.2h-.9l-.5-.2-.4.1-1.4.2-1.3-.1-.5-.1-1.1.3-.4-.2h-.7l-.1-.4.2-.4.6-.3.3-.8.1-.7.2-2.3-.3-.8.1-.4.4.1-.1.4.6.6.5-1.8-.2-.4.4-.5-.4-.1.4-.7.6-1.6.5-.4.1-.7-.3-.5-.9.2-1.2-.5-1 .5-2.6.2-.9.5-.2 2-.3.4-.2 1.2-.1.2-1.5.8h.6l.2.3-1.1.3-.4-.1.5-.4-1.5.1-.3.2-1.8.2-1.5.5-1-1-1.2-.2-1.1-1-.5-1.2-1.6-2.5-.7-1.2.3.1-.2-.7-.1-1 .1-.9-.1-1.7v-2.2l.5-1.1h.2l-.2.9.7-1.7-.1-.5-.1-.5-.4-2 .4-.8.4-1.1 1-1 .6-.3-.5-1.3h.1l-.1-.1.1.1.2-.1.8-.1.1-.1.1.1h.1l.3.1.3.1.1.1.3.1.8.2h.2l.2-.2h.2l-.1-.4-.1-.1h.1l.1-.1.2-.1.2-.1V310.4l.2-.1h.3l.1.1.1.1.1.2h.2l.4.1.1-.1v.1l.2.2.1.1.1.2-.1.1.2.2.1-.1.3.2.2-.1.2.1.1-.1v-.2.6h.1l.2-.1.1.2.2-.1h.1v.2l.1.2.2-.1.1-.1.1-.2-.1-.1h.2l-.1-.4-.3-.2v-.1l.5.2h.1l.1.1-.1.2h.5l.1.2H308.5v.1l.2.2h.2v.1l-.2.6.4-.4.1-.1.1-.1.2.3.1-.3.1-.1v-.1l.2-.1-.1-.2-.1-.1-.1-.2-.1-.1-.3-.1-.1-.1h-.2l-.1-.2-.2-.1h-.2v-.1l.2-.1v.3h.1l.4.1-.3-.3-.1-.2.1-.1h.2l.1.1.1-.3v-.2l-.1-.1v-.2l-.1-.2-.3.2v.2l-.1.1h-.1l-.1-.1h-.2l-.1-.1.3-.2.1-.2.2-.1h.1l.1-.1.2-.2.1-.1h.2l.4-.2.3-.1.2-.1.1.1.2.1.2-.1v-.1l.3.2.1-.2h.2l.3.1h.2v-.9h.1l.1.1v.1l-.1.2.1.2.2.2.1.1v.1l-.2.1h-.1l-.3.2.9-.2.2-.1.1-.1h.1l.1-.1v.1h.2l.2-.1H313.9l1-.3.6-.1h.2l.7.2.4.1.5.2v-.2l.2.2.1.1h-.6l.4.2.1.1.2.1.1.2v.1h-.1l-.1-.1v-.1h-.4v.1l.1.2.1.1H317.7l.4.2.2-.1.1-.1.3-.2.1-.2-.1-.1-.2.2v.1l-.2.1-.1.1-.1.1-.5-.1.3-.1h.2v.4l.1-.1v.1h.2l.5-.5.2-.1h.1l.3.1-.1-.2h.1l-.2-.2.1-.1.2-.1h.3l.1-.1h.1l.4.2h.1l.3.2.2.3.3.2.1.2v.1l.5.3.1.2.2.1.1.1.1.1h.3l.2.2v.2l.1.1.2.1v.8l.1.1v.2l-.1.8.1.1v.3l-.1.2-.1-.1.1.1.1.2.6.5-.1.1-.4-.3.4.5.3.1.1.2v.1l.4.6.1.2.3.3.2.1h.1l.2.1-.1-.3v-.1l.1-.1.1.1v.4l.1.1v.2h.2v.1l-.3.1-.2-.2h-.2l.2.3.1.1.3-.2.1.1.2.2.1.6.2.3h-.1l.3.2.2-.1h.2l.3.2.1.1.1.2.2.3.1.1.3.3-.2.2.1.2.2.2.4-.2.2-.1H329.2l.1-.1.2-.1.1-.1.2.1h.1v.1l-.2.3v.1l-.1.1-.3.3.1.1.1-.1.2-.3.1.1.4-.5.3-.8-.3.2.1-.2-.2-.3.1-.1v-.1l.1-.1v-.2l.1-.2v-.1l.1.2.1-.5-.1-.2v-1.8l-.2-.7-.1-.1v-.2l-.3-.4-.1-.1v-.2l-.2-.3-.3-.6-.3-.5.1-.1-.4-.5-.1-.1-.1-.3-.1-.3.2-.1-.1-.2-.2-.1-.3-.3-.9-1.1-.5-.9-.2-.5-.2-.6-.1-.1-.2-.3-.1-.3-.1-.2-.1-.1v-.5l-.1-.1v-.1l-.1-.2v-.1l.1-.2h-.4l.1-.2.1-.2.2-.2.1-.2-.1-.1v-.2h.1l.1-.4-.2.1.1-.1h.1l.1-.2v-.1l-.2.1h.2l.1-.2-.1-.1v-.3l.1.1h.2v-.2l.1-.1.2-.2h-.2l.1-.2h.2l.1-.2-.2-.2-.1-.1v-.1l.1.1v-.1.1l.2.1.2-.1.1-.5-.1.2-.1-.1h.3-.1l.1-.1.2.1.2-.1h.2l.1-.2.1-.1.2-.1v-.1l.1-.1.2-.2-.2-.1.2-.1.1-.2.1-.1.2-.1-.1-.1.1-.1h.1l.2-.1.1-.2.1-.1.1-.1v.1-.9l.1-.2.4-.7.4-.4.2-.1v-.1h.1l.3-.1.3-.1h.3l.2-.1v-.2l.1.5v-.9l.1-.1.2-.3v-.1l-.1.2.4-.5.5-.4h-.2l-.1-.1.2.1.1-.1.2-.1.2-.3.1.1v.1l.3-.2.4-.1h.2-.2l.1-.2.1.1h.2v-.1l-.1.3h.1l.2-.5.2-.4h-.1l.4-.5h-.2l-.2.5-.1.1v-.1l-.1-.1h-.2l-.1.2v-.1l-.2-.3-.1.3h-.2v.1h-.1l-.4.2h-.3l-.2-.2.2.2h.2l.1-.1.3-.4v-.2h.1l.1-.2-.4-.1h-.2l-.2-.1h.1l.2-.1.2.1-.1-.2.1.1.2.1v-.1H334.2l.2-.1.2-.5v-.7h.2l.1-.2-.1-.2v-.3l-.1-.2-.2-.2v-.5l-.3-.5v-.1h-.2l-.1-.1.2.1.1-.1.2.5.1.2.2.3.1.2-.1.1.2.1.1.2.2.2.1-.1.1.3.1.2v.1l.1.6-.1.1-.2.1.1.1.3-.1v-.4l-.1-.5v-.2l-.4-.8.1.2-.1-.1-.4-.5-.2-.3-.3-.7v-.1l-.3-.5-.2-.4h-.5l-.2-.1-.1.2h-.2l-.1.1-.2-.2-.2-.1-.1-.1.1.1.2.1.2.2.2-.1h.1l.1-.2-.1-.2-.1-.1-.1-.2-.1.1.1-.2-.1-.1h.1l.2.1.1-.3-.1-.4h-.2l-.2-.1h.1l.1-.3v-.2h.1v-.3l-.4-.1h-.2v-.1h-.1v-.1l-.1-.1v-.1l.1.1.1-.1h.1l.2.1.1-.2-.2-.4-.1-.1.1-.2-.3-.3-.1-.4-.1-.2.1-.2-.1-.1v-.3H332.3v.3h.1v-.1l.2-.1.1.1h.1l-.1.1-.2.1v.2l.2.3.1-.3h.2l.1.2h.1-.2l-.1.4.2-.1-.1.2v.2l.4.4-.1-.3.2.1.3.2-.1-.2.1.1.1-.2v.1h.1l-.2.2.1.3.1-.1.1.1h.1l-.2.2v.2l.4-.1-.1.1.1.2v.1h-.1v.4l-.2.3v.5l-.1.1v.4l.2.3.1-.5v-.4l.1-.2v-.1l.2.1.1-.1.1-.2v-.3l.1-.3.1-.2.1.1.2-.2.1-.3V284.7l.2-1.1v.1-.2l-.2-.3h-.1l.1-.1h-.2v-.1l.1-.1-.1-.2h-.2l-.3-.2-.1-.2-.1-.2-.1-.2v-.2l-.1-.1-.2-.1-.1-.2.1.2.2.1.1.1.3.2.1-.1h.3l.1.1-.1.2v.2h.2l.1-.1v-.2l.1-.1.1-.4.1-.2h-.1l.1-.1h.2l-.1-.2.1-.1-.1-.2.1-.1v-.2.1h.1l.2-.4V279l-.1-.1v-.5l-.1-.2-.4-.1-.1.1h-.1v-.4l.1-.2.1-.2v.2l.2.1h.2l.1.1.3-.1.6-.3h.1l.2-.2.2-.1.3-.2.2-.1.1-.1h.1l.4-.2v-.1h.2l.3-.3.2-.2.5-.7-.5.4-.2.1-.1-.1-.2.1-.2.1-.1.2v-.2l.1-.3-.1-.1-.4.6-.3.1-.5.2-.1.1-.1.2h-.3l-.3.2h-.2l-.2.1v.1h-.2v.1l.2-.3.1-.1.3-.3.1-.1.1-.1.1.1.3-.4h.2l.2-.1h.1l.1-.1.5-.1v-.1h.2l.4-.2.3-.1h.1v.1h.2v-.1l.2-.1.5-.3v-.2l-.1-.2v-.2l-.1-.1.1-.1.1-.1v.2l.2-.2.1.3.1.3.1-.2.1-.1h.2l.1-.3.1-.1.1-.1h.1v.1l.1.4.2-.1.1-.2v-.2l.5-.3.2-.1.2-.2-.1-.3-.2-.3-.2-.2-.2-.1-.5.1.5.1.1.1.1.2h.2l.1.2-.1.1-.3.2-.2-.1h-.2l-.1-.1-.2-.3-.3-.4-.3-.3h-.2l-.1.1-.2-.1h.2l-.1-.2.1-.1v-.1l.1-.2.3-.2.1-.3-.4.1-.1-.1v-.2l-.2-.1v-.4l.1-.4h-.1l.1-.1.1-.2-.1-.1.1-.2.2-.4-.1-.1.2-.4-.2-.1v-.1l.1-.2.1-.2.1.4v.1-.2l.2-.2v-.1l.1.4.1-.3.1-.3.2.1-.1-.2.2.1.1-.2v-.1l.1-.1h.2l.2.1.1-.2.2-.2-.1-.1v-.4l.1-.1v-.2l-.1-.1.1-.1v.1h.2v.1l-.2.1h.5l.4.2-.1-.3v-.2l.1-.2.1.1.1-.1-.1.2.1.2.4-.2.1-.2-.2-.1h-.2l.3.1.2.2.1-.3-.1-.1.1.3v-.1.1l.1-.5-.1-.2.1-.1.1.1h.2v-.1h.2v-.2l.1-.1h.1v-.1l.2.1-.2-.2h.2l.1-.2.1-.3v-.2l1.7 1.3 2.2.3 1.4-.9 1.7-2 .1-.1h.2c.3-.5 1.4-1.1 1.4-1.1l1.1-.1 1.3-2.5 1.2-.3 4.1-.5 1 .4.8-.2h2.6v.5l1.5-.3h1.6l.7-.7.5-.2.8-1.2.5-.2.9-1 1.6-.4 1.1-.1.5-.4.8-.3.2-.5.4-.3.1-.7-.5-.2.5-.2-.5-.4v-.7l.2-.4-.5-.3.5-.6-.2-.8-.6-.6-.8-.6-.9.2-.2 1-.4-.8.2-.6.1-1-.4-.3-1.7.1.3.3-.7.2-1.4.8-1 .9-.8.4.1-.4-.4-.4.5-.1.5-.8h.8l1.4-.8.1-.4.7-.3 1.4-.3.3-.5-1-.8h-.7l-1.1-.5-.2-.5-.6-.1-.6.6-.1-.8-1.2-.8-.3-1.1-.9-.5-.4-.6-1-.4-.2-.8.4-.3-.6-.5.8-.5v-.9l-.8-.5-.2-.5-1.1-.2.9-.2.2-.7-.4-.5-.3-.4-.5.1.2-.4-.2-.4-1.1.5.1-.6.8-.5v-.6l-1.5.2.8-.6.2-.4-.5-.8-.1-.6-.7-.1.4-.5-.8-.8.1-.4-.7-.6-.6-1.1v-1.7l-.7-.2-.1.7-.8 1.1-.6.8.4 1.3-.7.5-.2 1-.5.5v.7l-.8-.4-.2.1-.3 1.1-.8.1-.9.9-.3.6-.1-1.7-.7 1.6-1.1.5 1-1v-1.2l-.4-1-.6-.3-.3.3-1.6.4-.3-.2.8-.7.3-.8-.3-.7v-1.4l-.2-.5-2-.4 1.6-.3.7-.3-.4-2 .4-.4-.4-1-.5.3-.9-.2-1.8-.7-.9-.8.4-.8-1-.4-.7-.6-.1-1-2.7-1.5-.5.3-1 .3-.4.4-.6-.2h-.9l-1.1-.7-2.7-.4-1 1.3.2 1.8 1 .4.1.4-1.6 3.3 1.1.2.1 1.1.4.9-.2.8.2.8-.5.6.1 1.2-1 .1-1.2 1.1.3 1.1 1 .5-.1.4 1.2.4.4 1.4 1 3.4v3l-1.2 2.2-1.2 1-2.8 2 1.1 2.2v2.8l.4 1.4.7 1.1-1.1 1.4.4.6-.4.6-.8-1-.9.8.3 1.1-1.5-.7-.8.4.6-.9-.2-.8-1.3-1.3-1.2-.1.9-.6-1.8-1.9.4-.9-.2-2.3-.4-.7.6-2.3.1-.7-1.2-.2v-1l-2.2.2-.6-.2-1.6.1-.9 1 .4-1.3-.7-.9-1.5-.5-.5-.5-.9-.1-1-.4-.3-.9-1.6-1-.7-.7h-.9l-1.6-.4-.4-.5-1.3-.6-1.2.6-.6.2-.6.3h-.6l.3-.6.1-.8-.5-1.3.1-1.4-.8-1.2-.1-.7-.1-.3h-1.9l-.4.4-.5-.6-.4-.8.1-.6-.2-1.5-.2-.9.7-2.5.9-2.8v-.8l.6-.4 1.7-2.5h.6l.3-1.6 1-.2s.1-.2.2-.3l.1-.1-1-.5 2-.2.8-.5.5.1.3-1.1-.5-1.1-.9-.3-.8-.9-.8.2v1.5l-2.3.4.2-.6 2.2-.2.3-.9-2.2-.9 2.5.5.9.1 1 .9.9.2 1-.7.4-.9.4-.7 1.4.4 1.1-.4 1.2-1.9.2-.1 1-2.7v-.5l-.5-.2h-2.3l-.9-.2-1.9-2.3.6-.1 1.9 1.1 1.3 1.3 1.7-.1 2.2-3.6-.1-.5-1.5-.4-.3-.3.8-.5 1.6.1.4-.4.8 1.6 1.2.3.1-.7.6.6.6-.1-.4-1.3-.2-1.1.6.3.1.6.9.7 1.4-1 1.2-1.1.5-1 .7-.2.3-1.9-.6-.8-1-1.5v-.4l.1-1.2-.5-.4.4-.2-.5-.4.3-.3.7.3 1.2-1.4-.2-.9-.9.1-.5.9-.9.1v-.8l.7-.3 1.4-1.1.1-.5-.7-.3h-1l.2-.4-.6-.6-1.3-.2 1.5-.2-.3-.9-2 .1-1.3-1.1h-1.3l-.2.3-.5-.2-.4 2 .4 1.7.6.4-.2 1.2.3.6-1.4.3-.7 2.4.3.9-1 1.1-.3.9-.4 1.3-.8.2.2.7-.6-.1-.5-1.1-.5-.5-.5-1-.5-1.2.4-1.8.2.5.5-.1v-.6l-.5-1.1.1-1.1-1.6-1.6-.4-.9-.9.1-.2.8-.6.8.3 1.4-.3 1-.5 1.1-.5-.8.1-.4-.2-1.7V185l-1.3-1.6.4-.1 1.2.5.1-.5-.6-.8-1.1-.1-.2-.4-1.2.3-.7-.9h-.5l-.2-.4 1.1-.6.3-.7-.5-.2-1.1.5 1-1 1.3-.1-.2-.7-.6-.4-.6-1.7-.5-.1-.5-1.3v-1.9l-.3-1-1.2-1.6-.2-.7h-.9l-.6-.4.2-.3-.3-.6h-1l-.1 1-.5.5-.7 1.4.3.4-.2 1-1-.5-.6.7.1.7-.2 1.6 1 1.6-.9.1-.6 1.4.5 1.9.4.1.6 1.1.8.1.1.3 1.6.3.6.9.9-.2.1.5-1 .2.1 1.4-.9.9.1 1h.8l.2-.8.4-.5.2.2v1.5l.3.4-1.2 1-.2 1-.6.4-1.7.5-.2 1.4.5.5.1 1.9-.5.3-.1-.8-.9.4v-.8l-.3-.5.3-.6-.1-1.2.2-1.2v-.7l-1 1 .1-1.3-.4.1-1.4-1-.7-.1-.2.6-.2.1-.4-.5-.5.1-.1.5.4.5-.1.5.6 1.2 1-.3.5.2.4.8-.7.5-1.5-.7-.8-1.5-.5.4.2.3.8 1.1-1.5-.1-.9-.4h-1.6l-.4.3h-1.4l-.3.3-1-.3-.4.1-2-.8-.2-1.1-.2-.1-.2.5-2.1.1v-1.1l-1.3-.5-.1-.5-.3-.1-.1-.9-.5-1.1-.8-.7-1.2.6-1.9 1-1.2.1-.5.8-.2 1.3h.5l.5.4h.5l.5-1 .5.1.5-.4.8.1.4-1 1-.4.2.6-1.4 1.7-.2.6h-1l-.5.5-.1.2-.5.5.4 1 .1 1.5.8.9.3 1.4-1-.1-.1 1.3-.7-.3-.1-1.4-.8-.5 1-.2v-1l-.6-.5-.4.5-.4-1.4-.1.9-.3-.1.1-1.4-.5-.4-.5.4-.2-.7-.7-.8-.5.4-1.1.6-.4-.1-1 .9-1-.3-1.1.2-2.7-.1-1.4-.5h-1l.1-.3h-.6l1.2-1.6 1.4-.4.3-.2-1-2.2-2-1.3-.5.4-.7-.2.2.6-2.2-.5-1.8-.6-1-.8-1.4-.4-2-1-1.9-1.8-1.1.1-1.7-.1-.3 1-1.1 1.3-2 .3v-.5l.4-.1.5-1.3-.7-.4.1-.8-.1-1-1 .1.2.6-.4.7-.5 1.1.2 1.1-.7.4-1.9-1.4-.3-1.4-.7-1.1-.1-.8-1.9-2.3-.4.4.5 1.1.8 1-1 .1v.9l-.9.9-.9.7.4-1-2.5 1-.3.8-1.1 1.7-.1-.8-1.3-.2-.5.8-1.7 1.1.4.2s.2.7.2.9c.1.2-.8.2-.8.2l-.1.7-.4-.9.1-1.1 1.6-1.4.6-.8 1.5-.5.5-.1 1.1-1.1 1.6-1.4-.1-1.1-.5-.1-.3.8-.6-.1-1.4.1-.4 1-1.8.9-.5.1-1.1.6-.2 1.2-.8.1-1.7 1.8v1.2l-1.4-1.7-.8-.1v.8l1.2.8-.7.1.3.9-1-.6-1-.2-1.3-.4-1.1.1-1.6-1.6-.5.2-.8-1.1-1.3-.8-.7-.4h-2l-.4-.4-.5.4-2-1.9-1.9-.6-.1.2-2 .1-1.9.2-.9-.5-4.5-1.2-1-.2-1.8-1-1.6.4-1.1-.4-1.4.3-.8-.4-.9-1.1v-.5l-2-.7-1.7.5-.8-.3v-.8l-.5-.5-1.1.7.1 1.6-1.5-1 1.2-1.2-.1-.5h-.8l-.8-.8-1.2 1.7-2.5 1-1.1.2.3-.7-1.2.5-.7 1-.9.8-.7.9-2.2.9-.4 1-1.1.9-.4 1.4-.2 1.6-2.2 1.6-2.2.7-1.5-.1-.2 2.2-.3.5 1.3 1.4 1.7.8 1.9 1.8.5 1.9 1.6.8.5-.3.5 1.1.3.1-.1-.6.8-.4.4.3-.4.4.4 1 1 .1 1.3.1 1.4-.1.3.8-2.2.3-1.1-.3-1.4-.8-.3-.1.5 1 .7.3.8.7-1.2.5v.6l-.8-.4-2.5-.2-.6-.1-.2-.4.3-1.8-1.3-.2-1.2.8-1.3.3.2 1.1-1-.3-1.3.7-.7.8-1.6.8.2.8.9.8 1.3.2.9.4-1.1.6.5.5.7 2.2 1.6.1 1.1.3 1.8-.4 1.2.6.1-.9.8 1.3.9-1.3 2.5-1.2.5.6-.2.8-1.1.3-.1.7.6.7.6 1.9-1 1.3-1.3-.2-.6.4-1.8 1.6-.8-.3-1.1-.1-.8 1.1.1 1.1h-.4c-.2.2-.5.2-.5.2l-1.3 2.5-.5.2-.2 1.3.4.3.8 1.3.7-.1.5.8 1.4.2.7-.5v.8l.5.2v.6l-1.1-.2-1.2-.5-.8.8.3.9.8.4.7.6.2 1.2h1.9l1.2-.9v-.9l.8-1-.3.8.2.8.4.8.5 1.7-.6.7.2.8h.5l-.1 1-.5.5.4.4 1.1-.4.8-.9.9-.3.8.8.4-.4.5.4.9 1.1.4-.2-.4-.7.6-1 .1.8.8.6 1.2-.4 1.4-1.1-.6 1.3-.7 1.6-.1 2.2.5.4-1.1.2-1.3 1.6-.1.8-.5-.3-.7.6-1.5 1 .5.7h-1l-.1.4.1 1-1.2-.1-.1-.5-1 .1-1.7 1.5-.1.7-1.7.5-.5.5-1.5.3-.5.8-.5.2.5.7.6-.5 1.5-.2.5-.7 1.3-.6.6-.2.8-.6.5-1 .5.2-.2.5 1.3-.3 1-.4.5-.7h.7l.8-.5 1.5-.5.7-.6-.1-.3h-.8l1.1-.7.5-.5.8-.2.2-.3 1.1-.7.6-.8.2-.5 1.2-.7.2-.6.5.1.5-.9 1.4-.7.8-1.3.9-.8.1-.5-1.1-.8-.6-.1v-.4l.4-.8.4-.2.4-.9.8.1.4-.5-.6-.3 1.6-.2-.9-1.1.9.2.5-.8.5-1.1.4.1.2-.8 1.3-1.1.8-.2.3-.6.2.5.4.2 1-.5-.5.5.1.7 1.1.5-1.6.1-.5-.5-1.2.9-.5.2.3 1-1.1 2.3.4.7 1.1-.4-.4.7-1.6 1 .5.7.8-.3.6.1 1.1-1.1 1-.4.7-.4.8-1.1.8.3 1.1-.7-.4-1 .7-.5-.4-1-.7-.2.8-1 .5.8.3-.9.5.5.8-.1 1-.5.3.1-.4.8.1.5.8-.2v.5l.9.1-.2.5 1.1 1 .5-.5.5.9.8-.2.3.8 2.2.2 1.1-.2 1.5.2 1.1.2-.1.2.8.4 1.7.4 1.5-1 .5-.2.2.5-.5.1-.2 1.4 1.5.8.5.4.9-.6-.4 1 .6.6 1.4 1.7 1.3.6 1.1-.2-.5-1.1-1.3-.9.1-.3 1.1.2.6.7.3 1.3h.8l.8.4-.3-.8-.5-2.7.5-.1.1.9.3 1.1.4.5.8 1 .5-.2.5-.2.1.9.6-.2-.2.6 1 .2-.5.2.3.4-.5.2.4 1.1-.2.8 1.1.4.3.7 1 .8-.2.5.6 1.2-.5 1.9.5.5.5-1.7 1.1-.1.5.9.2 1.1-.4.5.2 1.5.8-.1.8-.9.4-1.2.4.1-.2 1.1-.5 1-.3.9-.7-.1.8.8 1.2.1-1.1.5.8 1 .7 1.2.3-.3.3-1.1.6-.2-.2.3.2.8-.5.2v.1l.5.8.4 1 .4.5 2.2 2.2 4.4 2 2.3 1m82.3 63.5zm-1.6.2h.2l.1.1-.1.1-.2-.2zm-.7-8.3l.2-.1.1.1v.4l.1.3-.3-.5-.2-.5.1.3zm-.1-.4zm5.7-16.8zm.8-2.8zm-1.2-.5l.2.1.5-.4h-.1l.3.1-.1-.1.2-.1v-.3l.1.1h.3l.1.3-.1-.1.1.2v.1h-.2v.4l-.2-.1.1-.2v-.4h-.2l-.3.1v.1l-.3-.1-.1.1-.2.1-.1.1zm-.7-4.2l.2.1-.2-.1h-.1.1zm2.5-2.6zm-.2.1zm-.2 1.1v-.1l.1-.1.1-.3-.1.5h-.1v.2l-.1.1v-.1l.1-.2zm1.2-5v.1-.1zm2.3-3.7l.2-.2-.2.2zm2.8-3.6l.2.1h-.1l-.1-.1zm4.2-8.9zm-3.9 3.6l.1.2-.1-.1v-.1zm-9.2 20.2zm.1-1.5zm.1-3.3l.1-.1-.1.1zm.1-1.3h.1v.2l-.1-.2zm-.7.9h.4l-.2-.1v-.4l.2.2v-.2l.2-.1.2-.2v-.1l.1-.2-.2.3h.1-.1l-.2.1-.1.5.1.3-.1.1h-.1l-.1-.1v-.2l-.2.1zm-.4 2.5l.3.2v-.2l.2.2.2-.1h.2l.1.1-.3.1H331.6l-.4-.3zm-.3-.1l.1.1-.1-.1zm-.3-.6zm0 .7l.2.1-.2-.1zm-2.6 15.1l.1.2h-.1v-.2zm-3.9 13.3l.1.1v.1h-.1v-.2zm.1.6l.1-.3.2-.1.1.1v.1l-.3.5-.1.2-.2-.3.2-.2zm-7.9-5.5l.2.1v.1l-.2-.2zm-1.5-.4v.2l.2-.1.2-.1.2.1-.2-.1-.2.1v.1h-.4l.2-.2zm-2.1.5v-.2h.1l-.1.2zm.3.1h.2-.2zm.1-.1l.2-.2.1.2h-.3zm.4-.4l.2.1-.1.1-.2.1.1-.3zm-7.2 1.3l.2-.3H306.8l.1.1.2.1h.1l.2.1.1-.1.1.1-.1.1-.1-.1-.1.1-.2.1-.5.1h-.2l-.2-.1v-.1l.1-.1zm-6.6 1.3v-.3l.1.1.1.1v.1h-.2l-.1.2-.1-.1.2-.1zm-1.1-.1v.2l-.2.1v.1l-.1-.1.3-.3zm-53.9-50.4l-.2.1v-.1l.1-.2.1.1v.1zm.4 2.1l-.2-.2h.1l.1.2zm2-3.5v.2h-.1l.1-.2zm-.3 1.1l-.1.2v.1l-.2.1v.1-.1l.1-.2.2-.2zm.3.3l-.2.1h-.1l.1-.1v-.1l.2.1zm7.2 39.6l-.3-.2v-.1l.2-.1.1.1V299.9z"/></g><path fill="#fff" d="M728.6 396l-.7.3h-.6l-.2.9-.4-.4-.5.4h-.5l.3.9h-.4l-.2.5-.7.1v.2l-.6.4.2.7-.1.3.3.7-.6.1-.2-.6-.9-.6-.2 1.2.3.8-.2.3.1.7h-.5l-.3-1.2-.4-.8-1.4 1.3v2l-.9.5-.2 1.1-1.2 1.4-2.2.5-.7.2h-.9l-.5.5-1.3.3-.9.6-1.7-.1-.9.6-.9.2-.5.9-1.3.5-.9.4-.4 1.1-.4.2-.1-.7.3-.8h-.4l-.6 1.3.2 1.9-.7 1.4.3 1.2.5 1.7.7.8-.1 1.2-.3-.1-.6-1.1-.5-.4v1l.8.8-.1.3-.8-.6-.2.2 1.1 1.1.5 1.4.3 1.3.7 1 .6 1.6.1 1.6.5 1.3.9 2.1.2.6-.1 1.3.2 1.9-1.3.6.1 1.5 1.2.6.6.7 1.2.6 3.1-.2 1-1.2 1.4-.1.2-.9 2.5-.5 1.7.1.5.2 1.1-.1H722.8l.7-.9.1-.6.7-.8h.5l2-.9.6-.5 2 .1 1.7-.3 2.6-1.3 3.2.1.4-.3.9.2 1 1 .5-.1.6-.1 1.5.5.3-.2.6.2v.8l.5.1-.1.6.1.6 1 .3.2.6.9 1 .2 1.4-.2.2.9.7.4-.7.2-.2.3-.4 1-1.2.8-.4.9-1.6.2-.3.2-1 .4 1.4-.3.3.2 1-.9 1.1v1.9l-1 .1-.4.6.1.2 1.5-.4.2.2.6-2.2h.2l.9 1.5-.9 1.6.3.2.9-.2.8-.2-.2.6 1.1 1.2.4 1.2-.3.5.5 1.1 1.5 1.5.6.1 1 .7 1.7-.1 2.1 1 1.9-1.4v-.5l.9-.4.4.5-.6.7.2.3.8-.4.3.1v.5l.4.4.6.6.6-.6.1.1-.1.7.2.1.3-.6 1.9-1.9 1.5-.5 2-.2 1-.4.3-.8-.2-.5v-1.1l.6-2.5.7-1v-.3l1.3-2.8.1-.5.9-1.4 1.3-1.2v-.4l.8-2.1.2-1.9.4-.8v-1.2l.4-1.4.1-1.6-.4-.7-.4-1.1.1-.8-.1-2.5-.3-.1-.4-.8-.9-1.5-1.2-1.3-1-.3-.6-.8v-1.7l-.3-.8h-.3l-.1.3-.5-.7-.3.1v.6l-.7-.4-.5-1.6-1.2-1.4.1-.7-.9-.9-1.5-.6-.3-.6-2.1-.8-.4-.8-.1-1.5-.4-1.8-.4-.2-.4-.9-.1-.9-.3-1.5-1.5-1.8-1 .5-.8-1.3-.2-1.7-.4-.9-.4-1.2-.4-.3v-.9l-.8-.8-.3-.1-.6 1.4v.3l-.4 1-.1.6.2.5-.3 1.2-.2 2.2.4 1.5-.2.4-.8 2.4-.6.7-.1 1-1.4.4-1.8-.7-.4-1-1.3-.3-.9-.9-1.2-.6-.7.1-.8-.9-1.1-.6-.5-.2v-.7l1.1-1.7-.3-.3.1-.7.8-.2.3-.3-.2-.5.7-.9-.4-.5h-.9v.5l-.5-.1h-.7l-.6-.2-1.2-.3-1.4-.2-.5-.2-.8-.2-1.6-.9-1.2-.1-.2.5 1.2.4-.1.8-.7.4h-1.1l-.6-.4-.3.9-.5-.2-.6.4-.4 1.1.3.6h-.8l-.6 1.1-.6.7 1.1.8-.6.1v.3l-.6-.3-1.5-.1-.4 1h-.4l.2-.9.3-.3-1.3-1.3-1.6-.5z"/><g fill="#fff"><path d="M551.2 305.1l-.8.9-.4.4-1 .2M518.3 307.4l-2.2-.7-1.8-.2-.8-.5-.4-1.6-.4-.5-1.1-.2-1.5-.9-2.4.1-1-.5-.9-.2-.4-.2-.5-.2-.4-.7h-.5l-.3-.2-.4-.1-.7-.8v-.1l1.7-1.2.1-1.3-.3-.6-.8-.4.1-1.3 1-1v-.6l-.3-.1-1 .8-.3-.2-.1-.8-1.1-.5-1.1.4-1 .8-.8-.2.3.3-.8-.3-.4.2h-.6l-.5-.3-.7.3-1 .2-.4.5-.5-.1-.6-.6-2-.1-.9.4-.5-.2-.5.4h-.8l-.8.4-1.7.1-.4.4-.7.3-.8.4-.4.7-.7-.1-1 .2-.2.5-1 1-1.4.1-.8-.1-.5-.4-.5.2-.7-.1h-1.7l-1.7-1v-.2l-.2-.1-.2.1h-.7l-.2 1-.5 2-.7 1.1-2.4 1.5-1 .2-.4 1.1-1.1.7.2 1-1.3 1.8.2 1-.2.5.4.7v.8l-1.2 1.3-.1.5-2.1 1.4-.4.5-2.8 1-.1.5-.8.8-.5 1.3-.8.2-.5.4-.4 1.7-.5 1.5-1.4 1.6-.1.7-.7 1v.5l-.7 1.1-.4.3-.2.9-.1 1.3 1 1 .1.1.1 1.3-.3.9 1 2 .1 1.2v.2l-.7 1.8-.3.9-.1 1.3-.8 1.3-.8.4-.1.4.8.2 1 1.8.1.5-.4-.2v.7l-.2 1.3.8.4.9.8h1.1l-.5.4.4.9.5.1.2.5h.4l.4.8 1 .7.8.8.4.7.4.8.3.8v.7l.5.7.6.5.1.4 2 .9.4.7.6.2 1.9 1.3 1.4 1.4 3.1 1.2.7-.1 2.9-1.2h1.5l1.8-.4 2.6.2 1.1.5.9-.1.2-.4 1.7-.4 1.3-1 1.4-.2.5.1.3-.5 1-.4 2.2-.3 2.6.1 1.3.7.4.8.7.8v.8l1.2 1 .4-.1 1.4.1.6-.1.7-.2h1.2l.5-.8v.8l.4.1.9 1 .4-.2h.3l-.1.8.5 1.3-.2 1.5-.7 2 .2.5-.3.5.2.7h-.1l-.2 1.6-.9.5.5.7.7 1.7 3.5 3.6.5.5 1 1.6.2.3.1.9.5.5v.6l1 1.5.4 1.6.4 1.4-.4.8.4 1.7 1.2 1.5v1.6l-.7 1.5-1.2.5-1.1 2.9-.7 2.2-.2 2-.2 1 .2.5.1 1.6.5 1.6 1.1 1.3.5 1.3 1 1.7 1.1 2.3.9 1.5.1 3.3.6 1.4.2 1.6.8 3.1.8 1.8 1.3 1.4.8 1.4.8 2.6 1.1 2 .4.3.5 1.3-.2 1.3-.8.1v.6l1.2 1.5-.1.6.2.8.2-.2 2.2 1.4.8.2.7-.9.5.2 1.1-.4 1.1-.1 1.8-.4.9.2.8-.4 2.2.4.4-.2 1.1.1.5-.8.8.1 1.3-.1 1.4-1.5.9-.4.8-1.4 1.7-1.5 1.5-1.3 1.5-2.6 1.3-1.8.5-.4 1.3-2.8.2-1.7.3-1.9-.5-.1.5-1.4.6-.1.6-.5 2.2-.6 1.3-1.4v-.7l-.4.1.4-1.1.1-1.4v-1.2l-.9-2.5-.4-1-.1-1.2-.2-.4.7.1 1.5-1.5.7-.2.2-.5.5-.1.4-.5-.1-.3.5-.3.2-.3.4-.6 2.3-1.2h1.2l1.5-1.4.1-.4 1.5-1.6-.1-.5.2-.4-.1-1.4-.2-.1-.1-2.2.1-.7-.1-1.4-.1-1.3v-1.1l.2-.3-1-.8-.5-.5-.5-1.3-.4-.4-.2-.8.2-1-.3-.5.4-.8v-.4l-.8-1.1-.5-.1-.1-.4.7-1.4.1-1.4.7-.3 1.3-3.1.1-.5 1.1-.5.4-.7 1.1-.7 1.7-2.2.2-.7.5-.2.4-.8.7-.4 1.9-1.9 2.4-1.4 2.3-2.2 1.2-1.3.2-.2.8-1v-.8l.5-.2 1.2-1.4.5-1.6 1-1.7.2-1 .5-.5.9-1.6.1-1 .4-1.2.7-.1-.2-.3-.2-1.4.3-1-1.2-.3-.9.7-2.9.6-1.1.5-1.2-.1-1.5.7-1.5-.2-1.7.8-1.2-.1-1.2-1.2-.2-.8-.9-.2-.7.1.2-.4 1.1-.5.1-.4-.4-.4-.5-.9-.5-.7-.4-.2-.2-.5-.9-.7-.1-.1-1.1-1.1-.9-.4-.4-.5-.7-.1-.4-.7h-.2l.1.5-.2-.1-.2-.5-.5-.5-.5-2.2-.6-1.5-.7-.8-.8-.4-.1-.3-1.1-.7-.6-3.2v-1l-.7-2-1.3-1.2-.4-.2-.8-1-.1-1.9-.4-.5-1.6-2.9-.7-1.1-.3-1-.1-.8-.5-1.1-.2-.8-1.4-1.8-.4-1.2-.3-.8v-.5l.2-.4.5.2.5 1.1.5 1M549 306.6l-1 .1-1.3-.2-.5-.1-.8-.6h-.7l-1-.3-.9.5.4-.4-1.2.3-1.1.8-1.4.4-1-.3-.8-.1-1.3-.2-2.5-1-1.4.2-.8-.3v-.5l-2.1-.3-.4-.3-1.1-.1-.2-.8-1.8-.7-1.6.1-2 .8-.8 1.8.6 1.3-.2.9-1 .9h-1.3l-1.5-1.1"/><path d="M568 411l-.7 1 .1 2.2.7.6.2 2.8 1.3 1.5.9.2.4.5.5.1.8-.7.8-.1.4-.3.4.1.8-.5.8-2.1.8-2.4.6-2.7.5-1.3.8-2.8.7-1.5v-.7l.4-1.3.2-1.5.4-.4.2-.9-.2-1.6.3-.3.5 1.1.6-.8-.1-1.1-.5-.6v-1.6l-.6-2.1-1.2-1.1v-.4h-.2l-.7.8.2.3-.2 1.2-.3.2-.6.9-.6-.5-.2.2.2 1-.7.4.5.5-.6.5-.4-.1-.5 1v.3l-.6-.2-.9.8.6.6-.1.2-.9-.6h-.7l-.4.4-.9.2-1.2.2v1.2l-.9 1.5.2.5v1.3l.3.6.3 1.1.3.4-.6 2-.5.3-.4 1.4z"/></g><path fill="#fff" d="M331 352.8l1.4.2.9 1h.2l.1-.1.5-.2.1.3-.5.1-.5.5.2.7.5.6 1.2 1.6v.7l.3.8-.3.4v.5l.4 1-.5.1-.1.3.1.7h.5l-.2.6-.5.3-.4.8-.5.5-.9.1-.8.8.1.7-.6.1v.3l.2.5-.2.3-.8.2-.5.5-.5.1-.2.7.2.4-.2.7-.4 1.1-.2.8-.8.3.2.5v.5l.3.9-.5.5.1.3 1.2.4.7-.5.1.4.3-.1-.2 1-.7.8-1.5.8-.7.8.2 1.3.2.4.4.4.1.4-.5.4.2.5 1 .6 1.1.7.8 1.7.7.7.4 1.6 1.2 1.7 1.1 2.1.2.8 1.3 2 .5 1.1.9 1.2-.2.8.1.8 1.4 1.4 1.8 1.6 1.3.8.6.1 1 .5h.7l1.8 1.1.4.2.7.8.3.1.9.7.8 1.2-.1.1.3.8.2 1.7v.8l-.2 2 .2.7-.3 2.9-.4.2-.2.7.4.2-.2.7.1 2.9-.5 1.1.1 1.1-.2 1.1-.4 1.8-.1.3-.6 2.2-.4.6.5 1 .1.9-.8 1.2.6 4.5-.4 1.4.1.8-.3.7-.8 3.1-.8 1.2-.2 1-.2 1-.3.4-.4.3.1 1.1-.4.2-.4-.1-.1 1.2.5 2.6.1 1.1-.2 1.3-.5.7v1.4l-.3.8.2 1.7.3.8.2-.2.8.1.3-.4.5.2.3.4-.4.4.4.2s.1.9 0 1.1-.3-.2-.3-.2l-.2.4.1 1.1-.3.8-.2.2-.1.4.2.3.1.6-.4.2-.1.8.5 1 .5-.2-.4 1.2-1 .3.1.5.7.6-.7-.2-.3.5.3.4-.5.9.3.5-.8.5v.2l-.3-.1.2-.5-.5-.7-1.6-.1-.1.5.5.4-1 .8-.7.2-.4 1.4.5-.4.1-.2v.4h.4V471l.5-.2.8.5.3-.3 1.1.5-.3.4-.7 1.2.2.8 1.3.3.2.7-1.4-.5-.7.4.2.8.5.2.2.4-.7.5.4.5.2 1.4.7-.5.1 1.1-.4-.2-.4.2.1.6-.4.2v.6l-.2.3.8.4.1.5-.5.1.4.5.4-.1.2.4-.4.1-.2.3.6.9-.5.1.5 1.2-.2.2-.7-.6 1.2 1.9.1-.2-.2-.8.4.5.7-.3.3-.3-.5-.8 1 .5.2-.2-.8-1 1 .7.3.8-.2.4.3.8-.8.4.4-.5-.5.1-.2-.2-.8.1-.1 1.4-.3.8 1 .2.6.2.1.4-.4.2.8.6.5-.9h.8l.8-1.1-1-.1-.7.4-.7-.3.3-.5 2.2.2.1.2.5.4-1.1 1.3h-.8l-.6.2.6 1.1.8.1.7.4.8-.1-.1-1.6.4-.8.1-.8-.1-.4h.8l1-.5.8-.4.7-.7.6.4h1.1v-.1l-.8-1-.5-1v-.4l-.1-.7-.2-1 .1-1 .5-.9 1.2-.6-.4-.7.5.5h.5l.7-.5.1-1.7.4-1.1 2.1-1.5.1-.3 1-.5.1-.8-.1-.5.4-.8-.1-.8-.6-.2-.4.2-1.1-.4-1.4-1.8v-.9l.8-1.3.5-.7.8-.2.3-.5h.9l.6-.1-.1-.7.8-.7.1-1.4-.2-.5.2-.5.5-.8 1.1-.8v-.4l-.6-.2-.7-.4.6-.5.8.1.1.7.9.1.6-.4v-.8l-.4-.8-.5-.1-.5.4.4.3-.1.3-.8-.3.1-.3h-.6l-.3-.8.1-.9-.4-.5-.1-1.1.5-.4 1.5.5.7.5h1.4l.9-.4.6-.7-.1-.7-.2-.6.2-.8.3-.7v-1.2l-.5-.9.9.4h1.8l1.2-.3 1.6-.3 2-.6 1.8-1.1.1-.8.5-.5 1-1.9v-1.1l-.7-.1-1.4-.1v-1l.4-.5-.1-.8-.9-.4-.8-.5-.8-.6-.1-.4.1-.5v-.8l.2-.8.1 1.3.8.7.3.5 1.4-.1.7.7.6.2.2.3 1.3-.4 1 .1.8.1.8-.6.6-.4.7-.8.3-.7.5-.8 1.3-1.4.4-1.1.3-.3v-.8l.4-.6.7-.7.1-.6.6-.8.8-.5-.1 1-.6.7-.1.4-.5.3-1 .9v.3l1.6-1.2.8-1 .8-1.6.5-1.2.3-.8 1.9-1.9.2-.4.4-.3v-.7l.1-.9.1-.4-.3-.8.1-1-.1-1 .3-.6v-.3h.3l.7-.6.1-.4 1.2-1 1.3-1.1h.7l.5-.4 1-.2.7-.8 1.2-.2-.3-.5.4-.1.1.3.4-.3h1.3l.4-.4.3.4h.7l1.4-.1.2-.6.4-.5.5-.1.8-.5-.1-.3V411l1.3-1.4.3-1.4.4-.4.5-.4.3-.5.1-2.5.8-.7.1-.4-.2-.4.2-.8.3-1.6.1-.9-.1-.3v-.9l-.1-.7.1-.7.1-1.3.2-1 .4-.4.1-.3.2-.1.2.1 1-.8.9-1.6.5-1.3.8-.4 1.4-1.1.1-.3 1.5-2 .7-1.7.2-1.8-.7-2.5-.1-1.1-.6-.5-1.9-.1-1.1-.4-.1-.3-.8-.2-.2-.5-.5-.1-.2-.4-1.9-1.5-.7-.2-.6-.4-1-.2-1.8.3-1.1-.1-.5-.2-.8-.1-1.6-.9h-1l-.6.5-.4.2-.3.4-.2-.6.2-.4-.1-.4-.1-.6-.8-1-1 .5-.8.5.2-.5-.9-.4-.2-.2-.8-.2h-.4l-2.3-.4-1.4.2-.8 1.2.3.5-.6-.2-.7.4-.4.8-.4 1.3.1-1.3.1-.5-1.9.5-1.2-.2.5-.1h.6l1.9-.4.9-.5.7-2.2-1-.4-.5.1h-1.7l-.6.5-.3 1.4-.5-.1-1.2.7-.9.3-.6.6.1-.6h-.5l.8-.4.8-1 1.1-1.2.7-1 1-1.1.5-.4-.1-.6.2-.1v-.8l-.6-.5-.6-.8-.7-1.7-.2-1-.5-1-.3-.1-.4.1-.2-.6-.3.1-.4-.6-.6-.6-1-.6-1.7-.7-.5.6v-.5l-1.9-.4-.1.1h-1.2l-.8.1-1.2-.2-.5.1-.2-.5-.4-.4-.4-.4-.8-.5-.7.1-.3.3-.1.7-.1-.8.1-.3v-1l-1.6-1.6-.8-.1-.1-.5-1-.3-.1.3-.9-.1.2-.4-.2-.5v-.4l-.6-.8-1.1-.2-.8-.4h-.3l-.3.4-.3-.2v-.7l-.2-.1-.2-.2-.4-.1.2-.2.6.1 1.2-.2-.1-.2h-1.3l-1.1.1h-2.1l1 .3-.1.2h-.9l-1 .6-1.6-.1-1-.9H355l-.7.1-1 .1-.8-.3v-.8l-1.1-.8-.9-.2h-.6l-.5-1.1h-1v.3l.3.8.8-.1.1.3-1.5.3-.8.5-.8.2v1l.2.1.1.5.5.7v1.1l-.8.5h-.5v-.6l-.4-.3-.2-.8.8-1.1v-1.1l-.5-.3-.1-.7 1-.5.2-.2.4-.2v-.5l-.7-.5-.8.1-.5.4-.3.7-2.3 1.3-1.2-.2-.7.8-.2-.2-.4-.1-1.7 1.1-.2.6.3.1-.3.8v.5l-.8.2-1 1.3-.7.2v.2l.3.4-.1.9-.3-.1v-.6l-.7-.9.1-.1-1.1-1-1.6-.5-1.3 1.3z"/><g fill="#fff"><path d="M586.4 170.4l.3.7 1-.1.5.8.9-.4-.7 1.2.7.5-.6.7.6 1.4h1.3l.6.7 1.2-.1.5.4 2.5-.2.7-.8-1.3-1-1.4-1.5-.9-2.3-.3-2.4v-1.2l-.2-1.1.6-2.1.8-1.1.1-1.2.6-.7-1.1-1.1h-.8l-1-.6-1.4.6h-1l-1.4 1 .3 1.2-1.2.8-.1 1 .8.7-.3.9-.9 2.1-1 .2-.5 2.6.9 1zM590.8 156.9l-.8.7-.9.8.3.7 1.8-.5.8.5.8.1 1.2.7 1.1-1.4 1-2 .3-1.6.7-.3 1.3-2.7.3-.1.6-1.2 1.1-.3 1.5-2.2-.2-.6 1.1-.3 2.3-2.6 2.2-1.8 1.2-.5 2.7-1.9 2.7-.7 1.5-1.5 1.1-.2 1.2-2 .2-2-1.5-2-1.6-.3-3 1.8-.2 1.7-2.2 1.3-1.7.5-2.8 1.2-.2-.6-2.4-.2-.6 2.1-.2-.6-1.3 1.4-1.8.9-2.2 2.2-.2 1.3-1.5.7-1.3 1.2-.5-.3-1 .7.6.7v1.5l1 .5-1.5.4-.3.7.8.9-1.1.3.1 1.5-2.6 2.7.4 1.1zM661.8 99.3l1.6 1.4 2.5 1.3 3.5-2.1 2.9-.3.6-1.4-.6-1.8.9-2.5-2.1-2.5-1.3-3.5-1.2.2-.9 2.5-3.4 1.7-1 2.1.5 2.2zM663.9 105.7l2-2.3-4-1.7-1.3-.1.7 2.3 1.1 1-.5 1zM672.2 100.5l-3 .5-2.2 3.8-2.2 2.7 1.7.7.2 2.4 1.5 2.2 1.2-.7 4.3 3.4 3.6-1.1-1-3.8 1-1.4.5-5.4-2.4-1.6-2.6 2.7 1.3-3zM677.2 123l4.1-2.2 3.1-.2 2.8-1 1.2-2.6-1.9-3.4-1.8-2.7-1.6 1 .5-2.5-1.3-.3-1.9 1.5-1.1 5-3 6.4zM758.1 253.3l1.1 1.9-.5 1-.1 5.2-.5.7.7 1.9-.6 1.5.3 1.5-.5.8.5 2.5.4-.9.5-1.5 1.5.6.3 1.2.4-.8-.3-1.2-.7-.4-.3-.6-1.1-1.8 1.1-3.6.8-.8 1.3.3 1.2 1.8.2-.4-1-1.7-1.5-5.7-.8-3 .5-2.8-.9-2.7-.2-1.5-.9.3.5 1.4-.1 1-.3.5-.5-.2-.7.2.4 1.2-.6 2.4zM745.1 296l-1.4.2-2 .1-.4-.2-1.1.2-.3.7-.7.5-1.4 1.3-.7.2v.8l2 .2.1-.3.7-.7H742.3l1.3-.9h1.6l.2.7-.4.5.1 1.1.7.7.7-.1 1.3-1.5.5-.3-.5-.9.3-.6 1.1.5-.5.3 1.6-.2.8.1.2-.5.7-.6.1 1.2.3-.1.1-.7.5-.7h.6l.5-1 .2.2-.2.6-.1 1.2 1-.6.2-1 .7-.5-.3-.6.5-2.5h.3l.2-1.3-.3-.7.1-.8.5-.2.6.2-.1-1.4.8-.7v-2.4l-.9-1.3-.1-2.1-.9-.2-.5.7h1l-.1.6h-.9l-.3-.7-.6.2v.8l-.6.3v1.3l-.5.7.6.3-.1 1.1-.5 1.6-.5 1.5-.9.6-1.1 1.3-1.8.8-.4.4-.4-.1v-.5l.1-.4.4-.2v-.5l-1.1.5-.1.7-.2.8-1.2 1.6.2.6-1 .4zM757.1 277.1l-.8.3-1.1-.2-.1 1-1 .8v1l.6.8v1.3l.9-.8h.9l-.3-.9-1.3-.5.7-.7.8.4.7-.5 1.4.2.2.5 2.1 1 .1-.4.4-1.4 1.1-.9 1.8-.3 1-.2.1-.4-.7-.2-.3-1.2.3-1.3-.9.8-1.8-.2-1.9-1.5-1.8-2.3-.7.5.4 3.5-.8.5zM548.8 311.6l.6 1.3 1 1 .5.5h.5l.1-.8-.1-.3.7-1.2.2-1.2h.4l-.2 1.7-.5.9.1.3.9.1.6.9.2.7.7 1 1 1.4.5.4v.3l.9 1 .4 1-.2.3.8 1 .5.1 1.4 1.2.6 1.9.4.5-.2 1.3.4 1.7.8 1.3 1.9 1.3.7 1 .4 1.1.6.8.8 1.3.5.4.2.8.4.2.5 1.1v1l-.2.4.1.5-.1.5.2.4.2 1.2.8 1.7.1 1.9.8-.1.7.1 1.3-.4 1-.1 1.2-1 1.6-.1 1.4-.4.8-.7 1.7-.2 1.5-1.2 1.1-.2.7-.5 1.8-.4.9-.7.8-.2.2-1 .8-.8 2.2-.7.5-.3 1.5-.1.2-.1.5-.8.1-.5 1.9-.4.6-1.6.5-.4 1.6-.4.1-.7-.3-.6 1-1.6.5.1.4-.5.2-.1.2-.5 1.1-1 .1-.8.4-.4.1-.9-.8-.4-.6-.7-.3-.7-3.2-1.4-1.5-1.8-.1-1.1-.1-.7.4-.6.1-.7-.2-.2-.4.5-.3.8-.9.4-2 2-.3.6-.8.4-1-.1-1.4.1-.5.4-.8-.1-.2-.4-.5-.1-.2-.4-.2-.4.4-.5.1-.6-.3-.5.1-.7-.6-.9-.5.2.2.2-.1.7-.4.1-.2.8-.8-1-.1-.8.2-.4-.3-1-.9-.8-.5-.3-.2-.5-.5-.8-.5-.2-.4-1.2-.4-.7-.2-.3-.1-.9-.2-.1-.5.2-.1-.3 1.1-.6v-.4l-.4-.3.7.2.1-.3.4-.2.5-.7.4.8.8.4.3-.4.5.2.3.8.5.3.2.7.9.6.1.8.7 1.5 1.1.2 1.1.5.5.8 1 .4.5.6.8-.1.5.2.4.2 1.3-.5.5-.5 1-.4 1.2.1.7.7.2 1 .5 1 1.3.4 1.2.1 1.1.4.4-.1 1.1.2 1.1-.1 1.5.5.7.1h1l.6-.4 1.5.2.8-.4h.8l1 .3.2-.1 3.4-.2.4-.2.2.2-.2.5.7.4.4 1.2 1-.5-.7.8.3.5 1 .4h.7l-.2.4.8 1.3 1 .2 1.4-.4.6-.2-.4.5-.7.7-1.5.2-.2-.2-.4.1.2.7 1.5 1.4 1.3 1.5 1.4-.1 1-.2 1-1.3.1-1.4.5.1-.2 1 .2.3-.3.4.1.5.3.1.2.8-.4 1.1.5 3.8.2 1.4.4 1 .4 2.2.5.8.4.5-.1.4.8 1 .7 1.8.5 2.3 1.4 2.2.4.4.7 1.7.5 1.8.1.9 1.7 1.7 1-.1.5-.5.2-.7.7-.7.3.1.9-.4-.4-.4.4-.7.5-.9.6.1.3-.2-.2-.6.2-2.5.6-1 .2-1.5-.2-.6v-1.4l.1-.5-.4-1.3.4-1.1.8-.4.7.1.5-.8.9-.1.9-.4.4-1.3 2-1.4.2-.5.8-.3 2.2-2.3.4-.7.2.1 1-.4 1.2-.8.1-.4.4-.5-.1-1.2.8-.2 1.2-1 .2-.8.3.4.2.9.5-.1.8.2 1.2-.1.4-.5.5.2.8-1.1v-.5l.2-.8.7.5.8-.2.7 1.4.5 1.9.5 1 .4.7.7.4.3.6.4.1.2-.2.7.9-.1.4h-.2v.2l.8.7.2-.2.2.4.5.8.1 2.1-.5 1.5.2 1.1.2-.3.2-.2v.6l1.6.2.7-.2.1-.4.9-.4.2-.4.2.1.7-.7-.2-.8.2-.2.2.5h.4l.5 1.2.4.7.4.8v1.7l.5 1.2v.4l.2 1 .2-.2.2.2.5 2-.2.3.1 1 .2.4-.2 1-.2.7v1.6l-.1.8-.2.5-.1.8-.2 1v.8h.4l-.1-.5.2-.1.9.8-.1.7.2.1.2-.2 2 2.3.4 1.2-.2.4.2.4v.4l.3.6.1 1.1.2.8.7.6.5.7-.1.6 1.1.8h.4l.7.4.3.4 1.7.8.2-.4.5-.1.3.4h.4l-.5-.5v-.6l-.9-1-.1-1.7.1-1.4-.2-1-2.2-2.3-.5-.2-1-1.3h-.7l-1.2-.5-.5-.7.4.1-.1-.4-.1-1.2-.4-.4-.2-1-.5-.6-.7.1-.2-.9.1-1.2.6-1 .1-.8.4-.5.2-.8.3-.5.1-1.5-.1-.4.1-.3.8-.5.8.3-1.5.7-.2.1.1.1.2.7.7.1.8.5-.2-.5.5.1 1 .8.5.1.6.8.6 1.4.8-.1.1.8h.8l.6.5 1 .8-.2 1.7-.1.9.7.2.4-.8 1.7-1.1.8-.8.2-.8 1.3-.3.3-.4 1.1-.5 1.9-1.3.4-2.2-.2-2-.5-2.6-1.3-1.7.6-.7-1.4-.6-1.6-1.8-.6-1.3-1-.8-.4-.8.3-.9.1-.6 1.3-1.3v-.5l.8-.8.5-.2.3-.5.7-.4 2-.4.7.4 1.1-.1-.2.8.4 1.5h.8l.2-.5-.2-.8.3-.5 2.5-.8.5-.4h1.1l1-.7.2-.7.4.5-.1-1.4.6.4.5.3 1.6-.5 1.6-.1 1.9-.9.4-.7 1.1-.4.9-1.1.3-.4.8.1.4-1.3.8-.7.5-.2v-.8l.5-1.7.4-.2 1.2-1.6.8-1.3.9-.6.2-1.6.3-.3v-1l.3-.5-.8-.4-.5-.5-1.1-.1.9-.9 1.2-.5-.1-.9-1.4-.8-.8-.7 1.1.3 1.4.5-.8-1-.3-.5-.8-.5-1.3-3.8-1.2-.8-.8-.8.8-1.4 1.3-1 1.1-1.3 1.9-1 .8.1.7-1.3-1.1-.2-1 .2-1.3-1-1.2.2-.9 1-.7.7-1-.2-.1-.9-.8-1-1-.1-.7-1.5.5-1.2 1.7.1 1-.8v-.1l2.2-1.2 1-1.6 1.5-.3.7.5.2 1-1 .9-.4 1.3.5.3-1.3 1.1.2.4 1.7-.8.5-.9 2.2-.8.4-.2 1.3-.2.5.4 1.5.7-.5 1.9-.4.3-.2 1 1.3.9.8-.3 1.2.5.5.7-.1.6.2.4-.6-.1-.6.4.8 2.3-.6 1.6.2.8-.3.7.7.4 1-.9.8-.1.6-.5.9.1.5-.5.8.1.9-1v-1l-.3-.7.1-1.6-1.8-3.8-.2-.4-1.7-1.4.4-1.3 1.7-1 .5-.6 1.3-.9.4-.2.1-1.9 1.5-1.7 1.2-.8 1.4-1.4h.6l.3.8 1.3.5 2-.9 1.8-1.1 2.2-2.8 1.1-1.6 1.8-2.2 2.3-3.9.2-.8 2.2-2.6.2-2.2.7-1V259l-.2-1.9.7-2.5.8-.5.5-1.3-.7-1 .3-1.1-.8-1 .9.2-.1-.8-2-1.6-1-1.6-.8.3-1.2-.2.3.8-.8 1.2v-.9l-.8.8-1.6.1.8-1-.8-.2-1.2.5.3-1-.2-1.5-1.5.2-.5-.2-.8-.2-.1-.6 2-1.4.2-.7 2.3-1.7 1-1.9 1.4-1.4 2.2-2.7.9-.2.6-1.8 1.3-.8 1.4-1.8 1.3-1.1 5-.2h.8l.2.7.7.1.3-1 2.5.7 1.2-.3 1.4.4-.2-.8.8-1.2 3.1 1 .5-.2 1.2 1 1.1.5-2.3.3.4.9 1.5-.1.1-.2 1.3.3.9-1 .9-.1.1.4 2.3-.4.1-.4-.8-.9-1.1.2.2-1.4.6-.2.3-1.1 2.3-1.9.1-.8 1.4-1.3.1-.9 1.6-1 3-.5 1 .8 1.5-1-.3 1.3-.8.7.2 1.6h.8l-.2 1.5.8-.2 1.4-2.2 1.6-1.3.2-.3 1.1.4.8-.5-.6-.4.2-1.7.4-1.5 2.5-.4 1.3.8-1.1.2-1.1.5-.1 2-.8 1.3.3.5-.7 1.3.2.4-1.2.5-1.9 1.1-.1 1-.8.4-.8 1.2-1 .5-.9 1-.8 1.6-2.9 3.2-1.1.3-1.1.7-.3 2.2-1.9 2.2-.7 4.3.4 3.8 1.1 4.7.4 2.5.2 3 1.8-1.7 1.8-2.5.1-2.6.5.2 2.2-.5-.2-2 1.4-2.5 1.6.2 1.3-1.1-.6-1.8.4-2.3.5-1.2 1.5-.3.1-.7-.8-.3v-1.9l.9-.5.2-1.1-1.3-.6-.7.6-.5-.5.4-1.6 1.1-1.9.6-1.1 1-2.6 1.4-.5.9.8.8-.3.2-.9 1.7-.8v1.7l1.5-1.7 3-.9 1.9.6.8 1.6 1 .5.1-1.8 2.3-1.4.8-.8 2.5-2.3 2-1.1.4-.4 2.9-1.7 1.4-.8 3.2.5.4.8.3-.5 1-1.4-.3-1-1.4-2.2v-2.3l-.9-1.3-1.3-.4-.4-1.1.5-.6 1.3.5 2.3-.2.2-.8 2.3-1.9.5-1.4-1-1V201l1.2-.4 1.1-.8.1.8-.7.5.5 1.3.3.2-.2 1 1.9.4.7-.9 2.2.6.1 2.2 1.1 1.1 1.2-.2 1.1 1.6 2 .9 1.5-.7v-1.4l-.8-.3 1.1-1.2 1.2-3.8 1 .2 1.5.1-.6-1.6 1.2 1 .7-1.3 1.2-.7-1.6-1-1.8-2-.4-.9-2.2-.3-.9-.5h-1.7l.6 3.1-.2.4-1.5-2.2.3-1.7-1.1-2.2-1.4-1.3-.1.8-1-.8-2-2.5-2-1.8-3.4-2.2-1.1-1.4-2.5-.5-2.2-1.5-1.4-.9-5.8-.2-5-1.2-.2 1.8-.3.7 1.4 2.9-.9 1.5-1.6.2-.6-1-1.9-1-.4-1.6-.5-1.2-2.2 1-4.5-.3-1.1-.8H797l-1.5 1.7.2 2.6-1.5 1.4.1-1.8-1.2-1.7-.5-2-.8-1.1.5-2-.2-2.2-1.8-2-2.9-.6-2.6.4-3.1.4-2.9.3-1.2-.6.2-1.4-1.4-1.1-1.8.2-1.2-1.6-1.4-.8 1.4-1-.7-1.4-.8.1-2.2-1.7-1.8.3-1 2.2-2.3 2.3-1-.7 1.5-1.4 1.5-1.4.1-.7-2 .6-2.5.3.6-1.6h3.4l-.5-.5-2.9-.9-5.2-.6-.5-.4H756l.3 1.5-.8 2-1.7.7.5 3.8h-.9l-1.7 1.1-1.4.5-1.1-.8-1.7-.8-1-.7h-1.7l-.4 1.2-2.2-.2-1.7-2.8h-.4l-1.1 3.4.8 1-1 .5-1.4 2-2.5-1.9-1.1-2.6-.8-.9-1.2-2.9 1.4 1.6 1-1.7-2.8-1 2.5.5.4-.9-3.1-1.2h2.5l-.1-2.6-2.9.5 2.2-1.4-1.8-2.2-1.3-.4-1.3 1.7-.1-1.6-2-.4-2.8-1.6-1 .7v2.2l.8 2.6 2.8.4-.1 2 1.7 2.8-2.2-2.3-2.9-1-.5-.7-2.3-.7-3.4-.2 2.6 1.4-.5.3-4.9-2.8-.2-1.6.7-.8-2.6-.4-3.2-.9-4 1.2-.1 1-.3 2.9-.7-2.5.4-1.5-.6-1.7-2.8.4-.7-.9.2-1.4-1.1.5h-1.8l-.9 1v1l2.2-.9.4.7-3.1 1.7-3.2 1.5-2.2.1-.4.7.6 1-1 .2-5.2 2.9 4.2-2.8 1.2-2.3 1.1-.8.8-1.4 2.2-.8.9-1.8 1.8-1.3V152l1.3-.6 4-3.1 2.2-2.9.3-.4-.1-1.3-2.2-2.6 1.9 1.2.4-1.8-1-2-1.1-.4-1.1-2.5-2.9-2.2-4.6.2-1.1 2-2.6-.1 2-2.6-.3-1.4-3.2-.9-2.2.6 2.9-3.1-.6-1.5-2.8-1.2-2.6.9-3.7 6.2.3 2.5 2.2 1.8-2.8-1.2-3.8.3 1.5 1.6.3 1.7-.8 3.1 1.4 2.2.8 2.3v1.1l1.1 1.7h3.5l2.6-1.6-.7-.8v-1.1l1.5.4.2.8.5 1-2.2 1.1-4.1 1.1-.2 1.3-1.2-.9v3.1l-1.1-2.3h-1.4l.8-1.8-.4-4.8-1.8-2.5.7-3.5-1.7-1.3-1.2.9-2.3.7h-1.1l-.2-.5-2.2-.3-3.8.8.1.7 1.9-.1-3.5 1.5-5.4 2-2.8 2.9-1-.2-.5.4.9.6-1.7 1.6-1-.4-.6 1.2.8.3.8 1.1h-.6l-.7.5.1.8 1.1.2.3 1.1-.3.8.9.1.1 1.3-.5-.8-2 .2-.3.5h-1.3l-1.9.6-2.2.1-1.7-.2-2.2.9-.7 1.7 1.1 2.3-.4 2 .9 1.8 1.6.3.4 1.1.6 1.1 1.1.5.9 1.6-.7.6-.3 2.6.6.5.5 2.8-1.2.9v1.1l.9.5 1.2 2.6-.5.2-1.4-2.3-.9-.9-.1-1.5-.6-.1-.3 1-.4-1.5.7-1.5.2-3.2 1.1-.5.1-1-.3-1.1-2.6.1-1.4-1.8-2.8-2h-2.3l-1.5 1.4 1 .6-.4 1.2-1.8-1.1-1.7.3.6 2.6 3.1 1.4.7 1.6-4.3-1.4-.9-.7-.3-2.9.5-2.9-.9-3.2-.5.2.4 2-.3 1.6-3.1 2.8-.4 1.7 1.1 1.8 1.1 4.5-1.1 2.3.3 5.1 1.1.3 2.8-.9 3.2 2 .7 3.4-.4 2.3.8.8-1.4-.4-.6-4.3-1.4-2.8-3.8 1.7-.3 2 1.1 3.1-1.7 1.7-.2 2.2-2.6 1.7-.2 1.5-5.2-1.1-.9-.6-2.6.5 1.4-1 2.5-.3 1.2.4 3.1-1.5.7-1.1.6-1.6.8-.6-.1-2.3.9-2.3-1.8-1.8.2-3.4-.5-4.7.6-.4-.3-3.4-.4-1.6-1.2-1.8.8-1.2 1-3.4-.3-2.3-1.4-.8-.4-.5-2.6.2-1.5-.6-1.2 2v.7l-.6 3.2-.9 2.8-1.7 1.3-.8 1.3-.1 2.1 1.3.2-.1 1.6-.3.5-.1 1.5-.4.4-.4 1 .4 1.4.6-.4 1.6 1 1.1 2.6.7.4-.7 2.3-.3 1-.4-.4-2.4-2.5-1.3-1-1.4-.8-1.8-.4-1.8-1.5-2.2-.8-2.5-.4-1.6-.5-.2 1-.5.3.9 2.9-.7 1.7-1.3.4.1 1-.5.6-1-.2-.1-1 .5-.7-.5-1.4-1.5.5-.3.4-1.2.2-.1.9-.6.2-.4-.2-2-.1-1.7 1-.5 1.3-.6-.2-1.1.7.1.8-1.5 1.3-1.5 1.1-.4 1v-1.2l.9-.8-.1-.8 1.1-1.9 1.3-.8-.1-.4.2-.6-.2-1.6.5-.5-1.3.5-.8.8-.4-.1-.9.6.4.8-.6.1-.7-.4-.8.5-2.4 1.5-2.8 1.6-.2.8-1.4.4-.6 2.6-.6 1-1.4.5-1.1-.4-1.5-2.4v-1.2l2.8-1.3-.6-1.4-1-1.7-3.3-.1-1.7-1.1-.4.3 1.9 1.5-.1 4.2-.2 1.8 1.3.8-.1 2.3-.5 1.7.2 1.9-.8-1.4-.5-.7-1.5-1.1-.9-.4-1.8 2.4-1 .1-2.2 2 .8 2.5.5.2.7 1.7 2.2 1.8-.4.3-1.7-1.4-1.5-.4-.8-.2-2.2-.7-1 .5.1-.8-.5-.4-1.4-1.1-.5-.1v.8l-.6.8 1.1 1.9 1.3.1.7 2-.4.1-1 .3-2.1-.7-1.1-1.3-.5.2-1.3-.8.3-.7-.1-1.1-.8-2.1.1-.4.1-1.8.4-.8-.8-1-1.6-1-.8-.9-1.5-2.2-.8-.6 1.3-.1.5 1.2 1.7.8 1.1.4.4.4 1.7.5 1.7.5h1.3l1.7.8 2 .1 2.5-1 .4-.7 1.5-2.8.1-.8-.5-.2-.1-2.2-1.1-.5-.3-.4-.8-1.1-.2-.1-1.3-.5-.7-.8-.5-.1-1.5-1.6-1.3-1.1-1.3-1.3-1-.1-1-.7-.5.3-.5-.3-2.1-.2-.5 1.1-.4-.2.1-.8-.6-.9-1.9-.8.1-.4 1.2.4.6-.8-2-1.3-.1.8-.5.1-.2.7-.7.5.2-.5-1.1-.2-.8-.2-.4.7-.4-.7.1-.5-.8-.1-.2-.6-1.6-.5.1-.4 2.6.5 1.3-1 .7-.2-.4-1.1-.9-.4-.2-.3-1.3-.5-.4-.5-1-.2-.7 1.3-.2.9-.4.8-.1-1.8-.2-.5.8-1.2-.8-.8-.8-.1-.4 1.4-.4.5-.7 1.6-.5.2.2-2 .1-.3-.4-.7-1.1 2.2-1.4 2.2-.4.4.1-.8v-.8l1.1-2.2-1-.6-.8.3-.5.8-.3 1.4-.8.1-1.3 1.6-.2 1.1-.5-.9-1-.1-1.1-.5-1 .5 1.1.8.1 1.5-1.1-1.3-.4.1-.3.8-.3-.3-.8.7.3 1.3-.5.1-.3-.8.2-1.4-.8.4-.5 2-.2-1.4-1 .1-.2.5.3 1.5-.7-.8-.4.2v.9l-.9-.1-.1 1-.9.5-1.1 1.1-1 1.8h1.7l.1.5h-.9l-1.4.5.1 1.3-.6-.5-1.1 1.2.1.9-.4.4.5.7-1.1-.4-.6.5v.8l1.1.4-.3.3-1.2.2-.3.6-.9.5v.7l-.8 1.1.3 1.4-1 .5.2 1-.6.4v.8l-.4.5.6 1.1-.8.7-.4-.1-.9.5-.1.4-.1 1-.4.8-1.2.1-1.1 2.2-.8 1.3.8 1 2.2-1.4.2.2-1.5 1.2-1.1.4-.6-.4-.9.4-1.4.9-1.7.7.2.6-1.2.3.4 1-.7.2-.3 1-1.1.6-.5 1.2-.8.3-.7.7.7.9-.6.2.2 1 2-.3 1 .2 1.5-.4.1.3-1.4.4-.9-.2-1.5.2-1 .1.5.9.1.8.3.4-.7.2.1.8h1.1l.8-.8.8-.6.5.2-1.4 1.1-.4 1.6-.5.8.1.8.7-.5.1.7-.4.5.1.7-.8.2-.3.8.4.5 1.9 1.5 1.7.2 2.2-1.4 1.4-1.7v1.3l.6-.3.5.1 1.5-.9v-.8l.1-.3.2.2.4 2-.4.6v1.5l.7-.8.1-.5.4.2-.4.8.4 1.3.9 1.9 1.4 1.9-.3.6.3.4-.5.3.8 1.4-.4 1.3 1.8-.2 1 .1-.1-1.1.4-1 .8-.7 2 .2.7-2.3.2-1.5.4-1.4-.1-2.7.7-.9 1.5-1 1.1-.5.3-.9-2.3.2-.4-.4-1-.1v-.3l1.1-.1 1.1.3 1.7-.4.3-.5.2-1.4-.8-.6-.5-.7-1.6-1-.4-.8V218l.2-.3v-1l.5-1.1-.1-.6.7-.7.2-.9.6-.4 1-1.6.8-.4.5-.4.8-.1.2-.7.4-.2 1.1-1 .5-1 .8-1.3-.5-.9-.3-1.1.9-.6.3-.6-.2-.3-.5-.4.8-.7.8-.8.3-1 1.1.1.6-.3 1.3.1.3-.1.9.1.9 1v.4l.7.6-.1.5.2 1.1-.3.8h.8l-1 .1-.8 1.7-.8-.6-.3.2.6 1.1-1.2 1.9-1.8 1.6-.3 1-1.2.5-.1.5-.7.8-.4.7.2 1.3.4.4-.2.8.5 1 .2 1.1-.2.3.2 1.3-.2.6.1 1.7.9.1.5.5.8.4.8.1-.3.5v.8l1 .1.4-.1.4.1 1-.2h.8l.2-.5 1-.1 1.1-.6 1.1-.1 1.2-.5h.9l.8-.3h.3l.4 1.5.1.8 1-1.1.8.1.3.3.3-.1 1.1.3.5.4.2.3-1.6.1h-.7l-.7.5-1 .2h-.5l.3.7-.4.5-1.7-.1-.5-.3-1.3-.3h-1.1l-.2.2-2.2.5-.7.4-.9.5.2 1.4.5.2-.5.2v.4l.3.3.2.7h.3l.5.4.2-.2.3.4-.2.3v3.2l-.7.7-.8.2-.6-.3-.3-.8-.9-.9-.2-.5-.7.2-.7.2-1 1.1.2.9-.8 1.3-.1 1 .3.8.1 1 .5.5-.1 1.3-.3 1.1-.8-.2.6-.8.2-1.1-.1-.5h-.2l.1.5-.2 1-.9.9-.9.1-.2.7h.9v.4h-.8l-.3.6-.8.7-.1-.4 1-.8-.2-.2-1 .8-.6.2-.6-.4v-.8l.2-.3-.8-.2-2 .2-.7.6-1 .2-1 1-1.7.5-.5.5-.7.1.2.5-.2.3-1.3-.6-.1-.5-.8-.3-.7-.7H509l-.5.5-.6.1-.8.7-1.1.2-.1-.4.7-.5-.2-.5-.8.1-1.1-.5-.1-.6-.7-.5.1-.4-.3-.3.4-1.3.1-.8.5-.3.4-.3.2-.4-.2-.4.2-.4h.8l.3-.5-.1-.5-.9-.1-.5.1.2-.5-.1-1.1-.8-.3-.2.2-1.2-.2-.1.8-.5-.2-.5.3v.4l-.5-.2-.4-.4-.2.4.1 1.8.1.2-.1.2.1 1.3.5.3.5.4.1 1.7-.4.1-.2-.4-.2.4.2.4.1-.3h.5l.1.2.4.4.1.3-.5.2.2.3-.1.5.2.3-.2.4 1.3.5.2.5-.8-.4-1.1-.1-.2.4-.1.8-.4.1-.3-.8h-1.4l-.5.4-.1.4.4.2-.1.4-.8-.7-.8-.1-1 .3h-.2l-.4.2-.4 1.1.3.2v.7l-.6.2-.2-.4.4-.4-.5-.4-.8.1-.1 1.5-.8 1.4-.2.4-.5.4v.2l.7-.2.1-.2.8.1-1.1.4-.4.2h-.5l-.6.5-1.3 1.1-2 .6.1.8v1l-1.2 1.1-1.3.5-.4.6.2.2-.7.5-1.1-.2-.8.1-.3-.8h-.6l-.7-.2.7 1.3.1 1.5.2.7-.8-.3-.5.2-.4-.1-.7.2-.7-.7-.9-.1-.4.3-1.6.2-.5.7.8.2-.5.2v.2l.5.2-.7.2.4.4.1.4.9-.2.4.2 1.3.7.8.1.4.2.1.5 1 .2-.4.1.2.5-.1.4.8 1.1 1 .6.4.6-.3.3.1.5.7.9v.5l-.5-.7-.2 2-.7 2.9-.5.6-1 .2-1.3-.2h-.9l-.5-.2-1.6.2-2.6-.5-2.6.2-1.1-.5-1 .5v.5l-1.3.2-.8.9 1.1 1.5-.1.9.3 1.9-.2 2.4-.5 1.7-.4.5-.2 1-.2.4.5.1.7-.4-.6.7v.3h.9l-.4 1.3.1 1.3-.2.8 1-.2 1.5.1.5-.2 1.3.2.2.3.4.5.4 1.5 1.2.4 1-1 .8-.1.4-.4h2.7l.7.1.5-.2.6-.1.5-1.4.5-.5 1.4-.1.4-1.6 1.3-1.2-.8-1-.2-1 1.8-2.5.5-.9 2.2-.8.8-.8 1.2-.6.2-.5-.1-.4.2-.4-.2-.4-.1-1 .2-.8.9-.4.7-.5 1.4.5.5-.2 1.2.7 1.2.1.8-.3.6-.8 1.5-.8.7-.1.8-1.3 1.5.1.8.6 1.1.2.2 1.1.5 1.5-.1.4.5.2-.1.4.5.1.1.4.7.2 1.3 1.5 1.5 1.2.9.2.8-.1.5.8.7.4-.1.3.6.1.8 1.3 1 .1.5 1.4.7.9-.1.7-.6.4-.1.6-.3.4-.1.5.5.5 1.3-1.3v.6l.5-.2h.5l-.1-1.2-1-1.2.2-.6.3-.8 1-.1.2.4.8.1.3.8.7.2.2-.8-1-1-.5-.2-1.1-1-2.2-.8-.3-.7.4-.5-.4-.3-1.3.2-1.8-1.1-1-1.9-.2-1-2.6-2.3-.2-1 .2-.5-.2-1 1.8-.9h.8l.1.4-.4.4.2.9.5.8.6-.8v-.8h.4l.2.2.7.8.1 1.1.2.1v.6l1.3 1.3.4.5.4.3h1l1 .8.8.3v.1l-.9-.1v.1l.8.3.4.3.5.1 1.1 1 1.5 1.3.4.4-.1.5.1 1.7-.3.3.2.9.4.6.5.3.2.6.4.5.3.6.8.6.7.2-.5.3.1.3.3.3.4.7h1l.8-.1.9.1 1.2.5-.2.4h.8l.2.3 1 .5-.2-1.2-.8-.6-.6-.2-.1-1.5-1.1-.3-.1-.3h.7l.2-.4-.2-.6.2-.1.6.5.1-.3-.8-.8.1-.3-.7-.8v-.9l.4-.4.4.1v.5l.4.4.2.1.1.4.6.3.1-.2-.6-.5.2-.2h.2l.3.4.3-.1-.4-.4v-.2h.4l.6.5.2-.2-.6-.6-.3-.2-.2-.6.2-.2.6.2.3-.4h1.1l.3-.2.8.2.6.3.6.2.2.5 1-.4v.2l-1.1.8.2.5 1.2-1.1 1.1-.7.3-.4 1.5-.2.3.2h1.1l.6.5.8.1-1.4.4.1.2-1.7.5-.5-.3-.3.1-.5.2-.5-.2-1.1.3-.8 1.1-.2 1.1h.5l.5-.2.4.1-.6.4.5.5.1.4.2.3-.2.4.5.5-1.1.2-.1.4.4.1.2-.1.8.8.1.3-.3.2.3.6.4.1.1.2-.4.2-.1.5.5-.3h1.4l-.5.3-.2.3-1 .1.1.2h.8l.1.2.6-.1.2-.4.8.2.4-.2.2.5 1 .7 1.5-.2.6-.6-.1-.5.9-.4 1.9 1 1 .8 1.2-.1 1.1-.1.2-.4.5-.7 1-.4.8.4.8.1.8-.8.4.5-.7.9.2.7-.4.8.3.7-.1.7.1 1-.6.8-.2.7-.5 1-.4 1-.5.8-.1 1-.3.7-.2.4m15.5 38.5l.2.2-.1-.5h-.1v.3zm.2-1h-.2l-.1.4h.3v-.4zm-4.8-2.8v-.3h-.6v.1l.6.2zm-9 71.9l.1.5.2-.1-.1-.4h-.2zm-48.9-182.2zm1-1.3l-.6.1-.1-.5.4-1.1.3.5v1zm26.6 4.3l-.2-.4.2-.1.2.3-.2.2zm32.2 50.9l-.8.3-.5.3h-.2l-2.2-.1-1.6.4-1.3-.1h-.4l-1.3-.7-.7-.1-.6-.8-1.3-.2-.5-.8-.8.4-2.8-.2-1.2.6-2.6 1.3-.2.5-1.4-.1-1.1.1-1.3-.1-.2-.1.2-.5-.6-.1-1.1-.8-.4-1.4-.5-.9-.4-.2.7-.7.2-.8.6-.8h.6l.3-1v-1.6l.4-.5-.3-.4.4-.5-.2-.1.2-.3.3.1.1.3-.4.7.7-.5.7-.4v-1l-.1-.6.1-.5.5-.2.2-.3.6-.2.3-.7.4-.4.2-.8 1.1-.2.4-.2.2.5.8.1.1.3-.8.4 1 .1.5.4.8-.2h.7l.7-.1.3.7-1.3.3-1 1.1.4.3.4-.1.8.5.5.4-.2 1-.3.3.7.2.5.3 1.5-1.3.8-.1v-.2l.4-.1.3-.5h.6l.5.2.6-.2.1-.6.3-.4-1.1.1-.6.2-.8-.8-.5-.8-.2.1.7 1.1.4.5-.7-.1-.2-.6-1-.5-1.3-.4-.3-.5.2-.1 1.5.5 1-.6.2-.1.5-.3.8-.5.7.2.4-.5h.7l.5-.4.6-.2.7-.5h.8l.5-.2 1-.1.7-.2.1.3.1.1-1.9.8.2.3-1 .2.3.8 1.1.8-.8.1-.2.2-.6.4-.7 1.1-.1.3-1.2.1v.4l.5.1.8 1.4 1 .1.4.3 1.4.6 1.8 1.7.7.7.5.5 1.2.3.8 1.3.2 1 .2.9-2.1 1.5zm24.2 10.3l-.2-.2-1.7.3-2.1.5-2-.9-1-1-1.4-.3-.7-1-.2-1.2.4-1 .2-1 .2-.5.2-.8.6-1.1 1 .1-.2-.4-.7-.2-.8-1.2-.7-1.5-1.1-.9-.8-.9-.2-1.1-.8-.9.2-2-.4.4-.2-.7-.4-1.1-.5.2-.4-.7 1-1.5.2-1 .7-.5.3-.4.5-.2.6-.7.9-.4.3-.6 1-.4h1.3l.8-.9.7-.3 1.3.1.4.1 1.1-.3.4.3.8.1.8 1.4-.9 2.5.2 1.1-.8-.8-1.1.2-.8.5-.5-.2-.4.5v1.2l-1.5-.1-.5.7 1.1.7.9 1.7.1.8.8.8 1.7.4v.7l-.6.6.2.6.1 1.3.6.5.2.8-.5 1.4.5 1.8.2-.4 1.1.3-.4.9.4.8.6.2-.3 1.7.4 2.2.2.8-.4.1zM473.7 235.2l-.1.6.7.2-.3 1.1-.6 1.1.4.8.9-.7-.2.7-.4.5v2.1l-.5.8v.7h.5l.4-1.9-.1-.7.4.3.5-.3.3.2-.3.3v.7l.4.4-.4 1.1-.2.9-.3.1v.3l.6.5-.1-.3.4-.1.3.4h.4v-.5l.3.2 1.1-.4.4-.3.7.2-.6.3-.5.6.3 1.1.5.3.1.3h.4l.4.5-.5.3v1.4l-.2.5h-1.4l-.7.5v.3l-.8.4-.4.4h.5l.8-.3.4 1-.3.8-1 .9-.8.3-.3.4.6.7.7-.4h.6l-.3.4.8.1.3-.1.9.6 1.4-.8v.5l-.6.4-.1.5-2.3-.1-.5.6-.2 1.1-.7.2-.3.7-1.3.6.4.5.3-.2.6.3.2-.5.4-.3.2-.4h.6l1.6.2.2-.9 1.4-.3.5.4 1.1-.1.1-.4.8-.2 1.5.1.2-.1h1.3l1.3-.4.3-.4.8-.2.1-.8-.9.1-.8-.1.2-.3.4-.7-.2-.2.9-.3.2-.5.5-.2.4-1.3-.8-1.4h-1.9l-.1.4h-.5l-.2-.2.5-.9-.2-.9-.9-.7.9.1-.7-1.2-.1-.4-1.2-1.5-.6-.2-.1-.4-.4-.4-.4-1.9v-.3l-.4-.4-.3-.5-.8-.5-.2-.2-.6-.1-.5.3-.9-.3.7-.2.3-.2.6-.3-.3-.6 1-1.2.3-.7.2-1.1.5-.3-.2-1h-.9l-1.1-.1h-.8l-1.7.5v-.3l-.3-.1.9-.5-.4-.1 1.9-2.1-.1-.9-.7.1-.8.2-.7.2-1.1-.3-.5.4v.7l-.5.8.1.7-.8.3zM465.2 254.3l.6-.1-.3.4h1l-.3.4.3.1.6.1h.6l1-.8.1-.1 1.1-.4 1.5-.8h1.2l-.2-.6.7-1.6-.3-1.7.1-.7-.4-.5.1-.4.6-.2.2-.4.2-.3.5-.4-.1-1-.3-.2-.5-.9-.3-.7-1.2-.1-.6.1-.3-.3-.3.3-.4-.3-1.6.7v.6l-.5.5.8.3v.2l-.6.4v.6l-.7-.2-.3.2-.4-.2-.7.1-.3.4.2.5-.5.2.3.5h.4l-1 1 .3.4.8.2.1.2h1.2l.1.3-.8.2-.2.7-.6.8 1.5-.2v.2l-1.3.4-.4.8-.8-.2-.1.4.6.3z"/></g></g><g><g fill="#fff" stroke="#0079AF" stroke-width=".101" stroke-miterlimit="10"><path d="M267 291l1.3-10.3 1.8.2 3.1.3 1.7.2 3 .2 1.7.2 1.9.1.1.1v2.5l-.4 7.8-2-.1-2.3-.1-3.6-.3-3-.3-3.3-.5M253.4 300.3l.1-.1h.2v.1h.2v-.2h.1l.1-.3-.1-.2-.1-.1-.2-.1V299.1l.1-.2-.1-.1.1-.2.1-.1.3-.4.1-.3.1-.1v-.4l.1-.3h.1l.1-.2.6-.3.2-.2-.2-.1-.3-.4v-.1l-.1-.2v-.4l-.2-.3v-.4l.1-.3.1-.1v-1l.1-.2-.1-.3v-.2l.2-.1-.2-.4.1-.2.2-.1h.5l.2.3.1.1h.1l.2-.1.2-.3.3-2 1.9.3 2.8.5 2.6.4 2.9.3-1.9 14.6v.1l-1.2-.2-3.2-.4-2.8-1.6-4.2-2.5-.6-.3.1-.1.2-.3M258.7 262l.1-.2v-.2l-.1-.3v-.1l-.3-.5.5-2.4v-.1l2.5.5 4.4.8 3.8.5 2.6.3 2.6.3 3.3.3 1.2.1-.5 7.8-.2 2.3v.2l-2.4-.2-3.6-.4-3.3-.4-3.3-.4-.1.1-.1 1.2-.2-.2-.1-.2-.1-.3-.2-.1-.3.4v.1l-.4-.1-.1.1-.2-.2h-.3l-.4-.1-.2.2h-.2l-.2-.1-.2-.1-.2.1-.1.3-.2-.2-.1-.2v-.1l-.1-.2.1-.1-.1-.4-.2-.1-.1.1-.2-.2v-.1l.1-.3-.1-.2v-.2l-.1-.1-.2-.3v-.8l-.2-.2v-.1l-.7.3-.1.1-.2-.2-.2-.1.1-.2.1-.3-.1-.1.1-.1h.2V265.8l.1-.2.1-.1.1-.3.2-.6-.2-.1-.2.1-.1-.1v-.2h-.1l-.2-.1-.1-.2v-.2l-.1-.2-.2-.3-.1-.2v-.1l-.1-.2-.3-.1v-.2l-.3-.3h.1l-.1-.2M264.7 277.6l1.1-6.4.1-1.2.1-.1 3.3.4 3.3.4 3.6.4 2.4.2-.4 5.1-.3 5.2-3-.2-1.7-.2-3.1-.3-1.8-.2-4-.5.4-2.6M270.7 305.1l-.1-.2-.1-.3 1.6.1 2.1.2 1.9.2h2l.1-.1.2-2.7.2-2.3.4-6.3v-.2h.1l2.8.2h3l.1.1.3.1-.2 4.7-.1.3h.3l.1.1.3.3.1.1.2-.1.1.1h.2l.1-.3.1.2.1.1.2.1V299.8h.2v.1l.2-.1.1.1.4.2.2-.1h.1l.1.1.2.1h.1l.2-.1h.5V300.4h.2l.1.1v.2l.1.1.2-.1.3-.2h.1l.1.2h.1l.1.2h.2l.2-.2.2.1V301.1h.2v-.3l.2-.1v-.1h.2l.2.2h.1l.2-.1h.1l.1.2.2.1h.2l.1.2.1-.2h.1l.3-.2h.1l.2-.1.1.1h.3l.1-.1.3-.1.2.1H294.9l.2-.2h.1l.4.3.4.2.1.1.2.1.5.1v.1l.3.1.1-.1.5.1.1 1.4.1 2.6.2.3.1.1.2.3-.1.3.2.1.1.2v.1l.1.1v.2l.2.4h.1v.1l.1.2-.1.1v.5l-.1.2v.2l-.1.2-.1.1v.4l-.1.1.1.3.1.4-.1.1-.1.2-.2.2-.2.3.3.3h-.6l-.5.3-.4.3-.2.1h-.2l-.2.2.1-.2.3-.2.3-.1h-.4l-.3.1.1-.4v-.2l-.1-.1-.2.2-.1.1-.3-.1h-.1l.1.3v.1l.2.1v.3h.2l-.1.2-.1.1-.2.1-.3.3v.3l-.4.3-.1.1-.2.1-.4.2h-.3l-.3.2v.1l.2-.1h.2l-.2.1-.4.1-.5.3v-.1l.4-.1v-.2l-.3.1.1-.1h-.2l-.1-.1-.1.1-.1-.1-.2-.2.2.4h-.2l-.3-.2v-.1h-.2l.2.4h.2l-.1.2h.1l.2.1v.1l-.6.3-.1-.1-.2-.4v.6l-.2.2-.1.1.1-.2v-.1l-.1.1-.2.2v-.2l-.2.1h-.1v.1l-.1.1.1.2.2-.2h.1v.1l-.1.2-.3.4-.2-.1h-.4l-.1.1h.2v.1l.2.2.1.2-.4.8-.2.1.2-.2-.2-.1-.1.1h-.1l-.1-.1-.2-.2.1.2.1.1v.2l.2.1.3-.1v.5l-.1.1h-.2v.2l.2.2-.2-.1v.2l.2.1.1.8v.1l.3.6v.3l.2.2h-.2l.1.2.2-.2-.1.2.2-.2v.3h-.5v.2h-.2l-.1-.1-.4-.3-.1-.1H288.5l-.2-.1-.3-.3h-.1l-.2-.1h-.2l-.1-.1-.1-.1-.1-.1h-.2l-.1-.1h-.4v-.2l-.1-.2-.1-.3-.2-.5v-.2l-.3-.3v-.1l-.1-.2.1-.2v-.1l-.2-.2.1-.1v-.2l-.1-.1V316.9l-.2-.1-.2-.1-.3-.4-.1-.2-.1-.2-.1-.1-.1-.1-.2-.3h-.1l-.2-.2-.1-.3-.1-.4-.1-.2-.1-.1-.1-.2v-.2l-.3-.4-.1-.4-.1-.1-.2-.4-.4-.3-.1-.2-.1-.1-.2-.1v-.2l-.2.1v-.2l-.2-.1v-.2l-.2-.1h-.1l-.3.1-.4-.2h-.6l-.3-.1h-.1l-.1.1h-.4l-.1.1h-.2l-.1.1-.1.2-.3.7-.1.1v.1l-.1.1-.1.1-.2.2-.1.1v.2h-.3l-.2-.1v-.1h-.2l-.2-.1-.1-.2-.4-.2-.1-.1-.3-.1-.2-.1-.4-.3-.1-.2-.2-.1-.1-.1-.2-.2-.4-.8v-.3l.1-.2v-.1l-.1-.3-.2-.2v-.1l-.1-.4-.1-.2-.1-.1v-.1l-.2-.2-.3-.2h-.2l-.1-.2-.4-.4v-.1l-.3-.3-.3-.5-.2-.1-.3-.2-.2-.1-.2-.3V305.4l-.2-.2h-.1l-.1-.1M312.5 308.4v-.1l.1-.2-.2-.2-.2-.1-.2-.3.1-.2.1-.1 2-.3 3.5-.4.2.4v.1l.2.2 5.6-.4.2.1.1.4h.1l.3-.1v-.4l-.1-.2-.1-.1v-.4h.5l.3.1H325.6l-.1.4-.1-.2.1.2.2.2.1.1v.4l.2.3v.2l.3.6.2.5.7.9.8 1.2.4.2.1.3.1.1-.2.2.1.3.1.3.1.2.3.4-.1-.1-.4-.5-.1-.5v-.5l-.1-.2-.2.1-.2-.1.1-.2h-.2v.2l.2.5.1.2.6.8.5.9.3.6.3.3v.1l-.1.1.1-.1.1.1.3.4v.2h.1l.2.6v1.4l.1.4v.4l-.1-.2V318.2l-.1.2v.1l-.1.2V319l.1.4-.1.1-.1.2.1.1h-.2.1-.2l-.2.1-.1.1-.2.1H329.2l-.2.1-.3.1-.2-.2-.1-.1.2-.2.1.1.3.2v-.2l-.1-.1h-.2l-.1-.1-.3-.3-.1-.3-.2-.3-.2-.1v-.2l-.3-.1h-.4l-.4-.1h.4-.3l-.3-.4-.1-.6-.2-.1-.1-.1-.1-.1.1-.1v-.2l.3-.3-.3.3v.1l-.1.2h-.2l.1-.1-.1-.2-.1-.2v-.3l-.1-.2.2-.1-.3.1h-.1l-.2-.1.1.1.2.2v.2h-.3l-.1-.1-.2-.3-.2-.1-.3-.6v-.2l-.4-.2-.1-.2.2.2v-.1l.1-.1.1-.3.3-.4-.1-.2-.1-.1-.2.1v-.1l-.4-.3v.1l.1.1v.2h.2v.3l-.1.2-.1-.1-.3-.2.2.2-.2-.1-.1-.1.1-.3v-.3l-.1-.2.2-.8v-.9l-.1-.1v-.2h-.2l-.1-.2v-.1l-.2-.2h-.4l-.1-.1-.1-.2h-.2l-.1-.2-.5-.3v-.2l-.1-.2-.3-.1-.2-.3-.4-.2h-.2l-.4-.4-.2.1h-.3l-.2.3-.1.1.1.1-.2-.1.2.1.1.2-.3-.1v.1h-.3l-.4.4h-.2l-.2.1v.1h-.1l-.4.1h-.4l-.1-.2v-.1.1l.1.2h.2v-.3l-.1-.1-.2-.2h-.2l-.1-.1h.1l-.1-.1h-.2l-.1-.2.3.2H317.1h-.2l-.1-.2h-.2l-.2-.1.1-.3.1-.1v-.1l-.2.2-.2-.1h-.1v.2l.2.2v.1l-.3-.1-.4-.3-.7-.2H314.6h.4v-.1h.1l.2.1h.1v-.1l-.3-.2h-.2l-.2.2v-.2l-.3.3h-.1l-.4.1-.6.1h-.1l.3-.1.1-.1-.1-.2-.1-.1-.1.1-.1.2v-.3l-.1.2v.1l-.1.1-.1.4h-.2l-.1.1h-.1l.1-.1.1-.3v-.1l-.2-.1M278.2 276.4l.4-5.1v-.2l.2-2.3 3.2.3 3.6.1 3.2.1h3.3v.4l-.1.1-.2.1-.2.1v.2l.1.1.2.3.2.1.1.1.1.2.1 4.6h-.3v.2l.1.1v.2h-.1v.2l.3.2v.1l-.1.2v.2l-.2.3v.4l.1.2.1.3h-.2l-.1-.2-.1-.1-.1-.1-.2-.1h-.1l-.1-.1-.1-.2h-.2l-.3-.2-.7.1h-.3l-.1.1h-.2l-.7-.4-.2-.1-2.1-.1-3.1-.1-3.3-.2-1.9-.1M279.1 293.5l.1-1.3 2 .1 3.2.2 4.6.1h4.6l2.7-.1v1.3l.4 2.2v.7l.1 4.6-.5-.1-.2-.1-.1-.1-.4-.2-.4-.3h-.1l-.2.2H294.6l-.2-.1-.3.1-.1.1h-.3l-.1-.1-.2.1h-.1l-.3.2h-.1l-.1.2-.1-.2h-.2l-.2-.1-.1-.2h-.1l-.2.1h-.1l-.2-.2h-.2v.1l-.2.1v.3h-.2V300.8l-.2-.1-.2.2h-.2l-.1-.2h-.1l-.1-.2h-.1l-.3.2-.2.1-.1-.1v-.2l-.1-.1h-.2V300.1h-.5l-.2.1h-.1l-.2-.1-.1-.1h-.1l-.2.1-.4-.2-.1-.1-.2.1v-.1h-.2V299.5l-.2-.1-.1-.1-.1-.2-.1.3h-.2l-.1-.1-.2.1-.1-.1-.3-.3-.1-.1h-.3l.1-.3.2-4.7-.3-.1-.1-.1h-3l-2.8-.2M281.2 292.3l.4-7.8 2.4.1 4.8.1h5.8l.5.4.1-.2.2.1.1.1V285.4h-.2v.1l-.2.2v.3l.2.1.2.2v.1l.3.3.2.1.1.1.2 5.6-2.7.1H289l-4.6-.1-3.2-.2M291 261.4h3.5v-1l.1.1h.3l.2.2v.5l.2.5v.2l.2.2.1.1h.5l.8.1v.2l.2.1.4-.1.1-.2h.2v-.1h.5l.7.3-.1.2h.2l.2.1v.2h.1l.2.1v-.2l.3-.1.2.1v.1l.5.3.1.1.2.2h.2l.4-.2.1-.1.3-.3h.2v.1l.1.1v.2h.7l.2-.1h.3l.2.1.1.1.2-.1h.4l-.1.2-.2.1-.1.1-.6.3-.2.1-.3.1-.5.3-.6.6-.1.3-.5.5-.2.1-.1.1-.1.2-.5.3-.1.2h-.1l-.1.4h-.1v1.5l-.1.1-.3.2-.3.2v.2l-.2.2v.4h.2l.2.4-.2.4v1.3l.2.2.1.1.3.1.3.1.1.1.1.2h.2l.3.2.2.3.3.3.2.1.2.1h.1l.2.2.1.2.1.4v.5l-1.9.1-2.6.1-3.3.1h-1.9l-.1-4.6-.1-.2-.1-.1-.2-.1-.2-.3-.1-.1v-.2l.2-.1.2-.1.1-.1V268.3l-.3-.3v-.4l-.1-.7.1-.2-.2-.2.1-.2-.1-.4v-1.1l-.3-.6-.1-.5-.1-.2.1-.4-.1-.1.1-.1-.1-.3.1-.3-.1-.1-.1-.6v-.2M337.8 264.5l.2-.1.1.1.1-.1V264.1h.1l.2.1-.2-.4v-.1l.2-.2.2-.4-.1-.1.2-.3-.1-.2v-.3l-.1-.2.1-.5.1-.3-.1-.6.8-2.2.1-.1h.2l.1.4.1.2h.3l.1-.2.2-.1.1-.1.2-.1.1-.2.2-.1.2.1.3.1.3.2.2.1.7 2.1.1.6v.2l.2.1V261.9h.1l.3.1H343.9l.1.1V262.4l.1.1v.2l.1.2.2.1.1-.1H344.8v.1l.3.3-.3.2.2.2.2-.2v-.1l.1.2v.1l-.2.4-.2.1h-.2l.1.1h-.2v.1l-.1.1v.1h-.2v.2h-.1l-.1-.2-.1.2v.4-.3.3l-.1-.2-.1.1V265.4l-.1-.2-.5-.1.1.1-.2.2-.1-.2v.2l-.1.1.1.2v.2l-.2-.1h-.3v-.1l.1-.2h-.1v-.1l-.2-.2.1.3-.2.1V266.7l-.1.1v.1h-.4l-.1.1v.5l-.1-.2v-.4l-.1.1v.3l.1.3-.2-.1.1-.2-.2-.1V267.8l-.2-.6v-.3.3l-.1.1h.1l.2.5v.2l-.2-.4v.2l-.1.2-.1-.2v.2l-.1-.4-.2.4-.1.2v.1l.2.1-.3.3.1.2-.1.3-.2.2v.1l.1.2-.1.1-.1.2h-.1l-.1-.2v-.1l-.3-.1-.1-.1-.1-.2-.1-.2v-.2l-.1-.4-1.2-3.9-.1-.1M325.6 282.3l3.4-.6 3.7-.8.6 1.8.2 1.2.1.1 1.2-.2v.1h-.1l.2.1-.1.4-.1-.1v.3l-.2.3v.1l-.4.1-.1.1h-.2l-.3.2v-.2l.2-.1v-.2l-.2.1v-.1l-.2.1v-.1l.2-.3h-.2v-.4l-.1.4v-.2l-.1.2v.1l-.2-.1h-.1l-.2-.2.1.2-.2-.2v-.2l.1-.3-.2.1.1-.1h.4l.1-.2-.2.1-.2-.1-.1-.1v-.1l-.2.1v.1l-.1-.1v-.2H332.5v-.1l.1-.2h-.2l-.1-.1-.1.1h-.1v.2-.3h.1l.2-.2v-.2l-.1-.1-.1.2V282.1l.2-.2h.1l.2-.1h-.2l.2-.3-.1-.1-.1.1v-.2l-.1.1h-.2v.2l.1.1-.1.2h-.1l-.1-.1V282.1l-.1-.2-.1.1V282.3h-.1l.1.1h-.4l.4.3v.1l.2.2h-.1l-.2-.1v.1l.1.1v.3l.1.1-.1.2.1.1.1.4.3.3-.1.1-.2-.1-.2-.1-.1-.3-.1-.2v.1l.1.3.1.2.2.1.2.2.2.1.2.2-.1.2-.1-.2h-.2l-.2-.1h-.1l-.2.1-.2-.2v-.1l-.1.1v.1l-.1-.1-.2-.2-.1-.1h-.1l-.1.1v.2l-.2-.1-.1-.2.1-.2h.1l.1-.2v-.1l.1-.2-.1-.2.2-.1v-.2l-.2-.1-.2.1h-.1l-.2-.1-.1-.1h-.3l-.1-.1v-.1l-.1-.3h-.5v-.1l-.2-.2v-.1l-.1-.1v-.1h-.3l-.2-.1-.2-.1-.2.1v.1h-.2l-.1.2v.1l-.3.1-.2-.1-.1-.1h-.1v.1l-.3.4-.2-.1-.1.1-.1.2-.2.2v.2l-.2.1-.1.2-.2-1.4M293.7 283.1H297.4l3-.1 1.2-.2.1.2.3.2.1.2h.1l-.1.2v.8l.1.1.1.4.1.1v.1l.3.2.1.1.3.2v.1l.4.3.2.1v.2l.2.7.2.2.1-.1.1-.2h.1l.2.1h.2l.3.2v.1l-.2.2v.7l-.1.2-.2.2v.2l.1.1.3.3.4.4h.2v.2l.1-.1.4.2v.1l.2.2h.2v.4l.2.4v.1l-.1.1.1.4.3.3.2-.1.2.2.1.1-.1.2.1.2-.2.2.1.1-.1.2h-.4v.3l-.2.1.1-.1-.1-.2V293.7h-.1l.1.2-.3.1.2.2-.1.1-.1.3-1.2.1-.1-.2.1-.1.1-.2.2-.1.1-.1V293.7l-.2-.2-.1-.2-3.7.4h-3.3l-2 .1v-1.3l-.2-5.6-.1-.1-.2-.1-.3-.3v-.1l-.2-.2-.2-.1v-.3l.2-.2v-.1h.2V285.1l-.1-.1-.2-.1-.1.2-.5-.4-.1-.1v-.2l-.2-.2v-.1l-.1-.2-.2-.1-.1-.3-.2-.1v-.3M296.3 293.8l2-.1h3.3l3.7-.4.1.2.2.2V294l-.1.1-.2.1-.1.2-.1.1.1.2 1.2-.1v.1l.1.1-.2.1.1.2-.1.1-.2.1-.1.1v.1l.1.1-.1.1-.1.1h-.1l.1.2-.1.1-.1-.1-.1.1v.2l.1-.1v.2l.1.5-.1.1h-.1l-.1.1-.1.1V297.5l-.1.1-.2.1v-.1.4h-.1l-.1-.2v.3l.2.1h-.2v-.1.2l.1.2-.1.2v.2l-.1.1-.1.1h-.1v.1l-.2.2h-.2l.1.1-.1.1v.2l.1.1-.4.2.1.1v.4h-.2v.1h.2l-.1.2-.1-.1-.1.1.1.1-.1.1v.4l.1-.2.1.1-.2.2h.2V301.9h.1v.3h-.1v.4l-3.5.2-2.6.1-.1-1.4-.5-.1-.1.1-.3-.1v-.1l-.1-4.6v-.7l-.4-2.2M297.8 302.9l2.6-.1 3.5-.2-.1.1v.1H304.1v.1l-.2.2v.2h.3l-.3.3h.4l-.1.1v.2h-.1l.1.2h.1l.1.2h.2v.1h-.2l-.1.2h-.2l-.1.2h.4l-.2.1v.1l-.1.1h.1l-.3.4-.2.1v.2h.1l-.1.2-.1.2-.2.1h.2l-.2.2v.3h-.1l.1.1v.2l-.3.1.2.1-.1.2.2.2-.3.2 2.2-.2 2.1-.1-.1.2-.1.3v.4l.1.2.3.3v.2l.1.2.1.2.1.1h.1-.4l-.2-.1-.1.1-.1-.1h-.2l-.1-.2h-.2l-.2-.1-.1.1-.3.3-.1.2v.1l.2.1h.3l.4-.1h.2l.1-.2.2.2.1-.3.1.3.1-.2-.1.2-.3.2v.1l.2.1h.1l.1.1h.2V310.2l.2-.2.1.2v.2h.2v.2l-.1.1h-.2l-.2.2.1.1.1.1H307.8l.1.1h-.2l.1.2.1.1h.2l.1.2h.2l.2.1.3.1h.2v.2l.2.1h-.2v.5l-.3-.3-.1.2-.1.1-.2.2.2-.3.1-.2-.1-.2v.2h-.2v-.2l-.1-.1-.2.1-.2-.1v-.2l-.2.1h-.2l.1-.2v-.1l-.2-.1h-.2l-.5-.2v.1l.2.3.1.3h-.1V312.4l-.2.1-.1.1-.1-.2.1-.2h-.4l-.1-.1-.2.1h-.2V312.5l-.1.1-.2-.1-.3.1-.2-.2H304.6V312.1l-.3-.2-.1-.1V311.5l-.1.3-.3-.2h-.1l-.1-.2-.2-.1v-.1h-.6v-.1l.1-.1-.4.1-.1.1H302.1l.2.1.1.3h-.2l-.2.1-.1.1-.9-.2-.3-.1-.1-.1-.4-.1-.3-.1H299.6v-.1l.1-.1V310.7l-.1-.2-.1.5h-.1l.1.2h-.1l-.7.1-.1.2-.2-.2v-.1l.2-.1v-.4l.1-.2.1-.1-.1-.4-.1-.3.1-.1v-.4l.1-.1.1-.2v-.2l.1-.2v-.5l.1-.1-.1-.2v-.1h-.1l-.2-.4v-.2l-.1-.1v-.1l-.1-.2-.2-.1.1-.3-.2-.3-.1-.1-.2-.3-.1-2.6M300.1 266.9l.2.1.1.2.2-.2.6-.2.4-.1.1-.1.2-.1.2-.1.2-.1.1.1v.2l-.1.1v.2l-.1.1-.1.2h.3l.1-.2.2.2.1.1h.4l.2.1.2.2.1.3 1.7.3.7.3v-.1l.3.1.2-.1.1.1.5.1h.1l.1.3h.2l.2.1.2.2h-.1l.1.2v.4l-.1.1.1.1H308.3l-.1.3v.1l.2.2V270.9l-.1.1-.2.1v.2l-.1.1-.1.4-.1.1.1.2h.1l.1-.1.1-.2.2-.2V271.3h.2l.2-.1.2.1.1.2-.1.1-.2.5v.4l-.1.1.2.4h-.1l-.1.1-.1.2-.1.3v.2l.1.4v.1l-.1.2V274.8l-.1.3v.9l.2.2v.1l.1.2v.8l-2.3.4-3 .2-.1-.5-.5-.1h-.2l-.1-.2v-.2l-.1-.2v-.3l-.1-.2.1-.4v-.1l-.1-.1-.1-.1-.1-.1V274.8l-.1-.4-.1-.2-.2-.2h-.1l-.2-.1-.2-.1-.3-.3-.2-.3-.3-.2h-.2l-.1-.2-.1-.1-.3-.1-.3-.1-.1-.1-.2-.2v-1.3l.2-.4-.2-.4h-.2v-.4l.2-.2v-.2l.3-.2.3-.2.1-.1v-1.5h.1l.1-.4h.1M302.2 283.4h.1l.1-.3-.2-.1.2-.2.3-.2.1-.2V282.1l.3-.2v-.3l-.4-.4.1-.3v-.2l.7-.1.2-.2h.2l.2-.2.1-.4.2-.3v-.6l-.2-.2-.2-.1-.1-.1v-.3l-.4-.2-.1-.1 3-.2 2.3-.4v.8l.3.3.1.2v.3l.2.1v.1l.2.3.5 6-.1.3v.4l.1.3.2.1-.1.2.1.3v.2l-.3.4v.1l-.2.5v.1l-.2.2-.1.1.1.1-.1.3v.3l-.1.2.1.2v.2l-.2.1.1.2.1.2-.1.2-.3.1h-.2l-.2.1V291.1l.1.2.1.2-.1.1h-.2l-.1-.1h-.3l-.2-.2h-.2l-.1.1-.3.3v.1l.1.2-.2-.2-.2.1-.3-.3-.1-.4.1-.1v-.1l-.2-.4v-.4h-.2l-.2-.2v-.1l-.4-.2-.1.1v-.2h-.2l-.4-.4-.3-.3-.1-.1v-.2l.2-.2.1-.2v-.7l.2-.2v-.1l-.3-.2h-.2l-.2-.1h-.1l-.1.2-.1.1-.2-.2-.2-.7v-.2l-.2-.1-.4-.3v-.1l-.3-.2-.1-.1-.3-.2v-.1l-.1-.1-.1-.4-.1-.1v-.8l.1-.2M303.1 267.3l.2-.1.5-.3.3-.4.1-.1H304.8l.1-.1.2-.1.1-.2.4-.1.1-.2.4-.4v.2h.2l.2.4v.5l.1-.1.1-.2.1-.1.1-.1-.1.3h.1l.1-.2h.7l.2.1.1.1.1.2.3.3v.1l.3.1h.1l.4-.2.2.2h.4l.3-.2.3-.3.2-.1.3-.1.1-.1h.7l.1-.1.3-.1.2-.1.4-.1V266.5h.3l.3-.1.2.2.1-.1.1-.1h.1l.1-.1.1.1.1.3v.2l.2.3h.1l.1.1v.1l.2.1.1.1-.1.1-.8-.1-.2.1-.1-.1h-.2l-.1.3v.3l-.1-.1-.3-.3-.4-.1h-.1l-.2-.1-.3.1-.2.3H311.4l-.3.2-.2-.1-.1.1-.2.1v.1l-.1.2-.2.1-.1.1-.1.3-.2-.1.1-.2.2-.1v-.1l-.2-.1-.1.1-.2.1v.1l-.2.2-.1-.2V268.5l-.1.2-.1.3-.1.2-.1.2-.1.4-.3.4-.2.3v.1l-.2-.2v-.1l.1-.3H308l-.1-.1.1-.1v-.4l-.1-.2h.1l-.2-.2-.2-.1h-.2l-.1-.3h-.1l-.5-.1-.1-.1-.2.1-.3-.1v.1l-.7-.3-1.7-.3-.1-.3-.2-.2-.2-.1h-.1M303.9 302.6v-.4h.1v-.3h-.1V301.6h-.2l.2-.2-.1-.1-.1.2v-.4l.1-.1-.1-.1.1-.1.1.1.1-.2h-.2v-.1h.2v-.4l-.1-.1.4-.2-.1-.1v-.2l.1-.1-.1-.1h.2l.2-.2v-.1h.1l.1-.1.1-.1v-.2l.1-.2-.1-.2v-.2.1h.2l-.2-.1v-.3l.1.2h.1v-.4.1l.2-.1.1-.1V297.2l2.8-.2 1.5-.1.1.1h.1l.1.1-.1 7.9.5 3.9v.1l-.1.2-.4-.2v.1l-.1.1-.2-.1-.2-.1h-.2.2v.1l-.4.1-.3.1H308.4v.1l-.2.1-.1.2h-.2l-.1-.1-.1-.2-.1-.2v-.2l-.3-.3-.1-.2v-.4l.1-.3.1-.2-2.1.1-2.2.2.3-.2-.2-.2.1-.2-.2-.1.3-.1v-.2l-.1-.1h.1v-.3l.2-.2h-.2l.2-.1.1-.2.1-.2h-.1v-.2l.2-.1.3-.4h-.1l.1-.1v-.1l.2-.1h-.4l.1-.2h.2l.1-.2h.2v-.1h-.2l-.1-.2h-.1l-.1-.2h.1v-.2l.1-.1h-.4l.3-.3h-.3v-.2l.2-.2v-.1H303.8v-.1l.1-.1M305.4 297.2l.1-.1.1-.1h.1l.1-.1-.1-.5v-.2l-.1.1v-.2l.1-.1.1.1.1-.1-.1-.2h.1l.1-.1.1-.1-.1-.1v-.1l.1-.1.2-.1.1-.1-.1-.2.2-.1-.1-.1v-.1l.1-.3.1-.1-.2-.2.3-.1-.1-.2h.1v-.4h.1l-.1.1.2-.1 2.8-.3v-.2l-.1-.3h.3l.3.1.8-.1h.8l1.1-.2 1-.1h.9l.6-.1.9-.1.7-.1.6-.1h.8l.2-.1.6-.1h.4l1.3-.2.8-.2.7-.1h.2v.4l-.1.3h-.2l-.1.2-.1.4-.2.1h-.4l-.2.2v.1l-.2.2h-.1l-.2-.2-.1.2h-.1v.2l-.2-.1-.1.4-.1.2h-.1l-.3.2-.5.4-.1.1h-.4l-.3.1-.1.3-.1.1v.3l-.2.1-.4.1v.6l-.8.1-1.8.2-2.3.4-3 .2v.1l-.1-.1-1.5.1-2.8.2M306.9 293.3v-.3h.4l.1-.2-.1-.1.2-.2-.1-.2.1-.2-.1-.1-.1-.2v-.1l.3-.3.1-.1h.2l.2.2h.3l.1.1h.2l.1-.1-.1-.2-.1-.2V290.8l.2-.1h.2l.3-.1.1-.2-.1-.2-.1-.2.2-.1v-.2h.2l.1-.2-.1-.1.3.1.2-.2v.2h.2l-.1-.2h.3l.1-.1.5.2.2.1.1-.1v-.1l.1-.1.2-.1.1-.2.1.3h.4v-.1l.1-.2v-.1l.1-.2.2-.1v-.2l.1.1.1.2.2.1.3.1.2-.2V288.3l.1-.3h.2l.1-.2.1-.4.1-.1.2-.1v-.4l-.1-.1.2-.1h.2l.1.1.3-.3h.4l.1-.2-.2-.2v-.5l.3-.1.1.1.3-.1.4.2.1.2.2.3.2.1.3-.1h.1l.3.3h.2l.2-.1.1-.1.2.1.2.1H318.9v-.2l.2-.2.2-.1.2.3.1.2h.2l.1.1.2.2V287.3l.3.4v.3l.2.1.4.4.3.3h.4l-.7.8-.6.4-.1.2v.1l-.2.2v.2l-.1.1-.2.1-.2.1v.2l-.4.1-.1.2h-.2l-.3.2-.2.1h-.8l-.6.1-.7.1-.9.1-.6.1h-.9l-1 .1-1.1.2h-.8l-.8.1-.3-.1h-.3l.1.3v.2l-2.8.3M309.4 289.7l-.1-.2.1-.2v-.3l.1-.3-.1-.1.1-.1.2-.2v-.1l.2-.5v-.1l.3-.4v-.2l-.1-.3.1-.2-.2-.1-.1-.3v-.4l.1-.3-.5-6 .2.1.2.1.2-.1.3-.1.4-.3h.9l2.7-.4.2.2.3 2.3.5 4.3v.5l.2.2-.1.2h-.4l-.3.3-.1-.1h-.2l-.2.1.1.1v.4l-.2.1-.1.1-.1.4-.1.2h-.2l-.1.3V288.6l-.2.2-.3-.1-.2-.1-.1-.2-.1-.1v.2l-.2.1-.1.2v.1l-.1.2v.1h-.4l-.1-.3-.1.2-.2.1-.1.1v.1l-.1.1-.2-.1-.5-.2-.1.1h-.3l.1.2h-.2v-.2l-.2.2-.3-.1.1.1-.1.2h-.2M309.8 297v-.1l3-.2 2.3-.4.8 2.6.7 2.8.1.1.1.1.1.2.1.3.1.2.1.1.1.2-.1.2.2.1v.1l-.1.2-.1.1v.3l-.1.2v.4l.1.3.2.1v1.2l.1.1.2.2v.1l-3.5.4-2 .3-.1.1-.1.2.2.3.2.1.2.2-.1.2v.6l-.1.1-.3-.1.1.1-.1.2h-.1l-.7.1.1-.1.2.1.1-.1.1-.1-.1-.2-.3-.2v-.5l-.1-.1h-.1l-.1-.2v.4l-.1.7h-.1l-.3-.1-.2.1v-.1l-.5-3.9.1-7.9-.1-.1h-.1M253.6 275.5l.9-4.5.1-.2h.1l.2-.4v-.5l-.2-.1h-.2v-.1l.1-.6.2-.1.1-.3.3-.2.2-.2.1-.1v-.2l.2-.3.3-.5.4-.5.1-.2-.1-.3-.3-.3-.1-.1v-.4l-.1-.2.1-.5-.2-.3.2-.2v-.5l1.2-5.8 1.3.2.4.1v.1l-.5 2.4.3.5v.1l.1.3v.2l-.1.2.1.2h-.1l.3.3v.2l.3.1.1.2v.1l.1.2.2.3.1.2v.2l.1.2.2.1h.1v.2l.1.1.2-.1.2.1-.2.6-.1.3-.1.1-.1.2v.9h-.2l-.1.1.1.1-.1.3-.1.2.2.1.2.2.1-.1.7-.3v.1l.2.2v.8l.2.3.1.1v.2l.1.2-.1.3v.1l.2.2.1-.1.2.1.1.4-.1.1.1.2v.1l.1.2.2.2.1-.3.2-.1.2.1.2.1h.2l.2-.2.4.1h.3l.2.2.1-.1.4.1v-.1l.3-.4.2.1.1.3.1.2.2.2-1.1 6.4-2.2-.4-2.6-.5-.8-.1-2.5-.5-3-.6M277.9 281.6l.3-5.2 1.9.1 3.3.2 3.1.1 2.1.1.2.1.7.4h.2l.1-.1h.3l.7-.1.3.2h.2l.1.2.1.1h.1l.2.1.1.1.1.1.1.2h.4v.5l.1.2v.2l.2.1v.2l.2.3V280l.1.1-.1.3v.1l.1.2h.2v.2h.1l-.1.3.2.1-.1.2.2.1-.1.3v.2l.1.3v.5l.1.1v.4l.2.1.1.3.2.1.1.2v.1l.2.2v.2l.1.1h-5.8l-4.8-.1-2.4-.1V282l-.1-.1-1.9-.1-1.7-.2M244.7 261.9h-.3v-.2l-.4.1-.1-.2h-.2l.3-.8v.1l-.1.3h.1l.1.2.1-.1-.2-.1.2-.2-.1-.1.2-.2.1.1h.1l-.1-.1-.4-.2v-.5l.1.2.3-.2h.3-.3l-.1-.2-.2-.1v.1h-.1l.1-.2v-.4l-.1-.5.1-.7v-.1l-.1-.3v-.2l-.1-.2v-.2l.1-.1v-.5l.1-.1V256l.2.1.3.3.1.2h.2l.1.3.2.1.3.1.3.2.3.1h.5l.1.2v.1h.1l.2.2v-.2h.1v.1l.1.4-.1.2-.1.1-.1.2V258.4l-.3.4-.1.1-.3.3-.1.1.1.2.3-.1H246.2v-.2l.3-.3h.3l.2-.3.4-.3V258.6l-.1.1h-.2V259h-.1v.2h.1l.1.1-.3.6-.2-.2.2-.1h-.2l-.1.1v.3h-.1v-.1l.1-.2v-.2l-.3.2-.1.2-.2.1h.2V260.3l.1-.3h.2v.2h.2l.2-.2.1-.1.3-.1.1-.1v-.4l.2-.1-.2-.3h.2v-.2l.1-.2.2-.2v-.2l-.1-.2.1-.2V257.4l-.2-.2v-.2l-.1.1v-.2l.1.1h.1l.1-.1-.1-.3.1.2v-.4l.1-.2-.1-.1-.2-.1V255.4l2.3.7 2.6.7 3.1.8 1.5.3-1.2 5.8v.5l-.2.2.2.3-.1.5.1.2-2.1-.4-1.7-.4-.1.1h-.2l-.2-.1h-.4l-.1-.1-.1.1h-.9l-.3.1-.2.1-.2-.1-.1-.2h-.2l-.5.1-.2-.1-.3.1v-.2l-.2-.1-.1-.1h-.5l-.1-.1h-.2l-.2.1H246.3l-.2-.1h-.1l-.1-.1-.3-.1-.1-.1.1-.8-.1-.4-.1-.1-.2-.2h-.2l-.2-.1v-.2l-.1-.1M314.6 278.9l1.7-.3.8-.2v.1l.4.1h.4l.2.2.2.1.1-.3.2.3h-.3l-.2.1.2.1.1-.2h.4l.1.1h.2l.1-.1h.3l.1-.2.4-.1h.4l.3-.4.3-.2.1-.1.2-.2.3-.3 1-.6v.2l.5 3.4h-.2v.2l.1.1.1.5v.2l-.1.5v.4h-.1v.8l-.3.2-.1.3-.4.3-.2-.1-.2.1v.3h-.2l-.1.2v.2l-.1.2.1.1v.2l-.1.1-.2-.2-.2-.1-.1.2-.1.2v.8l-.1.1v.2l-.2.2-.2.1h-.1l-.2-.2-.1-.1h-.2l-.1-.2-.2-.3-.2.1-.2.2v.2H318.6l-.2-.1-.2-.1-.1.1-.2.1h-.2l-.3-.3h-.1l-.3.1-.2-.1-.2-.3-.1-.2-.4-.2-.3.1-.1-.1-.3.1-.5-4.3-.3-2.3M317.7 296v-.6l.4-.1.2-.1v-.3l.1-.1.1-.3.3-.1h.4l.1-.1.5-.4.3-.2h.1l.1-.2.1-.4.2.1v-.2h.1l.1-.2.2.2h.1l.2-.2v-.1l.2-.2h.4l.2-.1.1-.4.1-.2h.2l.1-.3v-.4h.3l.7-.1 1.6-.2 4.6-.8 2.2-.5 2-.4v.1l.2.3h.1l.4.5v.2l-.1-.2-.4-.3.1.1.2.2h-.2l-.3-.2h-.2l.2.1.1.1v.2H333.8l.1.1h-.4l.2.1-.4.3H333l-.2-.4V290v.4l.1.2.1.1.1.3.1-.1.2-.1.1-.1.4.1v-.1l.3-.1h.1v.5h.1l-.1.2.1.1.2-.2-.1-.3v-.2h.2l.1-.1v-.1l.2.2v.1l.1.3.1.1-.2.3-.2-.1v.1l-.1.6-.2.1h-.5l-.2-.2v.2h-.1l-.2-.2.1-.2-.1.1V292.2H332.5h.1l.8.3h.4v.3h-.2v.1l.2-.1v.2l-.3.3-.1.1-.2-.1h-.2l-.2-.1-.1-.2.1.3.3.2h.3l.4-.2.1.1-.1-.1.2-.1v-.2l.1.2-.1.1h.2l.1-.2.1.2-.1.1-.1.2-.2.3v.1l-.2-.2v.2l-.1-.2-.2.2h-.1l-.4.2h-.2l-.2.3-.1.1v.1l-.2-.1.1-.1-.2-.1.1.1-.1.2.1.1-.3.4-.2.3-.1.3-.1.2v.5l-.1-.5-.1-.1h-.1l.2.3-.1.4-.1.1h-.6l-.3.2-.1.1-.1-.1-2.6-1.9-2.4.4-.1-.1v-.1l-.1-.2-.2-.3-.1.1-.3-.2-.7.1-1.8.1-.2.1-.1.1-.3.2-.2.2h-.3l-.5.3-2.6.3M320.1 286.7h.1l.2-.1.2-.2v-.2l.1-.1v-.8l.1-.2.1-.2.2.1.2.2.1-.1v-.2l-.1-.1.1-.2v-.2l.1-.2h.2v-.3l.2-.1.2.1.4-.3.1-.3.3-.2V282.3h.1v-.4l.1-.5v-.2l-.1-.5-.1-.1v-.2h.2l.4 2.3 2.1-.4.2 1.4.1-.2.2-.1v-.2l.2-.2.1-.2.1-.1.2.1.3-.4v-.1h.1l.1.1.2.1.3-.1v-.1l.1-.2h.2v-.1l.2-.1.2.1.2.1h.3v.1l.1.1v.1l.2.2v.4l-.2.1-.9-.4h-.1v.2l-.1.2.1.3-.2.2v.3l-.2.1-.1.1-.2.3H327l-.2.2-.1.3v.4l-.2.1-.1.1h-.3v-.1l-.2-.1h-.2v.5l-.1.1v.3l-.2.2v.2l-.1.3-.1.2-.2.4-.1.3.1.2-.1.2v.2l-.2.2-.3-.1-.3.3h-.2v.1l-.1.2h-.1l-.4.2h-.2l-.2-.1v.1l-.4.2h-.3l-.3-.2-.2-.1-.1-.2.1-.2h-.4l-.3-.3-.4-.4-.2-.1v-.3l-.3-.4v-.6M333.2 281l.1-.1v-.2l.1-.2.2-.1h.1l.1-.1.1-.1v-.2l.1-.2.2-.2.1-.2.1-.1-.4-.3-.1-.1h-.1l-.1-.2-.1-.1-.1-.1-.2-.2v-.3l.1-.1.1-.2-.1-.1-.1-.2-.1-.1.2-.1.2-.5v-.1l.1-.2.1-.2 1.7.5V277.6l-.2.1h-.1V278.3l.1.1.2-.1.3.1v.7l.1.1v.7l-.1-.3V279.3v.1h-.1l.1.2v.8l-.1.1-.1.2-.1.1v.4h-.2l-.1.2v.1l.1.1-.1.1v.3l-.2.1V282.4h-.3v-.1l.1-.2-.1-.2h-.4l-.3-.2-.2-.1h-.2l-.3-.3.1-.1h-.1l-.1-.1v-.1M334 266.4l.7-.2 2.6-.7v.8l.1.2.1.2-.1.1-.1.2-.3.4-.2.2v.2l.2.3-.1.3v.2l-.1.1v.8l-.1.2.1.5v.4l.1.4-.1.2v.2l.1.2.1.2-1.4.3-.1-.3-.3-1.7-.2-.2-.1.1-.1-.1v-.3l-.1-.3v-.2l-.2-.3v-.3l.1-.1v-.1l-.1-.3v-.1l-.1-.2-.1-.1-.1-.3v-.4l-.1-.2v-.1l-.1-.2M335.6 272.1l1.4-.3 2.2-.5.2-.3.1-.2v.1l.2-.3H340l-.1.1.1.1.1.2.2.1.1-.1h.2l-.1.2-.3.2-.1.2-.1.2v.1h-.1l.1.2h.5l.4.4.1.1-.2-.1v.2l.2.1h.2l.1.3h.2l.2.1.4-.2.1-.2v-.3h-.2l-.1-.1-.1-.2h-.3l.3-.1.1.1.2.2.2.3.1.3-.1.1-.2.1-.5.3-.1-.1v.2l-.2.1-.1.1-.1-.3v-.2l-.1.1-.1.2-.2.1-.1.3h-.2l-.1.1V273.8l-.2-.1V273.4v.2H339.8V273.3h-.2v-.2l-.2-.1-.6.2h-.2l-.2.1-.9.2-.2.1h-.5l-1.2.3V272.1M335.6 273.9l1.2-.3h.5l.2-.1.9-.2.2-.1h.2l.4 1.3v.4h-.1l-.4.1-.3.2h-.2v-.1h-.1l.1.1v.1l-.5.2H337.4l-.1.1-.2.1-.3.3v-.1l-.2.2-.1.1-.3.3-.2.1-.2-.2v-.1l.3-.2v-.2l-.1-.1-.4-1.9M338.8 273.2l.6-.2.2.1v.2h.2V273.6h.1-.1l-.1-.1V273.8l.1.2V274.6l-.5.2-.1.1v-.4l-.4-1.3M292.3 278.2l-.1-.3-.1-.2v-.4l.2-.3v-.2l.1-.2v-.1l-.3-.2v-.2h.1v-.2l-.1-.1v-.2H294.3l3.3-.1 2.6-.1 1.9-.1v.1l.1.1.1.1.1.1v.1l-.1.4.1.2v.3l.1.2v.2l.1.2h.2l.5.1.1.5.1.1.4.2v.3l.1.1.2.1.2.2v.6l-.2.3-.1.4-.2.2h-.2l-.2.2-.7.1v.2l-.1.3.4.4v.3l-.3.2V282.4l-.1.2-.3.2-.2.2.2.1-.1.3h-.2l-.1-.2-.3-.2-.1-.2-1.2.2-3 .1H293.7v-.1l-.1-.1v-.5l-.1-.3v-.2l.1-.3-.2-.1.1-.2-.2-.1.1-.3h-.1v-.2h-.2l-.1-.2v-.1l.1-.3-.1-.1V279.7l-.2-.3v-.2l-.2-.1v-.2l-.1-.2v-.5h-.2M308.9 270.9l.2-.2v-.2l.1-.2.2-.1.1-.2v.1l-.1.3v.2l-.1.2v.2l-.1.2-.1.1h-.2l-.1-.2.1-.2M315.3 267.3l.1.1.1.2h-.1l-.3.1-.1-.1h-.2.2l.1-.2v-.1h.2M320.3 295.7l.5-.3h.3l.2-.2.3-.2.1-.1.2-.1 1.8-.1.7-.1.3.2.1-.1.2.3.1.2v.1l.1.1 2.4-.4 2.6 1.9.1.1-.2.1-.3.4-.4.7-.1.1v.6l-.1-.1-.1-.1.1-.4-.2.3v.2l.2.1.1.2-.1.1-.2-.1.2.1-.2.2v.2H328.7l-.2.2.1.1-.1.1-.1.1-.2.2h-.2v-.1h-.1l.1.2.1.1-.1.1-.1.1v.1l-.2.1-.2.1-.1-.1.1.1-.2.2h-.1l-.2.1-.3-.1-.3.1h.1l.2.1h.1l.2.1-.2.1.3-.1-.1.3-.3.1-.2-.1-.1-.3v.3l-.2-.1-.1-.2v-.1l.1.3v.2l.1.1.2.1-.1.1-.1.1v-.2l-.1.2-.1.3-.1-.1-.4-.1v-.1l-.1-.2v-.1l-.1-.1-.1-.3-.1-.1-.3-.1-.1-.1-.1-.2V300.8l-.2-.3-.1-.2-.3-.2h-.1l-.2-.1v-.1l-.2-.1v-.1l-.2-.1V299.3l-.2-.1-.2-.1-.1-.1-.2-.1-.1-.1-.2-.2-.3-.3-.3-.2-.4-.6-.1-.1-.2-.2v-.2h-.4l-.4-.3h-.2l-.1-.1-.1-.2.1-.2.3-.4v-.1M246.7 280.2l1.4-5.9 3.2.7 2.3.5 3 .6 2.5.5-2.3 12.9-.3 2-.2.3-.2.1h-.1l-.1-.1-.2-.3h-.5l-.2.1-.1.2.2.4-.1.1-.1.2.1.3-.1.2v.2l.1.4-.1.4-.1.1-.1.3-2.5-3.7-6-8.8.5-1.7M315.1 296.3l1.8-.2.8-.1 2.6-.3v.1l-.3.4-.1.2.1.2.1.1h.2l.4.3h.4v.2l.2.2.1.1.4.6.3.2.3.3.2.2.1.1.2.1.1.1.2.1.2.1V299.6l.2.1v.1l.2.1v.1l.2.1h.1l.3.2.1.2.2.3V301.1l.1.2.1.1.3.1.1.1.1.3.1.1v.1l.1.2v.1l.4.1.1.1h.1l-.1.2-.1.1v.2h-.1l-.2-.1v.1l.2.2-.1.1-.2.1v.1h.2l-.1.3-.1-.2v.2l-.1.1.1.1h.1l-.1.3-.1-.1v.3h-.2l-.1-.1.1.1H325.6v.2l-.1.3-.3-.2v.2h.3l-.2.2-.1-.1.1.2-.1.1h.2l-.1.2-.1.1.2.2-.1.2H325l-.3-.1h-.5v.4l.1.1.1.2v.4l-.3.1h-.1l-.1-.4-.2-.1-5.6.4-.2-.2v-.1l-.2-.4v-.1l-.2-.2-.1-.1v-1.2l-.2-.1-.1-.3v-.4l.1-.2v-.3l.1-.1.1-.2v-.1l-.2-.1.1-.2-.1-.2-.1-.1-.1-.2-.1-.3-.1-.2-.1-.1-.1-.1-.7-2.8-.8-2.6M310.8 279.1h.1l.1-.2.1-.1v-.2l.2-.5.1-.3.1-.2.2-.6v-.6l-.2-.6-.2-.6.1-.1h-.2l-.4-.8v-.2l.1-.1v-.7l-.2-.2v-.1l.2-.2.2-.5V271.7l-.1-.3.1-.1.2-.2v-.1l.1-.4.3.1v-.2l.1-.2.1-.1.1-.2h.1v1l.1-.2v-.3h.1v.5l.1-.2v-.2l.1-.1v-.2l-.1-.5.1-.1.2-.2H313v-.2l-.1-.2-.1-.1v-.2l.1-.2.1-.1.2-.1.1-.1.3.1h.1l.2.2h.5l.1.2h.4l.2.1.3.1.2.1h.1l.2.1v.2l.2.1.1.1v.2h-.2l-.1.2.1.2.2.1.1.1.1.3-.1.4.1.5-.2.2h-.1v.2l-.1.4-.1.2-.2.1-.1.1-.1.3v.2l.2.3h.4l.1-.2v-.1l.2-.2.1-.2v-.1l.1-.1.2-.2h.1l.3-.3.2.1h.1l.2.2.2.3.2.7.1.1.1.4.1.3v.2l.2.3.1.1h-.1V275.8l-.1.2h-.1v-.2l-.1-.1-.2.1v.1l-.1.2v.3l-.2.2-.1.1-.1.1v.1l-.1.1v.6l-.3.5-.1.3-.8.2-1.7.3-.2-.2-2.7.4h-.9M256.8 289.5l2.3-12.9.8.1 2.6.5 2.2.4-.4 2.6 4 .5L267 291l-2.9-.3-2.6-.4-2.8-.5-1.9-.3M240.4 272.2l-.2-.3v-.6l.1-.3v-.1l.2-.2v-.8l.2-.4.3-.7.1.1.1-.1.2-.1v.1-.1h-.1l.1-.2.1-.3.2-.2h.2-.2v-.1l.1-.2.4-1v-.3l.1-.1.1-.1.1-.1-.1-.1.1-.4.1-.3.3-.4v-.3l.2-.2.1-.2V263.9l.1-.2v-.1l.2.1-.1-.2.1-.1.1-.3-.1-.1v-.2l.1-.1v-.2l.1-.1.1-.4.1-.1.1.1v.1h.1l-.1-.1v-.1h.2v.1h.4l.1.1.1.1v.1l.2.1.2-.1.2.2.1.1.1.4-.1.8.1.1.3.1.1.1h.1l.2.1H246.9l.2-.1h.2l.1.1h.5l.1.1.2.1v.2l.3-.1.2.1.5-.1h.2l.1.2.2.1.2-.1.3-.1h.9l.1-.1.1.1h.4l.2.1h.2l.1-.1 1.7.4 2.1.4v.4l.1.1.3.3.1.3-.1.2-.4.5-.3.5-.2.3v.2l-.1.1-.2.2-.3.2-.1.3-.2.1-.1.6v.1h.2l.2.1v.5l-.2.4h-.1l-.1.2-.9 4.5-2.3-.5-3.2-.7-3.5-1-4.1-1.1h-.1M332.7 280.9l.1-.2v-.1l.2-.1.2-.1h.1l.1.1-.1.1v.1l-.1.2v.1l.1.2-.1.1.2.2.1.1.2.2.1.1v.2l.1.3.1.1.1.2.3.2h.2l.1.1-.1.1v.3h.1l-.2.1.2-.1h.1l.1.4h-.1l-1.2.2-.1-.1-.2-1.2-.6-1.8M335.8 292.2l-.3.1.2-.1.1-.2-.1-.7v-.1l-.1-.2-.1-.1.2.3.1.2v.8M322.6 276.8l.2-.1.3-.3.1-.1h.1l.5-.4.2.6 1.5-.2 2.4-.5 2.6-.6 1.7-.4v.1h.2l.1.2h.1l.2.1.2.4v.2l.2.1.3.1h.1l.2.1v.1l-.1.2-.1.2v.1l-.2.5-.2.1.1.1.1.2.1.1-.1.2-.1.1v.3l.2.2.1.1.1.1.1.2h.1l.1.1.4.3-.1.1-.1.2-.2.2-.2.2v.1l-.1.2-.2.1-.1.1-.1-.1h-.1l-.2.1-.2.1v.1l-.1.2-3.7.8-3.4.6-2.1.4-.4-2.3-.5-3.4v-.2M318.6 291.7l.3-.2h.2l.1-.2.4-.1v-.2l.2-.1.2-.1.1-.1v-.2l.2-.2v-.1l.1-.2.6-.4.7-.8-.1.2.1.2.2.1.3.2h.3l.4-.2v-.1l.2.1h.2l.4-.2h.1l.1-.2v-.1h.2l.3-.3.3.1.2-.2v-.2l.1-.2-.1-.2.1-.3.2-.4.1-.2.1-.3v-.2l.2-.2v-.3l.1-.1v-.5h.2l.2.1v.1h.3l.1-.1.2-.1v-.4l.1-.3.2-.2H327.3l.2-.3.1-.1.2-.1v-.3l.2-.2-.1-.3.1-.2v-.2h.1l.9.4.2-.1v-.3h.5l.1.3v.1l.1.1h.3l.1.1.2.1h.1l.2.1v.4l-.1.2.1.1H330.5V285h.2l.1-.1H331.1v.1l.3.2H332l.1.1.1.1h.2v.1l.1.1.4.1v.2l-.2-.1.1.2v.4h-.3v-.1h-.1l-.3-.2-.1-.1-.2-.2-.1-.1-.2-.1-.2-.2H331h.1l.4.2.1.1.1.2.1.1.2.1.3.2v.1l.2.1h.1l.2.2H333.1l.1.3v.2l-.2-.2h-.2l.1.2-.1.2-.3-.2-.3-.3h-.2l.3.3.2.1.3.2.2-.1v.2h.2l.1.2-.1.3-.2.1-.2-.2h-.1l-.2-.3-.1-.1-.2.1-.1-.1-.1-.1v.1h-.1l-.2-.1-.4.1-.1-.1-.1.1h.6l.3.1h.1l.1.1.2-.1.1.3.1.1.2.1.1.2v.1l.2-.1h.1l.2.1-.1-.1v-.2h.7l.1.3.3.5h-.1v-.2l-.2-.1v.4h-.1v-.1.1l-2 .4-2.2.5-4.6.8-1.6.2-.7.1h-.5l-.7.1-.8.2-1.3.2h-.4l-.6.1M336.7 277.3l-.6.5-.4.1.2-.1-.4.1v-.2l.1-.3.2-.2.1-.2h.2v-.1l.1-.1h.2l.4-.2h.1l.1-.1.1-.1.5-.1.4-.2.4-.5-.2.2v.2l-.1.2-.1.1h.2l.3-.4.1-.1h.4l.2-.1-.3.2-.1.1-.3.3h-.3v.2l-.2.2h-.2l-.2.2-.2.1-.4.1-.1.1-.1.1h-.1M278.8 268.8l.5-7.8 2.7.2 4 .1 3.5.1h1.5v.2l.1.6.1.1-.1.3.1.3-.1.1.1.1-.1.4.1.2.1.5.3.6V265.9l.1.4-.1.2.2.2-.1.2.1.7v.4l.3.3v1h-3.3l-3.2-.1-3.6-.1-3.2-.3"/><path d="M255 295.5l-.2-.5-.1-.2v-.4l-8.3-12.5 1.6-7.7-7.8-2v.3l-.2.8-.1.7-.3.7-.1.2h-.2l-.1-.1v-.1l-.1-.2h-.1l-.1.2-.1.2-.1.8v.4l.1.2v.3l.1.2.3.4v.5l-.1.5-.2.5v.6l.2.3.1.4.1.4v.3l.1.1.2.2.3.4-.1.2-.2.1h-.1v.4l.1.3h.1l.2.3v.3l.1.1h.4l.1-.1h.1v-.5l-.1-.1v-.2h.2l.3.1.2.1.3.2.1.2v.3l-.2-.1h-.4v.1l.1.3.3.2v.6h-.3l-.1-.1-.1-.2-.3-.1-.2-.1-.1.1v.1l.1.4v.6l.1.3.2.4.2.5.4.2v.1l-.3.2-.5.1h-.1v.5l.1.4.1.2v.5l.2.2.2.1.1.2v.6l.3.2.6.9.2.4.1.3.1.5-.4.5-.1.2.2.3.1.2.3.1.4.3.3-.1v.1l1.2 1 .3.2.2.1.8.7.4.3v.2l.2.1.4.4.3.2v.7l.4.2.3.6.1 1.2-.1.2v.4l5.6.6v.3h.2l.3-.3.1-.1V300l-.3-.1v-.2l.3-.2.1-.4.1-.6.1-.7.2-.3.1-.3.5-.1.4-.1.1-.1v-.2l-.1-.1-.2-.1.2-.1v-.2l-.2-.2-.2-.2z"/><path d="M323.8 275.9l.1-.1.4-.3.2-.4.2-.2.2-.1v-.2l.3-.3v-.2l-.2-.4.1-.1-.4-.1v-.5h.1l.1-.2h.4l.3-.2.7-.1h.8l.4.1.3-.2.3-.1h.4l.1.1.1-.2.2-.1.1-.2.1-.1.2-.2.2-.2h.2l.1-.1v-.2l-.1-.1v-.2l-.2-.3.2-.1v-.1l.1-.2-.3.1v-.2h-.1v.2-.1l-.2-.1v-.2l.3-.3.3-.1v-.1l.3-.4v-.2l.4-.8.6-.7.4-.3h.2l1.1-.2 1.2-.3.1.2v.1l.1.2v.4l.1.3.1.1.1.2v.1l.1.3v.1l-.1.1v.3l.2.3v.2l.1.3v.3l.1.1.1-.1.2.2.3 1.7.1.3V273.9l.4 1.9.1.1v.2l-.3.2v.1l.2.2-.2.4v.1l-.2.1-.1.2v-1.1l-.2-.2-.1-.1v.2l.2.1.1.4-1.7-.5v-.1l-.2-.1h-.1l-.3-.1-.2-.1v-.2l-.2-.4-.2-.1h-.1l-.1-.2h-.2v-.1l-1.7.4-2.6.6-2.4.5-1.5.2-.2-.6M265.1 305.7v-.1L267 291l3.3.5 3 .3 3.6.3 2.3.1-.1 1.3h-.1v.2l-.4 6.3-.2 2.3-.2 2.7-.1.1h-2l-1.9-.2-2.1-.2-1.6-.1.1.3.1.2h-.1l-3.4-.4-.2.2v.9l-.2.1-1.7-.2"/></g><path fill="#0079AF" d="M255 295.5l-.2-.5-.1-.2v-.4l-8.3-12.5 1.6-7.7-7.8-2v.3l-.2.8-.1.7-.3.7-.1.2h-.2l-.1-.1v-.1l-.1-.2h-.1l-.1.2-.1.2-.1.8v.4l.1.2v.3l.1.2.3.4v.5l-.1.5-.2.5v.6l.2.3.1.4.1.4v.3l.1.1.2.2.3.4-.1.2-.2.1h-.1v.4l.1.3h.1l.2.3v.3l.1.1h.4l.1-.1h.1v-.5l-.1-.1v-.2h.2l.3.1.2.1.3.2.1.2v.3l-.2-.1h-.4v.1l.1.3.3.2v.6h-.3l-.1-.1-.1-.2-.3-.1-.2-.1-.1.1v.1l.1.4v.6l.1.3.2.4.2.5.4.2v.1l-.3.2-.5.1h-.1v.5l.1.4.1.2v.5l.2.2.2.1.1.2v.6l.3.2.6.9.2.4.1.3.1.5-.4.5-.1.2.2.3.1.2.3.1.4.3.3-.1v.1l1.2 1 .3.2.2.1.8.7.4.3v.2l.2.1.4.4.3.2v.7l.4.2.3.6.1 1.2-.1.2v.4l5.6.6v.3h.2l.3-.3.1-.1V300l-.3-.1v-.2l.3-.2.1-.4.1-.6.1-.7.2-.3.1-.3.5-.1.4-.1.1-.1v-.2l-.1-.1-.2-.1.2-.1v-.2l-.2-.2-.2-.2z"/></g><g><path fill="#BCBEC0" d="M238.6 275.8c0-1.3 1-2.4 2.4-2.4s2.4 1 2.4 2.4-1.1 2.4-2.4 2.4c-1.3 0-2.4-1-2.4-2.4m-2.5 0c0 .9.2 1.7.7 2.4l.1.1c.1.1.2.4.4.5l3.8 5.4 3.7-5.3c.7-.8 1.1-1.9 1.1-3.1 0-2.6-2.2-4.8-4.8-4.8-2.8 0-5 2.2-5 4.8"/><path stroke="#fff" stroke-miterlimit="10" d="M238.6 275.8c0-1.3 1-2.4 2.4-2.4s2.4 1 2.4 2.4-1.1 2.4-2.4 2.4c-1.3 0-2.4-1-2.4-2.4" fill="none"/></g><g><g><path stroke="#FBFAEF" stroke-width="3.041" stroke-miterlimit="10" d="M231.9 281.6c-1.6 24.8-23 43.8-47.9 42.3-24.8-1.6-43.8-23-42.3-47.9 1.6-24.8 23-43.8 47.9-42.3 25 1.6 43.9 23.1 42.3 47.9" fill="none"/><path opacity=".5" fill="#FBFAEF" enable-background="new" d="M218.6 246.3l24.9 35c-1.5-1.1-3.8-1.8-5.4.7-.8 1.3-.5 4.1 2.2 5 1 .4 2 .1 2.6-.4-5.4 5.4-19.6 19.1-27.2 26.7 23.2-22.4 20.4-44.7 2.9-67z"/></g><path stroke="#FBFAEF" stroke-miterlimit="10" d="M244.3 285c-.6 1.2-1.8 2-3.2 2-.5 0-1-.2-1.5-.4-1.7-.8-2.5-2.9-1.7-4.6s2.8-2.5 4.6-1.7c1.8.9 2.5 2.9 1.8 4.7z" fill="none"/></g><g><g><path fill="#fff" d="M179.3 269.7c-1.5-1.3-1.5.6-3-.8.6-2-1.5-1.5-1.5-3h-4.4c-1.6-3.1-5.5-3.9-7.4-6.8-1 1.1-3.8.7-5.9.8.4-2.7-.6-4.4-1.5-5.9-.1-.1-.7-1.5-.8-1.5-.4-.1-1.3.2-1.5 0-1.6-1.3-3.4-4-5.9-5.2-1-3.4 1.5-3.5-.4-4.6.1-1.1-1.6-4-.5-4.4.8-.4.6-1.3 1.5-1.5 1.8-.4 4 .2 5.9 0 1.4-.2 2.2-1.1 3.8-1.5 2.9-.6 5.9.5 8.9 0 2.2 2.2 2.2 6.6 5.9 7.4.7 2.7-1.3 4 0 5.2-.4 1.5 2.9 1.7 3 3.8.1 1.9 1.4 1.3 1.5 3 0 1.1.4 1.5.8 2.2.4.7 2 1.7 2.2 2.2.2.7-.6 3.3 0 3.8.1.2 1.7 1.4 1.5 3-.4 2.5-2.1 1-2.2 3.8z"/><path fill="none" d="M152 249.8h24.4v4.9H152z"/><text transform="translate(156.03 253.776)" fill="#0479AE" font-family="'Ubuntu-Bold'" font-size="3.75">SONOMA</text></g><g><path fill="#fff" d="M161.4 267.5c2 .5 1.6 3.5 3.8 3.8 1.8 0-.6-1.7-.8-2.2-.5-1-.2-2-.8-3-1-1.7-2.4-3.1-3.8-3.8-.1-1.6 2.6-.4 3.8-.8 0 .7.9.6 1.5.8-.2 3 3.5 2 3.8 4.4 2.4-.4 2.6 1.3 5.2.8.5 1.4 1.4 2.2 2.2 3.8.5.8.2 3.1.8 3.8 1.7 1.7-.7.9 0 3.8.1.4.8.9.8.8.1 1.1-2.2 3 0 3-1.5 2.2-3.9-1-4.4-2.2-1.5.6-1.7-1.3-2.2-1.5s-1.1.6-.8.8c-.8-.5-4.4-2.8-4.4-4.4-.1-2-4.6 0-3.8-3.8-2.4-.7-1.1 2.4-2.2 3-1.9-1.9 1.5-4.5 1.3-7.1z"/><path fill="none" d="M158.5 271.9h24.4v4.9h-24.4z"/><text transform="translate(164.92 275.916)" fill="#0479AE" font-family="'Ubuntu-Bold'" font-size="3.75">MARIN</text></g><g><path fill="#fff" d="M173.2 245.1c1.4-1.3 3.8-1.7 5.9-2.2 2.4-1.6 1.5-6.4 5.9-5.9.7 2 .9 4.6 2.2 5.9-.4 1.5 1.1 1.6 1.5 2.2.6 1-.4 2.7 1.5 2.2.2 4.1.2 4.1 0 8.2-.2 2.2 1.7 2.2 1.5 4.4h-4.4c-.7 3.8 0 4.4-.8 7.4h-3.8c.4-2.9-1.4-3.7-.8-6.8-.2-.9-1.1-1.6-1.5-2.2-.4-.5-1.3-1.1-1.5-1.5-.6-.9-.2-2-.8-3-.5-.8-1.7-.8-2.2-1.5-.7-1.1.1-4.4-3-3.8.3-.9.3-2.2.3-3.4z"/><path fill="none" d="M171.9 251.5h24.4v4.9h-24.4z"/><text transform="translate(178.873 255.543)" fill="#0479AE" font-family="'Ubuntu-Bold'" font-size="3.75">NAPA</text></g><g><path fill="#fff" d="M206.1 251.8v9.7c.2 1.1 1.8.6 3 .8.9 4.1-1.8 4.6-3.8 5.9.2 1.8-1.1 2.2-1.5 3.8-2.7-.6-3.9.8-5.2.8-.2 0 .2-1.3 0-1.5-.8-.7-2 1.4-3 .8-.2-1.3.7-1.3.8-2.2-.2-.8-1.5-.5-1.5-1.5-2.8-.2-2.4 3.1-3.8 4.4-3.3-.1-5.7-1.3-7.4-3 .1-1.6 3.2-.4 4.4-.8-.2-3 1.4-4.1.8-7.4 1.8.2 3.5.2 4.4-.8-.2-3.3-2.2-4.6-1.5-8.9 2-.6 1.5 1.5 3 1.5 3.1-2.8 6.2-1.6 11.3-1.6z"/><path fill="none" d="M187 262.5h24.4v4.9H187z"/><text transform="translate(190.977 266.384)" fill="#0479AE" font-family="'Ubuntu-Bold'" font-size="3.75">SOLANO</text></g><g><path fill="#fff" d="M207.6 272.7c.9-.1 1.3.2 1.5.8-.2.9.2 1.4.8 1.5-.8 2.4-.1 1.7 0 4.4.4 2.2-1.7 3.1.8 3.8 0 1.1-1.5.5-2.2.8-.4.2-1.1 1.4-1.5 1.5-1.3.5-3.2.6-5.2.8-1.8.9-3.7 1.8-5.9 2.2-.8-1-.7-2.7-1.5-3.8-1.7 0-2.2-1.3-4.4-.8-1.1-1.7-2.4-3.1-3.8-4.4-1.9 0-4.2.2-5.2-.8.8-1 1.3-2.2 2.2-3 1.3.7 1.8-1.3 3-1.5 1.7-.2 2.6.8 4.4.8 1.9 0 3.8-.9 5.9-.8 1.6.2 3 1 4.4 1.5 1.7.5 3.7 0 4.4 1.5 1.9-.5 1.7-2.8 2.3-4.5z"/><path fill="none" d="M186.5 279.6h34.9v4.9h-34.9z"/><text transform="translate(188.933 282.956)" fill="#0479AE" font-family="'Ubuntu-Bold'" font-size="3.75">CONTRA COSTA</text></g><g><path fill="#fff" d="M184.4 280.9c1.3.9 3 1.5 3 3.8 1.7.2 2.7 1.1 5.2.8.8 1.5 1.3 3.2 3 3.8 5.6-.4 9.5-2.5 14.2-3.8.7 4.2-1.6 11.6 1.5 13.4-1.1 1.5-3.5.7-5.2.8-3.9.2-8.2.4-12 .8-1.3-1-2.4-2-3.8-3-.4-1.8-1.1-3.5-.8-5.9-.2-1.7-2.6-1.4-2.2-3.8-.2-2-2.7-1.3-3.8-2.2.3-1.9 1.5-2.4.9-4.7z"/><path fill="none" d="M187 293.2h29.6v4.9H187z"/><text transform="translate(193.166 296.495)" fill="#0479AE" font-family="'Ubuntu-Bold'" font-size="3.75">ALAMEDA</text></g><g><path fill="#fff" d="M215 315.9c1.7-.2 2.7-1.1 5.2-.8.6 1.1.8.9 1.5 3-.2-.4-1.1.5-.8.8 0 0 1.5.9 1.5.8-.2 1.3-2.2 2.5-2.2 4.4-3 .2-5.5 0-6.8-1.5-.2 1-2.2.2-2.2 1.5-.2 1-1.3 1.1-1.5 2.2-4-.8-4.8-5.3-7.4-7.4-.2-.2-1.3.2-1.5 0s-.6-1.3-.8-1.5-1.3.2-1.5 0 .1-.7 0-.8c-.2-.1-1.3.2-1.5 0s-1.1-1.6-3-1.5c-1.1-2.6-3-4.4-5.2-5.9-.2-2.5-1.1-4.2-.8-7.4 2.7-.6 6.3.1 9.7 0 1.3 0 1.3-.6 2.2-.8 4-.6 8.5.7 12-.8.4.5.5.8.8 1.5.2.2-.2 1.4 0 1.5.2.2.7-.1.8 0 .1.2-.2 1.3 0 1.5.6.5 1.9 0 1.5 1.5.8 2.4-1.1 1.8-1.5 3-.8 3.5 2.3 3.2 1.5 6.7z"/><path fill="none" d="M191.4 310.9h34.9v4.9h-34.9z"/><text transform="translate(195.607 314.117)" fill="#0479AE" font-family="'Ubuntu-Bold'" font-size="3.75">SANTA CLARA</text></g><g><path fill="#fff" d="M177.8 284.7c2.7-.5 3.3 1.1 3 3.8H177c-.2-1.9.1-3 .8-3.8z"/><path stroke="#0479AE" stroke-miterlimit="10" fill="none" d="M166.4 286.4h12.5"/><g fill="#0479AE" font-family="'Ubuntu-Bold'" font-size="3.75"><text transform="translate(155.252 284.405)">SAN</text><text transform="translate(141.553 288.905)">FRANCISCO</text></g></g><g><path fill="#fff" d="M180 304.8c-.2-2-1.4-3.5-1.5-5.2-.1-1.3-2.5-.5-2.2-2.2-.1-3.1 1.3-4.7.8-8.2h3.8c-.2 2.2-.2 4.8 1.5 5.9.7.5 2.2.2 3 .8 1.8 1.3 2.2 4.1 4.4 3.8-.7 1.3-2.7 1.3-3 3 .1 1 .1 2-.8 2.2l-6-.1z"/><g fill="#0479AE" font-family="'Ubuntu-Bold'" font-size="3.75"><text transform="translate(158.002 294.918)">SAN</text><text transform="translate(152.102 299.418)">MATEO</text></g><path stroke="#0479AE" stroke-miterlimit="10" fill="none" d="M169.3 296.9h10.1"/></g><g><path fill="#fff" d="M185.9 304.8c.5 2.5 2.6 3.3 2.2 6.8h-3c-.9 1.3-2.5 2-4.4 2.2-2.6-2.2-.4-5.7-.8-8.9l6-.1z"/><text transform="translate(158.223 309.582)" fill="#0479AE" font-family="'Ubuntu-Bold'" font-size="3.75">SANTA</text><text transform="translate(161.673 314.982)" fill="#0479AE" font-family="'Ubuntu-Bold'" font-size="3.75">CRUZ</text><path stroke="#0479AE" stroke-miterlimit="10" fill="none" d="M175.9 308.3h7.8"/></g></g></g></svg>