<?xml version="1.0" encoding="utf-8"?>
<!-- Generator: Adobe Illustrator 16.2.0, SVG Export Plug-In . SVG Version: 6.00 Build 0)  -->
<!DOCTYPE svg PUBLIC "-//W3C//DTD SVG 1.1//EN" "http://www.w3.org/Graphics/SVG/1.1/DTD/svg11.dtd">
<svg version="1.1" id="Layer_1" xmlns="http://www.w3.org/2000/svg" xmlns:xlink="http://www.w3.org/1999/xlink" x="0px" y="0px"
	 width="41.935px" height="41.936px" viewBox="0 0 41.935 41.936" enable-background="new 0 0 41.935 41.936" xml:space="preserve">
<g>
	<defs>
		<circle id="SVGID_1_" cx="20.967" cy="20.968" r="20"/>
	</defs>
	<clipPath id="SVGID_2_">
		<use xlink:href="#SVGID_1_"  overflow="visible"/>
	</clipPath>
	
		<circle clip-path="url(#SVGID_2_)" fill="#4A494A" stroke="#6D6E70" stroke-width="1.9349" stroke-miterlimit="10" cx="20.967" cy="20.968" r="20"/>
	<g clip-path="url(#SVGID_2_)">
		<path fill="#FFFFFF" d="M25.386,7.611l-2.232,1.306h-2.232c1.637,1.025,2.464,3.026,2.464,4.878c0,4.382-3.704,4.712-3.704,6.895
			c0,2.134,4.96,2.977,4.96,7.606c0,1.901-0.91,3.438-2.315,4.662c-1.901,1.638-4.498,2.167-6.944,2.167
			c-3.092,0-7.557-1.324-7.557-5.159c0-0.777,0.265-1.538,0.612-2.232c1.471-2.976,6.068-3.736,9.028-3.819
			c-0.546-0.711-1.059-1.538-1.059-2.464c0-0.546,0.199-0.909,0.364-1.422c-0.396,0.05-0.777,0.083-1.157,0.083
			c-3.208,0-5.986-2.365-5.986-5.688c0-3.143,2.431-5.82,5.44-6.481c1.009-0.216,2.05-0.331,3.092-0.331H25.386z M18.458,24.939
			c-0.282-0.033-0.546-0.033-0.827-0.033c-2.712,0-6.747,0.86-6.747,4.299c0,3.174,3.572,4.398,6.217,4.398
			c2.463,0,5.208-0.992,5.208-3.886C22.311,27.403,20.145,26.113,18.458,24.939z M15.912,8.801c-2.166,0-3.225,1.919-3.225,3.869
			c0,2.514,1.654,6.449,4.598,6.449c2.265,0,3.042-1.637,3.042-3.653C20.326,12.952,18.971,8.801,15.912,8.801z M35.34,13.96h-4.233
			v4.233h-2.117V13.96h-4.233v-2.116h4.233V7.611h2.117v4.232h4.233V13.96z"/>
	</g>
	<use xlink:href="#SVGID_1_"  overflow="visible" fill="none" stroke="#6D6E70" stroke-width="1.9349" stroke-miterlimit="10"/>
</g>
</svg>
