<?xml version="1.0" encoding="utf-8"?>
<!-- Generator: Adobe Illustrator 16.2.0, SVG Export Plug-In . SVG Version: 6.00 Build 0)  -->
<!DOCTYPE svg PUBLIC "-//W3C//DTD SVG 1.1//EN" "http://www.w3.org/Graphics/SVG/1.1/DTD/svg11.dtd">
<svg version="1.1" id="Layer_1" xmlns="http://www.w3.org/2000/svg" xmlns:xlink="http://www.w3.org/1999/xlink" x="0px" y="0px"
	 width="86.691px" height="86.69px" viewBox="0 0 86.691 86.69" enable-background="new 0 0 86.691 86.69" xml:space="preserve">
<g>
	<defs>
		<circle id="SVGID_1_" cx="43.346" cy="43.346" r="41.346"/>
	</defs>
	<clipPath id="SVGID_2_">
		<use xlink:href="#SVGID_1_"  overflow="visible"/>
	</clipPath>
	
		<circle clip-path="url(#SVGID_2_)" fill="#4A494A" stroke="#6D6E70" stroke-width="4" stroke-miterlimit="10" cx="43.346" cy="43.346" r="41.346"/>
	<g clip-path="url(#SVGID_2_)">
		<path fill="#FFFFFF" stroke="#5A5B5C" stroke-width="2" stroke-miterlimit="10" d="M20.591,43.728l-0.008,12.396
			c-0.004,5.877,14.064,11.27,23.373,11.268c9.557-0.001,24.69-5.66,23.155-11.236l0.008-12.537"/>
		<polygon fill="#FFFFFF" stroke="#5A5B5C" stroke-width="2" stroke-miterlimit="10" points="4.699,36.697 43.98,19.344 
			83.251,36.75 43.965,53.478 		"/>
		<line fill="none" stroke="#FFFFFF" stroke-miterlimit="10" x1="78.522" y1="38.763" x2="78.514" y2="53.501"/>
		<path fill="#FFFFFF" d="M78.511,57.315l-3.106,4.261c-0.523,0.718-0.049,1.769,0.797,1.769l4.848,0.004
			c0.863,0,1.333-1.088,0.776-1.799L78.511,57.315z"/>
		<ellipse fill="#FFFFFF" cx="78.512" cy="55.418" rx="2.29" ry="2.467"/>
	</g>
	<use xlink:href="#SVGID_1_"  overflow="visible" fill="none" stroke="#6D6E70" stroke-width="4" stroke-miterlimit="10"/>
</g>
</svg>
