<?xml version="1.0" encoding="utf-8"?>
<!-- Generator: Adobe Illustrator 17.1.0, SVG Export Plug-In . SVG Version: 6.00 Build 0)  -->
<!DOCTYPE svg PUBLIC "-//W3C//DTD SVG 1.1//EN" "http://www.w3.org/Graphics/SVG/1.1/DTD/svg11.dtd">
<svg version="1.1" id="Layer_1" xmlns="http://www.w3.org/2000/svg" xmlns:xlink="http://www.w3.org/1999/xlink" x="0px" y="0px"
	 viewBox="0 0 86.7 86.7" enable-background="new 0 0 86.7 86.7" xml:space="preserve">
<g>
	<defs>
		<circle id="SVGID_1_" cx="43.3" cy="43.3" r="41.3"/>
	</defs>
	<clipPath id="SVGID_2_">
		<use xlink:href="#SVGID_1_"  overflow="visible"/>
	</clipPath>
	
		<circle clip-path="url(#SVGID_2_)" fill="#4B4A4B" stroke="#6E6F71" stroke-width="4" stroke-miterlimit="10" cx="43.3" cy="43.3" r="41.3"/>
	<g clip-path="url(#SVGID_2_)">
		<path fill-rule="evenodd" clip-rule="evenodd" fill="#FFFFFF" stroke="#6E6F71" stroke-width="2" stroke-miterlimit="10" d="
			M14.9,26c1.6-0.6,3,0.9,3.8,4.7c0.8,3.8,1.5,5.8-0.1,6.3c-1.6,0.6-3.4-0.9-4.5-4.7C12.9,28.5,13.3,26.6,14.9,26L14.9,26z M56.1,26
			c-1.6-0.6-3,0.9-3.8,4.7c-0.8,3.8-1.5,5.8,0.1,6.3c1.6,0.6,3.4-0.9,4.5-4.7C58.1,28.5,57.7,26.6,56.1,26L56.1,26z"/>
		<path fill-rule="evenodd" clip-rule="evenodd" fill="#6E6F71" stroke="#6E6F71" d="M7,84.3c-5.3,0-5.2-1.3-4.8-5.6
			c0.6-5.8,1.5-11.7,3.3-17.2c1.5-4.6,2.9-6.2,8.7-6.9c9-1.1,11.9-4.5,21.4-4.5c9.6,0,12.5,3.3,21.4,4.5c5.8,0.7,7.2,2.2,8.7,6.9
			c1.8,5.6,2.7,11.5,3.3,17.2c0.4,4.2,0.4,5.6-4.8,5.6H7L7,84.3z"/>
		<path fill-rule="evenodd" clip-rule="evenodd" fill="#FFFFFF" d="M7,82.8h5.8c0-5.9-0.1-12.8-0.7-18.6c2.5,2.9,2.8,14.9,2.9,18.6
			h41.2c0.1-3.8,0.4-15.7,2.9-18.6C58.5,70,58.4,77,58.4,82.8h5.8c4,0,3.7-0.3,3.4-3.9c-0.6-5.7-1.5-11.5-3.2-16.9
			c-1.4-4.5-2.7-5.3-7.4-5.9c-3.4-0.4-6.2-1.3-9.4-2.3v0.5c0,10.3-23.9,10.3-23.9,0v-0.4c-3.1,1-5.9,1.8-9.3,2.2
			c-4.7,0.6-6,1.4-7.4,5.9c-1.7,5.5-2.7,11.2-3.2,16.9C3.3,82.6,3,82.8,7,82.8L7,82.8z"/>
		<path fill-rule="evenodd" clip-rule="evenodd" fill="#FFFFFF" stroke="#6E6F71" stroke-width="2" d="M25.5,30.6h19.9v23.7
			c0,7.6-19.9,7.6-19.9,0V30.6L25.5,30.6z"/>
		<path fill-rule="evenodd" clip-rule="evenodd" fill="#FFFFFF" stroke="#6E6F71" stroke-width="2" stroke-miterlimit="10" d="
			M35.5,5.4c13.7,0,18.2,7.9,18.2,20.8c0,12.8-3,25.4-18.2,25.4c-15.2,0-18.3-12.6-18.3-25.4C17.2,13.3,21.8,5.4,35.5,5.4L35.5,5.4z
			"/>
		<path fill-rule="evenodd" clip-rule="evenodd" fill="#FFFFFF" stroke="#6E6F71" stroke-width="2" stroke-linejoin="round" d="
			M35.5,2.8c8.5,0,14.5,2.9,17,7.7c2.5,4.9,4,19.1,0.7,24c0.1-5.8-0.9-15.1-7.2-18.2c-3.5,1.3-7,2.8-10.5,2.8c-3.5,0-7-1.4-10.4-2.7
			c-6.3,3.1-7.3,12.5-7.2,18.4c-3.4-4.5-2-19.2,0.6-24.1C20.9,5.7,27,2.8,35.5,2.8L35.5,2.8z"/>
		<path fill-rule="evenodd" clip-rule="evenodd" fill="#FFFFFF" d="M23.6,53.8c-3.1,1-5.9,1.8-9.3,2.2c-4,0.5-5.6,1.2-6.8,4.2
			c2.4-1.5,4.2-1.4,6.8-1.7c3.4-0.4,6.6-1.2,9.7-1.9c-0.3-0.7-0.5-1.5-0.5-2.4V53.8L23.6,53.8z"/>
		<g>
			<g>
				<path fill-rule="evenodd" clip-rule="evenodd" fill="#5A5A5C" d="M73.1,51.5c0,2.2,0,5.8,0,8l0,0.5c0,2.2-1.6,3.1-3.5,2
					l-0.5-0.3c-1.9-1.1-5-2.9-6.9-4l-0.5-0.3c-1.9-1.1-1.9-2.9,0-4l0.5-0.3c1.9-1.1,5-2.9,6.9-4l0.5-0.3c1.9-1.1,3.5-0.2,3.5,2V51.5
					z"/>
				<path fill="none" stroke="#5A5A5C" stroke-width="3" stroke-miterlimit="10" d="M73.1,51.5c0,2.2,0,5.8,0,8l0,0.5
					c0,2.2-1.6,3.1-3.5,2l-0.5-0.3c-1.9-1.1-5-2.9-6.9-4l-0.5-0.3c-1.9-1.1-1.9-2.9,0-4l0.5-0.3c1.9-1.1,5-2.9,6.9-4l0.5-0.3
					c1.9-1.1,3.5-0.2,3.5,2V51.5z"/>
				<path fill-rule="evenodd" clip-rule="evenodd" fill="#5A5A5C" d="M64.7,61.6c0,2.2-1.8,4-4,4H42.6c-2.2,0-4-1.8-4-4V48.9
					c0-2.2,1.8-4,4-4h18.1c2.2,0,4,1.8,4,4V61.6z"/>
				<path fill="none" stroke="#5A5A5C" stroke-width="3" stroke-miterlimit="10" d="M64.7,61.6c0,2.2-1.8,4-4,4H42.6
					c-2.2,0-4-1.8-4-4V48.9c0-2.2,1.8-4,4-4h18.1c2.2,0,4,1.8,4,4V61.6z"/>
			</g>
			<g>
				<g>
					<g>
						<path fill-rule="evenodd" clip-rule="evenodd" fill="#FFFFFF" d="M75.1,49.5c0,2.2,0,5.8,0,8l0,0.5c0,2.2-1.6,3.1-3.5,2
							l-0.5-0.3c-1.9-1.1-5-2.9-6.9-4l-0.5-0.3c-1.9-1.1-1.9-2.9,0-4l0.5-0.3c1.9-1.1,5-2.9,6.9-4l0.5-0.3c1.9-1.1,3.5-0.2,3.5,2
							V49.5z"/>
						<path fill="none" stroke="#6E6F71" stroke-width="3" stroke-miterlimit="10" d="M75.1,49.5c0,2.2,0,5.8,0,8l0,0.5
							c0,2.2-1.6,3.1-3.5,2l-0.5-0.3c-1.9-1.1-5-2.9-6.9-4l-0.5-0.3c-1.9-1.1-1.9-2.9,0-4l0.5-0.3c1.9-1.1,5-2.9,6.9-4l0.5-0.3
							c1.9-1.1,3.5-0.2,3.5,2V49.5z"/>
					</g>
					<g>
						<path fill-rule="evenodd" clip-rule="evenodd" fill="#FFFFFF" d="M66.7,59.6c0,2.2-1.8,4-4,4H44.6c-2.2,0-4-1.8-4-4V46.9
							c0-2.2,1.8-4,4-4h18.1c2.2,0,4,1.8,4,4V59.6z"/>
						<path fill="none" stroke="#6E6F71" stroke-width="3" stroke-miterlimit="10" d="M66.7,59.6c0,2.2-1.8,4-4,4H44.6
							c-2.2,0-4-1.8-4-4V46.9c0-2.2,1.8-4,4-4h18.1c2.2,0,4,1.8,4,4V59.6z"/>
					</g>
				</g>
			</g>
		</g>
	</g>
	<use xlink:href="#SVGID_1_"  overflow="visible" fill="none" stroke="#6E6F71" stroke-width="4" stroke-miterlimit="10"/>
</g>
</svg>
