<?xml version="1.0" encoding="utf-8"?>
<!-- Generator: Adobe Illustrator 17.1.0, SVG Export Plug-In . SVG Version: 6.00 Build 0)  -->
<!DOCTYPE svg PUBLIC "-//W3C//DTD SVG 1.1//EN" "http://www.w3.org/Graphics/SVG/1.1/DTD/svg11.dtd">
<svg version="1.1" id="Layer_1" xmlns="http://www.w3.org/2000/svg" xmlns:xlink="http://www.w3.org/1999/xlink" x="0px" y="0px"
	 viewBox="0 0 31 31" enable-background="new 0 0 31 31" xml:space="preserve">
<g>
	<circle fill="#5FA9DD" cx="15.5" cy="15.5" r="15"/>
	<g>
		<path fill="#FFFFFF" d="M21.4,12.8c0,0.1,0,0.2,0,0.4c0,3.6-2.8,7.8-7.8,7.8c-1.6,0-3-0.5-4.2-1.2c0.2,0,0.4,0,0.7,0
			c1.3,0,2.5-0.4,3.4-1.2c-1.2,0-2.2-0.8-2.6-1.9c0.2,0,0.3,0,0.5,0c0.2,0,0.5,0,0.7-0.1c-1.3-0.3-2.2-1.4-2.2-2.7c0,0,0,0,0,0
			c0.4,0.2,0.8,0.3,1.2,0.4c-0.7-0.5-1.2-1.3-1.2-2.3c0-0.5,0.1-1,0.4-1.4c1.4,1.7,3.4,2.8,5.7,2.9c0-0.2-0.1-0.4-0.1-0.6
			c0-1.5,1.2-2.8,2.8-2.8c0.8,0,1.5,0.3,2,0.9c0.6-0.1,1.2-0.3,1.7-0.7c-0.2,0.6-0.6,1.2-1.2,1.5c0.6-0.1,1.1-0.2,1.6-0.4
			C22.4,11.9,21.9,12.4,21.4,12.8z"/>
	</g>
</g>
</svg>
