<svg version="1.1"
   x="0px" y="0px" width="34.6px" height="34.6px" viewBox="0 0 34.6 34.6" enable-background="new 0 0 34.6 34.6">
<defs>
</defs>
<path fill="white" d="M29.5,5.1C26.3,1.8,21.9,0,17.3,0S8.4,1.8,5.1,5.1C1.8,8.3,0,12.7,0,17.3s1.8,8.9,5.1,12.2c3.2,3.3,7.6,5.1,12.2,5.1
  s8.9-1.8,12.2-5.1c3.3-3.2,5.1-7.6,5.1-12.2S32.8,8.4,29.5,5.1z M17.3,33.4c-8.9,0-16.1-7.2-16.1-16.1S8.4,1.2,17.3,1.2
  s16.1,7.2,16.1,16.1S26.2,33.4,17.3,33.4z M30.5,17.3c0,0.5,0,1-0.1,1.5H17.6v-3h12.8C30.5,16.3,30.5,16.8,30.5,17.3z M17.5,21.7
  h12.2c-0.4,1-0.9,2-1.5,2.9H17.5V21.7z M17.5,27.5h8c-2.2,1.8-4.9,2.9-8,2.9V27.5z M29.7,12.9H17.5V10h10.7
  C28.8,10.9,29.3,11.9,29.7,12.9z M25.5,7.1h-8V4.2C20.5,4.2,23.3,5.3,25.5,7.1z M4.1,17.3c0,7.2,5.8,13,12.9,13.1V4.2
  c-3.4,0-6.6,1.4-9,3.8C5.5,10.5,4.1,13.8,4.1,17.3z M10.3,10.3V8.5l1.1,1.5l1.7-0.6l-1,1.5l1.1,1.5l-1.7-0.6l-1.1,1.5v-1.8l-1.8-0.6
  L10.3,10.3z M10.3,16.6v-1.8l1.1,1.5l1.7-0.6l-1,1.5l1.1,1.5l-1.7-0.6l-1.1,1.5v-1.8l-1.8-0.6L10.3,16.6z M10.3,23.2v-1.8l1.1,1.5
  l1.7-0.6l-1,1.5l1.1,1.5l-1.7-0.6l-1.1,1.5v-1.8l-1.8-0.6L10.3,23.2z"/>
</svg>
