<svg version="1.1"
	 x="0px" y="0px" width="34.8px" height="34.8px" viewBox="0 0 34.8 34.8" enable-background="new 0 0 34.8 34.8">
<defs>
</defs>
<path fill="white" d="M34.8,17.4c0,4.6-1.8,9-5.1,12.3s-7.6,5.1-12.3,5.1c-4.6,0-9-1.8-12.3-5.1S0,22.1,0,17.4c0-4.6,1.8-9,5.1-12.3
	S12.7,0,17.4,0c4.6,0,9,1.8,12.3,5.1C33,8.5,34.8,12.8,34.8,17.4 M1.4,17.4c0,8.9,7.2,16.1,16.1,16.1c8.9,0,16.1-7.2,16.1-16.1
	S26.4,1.3,17.5,1.3S1.4,8.5,1.4,17.4 M12.4,5.3c-1.6,0.7-3,1.6-4.2,2.8S6,10.7,5.4,12.3c-0.7,1.6-1,3.4-1,5.1c0,1.8,0.3,3.5,1,5.1
	s1.6,3,2.8,4.2s2.6,2.2,4.2,2.8c1.6,0.7,3.4,1,5.1,1c1.8,0,3.5-0.3,5.1-1s3-1.6,4.2-2.8s2.2-2.6,2.8-4.2c0.7-1.6,1-3.4,1-5.1
	c0-1.8-0.3-3.5-1-5.1s-1.6-3-2.8-4.2s-2.6-2.2-4.2-2.8c-1.6-0.7-3.4-1-5.1-1C15.7,4.3,14,4.6,12.4,5.3 M29.2,17.5
	c0,1.4-1.2,2.8-3.3,3.8c-0.5,0.2-0.9,0.4-1.4,0.6V13c0.5,0.2,1,0.4,1.4,0.6C28.1,14.7,29.2,16.1,29.2,17.5 M23,22.4
	c-1.5,0.4-3.1,0.6-4.7,0.7V11.9c1.7,0.1,3.3,0.3,4.7,0.7V22.4z M18.3,29.4v-5c1.7,0,3.3-0.3,4.7-0.6v4.3
	C21.6,28.8,20,29.3,18.3,29.4 M5.8,17.5c0-1.4,1.2-2.8,3.3-3.8c0.6-0.3,1.3-0.6,2-0.8v9.3c-0.7-0.2-1.4-0.5-2-0.8
	C7,20.2,5.8,18.9,5.8,17.5 M12.6,12.4c1.3-0.3,2.7-0.5,4.2-0.5V23c-1.5,0-2.9-0.2-4.2-0.5V12.4z M16.8,24.3v5
	c-1.5-0.1-2.9-0.5-4.2-1.1v-4.5C13.9,24.1,15.3,24.3,16.8,24.3 M18.3,10.6v-5C20,5.7,21.6,6.2,23,6.9v4.3
	C21.5,10.9,19.9,10.7,18.3,10.6 M16.8,10.6c-1.5,0-2.9,0.2-4.2,0.5V6.6c1.3-0.6,2.7-1,4.2-1.1V10.6z M11,7.5v4
	c-0.9,0.3-1.8,0.6-2.5,1c-1,0.5-1.8,1.1-2.4,1.7C6.9,11.4,8.7,9,11,7.5 M6.1,20.8c0.6,0.6,1.4,1.2,2.4,1.7c0.8,0.4,1.6,0.7,2.5,1v4
	C8.7,25.9,6.9,23.6,6.1,20.8 M24.5,27.1v-3.8c0.7-0.2,1.4-0.5,2-0.8c1-0.5,1.8-1.1,2.4-1.7C28.2,23.3,26.6,25.6,24.5,27.1 M29,14.2
	c-0.6-0.6-1.4-1.2-2.4-1.7c-0.6-0.3-1.3-0.6-2-0.8V7.9C26.6,9.4,28.2,11.6,29,14.2"/>
</svg>
