<?xml version="1.0" encoding="utf-8"?>
<!-- Generator: Adobe Illustrator 16.0.0, SVG Export Plug-In . SVG Version: 6.00 Build 0)  -->
<!DOCTYPE svg PUBLIC "-//W3C//DTD SVG 1.1//EN" "http://www.w3.org/Graphics/SVG/1.1/DTD/svg11.dtd">
<svg version="1.1" id="Layer_1" xmlns="http://www.w3.org/2000/svg" xmlns:xlink="http://www.w3.org/1999/xlink" x="0px" y="0px"
	 width="52.443px" height="57px" viewBox="0 0 52.443 57" enable-background="new 0 0 52.443 57" xml:space="preserve">
<path fill="#266B86" d="M26.941,40.699H7.122c-0.469,0-0.848-0.379-0.848-0.848s0.378-0.85,0.848-0.85h19.47l11.297-11.295
	c0.158-0.159,0.374-0.248,0.599-0.248h7.107c0.467,0,0.845,0.38,0.845,0.846c0,0.468-0.378,0.848-0.845,0.848h-6.758l-11.297,11.3
	C27.382,40.61,27.166,40.699,26.941,40.699z"/>
<path fill="#266B86" stroke="#266B86" stroke-width="0.2" stroke-miterlimit="10" d="M41.646,55.601H11.148
	c-2.802,0-5.082-2.279-5.082-5.081V6.042c0-2.804,2.28-5.084,5.082-5.084h30.499c2.802,0,5.081,2.28,5.081,5.084V50.52
	C46.727,53.321,44.448,55.601,41.646,55.601z M11.148,2.651c-1.868,0-3.388,1.521-3.388,3.391V50.52c0,1.865,1.52,3.387,3.388,3.387
	h30.499c1.868,0,3.389-1.521,3.389-3.387V6.042c0-1.87-1.521-3.391-3.389-3.391H11.148z"/>
<path fill="#69A1B2" d="M31.725,55.812c-0.235,0-0.473-0.097-0.641-0.289L17.982,40.449c-0.276-0.32-0.276-0.794-0.002-1.11
	l16.538-19.082V1.95c0-0.466,0.38-0.846,0.849-0.846c0.468,0,0.846,0.38,0.846,0.846v18.623c0,0.203-0.072,0.401-0.206,0.554
	L19.742,39.891l12.621,14.52c0.31,0.354,0.271,0.887-0.082,1.194C32.121,55.745,31.922,55.812,31.725,55.812z"/>
<path fill="#266B86" d="M26.441,39.896c-0.469,0-0.849-0.378-0.849-0.847V22.586l-6.993-7.072c-0.157-0.159-0.246-0.373-0.246-0.595
	v-4.343c0-0.469,0.38-0.846,0.848-0.846c0.466,0,0.846,0.377,0.846,0.846v3.996l6.995,7.071c0.155,0.158,0.244,0.373,0.244,0.596
	V39.05C27.287,39.519,26.906,39.896,26.441,39.896z"/>
<g>
	<path fill="#FFFFFF" d="M20.397,8.697c0,0.609-0.493,1.104-1.106,1.104c-0.606,0-1.1-0.495-1.1-1.104c0-0.61,0.494-1.102,1.1-1.102
		C19.904,7.595,20.397,8.087,20.397,8.697z"/>
	<path fill="#266B86" d="M19.291,7.595c0.613,0,1.106,0.492,1.106,1.102c0,0.609-0.493,1.104-1.106,1.104
		c-0.606,0-1.1-0.495-1.1-1.104C18.191,8.087,18.685,7.595,19.291,7.595 M19.291,6.747c-1.073,0-1.948,0.876-1.948,1.95
		c0,1.076,0.875,1.952,1.948,1.952c1.076,0,1.952-0.876,1.952-1.952C21.243,7.623,20.366,6.747,19.291,6.747L19.291,6.747z"/>
</g>
<g>
	<path fill="#FFFFFF" d="M28.607,30.502c0,1.009-0.815,1.823-1.826,1.823c-1.003,0-1.819-0.814-1.819-1.823
		c0-1.006,0.816-1.82,1.819-1.82C27.792,28.682,28.607,29.496,28.607,30.502z"/>
	<path fill="#266B86" d="M26.781,28.682c1.011,0,1.826,0.814,1.826,1.82c0,1.009-0.815,1.823-1.826,1.823
		c-1.003,0-1.819-0.814-1.819-1.823C24.962,29.496,25.778,28.682,26.781,28.682 M26.781,28.259c-1.237,0-2.242,1.004-2.242,2.243
		c0,1.238,1.005,2.247,2.242,2.247c1.242,0,2.249-1.009,2.249-2.247C29.03,29.263,28.023,28.259,26.781,28.259L26.781,28.259z"/>
</g>
<g>
	<circle fill="#FFFFFF" cx="26.785" cy="30.502" r="1.094"/>
	<path fill="#266B86" d="M26.783,29.408c0.606,0,1.097,0.491,1.097,1.094c0,0.605-0.49,1.096-1.097,1.096
		c-0.602,0-1.092-0.49-1.092-1.096C25.691,29.899,26.181,29.408,26.783,29.408 M26.783,28.986c-0.835,0-1.516,0.679-1.516,1.516
		c0,0.835,0.68,1.52,1.516,1.52c0.838,0,1.521-0.685,1.521-1.52C28.303,29.665,27.621,28.986,26.783,28.986L26.783,28.986z"/>
</g>
<rect x="34.492" y="8.495" fill="#FFFFFF" width="2.397" height="0.425"/>
<rect x="34.492" y="15.277" fill="#FFFFFF" width="2.397" height="0.423"/>
<rect x="32.038" y="33.129" transform="matrix(0.7071 0.7071 -0.7071 0.7071 33.4201 -14.0017)" fill="#FFFFFF" width="3.147" height="0.423"/>
<rect x="21.005" y="17.885" transform="matrix(0.7074 -0.7068 0.7068 0.7074 -6.1837 21.2523)" fill="#FFFFFF" width="3.146" height="0.421"/>
<rect x="17.522" y="12.492" fill="#FFFFFF" width="3.149" height="0.421"/>
<g>
	<path fill="#FFFFFF" d="M19.401,39.891c0,0.432-0.35,0.779-0.781,0.779c-0.429,0-0.777-0.348-0.777-0.779
		c0-0.426,0.349-0.779,0.777-0.779C19.052,39.111,19.401,39.465,19.401,39.891z"/>
	<path fill="#69A1B2" d="M18.62,39.111c0.432,0,0.781,0.354,0.781,0.779c0,0.432-0.35,0.779-0.781,0.779
		c-0.429,0-0.777-0.348-0.777-0.779C17.843,39.465,18.191,39.111,18.62,39.111 M18.62,38.69c-0.663,0-1.203,0.539-1.203,1.2
		c0,0.663,0.54,1.205,1.203,1.205c0.666,0,1.204-0.542,1.204-1.205C19.824,39.229,19.285,38.69,18.62,38.69L18.62,38.69z"/>
</g>
<g>
	<path fill="#FFFFFF" d="M27.284,40c0,0.433-0.347,0.779-0.781,0.779c-0.428,0-0.777-0.347-0.777-0.779
		c0-0.43,0.349-0.781,0.777-0.781C26.937,39.219,27.284,39.57,27.284,40z"/>
	<path fill="#266B86" d="M26.503,39.219c0.434,0,0.781,0.352,0.781,0.781c0,0.433-0.347,0.779-0.781,0.779
		c-0.428,0-0.777-0.347-0.777-0.779C25.726,39.57,26.075,39.219,26.503,39.219 M26.503,38.798c-0.661,0-1.201,0.537-1.201,1.202
		c0,0.661,0.54,1.201,1.201,1.201c0.665,0,1.207-0.54,1.207-1.201C27.71,39.335,27.168,38.798,26.503,38.798L26.503,38.798z"/>
</g>
<g>
	<path fill="#FFFFFF" d="M27.22,22.237c0,0.433-0.352,0.779-0.783,0.779c-0.428,0-0.777-0.346-0.777-0.779
		c0-0.428,0.35-0.777,0.777-0.777C26.869,21.459,27.22,21.809,27.22,22.237z"/>
	<path fill="#266B86" d="M26.437,21.459c0.432,0,0.783,0.35,0.783,0.777c0,0.433-0.352,0.779-0.783,0.779
		c-0.428,0-0.777-0.346-0.777-0.779C25.66,21.809,26.01,21.459,26.437,21.459 M26.437,21.036c-0.663,0-1.201,0.539-1.201,1.201
		c0,0.663,0.538,1.205,1.201,1.205c0.665,0,1.206-0.542,1.206-1.205C27.643,21.575,27.102,21.036,26.437,21.036L26.437,21.036z"/>
</g>
<rect x="13.251" y="38.611" fill="#FFFFFF" width="0.423" height="2.658"/>
<rect x="40.876" y="26.917" fill="#FFFFFF" width="0.424" height="2.772"/>
<rect x="30.32" y="24.154" transform="matrix(0.7065 0.7077 -0.7077 0.7065 26.5135 -15.203)" fill="#FFFFFF" width="2.535" height="0.425"/>
<g>
	<path fill="#FFFFFF" d="M8.019,39.651c0,0.609-0.492,1.102-1.106,1.102c-0.605,0-1.1-0.492-1.1-1.102c0-0.607,0.494-1.1,1.1-1.1
		C7.527,38.552,8.019,39.044,8.019,39.651z"/>
	<path fill="#266B86" d="M6.913,38.552c0.614,0,1.106,0.492,1.106,1.1c0,0.609-0.492,1.102-1.106,1.102
		c-0.605,0-1.1-0.492-1.1-1.102C5.814,39.044,6.308,38.552,6.913,38.552 M6.913,37.702c-1.074,0-1.948,0.874-1.948,1.949
		c0,1.078,0.874,1.95,1.948,1.95c1.078,0,1.952-0.872,1.952-1.95C8.865,38.576,7.991,37.702,6.913,37.702L6.913,37.702z"/>
</g>
<g>
	<circle fill="#FFFFFF" cx="45.844" cy="28.056" r="1.103"/>
	<path fill="#266B86" d="M45.844,26.953c0.611,0,1.104,0.494,1.104,1.104c0,0.609-0.492,1.103-1.104,1.103
		c-0.608,0-1.102-0.494-1.102-1.103C44.742,27.446,45.235,26.953,45.844,26.953 M45.844,26.105c-1.075,0-1.949,0.874-1.949,1.951
		c0,1.073,0.874,1.951,1.949,1.951c1.074,0,1.95-0.878,1.95-1.951C47.794,26.979,46.918,26.105,45.844,26.105L45.844,26.105z"/>
</g>
<g>
	<circle fill="#FFFFFF" cx="35.366" cy="1.95" r="1.103"/>
	<path fill="#69A1B2" d="M35.365,0.848c0.61,0,1.104,0.493,1.104,1.102c0,0.61-0.494,1.104-1.104,1.104
		c-0.608,0-1.102-0.494-1.102-1.104C34.263,1.34,34.757,0.848,35.365,0.848 M35.365,0c-1.076,0-1.95,0.875-1.95,1.95
		c0,1.076,0.874,1.952,1.95,1.952c1.075,0,1.951-0.876,1.951-1.952C37.316,0.875,36.44,0,35.365,0L35.365,0z"/>
</g>
<g>
	<circle fill="#FFFFFF" cx="31.724" cy="54.964" r="1.103"/>
	<path fill="#69A1B2" d="M31.723,53.865c0.611,0,1.104,0.489,1.104,1.099c0,0.608-0.492,1.102-1.104,1.102
		c-0.607,0-1.102-0.493-1.102-1.102C30.622,54.354,31.116,53.865,31.723,53.865 M31.723,53.016c-1.074,0-1.95,0.874-1.95,1.948
		c0,1.079,0.876,1.951,1.95,1.951c1.076,0,1.952-0.872,1.952-1.951C33.676,53.89,32.8,53.016,31.723,53.016L31.723,53.016z"/>
</g>
<rect x="22.697" y="46.7" transform="matrix(0.7077 -0.7065 0.7065 0.7077 -26.0492 30.8577)" fill="#FFFFFF" width="3.147" height="0.424"/>
</svg>
