<?xml version="1.0" encoding="utf-8"?>
<!-- Generator: Adobe Illustrator 16.2.0, SVG Export Plug-In . SVG Version: 6.00 Build 0)  -->
<!DOCTYPE svg PUBLIC "-//W3C//DTD SVG 1.1//EN" "http://www.w3.org/Graphics/SVG/1.1/DTD/svg11.dtd">
<svg version="1.1" id="Layer_1" xmlns="http://www.w3.org/2000/svg" xmlns:xlink="http://www.w3.org/1999/xlink" x="0px" y="0px"
	 width="122px" height="123px" viewBox="0 0 122 123" enable-background="new 0 0 122 123" xml:space="preserve">
<g>
	<rect x="1" y="1" fill="none" stroke="#FFFFFF" stroke-width="2" stroke-miterlimit="10" width="100" height="101"/>
	<rect x="11" y="11" fill="none" stroke="#FFFFFF" stroke-width="2" stroke-miterlimit="10" width="35" height="36"/>
	<rect x="56" y="56" fill="none" stroke="#FFFFFF" stroke-width="2" stroke-miterlimit="10" width="35" height="36"/>
	<line fill="none" stroke="#FFFFFF" stroke-width="2" stroke-miterlimit="10" x1="55" y1="11" x2="92" y2="11"/>
	<line fill="none" stroke="#FFFFFF" stroke-width="2" stroke-miterlimit="10" x1="55" y1="47" x2="92" y2="47"/>
	<line fill="none" stroke="#FFFFFF" stroke-width="2" stroke-miterlimit="10" x1="55" y1="38" x2="92" y2="38"/>
	<line fill="none" stroke="#FFFFFF" stroke-width="2" stroke-miterlimit="10" x1="55" y1="29" x2="92" y2="29"/>
	<line fill="none" stroke="#FFFFFF" stroke-width="2" stroke-miterlimit="10" x1="55" y1="20" x2="92" y2="20"/>
	<line fill="none" stroke="#FFFFFF" stroke-width="2" stroke-miterlimit="10" x1="11" y1="55" x2="48" y2="55"/>
	<line fill="none" stroke="#FFFFFF" stroke-width="2" stroke-miterlimit="10" x1="11" y1="91" x2="48" y2="91"/>
	<line fill="none" stroke="#FFFFFF" stroke-width="2" stroke-miterlimit="10" x1="11" y1="82" x2="48" y2="82"/>
	<line fill="none" stroke="#FFFFFF" stroke-width="2" stroke-miterlimit="10" x1="11" y1="73" x2="48" y2="73"/>
	<line fill="none" stroke="#FFFFFF" stroke-width="2" stroke-miterlimit="10" x1="11" y1="64" x2="48" y2="64"/>
	<polyline fill="none" stroke="#FFFFFF" stroke-width="2" stroke-miterlimit="10" points="4,112 111,112 111,3 	"/>
	<polyline fill="none" stroke="#FFFFFF" stroke-width="2" stroke-miterlimit="10" points="11,122 121,122 121,11 	"/>
</g>
</svg>
