<?xml version="1.0" encoding="utf-8"?>
<!-- Generator: Adobe Illustrator 16.0.4, SVG Export Plug-In . SVG Version: 6.00 Build 0)  -->
<!DOCTYPE svg PUBLIC "-//W3C//DTD SVG 1.1//EN" "http://www.w3.org/Graphics/SVG/1.1/DTD/svg11.dtd">
<svg version="1.1" id="Layer_1" xmlns:sketch="http://www.bohemiancoding.com/sketch/ns"
	 xmlns="http://www.w3.org/2000/svg" xmlns:xlink="http://www.w3.org/1999/xlink" x="0px" y="0px" width="156px" height="120px"
	 viewBox="0 0 156 120" enable-background="new 0 0 156 120" xml:space="preserve">
<title>Group</title>
<desc>Created with Sketch.</desc>
<g id="Product-Pages---08-Apr" sketch:type="MSPage">
	<g id="Product-Intro-3" transform="translate(-910.000000, -547.000000)" sketch:type="MSArtboardGroup">
		<g id="Group" transform="translate(911.000000, 548.000000)" sketch:type="MSLayerGroup">
			<circle id="Oval-37" sketch:type="MSShapeGroup" fill="#FFFFFF" stroke="#9ADB51" stroke-width="2" cx="126" cy="90" r="28">
			</circle>
			<circle id="Oval-38" sketch:type="MSShapeGroup" fill="#FFFFFF" stroke="#9ADB51" stroke-width="2" cx="28" cy="90" r="28">
			</circle>
			<path id="Line" sketch:type="MSShapeGroup" fill="none" stroke="#9ADB51" stroke-width="2" stroke-linecap="square" d="M56.5,89
				h41"/>
			<path id="Fill-59" sketch:type="MSShapeGroup" fill="#589712" d="M48.569,94.627c0.122-0.206,0.05-0.47-0.16-0.588l-0.764-0.431
				c-0.211-0.118-0.479-0.05-0.601,0.157l-3.048,5.16c-0.122,0.205-0.049,0.469,0.161,0.588l0.763,0.429
				c0.21,0.12,0.48,0.049,0.601-0.156L48.569,94.627"/>
			<path id="Fill-63" sketch:type="MSShapeGroup" fill="#589712" d="M25.496,90c1.36,0.768,1.826,2.465,1.041,3.794
				c-0.785,1.327-2.522,1.782-3.881,1.016c-1.359-0.767-1.826-2.464-1.041-3.793C22.399,89.689,24.138,89.233,25.496,90L25.496,90z
				 M24.081,90.552c-0.657-0.001-1.296,0.331-1.648,0.927c-0.524,0.886-0.213,2.021,0.693,2.531c0.298,0.168,0.624,0.248,0.944,0.25
				h0.011c0.653-0.004,1.286-0.335,1.636-0.928c0.524-0.887,0.214-2.021-0.693-2.533c-0.295-0.165-0.616-0.246-0.933-0.247H24.081
				L24.081,90.552z"/>
			<path id="Fill-57" sketch:type="MSShapeGroup" fill="#589712" d="M21.188,97.291c1.36,0.767,1.825,2.466,1.041,3.794
				c-0.785,1.327-2.522,1.783-3.881,1.017c-1.359-0.768-1.825-2.466-1.04-3.793C18.092,96.979,19.829,96.525,21.188,97.291
				L21.188,97.291z M20.716,98.091c0.907,0.512,1.218,1.646,0.695,2.532c-0.524,0.887-1.684,1.19-2.592,0.68
				c-0.907-0.514-1.218-1.646-0.694-2.533S19.809,97.578,20.716,98.091L20.716,98.091z"/>
			<path id="Fill-58" sketch:type="MSShapeGroup" fill="#589712" d="M46.613,92.688c0.243-0.411,0.099-0.938-0.323-1.176
				l-1.527-0.86c-0.421-0.238-0.961-0.097-1.203,0.314l-3.787,6.41c-0.243,0.411-0.098,0.938,0.322,1.176l1.526,0.861
				c0.422,0.238,0.961,0.096,1.204-0.316L46.613,92.688"/>
			<path id="Fill-60" sketch:type="MSShapeGroup" fill="#589712" d="M18.339,100.916h-7.195c-0.346,0-0.625-0.272-0.625-0.609
				v-1.222c0-0.337,0.28-0.61,0.625-0.61h7.195c-0.08,0.09-0.151,0.188-0.214,0.295C17.708,99.475,17.82,100.336,18.339,100.916"/>
			<path id="Fill-61" sketch:type="MSShapeGroup" fill="#589712" d="M35.933,92.731c0.907,0.514,1.218,1.646,0.695,2.533
				c-0.524,0.886-1.684,1.19-2.591,0.678c-0.907-0.511-1.218-1.646-0.695-2.531C33.865,92.523,35.027,92.221,35.933,92.731
				L35.933,92.731z M22.537,91.32l-8.055-4.544c-1.015-0.573-1.362-1.84-0.777-2.831l4.896-8.287c0.586-0.99,1.883-1.33,2.898-0.758
				l21.028,11.865c1.016,0.572,1.362,1.84,0.776,2.832l-4.895,8.285c-0.586,0.992-1.884,1.33-2.898,0.759l-9.703-5.476l0-0.003
				l0.003-0.007l0.001-0.004l0.002-0.006h0.001v-0.002l0.002-0.003l0.002-0.005v-0.002l0.002-0.004l0.001-0.004v-0.002l0.001-0.001
				l0.002-0.004l0.001-0.004v-0.001l0.001-0.002l0.002-0.004l0.002-0.004v-0.001l0.002-0.006l0.001-0.003v-0.002l0.003-0.006v-0.004
				h0.001c0.01-0.025,0.021-0.053,0.03-0.08h0.001v-0.003l0.002-0.007v-0.002l0.002-0.003l0.002-0.006v-0.001v-0.004l0.002-0.006h0
				l0.001-0.001v-0.003l0.002-0.006v-0.001l0.001-0.005l0.001-0.004l0.001-0.001l0.001-0.002l0.001-0.005l0.001-0.004V92.94
				l0.002-0.006l0-0.003l0.002-0.002l0-0.006l0.002-0.002V92.92l0.002-0.007l0-0.003c0.008-0.023,0.014-0.047,0.02-0.072v-0.003
				l0.002-0.006l0-0.001v-0.004l0.003-0.006v-0.006l0.001-0.006v-0.002l0.001-0.004l0.001-0.004v-0.002l0.002-0.004l0-0.004v-0.002
				l0.001-0.006l0.001-0.004l0.001-0.001v-0.001l0-0.005l0.001-0.003v-0.002l0.002-0.006l0-0.003v-0.002l0.002-0.007l0.001-0.002
				v-0.002c0.004-0.023,0.008-0.047,0.011-0.072l0,0l0.001-0.002l0.001-0.007V92.66l0-0.004l0.001-0.005v-0.005l0.001-0.006
				l0.001-0.003v-0.004l0-0.005v-0.006l0.002-0.004v-0.007l0.001-0.003v-0.013l0.001-0.003v-0.008l0.001-0.001l0-0.007v-0.004h0.001
				v-0.011c0.002-0.019,0.003-0.041,0.004-0.061l0.001-0.001V92.5l0-0.007v-0.026l0.001-0.006v-0.075c0-0.013,0-0.028-0.001-0.041
				V92.32l0-0.005v-0.003L25.97,92.31v-0.011l-0.001-0.005v-0.015l-0.001-0.003v-0.003l0-0.002v-0.011l-0.002-0.003V92.24
				l-0.001-0.004v-0.004l0-0.002v-0.001l-0.001-0.003v-0.008l-0.001-0.002v-0.009c-0.001-0.011-0.003-0.021-0.004-0.029v-0.003
				l-0.002-0.007v-0.003l-0.001-0.006v-0.006l-0.001-0.006v-0.004l-0.001-0.002v-0.004v-0.007l-0.001-0.003v-0.003v-0.003
				l-0.001-0.002l-0.001-0.004v-0.004l-0.001-0.003l0-0.003v-0.005L25.947,92.1l-0.001-0.004v-0.003l0-0.005l-0.001-0.002
				l-0.001-0.002v-0.003l-0.001-0.004v-0.002l0-0.004l-0.001-0.005l-0.001-0.001l-0.001-0.002v-0.003l0-0.005v-0.002l-0.001-0.003
				l-0.002-0.007v-0.003c-0.002-0.009-0.004-0.018-0.006-0.027l-0.001-0.002l0,0l-0.001-0.006v-0.004l-0.001-0.001l0-0.005
				l-0.001-0.004V91.99h-0.001l-0.001-0.004l0-0.004v-0.004l-0.002-0.004l-0.001-0.003v-0.003l-0.001-0.004l-0.001-0.002
				l-0.001-0.003v-0.003v-0.003l-0.001-0.003v-0.002l-0.001-0.002v-0.004l-0.001-0.002v-0.003l-0.002-0.001l0-0.004V91.93
				l-0.002-0.004l-0.001-0.003l0-0.002v-0.002l-0.001-0.005l-0.002-0.001v-0.002l0-0.003l-0.001-0.004l-0.001-0.002v-0.001
				l-0.001-0.003l-0.001-0.005v-0.002l-0.002-0.005l0-0.004l-0.001-0.002l-0.001-0.004l-0.002-0.005v-0.001l-0.001-0.003
				l-0.001-0.007l-0.003-0.006l-0.001-0.005V91.85l-0.001-0.005l-0.001-0.004V91.84l-0.003-0.005v-0.004v-0.002l-0.001-0.004
				l-0.001-0.005h-0.001l-0.001-0.001l0-0.005l-0.001-0.004h-0.001v-0.002l-0.001-0.004l-0.001-0.004l-0.001-0.002l0-0.002
				l-0.002-0.002l-0.001-0.003V91.79l-0.001-0.003l-0.001-0.003l-0.001-0.002v-0.003l-0.002-0.002v-0.004l-0.001-0.002l-0.001-0.003
				l-0.001-0.003v-0.001l-0.001-0.002l-0.002-0.003l-0.001-0.004l0-0.001l-0.001-0.002l-0.001-0.003l-0.001-0.004v-0.002
				l-0.002-0.001v-0.005l-0.001-0.004l0,0l-0.001-0.002l-0.001-0.004l-0.002-0.004l0,0l-0.002-0.006l-0.001-0.005h0l-0.003-0.005
				l-0.001-0.005l-0.002-0.005l-0.003-0.004v-0.003l0-0.003l-0.003-0.004v-0.002l-0.001-0.006l-0.002-0.002v-0.002h-0.001
				l-0.001-0.006l-0.002-0.003l-0.001-0.001l0-0.002l-0.001-0.004l-0.001-0.002l-0.001-0.002v-0.002l-0.002-0.003l-0.001-0.003
				l0-0.002l-0.002-0.002l0-0.003l-0.002-0.003l-0.001-0.002l0-0.003l-0.002-0.003l-0.001-0.002l0-0.002l-0.002-0.002l-0.001-0.002
				l-0.001-0.003l-0.001-0.003l-0.001-0.003l-0.001-0.002l-0.001-0.003l-0.001-0.002l-0.001-0.004l-0.001-0.001l-0.001-0.002
				l-0.002-0.003l-0.001-0.004l-0.001-0.001V91.59l-0.002-0.004l-0.002-0.004l0,0l0-0.002l-0.001-0.004l-0.002-0.004V91.57
				l-0.003-0.004l-0.002-0.005l-0.003-0.005l-0.002-0.004c-0.001-0.004-0.002-0.007-0.006-0.01l-0.001-0.004l-0.002-0.006h-0.001h0
				l-0.002-0.005l-0.002-0.005v-0.001h-0.001l-0.001-0.003l-0.002-0.004v-0.002l-0.001-0.001l-0.001-0.003l-0.003-0.004v-0.002
				l-0.001-0.001L25.73,91.5l-0.001-0.003l-0.001-0.003l-0.001-0.002l-0.001-0.003l-0.002-0.001l-0.001-0.003l-0.001-0.001
				l-0.001-0.003l-0.002-0.003l-0.001-0.002l-0.001-0.003l-0.001-0.003l-0.001-0.002l-0.002-0.002l-0.001-0.003l-0.001-0.002
				l-0.001-0.003l-0.001-0.002l-0.002-0.003l-0.001-0.002l-0.002-0.004l-0.002-0.003l-0.001-0.002l0-0.001l-0.002-0.003
				l-0.002-0.004l-0.001-0.002l0,0l-0.003-0.004l-0.001-0.004l-0.001-0.002h-0.001l-0.002-0.005l-0.002-0.003l0,0l-0.004-0.006
				l-0.001-0.004c-0.002-0.003-0.004-0.006-0.006-0.009l-0.001-0.003l-0.004-0.006h0v-0.001l-0.002-0.003l-0.004-0.005v-0.001h0
				l-0.003-0.004l-0.002-0.004h0l-0.001-0.002l-0.002-0.003l-0.002-0.003l-0.001-0.002v-0.002l-0.003-0.002l-0.002-0.004v-0.002
				h-0.001l-0.003-0.004l0-0.002l-0.001-0.002l-0.001-0.002l-0.002-0.003l-0.002-0.002l-0.001-0.003l-0.001-0.002l-0.001-0.002
				l-0.003-0.003l-0.001-0.002l-0.001-0.003l-0.001-0.002l-0.001-0.002l-0.003-0.003l-0.001-0.001l-0.001-0.002l-0.001-0.002
				l-0.002-0.002l-0.003-0.004v-0.001L25.6,91.301l-0.002-0.002l-0.002-0.002v-0.002l-0.001-0.002l-0.003-0.003l-0.002-0.003v-0.002
				h-0.001l-0.002-0.006l-0.003-0.002h-0.001l-0.004-0.005l-0.001-0.003h0l-0.001-0.002l-0.006-0.007l-0.001-0.001l-0.006-0.009
				l-0.002-0.003l-0.004-0.006h-0.001l-0.002-0.003l-0.003-0.004l-0.001-0.001v-0.001l-0.003-0.003l-0.003-0.004v-0.002h-0.002
				l-0.001-0.003l-0.003-0.003l-0.001-0.002l-0.001-0.002l-0.002-0.003l-0.002-0.001l-0.001-0.002l-0.002-0.001l-0.001-0.003
				l-0.001-0.003L25.517,91.2v-0.003l-0.003-0.001l-0.001-0.002l-0.002-0.003l-0.002-0.002l-0.001-0.002l-0.002-0.002l-0.002-0.002
				l-0.001-0.002L25.5,91.18l-0.002-0.002l-0.002-0.003l-0.002-0.001l-0.001-0.002l-0.001-0.002l-0.002-0.003l-0.003-0.003h-0.001
				v-0.002l-0.003-0.004l-0.003-0.002l-0.001-0.002l-0.004-0.004l-0.003-0.003v-0.001l-0.001-0.001l-0.004-0.003l-0.002-0.004
				l-0.006-0.006l-0.001-0.002c-0.003-0.002-0.006-0.005-0.008-0.008l-0.002-0.003l-0.005-0.005h-0.002v-0.001l-0.002-0.003
				l-0.004-0.004H25.43v-0.001l-0.002-0.003l-0.004-0.002L25.421,91.1v-0.001l-0.002-0.003l-0.003-0.003l0-0.002l-0.002-0.001
				l-0.001-0.002l-0.003-0.004h-0.002l-0.001-0.002l-0.005-0.006l-0.001-0.001l-0.002-0.001l-0.001-0.003l-0.003-0.001l-0.001-0.002
				l-0.002-0.002l-0.001-0.001l-0.002-0.003l-0.002-0.002l-0.002-0.002l-0.001-0.002l-0.002-0.002l-0.003-0.003l-0.002-0.001
				l-0.001-0.002l-0.001-0.002l-0.003-0.002l-0.002-0.003l-0.001-0.001h-0.001l-0.003-0.004l-0.003-0.002v-0.002h-0.001
				l-0.003-0.004l-0.003-0.002l-0.001-0.001h0l-0.005-0.005l-0.002-0.002h-0.001v-0.002l-0.006-0.004l-0.002-0.002
				c-0.002-0.004-0.005-0.006-0.008-0.008l-0.003-0.002l-0.006-0.005v-0.001l-0.004-0.002l-0.003-0.004L25.3,90.989l-0.002-0.003
				l-0.005-0.004l-0.001-0.001l-0.002-0.003l-0.004-0.003l-0.001-0.001h-0.001l-0.002-0.003l-0.003-0.003h-0.003l0-0.002
				l-0.003-0.002l-0.003-0.002l-0.001-0.002l-0.002-0.002l-0.002-0.002l-0.003-0.001l-0.001-0.003l-0.002-0.002h-0.001l-0.003-0.003
				l-0.002-0.001l-0.002-0.002l-0.001-0.002l-0.002-0.002l-0.003-0.002l-0.002-0.002h-0.002l-0.001-0.002l-0.003-0.003l-0.003-0.001
				l0-0.002l-0.002-0.001l-0.003-0.003l-0.003-0.002l-0.001-0.001h-0.001l-0.003-0.005l-0.003-0.001l-0.001-0.001h0L25.2,90.912
				l-0.003-0.002h0l-0.006-0.006l-0.002-0.002h-0.001c-0.003-0.002-0.006-0.004-0.01-0.006l-0.001-0.001l-0.008-0.005v-0.002
				l-0.003-0.002l-0.006-0.003v-0.001h-0.001l-0.002-0.002l-0.004-0.004l-0.002-0.002h0l-0.003-0.002l-0.003-0.002h-0.002
				l-0.001-0.002l-0.003-0.002l-0.003-0.004h-0.002h-0.001l-0.003-0.002l-0.003-0.002l-0.002-0.002l-0.001-0.001l-0.003-0.001
				l-0.002-0.003l-0.003-0.001l-0.002-0.002l-0.002-0.002l-0.001-0.001L25.1,90.845l-0.002-0.001l-0.002-0.002l-0.002-0.002
				l-0.002-0.002l-0.003-0.002l-0.002-0.001l-0.001-0.001l-0.004-0.002l-0.002-0.002h-0.002l-0.002-0.002l-0.003-0.002l-0.002-0.002
				h-0.001l-0.001-0.001l-0.004-0.003l-0.004-0.002v-0.001h0l-0.006-0.003l-0.003-0.002v-0.002h-0.001l-0.006-0.003l-0.004-0.003
				c-0.002-0.002-0.006-0.004-0.009-0.006c-0.003-0.001-0.008-0.002-0.01-0.004h-0.001l-0.003-0.003l-0.007-0.003h0l-0.003-0.002
				l-0.004-0.004l-0.001-0.002h-0.001l-0.003-0.001l-0.005-0.003h-0.002l-0.002-0.003l-0.004-0.003h-0.002l-0.001-0.001
				l-0.003-0.002l-0.003-0.001l-0.001-0.002l-0.002-0.001l-0.002-0.001l-0.004-0.001l-0.002-0.003h-0.002l-0.002-0.002h-0.003
				l-0.002-0.002l-0.002-0.002l-0.002-0.001l-0.003-0.002l-0.003-0.001l-0.002-0.002h-0.001l-0.003-0.002l-0.003-0.002l-0.003-0.001
				h-0.001l-0.002-0.001l-0.003-0.002l-0.003-0.002h-0.002l-0.001-0.001l-0.004-0.003l-0.003-0.002h-0.001l-0.001-0.001
				l-0.005-0.002l-0.002-0.001h-0.001l-0.007-0.004l-0.003-0.001v-0.001l-0.009-0.004h-0.002c-0.003-0.002-0.006-0.004-0.01-0.005
				l-0.003-0.003l-0.008-0.002l-0.003-0.002l-0.006-0.003h-0.002l-0.003-0.002l-0.004-0.003H24.82h-0.001l-0.004-0.002l-0.003-0.002
				h-0.001l-0.002-0.002h-0.003L24.8,90.692l-0.002-0.001h-0.002l-0.002-0.002l-0.004-0.002h-0.001l-0.002-0.002h-0.002
				l-0.004-0.002l-0.002-0.001l-0.001-0.001l-0.003-0.002h-0.002l-0.004-0.002h-0.002l-0.001-0.001l-0.002-0.002l-0.004-0.001
				h-0.002l-0.002-0.002h-0.001l-0.003-0.002l-0.004-0.002h-0.001h-0.001l-0.004-0.002l-0.004-0.002h-0.002h-0.001l-0.005-0.002
				l-0.003-0.002h-0.002l-0.004-0.002l-0.004-0.002h-0.001l-0.007-0.002l-0.002-0.001c-0.004-0.001-0.008-0.003-0.011-0.004h0
				l-0.003-0.001l-0.007-0.002h0l-0.004-0.002l-0.007-0.002v-0.001h-0.001l-0.004-0.001l-0.005-0.001l0-0.001h-0.001l-0.004-0.002
				h-0.004l0-0.002H24.64l-0.003-0.001l-0.004-0.002H24.63l0-0.001h-0.003l-0.004-0.002h-0.002l-0.002-0.001l-0.003-0.001
				l-0.002-0.001l-0.002-0.001h-0.002h-0.002l-0.003-0.002l-0.003-0.002h-0.004L24.59,90.62h-0.004l-0.002-0.001l-0.002-0.002
				h-0.002h-0.003l-0.003-0.002H24.57l-0.006-0.002l-0.002-0.001h-0.003l-0.005-0.002h-0.003l0-0.001h-0.002l-0.006-0.002h-0.003
				l-0.007-0.002l-0.003-0.002c-0.003,0-0.008-0.002-0.011-0.002h-0.002l-0.009-0.003v-0.001H24.5l-0.007-0.002l0,0h-0.005
				l-0.005-0.002h-0.001v-0.001l-0.004-0.001h-0.005h-0.001L24.47,90.59h-0.003h-0.004H24.46h-0.002l-0.002-0.001l-0.004-0.001
				l-0.001-0.001h-0.003l-0.002-0.001h-0.003h-0.003l-0.002-0.001l-0.002-0.001l-0.002-0.001h-0.006l-0.002-0.001H24.42h-0.004
				l-0.002-0.002h-0.002h-0.002l-0.003-0.001h-0.003l-0.002-0.001h-0.001l-0.004-0.001l-0.003-0.001h-0.002h-0.005l-0.004-0.002
				h-0.002h-0.005l-0.004-0.001l-0.001-0.001l-0.006-0.001h-0.003l-0.01-0.001h-0.001l0-0.002h-0.01h-0.002l-0.002-0.001
				l-0.006-0.001h-0.001l-0.004-0.001l-0.006-0.001H24.31h-0.004h-0.006l-0.003-0.002h-0.006l-0.001-0.001h-0.012l-0.003-0.001
				l-0.004-0.001h-0.011l-0.001-0.001H24.25h-0.003h-0.004l-0.003-0.001h-0.004l-0.003-0.001h-0.012l-0.003-0.001h-0.004H24.21
				h-0.012l-0.003-0.001h-0.012l-0.008-0.002h-0.002h-0.011H24.16h-0.003h-0.042l-0.003-0.001h-0.068l-0.005,0.001H24
				c-0.004,0-0.007,0-0.011,0h-0.004h-0.006h-0.006l-0.004,0.002h-0.007l-0.004,0.001h-0.016h-0.003l-0.002,0.001H23.92
				l-0.002,0.001h-0.006l-0.003,0.001h-0.002h-0.003h-0.002l-0.002,0.001h-0.014l-0.002,0.001h-0.003l-0.003,0.001h-0.008
				l-0.003,0.001h-0.001h-0.001l-0.003,0.002h-0.011h-0.006v0.001H23.84l-0.006,0.001H23.83l-0.007,0.001l-0.004,0.001h-0.005
				l-0.006,0.002h-0.005l-0.005,0.001h0l-0.005,0.001l-0.004,0.001h-0.002l-0.004,0.001h-0.004h-0.002l-0.004,0.002h-0.004h-0.003
				l-0.002,0.001l-0.004,0.001l0,0.001h-0.007l-0.002,0.001h-0.003h-0.003l-0.003,0.002h-0.002h-0.002l-0.003,0.001h-0.004
				l-0.002,0.001l-0.003,0.001l-0.002,0.001h-0.002H23.71l-0.004,0.001h-0.002l-0.001,0.001l-0.003,0.001h-0.004l-0.001,0.001
				h-0.002h-0.002h-0.007v0.002h-0.005l-0.004,0.001h-0.001l-0.004,0.002l-0.006,0.001h-0.001h-0.002l-0.008,0.002l-0.008,0.003
				h-0.003l-0.006,0.001l-0.004,0.002l0,0l-0.006,0.001l-0.004,0.001l-0.001,0.001l-0.005,0.001h-0.003l-0.001,0.002h-0.002
				l-0.003,0.001l-0.003,0.001h-0.001l-0.003,0.001h-0.003l-0.003,0.001l-0.001,0.001h-0.002l-0.003,0.001l-0.002,0.001
				l-0.001,0.001h-0.003l-0.003,0.002h-0.002l-0.002,0.001h-0.003l-0.003,0.001h-0.004l-0.004,0.002l-0.001,0.002h-0.004
				l-0.004,0.001l-0.002,0.001h-0.001l-0.003,0.001l-0.003,0.001h-0.003v0.002h-0.003l-0.006,0.002l0,0.001l-0.003,0.001
				l-0.006,0.002h-0.001l-0.002,0.001l-0.007,0.002h-0.002l-0.001,0.001c-0.009,0.003-0.017,0.006-0.025,0.009l-0.003,0.001h-0.001
				l-0.006,0.002l-0.002,0.002h-0.003l-0.005,0.002h-0.003l-0.002,0.002h-0.003l-0.003,0.001v0.001l-0.003,0.001l-0.003,0.001
				l-0.003,0.002h-0.001l-0.002,0.001l-0.004,0.001l-0.002,0.001l-0.001,0.001h-0.002l-0.003,0.002h-0.002l-0.002,0.002h-0.002
				l-0.002,0.002l-0.003,0.001h-0.002l-0.003,0.002l-0.002,0.001h-0.002l-0.002,0.002l-0.004,0.001l-0.003,0.001l0,0.001
				l-0.003,0.001l-0.003,0.002h-0.002h0l-0.003,0.002l-0.005,0.002h-0.002l-0.003,0.002l-0.005,0.002h-0.001h-0.002l-0.006,0.004
				h-0.001v0.001c-0.009,0.003-0.02,0.007-0.03,0.013h-0.001l-0.006,0.003l-0.002,0.001v0.001l-0.007,0.003h-0.003l0,0.002
				l-0.006,0.002l-0.002,0.001h0l-0.002,0.001l-0.005,0.002l-0.002,0.002h-0.001h-0.002l-0.004,0.003l-0.002,0.001h0l-0.003,0.002
				l-0.003,0.001l-0.002,0.002h-0.001l-0.003,0.001L23.24,90.74l-0.001,0.001l-0.002,0.002l-0.003,0.001l-0.002,0.002h-0.001h-0.002
				l-0.003,0.002L23.22,90.75h-0.001l-0.001,0.001l-0.005,0.003l-0.002,0.002h-0.003l-0.004,0.004H23.2h-0.002l-0.004,0.004
				l-0.001,0.001l-0.002,0.001l-0.006,0.003L23.18,90.77c-0.012,0.008-0.023,0.014-0.036,0.021h0l-0.002,0.001l-0.007,0.004h0
				l-0.003,0.002l-0.006,0.002l-0.001,0.002h-0.002l-0.005,0.004l-0.002,0.001h0l-0.003,0.002l-0.003,0.003h-0.002h-0.001
				l-0.002,0.003l-0.004,0.001l-0.001,0.002l-0.001,0.001l-0.003,0.002L23.09,90.82l-0.001,0.002l-0.002,0.001l-0.004,0.002
				l-0.003,0.003h-0.001h-0.001l-0.004,0.002l-0.002,0.002h-0.001l-0.001,0.001l-0.005,0.003l-0.002,0.002H23.06l-0.002,0.001
				l-0.004,0.003l-0.002,0.002l-0.002,0.001l-0.005,0.005h-0.001h-0.001v0.002c-0.019,0.011-0.036,0.021-0.052,0.033h-0.001
				l-0.002,0.002l-0.005,0.004l0,0.002h-0.003l-0.005,0.004l-0.002,0.002h0L22.968,90.9l-0.005,0.002h-0.001l-0.001,0.002
				l-0.003,0.002l-0.004,0.004h-0.001v0.001l-0.003,0.001l-0.003,0.002l-0.001,0.002l-0.001,0.001L22.94,90.92l-0.003,0.002
				l-0.001,0.001l-0.001,0.001l-0.004,0.002l-0.002,0.003l-0.001,0.001l-0.001,0.002l-0.005,0.001l-0.002,0.003h0h-0.002
				l-0.003,0.004l-0.002,0.002l-0.001,0.001l-0.006,0.005l-0.002,0.001c-0.021,0.017-0.039,0.03-0.059,0.046v0.002l-0.001,0.001
				l-0.005,0.005h-0.001v0.001l-0.002,0.002l-0.005,0.003l-0.001,0.001v0.001l-0.003,0.002l-0.004,0.004l-0.002,0.001l-0.003,0.003
				l-0.003,0.004H22.81l-0.001,0.001l-0.001,0.003l-0.003,0.003l-0.001,0.001l-0.001,0.001l-0.004,0.003l-0.002,0.002h0
				l-0.001,0.002l-0.004,0.003l-0.002,0.003h-0.001h-0.001l-0.005,0.006l-0.002,0.001l0,0.001l-0.005,0.006l-0.002,0.002
				c-0.019,0.016-0.037,0.035-0.054,0.051v0.001l-0.001,0.002l-0.005,0.006h-0.001l0,0.001l-0.001,0.002L22.7,91.127v0.002
				l-0.002,0.002l-0.004,0.005v0.001h-0.001l-0.002,0.002l-0.003,0.004l-0.001,0.002l-0.003,0.003l-0.003,0.003v0.001l-0.002,0.001
				l-0.003,0.004l-0.003,0.004l0,0l-0.004,0.006l-0.002,0.003h-0.001l-0.005,0.005l-0.002,0.002h0l-0.001,0.002l-0.005,0.004
				l-0.002,0.003c-0.019,0.021-0.038,0.044-0.056,0.066l-0.001,0.003l-0.005,0.006l0,0l-0.003,0.003l-0.003,0.005l-0.001,0.002
				l-0.002,0.003l-0.003,0.005h-0.002l-0.002,0.004l-0.002,0.004h-0.001l-0.001,0.002l-0.002,0.004l-0.001,0.003l-0.001,0.001
				h-0.001L22.552,91.3l-0.002,0.003l-0.001,0.001v0.001l-0.004,0.005l-0.002,0.003l-0.005,0.006L22.537,91.32L22.537,91.32z"/>
			<path id="Fill-62" sketch:type="MSShapeGroup" fill="#589712" d="M21.166,98.443l-0.001-0.002l0,0L21.166,98.443L21.166,98.443z
				 M21.159,98.435l-0.002-0.001L21.159,98.435L21.159,98.435L21.159,98.435z M21.151,98.428l-0.002-0.002h0.002V98.428
				L21.151,98.428z M21.145,98.42l-0.002-0.002L21.145,98.42L21.145,98.42L21.145,98.42z M21.137,98.412l-0.003-0.002L21.137,98.412
				L21.137,98.412L21.137,98.412z M21.093,98.369l-0.002-0.002L21.093,98.369L21.093,98.369z M21.085,98.361l-0.003-0.003
				l0.001,0.001L21.085,98.361L21.085,98.361z M21.077,98.355l-0.003-0.004l0.002,0.001L21.077,98.355L21.077,98.355z
				 M21.069,98.348l-0.003-0.004l0.002,0.002L21.069,98.348L21.069,98.348z M21.062,98.34l-0.004-0.004l0.003,0.002L21.062,98.34
				L21.062,98.34z M21.053,98.332l-0.004-0.004L21.053,98.332L21.053,98.332L21.053,98.332z M21.044,98.324l-0.004-0.003
				L21.044,98.324L21.044,98.324L21.044,98.324z M21.037,98.316l-0.004-0.002L21.037,98.316L21.037,98.316L21.037,98.316z
				 M21.016,98.299l-0.005-0.004L21.016,98.299L21.016,98.299z M21.007,98.292l-0.004-0.003h0.001L21.007,98.292L21.007,98.292z
				 M20.998,98.285l-0.004-0.004l0.002,0.002L20.998,98.285L20.998,98.285z M20.99,98.277l-0.006-0.003l0.002,0.001L20.99,98.277
				L20.99,98.277z M20.98,98.271l-0.003-0.004l0.001,0.001L20.98,98.271L20.98,98.271z M20.972,98.264l-0.004-0.004l0.003,0.002
				L20.972,98.264L20.972,98.264z M20.964,98.256l-0.006-0.002l0.004,0.001L20.964,98.256L20.964,98.256z M20.954,98.249
				l-0.005-0.003L20.954,98.249L20.954,98.249L20.954,98.249z M20.944,98.242l-0.005-0.003L20.944,98.242L20.944,98.242
				L20.944,98.242z M20.936,98.236l-0.007-0.006L20.936,98.236L20.936,98.236L20.936,98.236z M20.927,98.228l-0.008-0.006v0.001
				L20.927,98.228L20.927,98.228z M20.914,98.22l-0.005-0.004l0,0.001L20.914,98.22L20.914,98.22z M20.905,98.213L20.9,98.209v0.001
				L20.905,98.213L20.905,98.213z M20.896,98.206l-0.005-0.005l0.002,0.002L20.896,98.206L20.896,98.206z M20.887,98.199
				l-0.005-0.004l0.002,0.002L20.887,98.199L20.887,98.199z M20.877,98.191l-0.006-0.003l0.003,0.001L20.877,98.191L20.877,98.191z
				 M20.868,98.186l-0.005-0.003l0.002,0.003H20.868L20.868,98.186z M20.859,98.18l-0.007-0.004l0.004,0.003L20.859,98.18
				L20.859,98.18z M20.849,98.173l-0.006-0.005L20.849,98.173L20.849,98.173L20.849,98.173z M20.839,98.166l-0.007-0.005
				L20.839,98.166L20.839,98.166z M20.818,98.152l-0.008-0.004h0.001L20.818,98.152L20.818,98.152z M20.807,98.146L20.8,98.143
				h0.002L20.807,98.146L20.807,98.146z M20.796,98.14l-0.004-0.005v0.002L20.796,98.14L20.796,98.14z M20.787,98.133l-0.006-0.004
				l0.003,0.002L20.787,98.133L20.787,98.133z M20.777,98.127l-0.005-0.004l0.003,0.002L20.777,98.127L20.777,98.127z
				 M20.767,98.121l-0.006-0.005l0.004,0.002L20.767,98.121L20.767,98.121z M20.757,98.115l-0.006-0.004l0.004,0.002L20.757,98.115
				L20.757,98.115z M20.746,98.107l-0.005-0.002L20.746,98.107L20.746,98.107L20.746,98.107z M20.737,98.103l-0.007-0.005
				L20.737,98.103L20.737,98.103L20.737,98.103z M20.703,98.083l-0.007-0.005l0.001,0.001L20.703,98.083L20.703,98.083z
				 M20.692,98.078l-0.006-0.004l0.001,0.001L20.692,98.078L20.692,98.078z M20.682,98.072l-0.006-0.004l0.002,0.001L20.682,98.072
				L20.682,98.072z M20.671,98.066l-0.005-0.004l0.002,0.002L20.671,98.066L20.671,98.066z M20.66,98.061l-0.005-0.003l0.002,0.001
				L20.66,98.061L20.66,98.061z M20.65,98.055l-0.006-0.003l0.004,0.001L20.65,98.055L20.65,98.055z M20.64,98.051l-0.007-0.003
				l0.004,0.001L20.64,98.051L20.64,98.051z M20.63,98.045l-0.007-0.003l0.005,0.003H20.63L20.63,98.045z M20.619,98.04
				l-0.008-0.004l0.006,0.003L20.619,98.04L20.619,98.04z M20.595,98.028l-0.007-0.004h0L20.595,98.028L20.595,98.028z
				 M20.584,98.023l-0.007-0.005l0,0.002L20.584,98.023L20.584,98.023z M20.573,98.018l-0.007-0.004l0.002,0.002L20.573,98.018
				L20.573,98.018z M20.562,98.013l-0.005-0.003h0.001L20.562,98.013L20.562,98.013z M20.551,98.009l-0.005-0.003l0.003,0.001
				L20.551,98.009L20.551,98.009z M20.542,98.004l-0.006-0.003l0.002,0.002L20.542,98.004L20.542,98.004z M20.531,97.998
				l-0.006-0.002l0.003,0.002H20.531L20.531,97.998z M20.52,97.994l-0.007-0.003l0.005,0.003H20.52L20.52,97.994z M20.51,97.99
				l-0.007-0.003L20.51,97.99L20.51,97.99L20.51,97.99z M20.499,97.984l-0.009-0.003L20.499,97.984L20.499,97.984z M20.487,97.979
				l-0.008-0.003L20.487,97.979L20.487,97.979z M20.474,97.975l-0.007-0.002l0.001,0.001L20.474,97.975L20.474,97.975z
				 M20.463,97.971l-0.007-0.002h0.002L20.463,97.971L20.463,97.971z M20.452,97.967l-0.006-0.001h0.002L20.452,97.967
				L20.452,97.967z M20.441,97.963l-0.004-0.002l0.002,0.002H20.441L20.441,97.963z M20.431,97.959l-0.006-0.002l0.002,0.001
				L20.431,97.959L20.431,97.959z M20.42,97.955l-0.006-0.002l0.003,0.001L20.42,97.955L20.42,97.955z M20.409,97.951l-0.005-0.002
				l0.003,0.002H20.409L20.409,97.951z M20.398,97.947l-0.005-0.002L20.398,97.947L20.398,97.947L20.398,97.947z M20.388,97.943
				l-0.005-0.001L20.388,97.943L20.388,97.943z M20.361,97.936l-0.005-0.002h0L20.361,97.936L20.361,97.936z M20.35,97.932
				l-0.005-0.002h0.001L20.35,97.932L20.35,97.932z M20.34,97.928l-0.006-0.001l0.002,0.001H20.34L20.34,97.928z M20.329,97.925
				l-0.005-0.001h0.001L20.329,97.925L20.329,97.925z M20.317,97.922l-0.004-0.002h0.002L20.317,97.922L20.317,97.922z
				 M20.307,97.918l-0.005-0.001l0.003,0.001H20.307L20.307,97.918z M20.297,97.915l-0.006-0.001h0.004L20.297,97.915L20.297,97.915
				z M20.286,97.912h-0.004H20.286L20.286,97.912z M20.225,97.896h-0.002H20.225L20.225,97.896z M20.215,97.895l-0.003-0.001
				L20.215,97.895L20.215,97.895z M20.204,97.891H20.2H20.204L20.204,97.891z M20.193,97.89l-0.002-0.001h0.001L20.193,97.89
				L20.193,97.89z M20.183,97.887h-0.003H20.183L20.183,97.887z M24.424,94.227c-0.014,0.043-0.032,0.084-0.056,0.123l-2.243,3.797
				c-0.235-0.342-0.549-0.636-0.938-0.855c-0.388-0.219-0.806-0.338-1.225-0.365l2.242-3.797c0.024-0.039,0.051-0.075,0.082-0.107
				c0.145,0.402,0.433,0.759,0.839,0.988C23.536,94.241,23.994,94.307,24.424,94.227L24.424,94.227z"/>
			<circle id="Oval-35" sketch:type="MSShapeGroup" fill="#FFFFFF" stroke="#9ADB51" stroke-width="2" cx="77" cy="28" r="28">
			</circle>
			<path id="Stroke-2" sketch:type="MSShapeGroup" fill="none" stroke="#589712" stroke-width="2" d="M139.553,85.909v4.833
				c0,2.67-5.82,4.834-13,4.834s-13-2.164-13-4.834v-4.833c0,2.669,5.82,4.833,13,4.833S139.553,88.578,139.553,85.909
				L139.553,85.909z M126.553,76.242c7.18,0,13,2.164,13,4.833c0,2.67-5.82,4.834-13,4.834s-13-2.164-13-4.834
				C113.553,78.406,119.373,76.242,126.553,76.242L126.553,76.242z M139.553,90.757v-0.015v4.834c0,2.669-5.82,4.832-13,4.832
				s-13-2.163-13-4.832v-4.834v0.047l0.001,0.008v0.006c0,0.012,0.001,0.023,0.001,0.035v0.002l0.002,0.004v0.016v0.003v0.005
				l0.002,0.008v0.005c0,0.013,0.001,0.024,0.002,0.036v0.005v0.009l0.002,0.004v0.003l0.001,0.003v0.005l0.001,0.008v0.005v0.001
				c0.002,0.011,0.004,0.022,0.005,0.035v0.001l0.001,0.004l0.002,0.008v0.008l0.002,0.003v0.005l0.001,0.008v0.004l0.001,0.002
				v0.003l0.004,0.015c0,0.011,0.002,0.021,0.006,0.031v0.001v0.005l0.002,0.008v0.004v0.001l0.001,0.005l0.003,0.007v0.002v0.003
				l0.001,0.004l0.001,0.006v0.005l0.001,0.003l0.001,0.004l0.001,0.004l0.001,0.006l0.001,0.004l0.001,0.002v0.004l0.002,0.007
				l0.001,0.005l0.001,0.002v0.001l0.002,0.009l0.002,0.006v0.002l0.004,0.011v0.003l0.002,0.004l0.002,0.012l0.001,0.002l0,0
				l0.001,0.006l0.003,0.008v0.002l0.001,0.002l0.002,0.005v0.007l0.002,0.002v0.004l0.002,0.004l0.001,0.005l0.001,0.004
				l0.002,0.003v0.004l0.002,0.004v0.006l0.004,0.004v0.004l0.001,0.002l0.001,0.006l0.002,0.006l0.001,0.002v0.002l0.003,0.008
				l0.002,0.004l0.001,0.003v0.001l0.003,0.008l0.002,0.006l0.001,0.006l0.003,0.01v0.002l0.004,0.008l0.002,0.006v0.001
				l0.002,0.003l0.002,0.006l0.002,0.006v0.002l0.002,0.003l0.002,0.005l0.001,0.004l0.001,0.004l0.002,0.004l0.002,0.005
				l0.001,0.003l0.001,0.005l0.002,0.005l0.002,0.004v0.002l0.003,0.005l0.002,0.006l0.001,0.003v0.002l0.004,0.006l0.002,0.006
				v0.002v0.001l0.005,0.009l0.003,0.006l0.002,0.005l0.004,0.01v0.001v0.001l0.003,0.006l0.003,0.008l0.001,0.001l0.001,0.002
				l0.002,0.006l0.003,0.005l0.001,0.003l0.001,0.004l0.003,0.004l0.002,0.006l0.001,0.002l0.001,0.004l0.003,0.005l0.001,0.003
				l0.003,0.006l0.002,0.004l0.001,0.003l0.002,0.003l0.002,0.006l0.002,0.004l0.002,0.003v0.001l0.004,0.01l0.002,0.004
				l0.002,0.002c0.004,0.01,0.01,0.021,0.016,0.031l0.001,0.002l0.002,0.004l0.003,0.008l0.002,0.004l0.002,0.004l0.002,0.002
				l0.002,0.005l0.003,0.006l0.002,0.003l0.001,0.004l0.002,0.002l0.006,0.011l0.001,0.003l0.001,0.001
				c0.002,0.005,0.006,0.011,0.008,0.017l0,0l0.002,0.003l0.006,0.011l0.002,0.004l0.001,0.001l0.002,0.002l0.005,0.007l0.002,0.008
				l0.002,0.002l0.002,0.001c0.004,0.01,0.009,0.019,0.015,0.027v0.003l0.003,0.004l0.004,0.007l0.002,0.001l0.001,0.002
				l0.002,0.004l0.004,0.006l0.001,0.002v0.002l0.004,0.006l0.004,0.006l0.003,0.005c0.023,0.04,0.051,0.08,0.078,0.121l0.001,0.001
				l0.004,0.004l0.005,0.008l0.001,0.002v0.002l0.005,0.004l0.005,0.008v0.002l0.002,0.002l0.004,0.004l0.004,0.006l0.002,0.004
				l0.002,0.002l0.002,0.004l0.004,0.006l0.002,0.004L113.997,92l0.002,0.002l0.004,0.006l0.004,0.005l0.002,0.003l0.001,0.002
				l0.004,0.006l0.005,0.006l0.002,0.002l0,0c0.024,0.033,0.05,0.065,0.075,0.098l0.006,0.008l0.006,0.007v0.001l0.006,0.006
				l0.006,0.008h0.001c0.093,0.113,0.198,0.227,0.313,0.336l0.002,0.002c0.014,0.014,0.027,0.027,0.041,0.04l0.002,0.001
				l0.002,0.001c0.005,0.006,0.011,0.011,0.018,0.018l0.002,0.001l0.013,0.012l0.007,0.008l0.002,0.002h0.002l0.006,0.005
				l0.015,0.013l0.015,0.014c0.02,0.02,0.041,0.036,0.062,0.056c0.006,0.004,0.01,0.008,0.015,0.013h0.001l0.005,0.004l0.009,0.008
				l0.002,0.001v0.001l0.008,0.007l0.006,0.003l0.001,0.002c0.013,0.012,0.025,0.021,0.038,0.031l0.001,0.002l0.012,0.008
				l0.011,0.011h0.002c0.008,0.007,0.016,0.014,0.024,0.02c0.016,0.013,0.03,0.024,0.046,0.038l0.002,0.001l0.004,0.003l0.011,0.008
				l0.003,0.002l0.002,0.002l0.004,0.004l0.013,0.008l0.002,0.004l0.011,0.007l0.005,0.004l0.004,0.003l0.003,0.003l0.006,0.005
				l0.008,0.004l0.002,0.004l0.004,0.002l0.003,0.003l0.009,0.006l0.006,0.003l0.001,0.001l0.003,0.003l0.01,0.008l0.005,0.004
				h0.001c0.015,0.011,0.028,0.021,0.044,0.032l0.006,0.005c0.007,0.005,0.016,0.011,0.023,0.017l0.001,0.001h0.002l0.014,0.012
				l0.01,0.006l0.002,0.001l0.002,0.001c0.027,0.02,0.053,0.038,0.08,0.057c0.006,0.004,0.012,0.008,0.019,0.013l0.019,0.013
				c0.007,0.004,0.014,0.01,0.02,0.014l0.001,0.001l0.006,0.003l0.011,0.009l0.003,0.001l0.003,0.002l0.005,0.004l0.009,0.006
				l0.003,0.001l0.003,0.003l0.006,0.003l0.008,0.006l0.004,0.003l0.005,0.003l0.005,0.003l0.006,0.004l0.006,0.004l0.004,0.002
				l0.004,0.003l0.005,0.003l0.009,0.006l0.004,0.003l0.003,0.003l0.005,0.002l0.01,0.007l0.005,0.002l0.001,0.001l0.004,0.002
				l0.018,0.014h0.003l0.019,0.013l0.008,0.005l0.003,0.001l0.003,0.001c0.018,0.012,0.036,0.023,0.054,0.034l0.002,0.001
				l0.003,0.004l0.008,0.004l0.02,0.012h0.001l0.021,0.014l0.021,0.012l0.009,0.004c0.027,0.018,0.057,0.035,0.086,0.052v0.001l0,0
				c0.027,0.016,0.056,0.032,0.083,0.047h0.001l0.001,0.002c0.026,0.015,0.052,0.029,0.079,0.045
				c0.012,0.006,0.023,0.012,0.036,0.02l0.003,0.002l0.008,0.004l0.018,0.01l0.01,0.006l0.008,0.004l0.006,0.003
				c0.012,0.007,0.023,0.013,0.035,0.019l0.004,0.002l0.008,0.006l0.018,0.008l0.01,0.006l0.01,0.005l0.006,0.003
				c0.012,0.006,0.023,0.012,0.035,0.02l0.004,0.001l0.01,0.005l0.016,0.008l0.01,0.006l0.01,0.005l0.006,0.003
				c0.013,0.008,0.023,0.014,0.036,0.018l0.005,0.004l0.011,0.006l0.013,0.006l0.012,0.006l0.012,0.006l0.006,0.002
				c0.012,0.006,0.021,0.012,0.034,0.018l0.006,0.003l0.013,0.007l0.011,0.006l0.011,0.004l0.013,0.008l0.007,0.002
				c0.012,0.006,0.021,0.012,0.033,0.016l0.008,0.004l0.015,0.008l0.009,0.005l0.008,0.003c0.027,0.014,0.055,0.027,0.084,0.04
				l0.004,0.002l0.003,0.003c0.036,0.016,0.071,0.031,0.106,0.049l0.014,0.006l0.048,0.021c0.016,0.008,0.03,0.014,0.046,0.02
				l0.004,0.004l0.009,0.002l0.018,0.008l0.017,0.008l0.008,0.003l0.006,0.003c0.029,0.014,0.061,0.025,0.092,0.041l0.003,0.001
				l0.01,0.005l0.018,0.007l0.017,0.007l0.008,0.002l0.006,0.004c0.031,0.013,0.062,0.025,0.093,0.039l0.005,0.002l0.009,0.004
				l0.019,0.006l0.016,0.008l0.01,0.004l0.006,0.002c0.029,0.013,0.062,0.025,0.094,0.038l0.006,0.002l0.01,0.004l0.018,0.007
				l0.018,0.008l0.008,0.003l0.006,0.003c0.017,0.006,0.032,0.013,0.049,0.018l0.053,0.021l0.006,0.003
				c0.045,0.018,0.09,0.034,0.135,0.05l0.003,0.002h0.002l0.021,0.008l0.018,0.006l0.002,0.002l0.004,0.002
				c0.041,0.014,0.08,0.027,0.122,0.044l0.003,0.001l0,0l0.018,0.006l0.021,0.008l0.004,0.002h0.005
				c0.041,0.017,0.081,0.03,0.124,0.045l0.001,0.001h0.001l0.014,0.005l0.024,0.007l0.006,0.003l0.005,0.001l0.021,0.009
				l0.016,0.005v0.001l0.006,0.001c0.04,0.013,0.081,0.027,0.121,0.04l0.008,0.003l0.004,0.002l0.02,0.007l0.018,0.005l0.004,0.001
				l0.008,0.003c0.039,0.013,0.078,0.026,0.117,0.039l0.01,0.001l0.004,0.002l0.016,0.006l0.02,0.006l0.006,0.002l0.009,0.003
				l0.026,0.009l0.011,0.002h0.001l0.049,0.017l0.033,0.009l0.009,0.004l0.003,0.001l0.014,0.005l0.021,0.006l0.008,0.002
				l0.009,0.004l0.022,0.006l0.014,0.004l0.002,0.001l0.012,0.003l0.033,0.01l0.039,0.012l0.008,0.004h0.002l0.012,0.004
				l0.023,0.006l0.012,0.004l0.007,0.002l0.021,0.006l0.014,0.004l0.006,0.002l0.013,0.004c0.04,0.012,0.079,0.022,0.121,0.033
				l0.011,0.004l0.006,0.001l0.016,0.005l0.021,0.007l0.01,0.003l0.009,0.002l0.022,0.006l0.015,0.005l0.006,0.001l0.011,0.003
				c0.035,0.01,0.071,0.021,0.106,0.03h0.006l0.044,0.013l0.016,0.003l0.002,0.002l0.008,0.002l0.039,0.01l0.018,0.004l0.003,0.002
				l0.009,0.002l0.034,0.01l0.019,0.004l0.005,0.002l0.011,0.002l0.029,0.008l0.021,0.006l0.007,0.002l0.01,0.002l0.027,0.008
				l0.022,0.006l0.008,0.002l0.01,0.002l0.024,0.006l0.025,0.007l0.009,0.001l0.01,0.004l0.021,0.006l0.027,0.006l0.011,0.002
				l0.007,0.002l0.02,0.006l0.031,0.007l0.011,0.003l0.007,0.002l0.018,0.004l0.032,0.006l0.013,0.004l0.006,0.002l0.015,0.004
				l0.035,0.008l0.015,0.004l0.004,0.001l0.012,0.003l0.038,0.008l0.016,0.005h0.003l0.01,0.003l0.042,0.009l0.015,0.004
				l0.004,0.001l0.006,0.002l0.045,0.009l0.016,0.004h0.002l0.005,0.001l0.051,0.012l0.013,0.004h0.002
				c0.225,0.051,0.454,0.098,0.688,0.143l0.07,0.014c0.02,0.004,0.041,0.008,0.061,0.012c0.064,0.012,0.129,0.023,0.193,0.035h0.002
				c0.064,0.012,0.129,0.023,0.194,0.035h0.001h0.005c0.046,0.01,0.095,0.017,0.142,0.023l0.003,0.002h0.005
				c0.047,0.009,0.094,0.016,0.141,0.024h0.004l0.003,0.001c0.034,0.005,0.069,0.011,0.104,0.017l0.043,0.006l0.031,0.005
				l0.027,0.004c0.058,0.01,0.115,0.018,0.174,0.025l0.019,0.004l0.031,0.005l0.009,0.001l0.006,0.001l0.027,0.005l0.021,0.002
				h0.002l0.008,0.002c0.051,0.006,0.104,0.014,0.155,0.021l0.012,0.002h0.004l0.021,0.004l0.025,0.003l0.008,0.001l0.011,0.002
				l0.031,0.004l0.015,0.001h0.002l0.008,0.001l0.051,0.008l0.045,0.006l0.014,0.002h0.002l0.014,0.001l0.03,0.005l0.013,0.001
				l0.011,0.001l0.022,0.004l0.019,0.002h0.007l0.018,0.002c0.046,0.007,0.094,0.012,0.141,0.019l0.02,0.001l0.007,0.002
				l0.019,0.002l0.021,0.002l0.012,0.001l0.016,0.003l0.026,0.002l0.015,0.002h0.003l0.023,0.004l0.036,0.004l0.035,0.004
				l0.025,0.003l0.003,0.001l0.013,0.001l0.025,0.003l0.019,0.002l0.013,0.001l0.021,0.003l0.017,0.001l0.01,0.001l0.021,0.002
				l0.029,0.004h0.008c0.021,0.002,0.041,0.005,0.062,0.006l0.009,0.002l0.027,0.003l0.024,0.003h0.01l0.015,0.003l0.021,0.001
				l0.015,0.001l0.019,0.002l0.023,0.003l0.012,0.001h0.008l0.03,0.004l0.027,0.003l0.026,0.002l0.036,0.003l0.005,0.001h0.01
				l0.025,0.004l0.021,0.001l0.015,0.001l0.019,0.002l0.017,0.003h0.012l0.024,0.003l0.026,0.002h0.008
				c0.021,0.002,0.043,0.004,0.064,0.006h0.006l0.025,0.002l0.029,0.004h0.01l0.015,0.002l0.02,0.001l0.017,0.002l0.02,0.001
				l0.022,0.002l0.013,0.001l0.008,0.001l0.033,0.002l0.026,0.002l0.021,0.003l0.042,0.002l0.005,0.001h0.011l0.023,0.003
				l0.022,0.001l0.015,0.001l0.018,0.001l0.018,0.002l0.012,0.002l0.025,0.001l0.025,0.001h0.01l0.002,0.002l0.053,0.003
				l0.016,0.001l0.027,0.004l0.029,0.001h0.008l0.016,0.001l0.022,0.001l0.017,0.001l0.018,0.002l0.022,0.001l0.015,0.001
				l0.008,0.001l0.027,0.001l0.031,0.002l0.031,0.002l0.035,0.002h0.014l0.027,0.004l0.021,0.001h0.012l0.021,0.001l0.02,0.002h0.01
				l0.021,0.002l0.03,0.001h0.011l0.003,0.001l0.023,0.002l0.043,0.002l0.037,0.001l0.021,0.001h0.006l0.018,0.002l0.027,0.002
				h0.013h0.014l0.027,0.001l0.018,0.001h0.005l0.018,0.002c0.053,0.002,0.106,0.004,0.159,0.007h0.021l0.023,0.001l0.025,0.002
				h0.02c0.058,0.003,0.116,0.004,0.175,0.008h0.027l0.035,0.001h0.014l0.031,0.001l0.025,0.002h0.002
				c0.11,0.003,0.221,0.005,0.334,0.008h0.055l0.029,0.002h0.053l0.032,0.001h0.051l0.036,0.001h0.087l0.023,0.002h0.104
				l0.053,0.002h0.369l0.082-0.002h0.084l0.083-0.002l0.085-0.001l0.082-0.001l0.082-0.002l0.084-0.002l0.083-0.001l0.083-0.002
				l0.082-0.001l0.083-0.004l0.082-0.002h0.001l0.078-0.003h0.001l0.003-0.001h0.023l0.049-0.002h0.01l0.025-0.002l0.043-0.001
				l0.006-0.001h0.008l0.025-0.001l0.038-0.001h0.018l0.025-0.003l0.034-0.001h0.012l0.011-0.001l0.023-0.001l0.03-0.002h0.016
				l0.012-0.001l0.021-0.001h0.028l0.017-0.002h0.015l0.021-0.002l0.025-0.001l0.019-0.001h0.017l0.018-0.002h0.023l0.021-0.002
				l0.018-0.001l0.018-0.001l0.02-0.001l0.024-0.001l0.021-0.002l0.014-0.001h0.019l0.026-0.003l0.021-0.002h0.014h0.014
				l0.031-0.002l0.022-0.002h0.011l0.013-0.002l0.033-0.001l0.023-0.002h0.007h0.012l0.037-0.004l0.023-0.001h0.016l0.043-0.004
				l0.021-0.002h0.01l0.053-0.004l0.019-0.002h0.002c0.052-0.002,0.104-0.007,0.155-0.012h0.001h0.009l0.062-0.005h0.006
				l0.002-0.001h0.019l0.049-0.005l0.008-0.001h0.005l0.021-0.002l0.04-0.003l0.011-0.001h0.006l0.021-0.002l0.037-0.004h0.012
				l0.008-0.002l0.021-0.001l0.033-0.003l0.014-0.002h0.011l0.021-0.002l0.029-0.003l0.018-0.001l0.011-0.002l0.019-0.002
				l0.027-0.002h0.018l0.016-0.004l0.016-0.001l0.024-0.002l0.022-0.002l0.015-0.001l0.017-0.002l0.02-0.002l0.023-0.003
				l0.019-0.001l0.013-0.002l0.02-0.001l0.027-0.003l0.018-0.001l0.012-0.001l0.016-0.002l0.031-0.004l0.02-0.002l0.009-0.002h0.015
				l0.033-0.004l0.021-0.002l0.007-0.001l0.012-0.001l0.037-0.004l0.021-0.002l0.006-0.002h0.008l0.043-0.004l0.02-0.003
				l0.004-0.001h0.007l0.051-0.006l0.016-0.002h0.001c0.076-0.01,0.151-0.018,0.227-0.027h0.001l0.014-0.002l0.052-0.006h0.007
				l0.005-0.002l0.016-0.002l0.045-0.005l0.008-0.001h0.006l0.02-0.004l0.037-0.004l0.012-0.002l0.007-0.001l0.019-0.001
				l0.033-0.006l0.016-0.002h0.008l0.02-0.003l0.029-0.005l0.015-0.002h0.012l0.017-0.002l0.027-0.005l0.019-0.001l0.012-0.002
				l0.017-0.003l0.023-0.003l0.021-0.003l0.015-0.003l0.014-0.002l0.022-0.002l0.022-0.004l0.016-0.002l0.012-0.003l0.02-0.001
				l0.026-0.004l0.017-0.002l0.011-0.002l0.017-0.003l0.028-0.005l0.019-0.002l0.009-0.002l0.015-0.002l0.031-0.004l0.018-0.004
				h0.008l0.013-0.002l0.035-0.005l0.019-0.003l0.006-0.002l0.01-0.001l0.059-0.009l0.003-0.001l0.009-0.001l0.046-0.006
				l0.015-0.003l0.003-0.001l0.005-0.001l0.06-0.009l0.007-0.001c0.047-0.009,0.096-0.016,0.143-0.024h0.001l0.011-0.002
				l0.053-0.008l0.006-0.002h0.003l0.017-0.003l0.043-0.007l0.008-0.002h0.004l0.02-0.004l0.037-0.006l0.008-0.001l0.008-0.001
				l0.019-0.004l0.032-0.006l0.013-0.002l0.007-0.002l0.019-0.003l0.028-0.004l0.015-0.005l0.011-0.001l0.018-0.003l0.025-0.004
				l0.016-0.004l0.012-0.002l0.016-0.004l0.023-0.004l0.019-0.002l0.013-0.003l0.016-0.003l0.021-0.004l0.02-0.004l0.015-0.002
				l0.013-0.004l0.018-0.002l0.025-0.005l0.014-0.003l0.012-0.003l0.016-0.003l0.025-0.004l0.019-0.004l0.009-0.002l0.015-0.003
				l0.027-0.005l0.019-0.004l0.008-0.002l0.011-0.002l0.031-0.006l0.019-0.004l0.008-0.001l0.009-0.002l0.034-0.007l0.02-0.004
				l0.004-0.001l0.008-0.001l0.039-0.008l0.018-0.004l0.004-0.002h0.006l0.047-0.01l0.012-0.003h0.002
				c0.045-0.009,0.09-0.019,0.134-0.028l0.001-0.001l0.012-0.001l0.05-0.011l0.005-0.001h0.002l0.019-0.005l0.038-0.009l0.007-0.001
				l0.005-0.001l0.019-0.005l0.034-0.007l0.008-0.002l0.007-0.001l0.02-0.005l0.03-0.007l0.01-0.003l0.006-0.002l0.021-0.004
				l0.026-0.005l0.012-0.004l0.01-0.001l0.018-0.004l0.024-0.006l0.013-0.004l0.012-0.002l0.018-0.004l0.02-0.005l0.017-0.004
				l0.013-0.003l0.015-0.004l0.02-0.005l0.017-0.003l0.016-0.004l0.013-0.004l0.017-0.004l0.021-0.005l0.016-0.003l0.012-0.003
				l0.015-0.005l0.021-0.004l0.017-0.004l0.011-0.004l0.015-0.002l0.022-0.006l0.019-0.004l0.009-0.004l0.012-0.002l0.025-0.006
				l0.02-0.006l0.007-0.002l0.009-0.003l0.027-0.007l0.021-0.004l0.006-0.002l0.007-0.002l0.031-0.008l0.021-0.006l0.004-0.002
				h0.005l0.036-0.01l0.02-0.004l0.002-0.002h0.002l0.047-0.013l0.013-0.003h0.001c0.02-0.006,0.041-0.011,0.061-0.017h0.002
				l0.016-0.005l0.041-0.012h0.004h0.003l0.021-0.006l0.033-0.009l0.005-0.002l0.003-0.001l0.021-0.006l0.028-0.008l0.006-0.002
				l0.008-0.002l0.021-0.006l0.024-0.007l0.009-0.003l0.008-0.002l0.021-0.006l0.022-0.006l0.011-0.003l0.008-0.003l0.02-0.006
				l0.02-0.006l0.012-0.002l0.012-0.004l0.018-0.004l0.019-0.006l0.013-0.004l0.012-0.004l0.017-0.006l0.017-0.004l0.015-0.004
				l0.015-0.004l0.016-0.004l0.014-0.005l0.016-0.005l0.016-0.006l0.013-0.004l0.014-0.003l0.018-0.006l0.017-0.005l0.012-0.004
				l0.011-0.002l0.019-0.008l0.021-0.004l0.009-0.004l0.01-0.002l0.02-0.007l0.021-0.006l0.008-0.003l0.008-0.003l0.021-0.007
				l0.022-0.006l0.005-0.003l0.007-0.001l0.025-0.008l0.022-0.008l0.006-0.002l0.002-0.001l0.026-0.009l0.025-0.007l0.003-0.001
				l0.002-0.001l0.027-0.009l0.026-0.009l0.001-0.001l0.03-0.01l0.026-0.008l0.028-0.011l0.026-0.007l0.004-0.002l0.026-0.01
				l0.024-0.008l0.002-0.002l0.004-0.001l0.025-0.008l0.022-0.008l0.005-0.001l0.006-0.002l0.023-0.009l0.021-0.007l0.006-0.001
				l0.007-0.003l0.023-0.009l0.018-0.006l0.008-0.002l0.009-0.004l0.021-0.007l0.017-0.006l0.009-0.002l0.01-0.005l0.02-0.007
				l0.016-0.006l0.01-0.004l0.012-0.004l0.018-0.006l0.014-0.004l0.012-0.005l0.014-0.005l0.016-0.006l0.012-0.004l0.012-0.006
				l0.016-0.006l0.016-0.004l0.008-0.005l0.015-0.005l0.019-0.006l0.012-0.005l0.009-0.003l0.015-0.006l0.02-0.008l0.01-0.003
				l0.008-0.003l0.016-0.006l0.021-0.009l0.009-0.003l0.005-0.002l0.018-0.007l0.022-0.009l0.007-0.003l0.006-0.001l0.016-0.008
				l0.025-0.01l0.007-0.002l0.003-0.001l0.018-0.006l0.026-0.012l0.005-0.002l0,0l0.016-0.006c0.059-0.022,0.117-0.046,0.174-0.069
				l0.012-0.006h0.001l0.005-0.002l0.028-0.013l0.015-0.006l0.003-0.001l0.006-0.002l0.026-0.012l0.014-0.006l0.005-0.001
				l0.007-0.005l0.023-0.008l0.014-0.007l0.004-0.001l0.011-0.005l0.021-0.009l0.014-0.006l0.006-0.002l0.011-0.006l0.019-0.008
				l0.012-0.006l0.008-0.003l0.012-0.006l0.018-0.007l0.012-0.004l0.007-0.004l0.015-0.006l0.016-0.008l0.01-0.004l0.009-0.004
				l0.015-0.008l0.016-0.006l0.007-0.004l0.011-0.006l0.018-0.006l0.012-0.006l0.008-0.004l0.011-0.004l0.019-0.01l0.011-0.005
				l0.005-0.003l0.012-0.005l0.021-0.011l0.01-0.003l0.004-0.003l0.012-0.006l0.022-0.01l0.008-0.004l0.003-0.002l0.012-0.006
				l0.025-0.011l0.008-0.003l0.001-0.002l0.011-0.006l0.028-0.014l0.005-0.002h0.001l0.007-0.002c0.07-0.035,0.139-0.07,0.207-0.105
				l0.006-0.002l0.002-0.002l0.006-0.003l0.027-0.015l0.009-0.004l0.003-0.002l0.008-0.003l0.022-0.013l0.01-0.005l0.003-0.002
				l0.008-0.004l0.022-0.012l0.009-0.005l0.004-0.002l0.011-0.006l0.019-0.01l0.01-0.005l0.005-0.003l0.011-0.006l0.018-0.01
				l0.007-0.004l0.006-0.003l0.015-0.007l0.014-0.01l0.009-0.004l0.007-0.004c1.184-0.658,1.945-1.43,2.141-2.261l0.002-0.007
				l0.002-0.008V91.15l0.001-0.006l0.003-0.006v-0.002l0.001-0.008l0.001-0.006v-0.001l0.002-0.008v-0.006l0.004-0.011v-0.004
				c0.008-0.043,0.016-0.086,0.02-0.131l0.002-0.001V90.96v-0.01v-0.003l0.002-0.003v-0.008v-0.005l0.001-0.002l0.001-0.008
				l0.001-0.002v-0.006l0.001-0.008v-0.004v-0.004V90.89l0.002-0.003v-0.015v-0.005v-0.006v-0.005v-0.006l0.002-0.003v-0.003V90.83
				l0.001-0.004v-0.016l0.001-0.006v-0.041V90.757L139.553,90.757L139.553,90.757z M139.553,95.576v4.832
				c0,2.67-5.82,4.834-13,4.834s-13-2.164-13-4.834v-4.832c0,2.669,5.82,4.832,13,4.832S139.553,98.245,139.553,95.576
				L139.553,95.576z M139.553,81.075v4.834c0,2.669-5.82,4.833-13,4.833s-13-2.164-13-4.833v-4.834c0,2.67,5.82,4.834,13,4.834
				S139.553,83.745,139.553,81.075L139.553,81.075z M139.553,81.075v4.834c0,2.669-5.82,4.833-13,4.833s-13-2.164-13-4.833v-4.834
				c0,2.67,5.82,4.834,13,4.834S139.553,83.745,139.553,81.075L139.553,81.075z"/>
			<path id="Fill-65" sketch:type="MSShapeGroup" fill="#589712" d="M88.525,13.466c0-1.168-0.959-2.113-2.145-2.113H68.344
				c-1.184,0-2.144,0.945-2.144,2.113v28.949c0,1.167,0.959,2.113,2.144,2.113h18.037c1.186,0,2.145-0.946,2.145-2.113V13.466
				L88.525,13.466z M67.435,13.516H87.29V38.98H67.435V13.516z"/>
			<path id="Fill-64" sketch:type="MSShapeGroup" fill="#FFFFFF" d="M78.937,41.791c0,0.741-0.61,1.342-1.362,1.342
				s-1.361-0.601-1.361-1.342s0.609-1.342,1.361-1.342S78.937,41.05,78.937,41.791"/>
			<path id="Line_1_" sketch:type="MSShapeGroup" fill="none" stroke="#9ADC51" stroke-width="2" stroke-linecap="square" d="M99,46
				l15.73,18.126"/>
			<path id="Line-3" sketch:type="MSShapeGroup" fill="none" stroke="#9ADC51" stroke-width="2" stroke-linecap="square" d="M55,46
				L39.27,64.126"/>
		</g>
	</g>
</g>
</svg>
