<?xml version="1.0" encoding="utf-8"?>
<!-- Generator: Adobe Illustrator 16.2.0, SVG Export Plug-In . SVG Version: 6.00 Build 0)  -->
<!DOCTYPE svg PUBLIC "-//W3C//DTD SVG 1.1//EN" "http://www.w3.org/Graphics/SVG/1.1/DTD/svg11.dtd">
<svg version="1.1" id="Layer_1" xmlns="http://www.w3.org/2000/svg" xmlns:xlink="http://www.w3.org/1999/xlink" x="0px" y="0px"
	 width="50.625px" height="62.313px" viewBox="0 0 50.625 62.313" enable-background="new 0 0 50.625 62.313" xml:space="preserve">
<path fill="none" stroke="#FFFFFF" stroke-miterlimit="10" d="M25.313,0.5C11.609,0.5,0.5,11.609,0.5,25.313
	c0,3.979,0.941,7.734,2.605,11.066l0,0l8.947,24.59l5.316-12.15c2.495,0.844,5.165,1.307,7.945,1.307
	c13.703,0,24.813-11.108,24.813-24.813C50.125,11.609,39.016,0.5,25.313,0.5z"/>
<g>
	<path fill="#FFFFFF" d="M24.156,31.526c0-0.988,0.086-1.858,0.259-2.613c0.173-0.753,0.408-1.427,0.704-2.02
		c0.297-0.593,0.643-1.13,1.038-1.612c0.395-0.481,0.816-0.932,1.26-1.353c0.445-0.42,0.89-0.858,1.334-1.315
		c0.444-0.457,0.839-0.933,1.186-1.427c0.345-0.494,0.623-1.025,0.834-1.594c0.209-0.568,0.314-1.173,0.314-1.816
		c0-0.913-0.167-1.698-0.5-2.353c-0.334-0.655-0.778-1.198-1.334-1.631c-0.556-0.433-1.192-0.747-1.909-0.945
		c-0.717-0.197-1.458-0.297-2.224-0.297c-1.111,0-2.088,0.186-2.928,0.557c-0.84,0.37-1.538,0.889-2.094,1.557
		c-0.556,0.667-0.977,1.451-1.26,2.353c-0.285,0.902-0.427,1.885-0.427,2.946h-1.408c0-1.309,0.179-2.507,0.538-3.595
		c0.358-1.087,0.883-2.02,1.575-2.798s1.551-1.377,2.576-1.798c1.025-0.419,2.205-0.63,3.539-0.63c0.988,0,1.921,0.137,2.798,0.408
		s1.649,0.68,2.316,1.223c0.667,0.544,1.192,1.236,1.575,2.075c0.383,0.841,0.574,1.816,0.574,2.928
		c0,0.791-0.092,1.489-0.277,2.095c-0.186,0.605-0.433,1.155-0.741,1.648c-0.31,0.495-0.662,0.945-1.057,1.354
		c-0.396,0.407-0.803,0.81-1.223,1.204c-0.42,0.37-0.846,0.76-1.278,1.167c-0.433,0.408-0.822,0.896-1.167,1.464
		c-0.346,0.569-0.63,1.242-0.853,2.021c-0.222,0.778-0.333,1.711-0.333,2.798H24.156z M23.971,34.417h1.89v3.817h-1.89V34.417z"/>
</g>
</svg>
