<?xml version="1.0" encoding="utf-8"?>
<!-- Generator: Adobe Illustrator 17.1.0, SVG Export Plug-In . SVG Version: 6.00 Build 0)  -->
<!DOCTYPE svg PUBLIC "-//W3C//DTD SVG 1.1//EN" "http://www.w3.org/Graphics/SVG/1.1/DTD/svg11.dtd">
<svg version="1.1" id="Layer_1" xmlns="http://www.w3.org/2000/svg" xmlns:xlink="http://www.w3.org/1999/xlink" x="0px" y="0px"
	 viewBox="0 0 144.5 22.4" enable-background="new 0 0 144.5 22.4" xml:space="preserve">
<g>
	<path opacity="0.37" fill="#FFFFFF" d="M142.2,22.4H2.3c-1.3,0-2.3-0.9-2.3-2V0h144.5v20.4C144.5,21.5,143.5,22.4,142.2,22.4z"/>
	
		<line fill="none" stroke="#FFFFFF" stroke-width="2.0581" stroke-linecap="round" stroke-miterlimit="10" x1="33" y1="11.2" x2="114.7" y2="11.2"/>
	<g>
		<path fill="#FFFFFF" d="M65.9,17c0,0.5-0.4,1-1,1h-4.5c-0.5,0-1-0.5-1-1V6.1c0-0.6,0.5-1,1-1h4.5c0.6,0,1,0.4,1,1V17z"/>
	</g>
	<polygon fill="#FFFFFF" points="11,11.5 11,5.1 17.6,8.3 24.1,11.5 17.6,14.8 11,18 	"/>
	<g>
		<polygon fill="#FFFFFF" points="123.7,8.8 123.7,13.8 126.5,13.8 132.7,16.4 132.7,5.3 126.5,8.8 		"/>
		<path fill="#FFFFFF" d="M136.9,3.3l-1.1,1.5c2,0.7,3.6,3.2,3.6,6.1c0,2.8-1.5,5.3-3.5,6.1l1.1,1.5c2.6-1.1,4.5-4.1,4.5-7.6
			C141.4,7.4,139.5,4.4,136.9,3.3z"/>
		<path fill="#FFFFFF" d="M134.8,6.2l-1.1,1.5c0.9,0.7,1.5,1.9,1.5,3.2c0,1.3-0.6,2.4-1.4,3.1l1.1,1.5c1.5-1,2.4-2.7,2.4-4.6
			C137.2,8.9,136.2,7.2,134.8,6.2z"/>
	</g>
</g>
</svg>
