<?xml version="1.0" encoding="utf-8"?>
<!-- Generator: Adobe Illustrator 18.1.1, SVG Export Plug-In . SVG Version: 6.00 Build 0)  -->
<svg version="1.1" id="Layer_1" xmlns="http://www.w3.org/2000/svg" xmlns:xlink="http://www.w3.org/1999/xlink" x="0px" y="0px"
	 width="335px" height="23.8px" viewBox="1371.8 3.8 335 23.8" enable-background="new 1371.8 3.8 335 23.8" xml:space="preserve">
<g>
	<path d="M1441.1,22.9V9.1h3.5c2.6-0.1,5.6,0.6,5.6,3.9s-3,3.9-5.6,3.9h-2.2v6H1441.1z M1442.4,15.8h3c1.8,0,3.5-0.6,3.5-2.8
		s-1.6-2.8-3.5-2.8h-3V15.8z"/>
	<path d="M1457.5,23.2c-3.9,0-6.1-2.9-6.1-7.1s2.2-7.1,6.1-7.1s6.1,2.9,6.1,7.1S1461.4,23.2,1457.5,23.2z M1457.5,22
		c3.5,0,4.8-3,4.8-6s-1.4-6-4.8-6c-3.5,0-4.8,3-4.8,6S1454,22,1457.5,22z"/>
	<path d="M1466,22.9V9.1h1.2v12.6h6.9v1.1L1466,22.9L1466,22.9z"/>
	<path d="M1476,22.9V9.1h1.2v13.8L1476,22.9L1476,22.9z"/>
	<path d="M1483.2,10.3h-4.4V9.2h10v1.1h-4.4v12.6h-1.2V10.3z"/>
	<path d="M1490.3,22.9V9.1h1.2v13.8L1490.3,22.9L1490.3,22.9z"/>
	<path d="M1503,12.4c-0.2-1.7-1.7-2.3-3.2-2.3c-3.5,0-4.6,3.2-4.6,6s1.1,6,4.6,6c1.6,0,3-0.8,3.4-2.5h1.3c-0.4,2.3-2.5,3.6-4.7,3.6
		c-4.2,0-5.9-3.3-5.9-7.1c0-3.7,1.8-7.1,5.9-7.1c2.3,0,4.4,1.1,4.6,3.5L1503,12.4L1503,12.4z"/>
	<path d="M1504.8,22.9l5.4-13.8h1.4l5.5,13.8h-1.3l-1.5-3.7h-6.8l-1.4,3.7H1504.8z M1514,18.1l-3-7.8l-3,7.8H1514z"/>
	<path d="M1518.5,22.9V9.1h1.2v12.6h6.9v1.1L1518.5,22.9L1518.5,22.9z"/>
	<path d="M1531.4,22.9l5.4-13.8h1.4l5.5,13.8h-1.3l-1.5-3.7h-6.8l-1.5,3.7H1531.4z M1540.4,18.1l-3-7.8l-3,7.8H1540.4z"/>
	<path d="M1553.4,12.4c-0.2-1.7-1.7-2.3-3.2-2.3c-3.5,0-4.6,3.2-4.6,6s1.1,6,4.6,6c1.6,0,3-0.8,3.4-2.5h1.3
		c-0.4,2.3-2.5,3.6-4.7,3.6c-4.2,0-5.9-3.3-5.9-7.1c0-3.7,1.8-7.1,5.9-7.1c2.3,0,4.4,1.1,4.6,3.5L1553.4,12.4L1553.4,12.4z"/>
	<path d="M1559.8,10.3h-4.4V9.2h10v1.1h-4.4v12.6h-1.2V10.3z"/>
	<path d="M1566.9,22.9V9.1h1.2v13.8L1566.9,22.9L1566.9,22.9z"/>
	<path d="M1576.7,23.2c-3.9,0-6.1-2.9-6.1-7.1s2.2-7.1,6.1-7.1s6.1,2.9,6.1,7.1S1580.7,23.2,1576.7,23.2z M1576.7,22
		c3.5,0,4.8-3,4.8-6s-1.4-6-4.8-6c-3.5,0-4.8,3-4.8,6S1573.4,22,1576.7,22z"/>
	<path d="M1585.1,9.1h1.4l7.5,12.1l0,0V9.1h1.2v13.8h-1.6l-7.4-11.8l0,0v11.8h-1.2V9.1z"/>
	<path d="M1611.4,12.4c-0.2-1.7-1.7-2.3-3.2-2.3c-3.5,0-4.6,3.2-4.6,6s1.1,6,4.6,6c1.6,0,3-0.8,3.4-2.5h1.3
		c-0.4,2.3-2.5,3.6-4.7,3.6c-4.2,0-5.9-3.3-5.9-7.1c0-3.7,1.8-7.1,5.9-7.1c2.3,0,4.4,1.1,4.6,3.5L1611.4,12.4L1611.4,12.4z"/>
	<path d="M1620.5,23.2c-3.9,0-6.1-2.9-6.1-7.1s2.2-7.1,6.1-7.1s6.1,2.9,6.1,7.1S1624.4,23.2,1620.5,23.2z M1620.5,22
		c3.5,0,4.8-3,4.8-6s-1.4-6-4.8-6c-3.4,0-4.8,3-4.8,6S1617,22,1620.5,22z"/>
	<path d="M1628.9,22.9V9.1h2l5.1,12l5.3-12h1.9v13.8h-1.2V10.3l0,0l-5.3,12.7h-1.2l-5.3-12.6l0,0v12.6L1628.9,22.9L1628.9,22.9z"/>
	<path d="M1646.1,22.9V9.1h2l5.1,12l5.3-12h1.9v13.8h-1.2V10.3l0,0l-5.3,12.7h-1.2l-5.3-12.6l0,0v12.6L1646.1,22.9L1646.1,22.9z"/>
	<path d="M1663.5,22.9V9.1h1.2v13.8L1663.5,22.9L1663.5,22.9z"/>
	<path d="M1670.7,10.3h-4.4V9.2h10v1.1h-4.4v12.6h-1.2V10.3z"/>
	<path d="M1680.4,10.3h-4.4V9.2h10v1.1h-4.4v12.6h-1.2L1680.4,10.3z"/>
	<path d="M1687.5,22.9V9.1h8.2v1.1h-6.9v4.9h6.7v1.1h-6.7v5.4h7.2v1.1L1687.5,22.9L1687.5,22.9z"/>
	<path d="M1698.3,22.9V9.1h8.2v1.1h-6.9v4.9h6.7v1.1h-6.7v5.4h7.2v1.1L1698.3,22.9L1698.3,22.9z"/>
</g>
<g>
	<path d="M1415.9,20.1c0,0.8,0,1.7,0.1,2.5h-2.8c-0.1-0.6-0.1-1.3-0.1-1.8c-1.5,1.8-3.2,2.3-5.7,2.3c-3.7,0-5.6-1.9-5.6-4.2
		c0-3.2,2.7-4.4,7.3-4.4c1.3,0,2.7,0,3.9,0v-0.4c0-2.2-1.4-3-3.8-3c-1.8,0-3.1,0.7-3.2,2h-3.1c0.4-3.2,3.7-3.9,6.6-3.9
		c3.5,0,6.5,1.3,6.5,5L1415.9,20.1L1415.9,20.1z M1409.2,16.4c-2.7,0.1-4.4,0.6-4.4,2.3c0,1.1,0.9,2.4,3.2,2.4
		c3.1,0,4.8-1.7,4.8-4.4v-0.3C1411.8,16.3,1410.4,16.3,1409.2,16.4"/>
	<path d="M1374.8,16.7c0.1,2.7,2,4.3,4.6,4.3c1.8,0,3.3-0.7,3.9-2.3h3c-0.6,3.2-3.9,4.2-6.9,4.2c-5.3,0-7.6-2.9-7.6-6.8
		c0-4.3,2.4-7.2,7.7-7.2c4.2,0,7.3,2.2,7.3,7v0.8C1386.8,16.7,1374.8,16.7,1374.8,16.7z M1383.6,14.8c-0.1-2.8-2.1-3.8-4.2-3.8
		c-2.3,0-4.2,1.1-4.4,3.8H1383.6z"/>
	<path d="M1386.8,3.8h3v7.5c1.5-1.8,3.5-2.3,5.4-2.3c3.3,0,7,2.3,7,7.1c0,4-2.9,7-7.1,7c-2.1,0-4.2-0.8-5.4-2.3c0,0.6,0,1.2-0.1,1.8
		h-2.9c0.1-0.9,0.1-2.1,0.1-3V3.8z M1394.4,21c2.8,0,4.7-2,4.7-5s-1.9-5-4.7-5c-2.8,0-4.7,2-4.7,5S1391.6,21,1394.4,21"/>
	<polygon points="1430.9,9.5 1421.7,27.5 1418.5,27.5 1421.1,22.5 1414.2,9.5 1417.6,9.5 1422.7,19.7 1427.8,9.5 	"/>
</g>
</svg>
