<svg xmlns="http://www.w3.org/2000/svg" viewBox="0 0 1461.68 197.25"><defs><style>.cls-1{fill:#0a1c6b;}</style></defs><title>ebay-new-logo</title><g id="Layer_2" data-name="Layer 2"><g id="Layer_1-2" data-name="Layer 1"><path class="cls-1" d="M569.18,155.39V47.81h15.5l40.38,93.72,41.27-93.72h14.75V155.39H671.4V56h-.3L630,155.39h-9.68L579.16,56.45h-.3v98.94Z"/><path class="cls-1" d="M690.76,155.39,733.38,47.81H744.7l42.91,107.58H777l-11.47-29.06H712.07l-11.33,29.06Zm71.37-38L738.89,56.75,715.2,117.39Z"/><path class="cls-1" d="M798.79,155.39v-108h9.68v108Z"/><path class="cls-1" d="M832,47.81h11l59.3,94.61h.3V47.81h9.68V155.39H900.11L842,62.41h-.3v93H832Z"/><path class="cls-1" d="M996.06,157.62c-17.14,0-31.59-12.52-32-30.25h10.42c.3,16.54,12.52,21.31,27,21.31,12.07,0,25.93-7,25.93-20.71,0-10.73-7.75-15.79-16.84-18.77-17.43-5.82-44-11.33-44-34.57,0-18.78,17.28-29.06,34.27-29.06,14.15,0,32.63,4.92,35,25.63h-10.43c-.29-13.26-12.36-16.69-23.39-16.69s-25,5.66-25,18.78c0,30.54,60.79,16.68,60.79,53.79C1037.78,150.47,1017.67,157.62,996.06,157.62Z"/><path class="cls-1" d="M1077.26,56.75h-34.71V47.81h78.67v8.94H1087.1l-.15,98.64h-9.54Z"/><path class="cls-1" d="M1142.38,155.39h-9.69V47.81h35.17c9.38,0,17.13.59,25.33,5.66,7.45,4.47,11,12.22,11,22.5,0,11.62-8.19,20-20.71,23.09v.3c13.71,2.24,16.69,11.47,18,24,1.94,17.43,1.34,25.48,5.66,32H1196c-2.54-7.16-3.13-14.75-3.73-22.35-2.23-24.59-3.72-28.91-23.24-28.91h-26.67Zm20.71-60.2c13.71,0,30.69-.89,30.69-19.22,0-20.71-19.37-19.22-29.65-19.22h-21.75V95.19Z"/><path class="cls-1" d="M1226,155.39V47.81h63.93v8.94h-54.24V95.34h52.15v8.94h-52.15v42.17h56.47v8.94Z"/><path class="cls-1" d="M1311,155.39V47.81H1375v8.94h-54.23V95.34h52.15v8.94h-52.15v42.17h56.47v8.94Z"/><path class="cls-1" d="M1417.73,56.75H1383V47.81h78.67v8.94h-34.12l-.15,98.64h-9.54Z"/><path class="cls-1" d="M366.61,135.18c0,7.18.2,14.26.83,20.64H344.5a132.58,132.58,0,0,1-.84-15.54c-12.4,15.25-27.16,19.63-47.62,19.63-30.36,0-46.62-16-46.62-34.6,0-26.88,22.11-36.36,60.49-37.24,10.5-.23,22.28-.27,32-.27V85.17c0-18-11.53-25.39-31.53-25.39-14.84,0-25.78,6.14-26.91,16.76H257.58c2.74-26.47,30.54-33.16,55-33.16,29.3,0,54,10.42,54,41.39Zm-55-30.57c-22.36.74-36.26,4.77-36.26,19.5,0,9.54,7.6,19.88,26.91,19.88,25.87,0,39.68-14.11,39.68-37.25V104.2c-9.07,0-20.26.08-30.34.41"/><path class="cls-1" d="M25.12,107.89c1.33,22.39,16.77,35.63,38,35.63,14.71,0,27.8-6,32.18-19h25.43c-4.94,26.45-33,35.42-57.24,35.42C19.49,159.91,0,135.69,0,103c0-36,20.16-59.64,63.88-59.64,34.8,0,60.3,18.21,60.3,58v6.55Zm73.14-16.4c-1-23.08-17.61-31.71-35.41-31.71-19.19,0-34.51,9.71-37.2,31.71Z"/><path class="cls-1" d="M124.18,0h24.66V62c12.09-14.4,28.74-18.59,45.13-18.59,27.49,0,58,18.55,58,58.59,0,33.53-24.28,58-58.46,58-17.9,0-34.75-6.42-45.13-19.14a134.55,134.55,0,0,1-.84,15H123.33c.43-7.83.85-17.58.85-25.47Zm63.27,143.05c22.92,0,38.61-16.5,38.61-41.4s-15.69-41.4-38.61-41.4-38.61,16.5-38.61,41.4,15.81,41.4,38.61,41.4"/><polygon class="cls-1" points="492.2 47.48 415.94 197.25 388.32 197.25 410.25 155.66 352.85 47.48 381.71 47.48 423.94 132 466.06 47.48 492.2 47.48"/></g></g></svg>