<?xml version="1.0" encoding="utf-8"?>
<!-- Generator: Adobe Illustrator 19.1.0, SVG Export Plug-In . SVG Version: 6.00 Build 0)  -->
<svg version="1.1" id="Layer_1" xmlns="http://www.w3.org/2000/svg" xmlns:xlink="http://www.w3.org/1999/xlink" x="0px" y="0px"
	 width="102px" height="40.9px" viewBox="0 0 102 40.9" style="enable-background:new 0 0 102 40.9;" xml:space="preserve">
<style type="text/css">
	.st0{fill:#F5AF02;}
	.st1{fill:#E53238;}
	.st2{fill:#0066CC;}
	.st3{fill:#86B817;}
</style>
<g transform="translate(765)">
	<path class="st0" d="M-700.4,21.7c-4.6,0.1-7.5,1-7.5,4c0,2,1.6,4.1,5.6,4.1c5.4,0,8.2-2.9,8.2-7.7v-0.5
		C-696,21.6-698.3,21.6-700.4,21.7 M-689,28c0,1.5,0,3,0.2,4.3h-4.8c-0.1-1.1-0.2-2.2-0.2-3.2c-2.6,3.2-5.6,4.1-9.9,4.1
		c-6.3,0-9.7-3.3-9.7-7.2c0-5.6,4.6-7.5,12.5-7.7c2.2,0,4.6-0.1,6.6-0.1v-0.5c0-3.7-2.4-5.3-6.5-5.3c-3.1,0-5.3,1.3-5.6,3.5h-5.4
		c0.6-5.5,6.3-6.9,11.4-6.9c6.1,0,11.2,2.2,11.2,8.6L-689,28L-689,28z"/>
	<path class="st1" d="M-744.6,19c-0.2-4.8-3.6-6.6-7.3-6.6c-4,0-7.2,2-7.7,6.6H-744.6z M-759.8,22.4c0.3,4.6,3.5,7.4,7.9,7.4
		c3,0,5.8-1.2,6.7-3.9h5.3c-1,5.5-6.9,7.3-11.9,7.3c-9.1,0-13.2-5-13.2-11.8c0-7.5,4.2-12.4,13.2-12.4c7.2,0,12.5,3.8,12.5,12v1.4
		L-759.8,22.4L-759.8,22.4z"/>
	<path class="st2" d="M-726.2,29.6c4.8,0,8-3.4,8-8.6c0-5.2-3.2-8.6-8-8.6c-4.7,0-8,3.4-8,8.6C-734.2,26.2-730.9,29.6-726.2,29.6
		 M-739.3,0h5.1v12.8c2.5-3,6-3.9,9.4-3.9c5.7,0,12,3.8,12,12.1c0,7-5,12-12.1,12c-3.7,0-7.2-1.3-9.3-4c0,1.1-0.1,2.1-0.2,3.1h-5
		c0.1-1.6,0.2-3.6,0.2-5.3L-739.3,0L-739.3,0z"/>
	<path class="st3" d="M-663,9.8l-15.8,31h-5.7l4.5-8.6l-11.9-22.4h6l8.8,17.5l8.7-17.5"/>
</g>
</svg>
