<?xml version="1.0" encoding="utf-8"?>
<!-- Generator: Adobe Illustrator 18.1.1, SVG Export Plug-In . SVG Version: 6.00 Build 0)  -->
<svg version="1.1" id="Layer_1" xmlns="http://www.w3.org/2000/svg" xmlns:xlink="http://www.w3.org/1999/xlink" x="0px" y="0px"
	 width="475px" height="33.6px" viewBox="1079.8 -0.6 475 33.6" enable-background="new 1079.8 -0.6 475 33.6" xml:space="preserve"
	>
<g>
	<path fill="#796E65" d="M1178.1,26.5V7h4.9c3.7-0.1,7.9,0.9,7.9,5.5s-4.2,5.6-7.9,5.5h-3.1v8.5H1178.1z M1179.9,16.4h4.2
		c2.6,0,4.9-0.8,4.9-3.9s-2.3-3.9-4.9-3.9h-4.2V16.4z"/>
	<path fill="#796E65" d="M1201.3,26.9c-5.6,0-8.7-4.1-8.7-10.1s3.1-10.1,8.7-10.1c5.6,0,8.7,4.1,8.7,10.1S1206.8,26.9,1201.3,26.9z
		 M1201.3,25.3c4.9,0,6.8-4.2,6.8-8.5s-2-8.5-6.8-8.5c-4.9,0-6.8,4.2-6.8,8.5S1196.4,25.3,1201.3,25.3z"/>
	<path fill="#796E65" d="M1213.4,26.5V7h1.7v17.8h9.8v1.6L1213.4,26.5L1213.4,26.5z"/>
	<path fill="#796E65" d="M1227.5,26.5V7h1.7v19.6L1227.5,26.5L1227.5,26.5z"/>
	<path fill="#796E65" d="M1237.7,8.7h-6.3V7.1h14.2v1.6h-6.2l0,17.8h-1.7V8.7z"/>
	<path fill="#796E65" d="M1247.8,26.5V7h1.7v19.6L1247.8,26.5L1247.8,26.5z"/>
	<path fill="#796E65" d="M1265.9,11.6c-0.3-2.4-2.4-3.3-4.6-3.3c-5,0-6.5,4.5-6.5,8.5s1.5,8.5,6.5,8.5c2.2,0,4.3-1.1,4.8-3.5h1.9
		c-0.6,3.3-3.6,5.1-6.7,5.1c-5.9,0-8.4-4.7-8.4-10.1c0-5.3,2.5-10.1,8.4-10.1c3.2,0,6.2,1.5,6.5,4.9L1265.9,11.6L1265.9,11.6z"/>
	<path fill="#796E65" d="M1268.4,26.5l7.7-19.5h2l7.8,19.5h-1.9l-2.1-5.2h-9.7l-2,5.2H1268.4z M1281.4,19.7l-4.2-11l-4.3,11H1281.4z
		"/>
	<path fill="#796E65" d="M1287.8,26.5V7h1.7v17.8h9.8v1.6L1287.8,26.5L1287.8,26.5z"/>
	<path fill="#796E65" d="M1306.1,26.5l7.7-19.5h2l7.8,19.5h-1.9l-2.1-5.2h-9.7l-2.1,5.2H1306.1z M1318.9,19.7l-4.2-11l-4.3,11
		H1318.9z"/>
	<path fill="#796E65" d="M1337.3,11.6c-0.3-2.4-2.4-3.3-4.6-3.3c-5,0-6.5,4.5-6.5,8.5s1.5,8.5,6.5,8.5c2.2,0,4.3-1.1,4.8-3.5h1.9
		c-0.6,3.3-3.6,5.1-6.7,5.1c-5.9,0-8.4-4.7-8.4-10.1c0-5.3,2.5-10.1,8.4-10.1c3.2,0,6.2,1.5,6.5,4.9L1337.3,11.6L1337.3,11.6z"/>
	<path fill="#796E65" d="M1346.3,8.7h-6.3V7.1h14.2v1.6h-6.2l0,17.8h-1.7V8.7z"/>
	<path fill="#796E65" d="M1356.4,26.5V7h1.7v19.6L1356.4,26.5L1356.4,26.5z"/>
	<path fill="#796E65" d="M1370.4,26.9c-5.6,0-8.7-4.1-8.7-10.1s3.1-10.1,8.7-10.1c5.6,0,8.7,4.1,8.7,10.1S1376,26.9,1370.4,26.9z
		 M1370.4,25.3c4.9,0,6.8-4.2,6.8-8.5s-2-8.5-6.8-8.5c-4.9,0-6.8,4.2-6.8,8.5S1365.6,25.3,1370.4,25.3z"/>
	<path fill="#796E65" d="M1382.3,7h2l10.7,17.1h0V7h1.7v19.5h-2.2l-10.5-16.8h0v16.8h-1.7V7z"/>
	<path fill="#796E65" d="M1419.6,11.6c-0.3-2.4-2.4-3.3-4.6-3.3c-5,0-6.5,4.5-6.5,8.5s1.5,8.5,6.5,8.5c2.2,0,4.3-1.1,4.8-3.5h1.9
		c-0.6,3.3-3.6,5.1-6.7,5.1c-5.9,0-8.4-4.7-8.4-10.1c0-5.3,2.5-10.1,8.4-10.1c3.2,0,6.2,1.5,6.5,4.9L1419.6,11.6L1419.6,11.6z"/>
	<path fill="#796E65" d="M1432.4,26.9c-5.6,0-8.7-4.1-8.7-10.1s3.1-10.1,8.7-10.1s8.7,4.1,8.7,10.1S1438,26.9,1432.4,26.9z
		 M1432.4,25.3c4.9,0,6.8-4.2,6.8-8.5s-2-8.5-6.8-8.5s-6.8,4.2-6.8,8.5S1427.5,25.3,1432.4,25.3z"/>
	<path fill="#796E65" d="M1444.4,26.5V7h2.8l7.3,17l7.5-17h2.7v19.5h-1.7V8.6h0l-7.5,18h-1.7l-7.5-17.9h0v17.9L1444.4,26.5
		L1444.4,26.5z"/>
	<path fill="#796E65" d="M1468.7,26.5V7h2.8l7.3,17l7.5-17h2.7v19.5h-1.7V8.6h0l-7.5,18h-1.7l-7.5-17.9h0v17.9L1468.7,26.5
		L1468.7,26.5z"/>
	<path fill="#796E65" d="M1493.4,26.5V7h1.7v19.6L1493.4,26.5L1493.4,26.5z"/>
	<path fill="#796E65" d="M1503.6,8.7h-6.3V7.1h14.2v1.6h-6.2l0,17.8h-1.7V8.7z"/>
	<path fill="#796E65" d="M1517.4,8.7h-6.2V7.1h14.2v1.6h-6.2l0,17.8h-1.7L1517.4,8.7z"/>
	<path fill="#796E65" d="M1527.4,26.5V7h11.6v1.6h-9.8v7h9.5v1.6h-9.5v7.6h10.2v1.6L1527.4,26.5L1527.4,26.5z"/>
	<path fill="#796E65" d="M1542.8,26.5V7h11.6v1.6h-9.8v7h9.5v1.6h-9.5v7.6h10.2v1.6L1542.8,26.5L1542.8,26.5z"/>
</g>
<g>
	<path fill="#FAAB18" d="M1142.3,22.5c0,1.2,0,2.4,0.1,3.5h-3.9c-0.1-0.9-0.1-1.8-0.1-2.6c-2.1,2.6-4.6,3.3-8.1,3.3
		c-5.2,0-7.9-2.7-7.9-5.9c0-4.6,3.8-6.2,10.3-6.3c1.8,0,3.8,0,5.5,0V14c0-3.1-2-4.3-5.4-4.3c-2.5,0-4.4,1-4.6,2.9h-4.4
		c0.5-4.5,5.2-5.6,9.4-5.6c5,0,9.2,1.8,9.2,7.1V22.5L1142.3,22.5z M1132.9,17.3c-3.8,0.1-6.2,0.8-6.2,3.3c0,1.6,1.3,3.4,4.6,3.4
		c4.4,0,6.8-2.4,6.8-6.3v-0.4C1136.5,17.2,1134.6,17.2,1132.9,17.3"/>
	<path fill="#EE3E42" d="M1084.1,17.8c0.2,3.8,2.9,6.1,6.5,6.1c2.5,0,4.7-1,5.5-3.3h4.3c-0.8,4.5-5.6,6-9.8,6
		c-7.5,0-10.8-4.1-10.8-9.7c0-6.1,3.4-10.2,10.9-10.2c5.9,0,10.3,3.1,10.3,9.9v1.1C1101,17.8,1084.1,17.8,1084.1,17.8z M1096.5,15.1
		c-0.2-3.9-3-5.4-6-5.4c-3.3,0-5.9,1.6-6.3,5.4H1096.5z"/>
	<path fill="#0074BB" d="M1101-0.6h4.2V10c2.1-2.5,4.9-3.2,7.7-3.2c4.7,0,9.9,3.2,9.9,10c0,5.7-4.1,9.9-10,9.9c-3,0-5.9-1.1-7.7-3.3
		c0,0.9,0,1.7-0.1,2.6h-4.1c0.1-1.3,0.1-3,0.1-4.3V-0.6z M1111.8,23.8c3.9,0,6.6-2.8,6.6-7.1s-2.7-7.1-6.6-7.1s-6.6,2.8-6.6,7.1
		S1107.9,23.8,1111.8,23.8"/>
	<polygon fill="#7DC142" points="1163.6,7.6 1150.6,33.1 1146,33.1 1149.7,26 1139.9,7.6 1144.8,7.6 1152,22 1159.2,7.6 	"/>
</g>
</svg>
