<?xml version="1.0" encoding="utf-8"?>
<!-- Generator: Adobe Illustrator 21.0.2, SVG Export Plug-In . SVG Version: 6.00 Build 0)  -->
<svg version="1.1" id="Layer_1" xmlns="http://www.w3.org/2000/svg" xmlns:xlink="http://www.w3.org/1999/xlink" x="0px" y="0px"
	 viewBox="0 0 1654 320" style="enable-background:new 0 0 1654 320;" xml:space="preserve">
<style type="text/css">
	.st0{fill:#796E65;}
	.st1{fill:#FAAB18;}
	.st2{fill:#EE3E42;}
	.st3{fill:#0074BB;}
	.st4{fill:#7DC142;}
</style>
<g>
	<path class="st0" d="M663,221.1V113.6h15.5l40.4,93.7l41.3-93.7h14.8v107.6h-9.7v-99.4H765l-41.1,99.4h-9.7L673,122.2h-0.3v98.9
		H663z"/>
	<path class="st0" d="M784.6,221.1l42.6-107.6h11.3l42.9,107.6h-10.6l-11.5-29.1h-53.5l-11.3,29.1H784.6z M856,183.1l-23.2-60.6
		l-23.7,60.6H856z"/>
	<path class="st0" d="M892.6,221.1v-108h9.7v108H892.6z"/>
	<path class="st0" d="M925.9,113.6h11l59.3,94.6h0.3v-94.6h9.7v107.6H994l-58.1-93h-0.3v93h-9.7V113.6z"/>
	<path class="st0" d="M1089.9,223.4c-17.1,0-31.6-12.5-32-30.2h10.4c0.3,16.5,12.5,21.3,27,21.3c12.1,0,25.9-7,25.9-20.7
		c0-10.7-7.7-15.8-16.8-18.8c-17.4-5.8-44-11.3-44-34.6c0-18.8,17.3-29.1,34.3-29.1c14.2,0,32.6,4.9,35,25.6h-10.4
		c-0.3-13.3-12.4-16.7-23.4-16.7c-11.2,0-25,5.7-25,18.8c0,30.5,60.8,16.7,60.8,53.8C1131.6,216.2,1111.5,223.4,1089.9,223.4z"/>
	<path class="st0" d="M1171.1,122.5h-34.7v-8.9h78.7v8.9H1181l-0.1,98.6h-9.5L1171.1,122.5z"/>
	<path class="st0" d="M1236.2,221.1h-9.7V113.6h35.2c9.4,0,17.1,0.6,25.3,5.7c7.5,4.5,11,12.2,11,22.5c0,11.6-8.2,20-20.7,23.1v0.3
		c13.7,2.2,16.7,11.5,18,24c1.9,17.4,1.3,25.5,5.7,32h-11.2c-2.5-7.2-3.1-14.8-3.7-22.4c-2.2-24.6-3.7-28.9-23.2-28.9h-26.7V221.1z
		 M1257,160.9c13.7,0,30.7-0.9,30.7-19.2c0-20.7-19.4-19.2-29.7-19.2h-21.8v38.4H1257z"/>
	<path class="st0" d="M1319.8,221.1V113.6h63.9v8.9h-54.2v38.6h52.2v8.9h-52.2v42.2h56.5v8.9H1319.8z"/>
	<path class="st0" d="M1404.9,221.1V113.6h63.9v8.9h-54.2v38.6h52.2v8.9h-52.2v42.2h56.5v8.9H1404.9z"/>
	<path class="st0" d="M1511.6,122.5h-34.7v-8.9h78.7v8.9h-34.1l-0.1,98.6h-9.5L1511.6,122.5z"/>
</g>
<path class="st1" d="M460.5,200.9c0,7.2,0.2,14.3,0.8,20.6h-22.9c-0.6-5.3-0.8-10.5-0.8-15.5c-12.4,15.3-27.2,19.6-47.6,19.6
	c-30.4,0-46.6-16-46.6-34.6c0-26.9,22.1-36.4,60.5-37.2c10.5-0.2,22.3-0.3,32-0.3l0-2.6c0-18-11.5-25.4-31.5-25.4
	c-14.8,0-25.8,6.1-26.9,16.8h-25.9c2.7-26.5,30.5-33.2,55-33.2c29.3,0,54,10.4,54,41.4V200.9z M405.5,170.4
	c-22.4,0.7-36.3,4.8-36.3,19.5c0,9.5,7.6,19.9,26.9,19.9c25.9,0,39.7-14.1,39.7-37.2l0-2.5C426.7,169.9,415.5,170,405.5,170.4"/>
<path class="st2" d="M119,173.6c1.3,22.4,16.8,35.6,38,35.6c14.7,0,27.8-6,32.2-19h25.4c-4.9,26.4-33.1,35.4-57.2,35.4
	c-44,0-63.5-24.2-63.5-56.9c0-36,20.2-59.6,63.9-59.6c34.8,0,60.3,18.2,60.3,58v6.6H119z M192.1,157.2c-1-23.1-17.6-31.7-35.4-31.7
	c-19.2,0-34.5,9.7-37.2,31.7H192.1z"/>
<path class="st3" d="M218,65.7h24.7l0,62c12.1-14.4,28.7-18.6,45.1-18.6c27.5,0,58,18.5,58,58.6c0,33.5-24.3,58-58.5,58
	c-17.9,0-34.7-6.4-45.1-19.1c0,5.1-0.3,10.2-0.8,15h-24.2c0.4-7.8,0.8-17.6,0.8-25.5V65.7z M281.3,208.8c22.9,0,38.6-16.5,38.6-41.4
	c0-24.9-15.7-41.4-38.6-41.4c-22.8,0-38.6,16.5-38.6,41.4C242.7,192.3,258.5,208.8,281.3,208.8"/>
<polygon class="st4" points="586.1,113.2 509.8,263 482.2,263 504.1,221.4 446.7,113.2 475.6,113.2 517.8,197.7 559.9,113.2 "/>
</svg>
