<?xml version="1.0" encoding="UTF-8"?>
<svg width="218px" height="34px" viewBox="0 0 218 34" version="1.1" xmlns="http://www.w3.org/2000/svg" xmlns:xlink="http://www.w3.org/1999/xlink">
    <!-- Generator: Sketch 41.2 (35397) - http://www.bohemiancoding.com/sketch -->
    <title>Ebay_Logo</title>
    <desc>Created with Sketch.</desc>
    <defs>
        <polygon id="path-1" points="84.0344878 33.989697 0.0102439024 33.989697 0.0102439024 0.128616162 42.0223659 0.128616162 84.0344878 0.128616162"></polygon>
    </defs>
    <g id="Symbols" stroke="none" stroke-width="1" fill="none" fill-rule="evenodd">
        <g id="Navigation" transform="translate(-180.000000, -40.000000)">
            <g id="Ebay_Logo">
                <g transform="translate(180.000000, 40.000000)">
                    <path d="M109.395107,12.1822157 C109.142718,11.074344 109.002502,10.7142857 108.581853,10.1049563 C107.68447,8.7755102 105.86166,8 103.674288,8 C99.944539,8 97.364562,10.0218659 97.364562,12.9577259 C97.364562,14.2594752 97.9534698,15.5058309 98.9349828,16.3090379 C99.8604093,17.0568513 100.673663,17.4169096 103.702332,18.3309038 C105.609271,18.9125364 106.394482,19.2725948 107.151649,19.909621 C107.796643,20.4358601 108.133162,21.1559767 108.133162,22.0145773 C108.133162,24.3134111 106.254265,25.7259475 103.281683,25.7259475 C102.159954,25.7259475 101.290614,25.53207 100.505404,25.1443149 C99.3836744,24.5349854 98.963026,23.8148688 98.7667234,22.0976676 L97,22.0976676 C97.0841297,23.2609329 97.1963026,23.6209913 97.5889078,24.3965015 C98.4302046,26.058309 100.56149,27 103.365813,27 C107.179692,27 109.899885,24.8673469 109.899885,21.8206997 C109.899885,20.5466472 109.339021,19.3279883 108.46968,18.6632653 C107.488167,17.9431487 106.562741,17.5553936 102.889078,16.3921283 C100.000625,15.4781341 99.0191124,14.5918367 99.0191124,12.9023324 C99.0191124,10.7696793 100.898009,9.24635569 103.534072,9.24635569 C105.889703,9.24635569 107.151649,10.1603499 107.60034,12.1822157 L109.395107,12.1822157 Z M116.016382,8.27696793 L113.969226,8.27696793 L112.707281,12.1268222 L113.969226,12.1268222 L116.016382,8.27696793 Z M119.3566,8.27696793 L119.3566,26.7230321 L130.601934,26.7230321 L130.601934,25.255102 L121.09528,25.255102 L121.09528,17.6938776 L129.704551,17.6938776 L129.704551,16.2536443 L121.09528,16.2536443 L121.09528,9.68950437 L130.265415,9.68950437 L130.265415,8.27696793 L119.3566,8.27696793 Z M148.412457,8.27696793 L146.926166,8.27696793 L146.926166,24.9504373 L136.353869,8.27696793 L134.110411,8.27696793 L134.110411,26.7230321 L135.540616,26.7230321 L135.540616,10.0218659 L146.281172,26.7230321 L148.412457,26.7230321 L148.412457,8.27696793 Z M166.783845,17.361516 L160.614335,17.361516 L160.614335,18.7740525 L165.073208,18.7740525 L165.073208,25.1720117 C163.811263,25.5597668 162.549318,25.7536443 161.09107,25.7536443 C156.57611,25.7536443 153.96809,22.7900875 153.96809,17.6938776 C153.96809,12.2653061 156.239591,9.27405248 160.333903,9.27405248 C161.483675,9.27405248 162.465188,9.52332362 163.306485,10.0495627 C164.259955,10.6588921 164.56843,11.1851312 164.820819,12.9023324 L166.587543,12.9023324 C166.47537,11.7113703 166.30711,11.2405248 165.830375,10.4927114 C164.820819,8.94169096 162.74562,8 160.305859,8 C155.314165,8 152.14528,11.6836735 152.14528,17.5 C152.14528,20.2142857 152.986577,22.7069971 154.500911,24.4795918 C155.903073,26.1690962 157.978271,27 160.642378,27 C162.717577,27 164.73669,26.6676385 166.783845,26.0029155 L166.783845,17.361516 Z M181.790046,20.2696793 L173.349034,20.2696793 L177.555518,9.68950437 L181.790046,20.2696793 Z M178.396815,8.27696793 L176.714221,8.27696793 L168.97429,26.7230321 L170.7971,26.7230321 L172.788169,21.6822157 L182.35091,21.6822157 L184.398066,26.7230321 L186.220876,26.7230321 L178.396815,8.27696793 Z M202.629238,17.361516 L196.459727,17.361516 L196.459727,18.7740525 L200.918601,18.7740525 L200.918601,25.1720117 C199.656655,25.5597668 198.39471,25.7536443 196.936462,25.7536443 C192.421502,25.7536443 189.813482,22.7900875 189.813482,17.6938776 C189.813482,12.2653061 192.084984,9.27405248 196.179295,9.27405248 C197.329067,9.27405248 198.31058,9.52332362 199.151877,10.0495627 C200.105347,10.6588921 200.413823,11.1851312 200.666212,12.9023324 L202.432935,12.9023324 C202.320762,11.7113703 202.152503,11.2405248 201.675768,10.4927114 C200.666212,8.94169096 198.591013,8 196.151252,8 C191.159557,8 187.990672,11.6836735 187.990672,17.5 C187.990672,20.2142857 188.831969,22.7069971 190.346304,24.4795918 C191.748465,26.1690962 193.823664,27 196.487771,27 C198.562969,27 200.582082,26.6676385 202.629238,26.0029155 L202.629238,17.361516 Z M206.754665,8.27696793 L206.754665,26.7230321 L218,26.7230321 L218,25.255102 L208.493346,25.255102 L208.493346,17.6938776 L217.102617,17.6938776 L217.102617,16.2536443 L208.493346,16.2536443 L208.493346,9.68950437 L217.663481,9.68950437 L217.663481,8.27696793 L206.754665,8.27696793 Z" id="S’ENGAGE" fill="#70675D"></path>
                    <g id="Group">
                        <g id="Group-16">
                            <mask id="mask-2" fill="white">
                                <use xlink:href="#path-1"></use>
                            </mask>
                            <g id="Clip-12"></g>
                            <path d="M53.2001707,18.0922929 C49.3820976,18.2181616 47.009439,18.9112121 47.009439,21.4404343 C47.009439,23.0779293 48.3073415,24.854 51.6031463,24.854 C56.0208293,24.854 58.3791463,22.4314141 58.3791463,18.4583939 L58.3798293,18.0217172 C56.8307805,18.0217172 54.9209756,18.0354545 53.2001707,18.0922929 M62.5912683,23.3406566 C62.5912683,24.5739293 62.626439,25.7907172 62.7334878,26.886101 L58.8163902,26.886101 C58.7119024,25.9835556 58.6736585,25.0871919 58.6736585,24.2176162 C56.5559024,26.836303 54.0369268,27.5887677 50.5430732,27.5887677 C45.3594878,27.5887677 42.5845854,24.8339091 42.5845854,21.6466667 C42.5845854,17.0307374 46.3587805,15.4035455 52.9109512,15.2524343 C54.7034634,15.2113939 56.715878,15.2052121 58.3798293,15.2052121 L58.3791463,14.7542828 C58.3791463,11.6638889 56.4099268,10.3931818 52.9958049,10.3931818 C50.4614634,10.3931818 48.5936585,11.4485556 48.4010732,13.2711616 L43.976561,13.2711616 C44.4447073,8.72649495 49.1920732,7.5770202 53.3662927,7.5770202 C58.3677073,7.5770202 62.5912683,9.36682828 62.5912683,14.6857677 L62.5912683,23.3406566" id="Fill-11" fill="#EDA52D" mask="url(#mask-2)"></path>
                            <path d="M16.7762683,15.8388485 C16.6127073,11.8759596 13.7696829,10.3931818 10.7311707,10.3931818 C7.45380488,10.3931818 4.83785366,12.0612424 4.37892683,15.8388485 L16.7762683,15.8388485 Z M4.28843902,18.6544949 C4.51568293,22.4990707 7.15160976,24.7727778 10.775561,24.7727778 C13.2870244,24.7727778 15.5207073,23.7438485 16.2683415,21.5051717 L20.6112439,21.5051717 C19.7664634,26.0469192 14.9680488,27.5887677 10.8382195,27.5887677 C3.3282439,27.5887677 0,23.4289192 0,17.8194343 C0,11.6441414 3.44229268,7.5770202 10.9065122,7.5770202 C16.8478049,7.5770202 21.2006098,10.7038182 21.2006098,17.5297475 L21.2006098,18.6544949 L4.28843902,18.6544949 L4.28843902,18.6544949 Z" id="Fill-13" fill="#DC3C41" mask="url(#mask-2)"></path>
                            <path d="M32.0028049,24.6924141 C35.9164878,24.6924141 38.5947561,21.8590808 38.5947561,17.5833232 C38.5947561,13.3082525 35.9164878,10.4742323 32.0028049,10.4742323 C28.1109756,10.4742323 25.4108537,13.3082525 25.4108537,17.5833232 C25.4108537,21.8590808 28.1109756,24.6924141 32.0028049,24.6924141 M21.2007805,0.128616162 L25.4108537,0.128616162 L25.4101707,10.7680404 C27.4743171,8.29531313 30.3175122,7.57684848 33.115122,7.57684848 C37.8080244,7.57684848 43.0189268,10.7611717 43.0189268,17.6370707 C43.0189268,23.394404 38.8739024,27.5887677 33.0376098,27.5887677 C29.9816829,27.5887677 27.105878,26.4865152 25.3328293,24.3022727 C25.3328293,25.1747677 25.2841707,26.054303 25.1890732,26.8857576 L21.0570244,26.8857576 C21.1292439,25.5417273 21.2007805,23.866798 21.2007805,22.5117778 L21.2007805,0.128616162" id="Fill-14" fill="#1B69A5" mask="url(#mask-2)"></path>
                            <polyline id="Fill-15" fill="#76BA43" mask="url(#mask-2)" points="84.0344878 8.28106061 71.0138049 34 66.2990488 34 70.0421707 26.858798 60.2433659 8.28106061 65.17 8.28106061 72.3803415 22.795798 79.5710488 8.28106061 84.0344878 8.28106061"></polyline>
                        </g>
                        <path d="M86.1783659,8.19571717 L86.5290488,8.19571717 L86.5290488,8.67910101 L87.063439,8.67910101 L87.063439,8.92465657 L86.5290488,8.92465657 L86.5290488,9.97350505 C86.5290488,10.1678889 86.5831707,10.2733232 86.8039268,10.2733232 C86.8691463,10.2733232 86.9736341,10.2662828 87.0752195,10.2515152 L87.0752195,10.4987879 C86.9589512,10.5128687 86.8433659,10.5204242 86.7356341,10.5204242 C86.3801707,10.5204242 86.1783659,10.4036566 86.1783659,9.99874747 L86.1783659,8.92465657 L85.7040732,8.92465657 L85.7040732,8.67910101 L86.1783659,8.67910101 L86.1783659,8.19571717" id="Fill-17" fill="#ACA3BD"></path>
                        <path d="M87.5329512,9.09156566 C87.5329512,8.95384848 87.525439,8.82248485 87.5182683,8.67910101 L87.8467561,8.67910101 C87.8539268,8.76976768 87.861439,8.87382828 87.861439,9.00089899 L87.8689512,9.00089899 C88.0755366,8.72306061 88.3353902,8.61007071 88.631439,8.61007071 C88.9351707,8.61007071 89.185122,8.75946465 89.2896098,9.06649495 C89.419878,8.8169899 89.7012439,8.61007071 90.0372439,8.61007071 C90.5511463,8.61007071 90.8693902,8.86266667 90.8693902,9.45526263 L90.8693902,10.4984444 L90.5149512,10.4984444 L90.5149512,9.588 C90.5149512,9.14634343 90.3879268,8.85511111 90.0053171,8.85511111 C89.6947561,8.85511111 89.3768537,9.07010101 89.3768537,9.6680202 L89.3768537,10.4984444 L89.0254878,10.4984444 L89.0254878,9.5660202 C89.0254878,9.07731313 88.8590244,8.85511111 88.5336098,8.85511111 C88.2237317,8.85511111 87.8836341,9.08091919 87.8836341,9.61684848 L87.8836341,10.4984444 L87.5329512,10.4984444 L87.5329512,9.09156566" id="Fill-18" fill="#ACA3BD"></path>
                    </g>
                </g>
            </g>
        </g>
    </g>
</svg>