<?xml version="1.0" encoding="utf-8"?>
<!-- Generator: Adobe Illustrator 19.0.0, SVG Export Plug-In . SVG Version: 6.00 Build 0)  -->
<svg version="1.1" id="Layer_1" xmlns="http://www.w3.org/2000/svg" xmlns:xlink="http://www.w3.org/1999/xlink" x="0px" y="0px"
	 width="247px" height="33.3px" viewBox="1322.3 -0.3 247 33.3" style="enable-background:new 1322.3 -0.3 247 33.3;"
	 xml:space="preserve">
<style type="text/css">
	.st0{fill:#796E65;}
	.st1{fill:#FAAB18;}
	.st2{fill:#EE3E42;}
	.st3{fill:#0074BB;}
	.st4{fill:#7DC142;}
	.st5{fill:#231F20;}
</style>
<g>
	<path class="st0" d="M1418.5,25.9V7.8h2.6l6.8,15.8l7-15.8h2.5v18.2h-1.6V9.1h-0.1l-7,16.8h-1.6l-6.9-16.7h-0.1v16.7H1418.5z"/>
	<path class="st0" d="M1439.1,25.9l7.2-18.2h1.9l7.2,18.2h-1.8l-1.9-4.9h-9l-1.9,4.9H1439.1z M1451.1,19.5l-3.9-10.2l-4,10.2H1451.1
		z"/>
	<path class="st0" d="M1457.3,25.9V7.7h1.6v18.2H1457.3z"/>
	<path class="st0" d="M1462.9,7.8h1.9l10,16h0.1v-16h1.6v18.2h-2.1l-9.8-15.7h-0.1v15.7h-1.6V7.8z"/>
	<path class="st0" d="M1490.7,26.3c-2.9,0-5.3-2.1-5.4-5.1h1.8c0.1,2.8,2.1,3.6,4.6,3.6c2,0,4.4-1.2,4.4-3.5c0-1.8-1.3-2.7-2.8-3.2
		c-2.9-1-7.4-1.9-7.4-5.8c0-3.2,2.9-4.9,5.8-4.9c2.4,0,5.5,0.8,5.9,4.3h-1.8c-0.1-2.2-2.1-2.8-4-2.8c-1.9,0-4.2,1-4.2,3.2
		c0,5.2,10.3,2.8,10.3,9.1C1497.7,25.1,1494.3,26.3,1490.7,26.3z"/>
	<path class="st0" d="M1504.4,9.3h-5.9V7.8h13.3v1.5h-5.8l0,16.7h-1.6L1504.4,9.3z"/>
	<path class="st0" d="M1515.4,25.9h-1.6V7.8h5.9c1.6,0,2.9,0.1,4.3,1c1.3,0.8,1.9,2.1,1.9,3.8c0,2-1.4,3.4-3.5,3.9v0.1
		c2.3,0.4,2.8,1.9,3,4.1c0.3,2.9,0.2,4.3,1,5.4h-1.9c-0.4-1.2-0.5-2.5-0.6-3.8c-0.4-4.2-0.6-4.9-3.9-4.9h-4.5V25.9L1515.4,25.9z
		 M1518.9,15.8c2.3,0,5.2-0.2,5.2-3.2c0-3.5-3.3-3.2-5-3.2h-3.7v6.5H1518.9z"/>
	<path class="st0" d="M1529.5,25.9V7.8h10.8v1.5h-9.2v6.5h8.8v1.5h-8.8v7.1h9.5v1.5L1529.5,25.9L1529.5,25.9z"/>
	<path class="st0" d="M1543.9,25.9V7.8h10.8v1.5h-9.2v6.5h8.8v1.5h-8.8v7.1h9.5v1.5L1543.9,25.9L1543.9,25.9z"/>
	<path class="st0" d="M1561.9,9.3h-5.9V7.8h13.3v1.5h-5.8l0,16.7h-1.6L1561.9,9.3z"/>
</g>
<path class="st1" d="M1384.3,22.5c0,1.2,0,2.4,0.1,3.5h-3.9c-0.1-0.9-0.1-1.8-0.1-2.6c-2.1,2.6-4.6,3.3-8,3.3
	c-5.1,0-7.9-2.7-7.9-5.8c0-4.5,3.7-6.2,10.2-6.3c1.8,0,3.8-0.1,5.4-0.1v-0.4c0-3-1.9-4.3-5.3-4.3c-2.5,0-4.4,1-4.5,2.8h-4.4
	c0.5-4.5,5.2-5.6,9.3-5.6c5,0,9.1,1.8,9.1,7L1384.3,22.5L1384.3,22.5z M1375,17.4c-3.8,0.1-6.1,0.8-6.1,3.3c0,1.6,1.3,3.4,4.5,3.4
	c4.4,0,6.7-2.4,6.7-6.3v-0.4C1378.6,17.3,1376.7,17.3,1375,17.4"/>
<path class="st2" d="M1326.6,17.9c0.2,3.8,2.8,6,6.4,6c2.5,0,4.7-1,5.4-3.2h4.3c-0.8,4.5-5.6,6-9.7,6c-7.4,0-10.7-4.1-10.7-9.6
	c0-6.1,3.4-10.1,10.8-10.1c5.9,0,10.2,3.1,10.2,9.8v1.1L1326.6,17.9L1326.6,17.9z M1339,15.1c-0.2-3.9-3-5.4-6-5.4
	c-3.2,0-5.8,1.6-6.3,5.4H1339z"/>
<path class="st3" d="M1343.3-0.3h4.2v10.5c2-2.4,4.8-3.1,7.6-3.1c4.6,0,9.8,3.1,9.8,9.9c0,5.7-4.1,9.8-9.9,9.8c-3,0-5.9-1.1-7.6-3.2
	c0,0.9-0.1,1.7-0.1,2.5h-4.1c0.1-1.3,0.1-3,0.1-4.3V-0.3z M1354,23.8c3.9,0,6.5-2.8,6.5-7s-2.7-7-6.5-7c-3.9,0-6.5,2.8-6.5,7
	S1350.2,23.8,1354,23.8"/>
<polygon class="st4" points="1405.5,7.7 1392.6,33 1388,33 1391.7,26 1382,7.7 1386.9,7.7 1394,22 1401.1,7.7 "/>
<path class="st5" d="M1407.7,7.6h0.4v0.5h0.5v0.2h-0.5v1c0,0.2,0.1,0.3,0.3,0.3c0.1,0,0.2,0,0.3,0v0.2c-0.1,0-0.2,0-0.3,0
	c-0.4,0-0.6-0.1-0.6-0.5V8.3h-0.5V8.1h0.5V7.6z"/>
<path class="st5" d="M1409,8.5c0-0.1,0-0.3,0-0.4h0.3c0,0.1,0,0.2,0,0.3l0,0c0.2-0.3,0.5-0.4,0.8-0.4c0.3,0,0.5,0.2,0.7,0.5
	c0.1-0.3,0.4-0.5,0.7-0.5c0.5,0,0.8,0.3,0.8,0.8v1h-0.4V9c0-0.4-0.1-0.7-0.5-0.7c-0.3,0-0.6,0.2-0.6,0.8v0.8h-0.4V9
	c0-0.5-0.2-0.7-0.5-0.7c-0.3,0-0.6,0.2-0.6,0.7v0.9h-0.4L1409,8.5L1409,8.5z"/>
</svg>
