<?xml version="1.0" encoding="utf-8"?>
<!-- Generator: Adobe Illustrator 18.1.1, SVG Export Plug-In . SVG Version: 6.00 Build 0)  -->
<svg version="1.1" id="Layer_1" xmlns="http://www.w3.org/2000/svg" xmlns:xlink="http://www.w3.org/1999/xlink" x="0px" y="0px"
	 width="155px" height="41.5px" viewBox="0 0 155 41.5" enable-background="new 0 0 155 41.5" xml:space="preserve">
<path fill-rule="evenodd" clip-rule="evenodd" fill="#3266B1" d="M5.8,0.1c3.7,0,7.4,0,11.1,0c2.2,0,4.3,0,6,0.5c0.2,0,0.4,0,0.7,0
	c0.8,0.4,1.7,0.8,2.5,1.2c0.1,0.1,0.1,0.2,0.2,0.3c0.1,0,0.2,0,0.3,0c0.3,0.3,0.6,0.7,0.8,1c0.2,0.1,0.3,0.2,0.5,0.3
	c1.2,1.7,1.8,5.5,1,8.3c0,0.3,0,0.6,0,0.8c-0.1,0-0.1,0-0.2,0c0,0.2,0,0.4,0,0.7c-0.1,0-0.1,0-0.2,0c0,0.2,0,0.3,0,0.5
	c-0.1,0-0.1,0-0.2,0c0,0.2,0,0.3,0,0.5c-0.1,0-0.1,0-0.2,0c0,0.2,0,0.3,0,0.5c-0.1,0-0.1,0-0.2,0c0,0.2,0,0.3,0,0.5
	c-0.1,0-0.1,0-0.2,0c-0.1,0.2-0.1,0.4-0.2,0.7c-0.1,0-0.1,0-0.2,0c0,0.1,0,0.2,0,0.3c-0.1,0-0.1,0-0.2,0c0,0.1,0,0.2,0,0.3L27,16.8
	c0,0.1,0,0.2,0,0.3c-0.1,0.1-0.2,0.1-0.3,0.2c0,0.1,0,0.2,0,0.3c-0.2,0.2-0.4,0.3-0.7,0.5c0,0.1,0,0.2,0,0.3
	c-0.2,0.2-0.4,0.3-0.7,0.5c-0.2,0.3-0.4,0.6-0.7,0.8c-0.1,0-0.2,0-0.3,0c-0.1,0.2-0.2,0.3-0.3,0.5c-0.1,0-0.2,0-0.3,0
	c-0.1,0.1-0.1,0.2-0.2,0.3c-0.2,0.1-0.4,0.1-0.7,0.2c0,0.1,0,0.1,0,0.2c-0.3,0.1-0.7,0.2-1,0.3c0,0.1,0,0.1,0,0.2
	c-0.5,0.1-1,0.2-1.5,0.3c0,0.1,0,0.1,0,0.2c-1.7,0.6-3.9,0.5-6.1,0.5c-0.9,0-1.9,0-2.8,0c0,0.1,0,0.1,0,0.2c-0.3,0.1-0.7,0.1-1,0.2
	c-0.2,0.3-0.5,0.7-0.7,1c-0.1,0.7-0.1,1.3-0.2,2c-0.4,1.3-0.4,3-0.8,4.3c0,0.3,0,0.7,0,1c-0.3,0.9-0.2,1.9-1,2.3
	c-0.4,0.4-1.3,0.3-2.2,0.3c-1.7,0-3.4,0-5.1,0C0.4,33.5,0,33.2,0,33.2c0-0.6,0-1.2,0-1.8c0.4-0.5,0.1-1.3,0.3-2c0.1,0,0.1,0,0.2,0
	c0-0.4,0-0.8,0-1.2c0.5-1.5,0.5-3.6,1-5.1c0-0.4,0-0.8,0-1.2C1.9,20.7,2,19,2.3,17.8c0.1-0.7,0.1-1.4,0.2-2.2
	c0.8-5,1.7-9.9,2.5-14.9C5.2,0.6,5.6,0.3,5.8,0.1z M11.1,15.6c3.5,0.1,6.7,0.1,8.1-2c0-0.1,0-0.2,0-0.3c0.1,0,0.1,0,0.2,0
	c0-0.1,0-0.2,0-0.3c0.1,0,0.1,0,0.2,0c0-0.2,0-0.3,0-0.5c0.1,0,0.1,0,0.2,0c0.1-0.3,0.5-2.4,0.3-2.8c-0.1,0-0.1,0-0.2,0
	c-0.1-0.4-0.1-0.8-0.2-1.2c-0.4-0.3-0.3-0.5-0.5-0.7c-0.1,0-0.2,0-0.3,0c-0.1-0.1-0.1-0.2-0.2-0.3C18,7,16.3,6.8,15.1,6.8
	c-0.6,0-1.6-0.1-2,0.2c-0.6,0.1-0.6,0.3-0.7,1c-0.4,0.5-0.1,1.3-0.3,2C11.8,11.9,11.4,13.7,11.1,15.6z M38.6,10.6
	c2.4,0,4.5,0,6.1,0.7c0.2,0,0.3,0,0.5,0c0,0.1,0,0.1,0,0.2c0.2,0.1,0.4,0.1,0.7,0.2c0.1,0.1,0.1,0.2,0.2,0.3c0.1,0,0.2,0,0.3,0
	c0.1,0.1,0.1,0.2,0.2,0.3c0.3,0.2,0.6,0.4,0.8,0.7c0,0.1,0,0.2,0,0.3l0.2-0.2c0.1,0,0.1,0,0.2,0c0-0.4,0-0.8,0-1.2
	c0.1,0,0.1,0,0.2,0c0.1-0.2,0.1-0.3,0.2-0.5c0.1,0,0.1,0,0.2,0c0.1-0.1,0.1-0.2,0.2-0.3c2.3,0,4.5,0,6.8,0c0.1,0.1,0.5,0.5,0.5,0.5
	c0,0.6,0,1.2,0,1.8c-0.1,0-0.1,0-0.2,0c0,0.3,0,0.7,0,1c-0.3,0.9-0.4,2.2-0.7,3.1c0,0.3,0,0.7,0,1c-0.7,2.2-0.7,5.1-1.3,7.3
	c-0.1,1-0.2,2.1-0.3,3.1c-0.1,0-0.1,0-0.2,0c0,0.4,0,0.8,0,1.2c-0.1,0-0.1,0-0.2,0c0,0.3,0,0.7,0,1c-0.1,0-0.1,0-0.2,0
	c0,0.3,0,0.7,0,1c-0.1,0-0.1,0-0.2,0c0,0.2,0,0.3,0,0.5c-0.1,0-0.1,0-0.2,0c0,0.1,0,0.2,0,0.3c-0.2,0.1-0.3,0.2-0.5,0.3
	c0,0.1,0,0.1,0,0.2c-0.7,0.1-1.3,0.1-2,0.2c-1.6,0-3.6,0.1-5-0.2c-0.1-0.2-0.1-0.3-0.2-0.5c-0.5-0.6,0.3-1.2,0-1.8
	c-0.1,0-0.1,0-0.2,0c-0.4,0.7-0.8,0.7-1.5,1.2c-0.1,0.1-0.1,0.2-0.2,0.3c-0.2,0.1-0.4,0.1-0.7,0.2c-1.6,0.8-4.5,1.9-7.1,1.2
	c-0.3,0-0.7,0-1,0c-1.8-0.6-3.3-1.3-4.3-2.6c-0.2-0.2-0.4-0.3-0.7-0.5c0-0.1,0-0.2,0-0.3c-0.1-0.1-0.2-0.1-0.3-0.2
	c0-0.1,0-0.2,0-0.3c-0.1-0.1-0.2-0.1-0.3-0.2c0-0.1,0-0.2,0-0.3c-0.1,0-0.1,0-0.2,0c0-0.1,0-0.2,0-0.3c-0.1,0-0.1,0-0.2,0
	c0-0.2,0-0.3,0-0.5c-0.1,0-0.1,0-0.2,0c0-0.1,0-0.2,0-0.3c-0.1,0-0.1,0-0.2,0c-0.1-0.4-0.1-0.8-0.2-1.2c-0.1,0-0.1,0-0.2,0
	c0-0.3,0-0.6,0-0.8c-0.1-0.5-0.4-3.4-0.2-4.1c0.1,0,0.1,0,0.2,0c0-0.3,0-0.6,0-0.8c0.1,0,0.1,0,0.2,0c0-0.2,0-0.4,0-0.7
	c0.1,0,0.1,0,0.2,0c0-0.2,0-0.4,0-0.7c0.1,0,0.1,0,0.2,0c0-0.2,0-0.3,0-0.5c0.1,0,0.1,0,0.2,0c0-0.2,0-0.3,0-0.5c0.1,0,0.1,0,0.2,0
	c0.1-0.3,0.2-0.7,0.3-1c0.1,0,0.1,0,0.2,0c0-0.1,0-0.2,0-0.3c0.1,0,0.1,0,0.2,0c0.1-0.3,0.2-0.7,0.3-1c0.1-0.1,0.2-0.1,0.3-0.2
	c0-0.1,0-0.2,0-0.3c0.2-0.1,0.3-0.2,0.5-0.3c0-0.1,0-0.2,0-0.3c0.2-0.2,0.4-0.3,0.7-0.5c0-0.1,0-0.2,0-0.3c0.3-0.2,0.6-0.4,0.8-0.7
	c0.1-0.1,0.1-0.2,0.2-0.3c0.1,0,0.2,0,0.3,0c0.2-0.2,0.3-0.4,0.5-0.7c0.1,0,0.2,0,0.3,0c0.1-0.2,0.2-0.3,0.3-0.5
	c0.2-0.1,0.4-0.1,0.7-0.2c0.1-0.1,0.1-0.2,0.2-0.3c0.5-0.2,1-0.3,1.5-0.5c0-0.1,0-0.1,0-0.2c0.1,0,0.2,0,0.3,0c0-0.1,0-0.1,0-0.2
	c0.3-0.1,0.7-0.1,1-0.2c0-0.1,0-0.1,0-0.2C37.5,10.8,38.2,11,38.6,10.6z M59,11.1c2.3,0,4.5,0,6.8,0c0,0.1,0,0.1,0,0.2
	c0.2,0.1,0.4,0.1,0.7,0.2c0.1,0.2,0.1,0.3,0.2,0.5c0.1,0,0.1,0,0.2,0c0,0.1,0,0.2,0,0.3c0.1,0,0.1,0,0.2,0c0.2,0.7,0.3,1.4,0.5,2.2
	c0.1,0,0.1,0,0.2,0c0,0.2,0,0.3,0,0.5c0.1,0,0.1,0,0.2,0c0,0.2,0,0.3,0,0.5c0.1,0,0.1,0,0.2,0c0.1,0.6,0.2,1.1,0.3,1.7
	c0.1,0,0.1,0,0.2,0c0.1,0.6,0.2,1.1,0.3,1.7c0.1,0,0.1,0,0.2,0c0.1,0.6,0.2,1.1,0.3,1.7c0.1,0,0.1,0,0.2,0c0,0.2,0,0.4,0,0.7
	c0.1,0,0.1,0,0.2,0c0.3,0.8,0.4,1.6,0.7,2.3c0.4-0.4,0.5-0.9,0.8-1.3c0.2-0.1,0.3-0.2,0.5-0.3c0-0.1,0-0.2,0-0.3
	c0.1-0.1,0.2-0.1,0.3-0.2c0.1-0.2,0.1-0.3,0.2-0.5c0.1,0,0.1,0,0.2,0c0-0.1,0-0.2,0-0.3c0.1-0.1,0.2-0.1,0.3-0.2c0-0.1,0-0.2,0-0.3
	c0.1-0.1,0.2-0.1,0.3-0.2c0-0.1,0-0.2,0-0.3c0.1-0.1,0.2-0.1,0.3-0.2c0-0.1,0-0.2,0-0.3c0.1,0,0.1,0,0.2,0c0.1-0.2,0.1-0.3,0.2-0.5
	c0.1-0.1,0.2-0.1,0.3-0.2c0-0.1,0-0.2,0-0.3c0.2-0.1,0.3-0.2,0.5-0.3c0-0.1,0-0.2,0-0.3c0.1-0.1,0.2-0.1,0.3-0.2c0-0.1,0-0.2,0-0.3
	c0.1-0.1,0.2-0.1,0.3-0.2c0-0.1,0-0.2,0-0.3c0.1-0.1,0.2-0.1,0.3-0.2c0-0.1,0-0.2,0-0.3c0.1-0.1,0.2-0.1,0.3-0.2c0-0.1,0-0.2,0-0.3
	c0.1,0,0.1,0,0.2,0c0.1-0.2,0.1-0.3,0.2-0.5c0.1-0.1,0.2-0.1,0.3-0.2c0-0.1,0-0.2,0-0.3c0.1-0.1,0.2-0.1,0.3-0.2c0-0.1,0-0.2,0-0.3
	c0.1-0.1,0.2-0.1,0.3-0.2c0-0.1,0-0.2,0-0.3c0.2-0.1,0.3-0.2,0.5-0.3c0-0.1,0-0.2,0-0.3c0.1-0.1,0.2-0.1,0.3-0.2c0-0.1,0-0.2,0-0.3
	c0.1-0.1,0.2-0.1,0.3-0.2c0.1-0.2,0.1-0.3,0.2-0.5c0.1,0,0.2,0,0.3,0c0.4-0.4,1.2-0.3,2-0.3c1.8,0,3.9-0.1,5.5,0.2
	c0.2,0.5,0.3,0.7,0.3,1.5c-0.5,0.4-0.8,1.1-1.2,1.7c-0.1,0.1-0.2,0.1-0.3,0.2c0,0.1,0,0.2,0,0.3c-0.1,0.1-0.2,0.1-0.3,0.2
	c0,0.1,0,0.2,0,0.3c-0.1,0.1-0.2,0.1-0.3,0.2c0,0.1,0,0.2,0,0.3c-0.2,0.1-0.3,0.2-0.5,0.3c0,0.1,0,0.2,0,0.3
	c-0.1,0.1-0.2,0.1-0.3,0.2c0,0.1,0,0.2,0,0.3c-0.1,0-0.1,0-0.2,0c-0.1,0.2-0.1,0.3-0.2,0.5c-0.1,0.1-0.2,0.1-0.3,0.2
	c0,0.1,0,0.2,0,0.3c-0.2,0.1-0.3,0.2-0.5,0.3c0,0.1,0,0.2,0,0.3c-0.1,0.1-0.2,0.1-0.3,0.2c0,0.1,0,0.2,0,0.3c-0.1,0-0.1,0-0.2,0
	c-0.1,0.2-0.1,0.3-0.2,0.5c-0.1,0.1-0.2,0.1-0.3,0.2c0,0.1,0,0.2,0,0.3c-0.2,0.1-0.3,0.2-0.5,0.3c0,0.1,0,0.2,0,0.3
	c-0.1,0.1-0.2,0.1-0.3,0.2c0,0.1,0,0.2,0,0.3c-0.1,0-0.1,0-0.2,0c-0.1,0.2-0.1,0.3-0.2,0.5C80,22,79.9,22,79.8,22.1
	c0,0.1,0,0.2,0,0.3c-0.2,0.1-0.3,0.2-0.5,0.3c0,0.1,0,0.2,0,0.3c-0.1,0.1-0.2,0.1-0.3,0.2c0,0.1,0,0.2,0,0.3c-0.1,0-0.1,0-0.2,0
	c-0.1,0.2-0.1,0.3-0.2,0.5c-0.1,0.1-0.2,0.1-0.3,0.2c0,0.1,0,0.2,0,0.3c-0.2,0.1-0.3,0.2-0.5,0.3c0,0.1,0,0.2,0,0.3
	c-0.1,0.1-0.2,0.1-0.3,0.2c0,0.1,0,0.2,0,0.3c-0.1,0-0.1,0-0.2,0c-0.1,0.2-0.1,0.3-0.2,0.5c-0.1,0.1-0.2,0.1-0.3,0.2
	c0,0.1,0,0.2,0,0.3c-0.2,0.1-0.3,0.2-0.5,0.3c0,0.1,0,0.2,0,0.3c-0.1,0.1-0.2,0.1-0.3,0.2c0,0.1,0,0.2,0,0.3c-0.1,0-0.1,0-0.2,0
	c-0.1,0.2-0.1,0.3-0.2,0.5c-0.1,0.1-0.2,0.1-0.3,0.2c0,0.1,0,0.2,0,0.3c-0.2,0.1-0.3,0.2-0.5,0.3c0,0.1,0,0.2,0,0.3
	c-0.1,0.1-0.2,0.1-0.3,0.2c0,0.1,0,0.2,0,0.3c-0.1,0-0.1,0-0.2,0c-0.1,0.2-0.1,0.3-0.2,0.5c-0.1,0.1-0.2,0.1-0.3,0.2
	c0,0.1,0,0.2,0,0.3c-0.2,0.1-0.3,0.2-0.5,0.3c0,0.1,0,0.2,0,0.3c-0.1,0.1-0.2,0.1-0.3,0.2c0,0.1,0,0.2,0,0.3c-0.1,0-0.1,0-0.2,0
	c-0.1,0.2-0.1,0.3-0.2,0.5c-0.1,0.1-0.2,0.1-0.3,0.2c0,0.1,0,0.2,0,0.3c-0.2,0.1-0.3,0.2-0.5,0.3c0,0.1,0,0.2,0,0.3
	c-0.1,0.1-0.2,0.1-0.3,0.2c0,0.1,0,0.2,0,0.3c-0.1,0-0.1,0-0.2,0c-0.1,0.2-0.1,0.3-0.2,0.5c-0.1,0.1-0.2,0.1-0.3,0.2
	c0,0.1,0,0.2,0,0.3c-0.2,0.1-0.3,0.2-0.5,0.3c0,0.1,0,0.2,0,0.3c-0.1,0-0.1,0-0.2,0c-0.1,0.2-0.1,0.3-0.2,0.5
	c-0.1,0.1-0.2,0.1-0.3,0.2c0,0.1,0,0.2,0,0.3c-0.2,0.1-0.3,0.2-0.5,0.3c0,0.1,0,0.2,0,0.3c-0.1,0.1-0.2,0.1-0.3,0.2
	c0,0.1,0,0.2,0,0.3c-0.1,0-0.1,0-0.2,0c-0.1,0.2-0.1,0.3-0.2,0.5c-0.1,0.1-0.2,0.1-0.3,0.2c0,0.1,0,0.2,0,0.3
	c-0.2,0.1-0.3,0.2-0.5,0.3c0,0.1,0,0.2,0,0.3c-0.1,0-0.1,0-0.2,0c-0.1,0.2-0.1,0.3-0.2,0.5c-0.1,0.1-0.2,0.1-0.3,0.2
	c0,0.1,0,0.2,0,0.3c-0.1,0-0.1,0-0.2,0c-0.1,0.2-0.2,0.3-0.3,0.5c-0.1,0-0.1,0-0.2,0c-0.1,0-0.1,0-0.2,0c0,0.1,0,0.1,0,0.2
	c-2.4,0-5.2,0.2-7.3-0.2c-0.1-0.2-0.1-0.3-0.2-0.5c-0.1,0-0.1,0-0.2,0c0-0.3,0-0.6,0-0.8c0.4-0.4,0.5-0.9,0.8-1.3
	c0.2-0.1,0.3-0.2,0.5-0.3c0-0.1,0-0.2,0-0.3c0.1-0.1,0.2-0.1,0.3-0.2c0-0.1,0-0.2,0-0.3c0.2-0.1,0.3-0.2,0.5-0.3c0-0.1,0-0.2,0-0.3
	c0.1-0.1,0.2-0.1,0.3-0.2c0-0.1,0-0.2,0-0.3c0.2-0.1,0.3-0.2,0.5-0.3c0-0.1,0-0.2,0-0.3c0.1,0,0.1,0,0.2,0c0.1-0.2,0.1-0.3,0.2-0.5
	c0.1-0.1,0.2-0.1,0.3-0.2c0-0.1,0-0.2,0-0.3c0.2-0.1,0.3-0.2,0.5-0.3c0-0.1,0-0.2,0-0.3c0.1-0.1,0.2-0.1,0.3-0.2c0-0.1,0-0.2,0-0.3
	c0.2-0.1,0.3-0.2,0.5-0.3c0-0.1,0-0.2,0-0.3c0.1-0.1,0.2-0.1,0.3-0.2c0-0.1,0-0.2,0-0.3c0.1-0.1,0.2-0.1,0.3-0.2
	c0.3-0.4,0.4-0.7,0.5-1.3c-0.1,0-0.1,0-0.2,0c-0.1-0.3-0.1-0.7-0.2-1c-0.1,0-0.1,0-0.2,0c0-0.1,0-0.2,0-0.3c-0.1,0-0.1,0-0.2,0
	c0-0.2,0-0.3,0-0.5c-0.1,0-0.1,0-0.2,0c0-0.2,0-0.3,0-0.5c-0.1,0-0.1,0-0.2,0c0-0.2,0-0.3,0-0.5c-0.1,0-0.1,0-0.2,0
	c0-0.2,0-0.3,0-0.5c-0.1,0-0.1,0-0.2,0c-0.1-0.3-0.1-0.7-0.2-1c-1.1-2.7-1.9-5.6-3-8.3c0-0.2,0-0.3,0-0.5c-0.1,0-0.1,0-0.2,0
	c0-0.2,0-0.3,0-0.5c-0.1,0-0.1,0-0.2,0c0-0.2,0-0.3,0-0.5c-0.1,0-0.1,0-0.2,0c0-0.2,0-0.3,0-0.5c-0.1,0-0.1,0-0.2,0
	c0-0.2,0-0.3,0-0.5c-0.1,0-0.1,0-0.2,0c-0.1-0.3-0.1-0.7-0.2-1c-0.1,0-0.1,0-0.2,0c0-0.1,0-0.2,0-0.3c-0.1,0-0.1,0-0.2,0
	c-0.1-0.5-0.2-1-0.3-1.5c-0.1,0-0.1,0-0.2,0c0-0.4,0-0.9,0-1.3C58.5,11.6,58.9,11.3,59,11.1z M40.6,16.9c0,0.1,0,0.1,0,0.2
	c-0.4,0.1-0.8,0.1-1.2,0.2c0,0.1,0,0.1,0,0.2c-0.3,0.1-0.7,0.2-1,0.3c0,0.1,0,0.1,0,0.2c-0.1,0-0.2,0-0.3,0
	c-0.1,0.2-0.2,0.3-0.3,0.5c-0.1,0-0.2,0-0.3,0c0,0.1,0,0.1,0,0.2c-0.2,0.1-0.3,0.2-0.5,0.3c0,0.1,0,0.2,0,0.3
	c-0.2,0.1-0.3,0.2-0.5,0.3c0,0.1,0,0.2,0,0.3c-0.1,0.1-0.2,0.1-0.3,0.2c0,0.1,0,0.2,0,0.3c-0.1,0-0.1,0-0.2,0c0,0.1,0,0.2,0,0.3
	c-0.1,0-0.1,0-0.2,0c0,0.2,0,0.3,0,0.5c-0.1,0-0.1,0-0.2,0c0,0.2,0,0.3,0,0.5c-0.5,1.5-0.3,2.8,0.3,4c0,0.1,0,0.2,0,0.3
	c0.2,0.1,0.3,0.2,0.5,0.3c0.2,0.3,0.4,0.6,0.7,0.8c0.6,0.2,1.2,0.4,1.8,0.7c1,0.3,2.4-0.1,3-0.3c0.5-0.2,0.9-0.1,1.3-0.3
	c0.1-0.1,0.1-0.2,0.2-0.3c0.2-0.1,0.4-0.1,0.7-0.2c0.1-0.2,0.2-0.3,0.3-0.5c0.3-0.2,0.6-0.4,0.8-0.7c0.8-1.1,1.8-3.3,1.2-5.1
	c0-0.2,0-0.4,0-0.7c-0.1,0-0.1,0-0.2,0c0-0.1,0-0.2,0-0.3c-0.1,0-0.1,0-0.2,0C45,17.4,43.7,16.9,40.6,16.9z M91.7,0.1
	c3.7,0,7.4,0,11.1,0c2.2,0,4.3,0,6,0.5c0.2,0,0.4,0,0.7,0c0,0.1,0,0.1,0,0.2c0.2,0,0.3,0,0.5,0c0,0.1,0,0.1,0,0.2c0.1,0,0.2,0,0.3,0
	c0,0.1,0,0.1,0,0.2c0.2,0,0.3,0,0.5,0c0,0.1,0,0.1,0,0.2c0.1,0,0.2,0,0.3,0c0,0.1,0,0.1,0,0.2c0.1,0,0.2,0,0.3,0
	c0.1,0.1,0.1,0.2,0.2,0.3c0.2,0.1,0.4,0.1,0.7,0.2c0.2,0.2,0.3,0.4,0.5,0.7c0.3,0.3,0.7,0.6,1,0.8c0,0.1,0,0.2,0,0.3
	c0.1,0.1,0.2,0.1,0.3,0.2c0,0.1,0,0.2,0,0.3c0.1,0,0.1,0,0.2,0c0.1,0.2,0.1,0.4,0.2,0.7c0.1,0,0.1,0,0.2,0c0.1,0.3,0.1,0.7,0.2,1
	c0.1,0,0.1,0,0.2,0c0,0.2,0,0.4,0,0.7c0.1,0,0.1,0,0.2,0c0,0.6,0,1.1,0,1.7c0.1,0,0.1,0,0.2,0c-0.1,1.2-0.2,2.4-0.3,3.6
	c-0.1,0-0.1,0-0.2,0c0,0.2,0,0.4,0,0.7c-0.1,0-0.1,0-0.2,0c0,0.2,0,0.4,0,0.7c-0.1,0-0.1,0-0.2,0c0,0.2,0,0.4,0,0.7
	c-0.1,0-0.1,0-0.2,0c0,0.2,0,0.3,0,0.5c-0.1,0-0.1,0-0.2,0c0,0.2,0,0.3,0,0.5c-0.1,0-0.1,0-0.2,0c-0.1,0.2-0.1,0.4-0.2,0.7
	c-0.1,0-0.1,0-0.2,0c-0.1,0.3-0.1,0.6-0.2,0.8c-0.1,0.1-0.2,0.1-0.3,0.2c-0.1,0.2-0.1,0.4-0.2,0.7c-0.1,0.1-0.2,0.1-0.3,0.2
	c0,0.1,0,0.2,0,0.3c-0.2,0.1-0.3,0.2-0.5,0.3c0,0.1,0,0.2,0,0.3c-0.2,0.1-0.3,0.2-0.5,0.3c-0.3,0.4-0.7,0.8-1,1.2
	c-0.1,0-0.2,0-0.3,0c-0.1,0.2-0.2,0.3-0.3,0.5c-0.1,0-0.2,0-0.3,0c-0.1,0.1-0.1,0.2-0.2,0.3c-0.1,0-0.2,0-0.3,0l-0.3,0.3
	c-0.1,0-0.2,0-0.3,0c0,0.1,0,0.1,0,0.2c-0.1,0-0.2,0-0.3,0c0,0.1,0,0.1,0,0.2c-0.1,0-0.2,0-0.3,0c0,0.1,0,0.1,0,0.2
	c-0.2,0-0.3,0-0.5,0c0,0.1,0,0.1,0,0.2c-0.1,0-0.2,0-0.3,0c0,0.1,0,0.1,0,0.2c-0.2,0-0.4,0-0.7,0c0,0.1,0,0.1,0,0.2
	c-0.2,0-0.3,0-0.5,0c0,0.1,0,0.1,0,0.2c-0.3,0-0.6,0-0.8,0c0,0.1,0,0.1,0,0.2c-0.3,0-0.7,0-1,0c0,0.1,0,0.1,0,0.2c-0.5,0-1,0-1.5,0
	c-1.6,0-3.8-0.3-5.1,0.2c-0.3,0.1-0.7,0.1-1,0.2c-0.1,0.1-0.6,1-0.7,1.2c0,0.3,0,0.7,0,1c-0.1,0-0.1,0-0.2,0c0,0.3,0,0.7,0,1
	c-0.3,0.9-0.4,2.2-0.7,3.1c0,0.4,0,0.8,0,1.2C94.7,31,94.4,32,94.4,33c-0.2,0.1-0.7,0.5-0.8,0.7c-1.8,0-3.6,0-5.5,0
	c-1,0-1.5,0.1-2-0.5c-0.1,0-0.1,0-0.2,0c0-0.6,0-1.1,0-1.7c0.4-0.5,0.1-1.4,0.3-2.2c0.4-1.2,0.5-2.9,0.8-4.1c0-0.3,0-0.7,0-1
	c0.3-0.9,0.4-2.2,0.7-3.1c0-0.4,0-0.8,0-1.2c0.1,0,0.1,0,0.2,0c0-0.3,0-0.7,0-1c0.1,0,0.1,0,0.2,0c0-0.3,0-0.7,0-1
	c0.1,0,0.1,0,0.2,0c0-0.4,0-0.8,0-1.2C89,14.2,89,11,89.8,8.5c0.3-2.4,0.7-4.9,1-7.3c0.1,0,0.1,0,0.2,0C91,1,91,0.8,91.1,0.5
	c0.1,0,0.1,0,0.2,0c0.1-0.1,0.1-0.2,0.2-0.3c0.1,0,0.2,0,0.3,0C91.7,0.2,91.7,0.1,91.7,0.1z M147.5,0.2c2-0.4,4.7-0.2,7-0.2
	c0.5,0.8,0.5,0.6,0.5,2c-0.4,0.5-0.1,1.4-0.3,2.2c-0.3,0.9-0.4,2.2-0.7,3.1c0,0.3,0,0.7,0,1c-0.4,1.2-0.5,2.9-0.8,4.1
	c0,0.4,0,0.8,0,1.2c-0.9,2.9-0.8,6.5-1.7,9.4c0,0.3,0,0.7,0,1c-0.1,0-0.1,0-0.2,0c0,0.4,0,0.8,0,1.2c-0.1,0-0.1,0-0.2,0
	c0,0.3,0,0.7,0,1c-0.1,0-0.1,0-0.2,0c0,0.3,0,0.7,0,1c-0.3,0.9-0.4,2.2-0.7,3.1c0,0.4,0,0.8,0,1.2c-0.2,0.8-0.3,1.4-1,1.8
	c-0.3,0.4-0.9,0.3-1.7,0.3c-1.3,0-4.9,0.3-5.3-0.5c0-0.6,0-1.1,0-1.7c0.4-0.5,0.1-1.4,0.3-2.2c0.4-1.2,0.5-2.9,0.8-4.1
	c0.1-0.7,0.1-1.4,0.2-2.2c0.6-1.9,0.6-4.4,1.2-6.3c0-0.4,0-0.8,0-1.2c0.5-1.5,0.5-3.6,1-5.1c0-0.4,0-0.8,0-1.2
	c0.6-1.9,0.6-4.4,1.2-6.3c0.1-0.7,0.1-1.4,0.2-2.2c0.1,0,0.1,0,0.2,0C147.4,0.7,147.5,0.4,147.5,0.2z M99,6.8
	c-0.4,0.4-0.6,0.3-0.7,1.2c-0.4,2.5-0.9,5.1-1.3,7.6c1.4,0,2.8,0,4.1,0c0-0.1,0-0.1,0-0.2c0.4,0,0.8,0,1.2,0c0-0.1,0-0.1,0-0.2
	c0.2,0,0.3,0,0.5,0c0-0.1,0-0.1,0-0.2c0.2,0,0.3,0,0.5,0c0-0.1,0-0.1,0-0.2c0.1,0,0.2,0,0.3,0c0-0.1,0-0.1,0-0.2c0.1,0,0.2,0,0.3,0
	c0.1-0.1,0.1-0.2,0.2-0.3c0.3-0.3,0.7-0.6,1-0.8c0.1-0.3,0.2-0.7,0.3-1c0.1,0,0.1,0,0.2,0c0.1-0.5,0.1-1,0.2-1.5
	c0.1-0.3,0.3-1.1,0.2-1.7c-0.1-0.4-0.4-0.9-0.5-1.3c-0.2-0.1-0.3-0.2-0.5-0.3c0-0.1,0-0.1,0-0.2c-0.3-0.1-0.7-0.2-1-0.3
	c0-0.1,0-0.1,0-0.2c-0.2,0-0.3,0-0.5,0c0-0.1,0-0.1,0-0.2C102,7,100.5,6.9,99,6.8z M133.3,13.3c0.1,0,0.2,0,0.3,0
	c0.1-0.6,0.1-1.1,0.2-1.7c0.2-0.1,0.5-0.5,0.5-0.5c2.3,0,4.5,0,6.8,0c0.2,0.4,0.4,0.4,0.5,0.8c0.3,0.3-0.3,3.1-0.5,3.6
	c0,0.3,0,0.7,0,1c-0.1,0-0.1,0-0.2,0c0,0.4,0,0.8,0,1.2c-0.1,0-0.1,0-0.2,0c0,0.3,0,0.7,0,1c-0.1,0-0.1,0-0.2,0c0,0.3,0,0.7,0,1
	c-0.7,2.3-0.6,5.2-1.3,7.5c-0.1,0.7-0.1,1.3-0.2,2c-0.1,0-0.1,0-0.2,0c0,0.4,0,0.8,0,1.2c-0.1,0-0.1,0-0.2,0c0,0.3,0,0.7,0,1
	c-0.3,0.9-0.2,1.5-1,2c-0.4,0.4-1.2,0.3-2,0.3c-1.6,0-3.6,0.1-5-0.2c-0.1-0.2-0.1-0.3-0.2-0.5c-0.3-0.3,0-1,0-1.7
	c-0.4,0.1-0.5,0.3-0.8,0.5c0,0.1,0,0.1,0,0.2c-0.1,0-0.2,0-0.3,0c-0.1,0.1-0.1,0.2-0.2,0.3c-0.1,0-0.2,0-0.3,0
	c-0.1,0.1-0.1,0.2-0.2,0.3c-0.2,0.1-0.4,0.1-0.7,0.2c0,0.1,0,0.1,0,0.2c-0.3,0.1-0.7,0.2-1,0.3c0,0.1,0,0.1,0,0.2
	c-0.2,0-0.3,0-0.5,0c0,0.1,0,0.1,0,0.2c-0.2,0-0.3,0-0.5,0c0,0.1,0,0.1,0,0.2c-0.2,0-0.4,0-0.7,0c0,0.1,0,0.1,0,0.2
	c-0.3,0-0.7,0-1,0c0,0.1,0,0.1,0,0.2c-0.8,0.2-2.9,0-3.5-0.2c-0.3,0-0.7,0-1,0c0-0.1,0-0.1,0-0.2c-0.2,0-0.4,0-0.7,0
	c0-0.1,0-0.1,0-0.2c-0.2,0-0.3,0-0.5,0c0-0.1,0-0.1,0-0.2c-0.1,0-0.2,0-0.3,0c0-0.1,0-0.1,0-0.2c-0.2,0-0.3,0-0.5,0
	c0-0.1,0-0.1,0-0.2c-0.1,0-0.2,0-0.3,0c-0.1-0.1-0.1-0.2-0.2-0.3c-0.1,0-0.2,0-0.3,0c-0.7-0.7-1.4-1.3-2.2-2c0-0.1,0-0.2,0-0.3
	c-0.1-0.1-0.2-0.1-0.3-0.2c-0.1-0.2-0.1-0.4-0.2-0.7c-0.1-0.1-0.2-0.1-0.3-0.2c0-0.2,0-0.3,0-0.5c-0.1,0-0.1,0-0.2,0
	c0-0.1,0-0.2,0-0.3c-0.1,0-0.1,0-0.2,0c-0.1-0.3-0.1-0.7-0.2-1c-0.1,0-0.1,0-0.2,0c0-0.2,0-0.3,0-0.5c-0.1,0-0.1,0-0.2,0
	c-0.2-0.5-0.4-4.1-0.2-4.8c0.1,0,0.1,0,0.2,0c0.1-0.6,0.1-1.1,0.2-1.7c0.1,0,0.1,0,0.2,0c0-0.2,0-0.3,0-0.5c0.1,0,0.1,0,0.2,0
	c0-0.2,0-0.3,0-0.5c0.1,0,0.1,0,0.2,0c0-0.2,0-0.3,0-0.5c0.1,0,0.1,0,0.2,0c0-0.2,0-0.3,0-0.5c0.1,0,0.1,0,0.2,0
	c0.1-0.2,0.1-0.4,0.2-0.7c0.1,0,0.1,0,0.2,0c0.1-0.3,0.2-0.7,0.3-1c0.1-0.1,0.2-0.1,0.3-0.2c0-0.1,0-0.2,0-0.3c0.1,0,0.1,0,0.2,0
	c0.1-0.2,0.1-0.3,0.2-0.5c0.1-0.1,0.2-0.1,0.3-0.2c0-0.1,0-0.2,0-0.3c0.3-0.2,0.6-0.4,0.8-0.7c0-0.1,0-0.2,0-0.3
	c0.2-0.2,0.4-0.3,0.7-0.5c0-0.1,0-0.1,0-0.2c0.1,0,0.2,0,0.3,0c0.2-0.3,0.4-0.6,0.7-0.8c0.1,0,0.2,0,0.3,0c0.1-0.1,0.1-0.2,0.2-0.3
	c0.2-0.1,0.3-0.1,0.5-0.2c0-0.1,0-0.1,0-0.2c0.1,0,0.2,0,0.3,0c0.1-0.1,0.1-0.2,0.2-0.3c0.5-0.2,1-0.3,1.5-0.5c0-0.1,0-0.1,0-0.2
	c0.1,0,0.2,0,0.3,0c0-0.1,0-0.1,0-0.2c0.3-0.1,0.7-0.1,1-0.2c0-0.1,0-0.1,0-0.2c0.3,0,0.6,0,0.8,0c2.4-0.7,6-0.3,7.8,0.7
	c0.1,0,0.2,0,0.3,0c0.1,0.1,0.1,0.2,0.2,0.3c0.1,0,0.2,0,0.3,0c0.3,0.3,0.6,0.7,0.8,1c0.1,0,0.1,0,0.2,0
	C133.3,13.1,133.3,13.2,133.3,13.3z M126.5,16.9c0,0.1,0,0.1,0,0.2c-0.4,0.1-0.8,0.1-1.2,0.2c0,0.1,0,0.1,0,0.2
	c-0.3,0.1-0.7,0.2-1,0.3c0,0.1,0,0.1,0,0.2c-0.1,0-0.2,0-0.3,0c-0.2,0.2-0.3,0.4-0.5,0.7c-0.2,0.1-0.3,0.1-0.5,0.2
	c0,0.1,0,0.2,0,0.3c-0.2,0.2-0.4,0.3-0.7,0.5c0,0.1,0,0.2,0,0.3c-0.1,0.1-0.2,0.1-0.3,0.2c-0.1,0.3-0.1,0.6-0.2,0.8
	c-0.1,0-0.1,0-0.2,0c0,0.1,0,0.2,0,0.3c-0.1,0-0.1,0-0.2,0c0,0.2,0,0.4,0,0.7c-0.3,1.1-0.4,1.9,0,3c0,0.2,0,0.3,0,0.5
	c0.1,0,0.1,0,0.2,0c0,0.1,0,0.2,0,0.3c0.1,0.1,0.2,0.1,0.3,0.2c0,0.1,0,0.2,0,0.3c0.1,0.1,0.2,0.1,0.3,0.2c0.2,0.2,0.3,0.4,0.5,0.7
	c0.1,0,0.2,0,0.3,0c0.1,0.1,0.1,0.2,0.2,0.3c0.1,0,0.2,0,0.3,0c0,0.1,0,0.1,0,0.2c0.2,0,0.3,0,0.5,0c0,0.1,0,0.1,0,0.2
	c0.2,0,0.4,0,0.7,0c0,0.1,0,0.1,0,0.2c1,0.3,2.4-0.1,3-0.3c0.3-0.1,0.7-0.1,1-0.2c1.4-0.6,2.9-2.4,3.5-4c0.3-0.7,0.3-3,0-3.6
	c-0.1,0-0.1,0-0.2,0c0-0.1,0-0.2,0-0.3c-0.1,0-0.1,0-0.2,0C130.9,17.4,129.7,16.9,126.5,16.9z"/>
</svg>
