<?xml version="1.0" encoding="utf-8"?>
<!-- Generator: Adobe Illustrator 19.0.0, SVG Export Plug-In . SVG Version: 6.00 Build 0)  -->
<svg version="1.1" id="Layer_1" xmlns="http://www.w3.org/2000/svg" xmlns:xlink="http://www.w3.org/1999/xlink" x="0px" y="0px"
	 width="19.9px" height="20px" viewBox="6 5.9 19.9 20" style="enable-background:new 6 5.9 19.9 20;" xml:space="preserve">
<style type="text/css">
	.st0{fill:#0064D2;}
	.st1{fill:#FFFFFF;}
</style>
<g>
	<g>
		<path class="st0" d="M16,25.8c-1.4,0-2.5-0.3-2.7-0.4c-0.4-0.1-0.9-0.2-1.2-0.5c-0.8-0.4-0.8-0.4-1.7-0.9C10,23.7,9.5,23.3,9.2,23
			c-0.3-0.3-0.8-0.8-1-1.1c-0.4-0.4-1-1.4-1.2-1.9c-0.2-0.4-0.4-1-0.6-1.5c-0.1-0.5-0.2-1.1-0.2-1.6c-0.1-0.8-0.1-2,0.1-2.6
			c0.1-0.7,0.2-1.6,0.9-2.9C7.5,10.7,8,9.8,8.9,8.8c1.3-1.3,2.8-1.9,2.9-2.1c0.6-0.2,1.1-0.5,1.9-0.6C14.5,6,15,5.9,15.9,5.9
			c0,0-0.1,0-0.1,0.1L16,6c0.6,0,0.9,0,1.5,0.1c0.4,0.1,1,0.2,1.2,0.2c0.4,0.1,0.9,0.2,1.2,0.5c0.8,0.4,0.8,0.4,1.7,0.9
			C22,8,22.4,8.5,22.7,8.7c0.4,0.3,0.8,0.8,1,1.1c0.4,0.4,1,1.3,1.2,1.9c0.2,0.4,0.4,1,0.6,1.5c0.1,0.5,0.2,1.1,0.2,1.6
			c0.1,0.7,0.1,1.9-0.1,2.6c-0.1,0.7-0.2,1.7-0.9,2.9c-0.3,0.6-0.9,1.6-1.8,2.5C22,23.9,19.5,25.8,16,25.8"/>
		<path class="st0" d="M16,25.9L16,25.9c-1.5,0-2.6-0.3-2.8-0.4c-0.3-0.1-0.9-0.2-1.2-0.5c-0.8-0.4-0.8-0.4-1.7-0.9
			c-0.5-0.3-1-0.8-1.2-0.9c-0.3-0.3-0.8-0.8-1-1.1c-0.4-0.5-0.9-1.4-1.2-2c-0.2-0.4-0.4-1-0.6-1.5C6.2,17.9,6,17.2,6,17
			c-0.1-0.8-0.1-2,0.1-2.7c0.1-0.7,0.2-1.7,0.9-3c0.3-0.6,0.9-1.6,1.8-2.5c1.4-1.3,2.8-1.9,3.1-2c0.6-0.2,1.1-0.5,1.9-0.6
			C14.5,6,15.1,5.9,16,5.9l0,0l0,0l0,0l0,0c0.6,0,0.9,0,1.5,0.1c0.4,0.1,1,0.2,1.2,0.2C19,6.4,19.6,6.5,20,6.8
			c0.8,0.4,0.8,0.4,1.7,0.9c0.5,0.3,1,0.8,1.2,0.9c0.3,0.3,0.8,0.8,1,1.1c0.3,0.4,0.9,1.4,1.2,2c0.2,0.4,0.4,1,0.6,1.5
			c0.1,0.6,0.2,1.2,0.2,1.6c0.1,0.7,0.1,2-0.1,2.6c-0.1,0.7-0.2,1.7-0.9,3C24.5,21.1,24,22.1,23,23C22,24,19.6,25.9,16,25.9z
			 M16,6.2L16,6.2c-0.9,0-1.5,0.1-2.1,0.2c-0.8,0.1-1.3,0.4-1.8,0.6c-0.3,0.1-1.6,0.8-3,2c-0.8,0.9-1.4,1.8-1.7,2.4
			c-0.7,1.2-0.8,2.2-0.9,2.9S6.3,16.2,6.4,17c0.1,0.6,0.2,1.1,0.2,1.6c0.1,0.5,0.3,1,0.6,1.4c0.2,0.6,0.8,1.5,1.1,1.9
			c0.2,0.3,0.7,0.8,1,1.1c0.1,0.1,0.7,0.6,1.1,0.9c0.8,0.6,0.8,0.6,1.7,0.9c0.3,0.2,0.9,0.3,1.2,0.5c0.2,0.1,1.2,0.3,2.7,0.4
			c3.6,0,5.9-1.8,7-2.9c0.9-0.9,1.4-1.8,1.8-2.4c0.7-1.2,0.8-2.2,0.9-2.9s0.1-1.8,0.1-2.6c-0.1-0.6-0.2-1.1-0.2-1.6
			c-0.1-0.5-0.4-1.1-0.6-1.4c-0.2-0.6-0.8-1.6-1.1-1.9c-0.2-0.3-0.7-0.8-1-1.1c-0.1-0.1-0.7-0.6-1.1-0.9c-0.8-0.6-0.8-0.6-1.7-0.9
			c-0.3-0.2-0.9-0.3-1.2-0.5c-0.3-0.1-0.9-0.2-1.2-0.2C16.9,6.2,16.5,6.2,16,6.2z"/>
	</g>
	<g>
		<g>
			<path class="st1" d="M18.2,11.5L18.2,11.5c-0.1,0.1-0.1,0.1-0.1,0.1c-0.1,0-0.1,0.1-0.1,0.1c0,0-0.1,0-0.1,0l0,0c0,0,0,0,0-0.1
				c0,0,0.1,0,0.1-0.1C18.1,11.5,18.1,11.5,18.2,11.5L18.2,11.5"/>
			<path class="st1" d="M17,11.5C17,11.6,17,11.6,17,11.5c-0.1,0.1-0.1,0.1-0.2,0.1c-0.1,0-0.2-0.1-0.3-0.1v-0.1
				C16.9,11.6,16.9,11.6,17,11.5L17,11.5"/>
			<path class="st1" d="M17.5,6.8C17.5,6.8,17.4,6.8,17.5,6.8c-0.1,0.1-0.2,0.1-0.2,0l0,0c-0.1,0-0.1,0-0.1,0l0.1-0.1l0,0l0,0l0,0
				l0,0c0,0,0,0-0.1,0h0.1l0,0l0,0c0,0,0,0,0-0.1C17.4,6.6,17.4,6.8,17.5,6.8L17.5,6.8"/>
			<path class="st1" d="M17.4,6.6L17.4,6.6L17.4,6.6L17.4,6.6L17.4,6.6"/>
			<path class="st1" d="M17.5,6.8C17.5,6.8,17.5,6.8,17.5,6.8C17.5,6.8,17.5,6.6,17.5,6.8C17.5,6.6,17.5,6.6,17.5,6.8L17.5,6.8"/>
			<path class="st1" d="M18.2,6.5L18.2,6.5C18.2,6.6,18.2,6.6,18.2,6.5C18.2,6.5,18.2,6.5,18.2,6.5C18.2,6.5,18.2,6.5,18.2,6.5
				C18.2,6.5,18.2,6.5,18.2,6.5"/>
			<path class="st1" d="M18,6.6L18,6.6L18,6.6C17.9,6.6,17.9,6.6,18,6.6C17.9,6.6,17.9,6.6,18,6.6C17.9,6.6,17.9,6.6,18,6.6
				C17.9,6.6,17.9,6.6,18,6.6C17.9,6.6,17.9,6.6,18,6.6L18,6.6L18,6.6"/>
			<path class="st1" d="M16.4,6.8C16.4,6.8,16.3,6.8,16.4,6.8C16.3,6.8,16.3,6.8,16.4,6.8C16.3,6.8,16.3,6.8,16.4,6.8L16.4,6.8
				L16.4,6.8"/>
			<path class="st1" d="M17.2,6.8C17.2,6.8,17.2,6.8,17.2,6.8C17.1,6.8,17.1,6.8,17.2,6.8C17.1,6.8,17.1,6.8,17.2,6.8
				C17.1,6.8,17.1,6.8,17.2,6.8L17.2,6.8L17.2,6.8"/>
			<path class="st1" d="M13,6.5C12.9,6.5,12.9,6.5,13,6.5C12.9,6.5,13,6.5,13,6.5L13,6.5L13,6.5"/>
			<path class="st1" d="M18,6.8L18,6.8C18,6.8,18,6.8,18,6.8C18,6.8,18,6.8,18,6.8C18,6.8,18,6.8,18,6.8C18,6.8,18,6.8,18,6.8
				L18,6.8"/>
			<path class="st1" d="M12.9,6.5C12.7,6.5,12.7,6.5,12.9,6.5C12.7,6.5,12.7,6.5,12.9,6.5L12.9,6.5C12.9,6.5,12.9,6.5,12.9,6.5
				L12.9,6.5L13,6.5l0,0C12.9,6.5,12.9,6.5,12.9,6.5"/>
			<path class="st1" d="M18.9,6.6C18.8,6.6,18.8,6.6,18.9,6.6c-0.1,0-0.1,0-0.2,0h0.1C18.8,6.6,18.8,6.6,18.9,6.6L18.9,6.6"/>
			<path class="st1" d="M12.7,6.5C12.7,6.5,12.6,6.5,12.7,6.5l0.2-0.1l0,0C12.9,6.5,12.7,6.5,12.7,6.5L12.7,6.5L12.7,6.5L12.7,6.5"
				/>
			<path class="st1" d="M12.7,6.5L12.7,6.5L12.7,6.5L12.7,6.5L12.7,6.5C12.9,6.5,12.9,6.5,12.7,6.5C12.9,6.5,12.7,6.5,12.7,6.5"/>
			<path class="st1" d="M12.6,6.5L12.6,6.5C12.6,6.5,12.7,6.5,12.6,6.5C12.7,6.5,12.7,6.5,12.6,6.5C12.7,6.5,12.7,6.5,12.6,6.5
				C12.7,6.5,12.7,6.5,12.6,6.5C12.7,6.5,12.7,6.5,12.6,6.5L12.6,6.5"/>
			<path class="st1" d="M18.8,6.8C18.9,6.8,18.9,6.8,18.8,6.8C18.9,6.8,18.9,6.8,18.8,6.8C18.9,6.8,18.9,6.8,18.8,6.8
				C18.9,6.8,18.9,6.8,18.8,6.8C18.9,6.8,18.9,6.8,18.8,6.8L18.8,6.8L18.8,6.8L18.8,6.8L18.8,6.8L18.8,6.8L18.8,6.8L18.8,6.8
				L18.8,6.8L18.8,6.8L18.8,6.8L18.8,6.8L18.8,6.8L18.8,6.8L18.8,6.8"/>
			<path class="st1" d="M19.3,6.5c0.1,0,0.1,0.1,0.1,0.1C19.4,6.5,19.3,6.5,19.3,6.5L19.3,6.5L19.3,6.5C19.2,6.5,19.2,6.5,19.3,6.5
				C19.2,6.5,19.2,6.5,19.3,6.5C19.2,6.5,19.2,6.5,19.3,6.5L19.3,6.5"/>
			<path class="st1" d="M18.7,6.9L18.7,6.9L18.7,6.9L18.7,6.9C18.6,6.9,18.6,6.9,18.7,6.9C18.6,6.9,18.6,6.9,18.7,6.9
				C18.6,6.9,18.6,6.9,18.7,6.9C18.6,6.9,18.7,6.9,18.7,6.9"/>
			<path class="st1" d="M13.9,7L13.9,7C13.9,7,13.9,7,13.9,7C13.9,7,13.9,7,13.9,7C13.9,7,13.9,7,13.9,7C13.9,7,13.9,7,13.9,7
				C13.9,7,13.9,7,13.9,7L13.9,7L13.9,7L13.9,7L13.9,7L13.9,7L13.9,7L13.9,7L13.9,7L13.9,7L13.9,7L13.9,7L13.9,7L13.9,7L13.9,7
				L13.9,7L13.9,7L13.9,7L13.9,7L13.9,7"/>
			<path class="st1" d="M19.5,6.6L19.5,6.6L19.5,6.6L19.5,6.6C19.5,6.6,19.5,6.6,19.5,6.6C19.5,6.6,19.5,6.6,19.5,6.6
				C19.5,6.6,19.5,6.6,19.5,6.6C19.5,6.6,19.5,6.6,19.5,6.6L19.5,6.6L19.5,6.6"/>
			<path class="st1" d="M19.5,6.6L19.5,6.6L19.5,6.6C19.4,6.6,19.4,6.6,19.5,6.6C19.4,6.6,19.4,6.6,19.5,6.6"/>
			<path class="st1" d="M19.5,6.6L19.5,6.6C19.5,6.6,19.5,6.6,19.5,6.6L19.5,6.6"/>
			<path class="st1" d="M18.9,7C18.9,7.1,18.9,7.1,18.9,7C18.8,7.1,18.8,7.1,18.9,7C18.8,7.1,18.8,7,18.9,7C18.8,7,18.8,7,18.9,7
				C18.8,7,18.9,7,18.9,7"/>
			<path class="st1" d="M14.1,7.2L14.1,7.2C14,7.2,14,7.2,14.1,7.2L14.1,7.2"/>
			<path class="st1" d="M11.7,7c-0.1,0-0.1,0.1-0.1,0.1S11.5,7.1,11.7,7L11.7,7L11.7,7"/>
			<path class="st1" d="M17.8,7.4C17.8,7.5,17.7,7.5,17.8,7.4l-0.1,0.1l0,0l0,0C17.7,7.3,17.7,7.3,17.8,7.4L17.8,7.4"/>
			<path class="st1" d="M11.5,7.2c-0.1,0.1-0.1,0.1-0.1,0.1C11.5,7.2,11.5,7.2,11.5,7.2C11.5,7.2,11.5,7.2,11.5,7.2"/>
			<path class="st1" d="M11.5,7.2C11.4,7.2,11.4,7.2,11.5,7.2C11.4,7.2,11.4,7.2,11.5,7.2L11.5,7.2C11.5,7.2,11.5,7.2,11.5,7.2
				C11.5,7.2,11.5,7.2,11.5,7.2C11.5,7.2,11.5,7.2,11.5,7.2C11.5,7.2,11.5,7.2,11.5,7.2"/>
			<path class="st1" d="M10.9,7.5L10.9,7.5C10.9,7.5,11,7.4,10.9,7.5C11,7.4,11,7.4,10.9,7.5C11,7.4,10.9,7.5,10.9,7.5"/>
			<path class="st1" d="M10.9,7.5C10.8,7.5,10.8,7.5,10.9,7.5L10.9,7.5C10.9,7.4,10.9,7.4,10.9,7.5L10.9,7.5"/>
			<path class="st1" d="M10.9,7.5L10.9,7.5C10.7,7.5,10.9,7.4,10.9,7.5C10.9,7.4,10.9,7.4,10.9,7.5L10.9,7.5"/>
			<path class="st1" d="M10.7,7.5C10.7,7.5,10.7,7.5,10.7,7.5C10.7,7.5,10.7,7.5,10.7,7.5L10.7,7.5"/>
			<path class="st1" d="M13.6,8L13.6,8C13.5,8,13.5,8,13.6,8C13.5,8,13.5,8,13.6,8C13.5,8,13.5,7.9,13.6,8C13.6,7.9,13.6,8,13.6,8
				L13.6,8"/>
			<path class="st1" d="M10.7,7.7C10.7,7.8,10.7,7.8,10.7,7.7C10.7,7.8,10.7,7.8,10.7,7.7C10.7,7.8,10.7,7.8,10.7,7.7
				C10.7,7.7,10.7,7.7,10.7,7.7C10.7,7.7,10.7,7.7,10.7,7.7L10.7,7.7L10.7,7.7L10.7,7.7"/>
			<path class="st1" d="M10.5,7.8C10.5,7.8,10.5,7.8,10.5,7.8L10.5,7.8L10.5,7.8"/>
			<path class="st1" d="M14,8.2L14,8.2C13.9,8.2,13.9,8.2,14,8.2C13.9,8.2,13.9,8.2,14,8.2C13.9,8.2,13.9,8.2,14,8.2
				C13.9,8.2,13.9,8.2,14,8.2C13.9,8.2,14,8.2,14,8.2C14,8.2,14,8.2,14,8.2C14,8.2,14,8.2,14,8.2C14,8.2,14,8.2,14,8.2
				C14,8.2,14,8.2,14,8.2C14,8.2,14,8.2,14,8.2C14,8.2,14,8.2,14,8.2C14,8.2,14,8.2,14,8.2C14,8.2,14,8.2,14,8.2
				C14,8.2,14,8.2,14,8.2C14,8.2,14,8.2,14,8.2C14,8.2,14,8.2,14,8.2C14,8.2,14,8.2,14,8.2C14,8.2,14,8.2,14,8.2"/>
			<path class="st1" d="M15.9,8.2L15.9,8.2C15.9,8.2,15.9,8.2,15.9,8.2C15.9,8.2,15.9,8.2,15.9,8.2L15.9,8.2"/>
			<path class="st1" d="M13.4,8.3L13.4,8.3c-0.1,0.1-0.1,0.1-0.1,0.1l0,0V8.4C13.4,8.4,13.4,8.4,13.4,8.3L13.4,8.3L13.4,8.3
				L13.4,8.3"/>
			<path class="st1" d="M15.8,8.5C15.8,8.5,15.8,8.5,15.8,8.5l-0.1,0.1C15.7,8.6,15.7,8.4,15.8,8.5C15.8,8.4,15.8,8.4,15.8,8.5
				C15.9,8.5,15.9,8.5,15.8,8.5"/>
			<path class="st1" d="M10,8C9.9,8.1,9.9,8.1,10,8C9.9,8.1,10,8,10,8S9.9,8.1,10,8C9.9,8.1,10,8,10,8L10,8L10,8"/>
			<path class="st1" d="M13.2,8.8C13.2,8.8,13.2,8.8,13.2,8.8C13.2,9,13.2,9,13,9.1c-0.1,0-0.1,0-0.2,0.1c-0.1,0.1-0.2,0.1-0.2,0
				c0,0,0-0.1,0.1-0.1c0-0.1,0-0.1,0.1-0.1c0,0-0.1,0-0.1-0.1c0,0,0,0,0.1-0.1c0,0,0-0.1,0.1-0.1l0,0l0,0l0,0l0,0l0,0l0,0l0,0l0,0
				c0-0.1,0.1-0.1,0.2-0.1h0.1C13.2,8.8,13.3,8.8,13.2,8.8C13.3,8.8,13.2,8.8,13.2,8.8"/>
			<path class="st1" d="M13.4,8.8C13.4,8.9,13.3,8.9,13.4,8.8C13.3,8.8,13.4,8.8,13.4,8.8L13.4,8.8"/>
			<path class="st1" d="M9.2,8.9C9.2,9,9.2,9,9.2,8.9L9.2,8.9C9.2,8.8,9.2,8.8,9.2,8.9L9.2,8.9L9.2,8.9C9.2,8.8,9.2,8.8,9.2,8.9
				C9.2,8.9,9.2,8.9,9.2,8.9"/>
			<path class="st1" d="M8.8,9.3C8.7,9.3,8.7,9.3,8.8,9.3C8.7,9.3,8.8,9.2,8.8,9.3c0-0.1,0-0.1,0.1-0.1l0,0C8.8,9.2,8.8,9.2,8.8,9.3
				C8.8,9.2,8.9,9.2,8.8,9.3"/>
			<path class="st1" d="M14.5,10.8c0,0.1,0,0.1,0,0.1c-0.1,0-0.1,0-0.1,0.1l0,0l0,0c0-0.1,0-0.2,0-0.3c0.1,0.1,0.1,0,0.1-0.1
				c-0.1-0.1-0.1-0.1-0.1-0.2c0.1,0,0.1,0,0.1-0.1c0.1,0.1,0,0.2,0,0.2C14.5,10.6,14.5,10.6,14.5,10.8"/>
			<path class="st1" d="M13.8,10.8L13.8,10.8C13.7,10.8,13.7,10.8,13.8,10.8C13.8,10.8,13.8,10.8,13.8,10.8
				C13.8,10.8,13.8,10.8,13.8,10.8"/>
			<path class="st1" d="M13.6,10.8L13.6,10.8C13.6,10.8,13.6,10.9,13.6,10.8c-0.1,0.1-0.1,0.1-0.2,0C13.5,10.8,13.5,10.8,13.6,10.8
				C13.6,10.8,13.6,10.8,13.6,10.8C13.7,10.8,13.7,10.8,13.6,10.8"/>
			<path class="st1" d="M10.2,10.9L10.2,10.9L10.2,10.9C10.1,10.9,10.1,10.9,10.2,10.9C10.1,10.9,10.1,10.9,10.2,10.9
				C10.1,10.9,10.2,10.9,10.2,10.9L10.2,10.9"/>
			<path class="st1" d="M10.7,11.8C10.7,11.9,10.7,11.8,10.7,11.8L10.7,11.8L10.7,11.8C10.7,11.8,10.7,11.8,10.7,11.8
				C10.7,11.8,10.7,11.8,10.7,11.8C10.7,11.8,10.7,11.8,10.7,11.8C10.7,11.8,10.7,11.8,10.7,11.8C10.7,11.8,10.7,11.8,10.7,11.8
				L10.7,11.8L10.7,11.8L10.7,11.8L10.7,11.8L10.7,11.8L10.7,11.8L10.7,11.8L10.7,11.8L10.7,11.8L10.7,11.8L10.7,11.8"/>
			<path class="st1" d="M11,12.5c-0.1,0.1-0.1,0.1-0.2,0.1l-0.1,0.1l0.1-0.1C10.9,12.5,11,12.5,11,12.5L11,12.5"/>
			<path class="st1" d="M10.4,12.6L10.4,12.6C10.4,12.6,10.4,12.5,10.4,12.6C10.4,12.5,10.4,12.5,10.4,12.6
				C10.5,12.5,10.4,12.5,10.4,12.6"/>
			<path class="st1" d="M10.6,12.6L10.6,12.6C10.5,12.7,10.5,12.7,10.6,12.6c-0.1,0.1-0.1,0-0.1,0C10.5,12.6,10.6,12.6,10.6,12.6
				L10.6,12.6"/>
			<path class="st1" d="M10.7,12.7L10.7,12.7L10.7,12.7C10.6,12.7,10.6,12.7,10.7,12.7C10.6,12.6,10.7,12.6,10.7,12.7
				C10.7,12.6,10.7,12.6,10.7,12.7C10.7,12.6,10.7,12.6,10.7,12.7C10.7,12.6,10.7,12.7,10.7,12.7"/>
			<path class="st1" d="M6.3,13.7L6.3,13.7C6.3,13.7,6.3,13.7,6.3,13.7L6.3,13.7l0.1-0.2C6.4,13.5,6.4,13.6,6.3,13.7L6.3,13.7
				C6.4,13.6,6.3,13.7,6.3,13.7"/>
			<path class="st1" d="M6.4,13.8C6.3,13.9,6.3,13.9,6.4,13.8C6.3,13.8,6.3,13.8,6.4,13.8C6.3,13.8,6.3,13.8,6.4,13.8
				C6.4,13.8,6.4,13.8,6.4,13.8L6.4,13.8C6.4,13.8,6.4,13.8,6.4,13.8"/>
			<path class="st1" d="M6.4,14.3L6.4,14.3C6.3,14.3,6.3,14.3,6.4,14.3C6.3,14.3,6.3,14.3,6.4,14.3L6.4,14.3L6.4,14.3L6.4,14.3
				C6.4,14.2,6.4,14.2,6.4,14.3L6.4,14.3L6.4,14.3L6.4,14.3"/>
			<path class="st1" d="M9.3,15.1C9.3,15.1,9.2,15.1,9.3,15.1C9.2,15.1,9.2,15,9.3,15.1L9.3,15.1"/>
			<path class="st1" d="M6.3,14.6c0,0,0-0.1,0-0.1l0,0C6.3,14.5,6.3,14.6,6.3,14.6L6.3,14.6"/>
			<path class="st1" d="M25.4,14.8c0,0.1,0,0.2,0,0.3c0,0,0-0.1,0-0.1c0-0.1,0-0.2,0-0.3C25.4,14.8,25.4,14.8,25.4,14.8"/>
			<path class="st1" d="M21.7,15.5C21.7,15.5,21.7,15.5,21.7,15.5C21.6,15.5,21.6,15.5,21.7,15.5l-0.1,0.1v-0.1H21.7L21.7,15.5
				L21.7,15.5"/>
			<path class="st1" d="M6.2,15.5L6.2,15.5C6.2,15.5,6.2,15.5,6.2,15.5c0-0.1,0-0.1,0-0.1l0,0l0,0l0,0l0,0l0,0l0,0l0,0l0,0l0,0l0,0
				l0,0l0,0l0,0l0,0l0,0l0,0C6.2,15.3,6.2,15.3,6.2,15.5L6.2,15.5"/>
			<path class="st1" d="M24.8,16.3c-0.1,0.1-0.1,0.1-0.1,0.1c0,0-0.1-0.1-0.1-0.6c0-0.1,0-0.2,0-0.2c0.1,0.1,0.1,0.2,0.1,0.3
				C24.8,16,24.9,16.3,24.8,16.3"/>
			<path class="st1" d="M25.5,16L25.5,16L25.5,16C25.5,16,25.5,16,25.5,16L25.5,16L25.5,16L25.5,16L25.5,16L25.5,16L25.5,16L25.5,16
				L25.5,16L25.5,16L25.5,16L25.5,16L25.5,16L25.5,16L25.5,16L25.5,16L25.5,16L25.5,16"/>
			<path class="st1" d="M14.2,17.5c0,0.1,0,0.1-0.1,0.1H14C14,17.5,14.1,17.5,14.2,17.5L14.2,17.5L14.2,17.5"/>
			<path class="st1" d="M25.7,17C25.7,17,25.5,17,25.7,17C25.5,17,25.5,16.9,25.7,17c0-0.1,0-0.1,0-0.1C25.5,16.8,25.7,17,25.7,17
				L25.7,17"/>
			<path class="st1" d="M25.7,17.2c0,0.1,0,0.1,0,0.1C25.7,17.3,25.7,17.2,25.7,17.2L25.7,17.2L25.7,17.2L25.7,17.2L25.7,17.2
				L25.7,17.2L25.7,17.2L25.7,17.2L25.7,17.2C25.7,17.1,25.7,17.1,25.7,17.2L25.7,17.2L25.7,17.2L25.7,17.2"/>
			<path class="st1" d="M25.8,17.1L25.8,17.1L25.8,17.1L25.8,17.1L25.8,17.1L25.8,17.1C25.8,17,25.8,17,25.8,17.1L25.8,17.1"/>
			<path class="st1" d="M13.8,18.2C13.8,18.2,13.8,18.2,13.8,18.2L13.8,18.2L13.8,18.2"/>
			<path class="st1" d="M25.8,17.3C25.7,17.3,25.7,17.3,25.8,17.3C25.7,17.3,25.7,17.3,25.8,17.3L25.8,17.3
				C25.8,17.3,25.8,17.2,25.8,17.3C25.8,17.3,25.8,17.3,25.8,17.3"/>
			<path class="st1" d="M25.5,17.6L25.5,17.6L25.5,17.6v-0.1l0,0l0,0l0,0l0,0l0,0l0,0l0,0l0,0C25.5,17.5,25.5,17.5,25.5,17.6
				C25.7,17.6,25.5,17.6,25.5,17.6"/>
			<path class="st1" d="M19.9,20.3C19.9,20.3,19.9,20.3,19.9,20.3C19.9,20.2,19.9,20.2,19.9,20.3C19.9,20.2,19.9,20.2,19.9,20.3
				C19.9,20.2,19.9,20.3,19.9,20.3C19.9,20.2,19.9,20.3,19.9,20.3"/>
			<path class="st1" d="M20.8,20.7C20.8,20.7,20.8,20.8,20.8,20.7L20.8,20.7L20.8,20.7c-0.2,0.7-0.8,1.5-0.9,1.5c0,0-0.2,0.1-0.4,0
				c0,0,0-0.1,0-0.1s0.1-0.1,0.1-0.1s0-0.1,0-0.1v-0.1c0.1-0.1,0.1-0.2,0.2-0.2v-0.1c0,0-0.1-0.4,0.2-0.6c0.3-0.1,0.4-0.2,0.5-0.5
				c0,0,0,0,0.1,0v-0.1c0,0,0,0,0.1,0c0.1-0.1,0.1-0.1,0-0.2c0,0,0,0,0.1-0.1C20.9,20.5,20.8,20.7,20.8,20.7"/>
			<path class="st1" d="M21.5,21.5L21.5,21.5C21.4,21.5,21.4,21.5,21.5,21.5C21.4,21.5,21.4,21.5,21.5,21.5
				C21.4,21.5,21.4,21.5,21.5,21.5C21.5,21.3,21.5,21.3,21.5,21.5C21.5,21.5,21.5,21.5,21.5,21.5C21.5,21.5,21.5,21.3,21.5,21.5
				L21.5,21.5"/>
			<path class="st1" d="M21.2,21.7C21.2,21.7,21.2,21.7,21.2,21.7C21.2,21.6,21.2,21.6,21.2,21.7L21.2,21.7L21.2,21.7"/>
			<path class="st1" d="M19.9,24.7c-0.1,0-0.1,0-0.1,0.1C19.9,24.7,19.9,24.7,19.9,24.7L19.9,24.7L19.9,24.7L19.9,24.7"/>
			<path class="st1" d="M12.5,25c-0.1,0-0.1,0-0.1-0.1h-0.1C12.4,25,12.5,25,12.5,25C12.5,25.2,12.5,25,12.5,25"/>
			<path class="st1" d="M12.6,6.6L12.6,6.6L12.6,6.6C12.7,6.5,12.7,6.5,12.6,6.6L12.6,6.6L12.6,6.6L12.6,6.6L12.6,6.6L12.6,6.6
				L12.6,6.6L12.6,6.6C12.7,6.5,12.7,6.5,12.6,6.6C12.7,6.5,12.7,6.5,12.6,6.6C12.7,6.5,12.7,6.5,12.6,6.6
				C12.7,6.5,12.7,6.5,12.6,6.6C12.7,6.5,12.7,6.5,12.6,6.6C12.7,6.5,12.6,6.5,12.6,6.6L12.6,6.6 M13,6.5L13,6.5L13,6.5L13,6.5
				L13,6.5L13,6.5L13,6.5L13,6.5 M13,6.5L13,6.5L13,6.5C12.9,6.5,12.9,6.5,13,6.5L13,6.5L13,6.5L13,6.5L13,6.5 M13.3,6.5
				C13.3,6.5,13.3,6.5,13.3,6.5L13.3,6.5L13.3,6.5L13.3,6.5L13.3,6.5L13.3,6.5L13.3,6.5 M14.5,6.8C14.5,6.8,14.5,6.8,14.5,6.8
				c-0.1-0.1-0.1,0-0.2,0l0,0c0,0,0,0-0.1,0c0.1,0,0.1,0,0.1-0.1c-0.1,0-0.2-0.1-0.2-0.1c-0.3,0-0.3,0-0.4,0l0,0c-0.1,0-0.1,0-0.1,0
				l0,0c0,0,0,0-0.1,0l0,0c0,0,0,0-0.1,0l0,0c0,0-0.1-0.1-0.4-0.1c0,0,0,0,0.1,0c-0.1,0-0.2,0.1-0.3,0.1l0,0l-0.1,0.1
				c0,0,0,0,0.1-0.1c0,0-0.2,0.1-0.4,0.1l0,0c0.1,0,0.1-0.1,0.1-0.1l0,0l0,0c0.1,0,0.1,0,0.1,0s0,0-0.1,0l0,0l0,0c0,0,0,0-0.1,0
				c0.2-0.1,0.6-0.1,0.8-0.1c-0.1,0-0.1,0-0.1,0l0,0l-0.4,0.1l0,0c0,0,0,0-0.1,0l0,0l0,0l0,0l0,0l0,0l0,0l0,0l0,0
				c-0.1,0-0.1,0-0.1,0l0,0c0.1,0,0.1,0,0.1,0c0,0.1,0,0.1-0.2,0.1l0,0c0,0-0.1,0.1-0.1,0.1l0,0l0,0l0,0l0,0l0,0l0,0l0,0l0,0
				c-0.1,0-0.1,0.1-0.2,0.1c0,0,0,0,0,0.1c0,0,0.1,0,0.1-0.1c0,0-0.1,0-0.1,0.1l0,0c0,0,0,0-0.1,0c0,0,0,0,0-0.1c0,0-0.1,0-0.2,0.1
				C12,7,12,7,12,7l0,0C11.7,7,11.6,7,11.6,7l0,0c-0.1,0.1-0.2,0.1-0.2,0.1l0,0c-0.2,0.1-0.5,0.3-0.6,0.6h0.1l0,0l0,0
				c0,0,0,0-0.1,0.1l0,0l0,0l0,0l0.8-0.5c0,0,0.1,0,0.2,0c0.2-0.1,0.4-0.2,0.6-0.1c0.1,0,0.3,0,0.6-0.1c-0.1,0-0.1,0-0.1-0.1l0,0
				l0,0l0,0c0,0,0.1,0,0.1-0.1l0,0l0,0l0,0l0,0l0,0l0,0l0,0l0,0l0,0c0,0,0,0,0,0.1c0,0,0,0,0.1,0c0.1-0.1,0.1-0.1,0.1-0.1l0,0l0,0
				l0,0c0,0,0,0,0.1-0.1l0,0c0.1,0,0.1,0,0.1-0.1c0.1,0,0.1,0,0.1,0l0,0c0.1-0.1,0.1-0.1,0.1-0.1c-0.1,0-0.1,0-0.1,0s0.1,0,0.1,0
				l0,0c0,0,0,0-0.1,0.1c0,0,0,0,0.1-0.1c0,0,0,0,0.1,0l0,0c0,0,0,0-0.1,0C14,6.8,14,6.8,14.5,6.8"/>
			<path class="st1" d="M17,6.8c-0.1,0.1-0.1,0-0.2,0c0.1,0,0.1,0,0.1,0C17,6.8,17,6.8,17,6.8L17,6.8"/>
			<path class="st1" d="M18.7,6.6L18.7,6.6c-0.1,0-0.2,0-0.3,0l0,0l0,0l0,0l0,0l0,0l0,0l0,0l0,0l0,0l0,0l0,0l0,0l0,0
				c0,0,0.1,0,0.1,0c0,0,0,0,0.1,0H18.7L18.7,6.6C18.6,6.6,18.6,6.6,18.7,6.6L18.7,6.6"/>
			<path class="st1" d="M25.7,15.1L25.7,15.1L25.7,15.1L25.7,15.1L25.7,15.1 M17,22.7C17,22.7,17,22.7,17,22.7
				C17,22.7,17,22.7,17,22.7C17,22.7,17,22.7,17,22.7L17,22.7L17,22.7 M17.6,21.2c-0.1,0-0.1,0.1-0.2,0.1c-0.1,0.1-0.1,0.1-0.1,0.1
				C17.3,21.3,17.5,21,17.6,21.2L17.6,21.2 M18.2,21c0,0-0.1,0-0.1,0s-0.1,0-0.1,0c0,0,0,0,0-0.1C18,21,18.1,21,18.2,21L18.2,21
				 M18.6,20.7L18.6,20.7c-0.1-0.1-0.1-0.1-0.1-0.2s0-0.1-0.1-0.1c0.1-0.1,0-0.2,0.1-0.4C18.7,20.2,18.5,20.4,18.6,20.7L18.6,20.7
				 M17.7,19.8c-0.1,0.1-0.1,0.1-0.1,0.2C17.6,19.9,17.6,19.8,17.7,19.8C17.7,19.8,17.7,19.8,17.7,19.8L17.7,19.8L17.7,19.8
				 M18.4,19.7C18.2,19.7,18.2,19.7,18.4,19.7c-0.1,0-0.1,0-0.1-0.1C18.2,19.6,18.2,19.7,18.4,19.7C18.2,19.7,18.2,19.7,18.4,19.7
				L18.4,19.7 M18,19.8C18,19.8,18,19.8,18,19.8C18,19.7,18,19.7,18,19.8C18,19.7,18,19.7,18,19.8c-0.1-0.2-0.2-0.3-0.2-0.4
				c0-0.1,0-0.2,0-0.3c0.1,0.2,0.1,0.3,0.1,0.5c0,0,0.1,0.1,0.1,0.1C18,19.6,18,19.7,18,19.8L18,19.8 M17.8,18.6L17.8,18.6
				L17.8,18.6C17.7,18.7,17.7,18.7,17.8,18.6c0,0,0,0-0.1-0.1C17.8,18.5,17.8,18.5,17.8,18.6L17.8,18.6 M17.9,18.2
				C17.9,18.3,17.9,18.3,17.9,18.2C17.8,18.3,17.8,18.2,17.9,18.2C17.9,18.2,17.9,18.2,17.9,18.2C17.9,18.2,17.9,18.2,17.9,18.2
				C17.9,18.2,17.9,18.2,17.9,18.2C17.9,18.2,17.9,18.2,17.9,18.2C17.9,18.2,17.9,18.2,17.9,18.2C17.9,18.2,17.9,18.2,17.9,18.2
				C17.9,18.2,17.9,18.2,17.9,18.2C17.9,18.2,17.9,18.2,17.9,18.2C17.9,18.2,17.9,18.2,17.9,18.2C17.9,18.2,17.9,18.2,17.9,18.2
				C17.9,18.2,17.9,18.2,17.9,18.2C17.9,18.2,17.9,18.2,17.9,18.2C17.9,18.2,17.9,18.2,17.9,18.2L17.9,18.2L17.9,18.2L17.9,18.2
				L17.9,18.2 M18.6,18.3c0,0.1-0.2,0.2-0.2,0.2l0,0c-0.1,0.1,0,0.1,0.1,0.1h0.1c-0.1,0.1-0.1,0.1-0.1,0c-0.1,0-0.1,0-0.1,0.1
				c-0.1-0.1-0.1-0.4,0.1-0.4v-0.1C18.5,18,18.7,18.2,18.6,18.3 M18.5,17.9L18.5,17.9C18.5,18,18.5,18,18.5,17.9
				c-0.1,0.1-0.1,0.1-0.1,0l-0.1-0.1l0,0l0,0c0,0,0,0,0.1,0c0,0,0,0-0.1,0.1C18.4,17.9,18.5,17.9,18.5,17.9
				C18.5,17.8,18.5,17.8,18.5,17.9 M18.2,17.8C18.2,17.9,18.2,17.9,18.2,17.8C18,18,18,18,18,18C18,17.9,18.1,17.8,18.2,17.8
				L18.2,17.8 M19,17.6c-0.1-0.1-0.2-0.2-0.1-0.5C19,17.3,19,17.5,19,17.6L19,17.6 M11.7,16.7L11.7,16.7L11.7,16.7
				C11.7,16.7,11.7,16.7,11.7,16.7c-0.1,0.1-0.1,0.1-0.1,0v-0.1l0,0c0,0,0,0,0,0.1C11.7,16.6,11.7,16.7,11.7,16.7
				C11.7,16.6,11.7,16.7,11.7,16.7 M19.1,15.7c0,0.1,0,0.1,0,0.1V15.7L19.1,15.7C19,15.7,19,15.7,19.1,15.7L19.1,15.7L19.1,15.7
				 M25.8,14.8L25.8,14.8L25.8,14.8c0,0-0.1-0.1,0-0.1l0,0C25.7,14.6,25.8,14.7,25.8,14.8 M15.2,15.6c-0.1,0-0.1,0-0.1,0.1
				c0,0-0.1,0-0.1-0.1c0,0,0,0,0-0.1v-0.1c0,0,0,0,0,0.1h0.1C15.2,15.6,15.2,15.6,15.2,15.6L15.2,15.6L15.2,15.6 M15,15.6
				c-0.1,0-0.1-0.1-0.1-0.1C15,15.5,15,15.5,15,15.6C15,15.6,15,15.6,15,15.6L15,15.6 M18.2,13.6c0,0.1,0,0.1,0,0.1c0,0,0,0-0.1,0
				c0,0,0,0.1-0.1,0.1H18c0,0,0,0-0.1,0.1c0,0,0,0-0.1,0.1c0,0,0,0,0-0.1c0,0,0.1-0.1,0-0.1c0,0,0.1-0.1,0.1,0
				C18.2,13.6,18.2,13.6,18.2,13.6C18.2,13.6,18.2,13.5,18.2,13.6C18.2,13.5,18.2,13.5,18.2,13.6 M24.3,11.6L24.3,11.6
				C24.3,11.7,24.3,11.7,24.3,11.6C24.3,11.7,24.3,11.6,24.3,11.6L24.3,11.6L24.3,11.6L24.3,11.6L24.3,11.6 M24.1,11.5L24.1,11.5
				L24.1,11.5L24.1,11.5C24.1,11.5,24.1,11.5,24.1,11.5L24.1,11.5L24.1,11.5 M19.6,11.9L19.6,11.9C19.5,11.9,19.5,11.9,19.6,11.9
				C19.5,11.8,19.5,11.8,19.6,11.9L19.6,11.9 M19.5,11.7L19.5,11.7L19.5,11.7L19.5,11.7L19.5,11.7L19.5,11.7
				C19.4,11.7,19.4,11.7,19.5,11.7C19.4,11.6,19.5,11.6,19.5,11.7C19.5,11.6,19.5,11.7,19.5,11.7 M24.1,10.6L24.1,10.6L24.1,10.6
				C24,10.6,24,10.5,24.1,10.6C24,10.5,24,10.5,24.1,10.6C24,10.5,24.1,10.6,24.1,10.6L24.1,10.6 M19.6,11.1L19.6,11.1
				C19.6,11.1,19.5,11.1,19.6,11.1L19.5,11C19.5,10.9,19.6,11,19.6,11.1 M19.3,10.8c-0.1,0,0,0.1,0,0.1h-0.1h-0.1
				C19.1,10.9,19.1,10.9,19.3,10.8L19.3,10.8 M18,10.9C17.9,10.9,17.9,10.9,18,10.9C17.9,10.9,17.9,10.9,18,10.9
				C17.9,10.9,17.9,10.9,18,10.9L18,10.9C17.9,10.9,17.9,10.9,18,10.9C17.9,10.9,18,10.9,18,10.9L18,10.9 M17.2,10.6L17.2,10.6
				C17.2,10.7,17.2,10.7,17.2,10.6c-0.1,0.1-0.1,0.1-0.1,0.1s-0.1,0-0.1,0c0,0,0,0,0-0.1c0,0,0,0,0-0.1c0,0,0,0,0.1,0
				C17.2,10.6,17.2,10.6,17.2,10.6L17.2,10.6 M23,10L23,10L23,10L23,10L23,10C23,9.9,23,9.9,23,10C23,9.9,23,9.9,23,10 M20.4,10.5
				c-0.1,0-0.1,0-0.2,0c0,0,0-0.1-0.1-0.1c0-0.1,0-0.1-0.1-0.1l0,0l0,0l0,0l0,0l0,0l0,0l0,0l0,0l0,0c0,0,0,0,0.1,0
				c0,0,0,0.1,0.1,0.1h0.1C20.4,10.5,20.4,10.5,20.4,10.5L20.4,10.5 M22.4,10L22.4,10C22.4,10,22.4,10,22.4,10
				C22.4,10,22.4,10,22.4,10C22.4,10,22.4,10,22.3,10C22.3,10,22.3,10,22.4,10C22.4,9.9,22.4,9.9,22.4,10C22.4,9.9,22.4,10,22.4,10
				 M18.4,11.2L18.4,11.2c0,0.1,0,0.2,0.1,0.3c-0.1,0.1-0.1,0.3-0.1,0.6c-0.1,0.1-0.2,0.1-0.3,0.1c-0.1-0.1-0.2-0.1-0.5,0.1
				c-0.2-0.1-0.7-0.2-0.9-0.2c-0.1-0.2-0.5-0.1-0.6,0.1c0,0.1,0.1,0.2-0.1,0.2c-0.1,0-0.6-0.1-0.7-0.2V12c-0.2-0.1-0.5-0.1-0.7-0.1
				c0-0.1,0-0.1,0-0.1c-0.1,0-0.1,0-0.1,0v-0.1c0.2-0.2,0.2-0.2,0.2-0.2v-0.1c0.1-0.1,0.1-0.1,0.1-0.1c-0.1,0-0.1,0-0.1,0l0,0
				c0-0.1,0-0.1-0.1-0.1c-0.2,0.1-0.2,0.1-0.4,0l0,0c-0.1,0-0.1,0-0.1,0c-0.3,0.1-0.7,0-0.9,0.2c-0.1-0.1-0.3,0.2-0.4,0.1
				c-0.2,0.1-0.5,0.1-0.4-0.1c0.1,0,0.3,0.1,0.5-0.1l0.3-0.2c-0.1-0.2,0-0.2,0.6-0.5c0-0.1,0-0.1,0-0.2c0.1-0.1,0.1-0.1,0.2,0
				c0.2,0.1,0.5-0.1,0.5-0.1c0.1,0,0.1,0.1,0.2,0.1c0,0.1,0,0.1,0.6,0.6h0.1c0.1,0.1,0.1,0.1,0.2,0.2c-0.1,0.2-0.4,0.1-0.6,0.2
				c0.1,0.1,0.1,0.1,0.4,0.2c0,0,0,0,0-0.1l0.3-0.2V11L15.7,11c0-0.1,0-0.1,0.1-0.1c0.1,0,0.1,0,0.2,0.1c0,0,0,0,0.1-0.1
				c0-0.1,0-0.1-0.3-0.2c0,0,0.1,0,0.1-0.1c-0.2,0-0.3-0.2-0.6-0.3v-0.1l0,0v-0.1l0,0c0.1,0,0.1-0.1,0.1-0.1c0,0.1,0,0.1,0.1,0.1
				l0.1-0.1v0.1l0,0l0,0l0,0c0,0.1,0.1,0.2,0.2,0.2c0,0,0,0,0,0.1c0,0,0,0.1,0.1,0.1c0.1,0,0.2,0,0.4,0.1c0,0.2,0,0.2,0.1,0.2l0,0
				c0,0,0,0,0,0.1c0,0,0,0,0.1,0.1c0,0.1,0,0.1-0.1,0.1c0,0,0.1,0,0.1,0.1l0,0v-0.1c0.3,0.1,0.2,0.2,0.3,0.3l0,0h0.1
				c0,0,0,0.1,0.1,0.1l0,0l0,0l0,0c0,0,0,0,0,0.1c0,0,0,0,0.1,0c0-0.1,0-0.1-0.1-0.2c0.1,0,0.1,0,0.1,0s0,0,0-0.1l-0.1-0.1
				c0.1,0,0.1,0,0.1,0.1l0,0c0,0,0,0,0-0.1c0.1,0,0.1,0,0.1,0.1c-0.1-0.2-0.3-0.2-0.4-0.4c0.1,0,0.1,0,0.1,0.1h0.1l0,0l0,0
				c0,0,0,0,0.1,0c0,0,0,0,0-0.1c0,0-0.1,0-0.1-0.1c0,0,0,0,0.1-0.1l0,0c0,0,0,0,0.1,0c0,0,0-0.1,0.1-0.1s0.1,0,0.2,0.1
				c0,0.1-0.1,0.2,0,0.2h0.1c0,0.1,0,0.1,0,0.1h-0.1l0,0c0,0,0,0,0,0.1c0.1,0,0.1,0,0.2,0.1c-0.1,0-0.1,0.1-0.1,0.1
				c0.2,0,0.2,0,0.2,0c0,0.1,0,0.1-0.1,0.1c0,0,0,0,0.1,0c0,0.1,0,0.1,0,0.1c0.1,0,0.1,0,0.1-0.1c0.1,0,0.2,0.1,0.3,0.1
				c0-0.1,0-0.1,0-0.1c0.1,0,0.2,0.1,0.3,0.1c0.1,0,0.2-0.1,0.2-0.1C18.2,11.2,18.2,11.2,18.4,11.2L18.4,11.2 M20.7,9.9L20.7,9.9
				c-0.1,0-0.1,0-0.1,0c0-0.1,0-0.1-0.1-0.1c0,0-0.1,0-0.1-0.1c0,0.1,0.1,0.1,0.1,0.2c-0.1,0-0.1-0.1-0.1-0.2h0.1l0,0
				c0,0,0-0.1,0.1-0.1v0.1C20.6,9.8,20.7,9.8,20.7,9.9L20.7,9.9 M22.3,9.5L22.3,9.5c0,0-0.1,0-0.1-0.1C22.2,9.4,22.2,9.5,22.3,9.5
				 M18.9,10.5c-0.2,0.2-0.8,0-0.8,0l0,0c-0.3,0-0.5,0.1-0.6,0.1l0,0l0,0l0,0c-0.2,0-0.4-0.1-0.5-0.2c0.1-0.1,0-0.1,0.1-0.1
				c0-0.1,0-0.2,0.1-0.2c0-0.1,0-0.1,0-0.1c0.1-0.1,0.1-0.1,0.1-0.1c0.2,0.1,0.2,0.1,0.3,0.1c0,0.1-0.1,0.1-0.1,0.1c0,0,0,0,0.1,0.1
				c0,0.1,0,0.1,0,0.1c0.1,0,0.1,0,0.1,0c0.1-0.1,0.2-0.1,0.2-0.1s0.1,0,0.1,0.1c0,0,0,0,0.2,0.1C18.5,10.2,18.8,10.2,18.9,10.5
				L18.9,10.5 M20.6,9.6C20.7,9.7,20.6,9.7,20.6,9.6c-0.1,0.1-0.1,0-0.1,0C20.5,9.6,20.5,9.6,20.6,9.6L20.6,9.6 M21.8,9.5
				c-0.1,0-0.1,0.1,0,0.2l0,0l-0.1-0.1C21.7,9.6,21.7,9.5,21.8,9.5L21.8,9.5 M20.6,11.1c-0.1,0.1-0.2,0.1-0.6-0.1
				C20,11,20,11,19.9,10.8c0.1-0.1,0-0.1,0-0.2c0.1,0,0.1,0,0.1,0c-0.1-0.1-0.2-0.2-0.4-0.2c-0.1-0.1-0.1-0.1-0.1-0.2
				c0,0,0-0.1-0.1-0.1c0,0-0.1-0.1-0.1-0.1c0-0.1,0.1-0.1,0-0.1c0.1,0,0.1-0.1,0.1-0.1c0-0.1,0-0.1,0.2-0.2c0.1,0.1,0.1,0,0.2,0.1
				c0,0.1,0.1,0.1,0.1,0.2l0,0l0,0l0,0l0,0l0,0l0,0l0,0l0,0c0,0,0,0.1-0.1,0.1l0.1,0.1l0,0c-0.1,0-0.1,0-0.1,0
				c0.1,0.1,0.1,0.1,0.2,0.2s0.1,0.1,0.2,0.1c0,0.1,0.1,0.2,0.1,0.2c0,0.1,0.1,0.2,0.1,0.2l0,0c0,0.1,0,0.1,0,0.1
				c0.1,0,0.1,0,0.1,0.1C20.5,10.9,20.5,11,20.6,11.1L20.6,11.1 M18.2,9.7c-0.1,0.1-0.1,0.1-0.1,0.1l0.1,0.1c0,0.1-0.1,0.1-0.1,0.1
				C18,10,18,10,18,10s-0.1,0-0.1,0s-0.1-0.1-0.1-0.1l0,0C18,9.8,18.1,9.7,18.2,9.7L18.2,9.7 M22.6,9.2L22.6,9.2L22.6,9.2
				C22.5,9.1,22.5,9.1,22.6,9.2L22.6,9.2L22.6,9.2L22.6,9.2L22.6,9.2L22.6,9.2L22.6,9.2 M22.5,9.1C22.5,9.2,22.5,9.2,22.5,9.1
				C22.5,9.2,22.5,9.2,22.5,9.1L22.5,9.1L22.5,9.1L22.5,9.1 M22.2,9.2c-0.1,0-0.1-0.1-0.1-0.1l0,0l0,0c0,0,0,0-0.1-0.1
				C22.1,9.1,22.1,9.2,22.2,9.2C22.2,9.2,22.2,9.2,22.2,9.2L22.2,9.2 M18.7,9.5L18.7,9.5c0,0.1,0,0.1,0,0.1h-0.1c0,0,0,0-0.1,0V9.6
				l0,0l0,0C18.7,9.6,18.7,9.6,18.7,9.5C18.7,9.5,18.7,9.5,18.7,9.5C18.7,9.5,18.7,9.5,18.7,9.5 M22.4,8.9C22.5,9,22.5,9,22.4,8.9
				C22.4,9,22.4,9,22.4,8.9L22.4,8.9L22.4,8.9L22.4,8.9L22.4,8.9 M22.7,8.7L22.7,8.7C22.7,8.7,22.7,8.7,22.7,8.7
				C22.7,8.7,22.7,8.7,22.7,8.7L22.7,8.7L22.7,8.7C22.7,8.8,22.7,8.7,22.7,8.7L22.7,8.7L22.7,8.7L22.7,8.7 M22.3,8.9L22.3,8.9
				L22.3,8.9L22.3,8.9C22.3,8.9,22.2,8.8,22.3,8.9C22.2,8.8,22.2,8.8,22.3,8.9C22.2,8.8,22.2,8.8,22.3,8.9
				C22.2,8.8,22.3,8.8,22.3,8.9 M20.9,9L20.9,9L20.9,9C20.9,9.1,20.9,9.1,20.9,9C20.9,9.1,20.9,9.1,20.9,9C20.9,9.1,20.9,9.1,20.9,9
				C20.9,9.1,20.9,9.1,20.9,9L20.9,9L20.9,9L20.9,9L20.9,9 M22.4,8.6c0,0,0.1,0.1,0.1,0.1C22.4,8.8,22.4,8.8,22.4,8.6
				C22.4,8.7,22.4,8.7,22.4,8.6L22.4,8.6L22.4,8.6L22.4,8.6 M22,8.2c0.1,0.1,0.1,0.1,0.1,0.1l0,0l0.1,0.1l0,0c0.1,0,0.1,0.1,0.1,0.1
				l0,0c0,0,0,0,0.1,0.1l0,0v0.1l0,0c0,0-0.1-0.2-0.2-0.2l0,0c-0.1-0.1-0.2-0.2-0.3-0.2C22,8.1,22,8.2,22,8.2 M18.1,8.5
				C18.1,8.6,18.1,8.6,18.1,8.5C18.1,8.5,18,8.5,18.1,8.5L18.1,8.5L18.1,8.5L18.1,8.5C18.1,8.4,18.1,8.4,18.1,8.5L18.1,8.5
				 M18.1,8.4L18.1,8.4L18.1,8.4L18.1,8.4 M15.4,8.3C15.4,8.4,15.4,8.4,15.4,8.3C15.3,8.4,15.3,8.4,15.4,8.3L15.4,8.3L15.4,8.3
				C15.3,8.4,15.3,8.4,15.4,8.3L15.4,8.3 M16.7,8.5c-0.1,0-0.1-0.1-0.1-0.1l0,0l0,0l0,0l0,0l0,0l0,0l0,0l0,0l0,0l0,0l0,0l0,0l0,0
				l0,0l0,0l0,0C16.7,8.3,16.7,8.3,16.7,8.5C16.7,8.4,16.7,8.4,16.7,8.5C16.7,8.4,16.7,8.4,16.7,8.5L16.7,8.5 M17.7,8.3
				c0,0.1-0.1,0-0.2-0.1l0,0c0,0,0,0,0-0.1l0,0c0,0,0,0,0.1,0C17.6,8.3,17.6,8.3,17.7,8.3L17.7,8.3 M15.3,8.3
				c-0.1,0.1-0.1,0.1-0.1,0.1s-0.1,0,0,0C15.2,8.4,15.2,8.4,15.3,8.3C15.3,8.4,15.3,8.4,15.3,8.3C15.2,8.2,15.2,8.2,15.3,8.3
				C15.2,8.2,15.2,8.2,15.3,8.3C15.2,8.2,15.2,8.2,15.3,8.3C15.2,8.2,15.2,8.2,15.3,8.3C15.2,8.2,15.2,8.2,15.3,8.3
				C15.3,8.2,15.3,8.2,15.3,8.3C15.3,8.2,15.3,8.2,15.3,8.3C15.3,8.2,15.3,8.2,15.3,8.3L15.3,8.3L15.3,8.3 M19,8.2L19,8.2L19,8.2
				C19,8.3,19.1,8.3,19,8.2C19.1,8.2,19.1,8.2,19,8.2L19,8.2C19,8.2,19,8.2,19,8.2C19,8.2,19,8.2,19,8.2L19,8.2L19,8.2 M17,8.2
				C17,8.2,17,8.2,17,8.2C17,8.2,17,8.2,17,8.2C17,8.2,17,8.2,17,8.2l-0.1,0.1c0-0.1-0.1-0.1-0.1-0.1h0.1C16.9,8.1,17,8.2,17,8.2
				L17,8.2 M16.3,8.1C16.3,8.2,16.3,8.2,16.3,8.1C16.2,8.2,16.2,8.2,16.3,8.1C16.2,8.1,16.2,8.1,16.3,8.1L16.3,8.1
				C16.2,8.1,16.2,8.1,16.3,8.1C16.2,8.1,16.2,8.1,16.3,8.1C16.3,8.1,16.2,8.1,16.3,8.1C16.2,8.1,16.2,8.1,16.3,8.1
				C16.2,8.1,16.2,8.1,16.3,8.1L16.3,8.1L16.3,8.1 M17.3,8.1C17.2,8.1,17.2,8.1,17.3,8.1C17.2,8.1,17.2,8.1,17.3,8.1
				c-0.1,0-0.1-0.1-0.1-0.1l0,0C17.2,8,17.2,8,17.3,8.1L17.3,8.1C17.2,8.1,17.2,8.1,17.3,8.1L17.3,8.1 M16.3,8C16.2,8,16.2,8,16.3,8
				C16.3,8.1,16.2,8.1,16.3,8C16.2,8,16.2,8,16.3,8C16.2,8,16.2,8.1,16.3,8C16.2,8,16.2,8,16.3,8L16.3,8L16.2,8c0,0,0,0,0-0.1l0,0
				C16.2,8,16.2,8,16.3,8C16.2,8,16.2,8,16.3,8L16.3,8 M16.5,7.9C16.5,8,16.5,8,16.5,7.9C16.4,8,16.4,8,16.4,8c0.1,0,0.1,0,0.1,0
				s0,0,0.1,0c0,0,0,0,0,0.1l0,0c0,0,0,0-0.1,0l0,0l0,0l0,0c0,0,0,0-0.1,0l0,0l0,0l0,0c0,0,0,0,0,0.1l0,0c0,0-0.1,0-0.1-0.1l0,0l0,0
				c0,0,0,0,0.1-0.1l0,0c0,0,0,0,0-0.1h-0.1c0,0,0,0,0-0.1l0,0l0,0l0,0l0,0c0,0,0,0,0.1,0l0,0l0,0C16.5,7.9,16.5,7.9,16.5,7.9
				L16.5,7.9L16.5,7.9L16.5,7.9 M17,7.9C17,7.9,17,7.9,17,7.9C17,7.9,17,7.9,17,7.9C17,7.9,17,7.9,17,7.9L17,7.9 M16.5,7.8
				C16.5,7.8,16.5,7.8,16.5,7.8C16.5,7.8,16.5,7.8,16.5,7.8L16.5,7.8L16.5,7.8L16.5,7.8C16.5,7.8,16.5,7.8,16.5,7.8
				C16.5,7.8,16.5,7.8,16.5,7.8L16.5,7.8 M16.9,7.8L16.9,7.8c-0.1,0-0.1,0-0.1,0C16.7,7.8,16.7,7.8,16.9,7.8
				C16.8,7.7,16.8,7.7,16.9,7.8L16.9,7.8 M16.7,7.7C16.7,7.7,16.7,7.7,16.7,7.7L16.7,7.7L16.7,7.7 M19.4,7.3L19.4,7.3
				C19.4,7.3,19.3,7.3,19.4,7.3C19.3,7.3,19.3,7.3,19.4,7.3C19.2,7.2,19.2,7.2,19.4,7.3C19.3,7.2,19.3,7.2,19.4,7.3
				C19.3,7.3,19.3,7.3,19.4,7.3L19.4,7.3L19.4,7.3L19.4,7.3L19.4,7.3L19.4,7.3L19.4,7.3L19.4,7.3L19.4,7.3L19.4,7.3 M16.5,7.4
				C16.4,7.4,16.4,7.5,16.5,7.4C16.4,7.5,16.4,7.5,16.5,7.4C16.3,7.5,16.3,7.5,16.5,7.4C16.4,7.4,16.4,7.4,16.5,7.4L16.5,7.4
				 M19.3,7.2L19.3,7.2L19.3,7.2C19.2,7.2,19.2,7.2,19.3,7.2L19.3,7.2h-0.2l0,0l0,0C19.2,7.2,19.2,7.2,19.3,7.2L19.3,7.2 M10.2,13.9
				L10.2,13.9L10.2,13.9L10.2,13.9 M20.9,7.4C20.1,7,20.1,7,19.7,6.8l0,0c0,0,0.1,0,0.1,0.1c-0.1,0-0.1,0-0.1,0l0,0l0,0l0,0l0,0l0,0
				l0,0l0,0c0,0,0.1,0,0.1,0.1c0.1,0,0.1,0,0.1,0c-0.1,0-0.2-0.1-0.2-0.1C19.3,7,19,6.7,18.8,6.7l0.1,0.1c-0.1,0-0.1,0.1-0.1,0.1
				c0,0.1,0,0.1,0,0.1l0,0h0.1c0,0-0.1,0-0.1,0.1c0.1,0.1,0.1,0.1,0.1,0.1c-0.1,0-0.1,0-0.2,0l0.1,0.1c-0.1,0-0.1-0.1-0.1-0.1
				c0.1,0.1,0.1,0.1,0.6,0.3v0.1c-0.1,0-0.1,0-0.2,0H19c0-0.1,0-0.2-0.8-0.5c0,0.1,0.1,0.1,0.1,0.2c0.1,0.1,0.2,0.1,0.3,0.1
				c-0.4-0.1-0.4-0.1-0.7-0.1c0.1,0,0.1,0.1,0.2,0.1c-0.2,0.1-0.5,0-0.6,0.2h-0.1l0,0c-0.1,0-0.1,0-0.2,0c0,0.1,0.1,0.1,0.1,0.1
				c0,0.1-0.1,0.1-0.2,0.1v0.1c-0.1,0-0.1,0-0.2,0l0.1,0.1c-0.1,0-0.2-0.1-0.4-0.1c0.1,0,0.3,0.1,0.5,0c-0.1-0.2-1.1-0.2-1.1-0.2
				c0-0.1,0-0.1,0-0.1c-0.1,0-0.1,0-0.6,0.1c0,0,0,0.1-0.1,0.1c-0.1-0.1-0.1-0.1-0.2,0h0.1C15.2,7.8,14.8,8,14.8,8l-0.6,0.2
				c0,0-0.1,0.4,0.1,0.3c0.1,0,0.1-0.1,0.2-0.1c0.1,0.1,0.1,0.1,0.2,0.3c-0.1,0-0.1,0.1-0.2,0.1c0,0,0,0.1,0.1,0.1l-0.1,0.1
				c0.1,0,0.1,0,0.2-0.1c0.1,0,0.1,0.1,0.1,0.1c0.1-0.1,0.2-0.1,0.2-0.2c0-0.1,0-0.1,0-0.2c0.1,0,0.1-0.1,0.2-0.1
				c0-0.1-0.1-0.1-0.1-0.1V8.2c0.1-0.1,0.4-0.3,0.6-0.3C15.9,8,15.9,8,15.7,8c0,0,0,0,0,0.2c0.2,0.1,0.5-0.1,0.7,0
				c-0.1,0.1-0.3,0.1-0.5,0.1v0.1l-0.1-0.1c-0.1,0-0.1,0-0.1,0v0.1c0.1,0,0.1,0,0.2,0l0.1,0.1c0,0-0.1,0-0.1,0.1L16,8.5
				c-0.1,0-0.1,0-0.1,0c0,0.1-0.1,0.1-0.1,0.2c-0.1,0.1-0.1,0.1-0.8,0.2l0,0l0,0l0,0l0,0l0,0l0,0l0,0l0,0L15,8.8c-0.2,0-0.2,0-0.4,0
				c0,0,0.1,0,0.1-0.1l0,0l0.1-0.1V8.5c-0.2,0-0.2,0-0.2,0.1c0,0.1,0,0.1,0,0.2v0.1c-0.1,0.1-0.1,0.1-0.4,0.1V9L14,9
				c-0.1,0.1-0.1,0.2-0.4,0.2c-0.2,0.1-0.2,0.1-0.4,0.2c0-0.1,0-0.1,0-0.1l0,0l0,0l0,0l0,0l0,0l0,0l0,0v0.1c-0.1,0.1-0.2,0-0.3,0
				v0.1c0.6,0.2,0.1,0.7,0.1,0.7l-0.7-0.1c-0.1,0.1-0.1,0.1-0.2,0.1c0,0.2-0.1,0.4-0.2,0.7l0.1,0.1c0,0.1-0.1,0.1-0.1,0.1
				c0.1,0.1,0.1,0.1,0.2,0.1c0,0.1,0.1,0.1,0.1,0.2c-0.8,1.1-0.9,1.1-0.9,1.2c-0.9,0.6-1.1,1.3-1.1,1.4l0,0c0.1,0.1,0,0.9-0.2,1.1
				c0,0,0.5,0.9,0.6,1.5c0.3,0.1,0.3,0.6,0.8,0.7c0.4,0.1,0.6,0,1.9-0.3c0.1,0.1,0.1,0.1,0.3,0.4c0.6,0,0.6,0,0.7,0.1
				c0.1,0.1-0.1,0.8-0.1,0.8s0,0,0.8,1.6L15,19.8c0.2,0.7-0.2,1.5,0.2,2.1l0.1,0.1c0.1,0.6,0.6,0.9,0.6,1.6c1.1,0.2,2.1-0.6,2.1-1.1
				c0.6-0.5,0.6-0.5,0.4-0.8c0.2-0.3,0.8-0.3,1-0.8c0.2-0.4-0.1-0.8-0.1-1.2l0.1-0.1h-0.1c0.1-0.2,0.2-0.9,0.2-0.9s1.6-1.2,1.7-2.9
				c-0.4-0.1-0.7,0.3-1.1,0.2C20,15.8,20,15.8,20,15.7l0.1-0.1c-0.1-0.2-0.2-0.4-0.6-0.6c0-0.1,0-0.1,0-0.1h-0.1
				c-0.3-0.9-0.9-1.7-1.3-2.6c0.1,0.2,0.1,0.2,0.2,0.2h0.1c0,0,1.1,0.8,1.7,2.8c0.8,0.1,0.9-0.9,1.6-0.9c0-0.1,0.1-0.1,0.1-0.2
				c0.1-0.1,0.1-0.1,0.1-0.2c0,0,0.1,0,0.1-0.1c0-0.1,0-0.1,0-0.2H22c0,0,0-0.1,0.1-0.1c0,0,0-0.1-0.1-0.1c0.1-0.1,0.1-0.1,0.1-0.2
				c-0.5-0.3-0.5-0.3-0.6-0.7c-0.1,0.3-0.2,0.4-0.5,0.5c-0.1-0.1-0.1-0.2-0.1-0.3h-0.1V13c-0.1-0.2-0.3-0.5-0.5-0.7
				c0.2-0.5,0.8,0.8,1.1,0.3h0.1c0.1,0.4,0.9,0.2,1,0.2c0.3-0.1,0.4,0.2,0.7,0.4L23,13.3c0.1,0.2,0.2,0.2,0.3,0.2l0.1-0.1v-0.1
				c0.5,0.8,0.6,1.8,0.9,2.6c0.2-0.2,0.2-0.5,0.1-1.6c0.1-0.1,0.1-0.2,0.1-0.2l0.1-1.1h0.1c0-0.1,0.1-0.1,0.1-0.2
				c0.4,0.6,0.4,0.9,0.5,1.2c0.1,0,0.1-0.1,0.1-0.1c0.1,0.2,0.1,0.2,0.3,2.9c0.1-0.8-0.1-2-0.1-2.2c0.1,0.5,0.1,0.5,0.2,0.8
				c0-0.2,0-0.2-0.1-1.1v-0.1c-0.1-0.4-0.2-0.8-0.2-1.2c0,0.1,0.1,0.1,0.1,0.2l0,0l0,0l0,0l0,0l0,0l0,0l0,0l0,0
				c0.1,0.1,0.1,0.1,0.1,0.3c0-0.1-0.1-0.2-0.1-0.4l0,0V13l0,0V13l0,0C25,11.9,24.1,9.2,20.9,7.4 M19.7,6.8L19.7,6.8L19.7,6.8
				L19.7,6.8L19.7,6.8"/>
			<path class="st1" d="M19.4,6.5C19.4,6.5,19.4,6.5,19.4,6.5C19.4,6.5,19.3,6.5,19.4,6.5C19.3,6.5,19.4,6.5,19.4,6.5"/>
			<path class="st1" d="M9.2,9.1L9.2,9.1L9.2,9.1L9.2,9.1L9.2,9.1 M10,8.1L10,8.1L10,8.1L10,8.1C9.9,8.1,9.9,8.1,10,8.1
				C9.9,8.1,9.9,8.1,10,8.1C9.9,8.1,10,8.1,10,8.1 M9,22.8L9,22.8C9,22.9,9,22.9,9,22.8L9,22.8C9,22.9,9,22.9,9,22.8L9,22.8L9,22.8
				L9,22.8L9,22.8L9,22.8L9,22.8C9,22.9,9,22.9,9,22.8C9,22.9,9,22.9,9,22.8C9,22.9,9,22.8,9,22.8L9,22.8L9,22.8L9,22.8 M9,22.9
				c0,0,0.1,0.1,0.1,0.1C9.2,23,9.2,23,9,22.9C9,23,9.1,23,9.1,23C9.2,23,9.2,23,9,22.9L9,22.9C9,22.8,9,22.8,9,22.9 M8.9,22.7
				c0,0.1,0.1,0.1,0.1,0.1c0,0,0,0,0,0.1l0,0l0,0C9,22.7,8.9,22.7,8.9,22.7L8.9,22.7L8.9,22.7L8.9,22.7L8.9,22.7 M8.3,21.7L8.3,21.7
				L8.3,21.7L8.3,21.7L8.3,21.7L8.3,21.7L8.3,21.7 M8.3,21.3C8.3,21.3,8.3,21.3,8.3,21.3L8.3,21.3C8.2,21.3,8.2,21.3,8.3,21.3
				C8.2,21.3,8.2,21.3,8.3,21.3C8.2,21.3,8.2,21.3,8.3,21.3C8.2,21.3,8.2,21.3,8.3,21.3C8.2,21.3,8.2,21.3,8.3,21.3
				C8.3,21.3,8.3,21.3,8.3,21.3C8.3,21.3,8.3,21.3,8.3,21.3C8.3,21.3,8.3,21.3,8.3,21.3C8.3,21.3,8.3,21.3,8.3,21.3
				C8.3,21.3,8.3,21.3,8.3,21.3C8.2,21.3,8.2,21.3,8.3,21.3L8.3,21.3L8.3,21.3C8.2,21.3,8.2,21.3,8.3,21.3
				C8.2,21.3,8.3,21.3,8.3,21.3L8.3,21.3 M6.2,16c0,0.1,0,0.1,0,0.1C6.2,16,6.2,16,6.2,16L6.2,16 M8.9,9L8.9,9
				C8.9,9.1,8.9,9.1,8.9,9L8.9,9C8.9,9,8.9,8.9,8.9,9C8.9,9,8.9,9,8.9,9 M9.3,8.6L9.3,8.6L9.3,8.6L9.3,8.6L9.3,8.6
				C9.4,8.6,9.4,8.6,9.3,8.6C9.4,8.6,9.4,8.6,9.3,8.6C9.4,8.6,9.4,8.6,9.3,8.6C9.4,8.6,9.4,8.6,9.3,8.6C9.4,8.6,9.4,8.6,9.3,8.6
				 M9.4,8.6C9.3,8.6,9.3,8.6,9.4,8.6C9.3,8.7,9.3,8.7,9.2,8.7C9.2,8.7,9.2,8.7,9.4,8.6L9.4,8.6C9.3,8.6,9.4,8.6,9.4,8.6L9.4,8.6
				 M9.5,8.6L9.5,8.6C9.5,8.6,9.5,8.6,9.5,8.6C9.5,8.6,9.5,8.6,9.5,8.6c0.1-0.1,0.1-0.1,0.1-0.2C9.5,8.6,9.5,8.6,9.5,8.6L9.5,8.6
				 M9.5,8.5C9.5,8.5,9.5,8.4,9.5,8.5L9.5,8.5L9.5,8.5L9.5,8.5L9.5,8.5L9.5,8.5L9.5,8.5L9.5,8.5L9.5,8.5L9.5,8.5L9.5,8.5L9.5,8.5
				L9.5,8.5L9.5,8.5L9.5,8.5L9.5,8.5L9.5,8.5C9.5,8.5,9.5,8.5,9.5,8.5L9.5,8.5 M9.7,8.4C9.6,8.4,9.6,8.4,9.7,8.4
				C9.6,8.5,9.6,8.5,9.7,8.4C9.6,8.4,9.6,8.4,9.7,8.4C9.6,8.4,9.6,8.4,9.7,8.4C9.7,8.4,9.7,8.3,9.7,8.4C9.7,8.3,9.7,8.3,9.7,8.4
				C9.7,8.3,9.7,8.3,9.7,8.4C9.7,8.3,9.7,8.3,9.7,8.4L9.7,8.4L9.7,8.4L9.7,8.4 M9.9,8.1C9.9,8.2,9.9,8.2,9.9,8.1
				C9.9,8.2,9.9,8.2,9.9,8.1L9.9,8.1C10,8.1,9.9,8.1,9.9,8.1 M11.2,7.2L11.2,7.2L11.2,7.2L11.2,7.2L11.2,7.2
				C11.3,7.2,11.2,7.2,11.2,7.2 M11.7,7L11.7,7L11.7,7L11.7,7 M11.7,7L11.7,7L11.7,7L11.7,7 M12.1,6.9C12.1,6.9,12,6.9,12.1,6.9
				C12,6.9,12,6.9,12.1,6.9L12.1,6.9L12.1,6.9L12.1,6.9L12.1,6.9L12.1,6.9L12.1,6.9L12.1,6.9 M12.2,6.8C12.2,6.8,12.1,6.8,12.2,6.8
				C12.1,6.9,12,6.9,12,7H12C12,6.9,12.1,6.8,12.2,6.8L12.2,6.8 M11.4,7.3C11.5,7.3,11.5,7.3,11.4,7.3C11.5,7.3,11.5,7.3,11.4,7.3
				C11.5,7.3,11.5,7.3,11.4,7.3C11.5,7.2,11.5,7.2,11.4,7.3L11.4,7.3c0.1-0.1,0.1-0.1,0.1-0.1l0,0c0.1-0.1,0.1-0.1,0.2-0.1l0,0l0,0
				l0,0l0,0l0,0l0,0l0,0l0,0c0.1-0.1,0.1-0.1,0.2-0.1c0,0,0,0-0.1,0c0.1-0.1,0.2-0.1,0.2-0.1c0,0,0,0-0.1,0c0,0,0,0,0.1,0
				c0,0,0,0-0.1,0c0,0,0.1,0,0.1-0.1c0,0-0.4,0.2-0.5,0.2c0,0,0,0,0.1,0c0,0,0,0-0.2,0.1l0,0c0,0-0.1,0-0.1,0.1h0.1
				c-0.1,0-0.1,0.1-0.1,0.1l0,0l0,0C11.5,7,11.6,7,11.7,7c0,0,0,0-0.1,0.1c0.2-0.1,0.5-0.2,0.7-0.2c0,0-0.3,0.1-1.2,0.6l0,0
				c0.1,0,0.1-0.1,0.1-0.1c-0.2,0-0.2,0.1-0.4,0.1c0,0,0.1,0,0.1-0.1c-0.1,0.1-0.1,0.1-0.1,0.1s0,0,0.1-0.1l0,0c0,0,0.2-0.1,0.2-0.1
				l0,0c0,0,0.1,0,0.1-0.1c0,0-0.1,0-0.1,0.1l0,0l0,0c0.2-0.1,0.3-0.1,0.4-0.2l0,0c0,0,0,0,0.1-0.1c-0.1,0-0.1,0-0.1,0.1
				c0.1,0,0.1,0,0.1-0.1l0,0l0,0c-0.1,0-0.1,0.1-0.1,0.1l0,0l0,0l0,0c0,0,0,0-0.1,0c0,0,0,0,0.1,0c-0.2,0.2-0.4,0.2-0.4,0.2l0,0
				C11,7.3,11,7.3,10.9,7.4l0,0l0,0c0,0-0.1,0-0.1,0.1l0,0l0,0l0,0l0,0l0,0l0,0l0,0l0,0l0,0l0,0c0,0,0,0-0.1,0.1l0,0l0,0l-0.1,0.1
				l0,0c0.1-0.1,0.1-0.1,0.2-0.1c-0.1,0.1-0.1,0.1-0.1,0.1s0,0,0.1-0.1c0,0,0,0-0.1,0c0.1,0,0.1-0.1,0.2-0.1c0-0.1,0.2-0.1,0.2-0.1
				c0,0.1-0.1,0.1-0.1,0.1l0,0l0,0C11.3,7.4,11.4,7.4,11.4,7.3 M9.2,9.3C9.3,9.2,9.3,9.2,9.2,9.3C9.3,9.2,9.3,9.2,9.2,9.3
				c0.1-0.1,0.1-0.1,0.1-0.1c0,0,0,0-0.1,0c0-0.1,0.1-0.1,0.1-0.1l0,0l0,0C9.4,9,9.4,9,9.5,9L9.4,9l0,0l0,0C9.4,9,9.5,9,9.5,9l0,0
				c0.1-0.1,0.1-0.1,0.2-0.2l0,0l0,0l0,0c0.1,0,0.2-0.2,0.2-0.2l0,0C10,8.4,10,8.4,10,8.4C10,8.4,10,8.3,10,8.3l0,0c0,0,0,0,0.1-0.1
				l0,0c0,0,0,0,0.1-0.1c0,0,0,0,0.6-0.5c-0.2,0.2-0.2,0.2-0.3,0.2c0.1-0.1,0.2-0.2,0.3-0.2c0-0.1,0.1-0.1,0.1-0.1l0,0
				c-0.2,0.1-0.5,0.3-0.8,0.5l0,0c0,0-0.1,0-0.1,0.1c0,0,0,0,0.1-0.1C9.7,8.3,9.7,8.3,9,9c-0.2,0.3-0.6,0.8-0.9,1.1l0,0
				C8.2,10,8.2,9.9,8.4,9.8c0,0,0,0,0,0.1c0.1-0.1,0.1-0.1,0.3-0.3l0,0c0.1,0,0.1-0.1,0.1-0.1l0,0C8.6,9.7,8.6,9.7,8.6,9.7
				c0.1-0.1,0.2-0.1,0.3-0.2C8.9,9.5,8.9,9.5,9.2,9.3c-0.1,0-0.1,0-0.2,0.1l0,0l0,0c0-0.2,0.3-0.2,0.4-0.5l0,0c-0.1,0-0.1,0-0.1,0.1
				c0.2-0.2,0.3-0.2,0.3-0.1c0.1,0,0.1-0.1,0.2-0.1l0,0C9.7,8.9,9.5,9,9.4,9.1l0,0c-0.1,0-0.1,0-0.1,0.1c0.1,0,0.1,0.1,0.1,0.1
				S9.3,9.2,9.2,9.3C9,9.3,9,9.3,9.2,9.3c0,0-0.1,0-0.1,0.1l0,0l0,0C9.2,9.3,9.2,9.3,9.2,9.3 M8.2,19.3c-0.1-0.4-0.1-0.4-0.9-1.1
				c0,0,0,0-0.1,0C7,17.9,7,17.9,6.9,17.8c0,0,0,0-0.1,0.1c0-0.1,0-0.1-0.7-2.1v-0.5c0,0,0,0,0-0.1l-0.1,0.1c-0.1-0.1,0-0.2,0-0.5
				l0,0l0,0V15l0,0C6,15.3,6,15.7,6,16c0.1,1.1,0.2,4.8,3.6,7.6l0,0C9.4,23.4,9.2,23.2,9,23c0.1,0.1,0.1,0.1,0.1,0.1
				c0-0.1,0-0.1-0.1-0.2c0,0-0.7-0.8-0.7-1.1c0,0,0,0,0.1,0v-0.1c0,0,0.1,0,0.1,0c0.1-0.6-0.4-1-0.5-1.6c0,0,0,0,0,0.1L8.2,19.3"/>
			<path class="st1" d="M9.9,10.8L9.9,10.8L9.9,10.8L9.9,10.8L9.9,10.8C9.9,10.9,9.9,10.8,9.9,10.8C9.9,10.8,9.9,10.8,9.9,10.8
				C9.9,10.8,9.9,10.8,9.9,10.8C9.9,10.8,9.9,10.8,9.9,10.8C9.9,10.8,9.9,10.8,9.9,10.8L9.9,10.8"/>
			<g>
				<path class="st1" d="M25.5,18.5C25.5,18.5,25.5,18.5,25.5,18.5L25.5,18.5"/>
				<path class="st1" d="M25.7,17.8c0,0.1,0,0.1-0.1,0.2l-0.1,0.2l0,0v0.1c0.1-0.3,0.2-1.4,0.1-1.4c0-0.2-0.1-0.4-0.1-0.7
					c0,0.1,0.1,0.1,0.1,0.1c0,0.2,0.1,0.4,0.1,0.6c0,0,0,0,0-0.1c0,0.1,0,0.1,0,0.1V17l0,0c0,0,0,0.1,0,0.1c0,0,0,0,0-0.1
					c0,0.1-0.1,0.6-0.1,0.6s0,0,0-0.1c0,0,0,0.1,0,0.1V17.8"/>
			</g>
			<path class="st1" d="M25.7,17.3L25.7,17.3L25.7,17.3L25.7,17.3c0,0.1,0,0.1-0.1,0.1C25.7,17.5,25.7,17.3,25.7,17.3L25.7,17.3
				L25.7,17.3L25.7,17.3"/>
			<path class="st1" d="M25.5,18L25.5,18c0-0.2,0-0.2,0-0.2C25.5,17.8,25.5,17.9,25.5,18"/>
			<path class="st1" d="M18.1,25.5h0.1l0,0h0.1C18.2,25.5,18.2,25.5,18.1,25.5L18.1,25.5c-0.5,0.1-0.5,0.1-0.5,0.1l0,0
				c0,0,0,0-0.1,0c0.1,0,0.1,0,0.1,0c-0.1,0-0.2,0-0.2,0l0,0c0,0,0,0-0.1,0h0.1L17,25.7l-0.6,0.1c0,0-0.8,0.1-1.2,0l0,0l0,0l0,0l0,0
				l0,0l0,0l0,0l0,0c0,0,0,0,0.1,0c-0.1,0-0.2,0-0.2,0c0.1,0,0.1,0,0.3,0c0.1,0,0.1,0,0.2,0c0.1,0,0.1,0,0.2,0c0.1,0,0.1,0,0.2,0
				c0.1,0,0.1,0,0.1,0c0.1,0,0.1,0,0.1,0c0.1,0,0.1,0,0.1,0c0.1,0,0.1,0,0.2,0c0.1,0,0.1,0,0.2,0c0.2,0,0.2,0,0.2,0
				c0.2,0,0.2,0,0.4-0.1C17.9,25.6,17.9,25.6,18.1,25.5"/>
			<path class="st1" d="M16.1,6.8c-0.1,0.1-0.2,0-0.3,0C15.9,6.9,16,6.9,16.1,6.8c-0.1,0.1-0.2,0.1-0.3,0.1l0,0c0,0,0,0-0.1,0l0,0
				c-0.1,0-0.1,0.1-0.1,0.1C15.5,7,15.5,7,15.5,7h-0.1l0,0l0,0h-0.1l0,0c0,0,0,0,0.1,0l0,0l0,0c0,0,0,0,0-0.1c0.2,0,0.2,0,0.2,0l0,0
				l0,0c0,0,0.1,0,0.1,0c0-0.1,0.1,0,0.2,0l0,0C16,6.8,16,6.8,16.1,6.8L16.1,6.8"/>
			<path class="st1" d="M12.4,6.6L12.4,6.6c0,0,0.1,0,0.1-0.1l0,0l0,0l0,0l0.1-0.1l0,0c-0.1,0-0.1,0.1-0.1,0.1l0,0l0,0l0,0
				C12.4,6.6,12.4,6.6,12.4,6.6"/>
			<path class="st1" d="M18,6.9C18,6.9,18,6.9,18,6.9C17.9,7,17.9,7,17.9,7v0.1c0,0,0,0,0,0.1s0,0.1,0,0.1c0.1,0.1,0.2,0.1,0.2,0.1
				c-0.1,0-0.1,0-0.2,0s-0.1,0-0.1-0.1c0,0-0.1,0-0.2-0.1l0,0c0,0,0,0,0.1,0c0,0,0,0-0.1,0c0-0.1,0-0.1,0.1-0.1h-0.1
				c0,0,0.1,0,0.1-0.1c0,0-0.1,0-0.1-0.1l0,0c0,0,0.1,0,0-0.1C17.8,7,17.9,6.9,18,6.9C18,6.9,18,6.9,18,6.9L18,6.9"/>
			<path class="st1" d="M12.2,6.8L12.2,6.8l0.1-0.1l0,0C12.3,6.8,12.3,6.8,12.2,6.8"/>
			<path class="st1" d="M13.3,7.8c-0.2,0.1-0.5,0.1-0.7,0.1c0,0,0,0,0.1,0h0.1c0.1-0.1,0-0.1,0-0.1c-0.1,0-0.1,0,0,0h0.1l0,0l0,0
				c0,0-0.1,0-0.1,0c0.2-0.1,0.2-0.1,0.2-0.1c0,0,0,0-0.1,0.1H13C13,7.7,13,7.7,13,7.8C13.2,7.8,13.2,7.8,13.3,7.8L13.3,7.8
				C13.2,7.8,13.2,7.8,13.3,7.8C13.3,7.8,13.3,7.8,13.3,7.8c-0.1,0.1-0.1,0.1,0,0.1C13.3,7.8,13.3,7.8,13.3,7.8"/>
			<path class="st1" d="M13.9,9.1c0,0,0,0.1-0.1,0.1C13.8,9.2,13.8,9.2,13.9,9.1c-0.2,0.2-0.6,0.1-0.6,0.1l0,0c0,0,0,0-0.1,0
				c0,0,0,0.1-0.1,0.1c0,0-0.1-0.1-0.1,0c0,0,0,0-0.1,0c0.2-0.1,0.2-0.1,0.2-0.1c0-0.1-0.1-0.1-0.1-0.1s0,0,0-0.1l0,0
				c0.1-0.1,0.2,0,0.1-0.1h-0.1c0.1-0.1,0.1-0.1,0.1-0.1h0.1c0,0,0-0.1,0.1-0.1c-0.1,0-0.1-0.1,0-0.1l0,0c-0.1,0-0.1,0-0.2,0.1l0,0
				c0-0.1,0.1-0.1,0.1-0.1c0,0,0,0-0.1,0.1l0,0l0.1-0.1l-0.1,0.1l0,0c0-0.1,0.1-0.1,0.1-0.1l0,0l0,0l0,0l0,0l0,0l0,0l0,0l0,0
				c-0.1,0,0-0.1,0-0.1s0,0,0.1,0c0-0.1,0-0.1-0.1-0.1c0,0,0.1,0,0.1-0.1c0,0,0,0,0,0.1c0.1-0.1,0.1-0.1,0.1-0.1c0,0,0,0,0.2,0l0,0
				l0,0c0,0,0,0,0.1,0c-0.1,0.1-0.1,0.1-0.1,0.1c0.1,0.1,0.1,0,0.2,0c-0.1,0.1-0.1,0.1-0.2,0.1c0.1,0.1,0.1,0.1,0.1,0.1
				c0.1,0,0.1,0.1,0.1,0.2C13.9,8.9,13.9,9,13.9,9.1C13.9,9,13.9,9,13.9,9.1"/>
			<path class="st1" d="M19.5,19.1L19.5,19.1C19.5,19.2,19.5,19.2,19.5,19.1C19.5,19.2,19.5,19.2,19.5,19.1
				C19.5,19.1,19.5,19.1,19.5,19.1C19.5,19.1,19.5,19.1,19.5,19.1C19.5,19,19.5,19,19.5,19.1"/>
			<path class="st1" d="M19.5,19.3C19.4,19.3,19.4,19.3,19.5,19.3C19.4,19.2,19.4,19.2,19.5,19.3c-0.1-0.1-0.1-0.1-0.1-0.1
				c0,0,0,0,0-0.1c0,0,0,0,0.1,0C19.5,19.3,19.5,19.3,19.5,19.3L19.5,19.3"/>
			<path class="st1" d="M11.5,7.2L11.5,7.2L11.5,7.2L11.5,7.2L11.5,7.2L11.5,7.2L11.5,7.2L11.5,7.2"/>
			<polyline class="st1" points="15.9,6.1 15.9,6.1 15.9,6.1 15.9,6.1 15.9,6.1 15.9,6.1 15.9,6.1 15.9,6.1 15.9,6.1 15.9,6.1 
				15.9,6.1 15.9,6.1 15.9,6.1 15.9,6.1 			"/>
		</g>
		<g>
			<path class="st1" d="M18.2,11.5L18.2,11.5c-0.1,0.1-0.1,0.1-0.1,0.1c-0.1,0-0.1,0.1-0.1,0.1c0,0-0.1,0-0.1,0l0,0c0,0,0,0,0-0.1
				c0,0,0.1,0,0.1-0.1C18.1,11.5,18.1,11.5,18.2,11.5L18.2,11.5"/>
			<path class="st1" d="M17,11.5C17,11.6,17,11.6,17,11.5c-0.1,0.1-0.1,0.1-0.2,0.1c-0.1,0-0.2-0.1-0.3-0.1v-0.1
				C16.9,11.6,16.9,11.6,17,11.5L17,11.5"/>
			<path class="st1" d="M17.5,6.8C17.5,6.8,17.4,6.8,17.5,6.8c-0.1,0.1-0.2,0.1-0.2,0l0,0c-0.1,0-0.1,0-0.1,0l0.1-0.1l0,0l0,0l0,0
				l0,0c0,0,0,0-0.1,0h0.1l0,0l0,0c0,0,0,0,0-0.1C17.4,6.6,17.4,6.8,17.5,6.8L17.5,6.8"/>
			<path class="st1" d="M17.4,6.6L17.4,6.6L17.4,6.6L17.4,6.6L17.4,6.6"/>
			<path class="st1" d="M17.5,6.8C17.5,6.8,17.5,6.8,17.5,6.8C17.5,6.8,17.5,6.6,17.5,6.8C17.5,6.6,17.5,6.6,17.5,6.8L17.5,6.8"/>
			<path class="st1" d="M18.2,6.5L18.2,6.5C18.2,6.6,18.2,6.6,18.2,6.5C18.2,6.5,18.2,6.5,18.2,6.5C18.2,6.5,18.2,6.5,18.2,6.5
				C18.2,6.5,18.2,6.5,18.2,6.5"/>
			<path class="st1" d="M18,6.6L18,6.6L18,6.6C17.9,6.6,17.9,6.6,18,6.6C17.9,6.6,17.9,6.6,18,6.6C17.9,6.6,17.9,6.6,18,6.6
				C17.9,6.6,17.9,6.6,18,6.6C17.9,6.6,17.9,6.6,18,6.6L18,6.6L18,6.6"/>
			<path class="st1" d="M16.4,6.8C16.4,6.8,16.3,6.8,16.4,6.8C16.3,6.8,16.3,6.8,16.4,6.8C16.3,6.8,16.3,6.8,16.4,6.8L16.4,6.8
				L16.4,6.8"/>
			<path class="st1" d="M17.2,6.8C17.2,6.8,17.2,6.8,17.2,6.8C17.1,6.8,17.1,6.8,17.2,6.8C17.1,6.8,17.1,6.8,17.2,6.8
				C17.1,6.8,17.1,6.8,17.2,6.8L17.2,6.8L17.2,6.8"/>
			<path class="st1" d="M13,6.5C12.9,6.5,12.9,6.5,13,6.5C12.9,6.5,13,6.5,13,6.5L13,6.5L13,6.5"/>
			<path class="st1" d="M18,6.8L18,6.8C18,6.8,18,6.8,18,6.8C18,6.8,18,6.8,18,6.8C18,6.8,18,6.8,18,6.8C18,6.8,18,6.8,18,6.8
				L18,6.8"/>
			<path class="st1" d="M12.9,6.5C12.7,6.5,12.7,6.5,12.9,6.5C12.7,6.5,12.7,6.5,12.9,6.5L12.9,6.5C12.9,6.5,12.9,6.5,12.9,6.5
				L12.9,6.5L13,6.5l0,0C12.9,6.5,12.9,6.5,12.9,6.5"/>
			<path class="st1" d="M18.9,6.6C18.8,6.6,18.8,6.6,18.9,6.6c-0.1,0-0.1,0-0.2,0h0.1C18.8,6.6,18.8,6.6,18.9,6.6L18.9,6.6"/>
			<path class="st1" d="M12.7,6.5C12.7,6.5,12.6,6.5,12.7,6.5l0.2-0.1l0,0C12.9,6.5,12.7,6.5,12.7,6.5L12.7,6.5L12.7,6.5L12.7,6.5"
				/>
			<path class="st1" d="M12.7,6.5L12.7,6.5L12.7,6.5L12.7,6.5L12.7,6.5C12.9,6.5,12.9,6.5,12.7,6.5C12.9,6.5,12.7,6.5,12.7,6.5"/>
			<path class="st1" d="M12.6,6.5L12.6,6.5C12.6,6.5,12.7,6.5,12.6,6.5C12.7,6.5,12.7,6.5,12.6,6.5C12.7,6.5,12.7,6.5,12.6,6.5
				C12.7,6.5,12.7,6.5,12.6,6.5C12.7,6.5,12.7,6.5,12.6,6.5L12.6,6.5"/>
			<path class="st1" d="M18.8,6.8C18.9,6.8,18.9,6.8,18.8,6.8C18.9,6.8,18.9,6.8,18.8,6.8C18.9,6.8,18.9,6.8,18.8,6.8
				C18.9,6.8,18.9,6.8,18.8,6.8C18.9,6.8,18.9,6.8,18.8,6.8L18.8,6.8L18.8,6.8L18.8,6.8L18.8,6.8L18.8,6.8L18.8,6.8L18.8,6.8
				L18.8,6.8L18.8,6.8L18.8,6.8L18.8,6.8L18.8,6.8L18.8,6.8L18.8,6.8"/>
			<path class="st1" d="M19.3,6.5c0.1,0,0.1,0.1,0.1,0.1C19.4,6.5,19.3,6.5,19.3,6.5L19.3,6.5L19.3,6.5C19.2,6.5,19.2,6.5,19.3,6.5
				C19.2,6.5,19.2,6.5,19.3,6.5C19.2,6.5,19.2,6.5,19.3,6.5L19.3,6.5"/>
			<path class="st1" d="M18.7,6.9L18.7,6.9L18.7,6.9L18.7,6.9C18.6,6.9,18.6,6.9,18.7,6.9C18.6,6.9,18.6,6.9,18.7,6.9
				C18.6,6.9,18.6,6.9,18.7,6.9C18.6,6.9,18.7,6.9,18.7,6.9"/>
			<path class="st1" d="M13.9,7L13.9,7C13.9,7,13.9,7,13.9,7C13.9,7,13.9,7,13.9,7C13.9,7,13.9,7,13.9,7C13.9,7,13.9,7,13.9,7
				C13.9,7,13.9,7,13.9,7L13.9,7L13.9,7L13.9,7L13.9,7L13.9,7L13.9,7L13.9,7L13.9,7L13.9,7L13.9,7L13.9,7L13.9,7L13.9,7L13.9,7
				L13.9,7L13.9,7L13.9,7L13.9,7L13.9,7"/>
			<path class="st1" d="M19.5,6.6L19.5,6.6L19.5,6.6L19.5,6.6C19.5,6.6,19.5,6.6,19.5,6.6C19.5,6.6,19.5,6.6,19.5,6.6
				C19.5,6.6,19.5,6.6,19.5,6.6C19.5,6.6,19.5,6.6,19.5,6.6L19.5,6.6L19.5,6.6"/>
			<path class="st1" d="M19.5,6.6L19.5,6.6L19.5,6.6C19.4,6.6,19.4,6.6,19.5,6.6C19.4,6.6,19.4,6.6,19.5,6.6"/>
			<path class="st1" d="M19.5,6.6L19.5,6.6C19.5,6.6,19.5,6.6,19.5,6.6L19.5,6.6"/>
			<path class="st1" d="M18.9,7C18.9,7.1,18.9,7.1,18.9,7C18.8,7.1,18.8,7.1,18.9,7C18.8,7.1,18.8,7,18.9,7C18.8,7,18.8,7,18.9,7
				C18.8,7,18.9,7,18.9,7"/>
			<path class="st1" d="M14.1,7.2L14.1,7.2C14,7.2,14,7.2,14.1,7.2L14.1,7.2"/>
			<path class="st1" d="M11.7,7c-0.1,0-0.1,0.1-0.1,0.1S11.5,7.1,11.7,7L11.7,7L11.7,7"/>
			<path class="st1" d="M17.8,7.4C17.8,7.5,17.7,7.5,17.8,7.4l-0.1,0.1l0,0l0,0C17.7,7.3,17.7,7.3,17.8,7.4L17.8,7.4"/>
			<path class="st1" d="M11.5,7.2c-0.1,0.1-0.1,0.1-0.1,0.1C11.5,7.2,11.5,7.2,11.5,7.2C11.5,7.2,11.5,7.2,11.5,7.2"/>
			<path class="st1" d="M11.5,7.2C11.4,7.2,11.4,7.2,11.5,7.2C11.4,7.2,11.4,7.2,11.5,7.2L11.5,7.2C11.5,7.2,11.5,7.2,11.5,7.2
				C11.5,7.2,11.5,7.2,11.5,7.2C11.5,7.2,11.5,7.2,11.5,7.2C11.5,7.2,11.5,7.2,11.5,7.2"/>
			<path class="st1" d="M10.9,7.5L10.9,7.5C10.9,7.5,11,7.4,10.9,7.5C11,7.4,11,7.4,10.9,7.5C11,7.4,10.9,7.5,10.9,7.5"/>
			<path class="st1" d="M10.9,7.5C10.8,7.5,10.8,7.5,10.9,7.5L10.9,7.5C10.9,7.4,10.9,7.4,10.9,7.5L10.9,7.5"/>
			<path class="st1" d="M10.9,7.5L10.9,7.5C10.7,7.5,10.9,7.4,10.9,7.5C10.9,7.4,10.9,7.4,10.9,7.5L10.9,7.5"/>
			<path class="st1" d="M10.7,7.5C10.7,7.5,10.7,7.5,10.7,7.5C10.7,7.5,10.7,7.5,10.7,7.5L10.7,7.5"/>
			<path class="st1" d="M13.6,8L13.6,8C13.5,8,13.5,8,13.6,8C13.5,8,13.5,8,13.6,8C13.5,8,13.5,7.9,13.6,8C13.6,7.9,13.6,8,13.6,8
				L13.6,8"/>
			<path class="st1" d="M10.7,7.7C10.7,7.8,10.7,7.8,10.7,7.7C10.7,7.8,10.7,7.8,10.7,7.7C10.7,7.8,10.7,7.8,10.7,7.7
				C10.7,7.7,10.7,7.7,10.7,7.7C10.7,7.7,10.7,7.7,10.7,7.7L10.7,7.7L10.7,7.7L10.7,7.7"/>
			<path class="st1" d="M10.5,7.8C10.5,7.8,10.5,7.8,10.5,7.8L10.5,7.8L10.5,7.8"/>
			<path class="st1" d="M14,8.2L14,8.2C13.9,8.2,13.9,8.2,14,8.2C13.9,8.2,13.9,8.2,14,8.2C13.9,8.2,13.9,8.2,14,8.2
				C13.9,8.2,13.9,8.2,14,8.2C13.9,8.2,14,8.2,14,8.2C14,8.2,14,8.2,14,8.2C14,8.2,14,8.2,14,8.2C14,8.2,14,8.2,14,8.2
				C14,8.2,14,8.2,14,8.2C14,8.2,14,8.2,14,8.2C14,8.2,14,8.2,14,8.2C14,8.2,14,8.2,14,8.2C14,8.2,14,8.2,14,8.2
				C14,8.2,14,8.2,14,8.2C14,8.2,14,8.2,14,8.2C14,8.2,14,8.2,14,8.2C14,8.2,14,8.2,14,8.2C14,8.2,14,8.2,14,8.2"/>
			<path class="st1" d="M15.9,8.2L15.9,8.2C15.9,8.2,15.9,8.2,15.9,8.2C15.9,8.2,15.9,8.2,15.9,8.2L15.9,8.2"/>
			<path class="st1" d="M13.4,8.3L13.4,8.3c-0.1,0.1-0.1,0.1-0.1,0.1l0,0V8.4C13.4,8.4,13.4,8.4,13.4,8.3L13.4,8.3L13.4,8.3
				L13.4,8.3"/>
			<path class="st1" d="M15.8,8.5C15.8,8.5,15.8,8.5,15.8,8.5l-0.1,0.1C15.7,8.6,15.7,8.4,15.8,8.5C15.8,8.4,15.8,8.4,15.8,8.5
				C15.9,8.5,15.9,8.5,15.8,8.5"/>
			<path class="st1" d="M10,8C9.9,8.1,9.9,8.1,10,8C9.9,8.1,10,8,10,8S9.9,8.1,10,8C9.9,8.1,10,8,10,8L10,8L10,8"/>
			<path class="st1" d="M13.2,8.8C13.2,8.8,13.2,8.8,13.2,8.8C13.2,9,13.2,9,13,9.1c-0.1,0-0.1,0-0.2,0.1c-0.1,0.1-0.2,0.1-0.2,0
				c0,0,0-0.1,0.1-0.1c0-0.1,0-0.1,0.1-0.1c0,0-0.1,0-0.1-0.1c0,0,0,0,0.1-0.1c0,0,0-0.1,0.1-0.1l0,0l0,0l0,0l0,0l0,0l0,0l0,0l0,0
				c0-0.1,0.1-0.1,0.2-0.1h0.1C13.2,8.8,13.3,8.8,13.2,8.8C13.3,8.8,13.2,8.8,13.2,8.8"/>
			<path class="st1" d="M13.4,8.8C13.4,8.9,13.3,8.9,13.4,8.8C13.3,8.8,13.4,8.8,13.4,8.8L13.4,8.8"/>
			<path class="st1" d="M9.2,8.9C9.2,9,9.2,9,9.2,8.9L9.2,8.9C9.2,8.8,9.2,8.8,9.2,8.9L9.2,8.9L9.2,8.9C9.2,8.8,9.2,8.8,9.2,8.9
				C9.2,8.9,9.2,8.9,9.2,8.9"/>
			<path class="st1" d="M8.8,9.3C8.7,9.3,8.7,9.3,8.8,9.3C8.7,9.3,8.8,9.2,8.8,9.3c0-0.1,0-0.1,0.1-0.1l0,0C8.8,9.2,8.8,9.2,8.8,9.3
				C8.8,9.2,8.9,9.2,8.8,9.3"/>
			<path class="st1" d="M14.5,10.8c0,0.1,0,0.1,0,0.1c-0.1,0-0.1,0-0.1,0.1l0,0l0,0c0-0.1,0-0.2,0-0.3c0.1,0.1,0.1,0,0.1-0.1
				c-0.1-0.1-0.1-0.1-0.1-0.2c0.1,0,0.1,0,0.1-0.1c0.1,0.1,0,0.2,0,0.2C14.5,10.6,14.5,10.6,14.5,10.8"/>
			<path class="st1" d="M13.8,10.8L13.8,10.8C13.7,10.8,13.7,10.8,13.8,10.8C13.8,10.8,13.8,10.8,13.8,10.8
				C13.8,10.8,13.8,10.8,13.8,10.8"/>
			<path class="st1" d="M13.6,10.8L13.6,10.8C13.6,10.8,13.6,10.9,13.6,10.8c-0.1,0.1-0.1,0.1-0.2,0C13.5,10.8,13.5,10.8,13.6,10.8
				C13.6,10.8,13.6,10.8,13.6,10.8C13.7,10.8,13.7,10.8,13.6,10.8"/>
			<path class="st1" d="M10.2,10.9L10.2,10.9L10.2,10.9C10.1,10.9,10.1,10.9,10.2,10.9C10.1,10.9,10.1,10.9,10.2,10.9
				C10.1,10.9,10.2,10.9,10.2,10.9L10.2,10.9"/>
			<path class="st1" d="M10.7,11.8C10.7,11.9,10.7,11.8,10.7,11.8L10.7,11.8L10.7,11.8C10.7,11.8,10.7,11.8,10.7,11.8
				C10.7,11.8,10.7,11.8,10.7,11.8C10.7,11.8,10.7,11.8,10.7,11.8C10.7,11.8,10.7,11.8,10.7,11.8C10.7,11.8,10.7,11.8,10.7,11.8
				L10.7,11.8L10.7,11.8L10.7,11.8L10.7,11.8L10.7,11.8L10.7,11.8L10.7,11.8L10.7,11.8L10.7,11.8L10.7,11.8L10.7,11.8"/>
			<path class="st1" d="M11,12.5c-0.1,0.1-0.1,0.1-0.2,0.1l-0.1,0.1l0.1-0.1C10.9,12.5,11,12.5,11,12.5L11,12.5"/>
			<path class="st1" d="M10.4,12.6L10.4,12.6C10.4,12.6,10.4,12.5,10.4,12.6C10.4,12.5,10.4,12.5,10.4,12.6
				C10.5,12.5,10.4,12.5,10.4,12.6"/>
			<path class="st1" d="M10.6,12.6L10.6,12.6C10.5,12.7,10.5,12.7,10.6,12.6c-0.1,0.1-0.1,0-0.1,0C10.5,12.6,10.6,12.6,10.6,12.6
				L10.6,12.6"/>
			<path class="st1" d="M10.7,12.7L10.7,12.7L10.7,12.7C10.6,12.7,10.6,12.7,10.7,12.7C10.6,12.6,10.7,12.6,10.7,12.7
				C10.7,12.6,10.7,12.6,10.7,12.7C10.7,12.6,10.7,12.6,10.7,12.7C10.7,12.6,10.7,12.7,10.7,12.7"/>
			<path class="st1" d="M6.3,13.7L6.3,13.7C6.3,13.7,6.3,13.7,6.3,13.7L6.3,13.7l0.1-0.2C6.4,13.5,6.4,13.6,6.3,13.7L6.3,13.7
				C6.4,13.6,6.3,13.7,6.3,13.7"/>
			<path class="st1" d="M6.4,13.8C6.3,13.9,6.3,13.9,6.4,13.8C6.3,13.8,6.3,13.8,6.4,13.8C6.3,13.8,6.3,13.8,6.4,13.8
				C6.4,13.8,6.4,13.8,6.4,13.8L6.4,13.8C6.4,13.8,6.4,13.8,6.4,13.8"/>
			<path class="st1" d="M6.4,14.3L6.4,14.3C6.3,14.3,6.3,14.3,6.4,14.3C6.3,14.3,6.3,14.3,6.4,14.3L6.4,14.3L6.4,14.3L6.4,14.3
				C6.4,14.2,6.4,14.2,6.4,14.3L6.4,14.3L6.4,14.3L6.4,14.3"/>
			<path class="st1" d="M9.3,15.1C9.3,15.1,9.2,15.1,9.3,15.1C9.2,15.1,9.2,15,9.3,15.1L9.3,15.1"/>
			<path class="st1" d="M6.3,14.6c0,0,0-0.1,0-0.1l0,0C6.3,14.5,6.3,14.6,6.3,14.6L6.3,14.6"/>
			<path class="st1" d="M25.4,14.8c0,0.1,0,0.2,0,0.3c0,0,0-0.1,0-0.1c0-0.1,0-0.2,0-0.3C25.4,14.8,25.4,14.8,25.4,14.8"/>
			<path class="st1" d="M21.7,15.5C21.7,15.5,21.7,15.5,21.7,15.5C21.6,15.5,21.6,15.5,21.7,15.5l-0.1,0.1v-0.1H21.7L21.7,15.5
				L21.7,15.5"/>
			<path class="st1" d="M6.2,15.5L6.2,15.5C6.2,15.5,6.2,15.5,6.2,15.5c0-0.1,0-0.1,0-0.1l0,0l0,0l0,0l0,0l0,0l0,0l0,0l0,0l0,0l0,0
				l0,0l0,0l0,0l0,0l0,0l0,0C6.2,15.3,6.2,15.3,6.2,15.5L6.2,15.5"/>
			<path class="st1" d="M24.8,16.3c-0.1,0.1-0.1,0.1-0.1,0.1c0,0-0.1-0.1-0.1-0.6c0-0.1,0-0.2,0-0.2c0.1,0.1,0.1,0.2,0.1,0.3
				C24.8,16,24.9,16.3,24.8,16.3"/>
			<path class="st1" d="M25.5,16L25.5,16L25.5,16C25.5,16,25.5,16,25.5,16L25.5,16L25.5,16L25.5,16L25.5,16L25.5,16L25.5,16L25.5,16
				L25.5,16L25.5,16L25.5,16L25.5,16L25.5,16L25.5,16L25.5,16L25.5,16L25.5,16L25.5,16"/>
			<path class="st1" d="M14.2,17.5c0,0.1,0,0.1-0.1,0.1H14C14,17.5,14.1,17.5,14.2,17.5L14.2,17.5L14.2,17.5"/>
			<path class="st1" d="M25.7,17C25.7,17,25.5,17,25.7,17C25.5,17,25.5,16.9,25.7,17c0-0.1,0-0.1,0-0.1C25.5,16.8,25.7,17,25.7,17
				L25.7,17"/>
			<path class="st1" d="M25.7,17.2c0,0.1,0,0.1,0,0.1C25.7,17.3,25.7,17.2,25.7,17.2L25.7,17.2L25.7,17.2L25.7,17.2L25.7,17.2
				L25.7,17.2L25.7,17.2L25.7,17.2L25.7,17.2C25.7,17.1,25.7,17.1,25.7,17.2L25.7,17.2L25.7,17.2L25.7,17.2"/>
			<path class="st1" d="M25.8,17.1L25.8,17.1L25.8,17.1L25.8,17.1L25.8,17.1L25.8,17.1C25.8,17,25.8,17,25.8,17.1L25.8,17.1"/>
			<path class="st1" d="M13.8,18.2C13.8,18.2,13.8,18.2,13.8,18.2L13.8,18.2L13.8,18.2"/>
			<path class="st1" d="M25.8,17.3C25.7,17.3,25.7,17.3,25.8,17.3C25.7,17.3,25.7,17.3,25.8,17.3L25.8,17.3
				C25.8,17.3,25.8,17.2,25.8,17.3C25.8,17.3,25.8,17.3,25.8,17.3"/>
			<path class="st1" d="M25.5,17.6L25.5,17.6L25.5,17.6v-0.1l0,0l0,0l0,0l0,0l0,0l0,0l0,0l0,0C25.5,17.5,25.5,17.5,25.5,17.6
				C25.7,17.6,25.5,17.6,25.5,17.6"/>
			<path class="st1" d="M19.9,20.3C19.9,20.3,19.9,20.3,19.9,20.3C19.9,20.2,19.9,20.2,19.9,20.3C19.9,20.2,19.9,20.2,19.9,20.3
				C19.9,20.2,19.9,20.3,19.9,20.3C19.9,20.2,19.9,20.3,19.9,20.3"/>
			<path class="st1" d="M20.8,20.7C20.8,20.7,20.8,20.8,20.8,20.7L20.8,20.7L20.8,20.7c-0.2,0.7-0.8,1.5-0.9,1.5c0,0-0.2,0.1-0.4,0
				c0,0,0-0.1,0-0.1s0.1-0.1,0.1-0.1s0-0.1,0-0.1v-0.1c0.1-0.1,0.1-0.2,0.2-0.2v-0.1c0,0-0.1-0.4,0.2-0.6c0.3-0.1,0.4-0.2,0.5-0.5
				c0,0,0,0,0.1,0v-0.1c0,0,0,0,0.1,0c0.1-0.1,0.1-0.1,0-0.2c0,0,0,0,0.1-0.1C20.9,20.5,20.8,20.7,20.8,20.7"/>
			<path class="st1" d="M21.5,21.5L21.5,21.5C21.4,21.5,21.4,21.5,21.5,21.5C21.4,21.5,21.4,21.5,21.5,21.5
				C21.4,21.5,21.4,21.5,21.5,21.5C21.5,21.3,21.5,21.3,21.5,21.5C21.5,21.5,21.5,21.5,21.5,21.5C21.5,21.5,21.5,21.3,21.5,21.5
				L21.5,21.5"/>
			<path class="st1" d="M21.2,21.7C21.2,21.7,21.2,21.7,21.2,21.7C21.2,21.6,21.2,21.6,21.2,21.7L21.2,21.7L21.2,21.7"/>
			<path class="st1" d="M19.9,24.7c-0.1,0-0.1,0-0.1,0.1C19.9,24.7,19.9,24.7,19.9,24.7L19.9,24.7L19.9,24.7L19.9,24.7"/>
			<path class="st1" d="M12.5,25c-0.1,0-0.1,0-0.1-0.1h-0.1C12.4,25,12.5,25,12.5,25C12.5,25.2,12.5,25,12.5,25"/>
			<path class="st1" d="M12.6,6.6L12.6,6.6L12.6,6.6C12.7,6.5,12.7,6.5,12.6,6.6L12.6,6.6L12.6,6.6L12.6,6.6L12.6,6.6L12.6,6.6
				L12.6,6.6L12.6,6.6C12.7,6.5,12.7,6.5,12.6,6.6C12.7,6.5,12.7,6.5,12.6,6.6C12.7,6.5,12.7,6.5,12.6,6.6
				C12.7,6.5,12.7,6.5,12.6,6.6C12.7,6.5,12.7,6.5,12.6,6.6C12.7,6.5,12.6,6.5,12.6,6.6L12.6,6.6 M13,6.5L13,6.5L13,6.5L13,6.5
				L13,6.5L13,6.5L13,6.5L13,6.5 M13,6.5L13,6.5L13,6.5C12.9,6.5,12.9,6.5,13,6.5L13,6.5L13,6.5L13,6.5L13,6.5 M13.3,6.5
				C13.3,6.5,13.3,6.5,13.3,6.5L13.3,6.5L13.3,6.5L13.3,6.5L13.3,6.5L13.3,6.5L13.3,6.5 M14.5,6.8C14.5,6.8,14.5,6.8,14.5,6.8
				c-0.1-0.1-0.1,0-0.2,0l0,0c0,0,0,0-0.1,0c0.1,0,0.1,0,0.1-0.1c-0.1,0-0.2-0.1-0.2-0.1c-0.3,0-0.3,0-0.4,0l0,0c-0.1,0-0.1,0-0.1,0
				l0,0c0,0,0,0-0.1,0l0,0c0,0,0,0-0.1,0l0,0c0,0-0.1-0.1-0.4-0.1c0,0,0,0,0.1,0c-0.1,0-0.2,0.1-0.3,0.1l0,0l-0.1,0.1
				c0,0,0,0,0.1-0.1c0,0-0.2,0.1-0.4,0.1l0,0c0.1,0,0.1-0.1,0.1-0.1l0,0l0,0c0.1,0,0.1,0,0.1,0s0,0-0.1,0l0,0l0,0c0,0,0,0-0.1,0
				c0.2-0.1,0.6-0.1,0.8-0.1c-0.1,0-0.1,0-0.1,0l0,0l-0.4,0.1l0,0c0,0,0,0-0.1,0l0,0l0,0l0,0l0,0l0,0l0,0l0,0l0,0
				c-0.1,0-0.1,0-0.1,0l0,0c0.1,0,0.1,0,0.1,0c0,0.1,0,0.1-0.2,0.1l0,0c0,0-0.1,0.1-0.1,0.1l0,0l0,0l0,0l0,0l0,0l0,0l0,0l0,0
				c-0.1,0-0.1,0.1-0.2,0.1c0,0,0,0,0,0.1c0,0,0.1,0,0.1-0.1c0,0-0.1,0-0.1,0.1l0,0c0,0,0,0-0.1,0c0,0,0,0,0-0.1c0,0-0.1,0-0.2,0.1
				C12,7,12,7,12,7l0,0C11.7,7,11.6,7,11.6,7l0,0c-0.1,0.1-0.2,0.1-0.2,0.1l0,0c-0.2,0.1-0.5,0.3-0.6,0.6h0.1l0,0l0,0
				c0,0,0,0-0.1,0.1l0,0l0,0l0,0l0.8-0.5c0,0,0.1,0,0.2,0c0.2-0.1,0.4-0.2,0.6-0.1c0.1,0,0.3,0,0.6-0.1c-0.1,0-0.1,0-0.1-0.1l0,0
				l0,0l0,0c0,0,0.1,0,0.1-0.1l0,0l0,0l0,0l0,0l0,0l0,0l0,0l0,0l0,0c0,0,0,0,0,0.1c0,0,0,0,0.1,0c0.1-0.1,0.1-0.1,0.1-0.1l0,0l0,0
				l0,0c0,0,0,0,0.1-0.1l0,0c0.1,0,0.1,0,0.1-0.1c0.1,0,0.1,0,0.1,0l0,0c0.1-0.1,0.1-0.1,0.1-0.1c-0.1,0-0.1,0-0.1,0s0.1,0,0.1,0
				l0,0c0,0,0,0-0.1,0.1c0,0,0,0,0.1-0.1c0,0,0,0,0.1,0l0,0c0,0,0,0-0.1,0C14,6.8,14,6.8,14.5,6.8"/>
			<path class="st1" d="M17,6.8c-0.1,0.1-0.1,0-0.2,0c0.1,0,0.1,0,0.1,0C17,6.8,17,6.8,17,6.8L17,6.8"/>
			<path class="st1" d="M18.7,6.6L18.7,6.6c-0.1,0-0.2,0-0.3,0l0,0l0,0l0,0l0,0l0,0l0,0l0,0l0,0l0,0l0,0l0,0l0,0l0,0
				c0,0,0.1,0,0.1,0c0,0,0,0,0.1,0H18.7L18.7,6.6C18.6,6.6,18.6,6.6,18.7,6.6L18.7,6.6"/>
			<path class="st1" d="M25.7,15.1L25.7,15.1L25.7,15.1L25.7,15.1L25.7,15.1 M17,22.7C17,22.7,17,22.7,17,22.7
				C17,22.7,17,22.7,17,22.7C17,22.7,17,22.7,17,22.7L17,22.7L17,22.7 M17.6,21.2c-0.1,0-0.1,0.1-0.2,0.1c-0.1,0.1-0.1,0.1-0.1,0.1
				C17.3,21.3,17.5,21,17.6,21.2L17.6,21.2 M18.2,21c0,0-0.1,0-0.1,0s-0.1,0-0.1,0c0,0,0,0,0-0.1C18,21,18.1,21,18.2,21L18.2,21
				 M18.6,20.7L18.6,20.7c-0.1-0.1-0.1-0.1-0.1-0.2s0-0.1-0.1-0.1c0.1-0.1,0-0.2,0.1-0.4C18.7,20.2,18.5,20.4,18.6,20.7L18.6,20.7
				 M17.7,19.8c-0.1,0.1-0.1,0.1-0.1,0.2C17.6,19.9,17.6,19.8,17.7,19.8C17.7,19.8,17.7,19.8,17.7,19.8L17.7,19.8L17.7,19.8
				 M18.4,19.7C18.2,19.7,18.2,19.7,18.4,19.7c-0.1,0-0.1,0-0.1-0.1C18.2,19.6,18.2,19.7,18.4,19.7C18.2,19.7,18.2,19.7,18.4,19.7
				L18.4,19.7 M18,19.8C18,19.8,18,19.8,18,19.8C18,19.7,18,19.7,18,19.8C18,19.7,18,19.7,18,19.8c-0.1-0.2-0.2-0.3-0.2-0.4
				c0-0.1,0-0.2,0-0.3c0.1,0.2,0.1,0.3,0.1,0.5c0,0,0.1,0.1,0.1,0.1C18,19.6,18,19.7,18,19.8L18,19.8 M17.8,18.6L17.8,18.6
				L17.8,18.6C17.7,18.7,17.7,18.7,17.8,18.6c0,0,0,0-0.1-0.1C17.8,18.5,17.8,18.5,17.8,18.6L17.8,18.6 M17.9,18.2
				C17.9,18.3,17.9,18.3,17.9,18.2C17.8,18.3,17.8,18.2,17.9,18.2C17.9,18.2,17.9,18.2,17.9,18.2C17.9,18.2,17.9,18.2,17.9,18.2
				C17.9,18.2,17.9,18.2,17.9,18.2C17.9,18.2,17.9,18.2,17.9,18.2C17.9,18.2,17.9,18.2,17.9,18.2C17.9,18.2,17.9,18.2,17.9,18.2
				C17.9,18.2,17.9,18.2,17.9,18.2C17.9,18.2,17.9,18.2,17.9,18.2C17.9,18.2,17.9,18.2,17.9,18.2C17.9,18.2,17.9,18.2,17.9,18.2
				C17.9,18.2,17.9,18.2,17.9,18.2C17.9,18.2,17.9,18.2,17.9,18.2C17.9,18.2,17.9,18.2,17.9,18.2L17.9,18.2L17.9,18.2L17.9,18.2
				L17.9,18.2 M18.6,18.3c0,0.1-0.2,0.2-0.2,0.2l0,0c-0.1,0.1,0,0.1,0.1,0.1h0.1c-0.1,0.1-0.1,0.1-0.1,0c-0.1,0-0.1,0-0.1,0.1
				c-0.1-0.1-0.1-0.4,0.1-0.4v-0.1C18.5,18,18.7,18.2,18.6,18.3 M18.5,17.9L18.5,17.9C18.5,18,18.5,18,18.5,17.9
				c-0.1,0.1-0.1,0.1-0.1,0l-0.1-0.1l0,0l0,0c0,0,0,0,0.1,0c0,0,0,0-0.1,0.1C18.4,17.9,18.5,17.9,18.5,17.9
				C18.5,17.8,18.5,17.8,18.5,17.9 M18.2,17.8C18.2,17.9,18.2,17.9,18.2,17.8C18,18,18,18,18,18C18,17.9,18.1,17.8,18.2,17.8
				L18.2,17.8 M19,17.6c-0.1-0.1-0.2-0.2-0.1-0.5C19,17.3,19,17.5,19,17.6L19,17.6 M11.7,16.7L11.7,16.7L11.7,16.7
				C11.7,16.7,11.7,16.7,11.7,16.7c-0.1,0.1-0.1,0.1-0.1,0v-0.1l0,0c0,0,0,0,0,0.1C11.7,16.6,11.7,16.7,11.7,16.7
				C11.7,16.6,11.7,16.7,11.7,16.7 M19.1,15.7c0,0.1,0,0.1,0,0.1V15.7L19.1,15.7C19,15.7,19,15.7,19.1,15.7L19.1,15.7L19.1,15.7
				 M25.8,14.8L25.8,14.8L25.8,14.8c0,0-0.1-0.1,0-0.1l0,0C25.7,14.6,25.8,14.7,25.8,14.8 M15.2,15.6c-0.1,0-0.1,0-0.1,0.1
				c0,0-0.1,0-0.1-0.1c0,0,0,0,0-0.1v-0.1c0,0,0,0,0,0.1h0.1C15.2,15.6,15.2,15.6,15.2,15.6L15.2,15.6L15.2,15.6 M15,15.6
				c-0.1,0-0.1-0.1-0.1-0.1C15,15.5,15,15.5,15,15.6C15,15.6,15,15.6,15,15.6L15,15.6 M18.2,13.6c0,0.1,0,0.1,0,0.1c0,0,0,0-0.1,0
				c0,0,0,0.1-0.1,0.1H18c0,0,0,0-0.1,0.1c0,0,0,0-0.1,0.1c0,0,0,0,0-0.1c0,0,0.1-0.1,0-0.1c0,0,0.1-0.1,0.1,0
				C18.2,13.6,18.2,13.6,18.2,13.6C18.2,13.6,18.2,13.5,18.2,13.6C18.2,13.5,18.2,13.5,18.2,13.6 M24.3,11.6L24.3,11.6
				C24.3,11.7,24.3,11.7,24.3,11.6C24.3,11.7,24.3,11.6,24.3,11.6L24.3,11.6L24.3,11.6L24.3,11.6L24.3,11.6 M24.1,11.5L24.1,11.5
				L24.1,11.5L24.1,11.5C24.1,11.5,24.1,11.5,24.1,11.5L24.1,11.5L24.1,11.5 M19.6,11.9L19.6,11.9C19.5,11.9,19.5,11.9,19.6,11.9
				C19.5,11.8,19.5,11.8,19.6,11.9L19.6,11.9 M19.5,11.7L19.5,11.7L19.5,11.7L19.5,11.7L19.5,11.7L19.5,11.7
				C19.4,11.7,19.4,11.7,19.5,11.7C19.4,11.6,19.5,11.6,19.5,11.7C19.5,11.6,19.5,11.7,19.5,11.7 M24.1,10.6L24.1,10.6L24.1,10.6
				C24,10.6,24,10.5,24.1,10.6C24,10.5,24,10.5,24.1,10.6C24,10.5,24.1,10.6,24.1,10.6L24.1,10.6 M19.6,11.1L19.6,11.1
				C19.6,11.1,19.5,11.1,19.6,11.1L19.5,11C19.5,10.9,19.6,11,19.6,11.1 M19.3,10.8c-0.1,0,0,0.1,0,0.1h-0.1h-0.1
				C19.1,10.9,19.1,10.9,19.3,10.8L19.3,10.8 M18,10.9C17.9,10.9,17.9,10.9,18,10.9C17.9,10.9,17.9,10.9,18,10.9
				C17.9,10.9,17.9,10.9,18,10.9L18,10.9C17.9,10.9,17.9,10.9,18,10.9C17.9,10.9,18,10.9,18,10.9L18,10.9 M17.2,10.6L17.2,10.6
				C17.2,10.7,17.2,10.7,17.2,10.6c-0.1,0.1-0.1,0.1-0.1,0.1s-0.1,0-0.1,0c0,0,0,0,0-0.1c0,0,0,0,0-0.1c0,0,0,0,0.1,0
				C17.2,10.6,17.2,10.6,17.2,10.6L17.2,10.6 M23,10L23,10L23,10L23,10L23,10C23,9.9,23,9.9,23,10C23,9.9,23,9.9,23,10 M20.4,10.5
				c-0.1,0-0.1,0-0.2,0c0,0,0-0.1-0.1-0.1c0-0.1,0-0.1-0.1-0.1l0,0l0,0l0,0l0,0l0,0l0,0l0,0l0,0l0,0c0,0,0,0,0.1,0
				c0,0,0,0.1,0.1,0.1h0.1C20.4,10.5,20.4,10.5,20.4,10.5L20.4,10.5 M22.4,10L22.4,10C22.4,10,22.4,10,22.4,10
				C22.4,10,22.4,10,22.4,10C22.4,10,22.4,10,22.3,10C22.3,10,22.3,10,22.4,10C22.4,9.9,22.4,9.9,22.4,10C22.4,9.9,22.4,10,22.4,10
				 M18.4,11.2L18.4,11.2c0,0.1,0,0.2,0.1,0.3c-0.1,0.1-0.1,0.3-0.1,0.6c-0.1,0.1-0.2,0.1-0.3,0.1c-0.1-0.1-0.2-0.1-0.5,0.1
				c-0.2-0.1-0.7-0.2-0.9-0.2c-0.1-0.2-0.5-0.1-0.6,0.1c0,0.1,0.1,0.2-0.1,0.2c-0.1,0-0.6-0.1-0.7-0.2V12c-0.2-0.1-0.5-0.1-0.7-0.1
				c0-0.1,0-0.1,0-0.1c-0.1,0-0.1,0-0.1,0v-0.1c0.2-0.2,0.2-0.2,0.2-0.2v-0.1c0.1-0.1,0.1-0.1,0.1-0.1c-0.1,0-0.1,0-0.1,0l0,0
				c0-0.1,0-0.1-0.1-0.1c-0.2,0.1-0.2,0.1-0.4,0l0,0c-0.1,0-0.1,0-0.1,0c-0.3,0.1-0.7,0-0.9,0.2c-0.1-0.1-0.3,0.2-0.4,0.1
				c-0.2,0.1-0.5,0.1-0.4-0.1c0.1,0,0.3,0.1,0.5-0.1l0.3-0.2c-0.1-0.2,0-0.2,0.6-0.5c0-0.1,0-0.1,0-0.2c0.1-0.1,0.1-0.1,0.2,0
				c0.2,0.1,0.5-0.1,0.5-0.1c0.1,0,0.1,0.1,0.2,0.1c0,0.1,0,0.1,0.6,0.6h0.1c0.1,0.1,0.1,0.1,0.2,0.2c-0.1,0.2-0.4,0.1-0.6,0.2
				c0.1,0.1,0.1,0.1,0.4,0.2c0,0,0,0,0-0.1l0.3-0.2V11L15.7,11c0-0.1,0-0.1,0.1-0.1c0.1,0,0.1,0,0.2,0.1c0,0,0,0,0.1-0.1
				c0-0.1,0-0.1-0.3-0.2c0,0,0.1,0,0.1-0.1c-0.2,0-0.3-0.2-0.6-0.3v-0.1l0,0v-0.1l0,0c0.1,0,0.1-0.1,0.1-0.1c0,0.1,0,0.1,0.1,0.1
				l0.1-0.1v0.1l0,0l0,0l0,0c0,0.1,0.1,0.2,0.2,0.2c0,0,0,0,0,0.1c0,0,0,0.1,0.1,0.1c0.1,0,0.2,0,0.4,0.1c0,0.2,0,0.2,0.1,0.2l0,0
				c0,0,0,0,0,0.1c0,0,0,0,0.1,0.1c0,0.1,0,0.1-0.1,0.1c0,0,0.1,0,0.1,0.1l0,0v-0.1c0.3,0.1,0.2,0.2,0.3,0.3l0,0h0.1
				c0,0,0,0.1,0.1,0.1l0,0l0,0l0,0c0,0,0,0,0,0.1c0,0,0,0,0.1,0c0-0.1,0-0.1-0.1-0.2c0.1,0,0.1,0,0.1,0s0,0,0-0.1l-0.1-0.1
				c0.1,0,0.1,0,0.1,0.1l0,0c0,0,0,0,0-0.1c0.1,0,0.1,0,0.1,0.1c-0.1-0.2-0.3-0.2-0.4-0.4c0.1,0,0.1,0,0.1,0.1h0.1l0,0l0,0
				c0,0,0,0,0.1,0c0,0,0,0,0-0.1c0,0-0.1,0-0.1-0.1c0,0,0,0,0.1-0.1l0,0c0,0,0,0,0.1,0c0,0,0-0.1,0.1-0.1s0.1,0,0.2,0.1
				c0,0.1-0.1,0.2,0,0.2h0.1c0,0.1,0,0.1,0,0.1h-0.1l0,0c0,0,0,0,0,0.1c0.1,0,0.1,0,0.2,0.1c-0.1,0-0.1,0.1-0.1,0.1
				c0.2,0,0.2,0,0.2,0c0,0.1,0,0.1-0.1,0.1c0,0,0,0,0.1,0c0,0.1,0,0.1,0,0.1c0.1,0,0.1,0,0.1-0.1c0.1,0,0.2,0.1,0.3,0.1
				c0-0.1,0-0.1,0-0.1c0.1,0,0.2,0.1,0.3,0.1c0.1,0,0.2-0.1,0.2-0.1C18.2,11.2,18.2,11.2,18.4,11.2L18.4,11.2 M20.7,9.9L20.7,9.9
				c-0.1,0-0.1,0-0.1,0c0-0.1,0-0.1-0.1-0.1c0,0-0.1,0-0.1-0.1c0,0.1,0.1,0.1,0.1,0.2c-0.1,0-0.1-0.1-0.1-0.2h0.1l0,0
				c0,0,0-0.1,0.1-0.1v0.1C20.6,9.8,20.7,9.8,20.7,9.9L20.7,9.9 M22.3,9.5L22.3,9.5c0,0-0.1,0-0.1-0.1C22.2,9.4,22.2,9.5,22.3,9.5
				 M18.9,10.5c-0.2,0.2-0.8,0-0.8,0l0,0c-0.3,0-0.5,0.1-0.6,0.1l0,0l0,0l0,0c-0.2,0-0.4-0.1-0.5-0.2c0.1-0.1,0-0.1,0.1-0.1
				c0-0.1,0-0.2,0.1-0.2c0-0.1,0-0.1,0-0.1c0.1-0.1,0.1-0.1,0.1-0.1c0.2,0.1,0.2,0.1,0.3,0.1c0,0.1-0.1,0.1-0.1,0.1c0,0,0,0,0.1,0.1
				c0,0.1,0,0.1,0,0.1c0.1,0,0.1,0,0.1,0c0.1-0.1,0.2-0.1,0.2-0.1s0.1,0,0.1,0.1c0,0,0,0,0.2,0.1C18.5,10.2,18.8,10.2,18.9,10.5
				L18.9,10.5 M20.6,9.6C20.7,9.7,20.6,9.7,20.6,9.6c-0.1,0.1-0.1,0-0.1,0C20.5,9.6,20.5,9.6,20.6,9.6L20.6,9.6 M21.8,9.5
				c-0.1,0-0.1,0.1,0,0.2l0,0l-0.1-0.1C21.7,9.6,21.7,9.5,21.8,9.5L21.8,9.5 M20.6,11.1c-0.1,0.1-0.2,0.1-0.6-0.1
				C20,11,20,11,19.9,10.8c0.1-0.1,0-0.1,0-0.2c0.1,0,0.1,0,0.1,0c-0.1-0.1-0.2-0.2-0.4-0.2c-0.1-0.1-0.1-0.1-0.1-0.2
				c0,0,0-0.1-0.1-0.1c0,0-0.1-0.1-0.1-0.1c0-0.1,0.1-0.1,0-0.1c0.1,0,0.1-0.1,0.1-0.1c0-0.1,0-0.1,0.2-0.2c0.1,0.1,0.1,0,0.2,0.1
				c0,0.1,0.1,0.1,0.1,0.2l0,0l0,0l0,0l0,0l0,0l0,0l0,0l0,0c0,0,0,0.1-0.1,0.1l0.1,0.1l0,0c-0.1,0-0.1,0-0.1,0
				c0.1,0.1,0.1,0.1,0.2,0.2s0.1,0.1,0.2,0.1c0,0.1,0.1,0.2,0.1,0.2c0,0.1,0.1,0.2,0.1,0.2l0,0c0,0.1,0,0.1,0,0.1
				c0.1,0,0.1,0,0.1,0.1C20.5,10.9,20.5,11,20.6,11.1L20.6,11.1 M18.2,9.7c-0.1,0.1-0.1,0.1-0.1,0.1l0.1,0.1c0,0.1-0.1,0.1-0.1,0.1
				C18,10,18,10,18,10s-0.1,0-0.1,0s-0.1-0.1-0.1-0.1l0,0C18,9.8,18.1,9.7,18.2,9.7L18.2,9.7 M22.6,9.2L22.6,9.2L22.6,9.2
				C22.5,9.1,22.5,9.1,22.6,9.2L22.6,9.2L22.6,9.2L22.6,9.2L22.6,9.2L22.6,9.2L22.6,9.2 M22.5,9.1C22.5,9.2,22.5,9.2,22.5,9.1
				C22.5,9.2,22.5,9.2,22.5,9.1L22.5,9.1L22.5,9.1L22.5,9.1 M22.2,9.2c-0.1,0-0.1-0.1-0.1-0.1l0,0l0,0c0,0,0,0-0.1-0.1
				C22.1,9.1,22.1,9.2,22.2,9.2C22.2,9.2,22.2,9.2,22.2,9.2L22.2,9.2 M18.7,9.5L18.7,9.5c0,0.1,0,0.1,0,0.1h-0.1c0,0,0,0-0.1,0V9.6
				l0,0l0,0C18.7,9.6,18.7,9.6,18.7,9.5C18.7,9.5,18.7,9.5,18.7,9.5C18.7,9.5,18.7,9.5,18.7,9.5 M22.4,8.9C22.5,9,22.5,9,22.4,8.9
				C22.4,9,22.4,9,22.4,8.9L22.4,8.9L22.4,8.9L22.4,8.9L22.4,8.9 M22.7,8.7L22.7,8.7C22.7,8.7,22.7,8.7,22.7,8.7
				C22.7,8.7,22.7,8.7,22.7,8.7L22.7,8.7L22.7,8.7C22.7,8.8,22.7,8.7,22.7,8.7L22.7,8.7L22.7,8.7L22.7,8.7 M22.3,8.9L22.3,8.9
				L22.3,8.9L22.3,8.9C22.3,8.9,22.2,8.8,22.3,8.9C22.2,8.8,22.2,8.8,22.3,8.9C22.2,8.8,22.2,8.8,22.3,8.9
				C22.2,8.8,22.3,8.8,22.3,8.9 M20.9,9L20.9,9L20.9,9C20.9,9.1,20.9,9.1,20.9,9C20.9,9.1,20.9,9.1,20.9,9C20.9,9.1,20.9,9.1,20.9,9
				C20.9,9.1,20.9,9.1,20.9,9L20.9,9L20.9,9L20.9,9L20.9,9 M22.4,8.6c0,0,0.1,0.1,0.1,0.1C22.4,8.8,22.4,8.8,22.4,8.6
				C22.4,8.7,22.4,8.7,22.4,8.6L22.4,8.6L22.4,8.6L22.4,8.6 M22,8.2c0.1,0.1,0.1,0.1,0.1,0.1l0,0l0.1,0.1l0,0c0.1,0,0.1,0.1,0.1,0.1
				l0,0c0,0,0,0,0.1,0.1l0,0v0.1l0,0c0,0-0.1-0.2-0.2-0.2l0,0c-0.1-0.1-0.2-0.2-0.3-0.2C22,8.1,22,8.2,22,8.2 M18.1,8.5
				C18.1,8.6,18.1,8.6,18.1,8.5C18.1,8.5,18,8.5,18.1,8.5L18.1,8.5L18.1,8.5L18.1,8.5C18.1,8.4,18.1,8.4,18.1,8.5L18.1,8.5
				 M18.1,8.4L18.1,8.4L18.1,8.4L18.1,8.4 M15.4,8.3C15.4,8.4,15.4,8.4,15.4,8.3C15.3,8.4,15.3,8.4,15.4,8.3L15.4,8.3L15.4,8.3
				C15.3,8.4,15.3,8.4,15.4,8.3L15.4,8.3 M16.7,8.5c-0.1,0-0.1-0.1-0.1-0.1l0,0l0,0l0,0l0,0l0,0l0,0l0,0l0,0l0,0l0,0l0,0l0,0l0,0
				l0,0l0,0l0,0C16.7,8.3,16.7,8.3,16.7,8.5C16.7,8.4,16.7,8.4,16.7,8.5C16.7,8.4,16.7,8.4,16.7,8.5L16.7,8.5 M17.7,8.3
				c0,0.1-0.1,0-0.2-0.1l0,0c0,0,0,0,0-0.1l0,0c0,0,0,0,0.1,0C17.6,8.3,17.6,8.3,17.7,8.3L17.7,8.3 M15.3,8.3
				c-0.1,0.1-0.1,0.1-0.1,0.1s-0.1,0,0,0C15.2,8.4,15.2,8.4,15.3,8.3C15.3,8.4,15.3,8.4,15.3,8.3C15.2,8.2,15.2,8.2,15.3,8.3
				C15.2,8.2,15.2,8.2,15.3,8.3C15.2,8.2,15.2,8.2,15.3,8.3C15.2,8.2,15.2,8.2,15.3,8.3C15.2,8.2,15.2,8.2,15.3,8.3
				C15.3,8.2,15.3,8.2,15.3,8.3C15.3,8.2,15.3,8.2,15.3,8.3C15.3,8.2,15.3,8.2,15.3,8.3L15.3,8.3L15.3,8.3 M19,8.2L19,8.2L19,8.2
				C19,8.3,19.1,8.3,19,8.2C19.1,8.2,19.1,8.2,19,8.2L19,8.2C19,8.2,19,8.2,19,8.2C19,8.2,19,8.2,19,8.2L19,8.2L19,8.2 M17,8.2
				C17,8.2,17,8.2,17,8.2C17,8.2,17,8.2,17,8.2C17,8.2,17,8.2,17,8.2l-0.1,0.1c0-0.1-0.1-0.1-0.1-0.1h0.1C16.9,8.1,17,8.2,17,8.2
				L17,8.2 M16.3,8.1C16.3,8.2,16.3,8.2,16.3,8.1C16.2,8.2,16.2,8.2,16.3,8.1C16.2,8.1,16.2,8.1,16.3,8.1L16.3,8.1
				C16.2,8.1,16.2,8.1,16.3,8.1C16.2,8.1,16.2,8.1,16.3,8.1C16.3,8.1,16.2,8.1,16.3,8.1C16.2,8.1,16.2,8.1,16.3,8.1
				C16.2,8.1,16.2,8.1,16.3,8.1L16.3,8.1L16.3,8.1 M17.3,8.1C17.2,8.1,17.2,8.1,17.3,8.1C17.2,8.1,17.2,8.1,17.3,8.1
				c-0.1,0-0.1-0.1-0.1-0.1l0,0C17.2,8,17.2,8,17.3,8.1L17.3,8.1C17.2,8.1,17.2,8.1,17.3,8.1L17.3,8.1 M16.3,8C16.2,8,16.2,8,16.3,8
				C16.3,8.1,16.2,8.1,16.3,8C16.2,8,16.2,8,16.3,8C16.2,8,16.2,8.1,16.3,8C16.2,8,16.2,8,16.3,8L16.3,8L16.2,8c0,0,0,0,0-0.1l0,0
				C16.2,8,16.2,8,16.3,8C16.2,8,16.2,8,16.3,8L16.3,8 M16.5,7.9C16.5,8,16.5,8,16.5,7.9C16.4,8,16.4,8,16.4,8c0.1,0,0.1,0,0.1,0
				s0,0,0.1,0c0,0,0,0,0,0.1l0,0c0,0,0,0-0.1,0l0,0l0,0l0,0c0,0,0,0-0.1,0l0,0l0,0l0,0c0,0,0,0,0,0.1l0,0c0,0-0.1,0-0.1-0.1l0,0l0,0
				c0,0,0,0,0.1-0.1l0,0c0,0,0,0,0-0.1h-0.1c0,0,0,0,0-0.1l0,0l0,0l0,0l0,0c0,0,0,0,0.1,0l0,0l0,0C16.5,7.9,16.5,7.9,16.5,7.9
				L16.5,7.9L16.5,7.9L16.5,7.9 M17,7.9C17,7.9,17,7.9,17,7.9C17,7.9,17,7.9,17,7.9C17,7.9,17,7.9,17,7.9L17,7.9 M16.5,7.8
				C16.5,7.8,16.5,7.8,16.5,7.8C16.5,7.8,16.5,7.8,16.5,7.8L16.5,7.8L16.5,7.8L16.5,7.8C16.5,7.8,16.5,7.8,16.5,7.8
				C16.5,7.8,16.5,7.8,16.5,7.8L16.5,7.8 M16.9,7.8L16.9,7.8c-0.1,0-0.1,0-0.1,0C16.7,7.8,16.7,7.8,16.9,7.8
				C16.8,7.7,16.8,7.7,16.9,7.8L16.9,7.8 M16.7,7.7C16.7,7.7,16.7,7.7,16.7,7.7L16.7,7.7L16.7,7.7 M19.4,7.3L19.4,7.3
				C19.4,7.3,19.3,7.3,19.4,7.3C19.3,7.3,19.3,7.3,19.4,7.3C19.2,7.2,19.2,7.2,19.4,7.3C19.3,7.2,19.3,7.2,19.4,7.3
				C19.3,7.3,19.3,7.3,19.4,7.3L19.4,7.3L19.4,7.3L19.4,7.3L19.4,7.3L19.4,7.3L19.4,7.3L19.4,7.3L19.4,7.3L19.4,7.3 M16.5,7.4
				C16.4,7.4,16.4,7.5,16.5,7.4C16.4,7.5,16.4,7.5,16.5,7.4C16.3,7.5,16.3,7.5,16.5,7.4C16.4,7.4,16.4,7.4,16.5,7.4L16.5,7.4
				 M19.3,7.2L19.3,7.2L19.3,7.2C19.2,7.2,19.2,7.2,19.3,7.2L19.3,7.2h-0.2l0,0l0,0C19.2,7.2,19.2,7.2,19.3,7.2L19.3,7.2 M10.2,13.9
				L10.2,13.9L10.2,13.9L10.2,13.9 M20.9,7.4C20.1,7,20.1,7,19.7,6.8l0,0c0,0,0.1,0,0.1,0.1c-0.1,0-0.1,0-0.1,0l0,0l0,0l0,0l0,0l0,0
				l0,0l0,0c0,0,0.1,0,0.1,0.1c0.1,0,0.1,0,0.1,0c-0.1,0-0.2-0.1-0.2-0.1C19.3,7,19,6.7,18.8,6.7l0.1,0.1c-0.1,0-0.1,0.1-0.1,0.1
				c0,0.1,0,0.1,0,0.1l0,0h0.1c0,0-0.1,0-0.1,0.1c0.1,0.1,0.1,0.1,0.1,0.1c-0.1,0-0.1,0-0.2,0l0.1,0.1c-0.1,0-0.1-0.1-0.1-0.1
				c0.1,0.1,0.1,0.1,0.6,0.3v0.1c-0.1,0-0.1,0-0.2,0H19c0-0.1,0-0.2-0.8-0.5c0,0.1,0.1,0.1,0.1,0.2c0.1,0.1,0.2,0.1,0.3,0.1
				c-0.4-0.1-0.4-0.1-0.7-0.1c0.1,0,0.1,0.1,0.2,0.1c-0.2,0.1-0.5,0-0.6,0.2h-0.1l0,0c-0.1,0-0.1,0-0.2,0c0,0.1,0.1,0.1,0.1,0.1
				c0,0.1-0.1,0.1-0.2,0.1v0.1c-0.1,0-0.1,0-0.2,0l0.1,0.1c-0.1,0-0.2-0.1-0.4-0.1c0.1,0,0.3,0.1,0.5,0c-0.1-0.2-1.1-0.2-1.1-0.2
				c0-0.1,0-0.1,0-0.1c-0.1,0-0.1,0-0.6,0.1c0,0,0,0.1-0.1,0.1c-0.1-0.1-0.1-0.1-0.2,0h0.1C15.2,7.8,14.8,8,14.8,8l-0.6,0.2
				c0,0-0.1,0.4,0.1,0.3c0.1,0,0.1-0.1,0.2-0.1c0.1,0.1,0.1,0.1,0.2,0.3c-0.1,0-0.1,0.1-0.2,0.1c0,0,0,0.1,0.1,0.1l-0.1,0.1
				c0.1,0,0.1,0,0.2-0.1c0.1,0,0.1,0.1,0.1,0.1c0.1-0.1,0.2-0.1,0.2-0.2c0-0.1,0-0.1,0-0.2c0.1,0,0.1-0.1,0.2-0.1
				c0-0.1-0.1-0.1-0.1-0.1V8.2c0.1-0.1,0.4-0.3,0.6-0.3C15.9,8,15.9,8,15.7,8c0,0,0,0,0,0.2c0.2,0.1,0.5-0.1,0.7,0
				c-0.1,0.1-0.3,0.1-0.5,0.1v0.1l-0.1-0.1c-0.1,0-0.1,0-0.1,0v0.1c0.1,0,0.1,0,0.2,0l0.1,0.1c0,0-0.1,0-0.1,0.1L16,8.5
				c-0.1,0-0.1,0-0.1,0c0,0.1-0.1,0.1-0.1,0.2c-0.1,0.1-0.1,0.1-0.8,0.2l0,0l0,0l0,0l0,0l0,0l0,0l0,0l0,0L15,8.8c-0.2,0-0.2,0-0.4,0
				c0,0,0.1,0,0.1-0.1l0,0l0.1-0.1V8.5c-0.2,0-0.2,0-0.2,0.1c0,0.1,0,0.1,0,0.2v0.1c-0.1,0.1-0.1,0.1-0.4,0.1V9L14,9
				c-0.1,0.1-0.1,0.2-0.4,0.2c-0.2,0.1-0.2,0.1-0.4,0.2c0-0.1,0-0.1,0-0.1l0,0l0,0l0,0l0,0l0,0l0,0l0,0v0.1c-0.1,0.1-0.2,0-0.3,0
				v0.1c0.6,0.2,0.1,0.7,0.1,0.7l-0.7-0.1c-0.1,0.1-0.1,0.1-0.2,0.1c0,0.2-0.1,0.4-0.2,0.7l0.1,0.1c0,0.1-0.1,0.1-0.1,0.1
				c0.1,0.1,0.1,0.1,0.2,0.1c0,0.1,0.1,0.1,0.1,0.2c-0.8,1.1-0.9,1.1-0.9,1.2c-0.9,0.6-1.1,1.3-1.1,1.4l0,0c0.1,0.1,0,0.9-0.2,1.1
				c0,0,0.5,0.9,0.6,1.5c0.3,0.1,0.3,0.6,0.8,0.7c0.4,0.1,0.6,0,1.9-0.3c0.1,0.1,0.1,0.1,0.3,0.4c0.6,0,0.6,0,0.7,0.1
				c0.1,0.1-0.1,0.8-0.1,0.8s0,0,0.8,1.6L15,19.8c0.2,0.7-0.2,1.5,0.2,2.1l0.1,0.1c0.1,0.6,0.6,0.9,0.6,1.6c1.1,0.2,2.1-0.6,2.1-1.1
				c0.6-0.5,0.6-0.5,0.4-0.8c0.2-0.3,0.8-0.3,1-0.8c0.2-0.4-0.1-0.8-0.1-1.2l0.1-0.1h-0.1c0.1-0.2,0.2-0.9,0.2-0.9s1.6-1.2,1.7-2.9
				c-0.4-0.1-0.7,0.3-1.1,0.2C20,15.8,20,15.8,20,15.7l0.1-0.1c-0.1-0.2-0.2-0.4-0.6-0.6c0-0.1,0-0.1,0-0.1h-0.1
				c-0.3-0.9-0.9-1.7-1.3-2.6c0.1,0.2,0.1,0.2,0.2,0.2h0.1c0,0,1.1,0.8,1.7,2.8c0.8,0.1,0.9-0.9,1.6-0.9c0-0.1,0.1-0.1,0.1-0.2
				c0.1-0.1,0.1-0.1,0.1-0.2c0,0,0.1,0,0.1-0.1c0-0.1,0-0.1,0-0.2H22c0,0,0-0.1,0.1-0.1c0,0,0-0.1-0.1-0.1c0.1-0.1,0.1-0.1,0.1-0.2
				c-0.5-0.3-0.5-0.3-0.6-0.7c-0.1,0.3-0.2,0.4-0.5,0.5c-0.1-0.1-0.1-0.2-0.1-0.3h-0.1V13c-0.1-0.2-0.3-0.5-0.5-0.7
				c0.2-0.5,0.8,0.8,1.1,0.3h0.1c0.1,0.4,0.9,0.2,1,0.2c0.3-0.1,0.4,0.2,0.7,0.4L23,13.3c0.1,0.2,0.2,0.2,0.3,0.2l0.1-0.1v-0.1
				c0.5,0.8,0.6,1.8,0.9,2.6c0.2-0.2,0.2-0.5,0.1-1.6c0.1-0.1,0.1-0.2,0.1-0.2l0.1-1.1h0.1c0-0.1,0.1-0.1,0.1-0.2
				c0.4,0.6,0.4,0.9,0.5,1.2c0.1,0,0.1-0.1,0.1-0.1c0.1,0.2,0.1,0.2,0.3,2.9c0.1-0.8-0.1-2-0.1-2.2c0.1,0.5,0.1,0.5,0.2,0.8
				c0-0.2,0-0.2-0.1-1.1v-0.1c-0.1-0.4-0.2-0.8-0.2-1.2c0,0.1,0.1,0.1,0.1,0.2l0,0l0,0l0,0l0,0l0,0l0,0l0,0l0,0
				c0.1,0.1,0.1,0.1,0.1,0.3c0-0.1-0.1-0.2-0.1-0.4l0,0V13l0,0V13l0,0C25,11.9,24.1,9.2,20.9,7.4 M19.7,6.8L19.7,6.8L19.7,6.8
				L19.7,6.8L19.7,6.8"/>
			<path class="st1" d="M19.4,6.5C19.4,6.5,19.4,6.5,19.4,6.5C19.4,6.5,19.3,6.5,19.4,6.5C19.3,6.5,19.4,6.5,19.4,6.5"/>
			<path class="st1" d="M9.2,9.1L9.2,9.1L9.2,9.1L9.2,9.1L9.2,9.1 M10,8.1L10,8.1L10,8.1L10,8.1C9.9,8.1,9.9,8.1,10,8.1
				C9.9,8.1,9.9,8.1,10,8.1C9.9,8.1,10,8.1,10,8.1 M9,22.8L9,22.8C9,22.9,9,22.9,9,22.8L9,22.8C9,22.9,9,22.9,9,22.8L9,22.8L9,22.8
				L9,22.8L9,22.8L9,22.8L9,22.8C9,22.9,9,22.9,9,22.8C9,22.9,9,22.9,9,22.8C9,22.9,9,22.8,9,22.8L9,22.8L9,22.8L9,22.8 M9,22.9
				c0,0,0.1,0.1,0.1,0.1C9.2,23,9.2,23,9,22.9C9,23,9.1,23,9.1,23C9.2,23,9.2,23,9,22.9L9,22.9C9,22.8,9,22.8,9,22.9 M8.9,22.7
				c0,0.1,0.1,0.1,0.1,0.1c0,0,0,0,0,0.1l0,0l0,0C9,22.7,8.9,22.7,8.9,22.7L8.9,22.7L8.9,22.7L8.9,22.7L8.9,22.7 M8.3,21.7L8.3,21.7
				L8.3,21.7L8.3,21.7L8.3,21.7L8.3,21.7L8.3,21.7 M8.3,21.3C8.3,21.3,8.3,21.3,8.3,21.3L8.3,21.3C8.2,21.3,8.2,21.3,8.3,21.3
				C8.2,21.3,8.2,21.3,8.3,21.3C8.2,21.3,8.2,21.3,8.3,21.3C8.2,21.3,8.2,21.3,8.3,21.3C8.2,21.3,8.2,21.3,8.3,21.3
				C8.3,21.3,8.3,21.3,8.3,21.3C8.3,21.3,8.3,21.3,8.3,21.3C8.3,21.3,8.3,21.3,8.3,21.3C8.3,21.3,8.3,21.3,8.3,21.3
				C8.3,21.3,8.3,21.3,8.3,21.3C8.2,21.3,8.2,21.3,8.3,21.3L8.3,21.3L8.3,21.3C8.2,21.3,8.2,21.3,8.3,21.3
				C8.2,21.3,8.3,21.3,8.3,21.3L8.3,21.3 M6.2,16c0,0.1,0,0.1,0,0.1C6.2,16,6.2,16,6.2,16L6.2,16 M8.9,9L8.9,9
				C8.9,9.1,8.9,9.1,8.9,9L8.9,9C8.9,9,8.9,8.9,8.9,9C8.9,9,8.9,9,8.9,9 M9.3,8.6L9.3,8.6L9.3,8.6L9.3,8.6L9.3,8.6
				C9.4,8.6,9.4,8.6,9.3,8.6C9.4,8.6,9.4,8.6,9.3,8.6C9.4,8.6,9.4,8.6,9.3,8.6C9.4,8.6,9.4,8.6,9.3,8.6C9.4,8.6,9.4,8.6,9.3,8.6
				 M9.4,8.6C9.3,8.6,9.3,8.6,9.4,8.6C9.3,8.7,9.3,8.7,9.2,8.7C9.2,8.7,9.2,8.7,9.4,8.6L9.4,8.6C9.3,8.6,9.4,8.6,9.4,8.6L9.4,8.6
				 M9.5,8.6L9.5,8.6C9.5,8.6,9.5,8.6,9.5,8.6C9.5,8.6,9.5,8.6,9.5,8.6c0.1-0.1,0.1-0.1,0.1-0.2C9.5,8.6,9.5,8.6,9.5,8.6L9.5,8.6
				 M9.5,8.5C9.5,8.5,9.5,8.4,9.5,8.5L9.5,8.5L9.5,8.5L9.5,8.5L9.5,8.5L9.5,8.5L9.5,8.5L9.5,8.5L9.5,8.5L9.5,8.5L9.5,8.5L9.5,8.5
				L9.5,8.5L9.5,8.5L9.5,8.5L9.5,8.5L9.5,8.5C9.5,8.5,9.5,8.5,9.5,8.5L9.5,8.5 M9.7,8.4C9.6,8.4,9.6,8.4,9.7,8.4
				C9.6,8.5,9.6,8.5,9.7,8.4C9.6,8.4,9.6,8.4,9.7,8.4C9.6,8.4,9.6,8.4,9.7,8.4C9.7,8.4,9.7,8.3,9.7,8.4C9.7,8.3,9.7,8.3,9.7,8.4
				C9.7,8.3,9.7,8.3,9.7,8.4C9.7,8.3,9.7,8.3,9.7,8.4L9.7,8.4L9.7,8.4L9.7,8.4 M9.9,8.1C9.9,8.2,9.9,8.2,9.9,8.1
				C9.9,8.2,9.9,8.2,9.9,8.1L9.9,8.1C10,8.1,9.9,8.1,9.9,8.1 M11.2,7.2L11.2,7.2L11.2,7.2L11.2,7.2L11.2,7.2
				C11.3,7.2,11.2,7.2,11.2,7.2 M11.7,7L11.7,7L11.7,7L11.7,7 M11.7,7L11.7,7L11.7,7L11.7,7 M12.1,6.9C12.1,6.9,12,6.9,12.1,6.9
				C12,6.9,12,6.9,12.1,6.9L12.1,6.9L12.1,6.9L12.1,6.9L12.1,6.9L12.1,6.9L12.1,6.9L12.1,6.9 M12.2,6.8C12.2,6.8,12.1,6.8,12.2,6.8
				C12.1,6.9,12,6.9,12,7H12C12,6.9,12.1,6.8,12.2,6.8L12.2,6.8 M11.4,7.3C11.5,7.3,11.5,7.3,11.4,7.3C11.5,7.3,11.5,7.3,11.4,7.3
				C11.5,7.3,11.5,7.3,11.4,7.3C11.5,7.2,11.5,7.2,11.4,7.3L11.4,7.3c0.1-0.1,0.1-0.1,0.1-0.1l0,0c0.1-0.1,0.1-0.1,0.2-0.1l0,0l0,0
				l0,0l0,0l0,0l0,0l0,0l0,0c0.1-0.1,0.1-0.1,0.2-0.1c0,0,0,0-0.1,0c0.1-0.1,0.2-0.1,0.2-0.1c0,0,0,0-0.1,0c0,0,0,0,0.1,0
				c0,0,0,0-0.1,0c0,0,0.1,0,0.1-0.1c0,0-0.4,0.2-0.5,0.2c0,0,0,0,0.1,0c0,0,0,0-0.2,0.1l0,0c0,0-0.1,0-0.1,0.1h0.1
				c-0.1,0-0.1,0.1-0.1,0.1l0,0l0,0C11.5,7,11.6,7,11.7,7c0,0,0,0-0.1,0.1c0.2-0.1,0.5-0.2,0.7-0.2c0,0-0.3,0.1-1.2,0.6l0,0
				c0.1,0,0.1-0.1,0.1-0.1c-0.2,0-0.2,0.1-0.4,0.1c0,0,0.1,0,0.1-0.1c-0.1,0.1-0.1,0.1-0.1,0.1s0,0,0.1-0.1l0,0c0,0,0.2-0.1,0.2-0.1
				l0,0c0,0,0.1,0,0.1-0.1c0,0-0.1,0-0.1,0.1l0,0l0,0c0.2-0.1,0.3-0.1,0.4-0.2l0,0c0,0,0,0,0.1-0.1c-0.1,0-0.1,0-0.1,0.1
				c0.1,0,0.1,0,0.1-0.1l0,0l0,0c-0.1,0-0.1,0.1-0.1,0.1l0,0l0,0l0,0c0,0,0,0-0.1,0c0,0,0,0,0.1,0c-0.2,0.2-0.4,0.2-0.4,0.2l0,0
				C11,7.3,11,7.3,10.9,7.4l0,0l0,0c0,0-0.1,0-0.1,0.1l0,0l0,0l0,0l0,0l0,0l0,0l0,0l0,0l0,0l0,0c0,0,0,0-0.1,0.1l0,0l0,0l-0.1,0.1
				l0,0c0.1-0.1,0.1-0.1,0.2-0.1c-0.1,0.1-0.1,0.1-0.1,0.1s0,0,0.1-0.1c0,0,0,0-0.1,0c0.1,0,0.1-0.1,0.2-0.1c0-0.1,0.2-0.1,0.2-0.1
				c0,0.1-0.1,0.1-0.1,0.1l0,0l0,0C11.3,7.4,11.4,7.4,11.4,7.3 M9.2,9.3C9.3,9.2,9.3,9.2,9.2,9.3C9.3,9.2,9.3,9.2,9.2,9.3
				c0.1-0.1,0.1-0.1,0.1-0.1c0,0,0,0-0.1,0c0-0.1,0.1-0.1,0.1-0.1l0,0l0,0C9.4,9,9.4,9,9.5,9L9.4,9l0,0l0,0C9.4,9,9.5,9,9.5,9l0,0
				c0.1-0.1,0.1-0.1,0.2-0.2l0,0l0,0l0,0c0.1,0,0.2-0.2,0.2-0.2l0,0C10,8.4,10,8.4,10,8.4C10,8.4,10,8.3,10,8.3l0,0c0,0,0,0,0.1-0.1
				l0,0c0,0,0,0,0.1-0.1c0,0,0,0,0.6-0.5c-0.2,0.2-0.2,0.2-0.3,0.2c0.1-0.1,0.2-0.2,0.3-0.2c0-0.1,0.1-0.1,0.1-0.1l0,0
				c-0.2,0.1-0.5,0.3-0.8,0.5l0,0c0,0-0.1,0-0.1,0.1c0,0,0,0,0.1-0.1C9.7,8.3,9.7,8.3,9,9c-0.2,0.3-0.6,0.8-0.9,1.1l0,0
				C8.2,10,8.2,9.9,8.4,9.8c0,0,0,0,0,0.1c0.1-0.1,0.1-0.1,0.3-0.3l0,0c0.1,0,0.1-0.1,0.1-0.1l0,0C8.6,9.7,8.6,9.7,8.6,9.7
				c0.1-0.1,0.2-0.1,0.3-0.2C8.9,9.5,8.9,9.5,9.2,9.3c-0.1,0-0.1,0-0.2,0.1l0,0l0,0c0-0.2,0.3-0.2,0.4-0.5l0,0c-0.1,0-0.1,0-0.1,0.1
				c0.2-0.2,0.3-0.2,0.3-0.1c0.1,0,0.1-0.1,0.2-0.1l0,0C9.7,8.9,9.5,9,9.4,9.1l0,0c-0.1,0-0.1,0-0.1,0.1c0.1,0,0.1,0.1,0.1,0.1
				S9.3,9.2,9.2,9.3C9,9.3,9,9.3,9.2,9.3c0,0-0.1,0-0.1,0.1l0,0l0,0C9.2,9.3,9.2,9.3,9.2,9.3 M8.2,19.3c-0.1-0.4-0.1-0.4-0.9-1.1
				c0,0,0,0-0.1,0C7,17.9,7,17.9,6.9,17.8c0,0,0,0-0.1,0.1c0-0.1,0-0.1-0.7-2.1v-0.5c0,0,0,0,0-0.1l-0.1,0.1c-0.1-0.1,0-0.2,0-0.5
				l0,0l0,0V15l0,0C6,15.3,6,15.7,6,16c0.1,1.1,0.2,4.8,3.6,7.6l0,0C9.4,23.4,9.2,23.2,9,23c0.1,0.1,0.1,0.1,0.1,0.1
				c0-0.1,0-0.1-0.1-0.2c0,0-0.7-0.8-0.7-1.1c0,0,0,0,0.1,0v-0.1c0,0,0.1,0,0.1,0c0.1-0.6-0.4-1-0.5-1.6c0,0,0,0,0,0.1L8.2,19.3"/>
			<path class="st1" d="M9.9,10.8L9.9,10.8L9.9,10.8L9.9,10.8L9.9,10.8C9.9,10.9,9.9,10.8,9.9,10.8C9.9,10.8,9.9,10.8,9.9,10.8
				C9.9,10.8,9.9,10.8,9.9,10.8C9.9,10.8,9.9,10.8,9.9,10.8C9.9,10.8,9.9,10.8,9.9,10.8L9.9,10.8"/>
			<g>
				<path class="st1" d="M25.5,18.5C25.5,18.5,25.5,18.5,25.5,18.5L25.5,18.5"/>
				<path class="st1" d="M25.7,17.8c0,0.1,0,0.1-0.1,0.2l-0.1,0.2l0,0v0.1c0.1-0.3,0.2-1.4,0.1-1.4c0-0.2-0.1-0.4-0.1-0.7
					c0,0.1,0.1,0.1,0.1,0.1c0,0.2,0.1,0.4,0.1,0.6c0,0,0,0,0-0.1c0,0.1,0,0.1,0,0.1V17l0,0c0,0,0,0.1,0,0.1c0,0,0,0,0-0.1
					c0,0.1-0.1,0.6-0.1,0.6s0,0,0-0.1c0,0,0,0.1,0,0.1V17.8"/>
			</g>
			<path class="st1" d="M25.7,17.3L25.7,17.3L25.7,17.3L25.7,17.3c0,0.1,0,0.1-0.1,0.1C25.7,17.5,25.7,17.3,25.7,17.3L25.7,17.3
				L25.7,17.3L25.7,17.3"/>
			<path class="st1" d="M25.5,18L25.5,18c0-0.2,0-0.2,0-0.2C25.5,17.8,25.5,17.9,25.5,18"/>
			<path class="st1" d="M18.1,25.5h0.1l0,0h0.1C18.2,25.5,18.2,25.5,18.1,25.5L18.1,25.5c-0.5,0.1-0.5,0.1-0.5,0.1l0,0
				c0,0,0,0-0.1,0c0.1,0,0.1,0,0.1,0c-0.1,0-0.2,0-0.2,0l0,0c0,0,0,0-0.1,0h0.1L17,25.7l-0.6,0.1c0,0-0.8,0.1-1.2,0l0,0l0,0l0,0l0,0
				l0,0l0,0l0,0l0,0c0,0,0,0,0.1,0c-0.1,0-0.2,0-0.2,0c0.1,0,0.1,0,0.3,0c0.1,0,0.1,0,0.2,0c0.1,0,0.1,0,0.2,0c0.1,0,0.1,0,0.2,0
				c0.1,0,0.1,0,0.1,0c0.1,0,0.1,0,0.1,0c0.1,0,0.1,0,0.1,0c0.1,0,0.1,0,0.2,0c0.1,0,0.1,0,0.2,0c0.2,0,0.2,0,0.2,0
				c0.2,0,0.2,0,0.4-0.1C17.9,25.6,17.9,25.6,18.1,25.5"/>
			<path class="st1" d="M16.1,6.8c-0.1,0.1-0.2,0-0.3,0C15.9,6.9,16,6.9,16.1,6.8c-0.1,0.1-0.2,0.1-0.3,0.1l0,0c0,0,0,0-0.1,0l0,0
				c-0.1,0-0.1,0.1-0.1,0.1C15.5,7,15.5,7,15.5,7h-0.1l0,0l0,0h-0.1l0,0c0,0,0,0,0.1,0l0,0l0,0c0,0,0,0,0-0.1c0.2,0,0.2,0,0.2,0l0,0
				l0,0c0,0,0.1,0,0.1,0c0-0.1,0.1,0,0.2,0l0,0C16,6.8,16,6.8,16.1,6.8L16.1,6.8"/>
			<path class="st1" d="M12.4,6.6L12.4,6.6c0,0,0.1,0,0.1-0.1l0,0l0,0l0,0l0.1-0.1l0,0c-0.1,0-0.1,0.1-0.1,0.1l0,0l0,0l0,0
				C12.4,6.6,12.4,6.6,12.4,6.6"/>
			<path class="st1" d="M18,6.9C18,6.9,18,6.9,18,6.9C17.9,7,17.9,7,17.9,7v0.1c0,0,0,0,0,0.1s0,0.1,0,0.1c0.1,0.1,0.2,0.1,0.2,0.1
				c-0.1,0-0.1,0-0.2,0s-0.1,0-0.1-0.1c0,0-0.1,0-0.2-0.1l0,0c0,0,0,0,0.1,0c0,0,0,0-0.1,0c0-0.1,0-0.1,0.1-0.1h-0.1
				c0,0,0.1,0,0.1-0.1c0,0-0.1,0-0.1-0.1l0,0c0,0,0.1,0,0-0.1C17.8,7,17.9,6.9,18,6.9C18,6.9,18,6.9,18,6.9L18,6.9"/>
			<path class="st1" d="M12.2,6.8L12.2,6.8l0.1-0.1l0,0C12.3,6.8,12.3,6.8,12.2,6.8"/>
			<path class="st1" d="M13.3,7.8c-0.2,0.1-0.5,0.1-0.7,0.1c0,0,0,0,0.1,0h0.1c0.1-0.1,0-0.1,0-0.1c-0.1,0-0.1,0,0,0h0.1l0,0l0,0
				c0,0-0.1,0-0.1,0c0.2-0.1,0.2-0.1,0.2-0.1c0,0,0,0-0.1,0.1H13C13,7.7,13,7.7,13,7.8C13.2,7.8,13.2,7.8,13.3,7.8L13.3,7.8
				C13.2,7.8,13.2,7.8,13.3,7.8C13.3,7.8,13.3,7.8,13.3,7.8c-0.1,0.1-0.1,0.1,0,0.1C13.3,7.8,13.3,7.8,13.3,7.8"/>
			<path class="st1" d="M13.9,9.1c0,0,0,0.1-0.1,0.1C13.8,9.2,13.8,9.2,13.9,9.1c-0.2,0.2-0.6,0.1-0.6,0.1l0,0c0,0,0,0-0.1,0
				c0,0,0,0.1-0.1,0.1c0,0-0.1-0.1-0.1,0c0,0,0,0-0.1,0c0.2-0.1,0.2-0.1,0.2-0.1c0-0.1-0.1-0.1-0.1-0.1s0,0,0-0.1l0,0
				c0.1-0.1,0.2,0,0.1-0.1h-0.1c0.1-0.1,0.1-0.1,0.1-0.1h0.1c0,0,0-0.1,0.1-0.1c-0.1,0-0.1-0.1,0-0.1l0,0c-0.1,0-0.1,0-0.2,0.1l0,0
				c0-0.1,0.1-0.1,0.1-0.1c0,0,0,0-0.1,0.1l0,0l0.1-0.1l-0.1,0.1l0,0c0-0.1,0.1-0.1,0.1-0.1l0,0l0,0l0,0l0,0l0,0l0,0l0,0l0,0
				c-0.1,0,0-0.1,0-0.1s0,0,0.1,0c0-0.1,0-0.1-0.1-0.1c0,0,0.1,0,0.1-0.1c0,0,0,0,0,0.1c0.1-0.1,0.1-0.1,0.1-0.1c0,0,0,0,0.2,0l0,0
				l0,0c0,0,0,0,0.1,0c-0.1,0.1-0.1,0.1-0.1,0.1c0.1,0.1,0.1,0,0.2,0c-0.1,0.1-0.1,0.1-0.2,0.1c0.1,0.1,0.1,0.1,0.1,0.1
				c0.1,0,0.1,0.1,0.1,0.2C13.9,8.9,13.9,9,13.9,9.1C13.9,9,13.9,9,13.9,9.1"/>
			<path class="st1" d="M19.5,19.1L19.5,19.1C19.5,19.2,19.5,19.2,19.5,19.1C19.5,19.2,19.5,19.2,19.5,19.1
				C19.5,19.1,19.5,19.1,19.5,19.1C19.5,19.1,19.5,19.1,19.5,19.1C19.5,19,19.5,19,19.5,19.1"/>
			<path class="st1" d="M19.5,19.3C19.4,19.3,19.4,19.3,19.5,19.3C19.4,19.2,19.4,19.2,19.5,19.3c-0.1-0.1-0.1-0.1-0.1-0.1
				c0,0,0,0,0-0.1c0,0,0,0,0.1,0C19.5,19.3,19.5,19.3,19.5,19.3L19.5,19.3"/>
			<path class="st1" d="M11.5,7.2L11.5,7.2L11.5,7.2L11.5,7.2L11.5,7.2L11.5,7.2L11.5,7.2L11.5,7.2"/>
			<polyline class="st1" points="15.9,6.1 15.9,6.1 15.9,6.1 15.9,6.1 15.9,6.1 15.9,6.1 15.9,6.1 15.9,6.1 15.9,6.1 15.9,6.1 
				15.9,6.1 15.9,6.1 15.9,6.1 15.9,6.1 			"/>
		</g>
	</g>
</g>
</svg>
