<?xml version="1.0" encoding="utf-8"?>
<!-- Generator: Adobe Illustrator 19.0.0, SVG Export Plug-In . SVG Version: 6.00 Build 0)  -->
<svg version="1.1" id="Layer_1" xmlns="http://www.w3.org/2000/svg" xmlns:xlink="http://www.w3.org/1999/xlink" x="0px" y="0px"
	 width="20px" height="20px" viewBox="6 5.9 20 20" style="enable-background:new 6 5.9 20 20;" xml:space="preserve">
<style type="text/css">
	.st0{fill:#0064D2;}
	.st1{fill:#FFFFFF;}
</style>
<g>
	<g>
		<path class="st0" d="M9.1,22.8c-0.8-0.9-1.3-1.6-1.6-2.1c-0.1-0.2-0.3-0.7-0.4-1c-0.1-0.2-0.2-0.4-0.2-0.8s-0.2-0.8-0.2-1
			c-0.1-0.4-0.3-1.6-0.2-2.9c0.1-0.4,0.1-1.6,0.8-3C8.6,8.4,12.1,6,16.1,6c1.9,0,3.3,0.6,3.8,0.8c1.6,0.7,2.6,1.7,3.1,2.1
			c-1.6-1.6-4.1-2.2-7-1.6c2.9-0.8,5.4-0.1,7,1.6c0.2,0.3,0.7,0.8,0.9,1.1s0.6,0.9,0.8,1.2c0.2,0.3,0.7,1.2,0.9,2.8
			c0.6,2.9-0.4,5.2-0.6,5.6c-0.2,0.4-0.4,0.9-0.7,1.3c-0.4,0.8-0.8,1.1-1,1.4c-0.9,1.1-1.9,1.7-2.2,1.9c-0.8,0.4-2.8,1.6-5.6,1.5
			C12.1,25.6,9.9,23.7,9.1,22.8"/>
		<path class="st0" d="M16,25.9c-0.1,0-0.3,0-0.4,0C12,25.8,9.7,23.8,8.9,23c-0.9-0.9-1.3-1.7-1.6-2.1c-0.1-0.2-0.4-0.7-0.4-1
			c0-0.1-0.1-0.1-0.1-0.2c-0.1-0.2-0.1-0.3-0.2-0.6c-0.1-0.4-0.2-0.8-0.2-1.1c-0.1-0.4-0.3-1.6-0.2-2.9c0-0.4,0.1-1.7,0.7-3
			C8.4,8.3,12,6,16,6h0.1c2,0,3.4,0.6,3.9,0.8c1.6,0.7,2.6,1.6,2.9,1.9l0,0c0.1,0.1,0.1,0.1,0.2,0.2l0,0l0,0l0,0l0,0l0,0l0,0l0,0
			l0,0l0,0l0,0l0,0c0.3,0.3,0.7,0.7,0.9,1.1c0.2,0.3,0.6,0.9,0.8,1.2c0.2,0.3,0.7,1.3,1,2.8c0.6,2.9-0.4,5.2-0.6,5.8
			c-0.1,0.3-0.4,0.9-0.7,1.3c-0.4,0.8-0.8,1.1-1,1.4c-0.9,1.1-1.9,1.8-2.2,1.9C20.6,24.9,18.6,25.9,16,25.9z M16,6.3
			c-3.9,0-7.4,2.3-8.9,5.9c-0.6,1.3-0.7,2.5-0.8,2.9c-0.1,1.2,0.1,2.4,0.2,2.8c0.1,0.2,0.1,0.6,0.2,1c0.1,0.1,0.1,0.3,0.2,0.4
			c0,0.1,0.1,0.1,0.1,0.2c0.1,0.3,0.3,0.8,0.4,1c0.2,0.4,0.8,1.2,1.6,2.1c0.8,0.8,3,2.7,6.4,2.9c0.1,0,0.2,0,0.4,0
			c2.6,0,4.4-1,5.1-1.5c0.3-0.2,1.3-0.9,2.2-1.9c0.2-0.2,0.6-0.7,1-1.3c0.2-0.4,0.6-1,0.7-1.3c0.2-0.4,1.1-2.8,0.6-5.6
			c-0.2-1.5-0.8-2.4-0.9-2.8c-0.2-0.4-0.4-0.9-0.8-1.2c-0.2-0.3-0.6-0.8-0.9-1.1c-0.1-0.1-0.1-0.1-0.2-0.2c-0.8-0.8-1.8-1.2-2.9-1.5
			c-1.1-0.1-2.2-0.1-3.6,0.2c0,0,0,0-0.1,0l-0.1-0.3l0,0l0,0c0.8-0.2,1.6-0.2,2.2-0.2l0,0l0,0l0,0c0.8,0,1.5,0.1,2.1,0.2
			c-0.2-0.1-0.3-0.2-0.6-0.2C19.4,6.9,18,6.3,16,6.3L16,6.3z"/>
	</g>
	<g>
		<path class="st1" d="M10.5,14.6C10.5,14.6,10.4,14.7,10.5,14.6C10.4,14.7,10.3,14.7,10.5,14.6c-0.1,0.1-0.1,0.1-0.2,0.1h-0.1
			c0,0,0,0,0-0.1s0-0.1,0-0.1C10.2,14.6,10.3,14.7,10.5,14.6L10.5,14.6"/>
		<path class="st1" d="M9.6,14.2C9.6,14.2,9.6,14.2,9.6,14.2c-0.1,0.1-0.1,0-0.1,0c-0.1-0.1-0.1-0.1-0.1-0.1c0,0,0,0,0.1-0.1
			C9.5,14.2,9.6,14.2,9.6,14.2L9.6,14.2"/>
		<path class="st1" d="M14.8,9.2c-0.1,0.1-0.1,0.1-0.2,0l0,0l0,0c0-0.1-0.1,0-0.1-0.1c0.1,0,0.1-0.1,0.2,0l0,0l0,0l0,0l0,0h-0.1l0,0
			l0,0c0,0,0,0-0.1,0c0,0,0,0,0.1,0C14.7,9.2,14.7,9.1,14.8,9.2C14.7,9.1,14.7,9.2,14.8,9.2L14.8,9.2L14.8,9.2"/>
		<path class="st1" d="M14.9,9.2L14.9,9.2C14.8,9.2,14.8,9.2,14.9,9.2C14.8,9.1,14.8,9.1,14.9,9.2C14.8,9.1,14.8,9.1,14.9,9.2
			C14.9,9.1,14.9,9.1,14.9,9.2"/>
		<path class="st1" d="M14.9,9.2C14.8,9.2,14.8,9.2,14.9,9.2C14.8,9.2,14.9,9.2,14.9,9.2C14.9,9.2,14.9,9.2,14.9,9.2L14.9,9.2"/>
		<path class="st1" d="M15.9,9.3L15.9,9.3L15.9,9.3L15.9,9.3L15.9,9.3"/>
		<path class="st1" d="M15.5,9.3L15.5,9.3C15.5,9.3,15.4,9.3,15.5,9.3C15.4,9.3,15.4,9.3,15.5,9.3L15.5,9.3L15.5,9.3"/>
		<path class="st1" d="M13.9,8.8C13.8,8.9,13.8,8.9,13.9,8.8C13.8,8.8,13.8,8.8,13.9,8.8C13.8,8.8,13.8,8.8,13.9,8.8
			C13.8,8.8,13.8,8.8,13.9,8.8L13.9,8.8"/>
		<path class="st1" d="M14.5,9.2L14.5,9.2C14.4,9.2,14.4,9.2,14.5,9.2C14.4,9.1,14.4,9.1,14.5,9.2C14.5,9.1,14.5,9.2,14.5,9.2
			L14.5,9.2"/>
		<path class="st1" d="M14.9,6.5L14.9,6.5L14.9,6.5L14.9,6.5C14.9,6.5,14.9,6.5,14.9,6.5C14.9,6.5,14.9,6.5,14.9,6.5"/>
		<path class="st1" d="M15.4,9.3C15.4,9.4,15.4,9.4,15.4,9.3C15.4,9.3,15.4,9.3,15.4,9.3C15.4,9.3,15.4,9.3,15.4,9.3
			C15.4,9.3,15.4,9.3,15.4,9.3L15.4,9.3"/>
		<path class="st1" d="M14.9,6.4c0,0,0.1,0,0.1,0s0.1,0,0.1,0l0,0l0,0l0,0c0,0,0,0-0.1,0h0.1c0,0,0,0-0.1,0
			C15.1,6.4,15.1,6.4,14.9,6.4C15,6.4,15,6.4,14.9,6.4L14.9,6.4"/>
		<path class="st1" d="M16.6,9.5c-0.1,0-0.1,0-0.1,0s-0.1,0-0.1,0c0-0.1,0-0.1,0-0.1c0.1,0,0.1,0,0.1,0C16.6,9.4,16.6,9.5,16.6,9.5
			L16.6,9.5"/>
		<path class="st1" d="M14.7,6.5c0,0,0.2-0.1,0.2,0c0,0,0,0-0.1,0C14.9,6.5,14.9,6.5,14.7,6.5C14.7,6.5,14.7,6.5,14.7,6.5L14.7,6.5
			L14.7,6.5"/>
		<path class="st1" d="M15,6.4L15,6.4L15,6.4C15.1,6.4,15.1,6.4,15,6.4L15,6.4C15.1,6.4,15.1,6.4,15,6.4C15.1,6.4,15,6.4,15,6.4"/>
		<path class="st1" d="M15.2,6.3C15.1,6.3,15.2,6.3,15.2,6.3C15.2,6.3,15.2,6.3,15.2,6.3L15.2,6.3L15.2,6.3"/>
		<path class="st1" d="M14.6,6.5C14.5,6.5,14.5,6.5,14.6,6.5C14.6,6.5,14.6,6.5,14.6,6.5L14.6,6.5L14.6,6.5L14.6,6.5L14.6,6.5"/>
		<path class="st1" d="M16.3,9.7L16.3,9.7L16.3,9.7L16.3,9.7L16.3,9.7L16.3,9.7L16.3,9.7L16.3,9.7L16.3,9.7L16.3,9.7L16.3,9.7
			L16.3,9.7L16.3,9.7L16.3,9.7L16.3,9.7L16.3,9.7L16.3,9.7L16.3,9.7L16.3,9.7C16.3,9.7,16.4,9.7,16.3,9.7"/>
		<path class="st1" d="M15.6,6.3L15.6,6.3L15.6,6.3C15.7,6.3,15.7,6.3,15.6,6.3L15.6,6.3"/>
		<path class="st1" d="M18.7,9.2c-0.1,0.2-0.3,0.1-0.3,0.1s-0.1-0.1,0-0.1s0.1,0,0.1-0.1c0.1,0,0.1,0,0.1,0
			C18.6,9.2,18.6,9.2,18.7,9.2L18.7,9.2"/>
		<path class="st1" d="M18.9,9.1c0,0.1-0.1,0.1-0.2,0.1c0.1,0,0.1,0,0.1,0C18.8,9.1,18.9,9.1,18.9,9.1L18.9,9.1"/>
		<path class="st1" d="M15.7,9.8L15.7,9.8C15.7,9.8,15.6,9.8,15.7,9.8C15.6,9.8,15.6,9.8,15.7,9.8C15.7,9.8,15.7,9.8,15.7,9.8
			C15.7,9.8,15.7,9.8,15.7,9.8"/>
		<path class="st1" d="M15.2,6.3L15.2,6.3L15.2,6.3C15.3,6.3,15.3,6.3,15.2,6.3L15.2,6.3"/>
		<path class="st1" d="M12.6,8C12.5,8,12.5,8,12.6,8C12.5,8,12.6,8,12.6,8L12.6,8L12.6,8L12.6,8L12.6,8L12.6,8L12.6,8L12.6,8L12.6,8
			L12.6,8L12.6,8L12.6,8L12.6,8L12.6,8L12.6,8L12.6,8L12.6,8L12.6,8L12.6,8L12.6,8L12.6,8"/>
		<path class="st1" d="M18.6,9.4C18.6,9.5,18.5,9.5,18.6,9.4C18.5,9.4,18.5,9.4,18.6,9.4C18.4,9.4,18.5,9.4,18.6,9.4
			C18.5,9.4,18.5,9.4,18.6,9.4C18.5,9.4,18.5,9.5,18.6,9.4L18.6,9.4"/>
		<path class="st1" d="M18.7,9.3L18.7,9.3L18.7,9.3L18.7,9.3C18.6,9.3,18.6,9.3,18.7,9.3L18.7,9.3"/>
		<path class="st1" d="M18.9,9.3C18.9,9.4,18.8,9.4,18.9,9.3c-0.1,0.1-0.1,0.1-0.1,0.1c0-0.1,0-0.1,0-0.1
			C18.7,9.3,18.8,9.3,18.9,9.3L18.9,9.3"/>
		<path class="st1" d="M15.6,10L15.6,10C15.6,10,15.6,10,15.6,10C15.6,10,15.6,10,15.6,10L15.6,10"/>
		<path class="st1" d="M20,8.3C20,8.3,20.1,8.4,20,8.3C20,8.5,19.9,8.4,20,8.3h-0.1C19.9,8.3,19.9,8.3,20,8.3L20,8.3"/>
		<path class="st1" d="M12.1,8.4C12,8.4,12,8.4,12.1,8.4C12,8.4,12,8.4,12.1,8.4C12.1,8.3,12.1,8.4,12.1,8.4L12.1,8.4"/>
		<path class="st1" d="M13.7,6.5L13.7,6.5C13.8,6.5,13.8,6.5,13.7,6.5C13.8,6.5,13.8,6.5,13.7,6.5C13.8,6.5,13.8,6.5,13.7,6.5
			L13.7,6.5"/>
		<path class="st1" d="M13.8,10.2c-0.1,0.1-0.1,0.1-0.1,0v-0.1c0,0,0,0,0-0.1C13.7,10.1,13.7,10.1,13.8,10.2
			C13.8,10.1,13.8,10.1,13.8,10.2C13.9,10.2,13.8,10.2,13.8,10.2"/>
		<path class="st1" d="M15.1,6.2L15.1,6.2L15.1,6.2L15.1,6.2C15.2,6.2,15.2,6.2,15.1,6.2C15.2,6.2,15.2,6.2,15.1,6.2L15.1,6.2"/>
		<path class="st1" d="M13.6,6.5C13.5,6.5,13.5,6.5,13.6,6.5L13.6,6.5l0.1-0.1C13.7,6.5,13.7,6.5,13.6,6.5
			C13.6,6.5,13.6,6.5,13.6,6.5"/>
		<path class="st1" d="M13.4,6.5L13.4,6.5L13.4,6.5L13.4,6.5L13.4,6.5L13.4,6.5C13.4,6.5,13.4,6.5,13.4,6.5"/>
		<path class="st1" d="M13.4,6.5L13.4,6.5L13.4,6.5L13.4,6.5C13.5,6.5,13.5,6.5,13.4,6.5C13.5,6.5,13.4,6.5,13.4,6.5"/>
		<path class="st1" d="M13.5,6.5L13.5,6.5C13.5,6.5,13.5,6.5,13.5,6.5C13.6,6.4,13.6,6.4,13.5,6.5C13.6,6.5,13.5,6.5,13.5,6.5"/>
		<path class="st1" d="M13.8,6.3L13.8,6.3L13.8,6.3l0.1-0.1C13.9,6.3,13.9,6.3,13.8,6.3L13.8,6.3"/>
		<path class="st1" d="M13.6,6.4L13.6,6.4L13.6,6.4C13.7,6.4,13.7,6.4,13.6,6.4L13.6,6.4"/>
		<path class="st1" d="M10.9,9C10.9,9,10.9,9,10.9,9C10.9,9,10.9,9,10.9,9C10.9,9,10.9,9,10.9,9C10.9,9,10.9,9,10.9,9L10.9,9"/>
		<path class="st1" d="M12.6,6.8C12.6,6.8,12.5,6.8,12.6,6.8L12.6,6.8C12.6,6.8,12.6,6.8,12.6,6.8C12.6,6.8,12.6,6.8,12.6,6.8
			C12.6,6.8,12.6,6.8,12.6,6.8L12.6,6.8"/>
		<path class="st1" d="M12.7,6.8L12.7,6.8C12.7,6.8,12.7,6.7,12.7,6.8C12.7,6.7,12.7,6.7,12.7,6.8L12.7,6.8
			C12.7,6.7,12.7,6.7,12.7,6.8L12.7,6.8"/>
		<path class="st1" d="M21.4,8.3C21.4,8.4,21.4,8.4,21.4,8.3C21.4,8.4,21.3,8.4,21.4,8.3C21.3,8.4,21.3,8.4,21.4,8.3L21.4,8.3
			L21.4,8.3"/>
		<path class="st1" d="M10.7,9.4C10.7,9.4,10.7,9.4,10.7,9.4C10.7,9.4,10.7,9.3,10.7,9.4L10.7,9.4L10.7,9.4
			C10.8,9.3,10.8,9.3,10.7,9.4C10.8,9.3,10.8,9.3,10.7,9.4C10.8,9.3,10.8,9.3,10.7,9.4C10.8,9.3,10.8,9.3,10.7,9.4
			C10.8,9.3,10.8,9.3,10.7,9.4C10.8,9.3,10.8,9.3,10.7,9.4C10.8,9.3,10.8,9.3,10.7,9.4C10.8,9.3,10.8,9.3,10.7,9.4
			C10.8,9.3,10.8,9.3,10.7,9.4C10.8,9.3,10.8,9.3,10.7,9.4C10.8,9.3,10.8,9.3,10.7,9.4C10.8,9.3,10.8,9.3,10.7,9.4
			C10.8,9.3,10.8,9.3,10.7,9.4C10.8,9.3,10.8,9.3,10.7,9.4L10.7,9.4"/>
		<path class="st1" d="M20.4,7.3c0.1,0,0.1,0.1,0.1,0.1l0,0C20.5,7.3,20.5,7.3,20.4,7.3L20.4,7.3L20.4,7.3"/>
		<path class="st1" d="M11.5,10.3L11.5,10.3C11.4,10.3,11.4,10.3,11.5,10.3C11.5,10.3,11.5,10.3,11.5,10.3
			C11.5,10.3,11.5,10.3,11.5,10.3"/>
		<path class="st1" d="M21.5,9.5C21.6,9.5,21.6,9.5,21.5,9.5c0,0.1,0,0.1,0.1,0.1c0,0,0,0-0.1,0l0,0C21.5,9.5,21.5,9.5,21.5,9.5
			L21.5,9.5C21.5,9.4,21.5,9.5,21.5,9.5"/>
		<path class="st1" d="M19.8,6.9C19.9,7,19.9,7,20.1,7c0,0,0,0-0.1,0C20,7,19.9,7,19.8,6.9L19.8,6.9"/>
		<path class="st1" d="M10.4,9.3C10.4,9.3,10.4,9.3,10.4,9.3c-0.1,0-0.1,0-0.2,0.1l0,0l0.1-0.1l0,0C10.3,9.3,10.3,9.3,10.4,9.3
			C10.4,9.3,10.4,9.3,10.4,9.3C10.5,9.3,10.5,9.3,10.4,9.3C10.5,9.3,10.4,9.3,10.4,9.3"/>
		<path class="st1" d="M11.1,10.6c-0.1,0-0.1,0.1-0.1,0.1h-0.1C11,10.7,11.1,10.5,11.1,10.6L11.1,10.6L11.1,10.6"/>
		<path class="st1" d="M9.9,9.8C9.9,9.8,9.9,9.8,9.9,9.8C9.8,9.8,9.8,9.8,9.7,10c0-0.1,0-0.1-0.1-0.1s-0.1,0-0.1-0.1
			s0.1-0.1,0.1-0.1h0.1V9.7c0,0,0,0,0.1-0.1l0,0l0,0l0,0l0,0l0,0l0,0l0,0l0,0c0.1-0.1,0.1-0.1,0.1,0c0,0,0,0,0,0.1
			C10,9.7,9.9,9.7,9.9,9.8L9.9,9.8"/>
		<path class="st1" d="M21.2,11L21.2,11L21.2,11C21.1,11.1,21.1,11.1,21.2,11C21.1,11.1,21.1,11,21.2,11C21.1,11,21.1,11,21.2,11"/>
		<path class="st1" d="M9.9,9.8C9.9,9.8,9.9,9.8,9.9,9.8L9.9,9.8L9.9,9.8"/>
		<path class="st1" d="M21.6,8L21.6,8L21.6,8C21.6,8,21.7,8,21.6,8C21.7,8,21.6,8,21.6,8 M21.4,7.8L21.4,7.8L21.4,7.8
			c0.1,0.1,0.1,0.1,0.1,0.1l0.1,0.1c0.1,0,0.1,0.1,0.1,0.1c-0.1-0.1-0.1-0.1-0.2-0.1C21.4,7.8,21.4,7.8,21.4,7.8"/>
		<path class="st1" d="M22.4,9.4C22.4,9.4,22.4,9.5,22.4,9.4C22.4,9.5,22.4,9.4,22.4,9.4L22.4,9.4L22.4,9.4L22.4,9.4L22.4,9.4
			L22.4,9.4L22.4,9.4L22.4,9.4L22.4,9.4L22.4,9.4L22.4,9.4L22.4,9.4L22.4,9.4"/>
		<path class="st1" d="M22.3,8.7c0.1,0.1,0.1,0.1,0.1,0.1c0,0,0,0,0,0.1C22.3,8.8,22.3,8.8,22.3,8.7C22.3,8.8,22.3,8.8,22.3,8.7
			C22.3,8.8,22.3,8.7,22.3,8.7C22.2,8.7,22.2,8.7,22.3,8.7"/>
		<path class="st1" d="M22.4,8.9C22.4,9,22.4,9,22.4,8.9C22.4,9,22.4,9,22.4,8.9C22.4,9,22.4,9,22.4,8.9C22.4,9,22.4,9,22.4,9l0,0
			l0,0C22.4,9,22.4,9,22.4,8.9L22.4,8.9L22.4,8.9"/>
		<path class="st1" d="M22.9,11.3c0,0.1,0,0.1,0.1,0.1v0.1C22.8,11.3,22.8,11.3,22.9,11.3C22.8,11.3,22.8,11.3,22.9,11.3
			C22.8,11.3,22.9,11.3,22.9,11.3"/>
		<path class="st1" d="M22.9,11.5c0,0.1,0,0.1,0.1,0.2c0,0,0,0-0.1-0.1c0-0.1,0-0.1-0.1-0.1C22.9,11.5,22.9,11.5,22.9,11.5
			L22.9,11.5"/>
		<path class="st1" d="M8.7,12.4c0,0.1-0.1,0.1-0.1,0.1c-0.1,0-0.1,0-0.1,0s0,0,0-0.1l0,0C8.6,12.4,8.7,12.4,8.7,12.4L8.7,12.4
			c0-0.1,0-0.1,0-0.2c0,0.1,0.1,0,0.1,0c0-0.1,0-0.1,0.1-0.2C9,12,9,12,9,12c0,0.1-0.1,0.2-0.1,0.2S8.8,12.3,8.7,12.4"/>
		<path class="st1" d="M8.5,12C8.5,12.1,8.5,12,8.5,12C8.5,12,8.5,12,8.5,12C8.5,12,8.5,12,8.5,12C8.5,12,8.5,12,8.5,12L8.5,12"/>
		<path class="st1" d="M8.4,12L8.4,12L8.4,12C8.3,12,8.3,12,8.4,12C8.3,12,8.4,12,8.4,12C8.5,12,8.4,12,8.4,12"/>
		<path class="st1" d="M23.2,13.1C23.2,13.1,23.2,13.2,23.2,13.1L23.2,13.1L23.2,13.1C23.2,13.1,23.2,13,23.2,13.1
			C23.2,13,23.2,13,23.2,13.1"/>
		<path class="st1" d="M8.1,10.3L8.1,10.3C8.1,10.2,8.1,10.2,8.1,10.3C8.1,10.2,8.1,10.2,8.1,10.3C8.1,10.2,8.1,10.2,8.1,10.3"/>
		<path class="st1" d="M22.8,14.1c0,0.1,0,0.1,0,0.1C22.8,14.2,22.8,14.2,22.8,14.1C22.8,14.2,22.8,14.2,22.8,14.1
			C22.7,14.2,22.7,14.2,22.8,14.1C22.8,14.2,22.8,14.1,22.8,14.1L22.8,14.1"/>
		<path class="st1" d="M22.7,14.5C22.7,14.6,22.6,14.6,22.7,14.5L22.7,14.5C22.6,14.5,22.6,14.5,22.7,14.5
			C22.6,14.5,22.7,14.5,22.7,14.5L22.7,14.5"/>
		<path class="st1" d="M7.4,11.5L7.4,11.5L7.4,11.5L7.4,11.5C7.4,11.4,7.4,11.4,7.4,11.5C7.4,11.4,7.4,11.4,7.4,11.5
			C7.4,11.4,7.4,11.4,7.4,11.5C7.4,11.4,7.4,11.4,7.4,11.5C7.4,11.4,7.4,11.4,7.4,11.5C7.4,11.4,7.4,11.4,7.4,11.5
			C7.4,11.4,7.4,11.4,7.4,11.5C7.4,11.4,7.4,11.4,7.4,11.5C7.4,11.4,7.4,11.4,7.4,11.5C7.4,11.4,7.4,11.5,7.4,11.5L7.4,11.5
			L7.4,11.5L7.4,11.5L7.4,11.5L7.4,11.5L7.4,11.5"/>
		<path class="st1" d="M23.3,14.7L23.3,14.7c0,0.1,0,0.1,0,0.1l0,0l0,0l0,0l0,0l0,0l0,0l0,0l0,0C23.3,14.8,23.3,14.8,23.3,14.7
			C23.2,14.8,23.2,14.7,23.3,14.7C23.2,14.7,23.2,14.7,23.3,14.7C23.2,14.7,23.3,14.7,23.3,14.7L23.3,14.7"/>
		<path class="st1" d="M7.1,12.2L7.1,12.2L7.1,12.2C7.1,12.3,7.1,12.3,7.1,12.2L7.1,12.2L7.1,12.2"/>
		<path class="st1" d="M7.1,12C7.1,12,7.1,12,7.1,12C7.1,12,7.1,12,7.1,12L7.1,12C7.1,11.9,7.1,11.9,7.1,12L7.1,12"/>
		<path class="st1" d="M7.1,12.1C7.1,12.2,7.1,12.2,7.1,12.1C7.1,12.2,7.1,12.2,7.1,12.1C7.1,12.2,7.1,12.1,7.1,12.1
			C7.1,12.1,7.1,12.1,7.1,12.1L7.1,12.1L7.1,12.1"/>
		<path class="st1" d="M23.3,15.1c0,0.1,0,0.1-0.1,0.1C23.3,15.2,23.3,15.1,23.3,15.1L23.3,15.1"/>
		<path class="st1" d="M7.1,12.3L7.1,12.3L7.1,12.3L7.1,12.3C7.1,12.2,7.1,12.2,7.1,12.3C7.1,12.2,7.1,12.2,7.1,12.3
			C7.1,12.2,7.1,12.2,7.1,12.3C7.1,12.2,7.1,12.3,7.1,12.3"/>
		<path class="st1" d="M23.3,15.5c0,0.1,0,0.1-0.1,0.2C23.2,15.7,23.2,15.6,23.3,15.5C23.2,15.5,23.2,15.5,23.3,15.5L23.3,15.5"/>
		<path class="st1" d="M22.7,16.2c0,0.2,0,0.4,0,0.6C22.6,16.8,22.6,16.5,22.7,16.2C22.7,16.2,22.7,16.2,22.7,16.2
			C22.7,16.2,22.7,16.2,22.7,16.2"/>
		<path class="st1" d="M18.8,19.7c0,0.1-0.1,0.2-0.1,0.2c0,0-0.1,0-0.1-0.1c0-0.1,0-0.2,0.1-0.2C18.8,19.6,18.8,19.7,18.8,19.7"/>
		<path class="st1" d="M23.1,18.4c0,0.1,0,0.1,0,0.1c-0.1,0-0.1-0.1-0.1-0.2C23,18.3,23,18.3,23.1,18.4
			C23.1,18.2,23.1,18.4,23.1,18.4"/>
		<path class="st1" d="M12.4,19.6C12.4,19.6,12.4,19.7,12.4,19.6C12.4,19.7,12.4,19.7,12.4,19.6l-0.2,0.1v-0.1h0.1
			C12.4,19.5,12.4,19.6,12.4,19.6L12.4,19.6"/>
		<path class="st1" d="M22.9,18.6L22.9,18.6c0,0.1-0.1,0.1,0,0.1C22.9,18.7,22.9,18.7,22.9,18.6C22.9,18.6,22.9,18.6,22.9,18.6
			C22.9,18.6,22.9,18.6,22.9,18.6L22.9,18.6L22.9,18.6"/>
		<path class="st1" d="M22.9,18.8c-0.1,0.1-0.1,0.1-0.1,0.2s-0.1,0.2-0.2,0.2c0-0.1,0-0.1,0.1-0.2s0.1-0.2,0.1-0.4l0,0l0,0l0,0l0,0
			l0,0l0,0l0,0l0,0C22.9,18.7,22.9,18.8,22.9,18.8C22.9,18.8,22.9,18.9,22.9,18.8L22.9,18.8"/>
		<path class="st1" d="M23.5,18.7c0,0.1-0.1,0.1-0.1,0.1C23.4,18.7,23.4,18.7,23.5,18.7C23.5,18.7,23.5,18.7,23.5,18.7"/>
		<path class="st1" d="M16.9,21c-0.1,0.1-0.2,0.2-0.2,0.1s-0.1-0.2-0.1-0.4c0-0.1,0-0.1,0-0.2C16.9,20.6,16.9,20.7,16.9,21
			C16.9,21,16.9,21,16.9,21"/>
		<path class="st1" d="M19.1,20.7L19.1,20.7C19.1,20.7,19.1,20.7,19.1,20.7C19,20.7,19,20.7,19.1,20.7C19,20.7,19,20.7,19.1,20.7
			C19,20.7,19,20.7,19.1,20.7C19,20.7,19,20.7,19.1,20.7C19,20.7,19,20.7,19.1,20.7C19,20.7,19,20.7,19.1,20.7
			C19,20.7,19,20.7,19.1,20.7C19,20.7,19,20.7,19.1,20.7C19,20.7,19,20.7,19.1,20.7C19,20.7,19,20.7,19.1,20.7
			C19,20.7,19,20.7,19.1,20.7C19,20.7,19,20.7,19.1,20.7C19,20.7,19,20.7,19.1,20.7C19,20.7,19,20.7,19.1,20.7
			C19,20.7,19,20.7,19.1,20.7C19,20.7,19,20.7,19.1,20.7C19,20.7,19,20.7,19.1,20.7C19,20.7,19,20.7,19.1,20.7L19.1,20.7"/>
		<path class="st1" d="M23.3,19.4C23.3,19.5,23.2,19.5,23.3,19.4C23.2,19.5,23.2,19.4,23.3,19.4C23.2,19.4,23.3,19.4,23.3,19.4
			L23.3,19.4"/>
		<path class="st1" d="M23.7,19.5L23.7,19.5L23.7,19.5C23.7,19.5,23.7,19.5,23.7,19.5"/>
		<path class="st1" d="M21.4,20.7C21.4,20.7,21.4,20.7,21.4,20.7C21.4,20.7,21.4,20.7,21.4,20.7C21.4,20.7,21.4,20.7,21.4,20.7
			C21.4,20.7,21.4,20.7,21.4,20.7C21.4,20.7,21.4,20.7,21.4,20.7C21.4,20.6,21.4,20.7,21.4,20.7"/>
		<path class="st1" d="M6.9,18.3L6.9,18.3C6.9,18.4,6.9,18.4,6.9,18.3C6.9,18.4,6.9,18.4,6.9,18.3C6.9,18.4,6.9,18.3,6.9,18.3
			C6.9,18.3,6.9,18.3,6.9,18.3L6.9,18.3"/>
		<path class="st1" d="M19.5,21.4c-0.1,0-0.1,0-0.1,0c0,0,0,0,0-0.1l0,0C19.4,21.3,19.5,21.4,19.5,21.4L19.5,21.4"/>
		<path class="st1" d="M23.6,20.1c-0.1,0.1-0.2,0.2-0.4,0.3c-0.1,0.1-0.2,0.1-0.2,0.1c0,0.1,0,0.1,0.1,0.2c0.1,0,0.1-0.1,0.1-0.1
			c0,0,0.1,0,0.1-0.1s0.1-0.1,0.1-0.1c0,0.1,0,0.1,0,0.1v0.1c-0.1,0-0.1,0-0.1,0.1c-0.1-0.1,0.1-0.1,0.1-0.1
			c-0.2,0.2-0.2,0.3-0.1,0.3c0,0,0,0.1-0.1,0.1c0.1,0,0.1,0,0.1,0c0,0.1,0,0.1-0.1,0.2c0,0.1-0.1,0.1-0.1,0.1s0,0,0-0.1l0,0
			c0-0.1,0-0.1,0.1-0.1l0,0c-0.1,0-0.1,0.1-0.1,0.1h-0.1c0,0,0-0.1,0.1-0.1h-0.1c0-0.1,0.1-0.1,0.1-0.1c-0.1,0-0.1,0.1-0.1,0.1
			c0,0.1-0.1,0.2,0,0.4c-0.1,0-0.1,0.1-0.1,0.1c0-0.1,0.1-0.2,0.1-0.3c-0.1,0-0.1,0.1-0.1,0c0.1-0.2,0.2-0.6,0.2-0.8
			c0.1,0,0.1,0,0.1-0.1C23.3,20.2,23.4,20.2,23.6,20.1L23.6,20.1c0.1-0.1,0.1-0.1,0.2-0.2C23.6,20,23.6,20.1,23.6,20.1"/>
		<path class="st1" d="M19.7,21.6C19.7,21.7,19.7,21.7,19.7,21.6c-0.1,0.1-0.1,0-0.1-0.1l0,0l0,0l0,0l0,0l0,0l0,0l0,0l0,0
			C19.7,21.5,19.7,21.5,19.7,21.6C19.7,21.6,19.7,21.6,19.7,21.6L19.7,21.6"/>
		<path class="st1" d="M20.8,21.3L20.8,21.3c-0.1,0-0.1,0-0.1,0c0,0,0,0,0-0.1c0,0,0.1,0,0.1-0.1C20.8,21.2,20.8,21.3,20.8,21.3"/>
		<path class="st1" d="M6.9,18.7L6.9,18.7C6.8,18.7,6.8,18.7,6.9,18.7C6.8,18.7,6.8,18.7,6.9,18.7"/>
		<path class="st1" d="M20.9,21.5L20.9,21.5C20.8,21.5,20.8,21.5,20.9,21.5c-0.1,0.1-0.1,0.1-0.1,0.1c0-0.1,0-0.1,0-0.1s0,0,0-0.1
			C20.8,21.5,20.8,21.5,20.9,21.5C20.9,21.5,20.9,21.5,20.9,21.5"/>
		<path class="st1" d="M24.2,19.9C24.2,19.9,24.2,20,24.2,19.9C24.1,20,24.1,20,24.2,19.9C24.1,20,24.1,20,24.2,19.9
			C24.1,19.9,24.1,19.9,24.2,19.9C24.2,19.8,24.2,19.8,24.2,19.9L24.2,19.9"/>
		<path class="st1" d="M23.2,20.5C23.2,20.5,23.2,20.5,23.2,20.5C23.2,20.6,23.2,20.6,23.2,20.5C23.2,20.6,23.2,20.6,23.2,20.5
			C23.2,20.6,23.2,20.6,23.2,20.5C23.2,20.5,23.2,20.5,23.2,20.5C23.2,20.5,23.2,20.5,23.2,20.5C23.2,20.5,23.2,20.5,23.2,20.5
			C23.2,20.5,23.2,20.5,23.2,20.5L23.2,20.5L23.2,20.5L23.2,20.5L23.2,20.5L23.2,20.5L23.2,20.5L23.2,20.5L23.2,20.5L23.2,20.5
			L23.2,20.5L23.2,20.5"/>
		<path class="st1" d="M24.6,19.7C24.6,19.7,24.6,19.7,24.6,19.7C24.6,19.7,24.6,19.7,24.6,19.7C24.6,19.7,24.6,19.7,24.6,19.7
			C24.6,19.7,24.6,19.7,24.6,19.7L24.6,19.7"/>
		<path class="st1" d="M19.9,21.9c-0.1,0.1-0.1,0-0.1-0.1v-0.1l0,0l0,0l0,0l0,0l0,0l0,0l0,0l0,0C19.9,21.8,19.9,21.8,19.9,21.9
			L19.9,21.9L19.9,21.9"/>
		<path class="st1" d="M23.9,20.3c0,0.1-0.1,0.1-0.1,0.1C23.7,20.4,23.7,20.3,23.9,20.3C23.8,20.3,23.8,20.3,23.9,20.3L23.9,20.3"/>
		<path class="st1" d="M23.6,20.5c-0.1,0.1-0.1,0.1-0.1,0.1l0,0l0,0c0,0,0,0-0.1,0.1c0-0.1,0-0.1,0-0.1
			C23.5,20.5,23.6,20.5,23.6,20.5C23.7,20.5,23.6,20.5,23.6,20.5"/>
		<path class="st1" d="M24.6,19.7c-0.1,0.1-0.1,0.1-0.1,0.1C24.6,19.7,24.6,19.7,24.6,19.7L24.6,19.7"/>
		<path class="st1" d="M24.1,20.2C24.1,20.2,23.9,20.3,24.1,20.2C24.1,20.2,24.1,20.2,24.1,20.2C24.1,20.2,24.1,20.2,24.1,20.2
			L24.1,20.2L24.1,20.2L24.1,20.2C24.1,20.2,24.1,20.2,24.1,20.2L24.1,20.2L24.1,20.2C24.1,20.2,24.1,20.2,24.1,20.2
			C24.1,20.2,24.1,20.2,24.1,20.2C24.1,20.2,24.1,20.2,24.1,20.2C24.1,20.2,24.1,20.2,24.1,20.2L24.1,20.2"/>
		<path class="st1" d="M25.3,18.9c0,0-0.1,0.1-0.1,0.1C25.2,19,25.2,19,25.3,18.9L25.3,18.9L25.3,18.9"/>
		<path class="st1" d="M25.4,18.7C25.4,18.8,25.4,18.8,25.4,18.7C25.4,18.8,25.4,18.8,25.4,18.7C25.4,18.8,25.4,18.8,25.4,18.7
			L25.4,18.7L25.4,18.7"/>
		<path class="st1" d="M21.4,21.7L21.4,21.7c-0.1,0.1-0.1,0.1-0.1,0.1c0,0,0,0-0.1,0c0-0.1,0-0.1,0.1-0.1
			C21.3,21.7,21.4,21.7,21.4,21.7L21.4,21.7"/>
		<path class="st1" d="M25.4,18.8c0,0.1,0,0.1-0.1,0.1C25.4,18.8,25.4,18.8,25.4,18.8L25.4,18.8C25.4,18.8,25.4,18.7,25.4,18.8
			C25.4,18.7,25.4,18.7,25.4,18.8L25.4,18.8"/>
		<path class="st1" d="M23.7,20.7C23.7,20.7,23.7,20.7,23.7,20.7c-0.1,0.1-0.1,0.1-0.1,0.1s0,0-0.1,0C23.6,20.7,23.6,20.7,23.7,20.7
			L23.7,20.7L23.7,20.7L23.7,20.7"/>
		<path class="st1" d="M25.4,18.9c-0.1,0.2-0.2,0.4-0.2,0.6l0,0c0,0,0-0.1,0.1-0.1c0.1-0.1,0.1-0.1,0.1-0.1l0,0v0.1
			C25.4,19.1,25.4,19,25.4,18.9C25.4,18.8,25.4,18.8,25.4,18.9C25.4,18.8,25.4,18.8,25.4,18.9"/>
		<path class="st1" d="M25.4,18.9c0-0.1,0-0.1,0.1-0.1L25.4,18.9L25.4,18.9"/>
		<path class="st1" d="M24.2,20.5c0,0.1,0,0.1-0.1,0.1C24.2,20.7,24.2,20.6,24.2,20.5C24.2,20.6,24.2,20.6,24.2,20.5
			C24.2,20.6,24.2,20.6,24.2,20.5L24.2,20.5L24.2,20.5C24.2,20.6,24.2,20.6,24.2,20.5L24.2,20.5L24.2,20.5L24.2,20.5L24.2,20.5
			L24.2,20.5C24.2,20.6,24.2,20.5,24.2,20.5L24.2,20.5L24.2,20.5"/>
		<path class="st1" d="M24.3,20.5c0,0.1-0.1,0.1-0.1,0.1S24.2,20.6,24.3,20.5L24.3,20.5L24.3,20.5L24.3,20.5L24.3,20.5L24.3,20.5
			L24.3,20.5L24.3,20.5L24.3,20.5L24.3,20.5C24.4,20.5,24.4,20.5,24.3,20.5"/>
		<path class="st1" d="M22.9,21.5C22.9,21.5,22.9,21.5,22.9,21.5C22.9,21.5,22.9,21.5,22.9,21.5C22.9,21.5,22.9,21.5,22.9,21.5
			C22.9,21.5,22.9,21.5,22.9,21.5"/>
		<path class="st1" d="M24.1,20.8C24,21,24,21,23.9,21.1C23.9,21,23.9,20.9,24.1,20.8L24.1,20.8"/>
		<path class="st1" d="M23.6,21.2C23.6,21.3,23.5,21.3,23.6,21.2c-0.1,0.1-0.1,0.1-0.1,0.1v-0.1l0,0C23.5,21.3,23.5,21.3,23.6,21.2
			L23.6,21.2L23.6,21.2"/>
		<path class="st1" d="M23.4,21.5C23.4,21.5,23.3,21.5,23.4,21.5c-0.1,0.1-0.1,0.1-0.2,0.1c-0.1,0.1-0.2,0.2-0.4,0.2c0,0,0,0,0-0.1
			l0,0c0.1,0,0.1-0.1,0.2-0.1c0,0,0,0,0.1-0.1c0.1,0,0.1,0,0.1-0.1C23.3,21.5,23.3,21.5,23.4,21.5L23.4,21.5"/>
		<path class="st1" d="M22.8,22C22.7,22,22.7,22,22.8,22C22.7,22,22.7,22,22.6,22c0-0.1,0.1-0.1,0.1-0.1
			C22.7,21.9,22.8,21.9,22.8,22L22.8,22"/>
		<path class="st1" d="M23.8,21.5c-0.1,0.1-0.1,0.1-0.1,0.1C23.7,21.5,23.7,21.5,23.8,21.5C23.7,21.5,23.7,21.5,23.8,21.5L23.8,21.5
			L23.8,21.5"/>
		<path class="st1" d="M11.1,23L11.1,23L11.1,23C11.1,22.9,11.1,22.9,11.1,23C11.1,22.9,11.1,23,11.1,23L11.1,23"/>
		<path class="st1" d="M12.2,23.7C12.2,23.7,12.2,23.7,12.2,23.7C12.1,23.7,12.1,23.7,12.2,23.7c0,0.2-0.1,0.6,0,0.8
			c-0.1,0-0.2,0-0.3-0.1c-0.1-0.1-0.1-0.1-0.1-0.1c0,0,0-0.1-0.1-0.1l-0.1-0.1c0,0,0,0,0-0.1c0,0,0,0,0-0.1s0.1-0.1,0.1-0.1
			l-0.1-0.1c-0.1-0.1-0.1-0.2-0.1-0.3c0.3,0,0.4,0,0.3-0.2c0.1,0,0.1,0.1,0.1,0.1l-0.1-0.1l0,0c0,0,0,0,0.1,0.1c0-0.1,0-0.1-0.1-0.1
			h0.1c0,0,0,0,0-0.1C12.2,23.5,12.2,23.7,12.2,23.7"/>
		<path class="st1" d="M24.1,21.5L24.1,21.5L24.1,21.5C24.1,21.5,24.1,21.4,24.1,21.5C24.1,21.4,24.1,21.4,24.1,21.5L24.1,21.5"/>
		<path class="st1" d="M24.1,21.5L24.1,21.5C24.1,21.5,24.1,21.5,24.1,21.5C24.1,21.5,24.2,21.5,24.1,21.5
			C24.2,21.5,24.2,21.5,24.1,21.5"/>
		<path class="st1" d="M13.5,24.4C13.5,24.4,13.4,24.4,13.5,24.4C13.4,24.4,13.4,24.4,13.5,24.4C13.4,24.3,13.4,24.3,13.5,24.4
			C13.4,24.3,13.4,24.3,13.5,24.4C13.4,24.3,13.4,24.3,13.5,24.4C13.4,24.3,13.4,24.3,13.5,24.4L13.5,24.4"/>
		<path class="st1" d="M13.2,24.4C13.1,24.4,13.1,24.3,13.2,24.4C13.1,24.3,13.1,24.3,13.2,24.4L13.2,24.4L13.2,24.4"/>
		<path class="st1" d="M14.3,6.5L14.3,6.5C14.3,6.5,14.4,6.5,14.3,6.5C14.4,6.5,14.4,6.5,14.3,6.5L14.3,6.5L14.3,6.5L14.3,6.5
			L14.3,6.5L14.3,6.5L14.3,6.5L14.3,6.5L14.3,6.5L14.3,6.5C14.4,6.5,14.4,6.5,14.3,6.5C14.4,6.5,14.4,6.5,14.3,6.5
			C14.4,6.5,14.4,6.5,14.3,6.5L14.3,6.5 M14.4,6.6L14.4,6.6L14.4,6.6C14.4,6.6,14.5,6.6,14.4,6.6C14.5,6.6,14.5,6.6,14.4,6.6
			C14.5,6.6,14.5,6.6,14.4,6.6L14.4,6.6L14.4,6.6 M14.3,6.7L14.3,6.7L14.3,6.7L14.3,6.7L14.3,6.7C14.4,6.7,14.4,6.7,14.3,6.7
			L14.3,6.7 M13.7,7L13.7,7C13.7,7,13.7,7,13.7,7C13.8,7,13.8,7,13.7,7C13.8,7,13.8,7,13.7,7C13.8,7,13.8,7,13.7,7
			C13.8,7,13.8,7,13.7,7C13.8,7,13.8,7,13.7,7 M13.2,7.9C13.2,7.9,13.2,7.9,13.2,7.9c0.1-0.1,0-0.1,0-0.1c0,0,0,0,0.1,0h-0.1
			c0.1,0,0.1,0,0.1,0l0,0c0.1,0,0.2-0.3,0.2-0.3V7.4c0.1-0.1,0.1-0.1,0.1-0.1c0,0,0,0-0.1,0l0.1-0.1c0,0,0,0-0.1,0
			c0,0,0.1,0,0.1-0.1l0,0C13.7,7.1,13.7,7,13.8,7c0.4-0.2,0.6-0.3,0.8-0.4c-0.1,0-0.1,0-0.1,0c0.1-0.1,0.2-0.1,0.3-0.2
			c-0.1,0-0.1,0-0.1,0c0,0,0,0,0.1,0c-0.1,0-0.1,0-0.2,0.1l0,0c0,0,0,0-0.1,0c0.1-0.1,0.3-0.1,0.4-0.1c-0.1,0-0.1,0-0.2,0l0,0
			c-0.1,0-0.4,0.1-0.7,0.2c0.2,0.1,0.3-0.1,0.6-0.1c0,0,0,0-0.1,0c0,0,0,0,0.1,0c-0.1,0-0.2,0-0.4,0.1l0,0l0,0l0,0l0,0
			c0,0,0,0-0.1,0c0,0,0,0,0.1,0C14,6.7,14,6.7,13.9,6.7l0,0l0,0l0,0c-0.1,0.1-0.1,0.1-0.2,0.2c0,0,0,0,0.1-0.1l0,0c0,0,0,0-0.1,0
			l0,0c0.1-0.1,0.1-0.1,0.1-0.1c-0.1,0-0.1,0.1-0.2,0.1c0,0,0,0,0.1-0.1h-0.1l0,0l0,0l0,0l0,0l0,0l0,0l0,0l0,0
			c-0.1,0-0.2,0.1-0.2,0.1c-0.1,0.1-0.3,0.1-0.4,0.1l0,0l0,0C13.1,7,13.1,6.9,13,7l0,0l0,0l0,0l0,0l0,0l0,0l0,0l0,0
			c-0.1,0-0.1,0-0.2,0.1h0.1c-0.1,0-0.1,0.1-0.2,0.1C12.8,7,12.8,7,12.8,7c-0.3,0.1-0.3,0.1-0.3,0.1s0,0,0.1,0
			c-0.1,0.1-0.1,0.1-0.2,0.1c0,0,0-0.1,0.1-0.1c-0.1,0-0.1,0-0.1,0l0,0l0,0c-0.2-0.1-0.8,0.2-1.1,0.4l0,0c0.1,0,0.1,0,0.2-0.1l0,0
			c0.1,0,0.1,0,0.2,0l0,0c0,0,0,0,0.1,0c-0.1,0.2,0.1,0.2,0.2,0.2C11.7,8,11.9,8,11.9,8c0-0.1,0-0.1,0.1-0.1l0,0l0,0c0,0,0,0,0.1,0
			l0,0l0,0l0,0l0,0l0,0l0,0l0,0l0,0C12,8,11.9,8,11.9,8c0.1,0,0.1,0,0.2-0.1c0,0,0,0-0.1,0.1c0.1,0,0.1,0,0.1-0.1l0,0c0,0,0,0,0,0.1
			h0.1c0,0,0,0,0,0.1C12.4,8,12.6,8,12.6,8s0,0,0-0.1c0,0,0,0,0.1,0c0,0,0,0,0,0.1l0,0l0,0c0,0-0.1,0-0.1,0.1c0.1,0,0.1,0,0.1-0.1
			l0,0c0.1,0,0.1-0.1,0.2-0.1c0.1,0,0.1,0.1,0.1,0C13.1,7.8,13.1,7.9,13.2,7.9"/>
		<path class="st1" d="M14.4,9.1c-0.1,0.1-0.2,0-0.2-0.1C14.3,9,14.3,9,14.4,9.1C14.4,9,14.4,9,14.4,9.1C14.4,9,14.4,9,14.4,9.1
			L14.4,9.1"/>
		<path class="st1" d="M16.4,9.5c-0.1,0-0.1,0-0.1,0c-0.1,0-0.2-0.1-0.2-0.1l0,0c0,0,0,0,0.1,0l0,0l0,0l0,0l0,0l0,0l0,0l0,0l0,0l0,0
			l0,0c0.1-0.1,0.1-0.1,0.1-0.1S16.2,9.3,16.4,9.5C16.2,9.5,16.4,9.5,16.4,9.5C16.4,9.4,16.4,9.4,16.4,9.5
			C16.4,9.4,16.4,9.4,16.4,9.5L16.4,9.5"/>
		<path class="st1" d="M19.7,19.8L19.7,19.8L19.7,19.8L19.7,19.8L19.7,19.8 M10.1,23.7L10.1,23.7C10.1,23.7,10.1,23.7,10.1,23.7
			C10.1,23.7,10.1,23.7,10.1,23.7C10.1,23.7,10.1,23.7,10.1,23.7C10.1,23.7,10.1,23.7,10.1,23.7C10.1,23.7,10.1,23.7,10.1,23.7
			C10.1,23.7,10.1,23.7,10.1,23.7 M9.6,22.8C9.6,22.7,9.6,22.8,9.6,22.8L9.6,22.8C9.5,22.8,9.5,22.7,9.6,22.8
			C9.6,22.8,9.6,22.8,9.6,22.8L9.6,22.8 M9.9,22.8L9.9,22.8c-0.1,0-0.1,0-0.1,0l0,0H9.9L9.9,22.8L9.9,22.8 M10.1,22.8
			C10.1,22.8,10.1,22.8,10.1,22.8C10.1,22.8,10.1,22.8,10.1,22.8c-0.1-0.1-0.1-0.2-0.2-0.3c0,0,0-0.1-0.1-0.2
			c-0.1-0.1-0.1-0.2-0.1-0.2c0.1,0.1,0.1,0.2,0.2,0.3C10,22.7,10.1,22.7,10.1,22.8L10.1,22.8 M9.2,21.8C9.2,21.8,9.2,21.8,9.2,21.8
			C9.1,21.8,9.1,21.8,9.2,21.8C9.1,21.8,9.1,21.8,9.2,21.8C9.1,21.8,9.1,21.7,9.2,21.8C9.1,21.7,9.1,21.8,9.2,21.8L9.2,21.8
			 M9.6,21.9L9.6,21.9c-0.1,0-0.1-0.1-0.1-0.1C9.5,21.8,9.5,21.8,9.6,21.9L9.6,21.9 M9.4,21.9C9.3,21.8,9.3,21.8,9.4,21.9
			c-0.1-0.2-0.2-0.3-0.2-0.4s-0.1-0.2-0.1-0.2c0-0.1,0-0.1-0.1-0.1c0.1,0.2,0.1,0.4,0.1,0.4C9.2,21.6,9.3,21.8,9.4,21.9L9.4,21.9
			 M9,20.8C8.9,20.8,8.9,20.8,9,20.8C8.9,20.8,8.9,20.8,9,20.8C8.9,20.8,8.9,20.8,9,20.8c0,0,0-0.1-0.1-0.1
			C8.9,20.8,8.9,20.8,9,20.8L9,20.8 M9,20.6C9,20.7,8.9,20.7,9,20.6C8.9,20.6,8.9,20.6,9,20.6C8.9,20.5,8.9,20.5,9,20.6
			C8.9,20.5,8.9,20.5,9,20.6C8.9,20.5,8.9,20.5,9,20.6C8.9,20.5,8.9,20.5,9,20.6C8.9,20.5,8.9,20.5,9,20.6C8.9,20.5,8.9,20.5,9,20.6
			C8.9,20.5,8.9,20.5,9,20.6C8.9,20.5,8.9,20.5,9,20.6C8.9,20.5,8.9,20.5,9,20.6C8.9,20.6,8.9,20.6,9,20.6C8.9,20.6,8.9,20.6,9,20.6
			L9,20.6L9,20.6L9,20.6L9,20.6L9,20.6L9,20.6 M9.6,20.9C9.6,21,9.5,21,9.4,21l0,0c-0.1,0,0.1,0.1,0.1,0.1l0,0c0,0-0.1,0-0.1,0
			c-0.1-0.1-0.1-0.1-0.1,0c-0.1-0.1-0.1-0.3,0-0.3l0,0v-0.1C9.4,20.7,9.6,20.8,9.6,20.9 M9.4,20.5L9.4,20.5
			C9.4,20.6,9.4,20.6,9.4,20.5c-0.1,0.1-0.1,0-0.1,0v-0.1l0,0l0,0C9.2,20.5,9.3,20.5,9.4,20.5c-0.1-0.1-0.1-0.1-0.1-0.1
			C9.3,20.5,9.3,20.5,9.4,20.5L9.4,20.5 M9.1,20.3C9.1,20.4,9.1,20.4,9.1,20.3c-0.1,0.1-0.1,0.1-0.1,0.1C9,20.3,9.1,20.2,9.1,20.3
			L9.1,20.3L9.1,20.3 M9.8,20.6c-0.1-0.1-0.2-0.4-0.1-0.4C9.7,20.3,9.7,20.5,9.8,20.6L9.8,20.6 M6.2,16.5
			C6.2,16.5,6.2,16.5,6.2,16.5C6.2,16.5,6.2,16.5,6.2,16.5C6.2,16.5,6.2,16.5,6.2,16.5v-0.1l0,0C6.2,16.3,6.2,16.3,6.2,16.5
			L6.2,16.5 M9.9,18.9L9.9,18.9L9.9,18.9L9.9,18.9C9.9,18.9,9.9,18.9,9.9,18.9C9.9,18.9,9.9,18.9,9.9,18.9
			C9.9,18.9,9.9,18.9,9.9,18.9 M20.7,19.3C20.7,19.4,20.7,19.4,20.7,19.3c-0.1,0-0.1-0.1-0.1-0.1S20.7,19.2,20.7,19.3
			C20.7,19.3,20.7,19.3,20.7,19.3L20.7,19.3 M7.4,17.2L7.4,17.2C7.3,17.2,7.3,17.2,7.4,17.2L7.4,17.2L7.4,17.2l-0.1-0.1
			C7.3,17.1,7.3,17.1,7.4,17.2L7.4,17.2L7.4,17.2C7.4,17.2,7.4,17.2,7.4,17.2C7.4,17.2,7.4,17.2,7.4,17.2L7.4,17.2L7.4,17.2
			 M7.3,17.1c0-0.1,0-0.1,0-0.2C7.4,16.9,7.3,17,7.3,17.1L7.3,17.1L7.3,17.1 M9.7,16.7L9.7,16.7c0,0.1,0,0.1,0,0.1l0,0l-0.1,0.1
			c0,0,0,0-0.1,0c0,0,0,0-0.1,0c0,0,0,0-0.1,0c0,0,0,0,0-0.1c0,0,0.1,0,0-0.1h0.1C9.6,16.7,9.6,16.7,9.7,16.7
			C9.7,16.6,9.7,16.6,9.7,16.7C9.7,16.6,9.7,16.6,9.7,16.7 M18.2,16.5l-0.1,0.1v-0.1l0,0C18.1,16.5,18.1,16.5,18.2,16.5
			C18.1,16.5,18.1,16.5,18.2,16.5C18.1,16.5,18.2,16.5,18.2,16.5 M17.9,16.2L17.9,16.2C17.8,16.3,17.8,16.3,17.9,16.2L17.9,16.2
			c-0.1,0.1-0.1,0-0.1,0.1C17.8,16.3,17.8,16.3,17.9,16.2L17.9,16.2 M11.3,15.6L11.3,15.6c-0.1,0-0.1-0.1,0-0.1
			C11.3,15.5,11.3,15.5,11.3,15.6C11.4,15.5,11.3,15.6,11.3,15.6 M21.9,15L21.9,15C21.9,15,21.9,15,21.9,15C21.9,15,21.9,15,21.9,15
			L21.9,15C21.9,15,21.9,15,21.9,15C21.9,15,21.9,15,21.9,15C21.9,15,21.9,15,21.9,15C21.9,15,21.9,15,21.9,15L21.9,15 M21.9,15
			c0,0.1,0,0.1-0.1,0.1L21.9,15C21.7,15,21.7,15,21.9,15C21.8,15,21.8,15,21.9,15C21.8,14.9,21.8,14.9,21.9,15
			C21.8,15,21.8,15,21.9,15C21.9,14.9,21.9,15,21.9,15 M11.4,15.3C11.4,15.3,11.3,15.3,11.4,15.3L11.4,15.3
			C11.3,15.3,11.3,15.3,11.4,15.3C11.3,15.3,11.3,15.3,11.4,15.3L11.4,15.3c-0.1,0-0.1-0.1,0-0.1C11.3,15.2,11.4,15.2,11.4,15.3
			L11.4,15.3 M19.4,15.2L19.4,15.2c-0.1,0-0.1,0-0.1,0S19.2,15.2,19.4,15.2C19.3,15.1,19.4,15.1,19.4,15.2L19.4,15.2 M11.8,14.8
			L11.8,14.8L11.8,14.8v-0.1C11.8,14.7,11.8,14.7,11.8,14.8 M11.7,14.4c-0.1,0-0.1,0.1-0.1,0.2c0,0-0.1,0-0.1-0.1h-0.1
			C11.6,14.4,11.6,14.4,11.7,14.4L11.7,14.4 M10.6,14L10.6,14L10.6,14C10.5,14,10.5,14,10.6,14c-0.1-0.1,0-0.1,0-0.1
			C10.6,14,10.6,14,10.6,14L10.6,14 M10.2,13.4L10.2,13.4C10.2,13.5,10.2,13.5,10.2,13.4c-0.1,0.1-0.1,0-0.1,0s-0.1-0.1-0.1,0v-0.1
			c0,0,0,0,0.1-0.1l0,0C10.2,13.3,10.2,13.3,10.2,13.4L10.2,13.4L10.2,13.4 M17.4,14.5C17.4,14.6,17.3,14.5,17.4,14.5
			C17.3,14.5,17.3,14.5,17.4,14.5C17.2,14.5,17.3,14.5,17.4,14.5C17.3,14.5,17.4,14.5,17.4,14.5 M13.1,14.4c-0.1,0-0.1,0-0.2,0v-0.1
			c0-0.1,0-0.1,0.1-0.1l0,0l0,0l0,0l0,0l0,0l0,0l0,0l0,0c0,0,0,0,0.1,0h0.1C13.1,14.2,13.1,14.3,13.1,14.4L13.1,14.4
			C13,14.3,13.1,14.3,13.1,14.4L13.1,14.4 M16.1,14.4C16.1,14.4,16.1,14.5,16.1,14.4C16,14.5,16,14.5,16,14.5c-0.1,0-0.1,0-0.1,0
			h-0.1C15.9,14.4,15.9,14.4,16.1,14.4C16,14.4,16,14.4,16.1,14.4L16.1,14.4L16.1,14.4 M22,12.4L22,12.4C22,12.5,22,12.5,22,12.4
			L22,12.4C22,12.5,21.9,12.5,22,12.4C21.9,12.4,21.9,12.4,22,12.4C21.9,12.4,22,12.4,22,12.4L22,12.4 M10.7,14.5
			c-0.1,0.1-0.1,0.1-0.1,0.1c0.1,0.1-0.3,0.8-0.6,0.7c0,0-0.1-0.1-0.1-0.1c-0.2-0.1-0.2-0.1-0.3,0c-0.2-0.3-0.2-0.3-0.3-0.3
			c0-0.1,0-0.1-0.1-0.2c0.1-0.2-0.2-0.2-0.2-0.2c0,0-0.1,0-0.1,0.1c0,0.1-0.1,0.2-0.1,0.1c-0.1-0.1-0.2-0.6-0.2-0.6
			c0-0.1,0-0.1,0.1-0.1c-0.1-0.1-0.1-0.2-0.2-0.4c0-0.1,0.1-0.1,0-0.2c0,0,0,0-0.1,0c0-0.1,0-0.1,0.1-0.1c0,0,0.1,0,0.1-0.1l0,0
			c0-0.1,0-0.1,0-0.1C8.4,13,8.6,13,8.6,13l0,0c-0.1,0-0.1,0-0.1,0c0-0.1,0-0.1,0-0.1c-0.1,0-0.1-0.1-0.1-0.1l0,0l0,0c0,0,0,0,0-0.1
			c-0.1-0.1-0.2-0.3-0.4-0.2c0,0,0,0,0-0.1c-0.1,0-0.1,0-0.1,0c0,0,0,0,0-0.1c-0.1-0.1-0.1-0.2,0-0.4C7.9,11.8,7.9,11.9,8,12
			c0.1-0.1,0.1-0.1,0.1-0.1l0,0c0.1-0.1,0.1-0.1,0.1-0.1c0.1-0.2,0.1-0.2,0.4-0.2c0.1-0.1,0.1-0.2,0.1-0.2c0.1,0,0.1,0.1,0.1,0.2
			c0.1,0,0.2,0,0.2-0.1c0,0.1,0,0.1,0,0.1c0,0.1,0,0.1,0,0.7c0,0,0,0,0.1,0c-0.1,0.4-0.1,0.4-0.1,0.4c-0.1,0.1-0.2-0.1-0.2-0.1
			c0,0.1,0,0.2,0.1,0.4C8.9,13,8.9,13,9,13c0.1,0.1,0.1-0.1,0.2-0.1l0,0c0.1-0.1,0-0.2,0.1-0.2c0,0.1,0,0.1,0,0.2
			c0.1-0.1,0.1-0.1,0-0.4c0.1,0,0.1,0,0.1,0c-0.2-0.1,0-0.4,0-0.6c0,0,0,0,0.1-0.1c0.1,0,0.1-0.1,0.1-0.1l0,0c0.1,0,0.1,0,0.1,0
			c-0.1,0-0.1,0-0.1,0.1c0,0,0,0,0.1-0.1c0,0,0,0-0.1,0.1l0,0c0,0,0,0,0-0.1l0,0c0,0.1,0,0.2,0,0.2s0,0.1-0.1,0.1
			c0.1,0.1,0.1,0.1,0.1,0.2c0,0.1-0.2,0.2-0.2,0.4c0,0,0,0-0.1,0c0,0.1,0,0.1,0,0.2c0,0,0,0-0.1,0.1c0,0.1,0,0.1,0,0.1
			s0-0.1,0.1-0.1c0.1,0.1-0.1,0.2-0.1,0.4l0,0c0,0,0,0,0.1,0c0,0,0,0,0,0.1c0,0,0,0,0-0.1c0.1,0,0,0.1,0,0.1c0.1,0,0.1-0.1,0.1-0.2
			c0,0.1,0,0.1,0.1,0.1c0,0,0-0.1,0-0.1c0,0,0.1,0,0,0.1c0,0,0,0,0.1-0.1c0,0.1,0,0.1,0.1,0.1c0-0.1,0-0.2,0-0.3
			c0-0.1,0-0.1,0.1-0.2c0,0,0,0,0,0.1c0,0,0,0,0.1,0c0,0,0,0,0-0.1c0,0,0,0,0,0.1c0,0,0.1-0.1,0-0.1c0,0,0,0,0.1,0c0,0,0,0,0,0.1
			l0,0c0,0,0,0,0.1-0.1c0,0,0.1,0.1,0.1,0.2c0,0-0.1,0.1-0.1,0.2h0.1c0,0.1-0.1,0.1-0.1,0.1s0,0,0-0.1c0,0,0,0.1,0,0.1
			c0.1,0.1,0.1,0.1,0.1,0.2c0-0.1,0-0.1-0.1-0.1c0.1,0.1,0.1,0.1,0.1,0.2c0,0,0,0,0.1,0.1c0,0.1-0.1,0.1-0.1,0.1
			c0.1,0,0.1,0,0.1-0.1c0.1,0.1,0.1,0.1,0.1,0.2c0.1,0,0.1,0,0.1-0.1c0.1,0.1,0.1,0.1,0.1,0.2c0.1,0.1,0.2,0,0.3-0.1
			C10.6,14.5,10.6,14.5,10.7,14.5C10.7,14.4,10.7,14.5,10.7,14.5L10.7,14.5 M13.9,14C13.8,14,13.8,14,13.9,14c-0.1,0-0.1,0-0.2,0
			c0,0,0-0.1,0.1-0.1c0-0.1,0-0.1,0.1-0.1c0-0.1,0-0.1-0.1-0.1c-0.1,0.1-0.1,0.1-0.1,0.1s0,0.1,0,0.1c-0.1-0.1-0.1-0.1,0.1-0.2
			c0,0,0,0,0.1,0.1c0,0,0,0,0.1,0s0.1-0.1,0.1,0L13.9,14C13.9,13.8,13.9,13.8,13.9,14L13.9,14 M16.5,13.8
			C16.5,13.9,16.5,13.9,16.5,13.8C16.4,13.8,16.4,13.8,16.5,13.8C16.5,13.8,16.5,13.8,16.5,13.8 M11.6,13.9c-0.1,0.1-0.2,0-0.3,0
			c0,0-0.3-0.2-0.2-0.3l0,0c-0.2-0.1-0.3-0.1-0.4,0l0,0l0,0c-0.2-0.1-0.2-0.2-0.2-0.4c0,0,0.1,0,0.1-0.1c0.1-0.1,0.1-0.1,0.1,0
			c0.1-0.1,0.1-0.2,0.2-0.2c0.1-0.1,0.1-0.1,0.1-0.1c0.1-0.1,0.1-0.1,0.1-0.2c0,0.1,0.1,0.1,0.1,0.1c0,0.1,0.1,0.1,0.1,0.1
			c-0.1,0-0.1,0-0.1,0.1c0,0,0,0,0.1,0.1c0,0.1-0.1,0.1-0.1,0.1s0,0,0,0.1c0.1,0,0.1,0,0.2,0c0.1,0,0.1,0,0.1,0s0,0,0.1,0.1
			c0,0,0,0,0.1,0.2L11.6,13.9C11.6,13.8,11.6,13.8,11.6,13.9L11.6,13.9 M14,13.7C14,13.7,13.9,13.7,14,13.7c-0.1,0-0.1-0.1-0.1-0.1
			C13.9,13.6,13.9,13.6,14,13.7L14,13.7 M15.7,13.7c-0.1,0-0.2,0.1-0.2,0.2l0,0c0,0,0-0.1-0.1-0.1C15.5,13.8,15.6,13.7,15.7,13.7
			L15.7,13.7 M12.8,15.1c-0.2,0.1-0.2,0-0.6-0.2c0,0,0-0.1,0-0.2c0.1,0,0.1-0.1,0.1-0.2c0.1,0,0.1,0,0.1,0.1
			c-0.1-0.1-0.1-0.2-0.1-0.4c0-0.1,0-0.1,0-0.2v-0.1l-0.1-0.2c0.1-0.1,0.1-0.1,0.1-0.1c0.1,0,0.1-0.1,0.1,0c0.1-0.1,0.1-0.1,0.3-0.1
			c0,0.1,0.1,0,0.2,0.1c-0.1,0.1-0.1,0.1-0.1,0.2l0,0l0,0l0,0l0,0l0,0l0,0l0,0l0,0c-0.1,0-0.1,0.1-0.1,0.1v0.1l0,0
			c-0.1-0.1-0.1-0.1-0.1,0c0.1,0.1,0.1,0.2,0.1,0.2c0.1,0.1,0.1,0.1,0.1,0.1c-0.1,0.1-0.1,0.2,0,0.2c-0.1,0.1-0.1,0.2,0,0.2l0,0
			c0,0.1,0,0.1,0,0.2c0.1,0,0.1,0.1,0.1,0.1C12.9,14.9,12.8,15,12.8,15.1L12.8,15.1 M11.7,12.9c-0.1,0-0.1,0-0.1,0
			c0,0.1,0,0.1,0,0.1c-0.1,0.1-0.1,0.1-0.1,0.1c-0.1,0-0.1-0.1-0.2-0.1c-0.1-0.1,0-0.1,0-0.1l0,0C11.4,12.8,11.6,12.8,11.7,12.9
			L11.7,12.9 M17.8,13.4C17.8,13.5,17.8,13.5,17.8,13.4C17.7,13.4,17.7,13.3,17.8,13.4C17.7,13.3,17.7,13.3,17.8,13.4L17.8,13.4
			L17.8,13.4L17.8,13.4L17.8,13.4L17.8,13.4 M17.7,13.3c0,0.1-0.1,0.1-0.1,0.1C17.6,13.5,17.6,13.5,17.7,13.3
			C17.6,13.4,17.6,13.4,17.7,13.3C17.7,13.3,17.7,13.3,17.7,13.3L17.7,13.3 M16.7,13.6c-0.1-0.1-0.1-0.1-0.2-0.1c0,0,0-0.1,0.1-0.1
			c0,0,0,0,0-0.1l0.1,0.1C16.7,13.5,16.7,13.6,16.7,13.6L16.7,13.6 M12.2,12.8L12.2,12.8c-0.1,0.1-0.1,0.1-0.1,0.1c0,0,0,0-0.1,0
			h-0.1l0,0l0,0l0,0l0.1-0.1l0,0c0,0,0,0,0.1,0C12.1,12.9,12.1,12.9,12.2,12.8C12.1,12.8,12.1,12.8,12.2,12.8
			C12.2,12.8,12.2,12.8,12.2,12.8 M17.7,13.2L17.7,13.2c-0.1,0-0.1,0-0.1,0C17.7,13.2,17.7,13.2,17.7,13.2L17.7,13.2
			C17.8,13.2,17.7,13.2,17.7,13.2 M20.4,12.6L20.4,12.6c0,0.1,0,0.1,0,0.1l0,0l0,0C20.3,12.7,20.3,12.7,20.4,12.6
			C20.3,12.6,20.3,12.6,20.4,12.6C20.3,12.5,20.3,12.5,20.4,12.6L20.4,12.6L20.4,12.6 M17.6,13C17.6,13,17.6,13.1,17.6,13
			C17.6,13.1,17.6,13.1,17.6,13C17.6,13.1,17.6,13.1,17.6,13C17.6,13,17.6,13,17.6,13C17.6,13,17.6,13,17.6,13
			C17.6,13,17.6,13,17.6,13L17.6,13 M15,13C15,13,14.9,13,15,13C14.9,13,14.9,13,15,13C14.9,13.1,14.9,13.1,15,13
			C14.9,13.1,14.9,13.1,15,13C14.9,13.1,14.9,13.1,15,13C14.9,13.1,14.9,13.1,15,13L15,13C14.9,13,14.9,13,15,13
			C14.9,13,14.9,13,15,13L15,13 M18.4,12.8c0,0.1,0,0.1,0,0.1S18.4,12.8,18.4,12.8C18.4,12.8,18.4,12.8,18.4,12.8
			C18.4,12.8,18.4,12.8,18.4,12.8C18.4,12.7,18.4,12.7,18.4,12.8C18.4,12.7,18.4,12.7,18.4,12.8 M19,12c0,0.1,0,0.1,0.1,0.1
			c0,0,0,0-0.1,0v0.1l0,0c0,0.1,0,0.1,0,0.1c-0.1,0-0.1,0.1-0.1,0.1v0.1c-0.1,0-0.1,0.1-0.1,0.1h-0.1c0.1-0.1,0.1-0.2,0.2-0.3
			c0-0.1,0-0.1-0.1,0c0.1-0.1,0-0.3,0-0.4C18.9,11.9,18.9,12,19,12 M12.7,11.6C12.7,11.6,12.7,11.7,12.7,11.6c0,0,0-0.1,0-0.1l0,0
			l0,0l0,0C12.7,11.5,12.7,11.6,12.7,11.6 M12.7,11.5L12.7,11.5L12.7,11.5L12.7,11.5 M11.1,10.3c-0.1,0-0.1,0.1-0.1,0.1
			C10.9,10.3,11,10.3,11.1,10.3L11.1,10.3 M11.7,11c0-0.1,0-0.1,0.1-0.2l0,0l0,0l0,0l0,0l0,0l0,0l0,0l0,0l0,0l0,0l0,0l0,0l0,0l0,0
			l0,0l0,0c0,0.1-0.1,0.1-0.1,0.1C11.7,10.9,11.7,10.9,11.7,11L11.7,11 M12.5,11.2c-0.1,0.1-0.1,0-0.1-0.1l0,0l0,0
			c0,0,0.1,0,0.1-0.1l0,0l0,0h0.1C12.4,11.2,12.4,11.2,12.5,11.2L12.5,11.2 M11,10.2C10.9,10.2,10.9,10.2,11,10.2
			C10.9,10.2,10.9,10.2,11,10.2C10.9,10.2,10.9,10.2,11,10.2c0.1-0.1,0.1-0.1,0.1-0.1l0,0l0,0l0,0l0,0l0,0l0,0l0,0l0,0
			C11.1,10.2,11,10.2,11,10.2L11,10.2 M13.9,11.6C13.8,11.6,13.8,11.7,13.9,11.6C13.8,11.7,13.8,11.7,13.9,11.6
			C13.8,11.7,13.8,11.7,13.9,11.6C13.8,11.7,13.8,11.7,13.9,11.6c-0.1,0-0.1,0-0.1,0c0.1-0.1,0.1-0.1,0.1-0.1
			C13.9,11.5,13.9,11.5,13.9,11.6C13.8,11.6,13.8,11.6,13.9,11.6L13.9,11.6 M12.2,10.8L12.2,10.8C12.1,10.8,12.1,10.8,12.2,10.8
			C12.1,10.8,12.1,10.8,12.2,10.8h-0.1c0-0.1,0-0.1,0-0.1c0-0.1,0.1-0.1,0.1-0.1S12.2,10.6,12.2,10.8C12.2,10.7,12.2,10.7,12.2,10.8
			L12.2,10.8 M11.8,10.4L11.8,10.4C11.7,10.4,11.7,10.4,11.8,10.4C11.7,10.4,11.7,10.4,11.8,10.4C11.7,10.3,11.8,10.3,11.8,10.4
			C11.8,10.3,11.8,10.3,11.8,10.4C11.8,10.3,11.9,10.3,11.8,10.4C11.9,10.3,11.8,10.3,11.8,10.4C11.8,10.3,11.8,10.3,11.8,10.4
			C11.8,10.3,11.8,10.3,11.8,10.4C11.8,10.3,11.8,10.3,11.8,10.4C11.8,10.3,11.8,10.4,11.8,10.4 M12.5,10.8
			C12.5,10.8,12.4,10.8,12.5,10.8C12.4,10.8,12.4,10.8,12.5,10.8c0-0.1-0.1-0.1-0.1-0.1l0,0l0,0l0,0C12.5,10.7,12.5,10.7,12.5,10.8
			L12.5,10.8L12.5,10.8 M11.9,10.3L11.9,10.3C11.9,10.3,11.9,10.3,11.9,10.3L11.9,10.3L11.9,10.3L11.9,10.3
			C11.8,10.3,11.8,10.3,11.9,10.3c-0.1,0-0.1,0-0.1,0.1l0,0l0,0C11.7,10.3,11.7,10.3,11.9,10.3L11.9,10.3
			C11.9,10.2,11.9,10.2,11.9,10.3L11.9,10.3L11.9,10.3 M12.1,10.3L12.1,10.3c-0.1,0-0.1,0-0.2,0.1l0,0l0,0c0,0,0,0,0.1,0
			C11.9,10.3,11.9,10.3,12.1,10.3L12.1,10.3L12.1,10.3c-0.1,0.1-0.1,0.1-0.1,0.1l0,0l0,0C11.9,10.4,11.9,10.3,12.1,10.3
			c-0.1,0.1-0.1,0.1-0.1,0.1l0,0l0,0c0,0,0,0.1-0.1,0.1l0,0c0,0,0,0,0.1-0.1c0,0,0,0,0-0.1C12,10.3,12,10.2,12.1,10.3L12.1,10.3
			c0-0.1,0-0.1,0.1-0.1l0,0l0,0c0,0,0,0-0.1,0c0,0,0,0,0.1-0.1l0,0c0,0,0,0,0,0.1l0,0c0,0,0,0,0.1,0C12.1,10.2,12.1,10.2,12.1,10.3
			L12.1,10.3C12.1,10.2,12.1,10.2,12.1,10.3C12.1,10.2,12.1,10.2,12.1,10.3L12.1,10.3L12.1,10.3 M12.5,10.5L12.5,10.5
			C12.5,10.4,12.5,10.4,12.5,10.5C12.5,10.4,12.6,10.4,12.5,10.5C12.6,10.5,12.5,10.5,12.5,10.5L12.5,10.5 M12.2,10.2
			C12.2,10.2,12.2,10.2,12.2,10.2C12.2,10.2,12.2,10.1,12.2,10.2C12.2,10.1,12.2,10.1,12.2,10.2C12.2,10.1,12.2,10.1,12.2,10.2
			C12.2,10.1,12.2,10.1,12.2,10.2L12.2,10.2L12.2,10.2 M20.9,8.7C20.9,8.7,20.9,8.7,20.9,8.7L20.9,8.7L20.9,8.7
			C20.9,8.7,20.9,8.7,20.9,8.7C20.9,8.7,20.9,8.7,20.9,8.7 M12.6,10.2L12.6,10.2L12.6,10.2C12.6,10.2,12.6,10.1,12.6,10.2
			C12.6,10.1,12.6,10.1,12.6,10.2L12.6,10.2L12.6,10.2L12.6,10.2 M20.7,8.5L20.7,8.5C20.7,8.5,20.7,8.5,20.7,8.5
			C20.7,8.5,20.7,8.5,20.7,8.5C20.7,8.5,20.7,8.5,20.7,8.5C20.7,8.5,20.7,8.5,20.7,8.5C20.7,8.5,20.7,8.5,20.7,8.5L20.7,8.5
			L20.7,8.5L20.7,8.5 M12.6,10.1L12.6,10.1C12.6,10,12.6,10.1,12.6,10.1L12.6,10.1 M15.6,10.6C15.6,10.6,15.6,10.7,15.6,10.6
			L15.6,10.6C15.5,10.6,15.5,10.5,15.6,10.6C15.6,10.5,15.6,10.5,15.6,10.6L15.6,10.6L15.6,10.6L15.6,10.6L15.6,10.6L15.6,10.6
			L15.6,10.6L15.6,10.6L15.6,10.6L15.6,10.6L15.6,10.6 M12.7,9.7L12.7,9.7C12.7,9.7,12.7,9.8,12.7,9.7C12.7,9.8,12.7,9.8,12.7,9.7
			C12.7,9.7,12.7,9.7,12.7,9.7L12.7,9.7C12.8,9.7,12.7,9.7,12.7,9.7 M15.9,10.3C15.9,10.3,15.9,10.3,15.9,10.3
			C15.8,10.3,15.8,10.3,15.9,10.3c-0.1-0.1-0.1-0.1-0.1-0.1l0,0l0,0C15.8,10.2,15.8,10.2,15.9,10.3C15.9,10.3,15.9,10.3,15.9,10.3
			C15.9,10.3,15.9,10.3,15.9,10.3 M6.6,13.2L6.6,13.2L6.6,13.2L6.6,13.2 M20.6,8.2C20.4,8.2,20,8.8,20,8.8h0.1H20
			c0,0.1,0,0.1-0.1,0.2l-1.1,0.4c0,0,0.1,0,0.1,0.1c-0.1,0.1-0.1,0.2-0.2,0.2s-0.1,0-0.1,0l0,0l0,0l0,0l0,0l0,0l0,0l0,0l0.1,0.1
			c0,0.1,0,0.1,0,0.1l0,0c-0.2,0-0.4-0.1-0.8-0.1c0,0,0,0.1,0.1,0.1c-0.2,0.1-0.4,0-0.7,0.1c0,0,0-0.1,0.1-0.1h-0.1
			c-0.1,0.1-0.1,0.1-0.2,0.2c0.1-0.1,0.2-0.2,0.2-0.2c-0.1-0.1-0.2-0.1-0.4-0.1c-0.1-0.1-0.1-0.1-0.2-0.1c-0.1,0-0.2,0.1-0.2,0.2
			c-0.2-0.1-0.6,0.1-0.6,0.1l0,0l0,0L16,9.9c-0.1,0-0.2,0-0.2,0c0,0,0,0.1-0.1,0.1c0.1,0.1,0.1,0.1,0.1,0.1C15.6,10,15.6,10,15.5,10
			L15.4,10c0-0.1-0.1-0.1-0.1-0.1V10c0,0-0.1,0-0.1,0.1c0,0.1,0,0.2,0,0.2c0.1,0,0.1,0.1,0.1,0.1h-0.1c0,0,0,0.4-0.3,0.2
			c0.1,0,0.1,0,0.2-0.7c-0.1,0-0.1-0.1-0.1-0.1c-0.1,0.1-0.1,0.2-0.2,0.2c0,0.1,0,0.1,0.1,0.2c-0.1-0.1-0.1-0.1-0.6-0.2
			c0,0.1,0.1,0.1,0.1,0.1l-0.1,0.1c-0.1-0.1-0.8-0.1-0.9,0c0,0-0.1,0-0.1-0.1s0.1-0.1,0.1-0.1C13.6,10,13.6,10,13.5,10
			c0,0.1-0.1,0.1-0.1,0.1v0.1c-0.2,0-0.2,0-0.3,0v0.1c-0.1,0-0.1-0.1-0.1-0.1h-0.1v0.1h-0.1c-0.1-0.1-0.1-0.1,0.1-0.2V9.9
			c0.3,0.2,0.3,0.2,0.4,0.1C13.4,9.8,13,9.5,13,9.4c0,0,0-0.1,0.1-0.1C13,9.3,13,9.2,12.9,9.2c0,0,0.1,0,0.1-0.1l0,0l0,0l0,0
			c-0.2-0.1-0.4-0.1-0.6-0.1c0,0-0.1,0-0.1,0.1h-0.1c0,0,0.1,0,0.1,0.1c-0.4,0.2-1.1-0.1-1.5,0.6v0.1c0.1,0,0.1,0,0.2,0
			c0,0.1,0,0.1-0.1,0.4c-0.1,0-0.1,0-0.2,0c0,0.1-0.1,0.1-0.1,0.1c0.1-0.1,0.1-0.1,0.1-0.1v0.1c0.6-0.1,0.8-0.2,0.8-0.4
			c0.2-0.4,0.8-0.3,0.8-0.3s0,0.1-0.1,0.1c-0.2,0.1-0.2,0.1-0.6,0.3c0,0.1,0,0.1,0,0.2c0.1,0.1,0.1,0.1,0.3,0.1v0.1
			c-0.1,0-0.2-0.1-0.4-0.1l-0.1,0.1v-0.1c-0.1,0-0.1,0-0.1,0l0,0l0,0l-0.1,0.1c0.1,0,0.1,0.1,0.1,0.1s0,0.1-0.1,0.2
			c0-0.1-0.1-0.1-0.1-0.1c-0.1,0-0.2,0.2-0.4,0.2c-0.1-0.1-0.1-0.1-0.3-0.1c-0.1,0-0.1,0-0.1,0l0,0l0,0l0,0l0,0l0,0l0,0l0,0v-0.1
			c-0.1,0-0.1-0.1-0.2-0.1c0-0.1,0-0.1,0.1-0.1h0.1c0,0,0-0.1,0.1-0.1h0.1c0-0.1,0.1-0.1,0.1-0.1c-0.1-0.1-0.1-0.1-0.5,0.2
			c-0.1,0-0.1-0.1-0.2-0.1c-0.2,0.1-0.7,0.1-0.7,0.1v-0.1l0,0l0,0l0,0l0,0l0,0l0,0l0,0l0,0c-0.1,0.1-0.1,0.1-0.1,0.1l0,0
			c0-0.1,0-0.1-0.1-0.1c-0.3,0.1-0.2,0.6-0.5,0.8c0,0-0.1,0-0.1-0.1c0-0.1-0.1-0.2-0.1-0.3c0,0-0.1,0-0.1-0.1
			c-0.7,0.7-0.7,0.7-0.7,0.8c0,0.1,0,0.1,0,0.1c-0.1,0.2-0.1,0.2-0.3,0.4H7.3c-0.1,0-0.1,0.1-0.2,0.2l0,0c-0.2,0.3-0.6,0.6-0.7,0.9
			l0,0c-0.2,1.1-0.2,1.1-0.3,1.6l0,0v0.2l0,0c0,0.2,0,0.3-0.1,0.6l0,0v0.2v0.1c0,0,0.6,3.3,1.8,5.6c0.2,0.3,0.8,1.2,2.4,2.5h0.1l0,0
			c0.2,0.1,0.2,0.1,0.3,0.2c0-0.1,0-0.2-0.1-0.2h0.1v-0.1c-0.1-0.1-0.1-0.2-0.2-0.3c0.1-0.1,0.1-0.1,0.4-0.2c0.1-0.4-0.6-0.6-0.4-1
			c-0.1-0.1-0.1-0.1-0.1-0.8c0.4,0,1.7-1.5,1.5-1.9c-0.2,0-1,0-1,0c-0.1-0.1-0.1-0.2-0.2-0.3h0.1c-0.1-0.6-0.6-1-0.7-1.6l-0.1-2.1
			c0.1,0.2,0.1,0.2,0.1,0.2h0.1c0.6,1,0.3,2.1,0.8,3.2c0.4,0.1,1.6-0.2,1.8-0.4v-0.1c0.1,0,0.1,0,0.2,0c0-0.1,0.1-0.1,0.1-0.1h0.1
			c0-0.1,0.1-0.1,0.1-0.2c0.1,0,0.1,0,0.1,0s0-0.1,0-0.1C13,18,13,18,13.1,17.9c-0.4-0.4-0.4-0.4-0.4-0.8c-0.2,0.1-0.4,0.2-0.7,0.2
			l-0.1-0.1c0.1-0.2,0.1-0.2,0.1-0.2h-0.1l-0.1,0.1c-0.1-0.2-0.2-0.9-0.2-0.9c0.1-0.1,0.1-0.1,0.2-0.1c0,0.1,0.1,0.3,0.1,0.4
			c0.4,0.2,0.4,0.2,0.7,0.3c0,0.1,0,0.1,0,0.2c0.4,0.2,0.8,0.3,1.5,0.3c0,0,0.2,0.4,0.6,0.6c-0.1,0-0.1,0.1-0.1,0.1
			c0.2,0.6,0.4,0.2,0.6,0.2c0,0,0-0.1,0.1-0.1c0,0.1,0,0.1,0.1,0.6c0.1,0.8,0.8,1.9,0.8,1.9c0.1,0,0.2-0.1,0.3-0.4h0.1
			c0-0.3,0.1-1,0.1-1h0.1c0.1-0.1,0.1-0.1,0.2-0.2v-0.1c0.1-0.1,0.2-0.2,0.8-0.8c0,0,0-0.1-0.1-0.1c0.2-0.2,0.6-0.2,0.8-0.4
			c0.3,0.4,0.3,0.4,0.4,0.6v0.1c0.2,0.1,0.2,0.1,0.1,0.6c0.1,0,0.1,0,0.4-0.2c0.1,0.1,0.1,0.1,0.2,0.6h0.1c0.1,0.3-0.1,0.7,0.1,1
			v-0.1c0.1,0.1,0.2,0.2,0.2,0.3c0,0.1,0.1,0.6,0.7,0.6l-0.4-0.8c-0.2,0-0.2,0-0.2-0.2c-0.2-0.1-0.1-0.1-0.1-0.4
			c0.1-0.2,0.1-0.2,0-0.3c0,0,0.1,0,0.1-0.1c0,0.1,0.1,0.1,0.1,0.1c0.2-0.1,0.4,0.1,0.6,0.3v-0.1h0.1c0.1,0.1,0,0.2,0.1,0.2
			c0.2-0.2,0.2-0.2,0.3-0.4c0.2-0.1,0.6-0.3,0.2-0.9c-0.1-0.2-0.4-0.2-0.6-0.4c-0.1-0.1,0.1-0.3,0.1-0.4c0.2-0.2,0.2-0.2,0.4-0.2
			c0.1,0.1,0.1,0.1,0.1,0.2l0,0l0,0l0,0l0,0l0,0l0,0l0,0l0,0c-0.2,0.1-0.2,0.2-0.1,0.3c0.1,0,0.1,0,0.1,0c0.1-0.2,0.1-0.2,0.1-0.4
			c0,0-0.1,0-0.1,0c0.2-0.7,1.1-0.7,0.9-1.4c0.1-0.1,0.2-0.1,0.2-1.2c-0.1,0-0.1,0.1-0.1,0.1c0-0.1,0.1-0.1,0.1-0.2
			c0-0.1-0.1-0.1-0.1-0.1c-0.2-0.1-0.3-0.2-0.6-0.3c0-0.2,0.1-0.3,0.1-0.6c-0.2,0-0.2,0-0.2,0.2c-0.1,0-0.1-0.1-0.1-0.1
			c-0.1,0-0.1,0-0.2,0c0,0,0-0.1-0.1-0.1c0.1-0.1,0.1-0.1,0.1-0.2c0.1-0.1,0.1-0.1,0.1-0.1l0,0v-0.1l0.1-0.1l0.1,0.1
			c0,0.1,0,0.1,0.1,0.1V14c0.1-0.1,0.1-0.3,0.3-0.3c0.1,0.1,0.1,0.1,0.1,0.2c0.1,0,0.1,0,0.2,0l0.1,0.1c0,0.2,0.1,0.3,0.2,0.4
			c0.1-0.1,0.2-0.2,0.1-0.4c-0.1-0.2-0.3-0.2-0.6-0.4c0.1-0.1,0.1-0.1,0.1-0.2c-0.1-0.1-0.1-0.1-0.1-0.4c0.2,0,0.2-0.1,0.1-0.8
			c-0.1-0.3-0.3-0.6-0.4-0.8c0.3,0.1,0.6,0.4,0.8,0.7l-0.1-0.1h0.1c-0.1-0.1-0.2-0.2-0.4-0.3c0.1,0,0.1,0,0.1,0
			c-0.2-0.1-0.6-0.3-0.8-0.4c0,0.1,0,0.1,0.1,0.2c-0.2-0.1-0.2-0.1-0.4-0.1v0.1c-0.1-0.1-0.1-0.1-0.2,0c-0.1-0.2-0.2-0.8-0.2-0.8
			c0.2-0.2,0.2-0.2,0.2-0.3h0.1c0.1-0.1,0.1-0.1,0.1-0.1c-0.1,0-0.1,0-0.2-0.2V9.7c0.1,0,0.1,0,0.2,0c0-0.1-0.1-0.1-0.1-0.2
			c0,0-0.1,0-0.1-0.1l0,0l0,0l0,0l0,0l0,0l0,0l0,0l0,0c0.1,0.1,0.1,0.1,0.2,0.1c0.2,0.2,0.3,0.6,0.6,0.8c0.2,0.1,0.6,0.1,0.8,0.4
			c-0.1-0.2-0.4-0.6-0.4-0.6c0-0.1-0.1-0.2-0.2-0.2l0,0c-0.1-0.1-0.1-0.1-0.2-0.1c-0.2-0.1-0.2-0.1-0.2-0.2c0-0.1,0-0.1-0.1-0.2
			l0.1-0.1C21,9,21,9,20.9,8.8c-0.2,0-0.2,0-0.3-0.2c0.1-0.1,0.1-0.1,0.1-0.1C20.8,8.3,20.7,8.2,20.6,8.2"/>
		<path class="st1" d="M15.9,6.3L15.9,6.3L15.9,6.3L15.9,6.3L15.9,6.3C15.9,6.3,15.9,6.3,15.9,6.3L15.9,6.3L15.9,6.3L15.9,6.3
			 M15.3,6.3L15.3,6.3c0,0,0.1,0,0.1,0l0,0l0,0h0.1c0,0,0,0,0.1,0c0,0,0,0-0.1,0l0,0l0,0h0.1c0,0,0,0,0.1,0c0.1,0,0.1,0,0.1,0h-0.1
			c0.1,0,0.1,0,0.1,0c0,0,0.2,0,0.3-0.1c-0.1,0-0.2,0-0.2,0l0,0l0,0l0,0l0,0l0,0c-0.1,0-0.1,0-0.2,0h0.1l0,0
			C15.6,6.2,15.4,6.3,15.3,6.3"/>
		<path class="st1" d="M18.4,9.3L18.4,9.3C18.3,9.4,18.3,9.3,18.4,9.3C18.3,9.3,18.3,9.3,18.4,9.3C18.2,9.3,18.2,9.3,18.4,9.3
			C18.3,9.3,18.3,9.3,18.4,9.3"/>
		<path class="st1" d="M15.1,6.2L15.1,6.2L15.1,6.2C15.1,6.2,15.1,6.2,15.1,6.2L15.1,6.2L15.1,6.2 M14.9,6.2L14.9,6.2L14.9,6.2
			C14.9,6.2,14.9,6.2,14.9,6.2C14.9,6.2,14.9,6.2,14.9,6.2 M15.3,6.2C15.4,6.2,15.4,6.2,15.3,6.2h0.1C15.4,6.2,15.4,6.2,15.3,6.2
			L15.3,6.2 M16.7,6.2L16.7,6.2L16.7,6.2C16.7,6.2,16.7,6.2,16.7,6.2L16.7,6.2L16.7,6.2 M15.9,6.1L15.9,6.1L15.9,6.1
			C15.9,6.1,15.9,6.1,15.9,6.1C15.9,6.1,15.9,6.1,15.9,6.1C15.9,6.1,15.9,6.1,15.9,6.1C15.9,6.1,15.9,6.1,15.9,6.1
			C15.9,6.1,15.9,6.1,15.9,6.1C15.9,6.1,15.9,6.1,15.9,6.1C15.9,6.1,15.9,6.1,15.9,6.1C15.9,6.1,15.9,6.1,15.9,6.1
			C15.9,6.1,15.9,6.1,15.9,6.1C15.9,6.1,15.9,6.1,15.9,6.1C15.9,6.1,15.9,6.1,15.9,6.1C15.9,6.1,15.9,6.1,15.9,6.1
			C15.9,6.1,15.9,6.1,15.9,6.1L15.9,6.1 M15,6.2L15,6.2C15.1,6.2,15.1,6.2,15,6.2L15,6.2C15.1,6.2,15.1,6.2,15,6.2L15,6.2 M15.8,6.1
			C15.8,6.1,15.9,6.1,15.8,6.1c0.1,0,0.1,0,0.1,0C15.8,6.1,15.8,6.1,15.8,6.1L15.8,6.1 M16.6,6.2L16.6,6.2L16.6,6.2
			C16.6,6.2,16.6,6.2,16.6,6.2C16.6,6.2,16.6,6.2,16.6,6.2C16.6,6.2,16.6,6.2,16.6,6.2C16.6,6.2,16.6,6.2,16.6,6.2
			C16.6,6.2,16.6,6.2,16.6,6.2C16.6,6.2,16.6,6.2,16.6,6.2L16.6,6.2 M14.4,6.3L14.4,6.3c0.1,0,0.1,0,0.1,0l0,0l0,0l0,0l0,0l0,0l0,0
			l0,0l0,0C14.4,6.3,14.4,6.3,14.4,6.3 M16.1,6.2C16.1,6.2,16.1,6.2,16.1,6.2S16.1,6.2,16.1,6.2L16.1,6.2 M15.4,6.2L15.4,6.2
			C15.4,6.2,15.4,6.2,15.4,6.2C15.4,6.2,15.4,6.2,15.4,6.2L15.4,6.2 M16.6,6.2c0,0,0.2,0,0.4,0c-0.1,0-0.1,0-0.2,0l0,0l0,0
			c0,0,0,0,0.1,0H16.6c0.1,0,0.1,0,0.1,0C16.6,6.2,16.6,6.2,16.6,6.2S16.5,6.2,16.6,6.2C16.5,6.2,16.5,6.2,16.6,6.2 M17,6.2L17,6.2
			C17.1,6.2,17.1,6.2,17,6.2C17.1,6.2,17,6.2,17,6.2C17,6.2,17,6.2,17,6.2C17,6.2,17,6.2,17,6.2L17,6.2L17,6.2L17,6.2 M14.7,6.2
			c0,0,0,0,0.1,0l0,0l0,0l0,0C14.9,6.2,14.9,6.2,14.7,6.2h0.1l0,0l0,0l0,0C14.8,6.2,14.8,6.2,14.7,6.2C14.7,6.3,14.7,6.3,14.7,6.2
			L14.7,6.2C14.7,6.2,14.8,6.2,14.7,6.2C14.8,6.2,14.7,6.2,14.7,6.2L14.7,6.2L14.7,6.2L14.7,6.2L14.7,6.2L14.7,6.2L14.7,6.2
			L14.7,6.2L14.7,6.2L14.7,6.2L14.7,6.2 M14.1,6.4L14.1,6.4L14.1,6.4L14.1,6.4 M14,6.4L14,6.4L14,6.4L14,6.4 M18.3,6.5L18.3,6.5
			L18.3,6.5C18.3,6.5,18.3,6.5,18.3,6.5C18.3,6.5,18.3,6.5,18.3,6.5C18.3,6.5,18.4,6.5,18.3,6.5C18.4,6.5,18.4,6.5,18.3,6.5
			C18.4,6.5,18.4,6.5,18.3,6.5C18.4,6.5,18.4,6.5,18.3,6.5C18.4,6.5,18.4,6.5,18.3,6.5C18.4,6.5,18.4,6.5,18.3,6.5
			C18.4,6.5,18.4,6.5,18.3,6.5C18.4,6.5,18.4,6.5,18.3,6.5C18.4,6.5,18.4,6.5,18.3,6.5C18.4,6.5,18.4,6.5,18.3,6.5
			C18.4,6.5,18.4,6.5,18.3,6.5C18.4,6.5,18.3,6.5,18.3,6.5L18.3,6.5L18.3,6.5 M13.9,6.5L13.9,6.5C13.9,6.5,13.9,6.5,13.9,6.5
			L13.9,6.5L13.9,6.5L13.9,6.5L13.9,6.5L13.9,6.5L13.9,6.5 M14.3,6.4L14.3,6.4L14.3,6.4C14.3,6.3,14.2,6.3,14.3,6.4L14.3,6.4
			L14.3,6.4L14.3,6.4L14.3,6.4L14.3,6.4L14.3,6.4 M12.7,6.9c0.1,0,0.1,0,0.4-0.2l0,0h0.1l0,0l0,0l0,0l0,0l0,0l0,0l0,0l0,0
			c0,0,1.2-0.2,1.3-0.4c-0.1,0-0.2,0.1-0.3,0c0.1,0,0.1-0.1,0.6-0.1c-0.1,0.1-0.1,0.1-0.2,0.1c0.1,0,0.1,0,0.4-0.1c0,0,0,0-0.1,0
			c0.2,0,0.2,0,0.2-0.1h-0.1c0.3-0.1,0.3-0.1,0.6-0.1c-0.1,0-0.2,0-0.2,0c-0.1,0-0.1,0-0.1,0h-0.1c0.1,0,0.1,0,0.2,0l-0.1,0.1
			c0.2,0,0.2,0,0.2-0.1l0,0l0,0l0,0l0,0l0,0l0,0l0,0l0,0c0,0,0.4,0,0.7,0.1c0,0,0,0,0.3,0c-0.1,0-0.1,0-0.4,0h0.1c0,0,0,0-0.3,0
			c0.1,0,0.2,0,0.3,0c-0.2-0.1-0.3,0-0.6,0c0.1,0,0.4,0,0.4,0h-0.1c1.8,0.2,1.8,0.2,2.1,0.3l0,0l0,0l0,0l0,0l0,0l0,0l0,0l0,0
			c0.4,0.2,0.4,0.2,1.1,0.4c0,0,0,0,0-0.1c0,0,0,0,0.1,0l0,0c0.1,0,0.1,0,0.1,0.1c0,0,0,0-0.1,0C19.5,6.9,19.7,7,19.7,7
			c0-0.1,0-0.1-0.1-0.1c0.2,0.1,0.4,0.3,0.8,0.3c-0.1-0.1-0.1-0.1-0.1-0.1c0.1,0,0.1,0.1,0.2,0.1C20.4,7.1,20.3,7,20.2,7
			c0.1,0,0.1,0,1,0.6c-0.1-0.1-0.4-0.2-0.4-0.2s0,0,0.1,0c-0.2-0.1-0.4-0.2-0.6-0.3c0,0,0,0,0.1,0c0,0-0.1,0-0.1-0.1l0,0
			c0,0,0,0,0.1,0c-0.1-0.1-0.1-0.1-0.8-0.3c0.1,0.1,0.2,0.1,0.2,0.1c-0.1-0.2-0.1-0.2-0.4-0.2l0,0l0,0l0,0l0,0l0,0l0,0l0,0l0,0
			c-0.1-0.1-0.8-0.2-0.8-0.2c-0.6-0.1-0.6-0.1-0.9-0.2C17.2,6,17.2,6,16.9,6c-0.6,0-0.6-0.1-0.8-0.1c-0.4,0-0.6,0-0.8,0
			c-0.2,0-0.4,0.1-0.7,0.1l0,0c-0.2,0-0.2,0-0.4,0.1c0,0,0.1,0,0.1-0.1C14,6.1,14,6.1,13.7,6.2c0.2,0,0.3-0.1,0.4-0.1
			c-0.1,0-0.2,0-0.2,0.1h0.1c-0.1,0-0.1,0-0.1,0.1h0.1c-0.1,0-0.1,0-0.2,0.1c-0.1,0-0.1,0-0.1,0c-0.1,0-0.2,0.1-0.4,0.1
			c0,0,0,0,0-0.1c0,0,0,0-0.1,0c0.1,0,0.1-0.1,0.2-0.1c-0.1,0-0.2,0.1-0.4,0.1l0,0l0,0l0,0l0,0l0,0l0,0l0,0l0,0
			c-0.4,0.1-0.4,0.1-0.4,0.2c0.1,0,0.2-0.1,0.2-0.1c-0.2,0.1-0.2,0.1-0.3,0.1c0,0,0.1,0,0.1,0c0,0,0,0-0.1,0c0.1,0,0.2-0.1,0.3-0.1
			C12.9,6.8,12.7,6.8,12.7,6.9C12.7,6.8,12.7,6.8,12.7,6.9L12.7,6.9 M11.1,7.4C11.1,7.4,11.2,7.4,11.1,7.4
			C11.2,7.4,11.1,7.4,11.1,7.4L11.1,7.4L11.1,7.4 M11.2,7.3c0.1-0.1,0.1-0.1,0.2-0.1l0,0C11.7,7.2,11.9,7.1,12,7l0,0
			c0.2-0.1,0.3-0.1,0.6-0.2l0,0c0,0,0.1-0.1,1.1-0.3c-0.1,0-0.4,0.1-0.9,0.2C12.1,7,12.1,7,11.7,7.2L11.2,7.3L11.2,7.3L11.2,7.3
			C11.2,7.3,11.2,7.3,11.2,7.3"/>
		<path class="st1" d="M20.9,8.2L20.9,8.2C20.9,8.2,20.9,8.2,20.9,8.2c0,0.1,0,0.1,0,0.1l0,0C20.9,8.3,20.9,8.3,20.9,8.2
			C20.9,8.2,20.9,8.2,20.9,8.2C20.9,8.2,20.9,8.2,20.9,8.2C20.9,8.2,20.9,8.2,20.9,8.2C20.9,8.2,20.9,8.2,20.9,8.2L20.9,8.2
			L20.9,8.2L20.9,8.2L20.9,8.2"/>
		<path class="st1" d="M22.2,9.7C22.2,9.7,22.1,9.7,22.2,9.7C22.1,9.7,22.1,9.7,22.2,9.7C22.1,9.7,22.1,9.7,22.2,9.7
			C22,9.7,22,9.7,22.2,9.7C22.1,9.7,22.1,9.7,22.2,9.7L22.2,9.7"/>
		<path class="st1" d="M21.7,8.1c0,0,0.1,0.1,0.1,0.1l0,0C21.9,8.2,21.8,8.1,21.7,8.1L21.7,8.1"/>
		<path class="st1" d="M22.5,9.2C22.6,9.2,22.6,9.2,22.5,9.2C22.5,9.2,22.5,9.2,22.5,9.2L22.5,9.2L22.5,9.2"/>
		<path class="st1" d="M23.2,13.8L23.2,13.8C23.2,13.9,23.2,13.9,23.2,13.8C23.2,13.9,23.2,13.9,23.2,13.8
			C23.2,13.9,23.2,13.8,23.2,13.8L23.2,13.8L23.2,13.8L23.2,13.8L23.2,13.8L23.2,13.8L23.2,13.8L23.2,13.8L23.2,13.8L23.2,13.8
			L23.2,13.8L23.2,13.8L23.2,13.8L23.2,13.8L23.2,13.8L23.2,13.8C23.2,13.8,23.2,13.8,23.2,13.8L23.2,13.8 M22.9,11.8L22.9,11.8
			c0,0.1,0,0.1,0,0.2c0,0,0-0.1-0.1-0.1c0,0.1-0.1,0.1-0.2,0.1c-0.1,0-0.1-0.1-0.1,0c0.1,0.1,0.1,0.1,0.2,0.3c-0.1,0-0.1,0-0.1,0
			c0.1,0.1,0.1,0.1,0.1,0.1c0.1,0.1,0.1,0.1,0.2,0.2l0.2,0.3c0.1,0.2,0.1,0.3,0,0.4c0-0.1,0-0.1-0.1-0.1c0,0.1,0,0.1,0,0.1
			c0.1,0.1,0.1,0.2,0.1,0.3c-0.1,0-0.1,0-0.1,0.1c-0.1,0.1-0.1,0.1-0.1,0.1c0,0.2,0,0.2-0.1,0.2l0,0l0,0l0,0l0,0l0,0l0,0l0,0l0,0
			c0.1,0.1,0,0.1,0,0.2c0.1,0.1,0.2,0.2,0.2,0.3h0.1l0,0c0,0,0,0,0-0.1l0,0c-0.1-0.3-0.1-0.3-0.1-0.4c0,0-0.1,0-0.1,0.1l0,0
			c0.1-0.1,0.1-0.1,0.1-0.1c0-0.1,0-0.1,0.1-0.2V14c0,0,0,0-0.1,0c0,0.1,0,0.1,0,0.2c0.1,0,0.1,0.1,0.1,0.1c-0.1-0.1,0-0.1,0-0.2
			c0,0,0,0,0.1,0l0,0c0-0.2,0-0.2,0-0.2c0,0.1,0.1,0.1,0.1,0.1c0-0.1,0-0.2,0-0.2c0.1-0.1,0.1-0.1,0.1-0.1c0,0,0,0,0.1,0.1l0,0
			c0-0.1,0-0.1-0.1-0.1c0.1,0,0.1,0,0.1,0s0-0.1,0-0.2c-0.1-0.1-0.1-0.2-0.2-0.4l0,0c0,0,0,0-0.1-0.1c-0.1-0.2-0.2-0.3-0.3-0.2l0,0
			l0,0l0,0c0-0.1,0.1-0.1,0-0.1c-0.1-0.1-0.1-0.1-0.1-0.1c0,0,0,0,0.1,0c0-0.1,0-0.1,0-0.1c0.1,0,0.1,0,0.1,0c0-0.1-0.1-0.1-0.1-0.2
			c0.1-0.1,0-0.1,0-0.1s0,0,0,0.1C22.9,11.9,22.9,11.8,22.9,11.8"/>
		<path class="st1" d="M8.2,10L8.2,10L8.2,10L8.2,10L8.2,10C8.2,10,8.3,10,8.2,10C8.3,10,8.3,10,8.2,10C8.2,9.9,8.2,9.9,8.2,10
			C8.3,9.9,8.3,9.9,8.2,10C8.3,10,8.3,10,8.2,10L8.2,10"/>
		<path class="st1" d="M23.6,18.5L23.6,18.5c-0.1,0.1,0,0.1,0,0.1s0,0,0,0.1c-0.1-0.2-0.1-0.2-0.1-0.2
			C23.6,18.4,23.6,18.4,23.6,18.5c-0.1-0.1-0.1-0.1-0.2-0.1c0,0.1,0.1,0.1,0.1,0.1c-0.1-0.1-0.1-0.1-0.1,0c0-0.1,0-0.1,0-0.1
			s0-0.1,0-0.1l0,0c0-0.1-0.1-0.1-0.1-0.1l0,0c0.1,0.1,0.1,0.1,0.1,0.1c-0.1,0-0.1,0-0.1,0.1c0-0.1,0-0.1,0-0.1s-0.1,0-0.1-0.1
			c0,0,0,0.1-0.1,0.1h-0.1c0-0.1,0-0.1,0-0.1c0-0.1,0-0.1,0.1-0.1c0,0,0,0,0,0.1C23,18.1,23,18,23,17.8h0.1c0-0.1-0.1-0.2-0.1-0.4
			c0-0.1,0-0.1,0.1-0.1c0,0,0,0,0.1,0s0.1,0,0.1-0.1c0,0.2,0,0.2,0.1,0.2c0,0.2,0,0.2-0.1,0.2c-0.1,0.1,0,0.2,0,0.2
			c0.1,0,0-0.1,0.1-0.1v0.1c0,0,0,0.1-0.1,0c0,0.1,0,0.1,0.1,0.1c0.1-0.1,0.2-0.1,0.2-0.1c0,0,0,0,0-0.1l0,0c0-0.1,0.1,0,0.1,0V18
			h-0.1c0,0,0,0,0,0.1c0,0,0,0,0,0.1l0,0l0,0l0,0l0,0l0,0l0,0l0,0l0,0v0.1c0,0,0.1,0,0.1-0.1C23.6,18.2,23.6,18.3,23.6,18.5
			L23.6,18.5"/>
		<path class="st1" d="M23.4,18.5c0,0.1,0,0.1,0,0.1c-0.1,0.1-0.1,0.2-0.1,0.2c-0.1,0-0.1,0-0.1-0.1c0,0,0.1,0,0.1-0.1v-0.1
			c-0.1,0-0.1,0-0.1,0c-0.1,0-0.1,0.1-0.1,0.1s0,0,0-0.1s0-0.1-0.1-0.1c0,0,0-0.1,0.1-0.1c0,0,0,0,0.1,0c0.1,0,0.1,0,0.1,0
			c0,0.1,0,0.1,0,0.1l0,0c0,0,0,0,0,0.1s0,0.1,0,0.1C23.4,18.7,23.4,18.5,23.4,18.5C23.4,18.5,23.4,18.5,23.4,18.5"/>
		<path class="st1" d="M22.9,20.5c-0.2,0.1-0.2,0.2-0.2,0.3c-0.1,0.1-0.1,0.1-0.1,0.2s-0.1,0.2-0.1,0.4l0,0v-0.1
			c-0.1,0.1-0.1,0.1-0.2,0.1l0,0c0,0,0,0,0-0.1s-0.1,0-0.1,0.1c0,0,0,0,0-0.1l0,0l0,0c-0.1,0.1-0.1,0.1-0.2,0.1l0,0
			c-0.1,0.1-0.1,0.1-0.2,0.1c-0.1-0.2-0.1-0.2,0-0.2l0,0c0,0-0.1,0-0.1,0.1c-0.1-0.3-0.1-0.3,0.1-0.6c0.1,0.1,0.1,0,0.2,0
			c0-0.1,0.1-0.1,0.1-0.2l0.2-0.1c0.1-0.1,0.1-0.2,0.1-0.3c0.1-0.1,0.2-0.1,0.2-0.2c0.1-0.1,0.1-0.1,0.1-0.1
			c0.1-0.1,0.1-0.1,0.1-0.2l0,0c0-0.1,0-0.1,0.1-0.1l0,0c0,0.1,0,0.1,0,0.1c0.1,0,0.1,0,0,0.1c0.1,0,0.1,0.1,0.2,0l0,0l0,0l0,0l0,0
			l0,0l0,0l0,0l0,0c-0.1,0-0.1,0.1-0.1,0.1l0,0l0,0l0,0l0,0c0,0.1-0.1,0.1-0.1,0.1c0,0.1,0,0.1-0.1,0.1c0.1,0,0.1,0.1,0.1,0.1
			c0,0.1,0,0.1-0.1,0.1C22.7,20.5,22.8,20.5,22.9,20.5L22.9,20.5"/>
		<path class="st1" d="M22.3,22C22.2,22.1,22.2,22.1,22.3,22L22.3,22c-0.1,0.1-0.1,0-0.1,0.1c0,0,0,0,0,0.1
			c-0.4,0.1-1.1,0.2-1.1,0.2s0,0,0-0.1c-0.1,0-0.1,0-0.2,0.1c0.1-0.1,0.1-0.1,0.1-0.2c-0.1,0.1-0.1,0.1-0.1,0.1
			c-0.1-0.1-0.1-0.1-0.2-0.1C20.3,22,20.3,22,20.3,22c-0.1-0.1,0-0.1-0.1-0.2s-0.1-0.1-0.2-0.1c-0.1-0.2-0.1-0.2-0.2-0.2
			c-0.1-0.2-0.4-0.2-0.4-0.4h0.1c0.1,0.1,0.2,0.1,0.4,0c0.1,0.2,0.4,0.2,0.6,0.4c0,0,0,0,0.1-0.1c0.1,0,0.1,0,0.1,0v0.1
			c0.1,0,0.1,0,0.2,0.1l0,0l0,0c0,0,0,0.1,0.1,0.1c0,0.1,0,0.1-0.1,0.1c0,0.1,0,0.1,0.1,0c0,0.1,0,0.1,0.1,0.1c0,0,0,0,0.1,0
			s0.1-0.1,0.1-0.1c0.1,0,0.1,0.1,0.1,0.1c0,0.1,0,0.1,0,0.1c0,0,0,0-0.1,0c-0.1,0.1-0.1,0.2-0.1,0.4c0.2-0.1,0.2-0.1,0.4-0.1
			c0,0,0,0,0,0.1c0.2-0.1,0.2-0.1,0.2-0.1C22.1,22,22.1,22,22.3,22c-0.1,0-0.2,0-0.2,0.1C22.1,22.1,22.2,22,22.3,22
			C22.2,22,22.2,22,22.3,22C22.2,22,22.2,22,22.3,22L22.3,22L22.3,22"/>
		<path class="st1" d="M19.9,21.7C19.9,21.7,19.9,21.7,19.9,21.7L19.9,21.7C19.8,21.7,19.8,21.7,19.9,21.7c-0.1,0.1,0,0.1-0.1,0.1
			L19.9,21.7C19.8,21.8,19.8,21.8,19.9,21.7C19.8,21.7,19.9,21.7,19.9,21.7C19.9,21.7,19.9,21.7,19.9,21.7
			C19.9,21.7,19.9,21.7,19.9,21.7L19.9,21.7"/>
		<path class="st1" d="M24.4,20C24.4,20,24.4,20,24.4,20C24.4,20,24.4,20,24.4,20C24.3,20,24.3,20,24.4,20C24.3,20,24.4,20,24.4,20
			L24.4,20 M25.1,19.8C25.1,19.8,25.1,19.7,25.1,19.8C25.1,19.7,25.1,19.8,25.1,19.8L25.1,19.8C25.1,19.8,25.1,19.8,25.1,19.8
			C25.1,19.8,25.1,19.8,25.1,19.8C25.1,19.8,25.1,19.8,25.1,19.8C25.1,19.8,25.1,19.8,25.1,19.8C25.1,19.8,25.1,19.8,25.1,19.8
			L25.1,19.8C25.1,19.7,25.1,19.7,25.1,19.8C25.1,19.7,25.1,19.7,25.1,19.8c0-0.1,0.1-0.2,0.1-0.2l0,0c0,0,0,0-0.1,0.1l0,0
			c0-0.1,0-0.1,0.1-0.1l0,0c0,0.1,0,0.1,0,0.1l0,0c-0.1,0-0.1,0-0.1,0.1c-0.2,0.1-0.2,0.1-0.3,0.1s-0.1,0.1-0.1,0.2l0,0l0,0l0,0l0,0
			l0,0l0,0l0,0l0,0c-0.1,0.1-0.1,0.2-0.1,0.2c0-0.1,0-0.1,0-0.1c0,0.1,0,0.1,0,0.1c0-0.1,0.1-0.2,0-0.2c-0.1,0.1-0.1,0.1-0.1,0.1
			c-0.1,0.1-0.1,0.1-0.1,0.2l0,0c0,0,0,0-0.1,0c0,0.1,0,0.1,0.1,0.1l0,0v0.1c0.1-0.1,0.1-0.1,0.1-0.1s0,0.1-0.1,0.1
			c0,0-0.1,0-0.1,0.1c0.1,0,0.1,0,0.1,0.1c0,0,0,0,0.1-0.1c0.1,0.1,0.2-0.1,0.2-0.1c0,0.1,0,0.1,0,0.1s-0.1,0.1-0.1,0.3
			c0.2-0.2,0.2-0.2,0.2-0.2s0,0,0,0.1c0.1-0.1,0.1-0.2,0.2-0.3l0,0l0,0c0,0,0-0.1,0.1-0.1c0-0.1,0.1-0.1,0.1-0.1s0,0.1,0,0.1
			c0-0.1,0.1-0.1,0.1-0.1l0,0l0,0l0,0l0,0C25.1,19.9,25.1,19.8,25.1,19.8"/>
		<path class="st1" d="M23.9,20C23.9,20,23.9,20,23.9,20c-0.1,0.1-0.1,0.1-0.1,0.1s0,0.1,0,0.1c-0.1,0.1-0.1,0.1-0.1,0
			c0,0,0,0,0.1,0l0,0C23.8,20.1,23.8,20,23.9,20c-0.1-0.2,0-0.2,0.1-0.2c0,0.1,0,0.1,0,0.1C24,19.8,24,19.8,23.9,20L23.9,20L23.9,20
			C24,19.9,24,19.9,23.9,20C24,20,24,20,23.9,20c0.1,0.1,0.1,0,0.1,0C23.9,19.8,23.9,19.8,23.9,20C23.9,20,23.9,20,23.9,20L23.9,20
			L23.9,20"/>
		<path class="st1" d="M20.2,22.1L20.2,22.1C20.1,22,20.1,22,20.1,22C20.1,22,20.1,22,20.2,22.1C20.1,22,20.2,22,20.2,22.1"/>
		<path class="st1" d="M23.6,21.4c0,0.1-0.1,0.1-0.2,0.2c-0.1,0.1-0.1,0.1-0.2,0.2l0,0l-0.1,0.1c0,0,0,0.1-0.1,0.1c0,0,0,0-0.1,0.1
			C23.2,21.7,23.4,21.5,23.6,21.4C23.6,21.3,23.6,21.3,23.6,21.4"/>
		<path class="st1" d="M23.4,22.2C23.4,22.3,23.3,22.3,23.4,22.2C23.3,22.3,23.3,22.3,23.4,22.2C23.3,22.3,23.3,22.3,23.4,22.2
			C23.3,22.3,23.3,22.2,23.4,22.2C23.3,22.2,23.4,22.2,23.4,22.2L23.4,22.2L23.4,22.2L23.4,22.2L23.4,22.2L23.4,22.2L23.4,22.2
			L23.4,22.2L23.4,22.2 M24.3,21.3l0.1-0.2V21c0.1-0.1,0.1-0.1,0.1-0.2c0,0,0,0.1-0.1,0.1c0.1-0.2,0.1-0.2,0.1-0.3l0,0
			c-0.4,0.9-0.4,0.9-0.6,1l0,0c-0.1,0.1-0.1,0.1-0.1,0c0.1-0.1,0.2-0.2,0.2-0.4l0,0c0,0,0,0-0.1,0.1l0,0c0,0,0,0-0.1,0.1
			c-0.1,0-0.1,0.1-0.1,0.1l0,0c-0.1,0.1-0.1,0.1-0.1,0.1l0,0c0,0,0,0,0,0.1l-0.5,0.6c0-0.1,0-0.1-0.1-0.1c-0.3,0.4-0.3,0.4-0.4,0.4
			c0,0,0,0-0.1,0.1c0-0.1,0-0.1,0-0.1s-0.2,0.1-0.1,0.2c-0.3,0.3-0.8,0.6-1.1,0.9c0,0,0,0,0-0.1l0,0l0,0l0,0l0,0l0,0l0,0l0,0l0,0
			c-0.1,0.1-0.2,0.2-0.2,0.3l0,0L21,24l0,0l0,0l0,0c0,0,0,0,0,0.1l0,0c0,0.1,0,0.1-0.4,0.6c0.2-0.1,1.2-0.7,2.2-1.6
			C23.6,22.3,23.8,22,24.3,21.3"/>
		<path class="st1" d="M13.6,8.8c-0.1,0.1-0.2-0.1-0.2-0.1c0,0.1,0,0.2-0.1,0.2c-0.1,0-0.1-0.1-0.1-0.1c0.1,0,0.1,0,0.1-0.1l0,0
			c-0.1,0-0.2,0-0.2,0.1c0-0.1,0-0.1,0.1-0.2l0,0c0,0,0,0,0-0.1l0,0c0,0,0,0,0-0.1c0,0,0,0,0.1,0l0,0c0,0,0,0,0.1,0c0,0,0,0,0.1-0.1
			c0.1,0.1,0.1,0.1,0.1,0.1l0.1-0.1c0,0,0.1,0,0,0.1l0,0c0.1-0.1,0.1,0,0.1,0.1l0,0h0.1C13.6,8.7,13.7,8.7,13.6,8.8
			C13.7,8.8,13.6,8.8,13.6,8.8"/>
		<path class="st1" d="M15.4,6.3c0,0,0.1-0.1,0.2-0.1C15.6,6.3,15.6,6.3,15.4,6.3L15.4,6.3C15.4,6.3,15.4,6.3,15.4,6.3"/>
		<path class="st1" d="M14.7,6.3C14.7,6.3,14.7,6.3,14.7,6.3L14.7,6.3c0.1,0,0.1,0,0.1,0l0,0l0,0c0,0,0,0,0.1,0l0,0l0,0l0,0H15
			c0.1,0,0.1,0,0.1,0l0,0l0,0l0,0l0,0l0,0h-0.1l-0.2,0.1l0,0l0,0C14.9,6.3,14.8,6.3,14.7,6.3C14.7,6.4,14.7,6.4,14.7,6.3
			C14.7,6.4,14.7,6.4,14.7,6.3L14.7,6.3L14.7,6.3C14.7,6.4,14.7,6.4,14.7,6.3L14.7,6.3"/>
		<path class="st1" d="M14.9,9.7c-0.1,0.1-0.2,0-0.3,0.1l-0.1,0.1l0,0c-0.1,0.1-0.2,0.1-0.2,0.2c-0.1,0.1,0.1,0.1,0,0.2
			c-0.1,0-0.1,0-0.2-0.1v-0.1c-0.1,0-0.1-0.1-0.1-0.1s0,0,0.1,0s0.1,0,0.1-0.1c0,0,0.1-0.1,0.1-0.1c0,0,0,0,0-0.1
			c0.1,0,0.1,0,0.1-0.1c0,0,0-0.1,0.1-0.1l0,0l0,0c0.1,0,0.1,0,0.1-0.1C14.7,9.7,14.9,9.6,14.9,9.7C15,9.5,15,9.5,14.9,9.7
			C15,9.7,15,9.7,14.9,9.7"/>
		<path class="st1" d="M14.9,6.3L14.9,6.3c0.1-0.1,0.1-0.1,0.2-0.1l0,0l0,0l0,0l0,0l0,0l0,0l0,0l0,0l0,0c0,0,0.1,0,0.1,0h0.1l0,0
			c0,0,0,0-0.1,0h-0.1c0,0,0,0,0.1,0C15.1,6.3,15.1,6.3,14.9,6.3L14.9,6.3"/>
		<path class="st1" d="M11.2,8.5c-0.2-0.1-0.1-0.3-0.1-0.3s0,0,0.1,0l0,0c0.1-0.1,0.1-0.1,0.1-0.1s0,0,0.1-0.1l0,0l0,0l0,0l0,0
			c0,0,0-0.1,0.1-0.1s0.1,0,0.1,0.1c0,0.1,0,0.1-0.1,0.1l0,0l0,0c0.1,0,0.1,0,0.1,0c-0.1,0.1,0,0.1,0,0.1l0,0c0,0,0,0-0.1,0.1l0,0
			l0,0c0,0-0.1,0-0.1,0.1C11.3,8.5,11.2,8.5,11.2,8.5"/>
		<path class="st1" d="M9.8,10.3c-0.1,0-0.1,0-0.1,0.1c0,0,0,0,0,0.1c0,0-0.1,0.1-0.1,0s-0.1-0.1-0.1-0.1l0,0H9.4c0-0.1,0-0.1,0-0.1
			l0,0v-0.1c0.1-0.1,0.1-0.1,0.2,0c0.1-0.1,0-0.1,0-0.1s0.1,0,0.1-0.1c0,0,0,0,0.1,0C9.7,10,9.7,9.9,9.7,9.9l0,0l0,0
			c0.1,0,0.1,0,0.1-0.1v0.1c0.1,0,0.1-0.1,0.1-0.1S9.9,9.7,10,9.7c0,0,0,0-0.1-0.1c0,0,0,0,0.1-0.1c0,0,0.1,0,0.1-0.1c0,0,0,0-0.1,0
			c0,0,0,0,0.1-0.1l0,0l0,0c0,0,0.1-0.1,0.1,0l0,0l0,0l0,0l0,0l0,0l0,0l0,0l0,0l0.1-0.1l0,0c0.1,0,0.1-0.1,0.1-0.1
			c0-0.1,0.1,0,0.1,0s0,0-0.1,0.1c0.1-0.1,0.1-0.1,0.2-0.1c0,0,0,0,0.1,0.1c0.1-0.1,0.1-0.1,0.1-0.1l0,0c0,0,0,0,0,0.1
			c-0.1,0-0.1,0.1-0.1,0.1c0,0.1,0.1,0.1,0,0.1c0,0-0.1,0.1-0.2,0.1c0,0.1,0,0.1-0.1,0.1l0,0l-0.1,0.1l0,0c0,0-0.1,0.1-0.2,0.2
			C9.9,10.3,9.9,10.3,9.8,10.3"/>
		<path class="st1" d="M23.7,19c0,0.1,0,0.1-0.1,0.2C23.7,19.2,23.7,19.1,23.7,19c-0.1,0.1-0.1,0.1-0.1,0.1c0,0,0,0,0,0.1
			c0,0,0,0,0,0.1s0,0.1,0,0.1c-0.1,0-0.2,0-0.1-0.1c0.1-0.1-0.1-0.1-0.1-0.1v0.1c0,0-0.1,0-0.1,0.1l0,0c0,0,0,0,0-0.1
			c0,0,0,0.1-0.1,0.1c0,0.1,0,0.1-0.1,0.1l0,0c-0.1-0.1,0-0.1,0-0.2c0.1-0.1,0.1-0.1,0.1-0.2c0,0,0,0,0.1,0.1c0-0.1,0.1-0.1,0.1-0.1
			v-0.1c0,0,0,0,0.1-0.1c0-0.1,0-0.1,0-0.1l0,0c0.1,0,0.1,0.1,0.1,0.1l0,0C23.7,18.8,23.7,18.9,23.7,19"/>
		<path class="st1" d="M24.1,20.5c-0.1,0-0.2,0.1-0.2,0.2c0-0.1,0.1-0.2,0.1-0.2C24.1,20.3,24.1,20.4,24.1,20.5L24.1,20.5"/>
		<path class="st1" d="M22.7,21.9c-0.1,0.1-0.2,0.1-0.2,0.2c0,0,0,0,0-0.1c0,0-0.1,0.1-0.1,0.1l0,0c0-0.1,0.1-0.1,0.1-0.1
			c0,0,0,0,0.1,0c0,0,0,0,0,0.1C22.5,22,22.6,21.9,22.7,21.9C22.6,21.9,22.6,21.9,22.7,21.9C22.6,21.8,22.7,21.8,22.7,21.9
			C22.7,21.8,22.7,21.9,22.7,21.9"/>
		<path class="st1" d="M10.4,21.9L10.4,21.9L10.4,21.9C10.3,21.9,10.3,21.9,10.4,21.9C10.3,21.8,10.3,21.8,10.4,21.9
			C10.3,21.8,10.4,21.8,10.4,21.9C10.4,21.8,10.4,21.8,10.4,21.9"/>
		<path class="st1" d="M10.4,22L10.4,22C10.4,22,10.4,22,10.4,22L10.4,22c-0.1-0.1-0.1-0.1-0.1-0.1C10.3,21.9,10.3,21.9,10.4,22
			L10.4,22L10.4,22"/>
		<path class="st1" d="M23.1,21.3L23.1,21.3L23.1,21.3C23.1,21.2,23.1,21.2,23.1,21.3C23.1,21.2,23.1,21.2,23.1,21.3
			C23.1,21.2,23.1,21.2,23.1,21.3C23.1,21.2,23.1,21.2,23.1,21.3C23.1,21.2,23.1,21.2,23.1,21.3C23.1,21.2,23.1,21.2,23.1,21.3
			C23.1,21.2,23.1,21.2,23.1,21.3C23.1,21.2,23.1,21.2,23.1,21.3C23.1,21.2,23.1,21.2,23.1,21.3C23.1,21.2,23.1,21.2,23.1,21.3
			C23.1,21.2,23.1,21.2,23.1,21.3C23.1,21.2,23.1,21.2,23.1,21.3C23.1,21.2,23.1,21.2,23.1,21.3C23.1,21.2,23.1,21.2,23.1,21.3
			C23.1,21.2,23.1,21.2,23.1,21.3C23.1,21.2,23.1,21.2,23.1,21.3C23.1,21.2,23.1,21.2,23.1,21.3C23.1,21.2,23.1,21.2,23.1,21.3
			L23.1,21.3"/>
		<path class="st1" d="M13.5,6.5C13.6,6.5,13.6,6.5,13.5,6.5C13.6,6.5,13.6,6.5,13.5,6.5C13.6,6.5,13.6,6.5,13.5,6.5L13.5,6.5"/>
		<polyline class="st1" points="16,7.5 16,7.5 16,7.5 16,7.5 16,7.5 16,7.5 16,7.5 16,7.5 16,7.5 16,7.5 16,7.5 16,7.5 		"/>
	</g>
</g>
</svg>
