<?xml version="1.0" encoding="utf-8"?>
<!-- Generator: Adobe Illustrator 19.0.0, SVG Export Plug-In . SVG Version: 6.00 Build 0)  -->
<svg version="1.1" id="Layer_1" xmlns="http://www.w3.org/2000/svg" xmlns:xlink="http://www.w3.org/1999/xlink" x="0px" y="0px"
	 width="20px" height="19.9px" viewBox="6.1 6.1 20 19.9" style="enable-background:new 6.1 6.1 20 19.9;" xml:space="preserve">
<style type="text/css">
	.st0{fill:#0064D2;}
	.st1{fill:#FFFFFF;}
</style>
<g>
	<g>
		<path class="st0" d="M25.7,15.3c0.1,1.4-0.1,2-0.2,3c-0.1,0.4-0.4,1.6-0.9,2.2c-0.4,0.8-0.8,1.4-1.9,2.5c-0.7,0.7-1.7,1.3-2.3,1.7
			c-0.4,0.2-1.4,0.7-2.9,0.9c-1.4,0.2-2.5,0.1-3,0c-0.9-0.1-3-0.6-5.1-2.4c-1.1-0.9-1.6-1.9-1.7-1.9c-0.4-0.7-0.6-0.9-0.7-1.4
			c-0.2-0.4-0.4-1-0.4-1.4c-0.6-2.4-0.1-4.5,0.2-5.6c0.7-1.9,1.9-3.5,3.5-4.6c2-1.4,4-1.8,5.3-1.9c2.6-0.1,4.3,0.9,5,1.2
			c2.2,1.2,3.8,3.7,4,6.7c0.3,5.1-3.2,10.1-8,11.1c4.8-1.1,8.4-6,8-11.1c-0.2-3.1-1.7-5.5-4-6.8c0.3,0.2,0.8,0.4,1.1,0.7
			c0.2,0.2,0.6,0.4,0.8,0.7c1,0.9,1.4,1.7,1.7,1.9C25.4,12.7,25.7,14.6,25.7,15.3"/>
		<path class="st0" d="M16,25.9c-0.7,0-1.2-0.1-1.6-0.1c-0.9-0.1-3.1-0.6-5.2-2.5c-1.1-1-1.7-2-1.7-2c-0.4-0.7-0.6-0.9-0.7-1.4
			c-0.2-0.4-0.4-1-0.4-1.4c-0.7-2.6-0.1-4.7,0.2-5.8c0.7-1.9,1.9-3.5,3.5-4.7c2-1.4,4.1-1.9,5.5-1.9c2.6-0.1,4.5,0.9,5.1,1.2l0,0
			l0,0c0.2,0.1,0.4,0.2,0.6,0.4l0,0c0.2,0.1,0.4,0.2,0.6,0.3c0.2,0.2,0.6,0.4,0.8,0.7c1,0.9,1.6,1.7,1.7,2c1.2,2,1.6,4,1.6,4.7
			c0.1,1.4-0.1,2-0.2,3c-0.1,0.4-0.4,1.6-0.9,2.3c-0.4,0.8-0.9,1.4-1.9,2.5c-0.7,0.7-1.7,1.3-2.4,1.7c-0.4,0.2-1.4,0.7-2.9,0.9
			C17,25.9,16.5,25.9,16,25.9z M16,6.4c-0.1,0-0.2,0-0.3,0c-1.3,0.1-3.3,0.4-5.3,1.9c-1.6,1.1-2.7,2.7-3.4,4.5c-0.4,1-0.9,3-0.2,5.6
			c0.1,0.4,0.3,1,0.4,1.4c0.2,0.6,0.3,0.7,0.7,1.4c0,0,0.6,1,1.6,1.9c2,1.9,4.2,2.3,5,2.4c0.3,0.1,0.8,0.1,1.4,0.1
			c0.4,0,1-0.1,1.6-0.1c1.4-0.2,2.4-0.7,2.8-0.9c0.6-0.2,1.6-0.9,2.2-1.6c1.1-1.1,1.4-1.7,1.9-2.4c0.4-0.7,0.8-1.9,0.9-2.2
			c0.2-0.9,0.3-1.6,0.2-3c-0.1-0.7-0.2-2.6-1.6-4.5c-0.1-0.1-0.1-0.2-0.2-0.4c0.6,1.1,0.9,2.3,1.1,3.7v0.1c0,0.2,0,0.4,0,0.7
			c0,2.4-0.9,4.8-2.3,6.8c-1.6,2-3.6,3.4-5.8,3.8l-0.2-0.4c4.5-1,7.9-5.5,7.9-10.2c0-0.2,0-0.4,0-0.7c-0.2-2.6-1.4-4.8-3.3-6.1
			c-0.2-0.1-0.4-0.2-0.6-0.4C20,7.2,18.3,6.4,16,6.4z"/>
	</g>
	<g>
		<path class="st1" d="M15.1,6.3c-0.3,0.1-0.4,0.1-0.4,0.1c0.1,0,0.1,0,0.2,0C15,6.3,15.1,6.3,15.1,6.3L15.1,6.3"/>
		<path class="st1" d="M15.4,6.3c-0.1,0-0.2,0-0.2,0C15.2,6.3,15.4,6.3,15.4,6.3L15.4,6.3"/>
		<path class="st1" d="M14.7,6.4L14.7,6.4C14.6,6.4,14.6,6.4,14.7,6.4L14.7,6.4L14.7,6.4"/>
		<path class="st1" d="M15,6.3C15,6.3,15,6.3,15,6.3C14.9,6.3,14.9,6.3,15,6.3L15,6.3L15,6.3L15,6.3"/>
		<path class="st1" d="M15.2,6.3c-0.1,0-0.1,0-0.2,0c0.1,0,0.1,0,0.1,0C15.1,6.3,15.1,6.3,15.2,6.3L15.2,6.3"/>
		<path class="st1" d="M17.5,6.4c0,0-0.1,0-0.2,0l0,0c0,0,0,0,0.1,0S17.4,6.4,17.5,6.4L17.5,6.4"/>
		<path class="st1" d="M19.3,6.9C19.3,6.9,19.3,6.9,19.3,6.9L19.3,6.9L19.3,6.9"/>
		<path class="st1" d="M17.9,6.8L17.9,6.8L17.9,6.8C17.8,6.8,17.8,6.8,17.9,6.8L17.9,6.8L17.9,6.8C17.9,6.8,17.9,6.8,17.9,6.8
			L17.9,6.8L17.9,6.8"/>
		<path class="st1" d="M15.8,6.9C15.8,6.9,15.8,6.9,15.8,6.9C15.8,6.9,15.7,6.9,15.8,6.9c-0.1,0-0.1,0-0.1,0S15.7,6.9,15.8,6.9
			L15.8,6.9"/>
		<path class="st1" d="M21.2,7.8L21.2,7.8L21.2,7.8L21.2,7.8L21.2,7.8L21.2,7.8 M21.2,7.8L21.2,7.8L21.2,7.8L21.2,7.8
			C21.1,7.7,21.1,7.7,21.2,7.8C21.1,7.7,21.2,7.8,21.2,7.8L21.2,7.8L21.2,7.8"/>
		<path class="st1" d="M19.3,7.2L19.3,7.2L19.3,7.2C19.3,7.2,19.3,7.2,19.3,7.2L19.3,7.2L19.3,7.2L19.3,7.2L19.3,7.2L19.3,7.2
			L19.3,7.2L19.3,7.2L19.3,7.2L19.3,7.2L19.3,7.2"/>
		<path class="st1" d="M20.5,7.5L20.5,7.5h-0.1l0,0C20.4,7.4,20.5,7.4,20.5,7.5L20.5,7.5"/>
		<path class="st1" d="M20.3,7.4L20.3,7.4L20.3,7.4L20.3,7.4C20.3,7.4,20.3,7.4,20.3,7.4c-0.1,0-0.1,0-0.1-0.1
			C20.2,7.4,20.2,7.4,20.3,7.4C20.3,7.4,20.3,7.4,20.3,7.4"/>
		<path class="st1" d="M17.8,7.4C17.7,7.5,17.7,7.5,17.8,7.4C17.7,7.5,17.7,7.5,17.8,7.4C17.7,7.5,17.7,7.4,17.8,7.4L17.8,7.4
			L17.8,7.4"/>
		<path class="st1" d="M17.7,7.5c-0.1,0.1-0.1,0.1-0.1,0.1c-0.1,0,0,0,0-0.1c0,0,0,0,0-0.1C17.6,7.5,17.6,7.5,17.7,7.5L17.7,7.5"/>
		<path class="st1" d="M16.8,8.2C16.8,8.3,16.7,8.3,16.8,8.2C16.7,8.2,16.7,8.2,16.8,8.2C16.7,8.2,16.7,8.2,16.8,8.2
			C16.7,8.2,16.7,8.2,16.8,8.2L16.8,8.2"/>
		<path class="st1" d="M15.7,8.7L15.7,8.7C15.6,8.8,15.6,8.8,15.7,8.7C15.6,8.7,15.6,8.7,15.7,8.7C15.6,8.7,15.6,8.7,15.7,8.7
			C15.6,8.7,15.6,8.7,15.7,8.7L15.7,8.7"/>
		<path class="st1" d="M15.3,8.9c0,0-0.1,0.1-0.1,0C15.2,8.9,15.2,8.9,15.3,8.9L15.3,8.9L15.3,8.9"/>
		<path class="st1" d="M16,9.2L16,9.2C16,9.2,16,9.2,16,9.2L16,9.2L16,9.2L16,9.2L16,9.2L16,9.2L16,9.2L16,9.2L16,9.2
			C16,9.2,16,9.2,16,9.2C16,9.2,16,9.2,16,9.2C16,9.2,16,9.2,16,9.2C16,9.2,16,9.2,16,9.2L16,9.2"/>
		<path class="st1" d="M15.8,9.4C15.8,9.5,15.7,9.5,15.8,9.4C15.7,9.5,15.7,9.4,15.8,9.4L15.8,9.4"/>
		<path class="st1" d="M15.6,9.7c0,0-0.1,0.1-0.1,0.1C15.5,9.8,15.5,9.8,15.6,9.7C15.6,9.7,15.6,9.7,15.6,9.7L15.6,9.7"/>
		<path class="st1" d="M14.7,10.1c-0.1,0.1-0.1,0.2-0.1,0.3c0,0.1-0.1,0.1-0.1,0.1c-0.2-0.1-0.1-0.4,0.1-0.6
			C14.6,10,14.6,10,14.7,10.1C14.7,10,14.7,10.1,14.7,10.1"/>
		<path class="st1" d="M24.4,11.7C24.4,11.7,24.4,11.7,24.4,11.7C24.4,11.7,24.4,11.7,24.4,11.7C24.4,11.7,24.4,11.7,24.4,11.7
			S24.4,11.7,24.4,11.7C24.4,11.7,24.4,11.7,24.4,11.7L24.4,11.7"/>
		<path class="st1" d="M24.5,11.9c0,0-0.1-0.1-0.1-0.1l0,0l0,0C24.5,11.8,24.5,11.8,24.5,11.9L24.5,11.9"/>
		<path class="st1" d="M24.7,12.1C24.7,12,24.7,12,24.7,12.1C24.7,12.1,24.7,12,24.7,12.1C24.7,12,24.7,12,24.7,12.1
			C24.6,12,24.6,12,24.7,12.1L24.7,12.1L24.7,12.1L24.7,12.1L24.5,12l0,0l0,0C24.6,12,24.7,12,24.7,12.1L24.7,12.1"/>
		<path class="st1" d="M24.9,12.3L24.9,12.3L24.9,12.3c-0.1-0.1-0.1-0.1-0.1-0.2C24.8,12.2,24.9,12.2,24.9,12.3
			C24.9,12.3,24.9,12.3,24.9,12.3"/>
		<path class="st1" d="M10.1,12.9c0,0.1-0.1,0.2-0.1,0.2c0,0,0,0,0-0.1c0-0.1,0-0.2,0.1-0.2C10.1,12.8,10.1,12.8,10.1,12.9"/>
		<path class="st1" d="M14.7,12.1C14.7,12.2,14.7,12.2,14.7,12.1c-0.1,0.1-0.1-0.1-0.2-0.1c0,0,0,0,0.1,0
			C14.7,11.9,14.7,12,14.7,12.1"/>
		<path class="st1" d="M6.5,14.8c0,0.1,0,0.1-0.1,0.1l0,0l0,0C6.5,14.9,6.5,14.8,6.5,14.8L6.5,14.8L6.5,14.8"/>
		<path class="st1" d="M14.5,12.2L14.5,12.2C14.4,12.3,14.4,12.3,14.5,12.2c-0.1,0.1-0.1,0.1-0.1,0v-0.1l0,0
			C14.4,12.2,14.5,12.2,14.5,12.2C14.5,12.2,14.5,12.2,14.5,12.2"/>
		<path class="st1" d="M14.5,12.5c-0.1,0.1-0.1,0.1-0.2,0.2c-0.1,0.1-0.1,0.2-0.2,0.2c0-0.1,0.1-0.1,0.1-0.2
			c0.1-0.1,0.1-0.2,0.1-0.3l0,0l0,0l0,0l0,0l0,0l0,0l0,0l0,0C14.4,12.3,14.4,12.3,14.5,12.5C14.4,12.5,14.4,12.5,14.5,12.5
			L14.5,12.5"/>
		<path class="st1" d="M15.3,12.6c0,0.1-0.1,0.1-0.1,0C15.1,12.5,15.2,12.5,15.3,12.6C15.3,12.5,15.3,12.6,15.3,12.6"/>
		<path class="st1" d="M8.7,14.6c-0.1,0.1-0.1,0.2-0.2,0.1c-0.1-0.2-0.1-0.4-0.1-0.7c0.1,0.1,0.1,0.1,0.2,0.2
			C8.7,14.2,8.8,14.4,8.7,14.6"/>
		<path class="st1" d="M10.3,13.9L10.3,13.9C10.3,14,10.3,14,10.3,13.9C10.3,14,10.3,14,10.3,13.9C10.3,14,10.3,14,10.3,13.9
			C10.3,14,10.3,14,10.3,13.9C10.3,14,10.3,14,10.3,13.9C10.3,14,10.3,14,10.3,13.9C10.3,14,10.3,13.9,10.3,13.9
			C10.3,13.9,10.3,13.9,10.3,13.9C10.3,13.9,10.3,13.9,10.3,13.9C10.3,13.9,10.3,13.9,10.3,13.9C10.3,13.9,10.3,13.9,10.3,13.9
			C10.3,13.9,10.3,13.9,10.3,13.9L10.3,13.9L10.3,13.9L10.3,13.9L10.3,13.9L10.3,13.9L10.3,13.9L10.3,13.9"/>
		<path class="st1" d="M15,13.1c0,0.1-0.1,0.1-0.1,0C14.9,13.1,14.9,13.1,15,13.1C14.9,13.1,15,13.1,15,13.1L15,13.1"/>
		<path class="st1" d="M15.8,13.6C15.8,13.6,15.8,13.6,15.8,13.6C15.7,13.6,15.7,13.6,15.8,13.6C15.8,13.5,15.8,13.6,15.8,13.6"/>
		<path class="st1" d="M12.6,14L12.6,14L12.6,14L12.6,14C12.6,14,12.6,14,12.6,14C12.6,14,12.6,14,12.6,14"/>
		<path class="st1" d="M10.8,14.8c-0.1,0-0.1,0-0.1,0c0,0,0-0.1-0.1-0.1l0,0C10.7,14.6,10.8,14.7,10.8,14.8L10.8,14.8"/>
		<path class="st1" d="M15.5,14.2c-0.1,0.1-0.2,0.1-0.4,0.2c-0.2,0-0.2,0-0.3,0.1c0,0.1,0,0.1,0,0.1c0,0.1,0.1,0.1,0.1,0.1
			c0.1,0,0.1-0.1,0.1-0.1c0.1,0.1,0.2-0.1,0.3-0.1c0,0.1,0,0.1,0,0.1c0,0.1,0.1,0.1,0.1,0.1c-0.1,0-0.1,0-0.1,0c0-0.1,0-0.1,0-0.1
			s0,0,0-0.1c-0.2,0.1-0.2,0.2-0.1,0.4V15c0.1,0.1,0.1,0.1,0.1,0.1c0,0.1,0.1,0.2,0,0.3c-0.1,0-0.1-0.1-0.1-0.1c0-0.1,0-0.1,0.1-0.1
			c0-0.1-0.1,0-0.1,0v0.1c-0.1,0-0.1-0.1-0.1,0v-0.1c-0.1,0-0.1-0.1-0.1-0.1c0-0.1,0-0.1,0-0.2c-0.1,0-0.1,0.1-0.1,0.1
			c0.1,0.1,0.1,0.3,0.1,0.6c-0.1,0-0.1,0.1-0.2,0.1c0-0.1-0.1-0.1-0.1-0.2c0-0.2,0-0.2-0.1-0.2s-0.1,0-0.1,0c0-0.2,0-0.2,0.1-0.9
			c0.1,0.1,0.1,0.1,0.1-0.1c0.2,0.1,0.3,0.1,0.6,0.1C15.5,14.2,15.5,14.2,15.5,14.2C15.5,14.1,15.5,14.1,15.5,14.2"/>
		<path class="st1" d="M11.1,14.9c0,0.1,0,0.1,0,0.1c-0.1,0-0.1-0.1-0.2-0.1l0,0l0,0l0,0l0,0l0,0l0,0l0,0l0,0
			C11,14.9,11,14.9,11.1,14.9C11.1,14.9,11.1,14.9,11.1,14.9L11.1,14.9"/>
		<path class="st1" d="M12.1,14.8L12.1,14.8c-0.1,0-0.1,0-0.1,0s0,0,0-0.1c0,0,0.1,0,0.1-0.1C12.1,14.7,12.2,14.7,12.1,14.8"/>
		<path class="st1" d="M12.3,14.9L12.3,14.9C12.2,14.9,12.2,14.9,12.3,14.9C12.2,15,12.2,15,12.1,15c0-0.1,0-0.1,0-0.1v-0.1
			C12.2,14.9,12.2,14.9,12.3,14.9C12.2,14.9,12.3,14.9,12.3,14.9"/>
		<path class="st1" d="M16.6,14.4L16.6,14.4c-0.1,0-0.1,0-0.1,0l-0.1-0.1C16.5,14.3,16.5,14.3,16.6,14.4
			C16.6,14.3,16.6,14.3,16.6,14.4C16.7,14.4,16.6,14.4,16.6,14.4"/>
		<path class="st1" d="M15.1,14.6L15.1,14.6L15.1,14.6C15.1,14.6,15.1,14.6,15.1,14.6L15.1,14.6L15.1,14.6L15.1,14.6L15.1,14.6
			L15.1,14.6C15.1,14.4,15.1,14.4,15.1,14.6C15.1,14.4,15.1,14.4,15.1,14.6C15.1,14.4,15.1,14.4,15.1,14.6
			C15.1,14.4,15.1,14.4,15.1,14.6C15.1,14.4,15.1,14.4,15.1,14.6C15.1,14.4,15.1,14.4,15.1,14.6C15.1,14.4,15.1,14.4,15.1,14.6
			C15.1,14.4,15.1,14.4,15.1,14.6C15.1,14.4,15.1,14.4,15.1,14.6C15.1,14.4,15.1,14.4,15.1,14.6C15.1,14.4,15.1,14.4,15.1,14.6
			C15.1,14.4,15.1,14.4,15.1,14.6C15.1,14.4,15.1,14.4,15.1,14.6"/>
		<path class="st1" d="M17.5,14.6c-0.1,0-0.2,0-0.2-0.1c0,0,0.1,0,0.1,0.1L17.5,14.6C17.5,14.4,17.5,14.6,17.5,14.6
			C17.5,14.6,17.5,14.6,17.5,14.6"/>
		<path class="st1" d="M11.4,15.4c-0.1,0.1-0.1,0-0.1-0.1v-0.1l0,0l0,0l0,0l0,0l0,0l0,0l0,0l0,0c0,0.1,0,0.1,0.1,0.1
			C11.4,15.3,11.4,15.3,11.4,15.4L11.4,15.4"/>
		<path class="st1" d="M16.2,14.7c0,0.1-0.1,0.1-0.2,0c0-0.1,0-0.1,0.1-0.1C16.1,14.6,16.1,14.6,16.2,14.7L16.2,14.7"/>
		<path class="st1" d="M15.8,14.8c-0.1,0.1-0.1,0.1,0,0.1C15.7,14.9,15.7,14.8,15.8,14.8c-0.1,0-0.1,0-0.3,0.1c0-0.1,0-0.1,0-0.1
			C15.6,14.8,15.7,14.8,15.8,14.8L15.8,14.8"/>
		<path class="st1" d="M17.6,14.7c-0.1,0.1-0.2,0-0.2-0.1C17.5,14.6,17.5,14.6,17.6,14.7L17.6,14.7"/>
		<path class="st1" d="M16.5,14.8c-0.1,0-0.1,0-0.1-0.1l0,0l0,0l0,0l0,0l0,0l0,0l0,0l0,0C16.5,14.7,16.5,14.7,16.5,14.8L16.5,14.8
			C16.5,14.7,16.5,14.8,16.5,14.8L16.5,14.8"/>
		<path class="st1" d="M19.3,14.8c0,0-0.1,0.1-0.1,0C19.1,14.7,19.2,14.7,19.3,14.8C19.3,14.7,19.3,14.7,19.3,14.8
			C19.3,14.7,19.3,14.8,19.3,14.8"/>
		<path class="st1" d="M19.8,14.9L19.8,14.9h-0.1C19.6,14.9,19.6,14.8,19.8,14.9C19.8,14.8,19.8,14.9,19.8,14.9L19.8,14.9"/>
		<path class="st1" d="M12.8,15.3L12.8,15.3C12.8,15.4,12.8,15.4,12.8,15.3L12.8,15.3c-0.1,0.1-0.1,0.1-0.1,0.1c0-0.1,0-0.1,0-0.1
			C12.8,15.3,12.8,15.3,12.8,15.3C12.8,15.3,12.8,15.3,12.8,15.3"/>
		<path class="st1" d="M20.2,15.2L20.2,15.2C20.2,15.3,20.2,15.3,20.2,15.2c-0.1-0.1-0.1-0.1-0.2-0.2c-0.1-0.1-0.1-0.1-0.1-0.1
			C20,14.9,20.1,15,20.2,15.2L20.2,15.2"/>
		<path class="st1" d="M16,15.1L16,15.1c-0.1,0.1-0.1,0.1-0.1,0.1s-0.1,0-0.1-0.1c-0.1-0.1-0.1-0.1,0.1-0.1c0.1,0,0.1,0,0.1,0
			C16,15,16,15,16,15.1C16,15,16,15,16,15.1"/>
		<path class="st1" d="M20.1,15.3C20.1,15.3,20.1,15.3,20.1,15.3v0.1c0,0-0.1,0.1-0.1,0.1c-0.1,0.1-0.2,0.1-0.3,0
			c-0.1-0.1-0.1-0.1-0.2-0.1c0.1,0,0.2,0.1,0.2,0c0.1,0,0.1-0.1,0.1-0.1s0,0,0,0.1s0,0.1,0,0.1c0.1,0,0.1,0,0.1-0.1
			c0-0.1,0.1-0.1,0.1-0.1s0,0-0.1-0.1H20C20.1,15.2,20.1,15.2,20.1,15.3"/>
		<path class="st1" d="M20.6,15.8c-0.1,0-0.2-0.2-0.2-0.4c0,0.1,0.1,0.1,0.1,0.1C20.6,15.6,20.6,15.7,20.6,15.8L20.6,15.8"/>
		<path class="st1" d="M17.1,15.3c0,0.1,0,0.1-0.1,0.1L17.1,15.3C17,15.4,17,15.4,17.1,15.3C17,15.4,17,15.4,17.1,15.3
			C17,15.4,17,15.4,17.1,15.3C17,15.4,17,15.4,17.1,15.3L17.1,15.3L17.1,15.3L17.1,15.3L17.1,15.3C17,15.4,17,15.4,17.1,15.3
			C17,15.4,17,15.4,17.1,15.3C17,15.3,17,15.3,17.1,15.3L17.1,15.3L17.1,15.3"/>
		<path class="st1" d="M17.3,15.4c0,0.1-0.1,0.1-0.1,0.1L17.3,15.4c-0.1,0-0.1-0.1,0-0.1l0,0l0,0l0,0l0,0l0,0l0,0l0,0l0,0
			C17.3,15.4,17.3,15.4,17.3,15.4"/>
		<path class="st1" d="M15.1,15.7C15.1,15.7,15.1,15.8,15.1,15.7C15,15.7,15,15.6,15.1,15.7L15.1,15.7
			C15.1,15.6,15.1,15.6,15.1,15.7"/>
		<path class="st1" d="M20.9,15.9L20.9,15.9L20.9,15.9L20.9,15.9L20.9,15.9L20.9,15.9L20.9,15.9L20.9,15.9c-0.1,0-0.1-0.1-0.2-0.2
			C20.8,15.8,20.9,15.8,20.9,15.9L20.9,15.9"/>
		<path class="st1" d="M16.9,15.7c0,0.1-0.1,0.2-0.1,0.2C16.8,15.9,16.7,15.8,16.9,15.7L16.9,15.7"/>
		<path class="st1" d="M21.2,16.1c-0.1,0-0.2-0.1-0.2-0.2C21.1,15.9,21.2,16,21.2,16.1L21.2,16.1"/>
		<path class="st1" d="M16.1,15.9C16.1,15.9,16,15.9,16.1,15.9c-0.1,0.1-0.1,0.1-0.2,0.1c0,0,0,0,0-0.1c0,0,0,0,0-0.1c0,0,0,0,0.1,0
			C16,15.9,16,15.8,16.1,15.9C16.1,15.8,16.1,15.8,16.1,15.9L16.1,15.9"/>
		<path class="st1" d="M21,16.1C21,16.1,20.9,16.1,21,16.1L21,16.1L21,16.1c-0.1,0-0.1,0-0.1-0.1c0-0.1,0-0.1-0.1-0.1
			c0-0.1,0-0.1,0.1-0.1l0,0c0,0,0,0,0.1,0.1C20.9,16.1,20.9,16.1,21,16.1L21,16.1"/>
		<path class="st1" d="M15.8,15.9L15.8,15.9L15.8,15.9C15.7,16,15.6,16,15.5,16c-0.2,0-0.3,0.2-0.6,0.1l0,0c-0.1,0,0-0.1-0.1-0.1
			c0.1-0.1,0.2-0.1,0.4,0c0.1-0.1,0.1-0.1,0.1-0.1C15.5,16,15.7,15.9,15.8,15.9L15.8,15.9"/>
		<path class="st1" d="M21.4,16.4c-0.1-0.1-0.1-0.2-0.1-0.3c0,0,0.1,0,0.1,0.1C21.4,16.2,21.4,16.3,21.4,16.4
			C21.4,16.4,21.4,16.4,21.4,16.4"/>
		<path class="st1" d="M15.2,16.3C15.2,16.4,15.1,16.4,15.2,16.3c-0.1,0.1-0.2,0-0.3,0c0-0.1,0.1-0.1,0.1-0.1
			C15.1,16.2,15.1,16.2,15.2,16.3L15.2,16.3"/>
		<path class="st1" d="M21.3,16.4c-0.1,0.1-0.2,0-0.2-0.1l0,0c0,0,0,0,0.1,0C21.3,16.2,21.3,16.3,21.3,16.4L21.3,16.4"/>
		<path class="st1" d="M21.5,16.6c-0.1,0-0.1-0.1-0.1-0.1C21.4,16.5,21.4,16.6,21.5,16.6L21.5,16.6L21.5,16.6"/>
		<path class="st1" d="M17,16.4c0,0.1-0.1,0.1-0.2,0.1v-0.1v-0.1C16.8,16.4,16.9,16.4,17,16.4C16.9,16.4,16.9,16.4,17,16.4L17,16.4"
			/>
		<path class="st1" d="M7.2,19.8C7.2,19.8,7.2,19.8,7.2,19.8L7.2,19.8L7.2,19.8C7.2,19.7,7.2,19.7,7.2,19.8L7.2,19.8L7.2,19.8
			L7.2,19.8"/>
		<path class="st1" d="M21.3,16.7c0,0.1-0.1-0.1-0.1-0.1l0,0l0,0l0,0l0,0l0,0l0,0l0,0l0,0C21.3,16.7,21.3,16.7,21.3,16.7
			C21.3,16.7,21.3,16.7,21.3,16.7"/>
		<path class="st1" d="M7.6,20C7.6,20,7.6,20,7.6,20L7.6,20C7.6,20,7.6,20,7.6,20c0.3,0.6,0.6,1.1,0.9,1.4l0.1,0.1v0.1
			c-0.1,0-0.3-0.3-0.4-0.4l-0.4-0.7c-0.2-0.2-0.2-0.5-0.4-0.7l0,0l0,0c0-0.1-0.1-0.1-0.1-0.1l0,0l0,0c0-0.1-0.1-0.1-0.1-0.2l0,0
			v-0.1C7.5,19.7,7.6,20,7.6,20"/>
		<path class="st1" d="M24.2,17.9L24.2,17.9L24.2,17.9L24.2,17.9L24.2,17.9L24.2,17.9L24.2,17.9L24.2,17.9L24.2,17.9L24.2,17.9
			L24.2,17.9C24.2,17.9,24.1,17.9,24.2,17.9C24.1,17.9,24.1,17.9,24.2,17.9C24.1,17.9,24.1,17.9,24.2,17.9
			C24.1,17.9,24.1,17.9,24.2,17.9C24.1,17.9,24.1,17.9,24.2,17.9C24.1,17.9,24.1,17.9,24.2,17.9C24.1,17.9,24.1,17.9,24.2,17.9
			L24.2,17.9L24.2,17.9"/>
		<path class="st1" d="M17.9,17C17.8,17,17.8,17,17.9,17C17.8,17,17.8,17,17.9,17c-0.1-0.1-0.1-0.1,0-0.1V17
			C17.8,17,17.8,17,17.9,17L17.9,17"/>
		<path class="st1" d="M24.2,18C24.2,18,24.2,18,24.2,18C24.2,18,24.2,18,24.2,18C24.2,17.9,24.2,17.9,24.2,18
			C24.2,17.9,24.2,18,24.2,18L24.2,18"/>
		<path class="st1" d="M22.1,17.6C22.1,17.6,22,17.6,22.1,17.6C22,17.6,22,17.6,22.1,17.6C22,17.5,22,17.5,22,17.4
			c0,0.1,0,0.1,0.1,0.1l0,0C22.1,17.6,22.1,17.6,22.1,17.6L22.1,17.6"/>
		<path class="st1" d="M22.2,17.7C22.2,17.8,22.1,17.8,22.2,17.7C22.1,17.8,22.1,17.7,22.2,17.7c0-0.1,0-0.1,0-0.1l0,0l0,0v-0.1
			c0,0,0,0,0-0.1C22.2,17.6,22.2,17.7,22.2,17.7"/>
		<path class="st1" d="M22.1,17.8C22.1,17.8,22.1,17.8,22.1,17.8C22.1,17.8,22.1,17.8,22.1,17.8C22.1,17.8,22.1,17.8,22.1,17.8
			C22.1,17.8,22.1,17.8,22.1,17.8C22.1,17.7,22.1,17.7,22.1,17.8l-0.1-0.1C22.1,17.7,22.1,17.7,22.1,17.8L22.1,17.8"/>
		<path class="st1" d="M18.3,17.5C18.3,17.6,18.2,17.6,18.3,17.5C18.2,17.4,18.2,17.4,18.3,17.5C18.3,17.4,18.3,17.4,18.3,17.5
			C18.3,17.4,18.3,17.4,18.3,17.5"/>
		<path class="st1" d="M23.2,18.4c-0.1,0-0.1,0-0.1-0.1c0-0.1,0.1-0.1,0.1-0.1c0,0,0,0,0.1,0.1C23.2,18.3,23.2,18.3,23.2,18.4
			L23.2,18.4"/>
		<path class="st1" d="M24.6,19.1C24.5,19.2,24.5,19.2,24.6,19.1C24.5,19.1,24.6,19.1,24.6,19.1C24.6,19,24.6,19,24.6,19.1
			C24.6,19,24.6,19,24.6,19.1L24.6,19.1"/>
		<path class="st1" d="M22.2,18.2L22.2,18.2L22.2,18.2L22.2,18.2L22.2,18.2L22.2,18.2L22.2,18.2L22.2,18.2L22.2,18.2L22.2,18.2
			L22.2,18.2L22.2,18.2L22.2,18.2L22.2,18.2L22.2,18.2L22.2,18.2L22.2,18.2C22.1,18.2,22.2,18.2,22.2,18.2L22.2,18.2L22.2,18.2"/>
		<path class="st1" d="M8.4,20.5L8.4,20.5L8.4,20.5L8.4,20.5C8.3,20.5,8.3,20.5,8.4,20.5C8.3,20.3,8.3,20.3,8.4,20.5
			C8.3,20.3,8.3,20.3,8.4,20.5C8.3,20.3,8.3,20.3,8.4,20.5L8.4,20.5"/>
		<path class="st1" d="M21.8,18.9c-0.2-0.1-0.2-0.3-0.2-0.4C21.6,18.5,21.8,18.7,21.8,18.9L21.8,18.9"/>
		<path class="st1" d="M21.9,18.6C21.9,18.7,21.9,18.7,21.9,18.6c-0.1,0-0.1,0,0-0.1l0,0C21.9,18.5,21.9,18.6,21.9,18.6"/>
		<path class="st1" d="M8.4,20.7C8.4,20.7,8.3,20.7,8.4,20.7L8.4,20.7C8.3,20.6,8.3,20.7,8.4,20.7L8.4,20.7"/>
		<path class="st1" d="M22,18.7C21.9,18.7,21.9,18.7,22,18.7C21.9,18.7,21.9,18.7,22,18.7C22,18.7,22,18.7,22,18.7
			C21.9,18.7,22,18.7,22,18.7C22,18.7,22,18.7,22,18.7L22,18.7L22,18.7"/>
		<path class="st1" d="M18,20.7c-0.1,0-0.1,0.1-0.2,0c0-0.1,0.1-0.1,0.1-0.1C18,20.7,18,20.7,18,20.7L18,20.7"/>
		<path class="st1" d="M18.5,21.3C18.5,21.3,18.5,21.3,18.5,21.3C18.5,21.3,18.5,21.3,18.5,21.3C18.5,21.2,18.5,21.2,18.5,21.3
			C18.6,21.3,18.5,21.3,18.5,21.3"/>
		<path class="st1" d="M19,21.5C19,21.5,19,21.5,19,21.5C19,21.5,19,21.5,19,21.5C19,21.5,19,21.5,19,21.5C19,21.4,19,21.4,19,21.5
			C19,21.4,19,21.4,19,21.5L19,21.5L19,21.5C19,21.3,19,21.3,19,21.5C19,21.5,19,21.5,19,21.5L19,21.5"/>
		<path class="st1" d="M21.1,22c-0.1,0.1-0.2,0.2-0.3,0.2v0.1c-0.1-0.1-0.2,0.1-0.3,0.1c-0.1,0.1-0.2,0.1-0.2,0.1l0,0l0,0l0,0l0,0
			l0,0l0,0l0,0l0,0c0,0-0.1,0-0.1-0.1h-0.1l0,0c0.2-0.2,0.6-0.2,0.8-0.4c0.1,0.1,0.1-0.1,0.2-0.1l0,0C21.1,21.8,21.1,21.8,21.1,22
			C21.1,21.9,21.1,21.9,21.1,22C21.1,21.8,21.1,21.8,21.1,22C21.1,21.9,21.1,21.9,21.1,22"/>
		<path class="st1" d="M21.4,22.5C21.4,22.5,21.3,22.5,21.4,22.5C21.3,22.5,21.3,22.5,21.4,22.5C21.4,22.5,21.4,22.5,21.4,22.5
			C21.4,22.5,21.4,22.5,21.4,22.5C21.4,22.5,21.4,22.5,21.4,22.5"/>
		<path class="st1" d="M20.1,22.6C20.1,22.5,20.1,22.6,20.1,22.6C20,22.6,20,22.6,20.1,22.6C20.1,22.5,20.1,22.5,20.1,22.6
			C20.1,22.5,20.1,22.5,20.1,22.6L20.1,22.6"/>
		<path class="st1" d="M12.4,23.6C12.4,23.6,12.4,23.6,12.4,23.6c-0.1,0-0.2,0-0.2-0.1h0.1C12.4,23.6,12.4,23.6,12.4,23.6L12.4,23.6
			"/>
		<path class="st1" d="M19.6,22.9C19.5,23,19.5,23,19.6,22.9C19.5,22.9,19.5,22.9,19.6,22.9L19.6,22.9L19.6,22.9"/>
		<path class="st1" d="M17.2,25.7L17.2,25.7L17.2,25.7L17.2,25.7"/>
		<path class="st1" d="M17.2,25.7L17.2,25.7C17.2,25.7,17.2,25.7,17.2,25.7C17.2,25.7,17.2,25.7,17.2,25.7L17.2,25.7"/>
		<path class="st1" d="M16.9,25.7L16.9,25.7L16.9,25.7L16.9,25.7L16.9,25.7C17,25.7,17,25.7,16.9,25.7L16.9,25.7"/>
		<path class="st1" d="M17.3,25.7C17.3,25.7,17.3,25.7,17.3,25.7L17.3,25.7L17.3,25.7L17.3,25.7L17.3,25.7"/>
		<path class="st1" d="M10.9,13L10.9,13L10.9,13L10.9,13L10.9,13 M8.9,22.8C8.9,22.8,9,22.8,8.9,22.8C9,22.8,8.9,22.8,8.9,22.8
			L8.9,22.8L8.9,22.8L8.9,22.8L8.9,22.8 M7.5,20.9C7.5,21,7.6,21,7.6,21C7.5,21,7.5,21,7.5,20.9S7.5,20.8,7.5,20.9 M7.4,20.5
			L7.4,20.5L7.4,20.5c-0.1-0.1-0.2-0.2-0.3-0.7C7.2,20.2,7.3,20.3,7.4,20.5L7.4,20.5 M11.9,12.6C11.8,12.6,11.8,12.6,11.9,12.6
			c-0.1,0-0.1-0.1-0.1-0.1C11.8,12.4,11.8,12.4,11.9,12.6C11.8,12.5,11.8,12.5,11.9,12.6L11.9,12.6 M10.2,10.1L10.2,10.1L10.2,10.1
			L10.2,10.1C10.1,10.1,10.1,10.1,10.2,10.1L10.2,10.1L10.2,10.1 M10.1,10C10.1,10,10,10,10.1,10C10,10.1,10,10.1,10,10.1l0,0l0,0
			l0,0l0,0C10,10,10,10,10.1,10L10.1,10 M14.2,9C14.2,9,14.2,9,14.2,9C14.2,9,14.2,9,14.2,9C14.2,9,14.2,9,14.2,9
			C14.2,9,14.2,9,14.2,9C14.2,9,14.2,9,14.2,9C14.2,9,14.2,9,14.2,9L14.2,9C14.2,9,14.2,9,14.2,9L14.2,9L14.2,9L14.2,9 M14.1,9
			C14.1,9,14.1,9,14,9c0,0,0,0,0-0.1C14.1,9,14.1,9,14.1,9C14.1,9,14.1,9,14.1,9L14.1,9L14.1,9L14.1,9 M11.6,9L11.6,9
			c-0.1,0-0.1,0-0.1,0S11.5,9,11.6,9C11.6,9,11.6,9,11.6,9L11.6,9 M10.3,8.9L10.3,8.9C10.3,8.9,10.3,8.9,10.3,8.9
			C10.3,8.9,10.3,8.9,10.3,8.9C10.3,8.9,10.3,8.9,10.3,8.9 M8.2,10.2C8.1,10.3,8.1,10.3,8.2,10.2L8.2,10.2L8.2,10.2 M9.5,9.1
			C9.5,9.2,9.5,9.2,9.5,9.1C9.5,9.2,9.5,9.2,9.5,9.1L9.5,9.1C9.5,9.2,9.5,9.2,9.4,9.2l0,0C9.4,9.2,9.5,9.2,9.5,9.1L9.5,9.1L9.5,9.1
			L9.5,9.1 M15.7,7.6C15.7,7.6,15.7,7.6,15.7,7.6C15.7,7.7,15.7,7.7,15.7,7.6C15.7,7.7,15.7,7.7,15.7,7.6
			C15.7,7.6,15.7,7.6,15.7,7.6C15.7,7.6,15.7,7.6,15.7,7.6C15.7,7.6,15.7,7.6,15.7,7.6L15.7,7.6 M8.7,9.7C8.6,9.7,8.6,9.7,8.7,9.7
			C8.7,9.7,8.7,9.6,8.7,9.7c0.1-0.1,0.1-0.1-0.1,0.1c0,0,0.1-0.1,0.2-0.2l0,0l0,0l0.1-0.1c-0.1,0-0.1,0-0.1,0
			C8.7,9.5,8.7,9.5,8.7,9.7 M10.1,8.7L10.1,8.7C10.1,8.7,10.1,8.7,10.1,8.7L10.1,8.7C10.1,8.7,10.1,8.7,10.1,8.7
			C10.1,8.7,10.1,8.7,10.1,8.7 M8.8,9.4L8.8,9.4L8.8,9.4C8.8,9.4,8.8,9.4,8.8,9.4L8.8,9.4C8.8,9.3,8.8,9.4,8.8,9.4 M9.7,8.8
			C9.7,8.9,9.5,8.9,9.5,9l0,0l0,0l0,0l0,0C9.5,8.9,9.6,8.9,9.7,8.8L9.7,8.8 M7.7,10.8c0,0.1-0.1,0.1-0.1,0.1l0.2-0.4v-0.1l0,0
			l-0.1,0.1l0,0C7.9,10.7,7.8,10.8,7.7,10.8 M11.2,8.1L11.2,8.1C11.2,8.2,11.2,8.1,11.2,8.1L11.2,8.1L11.2,8.1L11.2,8.1L11.2,8.1
			L11.2,8.1L11.2,8.1L11.2,8.1L11.2,8.1 M11.2,8.1c-0.1,0.1-0.1,0.1-0.1,0.1l0,0l0,0C11.1,8.1,11.1,8.1,11.2,8.1
			C11.1,8.1,11.1,8.1,11.2,8.1C11.1,8.1,11.2,8.1,11.2,8.1L11.2,8.1 M10.4,8.4L10.4,8.4C10.3,8.4,10.3,8.4,10.4,8.4
			C10.3,8.4,10.3,8.4,10.4,8.4C10.4,8.4,10.4,8.4,10.4,8.4C10.4,8.4,10.4,8.4,10.4,8.4C10.4,8.4,10.4,8.4,10.4,8.4
			C10.4,8.4,10.4,8.4,10.4,8.4C10.4,8.4,10.4,8.4,10.4,8.4L10.4,8.4 M11.3,8C11.3,8.1,11.3,8.1,11.3,8C11.3,8,11.3,8,11.3,8
			C11.3,8,11.3,8,11.3,8C11.3,8,11.3,8,11.3,8L11.3,8 M13.9,7.4C13.9,7.4,13.8,7.4,13.9,7.4l-0.1,0.1C13.7,7.4,13.8,7.4,13.9,7.4
			C13.8,7.4,13.8,7.4,13.9,7.4C13.8,7.4,13.8,7.4,13.9,7.4L13.9,7.4 M11.3,7.9C11.3,8,11.3,8,11.3,7.9C11.3,8,11.3,8,11.3,7.9
			C11.3,8,11.3,8,11.3,7.9C11.3,8,11.3,8,11.3,7.9L11.3,7.9C11.3,7.9,11.3,7.9,11.3,7.9 M9.7,8.7L9.7,8.7L9.7,8.7L9.7,8.7
			C9.6,8.7,9.6,8.7,9.7,8.7L9.7,8.7C9.6,8.7,9.6,8.7,9.7,8.7L9.7,8.7L9.7,8.7L9.7,8.7 M12.1,7.7L12.1,7.7C12,7.7,12,7.7,12.1,7.7
			C12,7.7,12,7.7,12.1,7.7C12,7.7,12,7.7,12.1,7.7L12.1,7.7 M13,7.2C13,7.2,12.9,7.2,13,7.2c-0.1,0.1-0.2,0.1-0.2,0.1s0,0,0.1,0
			c-0.1,0.1-0.1,0.1-0.2,0.1c0,0.1-0.2,0.1-0.2,0.1c0,0,0.1,0,0.1-0.1l0,0c0.1,0,0.1-0.1,0.2-0.1s0.1,0,0.1-0.1l0,0c0,0,0,0-0.1,0
			C12.8,7.3,13,7.2,13,7.2C13,7.2,13.1,7.2,13,7.2 M18.2,6.6L18.2,6.6L18.2,6.6C18.2,6.6,18.1,6.6,18.2,6.6
			C18.1,6.6,18.1,6.6,18.2,6.6C18.1,6.6,18.2,6.6,18.2,6.6 M18.2,6.5L18.2,6.5L18.2,6.5L18.2,6.5C18.1,6.5,18.1,6.5,18.2,6.5
			C18.1,6.5,18.1,6.5,18.2,6.5L18.2,6.5L18.2,6.5 M6.4,15.4c0-0.1,0-0.2,0-0.2c0,0-0.1,0.4-0.1,0.6c0-0.1,0-0.1,0-0.6
			c0,0.4,0,1.1,0,1.6c0.1,1.1,0.1,1.1,0.2,1.6c0.2,1,0.2,1,0.6,1.6c0.4,0.9,0.4,0.9,0.7,1.4c0.6,0.8,0.6,0.9,1,1.2
			c0.7,0.7,0.7,0.7,1.2,1.1l0.2,0.1l0,0c-1.9-1.4-2.9-3.5-3.2-4.5C6.2,17.7,6.4,15.4,6.4,15.4 M18.6,6.7c-0.8-0.2-1.4-0.2-1.7-0.2
			c0.1,0,0.1,0,0.1,0c-1.6-0.1-1.6-0.1-2,0c-0.1,0-0.1,0-0.1,0l0,0c-0.2,0.1-0.2,0.1-0.4,0.1l0,0l0,0l0,0l0,0l0,0l0,0l0,0l0,0
			c-0.1,0-0.1,0-0.1,0l0,0c-0.4,0-0.4,0-1.1,0.2l0,0c-0.7,0.2-1.2,0.4-1.6,0.6c-0.6,0.2-0.9,0.4-1.6,0.9C9.5,8.7,9.4,8.9,8.9,9.4
			c-0.6,0.7-0.7,0.7-1.1,1.2c-0.5,0.7-0.5,0.8-0.7,1.4c-0.4,0.9-0.4,0.9-0.6,1.6c-0.1,0.3-0.2,0.8-0.2,1.2l0,0
			c0,0.2-0.1,0.3-0.1,0.7c0.1-0.4,0.3-0.9,0.4-1.4c0.1-0.4,0.6-0.7,0.4-1.2H6.9c0-0.1,0-0.1,0.1-0.3c-0.1,0.1-0.1,0.2-0.2,0.4
			c0-0.1,0-0.1,0.1-0.2c0,0.1-0.1,0.1-0.1,0.1C6.9,12.4,6.9,12.2,7,12c-0.1,0.2-0.1,0.2-0.1,0.4C7,12.3,7,12.3,7,12.2
			c0,0.1,0,0.1-0.1,0.1c0.1,0,0.1,0,0.6-0.3c0,0.1,0,0.1,0.1,0.2h0.1c0,0.1-0.1,0.1-0.1,0.1c0,0.1,0,0.1,0.1,0.2
			c0.1-0.1,0.1-0.1,0.2-0.2c0.1,0.4-0.1,0.7,0,1.1c0,0,0.1,0.7,0.3,1.1c0.2-0.1,0.1-0.4,0.2-0.6c0-0.6,0.1-1,0.1-1h0.1
			c0.1-0.1,0.1-0.1,0.1-0.1c0,0,0.7-1,0.7-1.1c0.1-0.1,0.1-0.1,0.2-0.2c0,0,0.1,0,0.1,0.1c0.2-0.2,0.2-0.2,0.2-0.2
			c0.1,0.1,0.1,0.2,0.2,0.4c0,0.1,0,0.1,0,0.1c0,0,0-0.1,0.1-0.1c0.1,0.1,0.1,0.1,0,0.4c0.1,0,0.1,0,0.4-0.2
			c0.1,0.2,0.1,0.3,0.1,0.6h0.1c0.1,0.3-0.1,0.7,0.1,1v-0.1c0.1,0.1,0.1,0.1,0.2,0.3v-0.1c0.6,0.9,0.6,0.9,0.9,0.9
			c-0.1-0.1-0.1-0.2-0.2-0.2c0-0.3,0-0.3-0.4-0.7c-0.1,0-0.1,0-0.3-0.4c0,0-0.1,0-0.1,0.1c-0.1-0.2,0.1-0.6,0.1-0.7
			c0.1,0,0.1-0.1,0.1-0.1c0,0.1,0,0.1,0,0.1c0.2,0,0.4,0,0.4,0.2h0.1c0,0,0.1,0.1,0.1,0.1V13c0.1,0,0.1,0,0.1,0.1c0,0.2,0,0.2,0,0.2
			c0.1,0,0.2-0.1,0.3-0.4c0.7-0.2,0.2-1,0.2-1.1c-0.8-0.7,0.2-0.9,0.2-0.9h0.1c0,0.1-0.1,0.1,0.1,0.2l0,0l0,0l0,0l0,0l0,0l0,0l0,0
			l0,0c-0.2,0.1-0.2,0.2-0.2,0.2c0.1,0,0.1,0,0.1,0c0.2-0.2,0.2-0.2,0.2-0.3c-0.1,0-0.1,0-0.1,0c0,0,0-0.1,0.1-0.1V11
			c0.2-0.1,0.4-0.2,0.6-0.3h0.1c0.1-0.1,0.3-0.1,0.4-0.2c0.2-0.1,0.2-0.2,0.2-0.2c0.2,0,0.3-0.2,0.4-0.6c0.1,0,0.1,0,0.2-0.2
			c-0.1,0-0.1,0-0.2,0c0,0,0.1-0.1,0.1-0.1c0-0.1,0-0.1,0-0.1c-0.2-0.1-0.2-0.2-0.4-0.3c0.1-0.1,0.2-0.2,0.4-0.2l-0.1-0.1
			c-0.1,0-0.3,0.1-0.4,0.1c0-0.1,0-0.1-0.1-0.1c-0.1,0-0.1,0-0.1,0V8.4c0.1,0,0.2-0.1,0.4-0.1l0,0c0.1-0.1,0.1-0.1,0.2-0.1
			c-0.1,0.1-0.1,0.1-0.1,0.2c0.2,0,0.3-0.1,0.6-0.1c0,0.1,0,0.1,0,0.1c0,0,0,0.1,0.1,0.1c0.1,0,0.1,0,0.2,0.1h-0.1
			c0.1,0.1,0.1,0.1,0.1,0.3c0.1,0,0.7-0.1,0.4-0.4c-0.1-0.1-0.2-0.1-0.2-0.2c0.1,0,0.1-0.1,0.2-0.1c0,0,0-0.1-0.1-0.1
			c0.2-0.2,1.2-0.4,0.9-0.8V7.2c0.2,0.1,0.2,0.3,0.4,0.4l0,0c0.1,0,0.1,0,0.1,0.1C17,7.7,17,7.6,16.9,7.6V7.5l0,0
			c0.1,0,0.1,0,0.2,0.1c-0.6-0.3-0.6-0.3-0.7-0.4v0.1h0.1c-0.3-0.1-0.4-0.1-0.4-0.1h0l0,0c-0.1,0-0.1,0-0.2,0
			c0.2-0.1,0.2-0.1,1.4-0.2h-0.1V6.9c0.1-0.1,0.2,0.1,0.4,0c0-0.1,0-0.1,0-0.1l0,0l0,0l0,0l0,0l0,0l0,0l0,0c0,0,0.1,0,0.1,0.1
			S17.7,6.9,17.7,7h-0.1v0.1c0.2,0.1,0.4,0.2,0.7,0.3h-0.1h0.1c0-0.1,0.1-0.1,0.1-0.1V7.2h0.1c0,0-0.1,0-0.1-0.1c0,0,0.1,0,0.1-0.1
			L18.3,7l0,0h0.1c-0.1-0.1-0.2-0.1-0.4-0.2c0.1,0,0.2-0.1,0.6,0.1c0.1-0.1,0.1-0.1,0.2-0.1C18.7,6.8,18.7,6.8,18.6,6.7
			c0.1,0,0.1,0.1,0.6,0.1C18.7,6.7,18.7,6.7,18.6,6.7"/>
		<path class="st1" d="M14.6,6.4C14.6,6.4,14.6,6.4,14.6,6.4C14.6,6.4,14.6,6.4,14.6,6.4L14.6,6.4L14.6,6.4
			C14.6,6.4,14.6,6.4,14.6,6.4L14.6,6.4L14.6,6.4L14.6,6.4"/>
		<path class="st1" d="M19.1,6.8C19.1,6.8,19.1,6.8,19.1,6.8C19.1,6.8,19.1,6.8,19.1,6.8c-0.1,0-0.2-0.1-0.2-0.1c0,0,0,0,0.1,0
			C19,6.8,19,6.8,19.1,6.8C19.1,6.8,19.1,6.8,19.1,6.8C19.1,6.8,19.1,6.8,19.1,6.8C19,6.8,19,6.8,19.1,6.8
			C19.1,6.8,19.1,6.8,19.1,6.8L19.1,6.8L19.1,6.8"/>
		<path class="st1" d="M18.5,7L18.5,7c-0.1,0-0.1,0-0.1,0l0,0C18.5,6.9,18.5,7,18.5,7L18.5,7"/>
		<path class="st1" d="M21.3,7.8c0.1,0,0.1,0.1,0.1,0.1l0,0C21.3,7.9,21.3,7.9,21.3,7.8L21.3,7.8"/>
		<path class="st1" d="M20.1,7.4c0,0-0.1,0-0.1-0.1C20,7.4,20,7.4,20.1,7.4L20.1,7.4"/>
		<path class="st1" d="M16.4,8.7L16.4,8.7C16.4,8.7,16.4,8.7,16.4,8.7C16.4,8.7,16.4,8.7,16.4,8.7L16.4,8.7L16.4,8.7L16.4,8.7
			L16.4,8.7L16.4,8.7C16.4,8.7,16.4,8.7,16.4,8.7C16.4,8.7,16.4,8.7,16.4,8.7C16.4,8.7,16.4,8.7,16.4,8.7
			C16.4,8.7,16.4,8.7,16.4,8.7L16.4,8.7L16.4,8.7L16.4,8.7L16.4,8.7L16.4,8.7L16.4,8.7L16.4,8.7L16.4,8.7L16.4,8.7 M17.5,7.7
			C17.5,7.7,17.5,7.7,17.5,7.7c-0.1,0.1-0.1,0.1-0.1,0.1l0,0l0,0l0,0c-0.2,0.1-0.3-0.1-0.6-0.1c0.1,0.1,0.1,0.1,0.1,0.2
			c-0.1,0-0.1,0-0.1,0c0,0,0,0,0,0.1l0,0c0,0,0,0-0.1,0c0.1,0.1,0.1,0.1,0.1,0.2c0,0.1,0.1,0.2,0,0.3c-0.1,0.1-0.2,0.1-0.2,0.1
			c0,0,0.1-0.1,0-0.1c0,0,0,0-0.1,0c0.1,0.1-0.1,0.1-0.1,0.2c-0.1,0-0.1,0-0.2,0s-0.1,0-0.2,0l0,0c-0.1,0.1-0.1,0.1-0.2,0.1l0,0l0,0
			l0,0l0,0l0,0l0,0l0,0l0,0c0,0.1-0.1,0.1-0.1,0.1c0,0.1,0.1,0.1,0.1,0.2c0.1,0,0.1,0,0.1,0.1C16,9.2,16,9.1,16,9.1
			C16,9,16,9,16,8.9l0,0c-0.1,0-0.1,0.1-0.1,0c0.1,0,0.1,0,0.2,0c0,0,0,0,0.2-0.1l0,0l0,0h-0.1c0,0.1-0.1,0.1-0.1,0.1
			c0.1,0,0.1,0.1,0.2,0.1c0-0.1,0.1-0.1,0.1-0.1c0,0,0,0,0.1,0c0,0,0-0.1,0.1-0.1c0,0,0,0,0.1,0c0,0.1,0,0.1,0.1,0.1
			c0-0.1,0.1-0.1,0.1-0.1c0.1,0,0.2,0,0.2-0.1c0,0,0,0.1,0.1,0.1c0,0,0,0,0-0.1l0,0c0.2,0.1,0.2,0.1,0.2-0.1
			c-0.1-0.1-0.1-0.2-0.1-0.2c0,0,0,0,0.1,0l0,0c0-0.1,0.1-0.1,0.1-0.1s0-0.1-0.1-0.1c0,0-0.1-0.1-0.2-0.1c-0.1,0-0.1,0-0.1,0l0,0
			c0-0.1,0.1,0,0.1-0.1C17,7.9,17,8,17,7.9l0,0H17c0.1,0,0.1,0,0.1,0S17.3,8,17.3,8c0-0.1,0-0.1,0.1-0.1c0.1,0,0.1,0,0.1-0.1
			c0,0,0,0-0.1,0l0,0l0,0l0,0C17.4,7.7,17.4,7.7,17.5,7.7"/>
		<path class="st1" d="M15.4,12.3c-0.1,0-0.1,0-0.1,0c0,0.1,0.1,0.1,0.1,0.2c-0.1,0-0.1,0-0.1,0.1c-0.1-0.2-0.1-0.2-0.1-0.3
			c0.1,0,0.1,0,0.1,0.1c0-0.1,0-0.1-0.2-0.2c0,0.1,0.1,0.1,0.1,0.1c-0.1-0.1-0.1-0.1-0.2,0c0.1-0.1,0-0.1,0-0.2l0,0
			c0-0.1-0.1-0.1-0.1-0.1l0,0l0,0c0,0.1,0,0.1,0,0.1c-0.1,0-0.1,0-0.2,0c0-0.1,0-0.1,0.1-0.1l0,0c0,0-0.1,0-0.1-0.1
			c0,0,0,0.1-0.1,0.1s-0.1-0.1-0.1,0c0-0.1,0-0.1,0-0.1c0-0.1,0.1-0.1,0.1-0.1c-0.1,0-0.1,0-0.1,0.1c-0.2-0.1-0.2-0.2-0.2-0.3
			c0.1,0,0.1,0.1,0.1,0.1c0-0.1,0-0.2,0-0.4h0.1c0.1,0,0.1,0.1,0.2,0c0,0.1,0,0.2,0.1,0.2c-0.1,0.2-0.1,0.2-0.1,0.2
			c-0.1,0.1,0,0.1,0,0.2c0.1,0,0-0.1,0.1-0.1c0,0.1,0,0.1,0,0.1c0,0.1-0.1,0.1-0.1,0c0,0,0,0.1,0.1,0.1c0.1-0.1,0.2-0.1,0.3,0v-0.1
			l0,0c0.1-0.1,0.1,0,0.1,0.1c0,0,0,0,0,0.1c-0.1,0-0.1-0.1-0.1,0c0,0.1,0.1,0.1,0.1,0.1l0,0l0,0l0,0l0,0l0,0l0,0l0,0l0,0v0.1
			c0.1,0,0.1,0,0.2,0C15.4,12.1,15.4,12.2,15.4,12.3L15.4,12.3"/>
		<path class="st1" d="M15.2,12.3c0,0.1,0,0.1,0,0.1c-0.1,0-0.1,0.1-0.1,0.1c0,0.1,0,0.1,0,0.1c-0.1,0-0.1-0.1-0.2-0.1
			c0,0,0.1,0,0.1-0.1v-0.1c-0.1,0-0.1,0-0.1-0.1c-0.1,0-0.1,0-0.1,0.1c0,0,0,0,0-0.1c0-0.1,0-0.1-0.1-0.1c0,0,0,0,0.1,0h0.1
			c0.1,0,0.1,0.1,0.1,0c-0.1,0.1,0,0.1,0,0.1l0,0c0.1,0.1,0,0.1,0,0.2C15.2,12.4,15.1,12.3,15.2,12.3L15.2,12.3"/>
		<path class="st1" d="M14.6,14.3c-0.2,0-0.2,0.2-0.2,0.3c-0.1,0.1-0.1,0.1-0.1,0.2c-0.1,0.1,0,0.3,0,0.4c-0.1,0-0.1,0-0.1-0.1
			c-0.1,0.1-0.1,0.1-0.2,0.1c-0.1,0-0.1-0.1-0.1-0.1c-0.1-0.1-0.1-0.1-0.2,0c0-0.1,0-0.1,0-0.1c-0.1,0-0.1,0-0.1,0
			c-0.1,0.1-0.1,0.1-0.2,0.1c0-0.1,0-0.1,0-0.1c-0.1,0.1-0.2,0-0.2,0.1c0-0.1-0.1-0.2-0.1-0.2v-0.1c0-0.1-0.1,0-0.1,0
			c-0.2-0.4-0.2-0.4-0.1-0.7c0.1,0.1,0.1,0,0.2,0.1c0-0.1,0.1-0.1,0-0.2c0.1,0.1,0.2-0.1,0.2-0.1c0.1-0.1,0.1-0.2,0.1-0.3
			c0.1-0.1,0.2-0.1,0.2-0.1v-0.1c0.1,0,0.1-0.1,0.1-0.1c0.1-0.1,0.1-0.1,0.1-0.2c0,0,0,0,0.1,0c0-0.1,0-0.1,0.1-0.1l0,0
			c0,0.1,0,0.1,0.1,0.1c0.1,0.1,0.1,0.1,0.1,0.1c0.1,0,0.2,0.1,0.2,0.1l0,0l0,0l0,0l0,0l0,0l0,0l0,0l0,0c-0.1,0-0.1,0.1-0.1,0.1l0,0
			c0,0,0.1,0,0.1,0.1c-0.1,0.1-0.1,0.1-0.1,0.1c0,0.1,0,0.1-0.1,0.1c0.1,0,0.1,0.1,0.1,0.1c0,0.1,0,0.1-0.1,0.1
			C14.4,14.2,14.5,14.3,14.6,14.3L14.6,14.3"/>
		<path class="st1" d="M14.3,16.1C14.3,16.1,14.2,16.1,14.3,16.1L14.3,16.1c-0.1,0.1-0.1,0-0.2,0l0,0c0.1,0.1,0.1,0.1,0.1,0.1
			c-0.4-0.1-0.7-0.1-1.4-0.1c0,0,0,0,0-0.1c-0.1,0-0.1,0-0.2,0c0-0.1,0.1-0.1,0.1-0.1c0-0.1-0.1-0.1-0.1-0.1c0,0.1-0.1,0.1-0.1,0.1
			c-0.3-0.2-0.6-0.2-0.8-0.6c-0.1-0.1-0.1-0.2-0.1-0.2C11.5,15,11.5,15,11.4,15c-0.1-0.2-0.1-0.3-0.2-0.3c-0.1-0.2-0.4-0.2-0.4-0.6
			c0,0,0,0,0.1,0c0.1,0.1,0.2,0.1,0.3,0c0.1,0.2,0.4,0.2,0.6,0.4c0,0,0,0,0-0.1c0.1,0.1,0.1,0.1,0.1,0v0.1c0.1,0,0.1,0,0.2,0.1
			c0,0,0,0,0-0.1c0.1,0,0.1,0.1,0.1,0.1c0,0,0,0,0,0.1l0,0c0,0.1,0.1,0.1,0.2,0.1c0,0.1,0,0.1,0.1,0.2c0.1,0,0.1-0.2,0.2-0.1
			c0.1,0,0.1,0.2,0.2,0.1c0,0.1,0,0.1,0,0.1c0,0,0,0-0.1,0c-0.1,0.2,0,0.4,0.1,0.6c0.2,0,0.2,0,0.4,0c0,0,0,0,0.1,0.1
			c0.1,0,0.3,0,0.3,0v-0.1c0.6,0,0.6,0,0.6,0c0,0.1-0.1,0.1-0.2,0.1l0,0V16C14.2,16.1,14.3,16,14.3,16.1
			C14.2,16.1,14.2,16.1,14.3,16.1L14.3,16.1L14.3,16.1"/>
		<path class="st1" d="M11.3,15.1L11.3,15.1L11.3,15.1C11.2,15.1,11.2,15.1,11.3,15.1c-0.1,0.1,0,0.2-0.1,0.2v-0.1L11.3,15.1
			C11.2,15.1,11.2,15.1,11.3,15.1L11.3,15.1L11.3,15.1"/>
		<path class="st1" d="M17.2,14.8C17.2,14.8,17.1,14.8,17.2,14.8C17.1,14.8,17.1,14.8,17.2,14.8c-0.1,0.1-0.1,0-0.1,0
			C17,14.8,17,14.8,17.2,14.8C17.1,14.8,17.2,14.8,17.2,14.8L17.2,14.8 M20,16.3c0,0-0.1-0.2-0.2-0.2C19.8,16.2,20,16.2,20,16.3
			c-0.1,0-0.2,0-0.2-0.1c-0.1,0-0.1-0.1-0.1-0.1c-0.1,0-0.1,0-0.1,0c-0.1-0.1-0.1-0.2-0.1-0.2c-0.1,0-0.1,0-0.2-0.2
			c0.1,0,0.1,0,0.1,0c0-0.2-0.4-0.2-0.3-0.4l0,0l0,0c0,0.1,0,0.1,0,0.1c-0.1-0.1-0.2-0.2-0.4-0.3c-0.2-0.1-0.6-0.2-0.9-0.3
			c-0.1,0-0.1,0.1-0.1,0.1c0,0,0,0-0.1,0l0,0l0,0l0,0l0,0l0,0l0,0l0,0l0,0c-0.1,0-0.1,0.2-0.2,0.2c-0.2-0.2-0.2-0.2-0.2-0.2
			c0,0.1,0,0.1,0,0.1c-0.1-0.1-0.1-0.2-0.1-0.4c-0.2,0-0.2,0-0.3,0s-0.1,0.1-0.2,0.1c0-0.1,0-0.1-0.1-0.1c0,0,0,0.2,0.2,0.1
			c0,0,0,0,0.1,0.1c0.1-0.1,0.1,0,0.1,0c-0.1,0.1-0.2,0-0.2,0.1c0.1,0.1,0.1,0.1,0.2,0.2c0.1,0,0.1,0,0.1-0.1
			c0.2,0.2,0.6,0.1,0.7,0.3c0.1,0.1,0.1,0.2,0.1,0.2l0,0c0,0,0,0,0.1,0.1c-0.1,0.1-0.1,0.1-0.2,0.2c0.4-0.1,0.4-0.1,0.6,0.1
			c0.3,0.1,0.4,0,0.4-0.1c0,0-0.1,0-0.1-0.1c0.1,0,0.1,0,0.1-0.1c0.1-0.1,0.2,0,0.3,0.1c0.1,0.1,0.1,0.2,0.2,0.3
			c0,0,0.1,0.1,0.3,0.1l0,0c0,0,0,0.1,0.1,0.1l0,0l0,0C19.9,16.4,20,16.3,20,16.3"/>
		<path class="st1" d="M16.2,14.3c-0.1,0-0.1,0-0.1-0.1c0,0.1,0,0.1,0,0.1c0,0.1,0.1,0.1,0.1,0.1c-0.2,0-0.2,0-0.2-0.1H16l0,0l0,0
			c0-0.1-0.1-0.2,0-0.4c0-0.1,0.1-0.1,0.1-0.1c0,0.1,0,0.1,0,0.1c0,0-0.1,0-0.1,0.1V14c0,0,0,0-0.1,0C16,14,16,14,16,14.1l0.1-0.1
			c0.1,0.1,0.1,0.1,0,0.1c0,0,0,0,0,0.1C16.2,14.3,16.2,14.3,16.2,14.3L16.2,14.3"/>
		<path class="st1" d="M11.6,15.6L11.6,15.6c-0.1-0.1-0.2-0.1-0.2-0.2l0.1,0.1C11.6,15.6,11.6,15.6,11.6,15.6"/>
		<path class="st1" d="M16.2,16C16.2,16,16.2,16.1,16.2,16c-0.1,0.1-0.1,0.1-0.2,0.2c0,0,0,0-0.1,0c-0.1,0.1-0.1,0.1-0.1,0.2
			c-0.1,0.1-0.1,0.1-0.1,0.1c0,0.1,0,0.1-0.1,0.1C15.6,16.1,15.8,16,16.2,16C16.2,15.9,16.2,15.9,16.2,16"/>
		<path class="st1" d="M20.1,19.5L20.1,19.5L20.1,19.5L20.1,19.5L20.1,19.5L20.1,19.5L20.1,19.5 M16.7,17.4
			C16.7,17.5,16.6,17.5,16.7,17.4C16.7,17.4,16.7,17.4,16.7,17.4C16.6,17.6,16.6,17.6,16.7,17.4C16.6,17.5,16.6,17.5,16.7,17.4
			C16.6,17.4,16.6,17.4,16.7,17.4C16.6,17.4,16.6,17.4,16.7,17.4C16.6,17.4,16.6,17.4,16.7,17.4C16.6,17.4,16.6,17.4,16.7,17.4
			C16.6,17.4,16.6,17.4,16.7,17.4C16.6,17.4,16.6,17.4,16.7,17.4C16.6,17.4,16.6,17.4,16.7,17.4C16.6,17.4,16.6,17.4,16.7,17.4
			C16.6,17.4,16.6,17.4,16.7,17.4C16.6,17.4,16.7,17.4,16.7,17.4 M20,19.9c0.1-0.1,0.1-0.3,0.1-0.4l0,0c0-0.1,0.1-0.4,0.1-0.4l0,0
			v0.1l0,0C20,18.8,20,18.8,20,18.8c0-0.1,0-0.1,0-0.2H20c0,0,0-0.1-0.1-0.1l0,0c-0.1-0.1-0.1-0.2-0.1-0.3s-0.1-0.1-0.2-0.2
			c-0.2,0-0.2-0.8-0.2-0.8c-0.1-0.1-0.1-0.1-0.1-0.1c-0.1,0-0.1,0.1-0.1,0.1c-0.2-0.6-0.2-0.6-0.2-0.7l0,0c0,0-0.1,0.4-0.1,0.7
			c0.1,0.3-0.1,0.6-0.1,0.6s-0.4-0.2-0.8-0.6c0.1-0.1,0.1-0.2,0.1-0.2c0,0,0,0,0.1-0.2c-0.1-0.2-0.1-0.2-0.1-0.2h-0.1v0.1
			c-0.1,0-0.1,0-0.1-0.1c-0.1,0-0.1,0.1-0.1,0.1c-0.1-0.1-0.3-0.1-0.4-0.2c-0.1,0-0.1,0-0.1,0.1c0,0.1,0.1,0.1,0.1,0.1
			c-0.2,0-0.2,0-0.2,0c-0.2,0.1-0.1,0.2-0.1,0.2c0,0-0.2,0.1-0.1,0.2c-0.1,0-0.1,0-0.2,0c0,0,0,0,0,0.1c-0.1-0.1-0.1-0.1-0.2-0.2
			c-0.1,0.1-0.1,0.1-0.2,0.1c-0.1,0.1-0.2,0.2-0.2,0.4c-0.1,0-0.1,0-0.1,0c0,0.1,0.1,0.1,0,0.2c-0.1-0.1-0.1-0.1-0.1-0.2
			c-0.1,0.2-0.1,0.2-0.1,0.3c-0.2,0.4-0.2,0.4-0.4,0.3c-0.1,0.1-0.2,0.1-0.2,0.2c-0.1-0.1-0.2,0.1-0.4,0.3v-0.1l0,0l0,0l0,0l0,0l0,0
			l0,0l0,0l0,0c0,0,0,0-0.1,0c0,0,0,0.4,0.2,0.7v0.1c-0.1-0.1-0.1-0.1-0.1-0.1c0,0,0,0.1,0.1,0.1c0,0,0,0-0.1,0
			c-0.1-0.1-0.1-0.1-0.1-0.1c0.4,0.4,0.6,0.7,0.7,1.2c0,0.1,0,0.1-0.1,0.1c0.1,0.1,0.1,0.1,0.3,0.2c0.1,0,0.1-0.1,0.2-0.1
			c0.1-0.1,0.1-0.1,0.6-0.1c0.1-0.2,0.9-0.6,1.1-0.3c0,0,0.2,0,0.2,0.1l0,0c0,0.1,0.2,0.2,0.1,0.3c0.1,0,0.1,0.1,0.1,0.1
			c0,0,0,0,0.2-0.3c-0.1,0.2-0.1,0.2-0.1,0.2c0,0,0,0-0.1,0l-0.2,0.2l0,0c0.1-0.1,0.1-0.1,0.1,0c0-0.1,0-0.1,0.1-0.1
			c0.1,0.1,0,0.1-0.1,0.2c0,0,0,0,0.1,0c0,0,0,0,0.1,0.1s0,0.2,0,0.2s0.1,0.1,0.1,0.1l0,0c0,0,0,0,0.1,0c0.1,0,0.1,0.1,0.1,0.1
			s0.1-0.1,0.1-0.1s0.1,0.1,0.1,0.1c0.1-0.1,0.3-0.1,0.6-0.2c0-0.1,0-0.1,0.2-0.4C19.7,20.3,19.9,20.1,20,19.9"/>
		<path class="st1" d="M23.4,18.2C23.4,18.2,23.4,18.2,23.4,18.2C23.4,18.2,23.4,18.2,23.4,18.2s-0.1-0.1-0.1,0l0,0v-0.1
			c0.1,0,0.1-0.1,0.2-0.1C23.4,18.1,23.4,18.2,23.4,18.2L23.4,18.2"/>
		<path class="st1" d="M21.7,21.6c-0.1,0.1-0.1,0.1-0.1,0.1s0-0.1-0.1-0.1c-0.1,0.1-0.2,0.2-0.4,0.2v-0.1c0.1-0.1,0.1-0.1,0.2-0.1
			c0-0.1-0.1-0.1,0-0.1c0.2,0,0.2-0.2,0.4-0.7c0,0,0,0.1,0.1,0.1c0,0.1-0.1,0.1-0.1,0.2v0.1l0,0c0,0,0.1-0.1,0.1-0.2
			c0,0.1-0.1,0.1-0.1,0.2s0,0.1,0.1,0.1c0.1,0,0.1-0.1,0.1-0.1C21.8,21.6,21.8,21.6,21.7,21.6"/>
		<path class="st1" d="M17.2,25.7L17.2,25.7L17.2,25.7L17.2,25.7C17.3,25.7,17.3,25.7,17.2,25.7C17.3,25.7,17.3,25.7,17.2,25.7
			L17.2,25.7L17.2,25.7L17.2,25.7 M17.2,25c0,0,0.1-0.1,0.1-0.1c-0.1,0-0.1-0.1-0.2-0.1c0,0,0,0-0.1,0c0.1-0.1,0.1-0.1,0.1-0.1
			c0.1-0.1,0.2-0.1,0.2-0.1s0.2-0.1,0.2-0.1l0,0c0,0,0,0,0-0.1c-0.1,0-0.1,0-0.1-0.1c0-0.1,0-0.1,0-0.1c-0.1,0-0.1,0-0.1-0.1
			c-0.1,0-0.1,0-0.2,0l0,0c0,0-0.1,0-0.1-0.1c0.1,0,0.1,0,0.1-0.1c-0.1,0-0.2,0-0.4-0.1c0-0.1,0-0.1,0-0.1l0,0v0c0,0-0.1,0-0.2,0
			c0,0.1,0,0.1-0.1,0.1c-0.1-0.1-0.1-0.1-0.2,0l-0.1-0.1c0,0.1,0,0.1,0,0.1s0,0-0.1,0.1c-0.1-0.1-0.1-0.1-0.3,0.1
			c-0.1-0.1-0.3-0.1-0.3-0.1s0,0,0,0.1c0,0,0,0-0.1,0c-0.1,0.1-0.1,0-0.2,0c0,0.1,0.1,0.1,0.1,0.1c-0.1,0.1-0.1,0.1-0.1,0.1
			c-0.1-0.1-0.2,0.1-0.3,0c0.1,0.1,0.1,0.1,0.2,0.1c0,0,0,0,0.1,0.1c0,0,0,0-0.1,0l0,0c-0.3,0-0.3,0-0.4,0.1c0,0,0,0-0.1,0
			c0,0,0,0-0.1,0c0,0-0.1-0.1-0.2,0c0,0.1,0.1,0.1,0.1,0.1l0,0c0,0,0,0,0.1,0c0,0,0,0-0.1,0c0.1,0.1,0.1,0.1,0.3,0.1
			c-0.1,0-0.1,0-0.1,0s0,0,0.1,0c0,0,0,0-0.1,0c0.2,0.1,0.2,0.1,0.2,0.1l0,0c0.1,0.1,0.2,0.1,0.3,0.1h-0.1l0,0l0,0l0,0l0,0l0,0l0,0
			l0,0l0,0c0.2,0,0.6,0.1,0.7,0l0.6-0.1l0.4,0.1c0,0,0,0,0.1,0.1l0,0c0,0,0,0,0.1,0l0,0c-0.1,0-0.1,0-0.1,0H17
			c0.1,0,0.2-0.1,0.2-0.1l0,0c0,0,0,0,0.1,0l0,0c0,0-0.1,0-0.1,0l0,0l0,0c0.1,0,0.1,0,0.2-0.1c-0.1,0-0.1,0-0.1,0l0,0
			c-0.1,0-0.1,0-0.2,0c0.1,0,0.1,0,0.1,0l0,0l0.6-0.1l0,0c-0.1,0-0.3,0-0.3,0s0.1,0,0.2-0.1c-0.1,0-0.1,0-0.1,0
			c0.1,0,0.2-0.1,0.3-0.1c-0.1,0-0.1,0-0.1-0.1c-0.1,0-0.1,0-0.1,0c-0.1,0-0.1,0-0.1,0l0,0h-0.1l0,0l0,0c-0.1,0-0.1,0-0.1,0l0,0
			c-0.4,0.1-0.9,0.2-0.9,0.2l0,0C16.8,25.2,17,25.1,17.2,25"/>
		<path class="st1" d="M15.7,13c0,0.1,0,0.1-0.1,0.2c0,0-0.1-0.1-0.1-0.1h-0.1c0,0.1,0.1,0.1,0.1,0.1s-0.1,0.1-0.1,0.1
			c-0.2-0.1-0.3-0.1-0.2-0.3c0-0.1-0.1-0.1-0.1-0.1V13c-0.1,0-0.1-0.1-0.1,0c0,0,0-0.1-0.1-0.1c-0.1,0.1,0,0.1-0.1,0.1l0,0
			c-0.1-0.1,0-0.1,0-0.2c0.2-0.1,0.2-0.1,0.2-0.2c0.1,0,0.1,0,0.1,0.1c0-0.1,0.1-0.1,0.1-0.1s0,0,0-0.1c0,0,0,0,0.1,0
			c0-0.1,0-0.1-0.1-0.1l0,0c0,0,0.1,0,0.1,0.1h0.1C15.6,12.8,15.7,13,15.7,13"/>
		<path class="st1" d="M16.7,15.1c-0.2-0.1-0.4-0.1-0.6,0c-0.1-0.2,0.1-0.2,0.2-0.2C16.4,14.9,16.7,14.9,16.7,15.1"/>
		<path class="st1" d="M14.8,16.1c-0.2,0.1-0.3,0.1-0.3,0.1c0,0,0-0.1-0.1-0.1c0,0,0,0.1-0.1,0.1v-0.1c0-0.1,0-0.1,0.1-0.1h0.1v0.1
			c0.2-0.1,0.2-0.1,0.2-0.1s0.1,0,0.1,0C14.8,16.1,14.8,16.1,14.8,16.1C14.9,16.1,14.8,16.1,14.8,16.1"/>
		<path class="st1" d="M18.9,21.6c-0.1,0.1-0.1,0.1-0.1,0.2c-0.1,0-0.1,0-0.1,0c-0.1,0-0.1,0.1-0.1,0c0-0.1,0-0.2,0-0.4
			c0.1,0,0.1,0,0.1,0.1c0,0,0.1,0,0.1,0s0.1,0,0.1,0C19,21.5,19,21.6,18.9,21.6"/>
		<path class="st1" d="M6.7,18.8L6.7,18.8C6.7,18.9,6.7,18.9,6.7,18.8C6.7,18.9,6.7,18.8,6.7,18.8L6.7,18.8L6.7,18.8L6.7,18.8
			L6.7,18.8"/>
		<path class="st1" d="M6.7,19L6.7,19L6.7,19L6.7,19c0-0.1-0.1-0.1-0.1-0.1l0,0l0,0l0,0C6.7,19,6.7,19,6.7,19"/>
		<path class="st1" d="M15.2,15.4L15.2,15.4C15.2,15.4,15.2,15.4,15.2,15.4C15.2,15.4,15.2,15.4,15.2,15.4L15.2,15.4L15.2,15.4
			L15.2,15.4L15.2,15.4L15.2,15.4L15.2,15.4L15.2,15.4L15.2,15.4L15.2,15.4L15.2,15.4L15.2,15.4L15.2,15.4L15.2,15.4L15.2,15.4
			L15.2,15.4L15.2,15.4C15.2,15.4,15.2,15.4,15.2,15.4L15.2,15.4"/>
	</g>
</g>
</svg>
