<?xml version="1.0" encoding="iso-8859-1"?>
<!-- Generator: Adobe Illustrator 19.2.1, SVG Export Plug-In . SVG Version: 6.00 Build 0)  -->
<!DOCTYPE svg PUBLIC "-//W3C//DTD SVG 1.1//EN" "http://www.w3.org/Graphics/SVG/1.1/DTD/svg11.dtd">
<svg version="1.1" xmlns="http://www.w3.org/2000/svg" xmlns:xlink="http://www.w3.org/1999/xlink" x="0px" y="0px"
	 viewBox="0 0 21.613 22" style="enable-background:new 0 0 21.613 22;" xml:space="preserve">
<g id="world_x5F_red">
	<g>
		<path style="fill:#84BD00;" d="M21.24,8.173c-0.015-0.056-0.027-0.113-0.042-0.168C21.187,8.03,21.186,8.06,21.2,8.097
			C21.211,8.125,21.226,8.148,21.24,8.173z"/>
		<path style="fill:#E4002B;" d="M20.656,15.459c-0.171,0.063-0.324,0.182-0.488,0.264c-0.134,0.07-0.449,0.195-0.597,0.13
			c-0.145-0.062-0.059-0.214-0.05-0.374c0.019-0.3-0.034-1.114,0.282-1.106c0.159,0.004,0.284-0.167,0.422-0.259
			c0.134-0.093,0.259-0.2,0.379-0.318c0.076-0.077,0.143-0.186,0.239-0.228c0.039-0.016,0.088-0.023,0.129-0.036
			c0.042-0.012,0.073-0.042,0.115-0.053c0.034-0.01,0.101-0.01,0.097-0.069c0.054-0.012,0.11-0.021,0.166-0.025
			c0.052-0.239,0.09-0.483,0.127-0.729c-0.033-0.024-0.067-0.047-0.1-0.073c-0.03-0.024-0.053-0.041-0.05-0.084
			c0.002-0.012,0.036-0.119,0.039-0.117c0.052,0.003,0.102-0.003,0.153-0.006c0.056-0.453,0.094-0.911,0.094-1.379
			c0-0.805-0.09-1.587-0.251-2.343c-0.018,0.059-0.055,0.106-0.126,0.128c-0.132,0.039-0.279,0.023-0.27,0.223
			c0.003,0.058,0.028,0.146-0.008,0.197c-0.039,0.053-0.125,0.032-0.178,0.027c-0.006-0.036,0.008-0.081,0.008-0.117
			c0-0.039,0.008-0.088,0-0.126c-0.011-0.053-0.022-0.036-0.056-0.029c-0.03,0.007-0.075,0.009-0.106,0.002
			c-0.013-0.079,0.014-0.141,0.062-0.196c0.017-0.017,0.045-0.055,0.061-0.069c0.025-0.019,0.067-0.017,0.095-0.035
			c0.047-0.028,0.075-0.09,0.115-0.12c0.004-0.003,0.034-0.015,0.04-0.017c0.016-0.006,0.035-0.016,0.052-0.02
			c0.027-0.008,0.068-0.038,0.092-0.03c-0.028-0.259-0.081-0.508-0.14-0.76c-0.03-0.123-0.061-0.244-0.107-0.36
			c-0.023-0.058-0.095-0.258-0.174-0.242c-0.08,0.014-0.056,0.223-0.053,0.28c0.003,0.108,0.025,0.242-0.034,0.335
			c-0.056,0.089-0.154,0.135-0.211,0.225c-0.069,0.105-0.009,0.244,0.047,0.358c0.048,0.098,0.081,0.155,0.118,0.259
			c0.04,0.107-0.029,0.233-0.118,0.262c-0.162,0.054-0.196-0.126-0.235-0.318c-0.017-0.087-0.039-0.165-0.111-0.215
			c-0.083-0.058-0.195-0.072-0.29-0.063c-0.039,0.003-0.111,0.008-0.081,0.063c0.028,0.056,0.117,0.086,0.156,0.134
			c0.114,0.135,0.014,0.315,0.084,0.464c0.058,0.127,0.234,0.158,0.228,0.32c-0.003,0.083-0.035,0.168-0.055,0.248
			c-0.02,0.078-0.037,0.163-0.07,0.235C20.035,9.837,19.9,9.892,19.79,9.97c-0.104,0.073-0.211,0.168-0.296,0.27
			c-0.115,0.141-0.101,0.267-0.037,0.432c0.03,0.072,0.053,0.146,0.036,0.228c-0.012,0.053-0.037,0.098-0.065,0.141
			c-0.02,0.029-0.07,0.072-0.073,0.107l-0.047,0.086c-0.067,0.032-0.142,0.068-0.213,0.049c-0.073-0.017-0.123-0.086-0.164-0.153
			c-0.028-0.047-0.146-0.297-0.165-0.115c-0.019,0.167,0.071,0.309,0.187,0.401c0.126,0.103,0.223,0.192,0.234,0.38
			c0.011,0.157-0.034,0.313,0.014,0.466c0.047,0.15,0.157,0.309,0.148,0.475c-0.01,0.17-0.184-0.006-0.229-0.056
			c-0.092-0.097-0.172-0.205-0.244-0.32c-0.085-0.135-0.167-0.263-0.279-0.372c-0.115-0.11-0.338-0.228-0.259-0.374
			c0.069-0.13,0.22,0.065,0.294,0.187c0.048,0.079,0.181,0.265,0.276,0.143c0.098-0.125-0.12-0.261-0.179-0.328
			c-0.091-0.101-0.117-0.285-0.142-0.419c-0.036-0.189-0.039-0.373-0.098-0.557c-0.091-0.008-0.187-0.017-0.253-0.097
			c-0.065-0.078-0.084-0.195-0.119-0.291c-0.043-0.121-0.126-0.244-0.232-0.256c-0.04-0.005-0.082,0.006-0.127,0.038
			c-0.067,0.049-0.12,0.123-0.185,0.177c-0.076,0.066-0.165,0.109-0.249,0.159c-0.073,0.045-0.162,0.105-0.183,0.204
			c-0.019,0.094,0.036,0.186,0.07,0.269c0.109,0.261-0.107,0.646-0.112,0.643c-0.009-0.003-0.043-0.027-0.051-0.031
			c-0.008-0.003-0.034-0.035-0.066-0.074c0.01,0.013,0.018,0.027,0.028,0.039c-0.024-0.028-0.045-0.056-0.067-0.085
			c-0.018-0.023-0.035-0.044-0.052-0.067c-0.001-0.002-0.003-0.004-0.004-0.005c0.002,0.001,0.002,0.001,0.002,0.001
			c0.001,0.001,0.198,0.002,0.199,0.004c0.016,0.02,0.248,0.041,0.248,0.062v-0.006c0-0.121-0.364-0.255-0.427-0.385
			c-0.041-0.083-0.207-0.154-0.235-0.242c-0.033-0.103-0.063-0.212-0.111-0.312c-0.04-0.082-0.107-0.191-0.163-0.262
			c-0.065-0.083-0.188-0.061-0.263-0.124c-0.075-0.062-0.087-0.167-0.182-0.211c-0.086-0.041-0.185-0.066-0.272-0.105
			c-0.123-0.055-0.253-0.02-0.384-0.036c-0.082-0.011-0.322-0.044-0.35-0.06c-0.027-0.013-0.061-0.018-0.085-0.03
			c-0.028-0.014-0.042-0.038-0.08-0.043c-0.032-0.005-0.065-0.003-0.097-0.01c-0.031-0.009-0.058-0.029-0.081-0.039
			c-0.03-0.013-0.048-0.019-0.075-0.037c-0.016-0.012-0.06-0.053-0.083-0.041c0.101,0.104,0.21,0.183,0.337,0.251
			c0.149,0.079,0.332,0.148,0.444,0.28c0.231,0.27-0.313,0.507-0.485,0.607c-0.228,0.133-0.572,0.387-0.806,0.128
			c-0.106-0.119-0.15-0.284-0.2-0.433c-0.048-0.147-0.107-0.285-0.196-0.414c-0.106-0.149-0.175-0.203-0.27-0.36
			c-0.09-0.15-0.313-0.393-0.257-0.559c0.031-0.09,0.17-0.06,0.179-0.169c0.006-0.049,0.016-0.133-0.019-0.173
			c-0.037-0.043-0.115-0.032-0.167-0.028c-0.165,0.007-0.486,0.135-0.531-0.107c-0.017-0.091-0.064-0.173-0.095-0.259
			c-0.047-0.123-0.188-0.095-0.188,0.036c-0.002,0.112,0.118,0.2,0.103,0.305c-0.006,0.061-0.064,0.075-0.114,0.052
			c-0.053-0.025-0.067-0.077-0.103-0.116c-0.041-0.044-0.093-0.036-0.14-0.063c-0.058-0.035-0.041-0.101-0.035-0.157
			c0.008-0.06,0.017-0.121-0.017-0.174c-0.027-0.042-0.072-0.076-0.106-0.111l-0.022-0.011c-0.047-0.019-0.092-0.04-0.126-0.078
			c-0.027-0.032-0.044-0.065-0.079-0.089c-0.025-0.018-0.087-0.057-0.117-0.033c-0.038,0.027,0,0.092,0.019,0.119
			c0.026,0.037,0.064,0.058,0.095,0.089c0.031,0.029,0.051,0.064,0.075,0.1c0.045,0.069,0.184,0.13,0.145,0.205
			c-0.013,0.024-0.048,0.026-0.069,0.026c-0.02-0.001-0.033-0.025-0.047-0.034c-0.008,0.076-0.03,0.399-0.162,0.24
			c-0.094-0.112-0.104-0.269-0.179-0.391c-0.075-0.121-0.218-0.217-0.349-0.26c-0.153-0.051-0.276,0.017-0.39,0.118
			c-0.122,0.11-0.201,0.242-0.285,0.381c-0.068,0.114-0.163,0.17-0.279,0.193c0.096-0.009,0.197-0.009,0.297-0.023
			c0.102-0.014,0.201-0.033,0.299-0.061c0.098-0.028,0.19-0.081,0.29-0.109c0.143-0.041,0.221,0.071,0.259,0.195
			c0.017,0.054,0.014,0.139,0.042,0.187c0.039,0.065,0.146,0.043,0.193,0.098c0.023,0.027,0.022,0.059,0.053,0.078
			c0.028,0.02,0.071,0.025,0.103,0.039c0.064,0.029,0.096,0.064,0.139,0.116c0.059,0.072,0.103,0.034,0.165-0.011
			c0.032-0.025,0.032-0.03,0.051-0.064c0.016-0.028,0.044-0.065,0.073-0.076c0.051-0.02,0.165,0.003,0.22,0.017
			c0.065,0.019,0.131,0.023,0.199,0.036c0.031,0.005,0.067,0.012,0.093,0.028c0.036,0.025,0.034,0.034,0.083,0.034
			c0.048,0.003,0.076,0.003,0.117-0.025c0.025-0.017,0.045-0.034,0.072-0.047c0.042-0.02,0.182-0.077,0.179,0.017
			c0.031,0.071,0.061,0.143,0.093,0.212c0.123,0.264,0.294,0.503,0.396,0.777c0.106,0.29,0.143,0.68,0.411,0.873
			c0.126,0.092,0.284,0.115,0.435,0.137c0.122,0.015,0.28,0.023,0.372,0.118c0.217,0.224-0.15,0.618-0.304,0.76
			c-0.107,0.101-0.235,0.184-0.336,0.293c-0.089,0.096-0.133,0.211-0.148,0.339c-0.042,0.345,0.031,0.699-0.076,1.035
			c-0.102,0.306-0.351,0.53-0.498,0.813c-0.151,0.295-0.187,0.644-0.358,0.927c-0.154,0.255-0.469,0.448-0.765,0.466
			c-0.354,0.02-0.413-0.342-0.457-0.621c-0.042-0.02-0.114-0.036-0.144-0.077c-0.037-0.053,0.005-0.127-0.025-0.184
			c-0.025-0.048-0.058-0.085-0.089-0.124c-0.014-0.015-0.034-0.048-0.031-0.07c0.007-0.03,0.044-0.034,0.065-0.053
			c-0.018-0.039-0.072-0.076-0.115-0.081c-0.031-0.086,0.005-0.179-0.03-0.266c-0.017-0.04-0.048-0.071-0.058-0.114
			c-0.005-0.021,0.002-0.043-0.008-0.063c-0.009-0.019-0.033-0.024-0.047-0.04c-0.047-0.054-0.021-0.185-0.013-0.251
			c0.005-0.044,0.005-0.086,0.028-0.123c0.017-0.028,0.034-0.049,0.048-0.079c0.036-0.074,0.061-0.13,0.056-0.218
			c-0.004-0.085-0.019-0.169-0.025-0.253c-0.001-0.047,0.009-0.095,0.003-0.141c-0.006-0.037-0.022-0.073-0.03-0.109
			c-0.016-0.078-0.022-0.163-0.045-0.239c-0.02-0.063-0.058-0.122-0.103-0.169c-0.051-0.054-0.073-0.105-0.154-0.119
			c0.02-0.08,0.051-0.114,0.109-0.167c0.053-0.049,0.078-0.12,0.032-0.183c-0.048-0.067-0.142-0.066-0.215-0.067
			c-0.084-0.003-0.17-0.005-0.256-0.005c-0.009-0.072,0.008-0.151-0.003-0.224c-0.139-0.018-0.263,0.006-0.402,0.02
			c-0.126,0.013-0.228-0.042-0.349-0.053c-0.109-0.01-0.202,0.051-0.308,0.062c-0.098,0.009-0.151-0.06-0.226-0.109
			c-0.054-0.036-0.115-0.049-0.174-0.067c-0.027-0.008-0.054-0.017-0.079-0.03c-0.086-0.044-0.128-0.134-0.177-0.213
			c-0.045-0.078-0.107-0.149-0.138-0.232c-0.038-0.098-0.031-0.204-0.02-0.305c0.02-0.208,0.083-0.459-0.09-0.615
			C8.679,10.008,8.72,9.945,8.723,9.862c0-0.045-0.007-0.076,0.024-0.108c0.027-0.028,0.052-0.032,0.061-0.076
			C8.876,9.68,8.869,9.591,8.935,9.577C8.996,9.47,9.066,9.414,9.169,9.351c0.01-0.007,0.019-0.014,0.028-0.021
			C9.28,9.262,9.3,9.17,9.317,9.06c0.014-0.1,0.034-0.183,0.117-0.248C9.509,8.754,9.58,8.7,9.651,8.635
			c0.087-0.08,0.183-0.113,0.285-0.13C9.923,8.506,9.912,8.507,9.899,8.508C9.747,8.511,9.561,8.481,9.502,8.319
			c-0.05-0.131-0.055-0.346,0.05-0.453c0.061-0.065,0.152-0.079,0.235-0.091c0.068-0.009,0.163-0.008,0.217-0.06
			c0.1-0.097-0.134-0.326-0.081-0.417c0.05-0.091,0.176-0.072,0.275-0.097c0.12-0.031,0.186-0.037,0.255-0.147
			c0.048-0.075,0.128-0.113,0.184-0.182c0.025-0.03,0.046-0.06,0.081-0.084c0.033-0.023,0.071-0.038,0.097-0.072
			c0.062-0.083,0.045-0.177,0.167-0.199c0.099-0.017,0.169,0.02,0.249,0.072c0.078,0.053,0.161,0.074,0.253,0.085
			c0.09,0.01,0.215,0.03,0.279-0.049c0.028-0.036,0.04-0.083,0.068-0.121c0.031-0.044,0.075-0.077,0.108-0.118
			c0.079-0.105,0.014-0.171-0.091-0.207c-0.022-0.042-0.042-0.096-0.035-0.148c0.006-0.038,0.025-0.07,0.038-0.11
			c0.015-0.048,0.118-0.267,0.008-0.236c-0.016,0.066-0.111,0.113-0.145,0.168c-0.037,0.06-0.123,0.152-0.101,0.228
			c0.065,0.042,0.145,0.094,0.146,0.183c0,0.086-0.069,0.162-0.134,0.208c-0.072,0.049-0.167,0.083-0.251,0.058
			c-0.09-0.025-0.129-0.105-0.176-0.178c-0.126-0.201-0.274,0.073-0.432-0.002c-0.154-0.071-0.044-0.369,0.053-0.444
			c0.076-0.058,0.164-0.096,0.231-0.168c0.069-0.072,0.097-0.16,0.112-0.258c0.067-0.035,0.12-0.087,0.186-0.121
			c0.079-0.044,0.167-0.028,0.254-0.04c0.078-0.012,0.128-0.06,0.192-0.102c0.067-0.043,0.144-0.069,0.222-0.088
			c0.163-0.039,0.363-0.035,0.52,0.032c0.066,0.027,0.126,0.067,0.195,0.09c0.07,0.024,0.154,0.032,0.215,0.076
			c0.066,0.048,0.077,0.137,0.137,0.188c0.086,0.074,0.085-0.04,0.167-0.079c0.086-0.04,0.179,0.092,0.276,0.101
			c0.103,0.009,0.176-0.046,0.253-0.108c0.151-0.123,0.327-0.204,0.524-0.192c0.097,0.006,0.217,0.041,0.301-0.026
			c0.072-0.056,0.104-0.131,0.193-0.165c0.094-0.036,0.199-0.034,0.296-0.05c0.124-0.021,0.249-0.036,0.376-0.056
			c0.106-0.016,0.17-0.056,0.215-0.156c0.039-0.09,0.068-0.159,0.171-0.182c0.03-0.006,0.06-0.01,0.091-0.013
			c0.089-0.006,0.18,0.002,0.266,0.005c0.111,0.006,0.221,0.008,0.33,0.021c0.109,0.013,0.213,0.043,0.319,0.064
			c0.027,0.005,0.055,0.01,0.081,0.016c0.067,0.016,0.136,0.041,0.164,0.118c0.028,0.074,0.004,0.197,0.098,0.216
			c0.097,0.019,0.198-0.04,0.296-0.027c0.09,0.011,0.171,0.045,0.263,0.027c0.097-0.019,0.184-0.065,0.284-0.069
			c0.098-0.003,0.181,0.027,0.25,0.107c0.064,0.076,0.12,0.121,0.218,0.127c0.051,0.003,0.104-0.004,0.156-0.009
			c0.011-0.079-0.015-0.092-0.056-0.146c-0.031-0.038-0.066-0.101-0.028-0.132c0.298-0.247,0.731,0.133,1.096,0.201
			c0.086,0.016,0.173,0.019,0.26,0.031C18.026,2.055,14.656,0,10.807,0c-3.89,0-7.29,2.099-9.193,5.239
			c0.016,0.007,0.029,0.017,0.046,0.022c0.09,0.028,0.196,0.017,0.295,0.012c0.024-0.001,0.047-0.002,0.07-0.002
			c0.125,0,0.257,0.017,0.38-0.007C2.525,5.241,2.626,5.225,2.75,5.241C2.857,5.256,2.968,5.255,3.064,5.31
			C3.17,5.37,3.287,5.373,3.412,5.355C3.403,5.271,3.359,5.184,3.279,5.164C3.214,5.146,3.004,5.217,3.046,5.059
			c0.022-0.004,0.062,0.016,0.076-0.002c0.008-0.014-0.03-0.052-0.02-0.065C3.16,4.904,3.212,4.974,3.283,4.911
			c0.04-0.036,0.075-0.066,0.129-0.074C3.49,4.825,3.683,4.808,3.756,4.838c0.08,0.033,0.086,0.16,0.159,0.197
			c0.089,0.043,0.252-0.009,0.353,0.003C4.271,5.069,4.28,5.134,4.271,5.164C4.25,5.223,4.23,5.198,4.194,5.228
			C4.149,5.266,4.09,5.37,4.152,5.428c0.053-0.014,0.154-0.053,0.2-0.09c0.056-0.043,0.072-0.131,0.115-0.186
			c0.076-0.096,0.248-0.116,0.333-0.011C4.849,5.2,4.804,5.254,4.835,5.319c0.036,0.072,0.076,0.037,0.096-0.013
			c0.038-0.09-0.009-0.088,0.089-0.118c0.054-0.014,0.109-0.019,0.162-0.051C5.131,5.1,5.014,5.04,5.08,4.979
			c0.059-0.056,0.265-0.01,0.336-0.004c0.162,0.013,0.313,0.068,0.472,0.108c0.182,0.045,0.39,0.21,0.431,0.428
			c0.042,0.215-0.148,0.413-0.371,0.423C5.753,5.94,5.453,5.808,5.572,5.631c0.022-0.033,0.035-0.13,0.008-0.154
			c-0.065-0.06-0.072-0.076-0.156-0.088C5.33,5.374,5.323,5.412,5.248,5.456C5.165,5.505,5.137,5.469,5.09,5.57
			C5.054,5.645,5.028,5.722,5.024,5.81c-0.186-0.01-0.372-0.054-0.542,0.052C4.358,5.938,4.094,6.006,4.063,6.183
			C4.028,6.392,4.268,6.41,4.372,6.505c0.111,0.104,0.161,0.298,0.227,0.437c0.064-0.031,0.026-0.097,0.038-0.156
			C4.64,6.766,4.671,6.727,4.679,6.7c0.005-0.022-0.001-0.058,0.002-0.082c0.153-0.075,0.224-0.118,0.212-0.316
			c-0.014-0.22,0.102-0.263,0.274-0.37c0.122-0.077,0.221-0.166,0.32,0c0.068,0.115,0.042,0.175,0.07,0.31
			c0.109,0.017,0.192-0.05,0.306-0.036c0.011,0.086-0.019,0.192,0.031,0.266C5.91,6.501,5.949,6.513,5.971,6.54
			C6.002,6.574,6.01,6.614,6.032,6.651c0.038,0.072,0.165,0.096,0.145,0.194c-0.011,0.052-0.232,0.289-0.101,0.27
			c0.008,0.066,0.056,0.313,0.047,0.377C6.027,7.505,5.888,7.41,5.801,7.402C5.797,7.342,5.86,7.14,5.846,7.086
			C5.826,7.004,5.814,7.028,5.74,7.028c-0.053,0.001-0.107-0.01-0.162,0c-0.06,0.01-0.101,0.045-0.158,0.066
			C5.412,7.172,5.533,7.552,5.572,7.649c0.055,0.128-0.257,0.042-0.385,0.065C5.062,7.738,4.93,7.715,4.815,7.786
			C4.71,7.848,4.66,7.96,4.598,8.065c-0.061,0.1-0.132,0.175-0.215,0.254c-0.171,0.165-0.357,0.345-0.481,0.56
			C3.836,8.994,3.799,9.122,3.76,9.252C3.742,9.316,3.716,9.485,3.635,9.487C3.56,9.488,3.473,9.302,3.431,9.25
			C3.356,9.159,3.273,9.088,3.156,9.12C3.041,9.152,2.941,9.253,2.835,9.31C2.726,9.371,2.611,9.393,2.497,9.436
			c-0.231,0.087-0.238,0.388-0.171,0.616c0.103,0.347,0.332,0.083,0.499-0.029c0.076-0.052,0.078-0.037,0.093,0.054
			c0.019,0.114,0.031,0.212,0.117,0.288c0.07,0.061,0.192,0.069,0.242,0.158c0.065,0.116-0.089,0.298-0.044,0.407
			c0.031,0.074,0.301,0.033,0.276,0.111c-0.014,0.046-0.006,0.085,0.038,0.105c0.042,0.019,0.109,0.019,0.145,0.056
			c0.03,0.031,0.038,0.075,0.038,0.122c0.067-0.178,0.17-0.324,0.371-0.34c0.132-0.009,0.268,0.024,0.396,0.061
			c0.122,0.034,0.245,0.073,0.366,0.114c0.226,0.079,0.608,0.318,0.779,0.502c0.181,0.194,0.012,0.252,0.238,0.387
			c0.192,0.115,0.468,0.205,0.709,0.307c0.109,0.041,0.21,0.085,0.298,0.133c0.122,0.068,0.257,0.158,0.32,0.289
			c0.05,0.108,0.025,0.219-0.028,0.32c-0.061,0.12-0.145,0.226-0.209,0.343c-0.067,0.122-0.112,0.251-0.142,0.388
			c-0.049,0.228-0.075,0.444-0.238,0.615c-0.008,0.009-0.016,0.02-0.025,0.03c-0.08,0.082-0.169,0.148-0.245,0.232
			c-0.08,0.086-0.137,0.186-0.181,0.3c-0.045,0.114-0.075,0.234-0.123,0.345c-0.048,0.109-0.114,0.203-0.196,0.282
			c-0.04,0.038-0.083,0.072-0.126,0.109c-0.039,0.152-0.061,0.297-0.203,0.369c-0.059,0.029-0.128,0.05-0.162,0.118
			c-0.034,0.074-0.028,0.167-0.042,0.247c-0.017,0.087-0.054,0.163-0.081,0.246c-0.022,0.079,0.083,0.199,0.098,0.278
			c0.019,0.091-0.064,0.134-0.064,0.23c0,0.08-0.005,0.162,0.036,0.232c0.095,0.166,0.365,0.05,0.458,0.194
			c0.076,0.115-0.098,0.231-0.237,0.227c-0.153-0.004-0.307-0.083-0.435-0.167c-0.229-0.15-0.424-0.404-0.496-0.692
			c-0.045-0.173-0.036-0.354-0.054-0.533c-0.016-0.171-0.075-0.322-0.123-0.484c-0.051-0.175-0.058-0.349-0.036-0.531
			c0.02-0.175,0.05-0.347,0.033-0.523c-0.014-0.17-0.058-0.337-0.094-0.5c-0.036-0.156-0.073-0.308-0.139-0.452
			c-0.014-0.03-0.017-0.07-0.042-0.088c-0.214-0.144-0.385-0.359-0.462-0.627c-0.037-0.135-0.118-0.232-0.197-0.344
			c-0.084-0.12-0.103-0.213-0.114-0.362c-0.012-0.175,0.028-0.376,0.148-0.5c-0.003-0.027,0.061-0.078,0.076-0.098
			c0.031-0.036,0.396-0.08,0.405-0.128c0.007-0.045,0.365-0.088,0.365-0.136c0-0.052,0-0.103,0-0.155L3.995,11.59
			c0.014-0.059-0.144-0.118-0.127-0.175c-0.095,0.002-0.196-0.104-0.29-0.137c-0.091-0.031-0.268,0.024-0.357-0.022
			c-0.084-0.046-0.093-0.181-0.16-0.244c-0.072-0.064-0.189-0.056-0.276-0.072c0-0.1-0.11-0.157-0.18-0.189
			c-0.12-0.052-0.255-0.123-0.377-0.155c-0.084-0.022-0.126-0.035-0.191-0.102c-0.047-0.048-0.033-0.047-0.096-0.069
			c-0.042-0.014-0.073-0.018-0.119-0.023c-0.098-0.014-0.122-0.055-0.178-0.152c-0.041-0.07-0.083-0.134-0.11-0.209
			c-0.03-0.08-0.038-0.179-0.047-0.263c-0.008-0.059,0.014-0.097-0.029-0.13C1.428,9.627,1.35,9.645,1.316,9.648
			c-0.008,0.053,0.008,0.12-0.012,0.168C1.218,9.637,1.151,9.446,1.061,9.271C0.968,9.094,0.855,8.937,0.814,8.732
			c-0.04-0.21-0.028-0.446-0.014-0.66C0.817,7.82,0.901,7.668,1.02,7.463c0.093-0.164,0.099-0.338,0.077-0.52
			C1.093,6.906,1.088,6.87,1.082,6.832C1.063,6.7,1.033,6.561,0.985,6.432C0.358,7.824,0,9.368,0,11c0,6.075,4.838,11,10.807,11
			c4.407,0,8.192-2.69,9.874-6.541C20.671,15.461,20.665,15.456,20.656,15.459z M14.332,4.674c0.047,0.039,0.103,0.122,0.059,0.182
			c-0.048,0.064-0.168,0.058-0.237,0.082c-0.059,0.021-0.171,0.077-0.106,0.229c0.013,0.025,0.025,0.032,0.013,0.061
			c-0.028,0.076-0.33,0.156-0.435-0.014C13.585,5.148,13.62,5.085,13.66,5.03c0.044-0.061,0.068-0.112,0.092-0.182
			c0.057-0.177,0.234-0.141,0.381-0.192C14.207,4.631,14.269,4.619,14.332,4.674z M13.041,4.475
			c0.051-0.061,0.125-0.074,0.198-0.085c0.073-0.013,0.147-0.034,0.22-0.041c0.088-0.008,0.173,0.009,0.262,0.008
			c0.078-0.001,0.172-0.027,0.248,0.008c0.067,0.03,0.089,0.107,0.03,0.157c-0.075,0.063-0.193,0.035-0.282,0.036
			c-0.084,0.003-0.157,0.03-0.234,0.065l0.042-0.055c-0.058,0.052-0.117,0.076-0.195,0.083c-0.081,0.006-0.192,0.018-0.268-0.017
			C12.99,4.603,12.996,4.53,13.041,4.475z M11.226,4.483c0.014-0.005,0.025-0.02,0.039-0.028c0.033-0.017,0.098-0.036,0.134-0.027
			c0.009,0.003,0.006,0.02,0.017,0.022c0.012,0.005,0.028,0,0.042,0c0.019-0.002,0.037,0,0.055-0.009
			c0.034-0.018,0.056-0.034,0.098-0.049c0.045-0.017,0.084-0.017,0.132-0.017c0.056,0.002,0.065,0.016,0.092,0.06
			c0.043,0.076,0.167,0.024,0.245,0.041c-0.045,0.105-0.148,0.105-0.245,0.138c-0.052,0.018-0.111,0.027-0.158,0.057
			c-0.039,0.025-0.069,0.061-0.111,0.085c-0.075,0.044-0.242,0.084-0.283-0.012c-0.028-0.065-0.094-0.088-0.134-0.141
			c-0.022-0.029-0.033-0.053-0.014-0.086C11.161,4.472,11.187,4.494,11.226,4.483z M4.224,4.869C4.219,4.871,4.215,4.871,4.21,4.87
			l0.009-0.024C4.193,4.884,4.163,4.926,4.115,4.923c-0.04-0.004-0.073-0.039-0.111-0.055C3.95,4.844,3.797,4.869,3.791,4.772
			C3.786,4.695,3.933,4.65,3.981,4.626C4.067,4.583,4.129,4.58,4.196,4.656c0.026,0.031,0.073,0.061,0.09,0.101
			C4.305,4.808,4.255,4.843,4.224,4.869z M4.589,4.69c-0.02,0.005-0.022,0.015-0.036,0.026c-0.019,0.014-0.02,0.016-0.047,0.016
			c-0.033,0-0.072,0.004-0.103-0.01C4.386,4.714,4.372,4.706,4.356,4.7c-0.012-0.005-0.034-0.01-0.043-0.02
			c-0.019-0.022-0.029-0.08-0.001-0.096c0.028-0.019,0.072,0.005,0.104-0.02C4.45,4.537,4.45,4.508,4.498,4.503
			C4.614,4.49,4.632,4.593,4.589,4.69z M9.219,5.93c-0.008,0.006-0.014,0.01-0.022,0.015c-0.106,0.07-0.178-0.007-0.288-0.049
			C8.859,5.876,8.798,5.87,8.787,5.808C8.778,5.746,8.823,5.644,8.862,5.598C8.909,5.544,8.94,5.583,8.988,5.614
			C9.049,5.65,9.1,5.654,9.16,5.615c0.014-0.009,0.026-0.017,0.037-0.023C9.237,5.57,9.27,5.567,9.325,5.598
			C9.365,5.621,9.413,5.656,9.431,5.7C9.483,5.832,9.292,5.87,9.219,5.93z M9.909,6.356c0.039-0.04,0.132-0.046,0.176-0.015
			c0.064,0.043,0.085,0.137,0.108,0.207c0.019,0.058,0.041,0.112,0.075,0.162c0.033,0.047,0.067,0.089,0.071,0.149
			c0.01,0.126-0.151,0.332-0.286,0.251c-0.12-0.069-0.045-0.288-0.07-0.399C9.97,6.651,9.937,6.601,9.919,6.545
			C9.901,6.497,9.867,6.398,9.909,6.356z M9.717,6.674c0.2-0.046,0.139,0.13,0.17,0.263c0.026,0.113-0.154,0.159-0.267,0.101
			C9.58,7.015,9.541,6.997,9.494,6.993C9.446,6.988,9.35,6.98,9.382,6.906C9.396,6.877,9.437,6.858,9.46,6.839
			C9.498,6.81,9.534,6.773,9.576,6.752C9.624,6.726,9.663,6.685,9.717,6.674z M6.199,4.715C6.195,4.726,6.2,4.741,6.192,4.749
			C6.13,4.814,6.032,4.774,5.943,4.774c-0.081,0-0.172-0.01-0.251,0.004C5.687,4.832,5.689,4.876,5.667,4.923
			C5.617,4.932,5.432,4.954,5.393,4.92C5.349,4.88,5.38,4.69,5.375,4.626c-0.048-0.002-0.082-0.034-0.13-0.028
			C5.21,4.432,5.32,4.494,5.41,4.473c0.075-0.018,0.112-0.091,0.176-0.12C5.67,4.316,5.665,4.38,5.743,4.412
			c0.079,0.035,0.12-0.017,0.197-0.008c0.001-0.017-0.006-0.042,0.005-0.053C6.08,4.231,6.273,4.33,6.443,4.319
			c0.022-0.002,0.08-0.006,0.145-0.01C6.756,4.3,6.99,4.299,7.008,4.365c0.022,0.076-0.32,0.164-0.384,0.179
			c-0.012,0.005-0.023,0.007-0.036,0.01C6.448,4.588,6.297,4.576,6.199,4.715z M7.78,5.671C7.592,5.799,7.562,6.054,7.392,6.197
			C7.197,6.359,6.951,6.175,6.853,5.989C6.806,5.902,6.777,5.791,6.827,5.698C6.872,5.613,6.968,5.57,7.052,5.53
			c0.006-0.055,0.005-0.087,0.045-0.127c0.04-0.041,0.053-0.07,0.04-0.139C7.102,5.246,7.073,5.246,7.046,5.209
			C7.026,5.179,7.023,5.156,7.021,5.12c0-0.036,0.006-0.076-0.009-0.109C6.996,4.979,7.009,4.939,6.968,4.915
			c-0.014-0.008-0.04,0.022-0.057,0.042C6.923,4.964,6.943,4.965,6.954,4.97C6.933,4.969,6.911,4.966,6.893,4.981
			c0,0,0.008-0.011,0.018-0.024c-0.002,0-0.003,0-0.005-0.001c-0.011-0.008-0.013-0.033-0.02-0.044
			c-0.023-0.03-0.039-0.016-0.069-0.03C6.778,4.865,6.744,4.829,6.699,4.818C6.664,4.811,6.627,4.813,6.588,4.816
			C6.562,4.818,6.532,4.822,6.507,4.818C6.46,4.813,6.373,4.804,6.349,4.756c0.016-0.012,0.014-0.027,0.027-0.039
			C6.393,4.697,6.4,4.696,6.424,4.684c0.028-0.014,0.058-0.03,0.089-0.036c0.027-0.007,0.05-0.014,0.075-0.02
			c0.014-0.003,0.028-0.006,0.045-0.008c0.036-0.003,0.081-0.005,0.118-0.011c0.026-0.005,0.082-0.016,0.106-0.031
			c0.024-0.016,0.034-0.054,0.061-0.07c0.053-0.031,0.12-0.074,0.137-0.141c0.05-0.008,0.098-0.016,0.148-0.023
			c0.449-0.071,0.899-0.076,1.351-0.11c0.209-0.018,0.433-0.042,0.642-0.002c0.038,0.007,0.076,0.016,0.114,0.028
			c0.091,0.03,0.189,0.084,0.219,0.18c0.03,0.095-0.015,0.193-0.067,0.269C9.391,4.814,9.295,4.904,9.197,4.989
			C9.123,5.054,9.046,5.116,8.976,5.181C8.82,5.322,8.671,5.444,8.466,5.5C8.246,5.561,7.975,5.538,7.78,5.671z M14.548,14.028
			c-0.051,0.086-0.013,0.2-0.08,0.277c-0.056,0.064-0.129,0.113-0.185,0.176c-0.081,0.088-0.002,0.244-0.154,0.256
			c-0.016,0.052-0.036,0.1-0.098,0.098c-0.059-0.002-0.129-0.043-0.17-0.085c-0.089-0.094-0.075-0.281,0.037-0.349
			c0.048-0.03,0.096-0.041,0.125-0.097c0.03-0.063,0.028-0.143,0.028-0.212c0.002-0.123-0.052-0.313,0.1-0.363
			c0.063-0.021,0.135-0.018,0.182-0.075c0.042-0.05,0.062-0.12,0.092-0.177c0.148-0.015,0.111,0.146,0.142,0.248
			C14.603,13.838,14.612,13.923,14.548,14.028z M20.299,10.296c0.03-0.004,0.068-0.007,0.086,0.02l0.009,0.066
			c0.019,0.109,0.048,0.19,0.122,0.267c0.069,0.075,0.114,0.14,0.129,0.25c0.014,0.099,0.02,0.191,0.073,0.275
			c0.05,0.083,0.126,0.152,0.14,0.256c0.013,0.084-0.033,0.193-0.115,0.205c-0.09,0.013-0.129-0.105-0.146-0.184
			c-0.022-0.099-0.026-0.201-0.062-0.297c-0.031-0.079-0.079-0.15-0.112-0.23c-0.074-0.171-0.101-0.365-0.162-0.542
			C20.312,10.382,20.295,10.333,20.299,10.296z M19.631,11.952c0.091-0.05,0.136-0.128,0.195-0.215
			c0.106-0.161,0.337-0.332,0.461-0.102c0.056,0.105,0.094,0.248,0.04,0.363c-0.023,0.053-0.059,0.096-0.095,0.138
			c-0.025,0.031-0.092,0.082-0.103,0.123c-0.011,0.043,0.033,0.095,0.036,0.139c0.005,0.054-0.012,0.102-0.047,0.139
			c-0.083,0.089-0.198,0.057-0.291,0.013c-0.162-0.076-0.436-0.136-0.396-0.403C19.448,12.03,19.548,11.998,19.631,11.952z
			 M19.347,12.99c-0.028-0.016-0.058-0.01-0.089-0.014l0.028,0.021c-0.019,0.044-0.067-0.008-0.047-0.041
			c0.048-0.074,0.143-0.1,0.227-0.098c0.081,0,0.154,0.044,0.229,0.065c0.167,0.048,0.34,0.011,0.51,0.025
			c0.158,0.013,0.319,0.028,0.475,0.051c0.069,0.01,0.171,0.023,0.223,0.08c0.049,0.053-0.006,0.085-0.053,0.098
			c-0.153,0.046-0.33,0.005-0.477-0.049c-0.039,0.001-0.084-0.049-0.115-0.066c-0.039-0.019-0.094-0.032-0.136-0.033
			c-0.103,0-0.192,0.027-0.293,0.044c-0.056,0.01-0.109,0.01-0.168,0.01c-0.053,0-0.087-0.018-0.137-0.03
			c-0.039-0.009-0.078-0.02-0.118-0.032C19.377,13.014,19.372,13.002,19.347,12.99z"/>
		<path style="fill:#E4002B;" d="M20.594,6.732c0.097,0.072,0.184,0.174,0.263,0.267c0.008,0.009,0.011,0.02,0.018,0.029
			C20.791,6.807,20.7,6.59,20.602,6.376c-0.004,0-0.009,0-0.013,0c-0.074,0-0.149,0.002-0.224,0
			c-0.123-0.002-0.283,0.102-0.19,0.258C20.321,6.636,20.469,6.637,20.594,6.732z"/>
	</g>
</g>
<g id="Layer_1">
</g>
</svg>
