<?xml version="1.0" encoding="utf-8"?>
<!-- Generator: Adobe Illustrator 19.0.0, SVG Export Plug-In . SVG Version: 6.00 Build 0)  -->
<svg version="1.1" id="Layer_1" xmlns="http://www.w3.org/2000/svg" xmlns:xlink="http://www.w3.org/1999/xlink" x="0px" y="0px"
	 width="19.9px" height="20px" viewBox="6.1 5.8 19.9 20" style="enable-background:new 6.1 5.8 19.9 20;" xml:space="preserve">
<style type="text/css">
	.st0{fill:#0064D2;}
	.st1{fill:#FFFFFF;}
</style>
<g>
	<g>
		<path class="st0" d="M17.3,25.4c-0.4,0.1-1.6,0.2-3-0.1c-1.3-0.2-2.3-0.7-2.9-1c-2.7-1.5-3.8-3.7-4.2-4.4
			c-0.4-0.9-0.7-1.9-0.7-2.9c-0.2-4.8,3.9-9.1,9.2-9.8c-5.3,0.7-9.4,5.1-9.2,9.8c0.1,1.1,0.2,2,0.7,2.9c-0.2-0.4-0.4-1-0.6-1.4
			c-0.1-0.2-0.2-0.7-0.2-1c-0.1-0.4-0.1-1-0.1-1.4c0-0.4,0-1.1,0.1-1.6c0.1-1,0.2-1.7,0.9-3c0.1-0.1,0.6-1.2,1.6-2.3
			c2-2.2,4.3-2.8,5.1-3c0.7-0.1,2.9-0.6,5.6,0.4c1.3,0.6,2.2,1.1,2.4,1.4c1.1,0.8,1.7,1.7,1.9,1.9c0.2,0.3,0.6,0.9,0.8,1.2
			c0.2,0.3,0.4,0.7,0.4,1.1c0.1,0.4,0.3,0.9,0.4,1.3c0.1,0.2,0.1,0.6,0.1,0.8c0.1,0.3,0.1,0.7,0.1,1c0,0.4,0,1.1-0.1,1.6
			c-0.1,0.7-0.1,0.9-0.3,1.7c-0.1,0.4-0.3,1-0.6,1.4c-0.1,0.3-0.4,0.8-0.7,1.1c-0.3,0.6-1.7,2.4-4.3,3.6
			C18.8,25.3,17.8,25.4,17.3,25.4"/>
		<path class="st0" d="M16,25.8c-0.6,0-1.1-0.1-1.7-0.1c-1.3-0.2-2.3-0.7-3-1c-2.8-1.5-3.8-3.7-4.3-4.5l0,0l0,0
			c-0.1-0.2-0.2-0.6-0.3-0.9c-0.1-0.2-0.1-0.4-0.2-0.6c-0.1-0.2-0.2-0.7-0.2-1c-0.1-0.3-0.2-0.9-0.2-1.4c0-0.2,0-1,0.1-1.6
			c0.1-1,0.2-1.7,0.9-3c0.1-0.1,0.6-1.2,1.6-2.4c2-2.2,4.3-2.8,5.2-3C14.2,6.2,15,6.1,16,6.1c1.2,0,2.4,0.2,3.5,0.7
			c1.3,0.6,2.2,1.2,2.5,1.4c1.1,0.8,1.8,1.7,2,2c0.2,0.4,0.6,0.9,0.8,1.2c0.2,0.3,0.4,0.8,0.6,1.1c0.1,0.4,0.3,0.9,0.4,1.3v0.1
			c0.1,0.2,0.1,0.6,0.1,0.7c0,0.2,0.1,0.7,0.1,1c0,0.4,0,1.1-0.1,1.6c-0.1,0.7-0.1,1-0.3,1.7c-0.1,0.6-0.4,1.2-0.6,1.4
			c-0.2,0.3-0.4,0.8-0.7,1.1C24.1,22,22.6,23.9,20,25c-1.1,0.4-2.1,0.7-2.7,0.7C17.1,25.7,16.6,25.8,16,25.8z M7,19.1
			c0.1,0.2,0.2,0.6,0.3,0.8c0.4,0.8,1.4,2.8,4.1,4.3c0.6,0.3,1.6,0.7,2.8,1c0.6,0.1,1.1,0.1,1.7,0.1c0.6,0,1.1-0.1,1.2-0.1
			c0.4-0.1,1.4-0.2,2.5-0.7c2.5-1.1,3.8-3,4.1-3.5c0.2-0.3,0.4-0.7,0.6-1.1c0.1-0.2,0.4-0.9,0.6-1.4c0.2-0.7,0.2-0.9,0.3-1.6
			c0.1-0.4,0.1-1.1,0.1-1.5c0-0.3-0.1-0.8-0.1-1s-0.1-0.4-0.1-0.7v-0.1c-0.1-0.4-0.2-0.9-0.4-1.3c-0.1-0.3-0.3-0.7-0.4-1.1
			c-0.2-0.4-0.6-0.9-0.8-1.2c-0.2-0.2-0.9-1.1-1.9-1.9c-0.2-0.2-1.1-0.9-2.4-1.3c-1.1-0.4-2.2-0.6-3.4-0.6c-1,0-1.7,0.1-2,0.2
			c-0.9,0.2-3,0.7-5,2.9c-1.1,1.1-1.6,2.2-1.7,2.3c-0.6,1.3-0.7,2-0.9,3c-0.1,0.2-0.1,0.6-0.1,0.9c0.2-1.9,1.2-3.7,2.7-5.1
			c1.7-1.9,4.1-3,6.6-3.3l0.1,0.3c-2.5,0.3-4.8,1.4-6.4,3.2c-1.7,1.8-2.7,4-2.7,6.1c0,0.1,0,0.2,0,0.2C6.7,17.8,6.9,18.4,7,19.1z"/>
	</g>
	<g>
		<path class="st1" d="M15.9,13c0,0.1-0.1,0.1-0.1,0.1l0,0C15.8,13,15.8,13,15.9,13L15.9,13"/>
		<path class="st1" d="M17.6,6.6c0.1,0,0.1,0,0.2,0.1c0,0,0,0-0.1,0l0,0c0,0,0.1,0,0.1,0.1C17.8,6.6,17.7,6.6,17.6,6.6
			C17.6,6.6,17.6,6.6,17.6,6.6C17.6,6.6,17.6,6.6,17.6,6.6C17.6,6.6,17.6,6.6,17.6,6.6L17.6,6.6c0.1,0.1,0.1,0.1,0.1,0.1l0,0l0,0
			C17.7,6.6,17.7,6.6,17.6,6.6c0.1,0.1,0.1,0.1,0.1,0.1l0,0C17.6,6.6,17.6,6.6,17.6,6.6L17.6,6.6L17.6,6.6
			C17.6,6.5,17.6,6.5,17.6,6.6"/>
		<path class="st1" d="M17.4,6.5C17.4,6.5,17.4,6.6,17.4,6.5C17.4,6.6,17.4,6.6,17.4,6.5C17.4,6.6,17.4,6.6,17.4,6.5
			C17.4,6.6,17.4,6.6,17.4,6.5L17.4,6.5"/>
		<path class="st1" d="M17.4,6.5C17.5,6.5,17.5,6.5,17.4,6.5L17.4,6.5C17.4,6.5,17.4,6.5,17.4,6.5C17.4,6.5,17.4,6.5,17.4,6.5"/>
		<path class="st1" d="M16.6,6.3L16.6,6.3C16.6,6.3,16.6,6.3,16.6,6.3C16.6,6.3,16.6,6.3,16.6,6.3L16.6,6.3L16.6,6.3"/>
		<path class="st1" d="M16.9,6.4L16.9,6.4C17,6.4,17,6.4,16.9,6.4L16.9,6.4L16.9,6.4L16.9,6.4"/>
		<path class="st1" d="M18.2,6.9C18.3,7,18.3,7,18.2,6.9C18.3,6.9,18.3,7,18.2,6.9C18.3,7,18.3,7,18.2,6.9C18.3,7,18.2,7,18.2,6.9
			L18.2,6.9"/>
		<path class="st1" d="M17.8,6.6C17.8,6.6,17.9,6.6,17.8,6.6C17.9,6.6,17.9,6.6,17.8,6.6C17.9,6.6,17.9,6.6,17.8,6.6L17.8,6.6
			L17.8,6.6"/>
		<path class="st1" d="M16.1,9L16.1,9C16.1,9,16.1,9,16.1,9C16.1,9,16.1,9,16.1,9C16.1,9,16.1,9,16.1,9C16.1,9,16.1,9,16.1,9L16.1,9
			"/>
		<path class="st1" d="M17.1,6.4C17.1,6.4,17.1,6.4,17.1,6.4C17.1,6.4,17.1,6.4,17.1,6.4L17.1,6.4L17.1,6.4"/>
		<path class="st1" d="M16.1,9.2c0,0.1-0.2,0-0.2,0l0,0c0,0,0,0,0.1,0l0,0c0,0,0,0-0.1-0.1h0.1C15.9,9.1,16,9.1,16.1,9.2
			C16,9.1,16,9.1,16.1,9.2L16.1,9.2"/>
		<path class="st1" d="M16,6.2c0.1,0,0.1,0,0.2,0h-0.1C16.1,6.2,16,6.2,16,6.2C16,6.2,15.9,6.2,16,6.2C15.9,6.2,15.9,6.2,16,6.2"/>
		<path class="st1" d="M16.3,9.2c0,0.1-0.1,0.1-0.2,0c0-0.1,0-0.1,0-0.1C16.1,9.1,16.1,9.1,16.3,9.2C16.2,9.1,16.2,9.2,16.3,9.2
			C16.3,9.2,16.3,9.2,16.3,9.2C16.3,9.2,16.3,9.2,16.3,9.2"/>
		<path class="st1" d="M16,9.2L16,9.2C15.9,9.2,15.9,9.2,16,9.2C15.9,9.2,15.9,9.2,16,9.2C15.9,9.2,16,9.2,16,9.2L16,9.2"/>
		<path class="st1" d="M15.8,9.3L15.8,9.3C15.7,9.3,15.7,9.3,15.8,9.3C15.7,9.3,15.7,9.2,15.8,9.3C15.8,9.2,15.8,9.2,15.8,9.3"/>
		<path class="st1" d="M16.5,9.2C16.5,9.2,16.4,9.2,16.5,9.2C16.4,9.2,16.4,9.2,16.5,9.2C16.4,9.2,16.4,9.2,16.5,9.2
			C16.4,9.2,16.4,9.2,16.5,9.2C16.4,9.2,16.5,9.2,16.5,9.2L16.5,9.2"/>
		<path class="st1" d="M16.3,6.2L16.3,6.2C16.3,6.2,16.3,6.2,16.3,6.2L16.3,6.2L16.3,6.2L16.3,6.2L16.3,6.2L16.3,6.2L16.3,6.2
			L16.3,6.2L16.3,6.2L16.3,6.2L16.3,6.2L16.3,6.2L16.3,6.2L16.3,6.2C16.3,6.2,16.3,6.2,16.3,6.2C16.3,6.2,16.3,6.2,16.3,6.2
			L16.3,6.2L16.3,6.2L16.3,6.2"/>
		<path class="st1" d="M15.3,9.3L15.3,9.3C15.2,9.3,15.2,9.3,15.3,9.3C15.2,9.3,15.2,9.3,15.3,9.3L15.3,9.3L15.3,9.3"/>
		<path class="st1" d="M13.8,6.5c0.1,0,0.2-0.1,0.4-0.1c0,0,0,0-0.1,0c-0.1,0-0.1,0-0.1,0C14,6.4,13.9,6.5,13.8,6.5L13.8,6.5"/>
		<path class="st1" d="M13.5,6.6c0.1,0,0.2-0.1,0.2-0.1C13.7,6.6,13.6,6.6,13.5,6.6L13.5,6.6"/>
		<path class="st1" d="M16.9,6.2L16.9,6.2L16.9,6.2L16.9,6.2L16.9,6.2L16.9,6.2L16.9,6.2L16.9,6.2"/>
		<path class="st1" d="M15.7,9.4C15.7,9.4,15.6,9.5,15.7,9.4C15.6,9.4,15.6,9.4,15.7,9.4L15.7,9.4L15.7,9.4"/>
		<path class="st1" d="M19.1,8.2C19.1,8.2,19.1,8.2,19.1,8.2C19.1,8.2,19.1,8.2,19.1,8.2C19.1,8.2,19,8.2,19.1,8.2
			C19,8.2,19,8.2,19.1,8.2C19,8.2,19,8.2,19.1,8.2C19,8.2,19,8.2,19.1,8.2C19,8.2,19,8.2,19.1,8.2C19,8.2,19,8.2,19.1,8.2
			C19,8.2,19,8.2,19.1,8.2C19,8.2,19,8.2,19.1,8.2C19,8.2,19,8.2,19.1,8.2C19,8.2,19,8.2,19.1,8.2C19,8.2,19,8.2,19.1,8.2
			C19,8.2,19,8.2,19.1,8.2C19,8.2,19,8.2,19.1,8.2C19,8.2,19,8.2,19.1,8.2C19,8.2,19,8.2,19.1,8.2C19,8.2,19,8.2,19.1,8.2
			C19,8.2,19,8.2,19.1,8.2L19.1,8.2L19.1,8.2L19.1,8.2"/>
		<path class="st1" d="M14,6.4C14,6.4,14,6.4,14,6.4C14,6.4,14,6.4,14,6.4C14.1,6.4,14,6.4,14,6.4C14,6.4,14,6.4,14,6.4L14,6.4"/>
		<path class="st1" d="M13.8,6.5L13.8,6.5C13.8,6.4,13.8,6.4,13.8,6.5C13.9,6.4,13.9,6.4,13.8,6.5C13.9,6.4,13.9,6.4,13.8,6.5
			L13.8,6.5"/>
		<path class="st1" d="M13.6,6.5c0,0,0.1,0,0.1-0.1c0.1,0,0.1,0,0.1,0s0,0-0.1,0C13.7,6.5,13.7,6.5,13.6,6.5L13.6,6.5"/>
		<path class="st1" d="M17.1,6.2C17.1,6.2,17.1,6.2,17.1,6.2C17.1,6.2,17.1,6.2,17.1,6.2L17.1,6.2L17.1,6.2"/>
		<path class="st1" d="M12,7.5C12,7.5,12,7.4,12,7.5c0.1-0.1,0.1-0.1,0.1-0.1l0,0l0,0C12.1,7.4,12.1,7.4,12,7.5L12,7.5"/>
		<path class="st1" d="M19.7,8.2L19.7,8.2C19.7,8.2,19.7,8.2,19.7,8.2L19.7,8.2L19.7,8.2"/>
		<path class="st1" d="M17.1,9.9c0,0.1,0,0.1-0.1,0.1C17,10,17,10,17.1,9.9C17,9.9,17,9.9,17.1,9.9L17.1,9.9"/>
		<path class="st1" d="M18.7,6.6c0.1,0,0.1,0.1,0.1,0.1C18.9,6.6,18.8,6.6,18.7,6.6L18.7,6.6L18.7,6.6"/>
		<path class="st1" d="M15.6,10.1C15.6,10.1,15.6,10.1,15.6,10.1C15.5,10.1,15.5,10.1,15.6,10.1L15.6,10.1"/>
		<path class="st1" d="M17.3,10c0,0.1-0.1,0.1-0.1,0.1C17.1,10,17.1,10,17.3,10C17.2,10,17.2,10,17.3,10L17.3,10"/>
		<path class="st1" d="M17.4,10C17.4,10,17.4,10.1,17.4,10C17.3,10.1,17.3,10,17.4,10L17.4,10C17.3,10,17.3,10,17.4,10L17.4,10"/>
		<path class="st1" d="M17.2,10.6L17.2,10.6C17.1,10.6,17.1,10.6,17.2,10.6C17.2,10.5,17.2,10.6,17.2,10.6"/>
		<path class="st1" d="M17.1,10.6C17.1,10.6,17.1,10.6,17.1,10.6C17.1,10.6,17.1,10.6,17.1,10.6L17.1,10.6L17.1,10.6L17.1,10.6"/>
		<path class="st1" d="M16.8,10.7c0,0.1-0.1,0.1-0.1,0.1S16.6,10.7,16.8,10.7L16.8,10.7L16.8,10.7"/>
		<path class="st1" d="M17,10.8C17,10.9,17,10.9,17,10.8C16.9,10.9,16.9,10.8,17,10.8C16.9,10.8,17,10.8,17,10.8"/>
		<path class="st1" d="M20.8,8.7C20.8,8.7,20.8,8.7,20.8,8.7C20.8,8.7,20.8,8.7,20.8,8.7C20.8,8.7,20.8,8.7,20.8,8.7
			C20.8,8.7,20.8,8.7,20.8,8.7L20.8,8.7"/>
		<path class="st1" d="M18.2,10.6L18.2,10.6L18.2,10.6C18.1,10.6,18.1,10.6,18.2,10.6C18.1,10.6,18.1,10.6,18.2,10.6
			C18.1,10.6,18.1,10.6,18.2,10.6L18.2,10.6C18.1,10.6,18.1,10.6,18.2,10.6C18.1,10.6,18.2,10.6,18.2,10.6"/>
		<path class="st1" d="M17.9,10.9C18,10.9,17.9,11,17.9,10.9L17.9,10.9C17.9,10.8,17.9,10.9,17.9,10.9"/>
		<path class="st1" d="M10.4,8.6L10.4,8.6C10.4,8.5,10.4,8.5,10.4,8.6C10.4,8.5,10.4,8.5,10.4,8.6C10.4,8.6,10.4,8.6,10.4,8.6
			L10.4,8.6"/>
		<path class="st1" d="M21.1,8.6C21.1,8.6,21.1,8.7,21.1,8.6C21.1,8.7,21.1,8.7,21.1,8.6C21,8.6,21,8.6,21.1,8.6L21.1,8.6
			C21,8.6,21,8.6,21.1,8.6C21,8.6,21,8.6,21.1,8.6C21,8.6,21,8.6,21.1,8.6C21,8.6,21,8.6,21.1,8.6C21,8.6,21,8.6,21.1,8.6
			C21,8.6,21,8.6,21.1,8.6C21,8.6,21,8.6,21.1,8.6C21,8.6,21,8.6,21.1,8.6C21,8.6,21,8.6,21.1,8.6L21.1,8.6C21,8.6,21,8.6,21.1,8.6
			C21,8.6,21,8.6,21.1,8.6C21,8.6,21,8.6,21.1,8.6C21,8.6,21,8.6,21.1,8.6C21,8.6,21.1,8.6,21.1,8.6"/>
		<path class="st1" d="M10.8,9.7L10.8,9.7C10.8,9.7,10.8,9.7,10.8,9.7C10.8,9.7,10.8,9.7,10.8,9.7C10.8,9.7,10.8,9.7,10.8,9.7
			L10.8,9.7"/>
		<path class="st1" d="M20.8,7.7L20.8,7.7C20.8,7.7,20.9,7.7,20.8,7.7L20.8,7.7L20.8,7.7C20.8,7.7,20.8,7.7,20.8,7.7
			C20.8,7.7,20.8,7.7,20.8,7.7"/>
		<path class="st1" d="M10.8,7.9L10.8,7.9L10.8,7.9L10.8,7.9C10.8,7.7,10.8,7.7,10.8,7.9C10.8,7.9,10.8,7.9,10.8,7.9"/>
		<path class="st1" d="M11.1,10.4L11.1,10.4c-0.1,0-0.1,0.1-0.1,0.1c0,0,0,0-0.2,0c0-0.1,0.1-0.1,0.1-0.1h0.1
			C11,10.3,11.1,10.4,11.1,10.4L11.1,10.4"/>
		<path class="st1" d="M21.3,9C21.3,9,21.3,9.1,21.3,9c0.1,0.1,0.1,0.1,0.1,0.1l0,0L21.3,9C21.3,9.1,21.3,9.1,21.3,9L21.3,9
			C21.3,9,21.2,9,21.3,9L21.3,9L21.3,9"/>
		<path class="st1" d="M21.2,7.9c0.1,0,0.1,0.1,0.1,0.1c0,0,0.1,0,0.1,0.1C21.3,8,21.2,8,21.2,7.9L21.2,7.9L21.2,7.9"/>
		<path class="st1" d="M17.1,11.6C17.1,11.6,17,11.6,17.1,11.6C17,11.6,17,11.6,17.1,11.6C17,11.6,17,11.6,17.1,11.6
			C17,11.6,17,11.6,17.1,11.6C17,11.6,17,11.6,17.1,11.6c-0.1,0.1-0.1,0.1-0.1,0.1v-0.1c0,0,0,0,0-0.1
			C16.9,11.6,16.9,11.6,17.1,11.6C17,11.6,17,11.6,17.1,11.6L17.1,11.6"/>
		<path class="st1" d="M21.8,9.3L21.8,9.3L22,9.5c0,0,0,0,0.1,0.1c0,0,0,0.1,0,0.1c0,0.1,0.1,0.1,0,0.1c-0.1,0-0.1,0-0.1-0.1
			c0,0,0-0.1-0.1-0.1h-0.1c0,0,0,0-0.1-0.1l0,0l0,0l0,0l0,0l0,0l0,0l0,0l0,0c-0.1-0.1-0.1-0.1-0.1-0.2l0,0c0,0,0,0,0.1,0
			C21.8,9.3,21.8,9.3,21.8,9.3"/>
		<path class="st1" d="M21.8,9.3C21.9,9.3,21.9,9.3,21.8,9.3C21.8,9.3,21.8,9.3,21.8,9.3L21.8,9.3"/>
		<path class="st1" d="M9.7,10.1L9.7,10.1L9.7,10.1L9.7,10.1L9.7,10.1 M9.9,10.2L9.9,10.2C9.9,10.1,9.9,10.1,9.9,10.2
			C9.9,10.1,9.9,10.1,9.9,10.2c-0.1,0-0.1,0-0.1,0c0-0.1,0-0.1,0-0.1l0,0H9.7c0,0,0.1,0,0.1,0.1C9.8,10.2,9.8,10.3,9.9,10.2"/>
		<path class="st1" d="M9.7,8.8C9.6,8.8,9.6,8.8,9.7,8.8C9.7,8.7,9.7,8.7,9.7,8.8C9.7,8.7,9.7,8.7,9.7,8.8C9.7,8.7,9.7,8.7,9.7,8.8
			L9.7,8.8L9.7,8.8L9.7,8.8L9.7,8.8L9.7,8.8L9.7,8.8L9.7,8.8L9.7,8.8L9.7,8.8"/>
		<path class="st1" d="M9.4,9.5L9.4,9.5c0-0.1,0-0.1,0-0.1h0.1C9.4,9.5,9.4,9.5,9.4,9.5L9.4,9.5L9.4,9.5"/>
		<path class="st1" d="M9.3,9.4C9.3,9.4,9.3,9.5,9.3,9.4C9.3,9.4,9.3,9.5,9.3,9.4L9.3,9.4c0-0.1,0-0.1,0-0.1
			C9.3,9.3,9.4,9.3,9.3,9.4C9.4,9.4,9.4,9.4,9.3,9.4C9.4,9.4,9.4,9.4,9.3,9.4"/>
		<path class="st1" d="M18.9,12.4C18.9,12.4,18.9,12.4,18.9,12.4c-0.1,0.1-0.2,0-0.2,0c0,0,0-0.1,0.1-0.1
			C18.7,12.3,18.8,12.3,18.9,12.4C18.9,12.3,18.9,12.3,18.9,12.4"/>
		<path class="st1" d="M19.1,12.8C19.1,12.9,19,12.9,19.1,12.8C19,12.9,19,12.9,19.1,12.8c-0.1,0.1-0.2,0.1-0.3,0
			c0-0.1,0-0.1,0.1-0.1l0,0c0,0.1,0.1,0.1,0.1,0.1S19,12.8,19.1,12.8L19.1,12.8"/>
		<path class="st1" d="M23.6,10c0.1,0.1,0.1,0.1,0.1,0.1s0,0.1,0.1,0.1l0,0l0,0c0,0-0.1-0.1-0.1-0.1l0,0C23.6,10,23.6,10,23.6,10
			L23.6,10c-0.1,0-0.1-0.1-0.1-0.1c0,0-0.1-0.1-0.1-0.1s0-0.1-0.1-0.1c0,0,0,0,0.1,0.1l0,0c0.1,0.1,0.1,0.1,0.1,0.1
			c0,0,0.1,0,0.1,0.1C23.5,9.9,23.5,10,23.6,10"/>
		<path class="st1" d="M23.6,10.3C23.7,10.3,23.6,10.4,23.6,10.3C23.6,10.4,23.6,10.3,23.6,10.3L23.6,10.3L23.6,10.3"/>
		<path class="st1" d="M23.7,10.4L23.7,10.4C23.7,10.5,23.7,10.5,23.7,10.4c0.1,0.1,0.1,0.1,0.1,0.1C23.7,10.5,23.6,10.5,23.7,10.4
			C23.6,10.4,23.6,10.4,23.7,10.4L23.7,10.4"/>
		<path class="st1" d="M23,12.5L23,12.5C23,12.5,23,12.5,23,12.5C23,12.5,23,12.5,23,12.5C23,12.6,23,12.5,23,12.5
			C23,12.5,23,12.5,23,12.5C23,12.4,23,12.4,23,12.5"/>
		<path class="st1" d="M23.9,12.7C23.9,12.8,23.9,12.8,23.9,12.7C23.9,12.8,23.9,12.8,23.9,12.7C23.9,12.7,23.9,12.7,23.9,12.7
			C23.9,12.7,23.9,12.7,23.9,12.7C23.9,12.7,23.9,12.7,23.9,12.7C23.9,12.7,23.9,12.7,23.9,12.7C23.9,12.7,23.9,12.7,23.9,12.7
			C23.9,12.7,23.9,12.7,23.9,12.7C23.9,12.7,23.9,12.7,23.9,12.7C23.9,12.7,23.9,12.7,23.9,12.7C23.9,12.7,23.9,12.7,23.9,12.7
			C23.9,12.7,23.9,12.7,23.9,12.7C23.9,12.7,23.9,12.7,23.9,12.7C23.9,12.7,23.9,12.7,23.9,12.7C23.9,12.7,23.9,12.7,23.9,12.7
			C23.9,12.7,23.9,12.7,23.9,12.7C23.9,12.7,23.9,12.7,23.9,12.7C23.9,12.7,23.9,12.7,23.9,12.7C23.9,12.7,23.9,12.7,23.9,12.7"/>
		<path class="st1" d="M24.3,13.1c0,0.1,0.1,0.1,0.1,0.2c0,0.1,0,0.1,0,0.1c0-0.1,0-0.1,0-0.1C24.3,13.1,24.3,13.1,24.3,13.1
			L24.3,13.1"/>
		<path class="st1" d="M24.2,13.4L24.2,13.4L24.2,13.4C24.1,13.4,24.1,13.4,24.2,13.4C24.2,13.4,24.2,13.4,24.2,13.4"/>
		<path class="st1" d="M24.3,13.3C24.3,13.4,24.3,13.4,24.3,13.3C24.3,13.4,24.3,13.4,24.3,13.3C24.3,13.4,24.2,13.4,24.3,13.3
			C24.3,13.4,24.3,13.4,24.3,13.3L24.3,13.3"/>
		<path class="st1" d="M24.4,13.4L24.4,13.4C24.4,13.4,24.4,13.4,24.4,13.4C24.4,13.4,24.4,13.4,24.4,13.4
			C24.3,13.4,24.3,13.4,24.4,13.4C24.3,13.4,24.3,13.4,24.4,13.4C24.3,13.3,24.3,13.4,24.4,13.4C24.3,13.4,24.4,13.4,24.4,13.4"/>
		<path class="st1" d="M17.6,16.8C17.6,16.8,17.5,16.8,17.6,16.8c-0.1,0-0.1-0.1-0.1-0.1C17.4,16.6,17.6,16.8,17.6,16.8"/>
		<path class="st1" d="M17.9,17.1C17.9,17.1,17.8,17.1,17.9,17.1C17.8,17.1,17.8,17.1,17.9,17.1c-0.1,0-0.1-0.1-0.1-0.1l0,0
			C17.8,17,17.8,17.1,17.9,17.1L17.9,17.1"/>
		<path class="st1" d="M18,17.3C18,17.3,17.9,17.3,18,17.3c-0.1-0.1-0.1-0.1-0.1-0.1v-0.1C17.9,17.2,17.9,17.3,18,17.3L18,17.3"/>
		<path class="st1" d="M18.1,17.8c-0.2,0.1-0.4,0.1-0.6,0.1c0-0.1,0.1-0.1,0.1-0.1c-0.2,0-0.2-0.1-0.2-0.1c-0.1,0-0.1,0-0.6-0.1l0,0
			h0.1l0,0c-0.1-0.1-0.2,0.1-0.2,0.1c-0.1,0.1-0.1,0.1-0.2,0.1c0.1-0.2,0.2-0.2,0.6-0.3c0,0,0,0,0.1,0s0.1,0,0.2,0.1l0.1,0.1
			c0.1,0,0.1-0.1,0.1-0.1l0,0l0,0l0,0c0.3,0.2,0.3,0.2,0.4,0.2l0,0C17.9,17.8,18.1,17.8,18.1,17.8L18.1,17.8"/>
		<path class="st1" d="M18.1,17.3C18.1,17.3,18.1,17.4,18.1,17.3C18.1,17.4,18.1,17.4,18.1,17.3C18.1,17.4,18.1,17.3,18.1,17.3
			L18.1,17.3"/>
		<path class="st1" d="M7.1,14.9L7.1,14.9C7,14.9,7,14.9,7.1,14.9C7,14.9,7,14.9,7.1,14.9C7,14.9,7,14.8,7.1,14.9
			C7.1,14.8,7.1,14.8,7.1,14.9C7.1,14.8,7.1,14.9,7.1,14.9"/>
		<path class="st1" d="M16.7,17.8c0,0-0.1,0-0.1,0v-0.1c0,0,0,0,0-0.1l0,0C16.6,17.6,16.7,17.6,16.7,17.8
			C16.7,17.6,16.7,17.6,16.7,17.8L16.7,17.8"/>
		<path class="st1" d="M7.1,15.1c0-0.1,0-0.1,0-0.1l0,0C7.2,15,7.1,15.1,7.1,15.1L7.1,15.1"/>
		<path class="st1" d="M7.2,15.3C7.2,15.3,7.2,15.3,7.2,15.3C7.2,15.3,7.2,15.3,7.2,15.3C7.2,15.3,7.2,15.3,7.2,15.3
			C7.2,15.3,7.2,15.3,7.2,15.3c-0.1-0.1-0.1-0.1-0.1-0.1l0,0c0,0,0,0,0-0.1v-0.1l0,0C7.2,15.2,7.2,15.3,7.2,15.3L7.2,15.3"/>
		<path class="st1" d="M18.2,17.6c0,0.1-0.1,0.1-0.1,0.1C18.2,17.6,18.2,17.6,18.2,17.6L18.2,17.6L18.2,17.6"/>
		<path class="st1" d="M7.2,15.6C7.2,15.6,7.2,15.6,7.2,15.6C7.2,15.6,7.2,15.6,7.2,15.6c-0.1-0.1-0.1-0.1,0-0.2
			C7.2,15.5,7.2,15.5,7.2,15.6L7.2,15.6"/>
		<path class="st1" d="M19.1,17.9c0,0.1-0.1,0.1-0.1,0.1c-0.1-0.1-0.4,0-0.4,0.2c-0.1,0-0.1-0.1-0.1-0.1h-0.1h-0.1
			c-0.1,0-0.1,0-0.1,0.1c0-0.1-0.1,0-0.1-0.1c0,0,0.1-0.1,0-0.1c0.1,0,0.1,0,0.3,0c-0.1-0.1-0.1-0.2-0.2-0.2
			c0.1-0.1,0.1-0.1,0.2-0.1c0.1,0,0.2,0,0.6,0c0,0,0,0,0,0.1C19,17.9,19.1,17.9,19.1,17.9L19.1,17.9"/>
		<path class="st1" d="M17.8,18.3c-0.2,0.1-0.3,0-0.4-0.1c0-0.1,0.1-0.1,0.1-0.1C17.6,18.2,17.8,18.1,17.8,18.3L17.8,18.3"/>
		<path class="st1" d="M19.6,17.9c0,0.1-0.1,0.1-0.2,0.1l0,0l0,0c0-0.1,0-0.1,0-0.1c0,0,0.1-0.1,0.1-0.1
			C19.5,17.9,19.6,17.9,19.6,17.9"/>
		<path class="st1" d="M20.3,18.1C20.2,18.1,20.2,18.1,20.3,18.1C20.2,18.1,20.2,18.1,20.3,18.1L20.3,18.1L20.3,18.1
			C20.2,18.1,20.2,18.1,20.3,18.1C20.2,18.1,20.2,18.1,20.3,18.1C20.2,18.1,20.2,18.1,20.3,18.1C20.2,18.1,20.2,18.1,20.3,18.1
			C20.2,18.1,20.2,18.1,20.3,18.1L20.3,18.1"/>
		<path class="st1" d="M24.6,16.2L24.6,16.2C24.6,16.2,24.6,16.1,24.6,16.2C24.6,16.1,24.6,16.1,24.6,16.2"/>
		<path class="st1" d="M20.4,18.4C20.3,18.4,20.3,18.4,20.4,18.4L20.4,18.4C20.4,18.3,20.4,18.4,20.4,18.4L20.4,18.4"/>
		<path class="st1" d="M20.4,19.2C20.4,19.2,20.4,19.2,20.4,19.2c-0.1,0.1-0.1,0.1-0.1,0.1c0.1-0.1,0.1-0.1,0-0.1l0,0l0,0l0,0l0,0
			l0,0l0,0l0,0l0,0l0,0l0,0l0,0l0,0l0,0l0,0l0,0l0,0C20.4,19.2,20.4,19.2,20.4,19.2"/>
		<path class="st1" d="M15.3,21.6C15.3,21.6,15.3,21.6,15.3,21.6c-0.1,0.1-0.1,0.1-0.2,0.1c0,0,0-0.1,0.1-0.1c0,0,0,0-0.1,0
			c-0.1,0-0.1,0-0.1,0s0.1,0,0.1-0.1l0,0l0,0C15.2,21.6,15.2,21.6,15.3,21.6C15.3,21.5,15.3,21.5,15.3,21.6L15.3,21.6"/>
		<path class="st1" d="M15.4,21.6C15.4,21.6,15.4,21.7,15.4,21.6C15.4,21.7,15.4,21.7,15.4,21.6C15.3,21.7,15.3,21.7,15.4,21.6
			C15.3,21.6,15.3,21.6,15.4,21.6L15.4,21.6L15.4,21.6C15.3,21.6,15.3,21.6,15.4,21.6C15.3,21.6,15.3,21.6,15.4,21.6
			C15.3,21.6,15.3,21.6,15.4,21.6L15.4,21.6L15.4,21.6"/>
		<path class="st1" d="M8.3,21.7L8.3,21.7L8.3,21.7C8.3,21.7,8.3,21.7,8.3,21.7C8.3,21.6,8.3,21.6,8.3,21.7L8.3,21.7
			C8.3,21.6,8.3,21.6,8.3,21.7C8.3,21.6,8.3,21.7,8.3,21.7"/>
		<path class="st1" d="M16.7,9.2C16.8,9.2,16.7,9.2,16.7,9.2C16.6,9.2,16.6,9.2,16.7,9.2L16.7,9.2L16.7,9.2L16.7,9.2L16.7,9.2
			L16.7,9.2L16.7,9.2L16.7,9.2L16.7,9.2C16.6,9.1,16.6,9.1,16.7,9.2C16.7,9.1,16.7,9.1,16.7,9.2L16.7,9.2L16.7,9.2 M16.7,8.9
			L16.7,8.9C16.7,9,16.7,9,16.7,8.9C16.6,9,16.6,8.9,16.7,8.9C16.6,8.9,16.6,8.9,16.7,8.9C16.6,8.9,16.6,8.9,16.7,8.9L16.7,8.9
			L16.7,8.9 M16.9,8.8C16.9,8.8,16.8,8.9,16.9,8.8C16.8,8.9,16.8,8.9,16.9,8.8C16.8,8.9,16.8,8.9,16.9,8.8
			C16.8,8.9,16.8,8.9,16.9,8.8C16.9,8.9,16.9,8.9,16.9,8.8C16.9,8.9,16.9,8.9,16.9,8.8C16.8,8.9,16.8,8.9,16.9,8.8
			C16.8,8.8,16.8,8.8,16.9,8.8L16.9,8.8 M17.4,8.5L17.4,8.5C17.6,8.5,17.4,8.5,17.4,8.5C17.4,8.6,17.4,8.6,17.4,8.5
			C17.4,8.5,17.4,8.5,17.4,8.5L17.4,8.5C17.4,8.5,17.4,8.5,17.4,8.5 M18.4,7.7C18.4,7.7,18.4,7.7,18.4,7.7c-0.1,0-0.1,0.1-0.1,0.1
			c0,0,0,0-0.1,0l0,0c0.1,0,0.1,0,0.1,0.1c-0.1,0-0.1,0-0.1-0.1l0,0l0,0C18.2,7.9,18.1,8,18,8c-0.1,0.1-0.1,0.1,0,0.1
			c-0.1,0.1-0.1,0.1-0.1,0.2c0,0,0,0,0.1,0c-0.1,0-0.1,0-0.1,0.1c0,0,0,0,0.1,0h-0.1l0,0c-0.1,0-0.1,0.1-0.2,0.1l0,0
			c-0.1,0-0.6,0.1-1,0.3c0,0,0,0,0.1,0.1c-0.1,0.1-0.1-0.1-0.2,0c-0.1,0-0.1,0.1-0.1,0.1c0,0,0,0.1,0.1,0.1s0.1,0,0.1,0s0,0-0.1,0
			c0.1,0.1,0.1,0.1,0.2,0l0,0c0,0,0,0-0.1,0.1v0.1c-0.3,0.1-0.3,0.1-0.3,0.1s-0.1-0.1-0.2,0c0.1,0,0.1,0.1,0.2,0c0,0.1,0,0.1,0,0.1
			c0.3,0,0.6-0.1,0.7-0.1c0,0,0,0,0-0.1c-0.2-0.1-0.3,0.1-0.6,0c0,0,0,0,0.1,0l0,0c0.1,0,0.1,0,0.6-0.1l0,0l0,0l0,0c0,0,0,0,0-0.1
			C17.2,9,17.2,9,17.2,9l0,0l0,0c0,0,0,0,0.2-0.2V8.7l0,0c0.1,0,0.2-0.2,0.3-0.2c-0.1,0.1-0.1,0.1-0.1,0.1s0,0,0.1,0c0,0,0,0,0,0.1
			c-0.1,0.1-0.2,0.1-0.2,0.2c0.1,0,0.1,0,0.2,0.1c-0.1,0-0.1,0-0.1,0c0.1,0,0.1,0,0.1,0l0,0l0,0l0,0l0,0l0,0l0,0l0,0l0,0
			c0,0,0.1,0.1,0.2,0c0.1,0,0.1,0,0.2,0l0,0C18.1,9,18.1,9,18.2,9c0,0,0,0-0.1,0l0,0c0,0,0,0,0.1,0S18.2,9,18.3,9l0,0l0,0l0,0l0,0
			l0,0l0,0l0,0l0,0c0.1,0.1,0.1,0.1,0.1,0.1c0.1,0,0.1,0,0.1,0c0,0,0-0.1-0.1-0.1c0.1,0,0.1,0,0.2,0.1l0,0c-0.1,0-0.1,0-0.1,0
			c0,0.1,0,0.1,0.1,0.1c0,0,0,0,0.1,0c0.1-0.1,0.1-0.1,0.1-0.1s0,0-0.1,0l0,0c0.1,0,0.1,0,0.2,0.1l-0.1,0.1c0.1,0.1,0.1,0.1,0.1,0.2
			c0,0,0,0,0.1,0c0,0-0.1,0.1,0.2,0.2c0,0.1,0.1,0.1,0.1,0.1c0,0,0,0,0.4,0.2h0.2c0.1,0,0.1,0,0.1,0c0,0,0,0,0.1,0.1l0,0l0,0
			c0.1,0,0.1,0,0.1,0c0-0.1-0.1-0.3-0.2-0.4c0-0.1,0-0.1-0.1-0.2c-0.1-0.1-0.1-0.1-0.1-0.1c0,0,0,0,0.1,0V9.4
			C20,9.3,19.9,9.1,19.9,9c0.1-0.1,0.2-0.2,0.1-0.4c-0.1,0.1-0.1,0.1-0.1,0.1l0,0l0,0c0,0-0.1,0-0.1-0.1l0,0l0,0l0,0l0,0l0,0l0,0
			l0,0l0,0c0.1,0,0.1,0,0.2,0c-0.1-0.1-0.1-0.1-0.2-0.1h0.1c-0.1-0.1-0.1-0.1-0.1-0.1c0,0,0,0-0.1,0l0,0c0-0.1,0-0.1,0-0.1l-0.1-0.1
			c0,0,0,0,0-0.1c0-0.1-0.1-0.1-0.1-0.1c-0.1-0.1-0.1-0.1-0.2-0.1l0,0c0,0,0,0-0.1,0l0,0l0,0l0,0c0,0,0.1,0,0.1,0
			c-0.1,0-0.1,0-0.1-0.1l0,0c0,0,0,0-0.1,0C19.1,8,19,8,19,8C18.9,8,18.9,8,18.9,8C18.6,8,18.6,7.9,18.4,7.7"/>
		<path class="st1" d="M17.9,6.6C18,6.6,18,6.7,18,6.7S17.9,6.7,17.9,6.6C17.9,6.7,17.9,6.7,17.9,6.6L17.9,6.6"/>
		<path class="st1" d="M16.1,6.2c0.1,0,0.1,0,0.4,0.1c0,0,0,0-0.1,0l0,0l0,0l0,0l0,0l0,0l0,0l0,0l0,0l0,0l0,0c-0.1,0-0.1,0-0.1,0
			C16.3,6.3,16.3,6.3,16.1,6.2L16.1,6.2L16.1,6.2L16.1,6.2C16.3,6.2,16.2,6.2,16.1,6.2C16.2,6.2,16.2,6.2,16.1,6.2L16.1,6.2
			L16.1,6.2L16.1,6.2"/>
		<path class="st1" d="M25.7,16C25.7,16.1,25.7,16.1,25.7,16C25.7,16.1,25.7,16.1,25.7,16C25.7,16.1,25.7,16.1,25.7,16
			C25.7,16.1,25.7,16.1,25.7,16L25.7,16L25.7,16c0,0.1,0-0.1,0-0.1C25.7,16,25.7,16,25.7,16C25.7,16,25.7,16.1,25.7,16L25.7,16
			L25.7,16 M24.1,10.5C24.2,10.5,24.2,10.5,24.1,10.5C24.2,10.5,24.2,10.5,24.1,10.5c0,0.1,0,0.1,0,0.2c0,0,0,0-0.1-0.1v0.1
			c0,0,0,0-0.1-0.1c-0.1-0.1-0.1-0.1-0.2-0.3c0,0.1,0.1,0.1,0.1,0.1s0,0-0.1-0.1c0,0.1,0.1,0.2,0.1,0.2l0,0c0.1,0.2,0.1,0.4,0.1,0.6
			c-0.1,0.1,0.1,0.1,0.1,0.2c0,0,0,0-0.1,0c0,0.1,0,0.1-0.1,0.1c-0.2-0.1-0.1-0.2-0.1-0.4l0,0c-0.1-0.1-0.1-0.1-0.1-0.2
			c-0.1-0.1-0.2-0.2-0.2-0.4c-0.2-0.3-0.2-0.3-0.2-0.4c-0.1-0.1-0.1-0.1-0.1-0.1c0-0.1,0.1-0.1,0-0.1c-0.1-0.1-0.1-0.2-0.2-0.2l0,0
			l0,0c0.1,0.1,0.2,0.1,0.2,0.1c0,0,0,0,0.1,0c0,0,0,0,0-0.1c0.1,0.1,0.1,0.1,0.1,0.1l0,0c0.1,0.1,0.1,0.1,0.2,0.2
			c0,0.1,0.1,0.1,0.1,0.1c0.1,0.1,0.1,0.1,0.1,0.1c0-0.1,0-0.1,0-0.1c-0.1-0.1-0.2-0.2-0.2-0.4l0,0c-0.2-0.2-0.2-0.2-0.2-0.2
			c0,0,0,0,0.1,0c-0.1-0.1-0.1-0.1-0.1-0.1s0,0,0,0.1c0-0.1,0-0.1-0.1-0.1c0,0,0,0,0,0.1c-0.1,0-0.1-0.1-0.1-0.1l0,0
			C23,9.3,23,9.3,23,9.3l0,0c0-0.1-0.1-0.1-0.1-0.1C23,9.3,23,9.3,23,9.3c0,0,0,0-0.1-0.1c0,0,0,0,0.1,0.1c0,0-0.1,0-0.1-0.1
			C23,9.3,23,9.3,23.1,9.3l0,0l0,0l0.1,0.1c-0.1-0.1-0.1-0.1,0-0.1c0.1,0,0.4,0.3,0.4,0.3V9.5c0,0,0,0,0.1,0.1c0,0,0,0-0.1-0.1l0,0
			l0,0C23.7,9.8,23.9,10.3,24.1,10.5 M23.4,9.5L23.4,9.5L23.4,9.5L23.4,9.5C23.4,9.5,23.4,9.5,23.4,9.5C23.4,9.5,23.4,9.5,23.4,9.5
			L23.4,9.5 M23.3,9.4L23.3,9.4L23.3,9.4L23.3,9.4L23.3,9.4 M23.3,9.3L23.3,9.3C23.2,9.3,23.3,9.3,23.3,9.3L23.3,9.3 M22.9,8.9
			C22.9,8.9,22.9,9,22.9,8.9l0.3,0.3c-0.1-0.1-0.1-0.1-0.1-0.1l0,0C23,9,23,9,22.9,8.9L22.9,8.9C23,9,23,9,22.9,8.9
			C23,9,23,9,22.9,8.9C23,9,22.8,8.9,22.9,8.9C22.8,8.9,22.8,8.9,22.9,8.9 M21.9,8.1c0.2,0.2,0.4,0.4,0.7,0.6
			c-0.1-0.1-0.4-0.3-0.4-0.4l0,0C22,8.2,21.9,8.1,21.9,8.1L21.9,8.1 M20.2,7.1L20.2,7.1L20.2,7.1C20.1,7.1,20.1,7.1,20.2,7.1
			C20.1,7.1,20.1,7.1,20.2,7.1C20.1,7.1,20.1,7.1,20.2,7.1C20.1,7.1,20.1,7.1,20.2,7.1 M20.1,7L20.1,7L20.1,7L20.1,7 M21.2,8
			c0.1,0,0.1,0.1,0.1,0.1l0,0l0,0C21.2,8.1,21.2,8.1,21.2,8L21.2,8 M20.8,7.5L20.8,7.5L20.8,7.5L20.8,7.5L20.8,7.5L20.8,7.5
			L20.8,7.5L20.8,7.5L20.8,7.5L20.8,7.5L20.8,7.5L20.8,7.5L20.8,7.5L20.8,7.5L20.8,7.5L20.8,7.5L20.8,7.5L20.8,7.5
			C20.8,7.5,20.8,7.5,20.8,7.5L20.8,7.5L20.8,7.5 M20.2,7.1C20.3,7.1,20.3,7.2,20.2,7.1C20.3,7.2,20.3,7.2,20.2,7.1
			C20.3,7.2,20.3,7.2,20.2,7.1C20.3,7.2,20.3,7.2,20.2,7.1C20.2,7.2,20.2,7.2,20.2,7.1C20.2,7.2,20.2,7.2,20.2,7.1L20.2,7.1
			L20.2,7.1L20.2,7.1 M21.2,8.1C21.2,8.2,21.2,8.2,21.2,8.1L21.2,8.1C21.2,8.2,21.2,8.2,21.2,8.1C21.2,8.1,21.1,8.1,21.2,8.1
			C21.1,8.1,21.1,8.1,21.2,8.1L21.2,8.1L21.2,8.1L21.2,8.1L21.2,8.1L21.2,8.1L21.2,8.1L21.2,8.1C21.2,8.1,21.2,8.1,21.2,8.1
			 M19.1,6.6C19.1,6.6,19.1,6.6,19.1,6.6L19.1,6.6C19.1,6.6,19.1,6.6,19.1,6.6L19.1,6.6 M20.3,7.2C20.3,7.2,20.4,7.2,20.3,7.2
			C20.4,7.3,20.4,7.3,20.3,7.2C20.4,7.3,20.4,7.3,20.3,7.2c0.1,0.1,0.1,0.1,0.1,0.1h-0.1C20.4,7.3,20.4,7.3,20.3,7.2
			C20.4,7.3,20.2,7.3,20.3,7.2L20.3,7.2L20.3,7.2 M20.6,7.5L20.6,7.5C20.7,7.5,20.7,7.5,20.6,7.5C20.6,7.5,20.6,7.5,20.6,7.5
			C20.6,7.5,20.6,7.5,20.6,7.5C20.5,7.5,20.5,7.5,20.6,7.5L20.6,7.5L20.6,7.5L20.6,7.5L20.6,7.5L20.6,7.5L20.6,7.5 M20.1,7.1
			C20.1,7.1,20.2,7.1,20.1,7.1C20.2,7.1,20.1,7.1,20.1,7.1C20.1,7.2,20.1,7.2,20.1,7.1C20.1,7.2,20.1,7.2,20.1,7.1L20.1,7.1
			C20,7.1,20,7.1,20.1,7.1L20.1,7.1L20.1,7.1 M20.4,7.5C20.5,7.5,20.5,7.5,20.4,7.5C20.5,7.5,20.5,7.5,20.4,7.5
			C20.5,7.5,20.5,7.5,20.4,7.5C20.5,7.5,20.5,7.5,20.4,7.5C20.5,7.5,20.5,7.5,20.4,7.5C20.5,7.5,20.5,7.5,20.4,7.5
			C20.5,7.5,20.5,7.5,20.4,7.5c0.1,0.1,0.1,0.1,0.1,0.1l0,0l0,0l0,0C20.5,7.5,20.5,7.5,20.4,7.5C20.5,7.5,20.5,7.5,20.4,7.5
			C20.5,7.5,20.5,7.5,20.4,7.5C20.5,7.5,20.5,7.5,20.4,7.5L20.4,7.5L20.4,7.5 M20.3,7.4c0.1,0,0.1,0.1,0.2,0.1l0,0l0,0
			c0,0-0.1,0-0.1-0.1c0,0,0.1,0,0.1,0.1c0,0,0,0-0.1,0c0,0,0,0,0.1,0.1l0,0l0,0l0,0c0,0,0,0,0.1,0l0,0l0,0l0,0c0,0,0,0-0.1,0
			c0,0,0,0-0.1-0.1c0,0,0,0-0.1,0C20.4,7.4,20.4,7.4,20.3,7.4C20.4,7.4,20.4,7.4,20.3,7.4C20.4,7.4,20.4,7.4,20.3,7.4
			C20.4,7.4,20.4,7.4,20.3,7.4C20.3,7.4,20.3,7.4,20.3,7.4C20.4,7.4,20.4,7.4,20.3,7.4C20.4,7.4,20.4,7.4,20.3,7.4
			C20.3,7.4,20.3,7.4,20.3,7.4C20.3,7.4,20.3,7.4,20.3,7.4C20.3,7.4,20.3,7.4,20.3,7.4C20.4,7.4,20.4,7.4,20.3,7.4
			C20.3,7.4,20.3,7.4,20.3,7.4L20.3,7.4L20.3,7.4C20.2,7.4,20.3,7.4,20.3,7.4L20.3,7.4L20.3,7.4L20.3,7.4L20.3,7.4 M20,7.1
			C20,7.2,20,7.2,20,7.1C20,7.2,20,7.2,20,7.1C20,7.2,20,7.1,20,7.1C20,7.1,20,7.1,20,7.1 M20.1,7.3L20.1,7.3
			C20.2,7.3,20.2,7.3,20.1,7.3C20.2,7.3,20.1,7.3,20.1,7.3L20.1,7.3L20.1,7.3L20.1,7.3L20.1,7.3L20.1,7.3 M11.1,7.9L11.1,7.9
			L11.1,7.9C11.1,7.9,11.1,7.9,11.1,7.9C11.1,7.9,11.1,7.9,11.1,7.9C11.2,7.9,11.1,7.9,11.1,7.9C11.1,7.9,11.1,7.9,11.1,7.9
			 M19.9,7.1L19.9,7.1L19.9,7.1L19.9,7.1C19.8,7.1,19.8,7.1,19.9,7.1C19.8,7.1,19.9,7.1,19.9,7.1 M11.3,7.9
			C11.3,7.9,11.3,7.9,11.3,7.9C11.3,7.9,11.3,7.9,11.3,7.9C11.3,7.9,11.3,7.9,11.3,7.9C11.3,7.9,11.3,7.9,11.3,7.9L11.3,7.9
			L11.3,7.9L11.3,7.9L11.3,7.9L11.3,7.9L11.3,7.9 M19.9,7.2L19.9,7.2C19.8,7.2,19.8,7.1,19.9,7.2C19.8,7.1,19.8,7.1,19.9,7.2
			L19.9,7.2 M17.3,6.2L17.3,6.2L17.3,6.2L17.3,6.2L17.3,6.2L17.3,6.2L17.3,6.2L17.3,6.2L17.3,6.2L17.3,6.2L17.3,6.2L17.3,6.2
			L17.3,6.2L17.3,6.2L17.3,6.2L17.3,6.2L17.3,6.2 M19.5,7.1L19.5,7.1L19.5,7.1C19.6,7.2,19.6,7.2,19.5,7.1
			C19.6,7.2,19.5,7.2,19.5,7.1L19.5,7.1 M16.9,6.2L16.9,6.2L16.9,6.2L16.9,6.2L16.9,6.2C16.9,6.2,16.9,6.2,16.9,6.2
			C16.9,6.2,16.9,6.2,16.9,6.2C16.9,6.2,16.9,6.2,16.9,6.2C16.9,6.2,16.9,6.2,16.9,6.2L16.9,6.2L16.9,6.2L16.9,6.2 M24.8,14.6
			L24.8,14.6L24.8,14.6L24.8,14.6 M11.2,8.2c0.3-0.3,0.6-0.7,1-0.9c-0.1,0-0.1,0.1-0.2,0.1c0.4-0.4,0.9-0.6,1.7-0.8
			c0.1,0,0.1,0,0.1,0h-0.1c0.1,0,0.2-0.1,0.3-0.1l0,0l0,0l0,0l0,0l0,0l0,0l0,0l0,0c-0.1,0-0.1,0-0.1,0l0,0c0.6-0.1,1.1-0.1,1.6-0.2
			c-0.1,0-0.1,0-0.2,0.1c0.1,0,0.2,0,0.6,0c0.2,0,0.2,0,0.7,0c0.1,0,0.1,0,0.1,0l0,0c0.2,0,0.4,0.1,0.7,0.1h-0.1
			c0.1,0,0.2,0,0.4,0.1c-0.2-0.1-0.2-0.1-0.4,0l0,0c0.2,0.1,1.7,0.4,1.7,0.4h-0.1l0.8,0.2L20,7.1c-0.1,0-0.1,0-0.2,0
			c-0.1-0.1-0.2-0.2-0.4-0.2c0,0.1,0,0.1,0.1,0.2h-0.1v0.1h0.1c-0.1,0-0.1,0-0.1,0l0,0l0,0c0.2,0.1,0.4,0.3,0.6,0.4L20,7.5
			c0.6,0.2,0.9,0.7,1.4,0.9c0-0.1,0-0.1-0.2-0.2c0.1,0,0.1,0,0.6,0.2C21.7,8.3,21.4,8,21.4,8L21.5,8C21.3,8,21.2,7.9,21,7.8
			c-0.1,0.1-0.6-0.2-0.8-0.4c0.1,0,0.1,0,0.6,0.2V7.6c-0.1-0.1-0.1-0.1-0.2-0.2c0.2,0.1,0.2,0.2,0.4,0.2l0,0l0,0l0,0
			c0,0,0.1,0,0.1,0.1l-0.3-0.1c0.2,0,0.8,0.7,0.8,0.7l0,0l0,0l0,0l0,0l0,0l0,0l0,0l0,0v0.1c-0.2,0-0.2,0-0.4-0.1
			c0.2,0.4,0.9,0.7,1.1,1.2c-0.1,0-0.1,0-0.1,0l0,0l0,0l0,0l0,0l0,0l0,0l0,0c0,0,0,0.1,0.1,0.1c0,0.1,0,0.1,0,0.1l0.1,0.1
			c0.3-0.1,0.6,0.3,0.6,0.4l-0.1,0.3c0.1,0.4,0.4,0.6,0.7,0.9c0,0,0-0.1,0.1-0.1c0-0.1,0-0.1,0-0.1c0.4,0.2,0.2,0.7,0.6,1.1
			c0,0.1,0,0.1,0,0.1c0.4,0.7,0.2,1.4,0.4,2l0,0c0.1,0.1,0.2,0.7,0.2,1.1c0.1,0.2,0.4,0.9,0.4,0.9c0.1,0,0.1,0.1,0.1,0.1l0.1-0.1
			c0.1-0.7,0.1-0.7,0.1-1.2c-0.1-1-0.1-1.1-0.2-1.8c-0.2-0.9-0.2-1.1-0.7-2c-0.4-0.9-0.7-1.2-1.4-2.2c-0.6-0.6-0.7-0.7-1.4-1.4
			C21,7.4,21,7.3,20.4,7c-0.6-0.4-0.6-0.4-1.1-0.6c-0.6-0.2-0.6-0.2-0.9-0.3C17.8,6,17.8,6,17.4,5.9c-0.6-0.1-0.6-0.1-0.8-0.1
			c-0.4-0.1-0.4-0.1-0.7-0.1c-0.4,0-0.4,0-0.7,0c-0.4,0-0.4,0-0.7,0c-0.6,0.1-0.6,0.1-0.8,0.1C13.1,6,13.1,6,12.9,6.1
			c-0.5,0.2-0.6,0.2-0.9,0.4l-0.4,0.2l0,0C11,7.1,11,7.1,10.9,7.1C11,7.1,11.1,7,11.1,7c-0.1,0.1-0.1,0.1-0.2,0.1H11l0,0l0,0l0,0
			l0,0l0,0l0,0l0,0l0,0c-0.6,0.2-0.6,0.2-1.3,0.7c0.2-0.1,0.7-0.4,1-0.6c-0.1,0.1-0.2,0.2-0.2,0.2c0.1,0,0.1,0,0.2,0
			c0,0,0,0.1-0.1,0.1c0.1-0.1,0.2-0.1,0.4-0.2c0,0.1-0.1,0.2-0.2,0.3C11.1,8.2,11.1,8.2,11.2,8.2"/>
		<path class="st1" d="M15.1,9.3C15,9.3,15,9.3,15.1,9.3C15,9.4,15,9.4,15.1,9.3C15,9.4,15,9.3,15.1,9.3C15,9.3,15,9.3,15.1,9.3
			L15.1,9.3 M15.6,9.4C15.6,9.4,15.6,9.3,15.6,9.4C15.6,9.3,15.6,9.4,15.6,9.4l-0.1-0.1c-0.1,0-0.1,0.1-0.1,0.1l0,0c0,0,0,0,0,0.1
			l0,0l0,0c0,0,0,0,0,0.1c0,0-0.1-0.1-0.1,0V9.4c-0.1,0-0.1,0-0.1-0.1c0,0,0.1-0.1,0.1,0c-0.1,0-0.1-0.1-0.1-0.1c0,0-0.2,0-0.3,0.1
			c0.1,0,0.1,0,0.1,0.1h0.1l0,0l0,0c0.1,0.1,0.1,0,0.2,0.1h-0.1l0,0C15.4,9.5,15.5,9.5,15.6,9.4"/>
		<path class="st1" d="M14.2,6.4L14.2,6.4C14.2,6.4,14.2,6.4,14.2,6.4C14.2,6.4,14.2,6.4,14.2,6.4C14.2,6.4,14.2,6.4,14.2,6.4
			C14.2,6.4,14.2,6.4,14.2,6.4"/>
		<path class="st1" d="M19.2,12.4L19.2,12.4L19.2,12.4L19.2,12.4L19.2,12.4 M17.3,11.6L17.3,11.6L17.3,11.6L17.3,11.6L17.3,11.6
			 M17.4,25.4L17.4,25.4h-0.1l0,0H17.4C17.4,25.4,17.4,25.4,17.4,25.4L17.4,25.4L17.4,25.4 M17.8,25.3
			C17.8,25.3,17.8,25.4,17.8,25.3C17.8,25.3,17.8,25.3,17.8,25.3S17.8,25.3,17.8,25.3L17.8,25.3 M17.6,25.3
			C17.6,25.3,17.6,25.3,17.6,25.3C17.6,25.3,17.6,25.3,17.6,25.3C17.6,25.3,17.6,25.3,17.6,25.3C17.6,25.3,17.6,25.3,17.6,25.3
			C17.6,25.3,17.6,25.3,17.6,25.3C17.6,25.3,17.6,25.3,17.6,25.3C17.6,25.3,17.6,25.3,17.6,25.3L17.6,25.3L17.6,25.3 M19.8,24.4
			C19.8,24.4,19.7,24.4,19.8,24.4L19.8,24.4L19.8,24.4L19.8,24.4L19.8,24.4L19.8,24.4L19.8,24.4L19.8,24.4L19.8,24.4L19.8,24.4
			c-0.1,0.1-0.1,0.1-0.1,0.1C19.7,24.5,19.7,24.5,19.8,24.4L19.8,24.4 M20.1,24.4c0,0-0.1,0.1-0.1,0.1l0,0
			C20,24.4,20,24.4,20.1,24.4L20.1,24.4c-0.1,0-0.1,0.1-0.1,0.1l0,0C20,24.4,20,24.4,20.1,24.4C20,24.4,20,24.4,20.1,24.4L20.1,24.4
			L20.1,24.4L20.1,24.4 M19.1,24.6L19.1,24.6L19.1,24.6C19,24.6,19,24.6,19.1,24.6L19.1,24.6C19,24.6,19,24.6,19.1,24.6
			C19.1,24.5,19.1,24.5,19.1,24.6L19.1,24.6 M20.4,24.2c-0.1,0.1-0.1,0.1-0.2,0.1c0,0,0.1,0,0.1-0.1C20.3,24.2,20.4,24.2,20.4,24.2
			C20.4,24.2,20.4,24.2,20.4,24.2L20.4,24.2L20.4,24.2 M21.2,23.5L21.2,23.5C21.1,23.5,21.1,23.5,21.2,23.5
			C21.1,23.5,21.1,23.5,21.2,23.5C21.1,23.5,21.1,23.5,21.2,23.5C21.1,23.5,21.2,23.4,21.2,23.5C21.2,23.4,21.2,23.4,21.2,23.5
			 M21.7,23C21.7,23.1,21.7,23.1,21.7,23C21.7,23,21.7,23,21.7,23C21.7,23.1,21.7,23.1,21.7,23C21.7,23,21.7,23,21.7,23L21.7,23
			C21.7,23.1,21.7,23.1,21.7,23c-0.1,0.1-0.1,0.1-0.1,0.1l0,0l0,0c0,0,0,0,0-0.1c0,0,0,0,0-0.1l0,0C21.7,23,21.7,23,21.7,23
			C21.7,23,21.7,23,21.7,23L21.7,23C21.7,23,21.7,23.1,21.7,23L21.7,23 M19,23.6L19,23.6C18.9,23.7,18.9,23.7,19,23.6
			C18.9,23.7,18.9,23.6,19,23.6L19,23.6 M18.7,23.4C18.7,23.4,18.7,23.4,18.7,23.4C18.7,23.5,18.7,23.4,18.7,23.4
			c-0.1,0-0.1,0-0.1,0c0,0,0,0-0.1-0.1C18.7,23.3,18.7,23.3,18.7,23.4L18.7,23.4L18.7,23.4 M20.2,19.7c0,0.1,0,0.1,0,0.1
			C20.1,19.9,20.1,19.9,20.2,19.7C20.1,19.8,20.1,19.7,20.2,19.7C20.1,19.7,20.2,19.7,20.2,19.7 M18.8,19.6c0,0.1,0,0.1,0,0.1
			c0,0-0.1,0.1-0.1,0L18.8,19.6c-0.1,0.1-0.1,0.1-0.1,0.1c0-0.1,0-0.1,0-0.1v-0.1C18.7,19.5,18.7,19.5,18.8,19.6
			C18.7,19.6,18.7,19.6,18.8,19.6L18.8,19.6 M16.3,19.6L16.3,19.6h-0.1c0.1,0,0-0.1,0-0.1l0,0l0,0l0,0c0,0,0,0,0-0.1v-0.1
			C16.3,19.5,16.3,19.6,16.3,19.6L16.3,19.6 M15.1,18.8L15.1,18.8L15,18.8C15,18.8,15,18.7,15.1,18.8L15.1,18.8L15.1,18.8
			 M13.6,18.2C13.6,18.3,13.6,18.3,13.6,18.2C13.5,18.2,13.5,18.2,13.6,18.2C13.5,18.2,13.5,18.2,13.6,18.2
			c-0.1-0.1-0.1-0.1-0.1-0.1C13.5,18.1,13.6,18.2,13.6,18.2L13.6,18.2 M16.9,16.6C16.9,16.6,16.9,16.8,16.9,16.6
			C16.9,16.8,16.9,16.6,16.9,16.6C16.9,16.6,16.9,16.6,16.9,16.6 M17.6,14.6L17.6,14.6C17.4,14.7,17.4,14.7,17.6,14.6
			C17.5,14.6,17.5,14.5,17.6,14.6C17.5,14.5,17.6,14.5,17.6,14.6 M12.7,14C12.7,14,12.7,14,12.7,14C12.7,14,12.7,14,12.7,14
			c-0.1-0.1-0.1-0.1-0.1-0.1S12.7,13.9,12.7,14L12.7,14 M17,13.9c-0.2,0.2-0.4,0.3-0.6,0.2c0.1,0,0.1,0,0.1-0.1
			C16.7,13.9,16.8,13.9,17,13.9C16.9,13.9,16.9,13.9,17,13.9C16.9,13.8,16.9,13.9,17,13.9L17,13.9 M17.4,13.4
			c-0.1,0.1-0.1,0.1,0,0.1c-0.1,0.1-0.1,0.1-0.2,0.1l0,0c-0.1,0-0.1,0-0.2,0c0-0.1,0.1-0.1,0.2-0.1C17.3,13.5,17.3,13.5,17.4,13.4
			L17.4,13.4 M17,13.6C16.9,13.6,16.9,13.6,17,13.6C16.9,13.6,16.9,13.6,17,13.6C16.9,13.5,17,13.5,17,13.6
			C16.9,13.4,16.9,13.5,17,13.6C17,13.5,17,13.5,17,13.6L17,13.6 M16.3,13.4c-0.1,0.1-0.1,0.1-0.1,0.2c-0.1,0.1-0.1,0.1-0.1,0.2
			c0,0.2,0,0.2-0.2,0.3c-0.1-0.2,0-0.4,0.1-0.6c-0.1-0.1-0.1,0-0.1,0.1l0,0C16,13.4,16.1,13.3,16.3,13.4L16.3,13.4 M16.9,13.5
			L16.9,13.5c-0.1,0-0.1,0-0.1,0c-0.1-0.1-0.1-0.1-0.1-0.1c0,0.1,0.1,0.2-0.1,0.4v-0.1c0-0.1,0-0.1,0-0.1c-0.1-0.1-0.1,0-0.1,0.1
			l0,0v-0.1l0.1-0.1c0-0.1,0-0.1-0.2-0.2c0,0,0,0,0.1,0c0,0,0.1,0,0,0l0,0c0,0,0,0,0.1,0c0.1,0,0.1,0,0.1,0l0,0c-0.1,0-0.1,0-0.1,0
			c0.1,0.1,0.1,0.1,0.2,0.1c0,0,0.1-0.1,0-0.1c0,0,0,0,0.1,0S16.8,13.4,16.9,13.5C16.9,13.4,16.9,13.4,16.9,13.5 M17,13.1L17,13.1
			c-0.1,0-0.1,0-0.1-0.1l0,0C16.9,13.1,16.9,13.1,17,13.1C17,13.1,17,13.1,17,13.1L17,13.1 M17.3,13L17.3,13
			C17.3,13.1,17.3,13.1,17.3,13C17.3,13.1,17.3,13.1,17.3,13C17.3,13,17.3,13,17.3,13L17.3,13L17.3,13C17.3,13,17.3,13,17.3,13
			C17.3,13,17.3,13,17.3,13C17.3,12.9,17.3,12.9,17.3,13 M14.2,13C14.2,13,14.2,13.1,14.2,13C14.2,13.1,14.2,13,14.2,13
			C14.2,12.9,14.2,12.9,14.2,13C14.2,13,14.2,12.9,14.2,13C14.2,12.9,14.2,13,14.2,13L14.2,13 M16.3,13.2L16.3,13.2
			c-0.1-0.1-0.2,0.1-0.2,0.1c-0.1,0-0.1-0.1-0.2-0.1c0,0,0.1,0,0.1-0.1c-0.1,0-0.1,0-0.2,0.1c-0.1,0.1-0.1,0.1-0.2,0.1
			c0,0,0-0.1-0.1-0.1c-0.1,0-0.1,0-0.1,0.1c0.3-0.2,0.4-0.3,0.7-0.3c0,0.1,0.1,0.1,0.1,0.1C16.3,13.1,16.3,13.1,16.3,13.2 M15.3,13
			C15.3,13,15.3,13,15.3,13l-0.1-0.1C15.3,12.9,15.3,12.9,15.3,13L15.3,13 M12.1,12.5C12.1,12.5,12.1,12.6,12.1,12.5L12.1,12.5
			L12.1,12.5L12.1,12.5C12.1,12.5,12.1,12.5,12.1,12.5c-0.1-0.1-0.1-0.1-0.1-0.1c0-0.1,0-0.1-0.1-0.1c0,0,0,0,0-0.1c0,0,0,0,0-0.1
			c0,0,0,0,0.1,0c-0.1,0.1,0,0.1,0.1,0.2C12.1,12.4,12.1,12.4,12.1,12.5L12.1,12.5 M16,12.7L16,12.7C16,12.7,15.9,12.7,16,12.7
			C15.8,12.7,15.9,12.7,16,12.7C15.9,12.6,16,12.6,16,12.7 M15.6,12.6L15.6,12.6C15.5,12.6,15.5,12.6,15.6,12.6
			C15.5,12.6,15.5,12.6,15.6,12.6c-0.1,0.1-0.2,0.1-0.2,0.1s-0.1-0.1,0-0.1c0,0,0,0,0,0.1C15.4,12.6,15.5,12.6,15.6,12.6
			C15.5,12.6,15.6,12.6,15.6,12.6L15.6,12.6 M17.3,12.4L17.3,12.4C17.2,12.5,17.2,12.5,17.3,12.4C17.2,12.5,17.2,12.5,17.3,12.4
			L17.3,12.4L17.3,12.4L17.3,12.4C17.2,12.4,17.2,12.4,17.3,12.4C17.2,12.4,17.2,12.4,17.3,12.4C17.2,12.4,17.2,12.4,17.3,12.4
			C17.3,12.4,17.3,12.4,17.3,12.4 M17.8,12.3C17.8,12.3,17.7,12.3,17.8,12.3c-0.1,0.1-0.1,0.1-0.1,0.2
			C17.6,12.5,17.6,12.4,17.8,12.3C17.7,12.3,17.7,12.3,17.8,12.3L17.8,12.3 M14.8,12.6L14.8,12.6c-0.1,0-0.1,0-0.1-0.1
			c0-0.1,0-0.1-0.1-0.1l0,0l0,0h0.1v0.1C14.8,12.5,14.8,12.5,14.8,12.6C14.8,12.6,14.8,12.6,14.8,12.6 M18.7,12
			C18.6,12,18.6,11.9,18.7,12c-0.1-0.1-0.1-0.1-0.1,0c0,0,0,0,0-0.1c0,0,0,0,0-0.1C18.6,11.9,18.6,11.9,18.7,12L18.7,12 M14.8,12.3
			L14.8,12.3C14.7,12.3,14.7,12.3,14.8,12.3C14.7,12.3,14.8,12.3,14.8,12.3C14.8,12.2,14.8,12.3,14.8,12.3 M17.9,12.1
			c-0.1,0-0.1,0-0.1-0.1l0,0l0,0l0,0l0,0l0,0l0,0l0,0l0,0l0,0l0,0l0,0l0,0l0,0l0,0l0,0l0,0C17.9,12,17.9,12,17.9,12.1
			C17.9,12,17.9,12,17.9,12.1L17.9,12.1 M18.1,11.8L18.1,11.8C18.1,11.9,18.1,11.9,18.1,11.8C18.1,11.9,18.1,11.9,18.1,11.8
			l-0.1-0.1C18,11.8,18,11.8,18.1,11.8C18.1,11.9,18.1,11.9,18.1,11.8L18.1,11.8 M15,12.5c0,0.1-0.1,0.1-0.1,0.1
			C15,12.6,15,12.5,15,12.5C15,12.4,15,12.4,15,12.5C15,12.4,15,12.4,15,12.5C15,12.4,15,12.5,15,12.5L15,12.4c0,0,0,0,0-0.1
			c0,0,0,0,0,0.1c0,0,0,0-0.1,0c-0.1-0.2-0.1-0.2-0.1-0.2c0.1-0.1,0.1-0.1,0.1-0.1s0,0,0.1,0c0,0,0.1,0,0.1-0.1c0,0,0-0.1,0.1-0.1
			c0,0,0,0-0.1,0.1h0.1c0,0,0,0-0.1,0C15,12.3,15,12.4,15,12.5 M15.5,11.9C15.5,12,15.4,12,15.5,11.9C15.4,11.9,15.4,12,15.5,11.9
			C15.3,12,15.3,11.9,15.5,11.9C15.4,11.9,15.5,11.9,15.5,11.9L15.5,11.9 M17.6,11.6C17.6,11.6,17.4,11.6,17.6,11.6
			C17.5,11.6,17.5,11.6,17.6,11.6C17.5,11.6,17.5,11.6,17.6,11.6C17.4,11.5,17.4,11.5,17.6,11.6C17.4,11.5,17.4,11.6,17.6,11.6
			L17.6,11.6 M14.2,11.8C14.1,11.8,14.1,11.8,14.2,11.8C14.1,11.8,14.1,11.8,14.2,11.8C14.2,11.7,14.1,11.7,14.2,11.8
			C14.2,11.8,14.1,11.8,14.2,11.8L14.2,11.8C14.1,11.8,14.1,11.8,14.2,11.8C14.1,11.7,14.1,11.7,14.2,11.8L14.2,11.8v-0.2l0,0l0,0
			l0,0l0,0l0,0l0,0l0,0l0,0V11.8C14.1,11.7,14.1,11.7,14.2,11.8L14.2,11.8 M15.2,11.6C15.2,11.6,15.1,11.6,15.2,11.6
			C15,11.6,15,11.6,15,11.7C15,11.6,15,11.6,15.2,11.6C15.1,11.6,15.2,11.6,15.2,11.6C15.2,11.5,15.2,11.6,15.2,11.6 M14.4,11.5
			L14.4,11.5h-0.1v-0.1C14.3,11.5,14.3,11.5,14.4,11.5C14.4,11.4,14.4,11.5,14.4,11.5 M14.8,11.4c0,0.1-0.1,0.2-0.2,0.2
			c0-0.1,0-0.1,0.1-0.1c0,0,0-0.1,0-0.1C14.8,11.4,14.8,11.4,14.8,11.4L14.8,11.4 M14.8,11.4C14.8,11.4,14.8,11.4,14.8,11.4
			C14.7,11.4,14.7,11.4,14.8,11.4l-0.1,0.1l0,0C14.7,11.4,14.7,11.4,14.8,11.4L14.8,11.4 M14,11.3C14,11.3,14,11.4,14,11.3
			C14,11.4,14,11.3,14,11.3C13.9,11.3,13.9,11.3,14,11.3C14,11.3,14,11.3,14,11.3C14,11.3,14,11.3,14,11.3L14,11.3 M14.3,11.3
			L14.3,11.3c-0.1,0-0.1,0-0.1,0C14.2,11.2,14.2,11.2,14.3,11.3L14.3,11.3 M14.8,11.1L14.8,11.1C14.8,11.1,14.8,11.1,14.8,11.1
			C14.8,11.1,14.8,11.1,14.8,11.1C14.8,11.1,14.8,11.1,14.8,11.1C14.8,11.1,14.8,11.1,14.8,11.1C14.8,11.1,14.8,11.1,14.8,11.1
			C14.8,11.1,14.8,11.1,14.8,11.1 M15.1,11.1C15.1,11.1,15,11.1,15.1,11.1C15,11.1,15,11.1,15.1,11.1L15.1,11.1L15.1,11.1
			 M15.4,11.1L15.4,11.1C15.3,11,15.3,11,15.4,11.1L15.4,11.1L15.4,11.1C15.4,11,15.4,11.1,15.4,11.1L15.4,11.1 M15,11
			C15,11.1,15,11.1,15,11C15,11,15,11,15,11C15,11,15,11,15,11 M14.4,11C14.4,11,14.4,11,14.4,11C14.3,11,14.3,11,14.4,11
			C14.3,11,14.3,11,14.4,11C14.4,10.9,14.4,10.9,14.4,11C14.4,10.9,14.4,11,14.4,11 M15.2,11L15.2,11L15.2,11L15.2,11
			C15.1,11,15.1,11,15.2,11L15.2,11C15.1,10.9,15.1,10.9,15.2,11C15.1,10.9,15.2,10.9,15.2,11C15.2,10.9,15.2,10.9,15.2,11L15.2,11
			 M14.2,11C14.1,11,14,11,13.9,11c-0.1,0-0.1,0-0.1-0.1c0.1,0,0.2,0,0.2-0.1l0,0c0,0,0,0,0.1,0C14.1,10.9,14.1,10.9,14.2,11
			C14.2,10.9,14.2,10.9,14.2,11L14.2,11L14.2,11 M14.8,10.9C14.8,11,14.8,11,14.8,10.9C14.7,11,14.7,11,14.8,10.9
			C14.7,10.8,14.7,10.8,14.8,10.9C14.7,10.8,14.7,10.8,14.8,10.9C14.7,10.9,14.8,10.9,14.8,10.9L14.8,10.9 M15.5,10.9L15.5,10.9
			C15.3,10.9,15.3,10.9,15.5,10.9C15.5,10.8,15.5,10.8,15.5,10.9C15.4,10.8,15.4,10.8,15.5,10.9C15.4,10.9,15.4,10.9,15.5,10.9
			L15.5,10.9 M15.6,10.8C15.6,10.8,15.6,10.9,15.6,10.8C15.6,10.8,15.6,10.8,15.6,10.8L15.6,10.8 M15.2,10.7L15.2,10.7l-0.1,0.1
			C15,10.7,15.2,10.7,15.2,10.7L15.2,10.7 M13.9,10.6L13.9,10.6L13.9,10.6C13.9,10.6,13.9,10.6,13.9,10.6
			C13.9,10.6,13.9,10.6,13.9,10.6L13.9,10.6L13.9,10.6 M14.7,10.7L14.7,10.7L14.7,10.7C14.6,10.7,14.6,10.7,14.7,10.7
			C14.6,10.6,14.6,10.6,14.7,10.7C14.7,10.6,14.7,10.6,14.7,10.7C14.7,10.6,14.7,10.6,14.7,10.7C14.7,10.6,14.7,10.6,14.7,10.7
			C14.7,10.6,14.7,10.6,14.7,10.7C14.7,10.6,14.7,10.6,14.7,10.7C14.7,10.6,14.7,10.6,14.7,10.7C14.7,10.6,14.7,10.6,14.7,10.7
			C14.7,10.6,14.7,10.6,14.7,10.7C14.7,10.6,14.7,10.6,14.7,10.7L14.7,10.7L14.7,10.7 M15.6,10.6C15.6,10.7,15.5,10.7,15.6,10.6
			C15.5,10.6,15.5,10.6,15.6,10.6C15.4,10.6,15.4,10.6,15.6,10.6C15.5,10.6,15.5,10.6,15.6,10.6L15.6,10.6 M14.8,10.6L14.8,10.6
			h-0.1C14.7,10.6,14.7,10.6,14.8,10.6C14.7,10.6,14.7,10.6,14.8,10.6C14.7,10.6,14.7,10.6,14.8,10.6L14.8,10.6L14.8,10.6 M14,10.6
			C14,10.5,14,10.6,14,10.6L14,10.6C14,10.6,14,10.5,14,10.6C14,10.5,14,10.5,14,10.6L14,10.6L14,10.6L14,10.6
			C14,10.5,14,10.5,14,10.6L14,10.6 M16.3,10.5L16.3,10.5c-0.1,0-0.1,0-0.1-0.1l0,0l0,0l0,0l0,0l0,0l0,0l0,0l0,0
			C16.2,10.4,16.3,10.5,16.3,10.5L16.3,10.5 M14.6,10.3C14.6,10.4,14.5,10.4,14.6,10.3C14.5,10.3,14.5,10.3,14.6,10.3L14.6,10.3
			 M15.3,10.4L15.3,10.4C15.2,10.4,15.2,10.4,15.3,10.4C15.2,10.3,15.2,10.3,15.3,10.4C15.2,10.3,15.2,10.3,15.3,10.4L15.3,10.4
			 M14.2,10.3c-0.1,0.1-0.2,0-0.2,0.1c0,0,0,0,0-0.1c-0.1,0-0.1,0-0.1,0c0,0-0.1,0.1-0.1,0c0.1-0.1,0.1-0.1,0.2-0.1l0,0l0,0v-0.1
			c-0.1,0-0.1,0-0.1,0l0,0l0,0c0,0,0.1,0,0.1,0s0.1,0,0.1,0s0,0-0.1,0.1C14,10.3,14.1,10.3,14.2,10.3L14.2,10.3 M13.8,10.1
			C13.8,10.1,13.7,10.1,13.8,10.1C13.7,10.2,13.7,10.2,13.8,10.1C13.7,10.1,13.7,10.1,13.8,10.1C13.7,10.1,13.7,10.1,13.8,10.1
			C13.7,10.1,13.7,10.1,13.8,10.1C13.7,10.1,13.8,10.1,13.8,10.1C13.8,10.1,13.8,10.1,13.8,10.1L13.8,10.1L13.8,10.1L13.8,10.1
			 M16,10.1L16,10.1C15.9,10.2,15.9,10.2,16,10.1l-0.1,0.1c0,0,0,0,0,0.1c0,0.1,0,0.1-0.1,0.1C15.8,10.2,15.8,10.2,16,10.1
			C15.8,10.1,15.8,10.1,16,10.1C15.9,10.1,16,10.1,16,10.1L16,10.1C16,10,16,10,16,10.1C16,10.1,16,10.1,16,10.1L16,10.1L16,10.1
			L16,10.1L16,10.1L16,10.1L16,10.1L16,10.1L16,10.1L16,10.1L16,10.1L16,10.1 M16.8,10C16.8,10,16.7,10,16.8,10
			C16.7,10,16.8,10,16.8,10L16.8,10 M16.8,9.9L16.8,9.9L16.8,9.9L16.8,9.9 M12.7,9.4L12.7,9.4L12.7,9.4C12.7,9.3,12.7,9.3,12.7,9.4
			C12.7,9.3,12.7,9.3,12.7,9.4C12.7,9.3,12.7,9.3,12.7,9.4C12.7,9.3,12.7,9.3,12.7,9.4C12.7,9.3,12.7,9.3,12.7,9.4
			C12.7,9.3,12.7,9.3,12.7,9.4C12.7,9.3,12.7,9.3,12.7,9.4C12.7,9.3,12.7,9.3,12.7,9.4C12.7,9.3,12.7,9.3,12.7,9.4
			C12.7,9.3,12.7,9.3,12.7,9.4C12.7,9.3,12.7,9.3,12.7,9.4C12.7,9.3,12.7,9.3,12.7,9.4C12.7,9.3,12.7,9.3,12.7,9.4
			C12.7,9.3,12.7,9.3,12.7,9.4C12.7,9.3,12.7,9.3,12.7,9.4L12.7,9.4 M17,9.5C17,9.5,17,9.6,17,9.5L17,9.5L17,9.5L17,9.5L17,9.5
			L17,9.5L17,9.5 M16.6,9.5c-0.1,0.1,0,0.1-0.1,0.1l0.1,0.1c0,0.1-0.1,0-0.1,0l0,0V9.7C16.6,9.6,16.6,9.5,16.6,9.5L16.6,9.5
			 M23.6,20.7c0.1-0.1,0.1-0.2,0.1-0.3c-0.1,0-0.1,0-0.2,0c-0.1-0.1-0.3-0.2-0.7,0.1c-0.2-0.2-0.4-0.1-0.6,0.1
			c0-0.1,0.1-0.1,0.1-0.1c-0.1-0.1-0.1-0.1-0.2-0.1c0-0.1,0-0.1,0-0.2c-0.1-0.1-0.1-0.1-0.2-0.4c-0.1,0-0.2-0.1-0.3-0.1
			c-0.2-0.1-0.4,0.1-0.6,0.1c-0.2-0.1-0.2-0.2-0.4-0.2l-0.1-0.2v-0.1c-0.2-0.1-0.2-0.1-0.2,0c0,0,0-0.1-0.1-0.1c0,0,0.1,0,0.1-0.1
			c-0.2-0.1-0.9,0.2-0.9,0.2c-0.1-0.1-0.2-0.1-0.4-0.2l0,0l0,0c-0.1,0.1-0.1,0.1-0.2,0.2c0,0,0-0.1-0.1-0.1c0.1-0.1,0.1-0.1,0.1-0.1
			c0,0,0-0.1-0.1-0.1c0,0-0.7,0.4-0.7,0.7c-0.1,0.1-0.1,0.1-0.2,0.2c-0.4-0.2-0.4-0.2-0.8,0c-0.1,0-0.1-0.1-0.1,0
			c-0.1-0.1-0.2-0.2-0.2-0.4l0.1-0.1c0-0.2,0.2-0.6,0-0.7c0,0-0.6-0.2-1,0.1c0.4-0.6,0.4-1.1,0.4-1.1c-0.6-0.1-0.6,0-0.7,0.6
			c-0.8-0.1-0.8-0.1-0.9-0.2c-0.4-0.9-0.1-1.6-0.1-1.6s0.4-0.2,0.6-0.2l0,0l0,0l0,0c0.2,0,0.6,0.1,0.6,0.1c0-0.1,0-0.1,0-0.2
			c0.6,0,0.6,0,0.6,0.1c0.1,0,0.1-0.1,0.1-0.1c0.1,0.1,0.1,0.1,0.4,0.7h0.1c0,0,0,0.1,0.1,0.1c0.1,0,0.1,0,0.1,0
			c0.1-0.2,0.1-0.4-0.2-0.9c-0.1-0.3,0.2-0.4,0.3-0.7l0,0l0,0l0,0l0,0l0,0l0,0l0,0l0,0c0.1-0.1,0.2-0.1,0.3-0.2v-0.1h0.1
			c0.1-0.1,0.1-0.1-0.1-0.3c0,0,0,0,0.2-0.2l-0.1-0.1c0.2-0.2,0.4-0.4,0.7-0.6c0,0,0-0.1-0.1-0.1h-0.1c0-0.4,0.6-0.7,0.7-0.7
			c-0.1,0.1-0.1,0.1-0.1,0.2h0.1c0.1-0.1,0.6-0.6,0.6-0.6s-0.1,0-0.1-0.1v-0.1c-0.1,0.1-0.1,0.2-0.1,0.2c-0.2,0.1-0.3-0.1-0.4-0.2
			l-0.1-0.1c0.1-0.1,0.1-0.1,0.1-0.1c-0.2-0.1-0.2,0-0.6,0.2c0.1-0.1,0.1-0.2,0.2-0.2c0-0.1,0.1-0.2,0.9-0.6c0,0.2-0.1,0.4-0.1,0.6
			c0,0,0,0,0.4-0.1c0,0,0,0.1,0.1,0.1c0.1,0,0.1-0.1,0.1-0.1c0,0.1,0.1,0.1,0.1,0.1l0.1-0.1c0-0.1-0.1-0.1-0.1-0.1l-0.1,0.1v-0.1
			c0,0-0.1,0-0.1-0.1v-0.1c0,0-0.1,0-0.1-0.1c-0.1,0-0.1,0.1-0.1,0.1V12h-0.1c0-0.2,0-0.2,0-0.2l-0.1,0.1c0.1-0.1,0.1-0.2-0.2-0.3
			c-0.1-0.1-0.1-0.1-0.5-0.2c-0.1-0.2-0.1-0.2-0.6-0.6c0,0.2-0.1,0.2-0.1,0.4c-0.1,0-0.1-0.1-0.1-0.1c-0.2-0.4-0.6-0.4-0.8-0.3
			c0,0.1-0.1,0.6,0.2,0.9h-0.1c-0.1,0.1-0.1,0.1-0.3,0.2c0.1,0.1,0.1,0.2,0.1,0.4c-0.1,0.1-0.1,0.1-0.2,0.1
			c-0.1-0.1-0.1-0.1-0.1-0.2h0.1c0-0.1-0.1-0.1-0.1-0.1c0-0.1,0-0.1,0-0.2c-0.3-0.1-0.9-0.2-0.9-0.2c0-0.1-0.1-0.1-0.1-0.2
			c0,0-0.1,0-0.1-0.1c-0.1-0.6,0.6-0.7,0.9-0.9c0,0.1-0.1,0.1-0.1,0.2c0.1,0,0.1,0,0.2,0.1c0.1,0,0.1-0.1,0.1-0.1
			c0.1,0.1,0.2,0.1,0.2,0c-0.1-0.1-0.4-0.2-0.4-0.2c0.1,0,0.1,0.1,0.2,0.1l-0.1-0.1c0.1-0.1,0.1-0.1,0.2-0.4l0,0l0,0
			c0.1,0,0.1-0.1,0.1-0.1V9.8c0.1,0,0.1,0,0.1,0s0,0.1,0.1,0.1h0.1c0,0,0,0.1-0.1,0.1c0.1,0,0.1-0.1,0.3,0.1
			c-0.1,0.1-0.1,0.1-0.1,0.1l0.1,0.1c-0.1,0.1-0.1,0.1-0.2,0.1c0,0,0,0.1-0.1,0.1v0.1c0.1,0,0.2-0.1,0.4,0l0,0l0,0l0,0l0,0l0,0l0,0
			l0,0l0,0l0,0c0.1,0.1,0.4,0.1,0.6,0.1c0,0,0,0-0.2-0.2c0.3,0.1,0.3,0.1,0.3,0.1l-0.1-0.1v-0.1c-0.2-0.2-0.2-0.2-0.3-0.2
			c0.1,0,0.2,0.1,0.2,0.1c0.1-0.2,0.1-0.2,0.1-0.2c-0.1,0-0.1,0-0.2-0.1c-0.1,0-0.1,0-0.2,0l0,0h-0.1l0,0l0,0l0,0l0,0l0,0l0,0l0,0
			l0,0c-0.1-0.1-0.2-0.1-0.3-0.1h-0.1c-0.2-0.1-0.4-0.2-0.6-0.1c-0.2-0.1-0.4,0.2-0.4,0.3c0.1,0.1,0.2,0.1,0.2,0.1
			c0,0.1,0,0.1,0,0.2h-0.1v0.1h-0.1v-0.1c0,0,0-0.1-0.1-0.1c-0.1,0-0.1,0.1-0.1,0.1v-0.1c0,0-0.1,0-0.1-0.1s0-0.2-0.1-0.2
			C16,9.7,16,9.7,16.1,9.7c-0.1-0.1-0.3-0.1-0.3,0.2c-0.1,0.1-0.1,0.1-0.2,0.2c-0.2,0.1-0.2,0.1-0.3,0.2c0,0,0.1,0,0.1,0.1
			c-0.1,0.1-0.1,0.1-0.4,0.1c0-0.1-0.1-0.1-0.1-0.1c0.2,0,0.2,0,0.4-0.1c0-0.1-0.1-0.1-0.1-0.1c0-0.1,0-0.1,0.1-0.3
			C15,9.8,15,9.9,15,9.9C14.9,10,14.9,10,14.9,10l0,0l0,0l0,0l0,0l0,0l0,0l0,0V9.8c-0.1,0-0.1,0-0.2-0.1c-0.2-0.2-0.2-0.2-0.4-0.2
			h-0.1c-0.1,0.1-0.2,0.1-0.3,0.2c0.2,0.1,0.2,0.1,0.4,0l-0.1,0.1c0,0.1,0,0.1-0.1,0.1c0.1,0,0.2,0,0.2,0c-0.1,0-0.2,0-0.2,0V10
			c0.1,0,0.1,0.1,0.1,0.1c0.1,0,0.1,0,0.3,0c0,0,0,0.1,0.1,0.1c0,0,0,0.1-0.1,0.1c-0.1-0.1-0.2,0-0.4-0.1l0.1-0.1
			C14.3,10,14,9.8,13.8,9.9V9.8c0,0-0.1,0-0.1,0.1l-0.1-0.1c-0.6,0-0.6,0-0.7,0c-0.1-0.1-0.2-0.3-0.6-0.4c0-0.1,0-0.1,0-0.1l0,0l0,0
			l0,0l0,0l0,0l0,0l0,0c0-0.1,0-0.1-0.7-0.2c-0.1,0.1-0.2,0.2-0.2,0.2c-0.1,0-0.1-0.1-0.1-0.1c-0.1,0-0.2,0-0.2,0.1
			c0,0.1,0,0.1,0.1,0.2c-0.1,0.1-0.1,0.1-0.3,0c-0.4,0.1-0.4,0.1-0.5,0.3c0,0,0.1,0,0.1,0.1C10.4,10,10.3,10,10.3,10
			c0,0.1,0.1,0.1,0.1,0.1h0.1c-0.2,0.2-0.7,0.1-0.7,0.1s-0.1,0.1-0.1,0.1c0.2,0.1,0.2,0.1,0.2,0.1c0.2-0.1,0.4,0.1,0.6-0.1
			c0-0.1,0-0.1,0-0.1l-0.1,0.1c0.1,0,0.1,0,0.3,0v-0.1c0.2,0,0.3-0.1,0.4-0.1c-0.1,0-0.1,0-0.2,0.1c0.1,0,0.1,0,0.2,0
			c0.1,0,0.1,0,0.1,0l0,0l0,0l0,0l0,0l0,0l0,0l0,0c0.1,0,0.1,0,0.1-0.1c0.1,0.2,0.4,0.5,0.2,0.9c0,0,0.1,0,0.1-0.1
			c-0.1,0.1-0.1,0.2-0.1,0.2v0.1l0.1-0.1l0.1,0.1c-0.1,0.2-0.1,0.2-0.1,0.3l0.1,0.1c-0.1,0.1-0.1,0.2-0.1,0.2c0,0-0.1,0-0.1-0.1
			l-0.1,0.1c0,0.2,0.1,0.3,0.1,0.4h-0.1c0,0.1,0,0.3-0.6,1.1c-0.2,0.4,0.1,0.8,0,1.2c0.6,0.3,0.6,1.3,0.6,1.3s-0.1,0-0.1,0
			c0.1,0.2,0.3,0.3,0.2,0.6c0.1,0.1,0.2,0.2,0.2,0.4h0.1c0-0.4-0.3-0.8-0.4-1.2c0,0,0,0.1,0.1,0.1v-0.1c-0.1-0.1-0.2-0.2-0.1-0.4
			c0.3,0.1,0.2,0.6,0.2,0.6h0.1c0.1,0.2,0.3,0.4,0.2,0.7c0.2,0.1,0.6,0.8,0.6,1c-0.1,0.3,1,1,1.4,1.1l0,0c0.6-0.1,0.9,0.6,1.4,0.4
			c0.3,0.3,0.3,0.3,0.3,0.6c0.1,0.1,0.1,0.1,0.1,0.1l0.1-0.1c0.1,0.1,0.2,0.1,0.2,0.2c0.1,0,0.2,0,0.2,0V20h0.1
			c0.1,0.1,0.1,0.1,0.2,0c-0.1-0.2,0-0.2,0.2-0.2c0.1,0.1,0.2,0.2,0.2,0.4c-0.1,0.6-0.1,0.6-0.2,0.7c-0.1,0.2-0.3,0.4-0.4,0.7
			c0,0.1,0.1,0.1,0.1,0.1c-0.6,0.6,0.4,0.9,0.6,1.4c0.2,0.2,0.9,0.1,0.8,0.4c-0.1,0.6-1.2,1.5-1.2,1.5c0.1,0,0.1,0,0.1-0.1
			c-0.1,0.1-0.1,0.1-0.2,0.1h0.1c-0.1,0-0.1,0-0.1,0.1l0,0h0.2l0.4-0.1l0,0c0.2-0.1,0.2-0.1,0.2-0.1h-0.1c0.2-0.1,0.4-0.1,0.4-0.1
			h-0.1c0.4-0.2,0.9-0.1,1.2-0.4h-0.1C19.4,24.7,22.7,23.3,23.6,20.7"/>
		<path class="st1" d="M10.8,8.5L10.8,8.5C10.8,8.4,10.8,8.5,10.8,8.5c0-0.1,0-0.1,0.1-0.1l0.1-0.1c0,0,0,0,0,0.1
			C10.9,8.4,10.9,8.4,10.8,8.5C10.8,8.4,10.9,8.4,10.8,8.5C10.9,8.4,10.9,8.4,10.8,8.5C10.9,8.4,10.9,8.4,10.8,8.5
			C10.8,8.4,10.8,8.5,10.8,8.5L10.8,8.5"/>
		<path class="st1" d="M10.1,8.3C10.1,8.3,10.1,8.3,10.1,8.3c0.1-0.1,0.1-0.1,0.1-0.1l0,0C10.1,8.2,10.1,8.3,10.1,8.3L10.1,8.3"/>
		<path class="st1" d="M11.9,11.5c-0.1,0.1-0.1,0.1-0.2,0.3c-0.1-0.2,0-0.3,0.1-0.4C11.9,11.5,11.9,11.5,11.9,11.5
			C11.9,11.4,11.9,11.5,11.9,11.5"/>
		<path class="st1" d="M9.5,10.2c0,0-0.1,0.1-0.1,0.1l0,0C9.5,10.3,9.5,10.2,9.5,10.2L9.5,10.2"/>
		<path class="st1" d="M9.3,9.3C9.3,9.3,9.3,9.2,9.3,9.3L9.3,9.3L9.3,9.3"/>
		<path class="st1" d="M22.8,12.5L22.8,12.5L22.8,12.5C22.8,12.5,22.8,12.6,22.8,12.5C22.8,12.6,22.8,12.6,22.8,12.5
			C22.8,12.6,22.8,12.6,22.8,12.5C22.7,12.6,22.7,12.6,22.8,12.5C22.7,12.6,22.7,12.5,22.8,12.5C22.7,12.5,22.7,12.5,22.8,12.5
			C22.7,12.5,22.7,12.5,22.8,12.5L22.8,12.5"/>
		<path class="st1" d="M17.4,16.6C17.4,16.6,17.3,16.6,17.4,16.6c-0.1,0.1-0.1,0.1-0.1,0.1l0,0v-0.1C17.3,16.6,17.3,16.6,17.4,16.6
			L17.4,16.6"/>
		<path class="st1" d="M17.8,17C17.8,17,17.8,17,17.8,17C17.8,17,17.8,17,17.8,17C17.7,17,17.7,17,17.8,17C17.7,17,17.7,17,17.8,17
			c-0.1-0.1-0.1-0.1-0.1-0.1v-0.1c0,0,0,0,0.1,0C17.7,16.9,17.7,17,17.8,17C17.7,17,17.7,17,17.8,17L17.8,17"/>
		<path class="st1" d="M18.4,7.1c0.1,0.1,0.1,0.1,0.1,0.1c0.1,0,0.1-0.1,0.1-0.1c0,0,0,0,0.1,0.1c0,0,0,0,0,0.1c-0.1,0-0.1,0-0.1,0
			s0,0-0.1,0c0.1,0.1,0.1,0.1,0.2,0.1c-0.1,0.1-0.1,0.1-0.1,0.1l0,0c0,0,0,0-0.1,0c0,0,0,0,0.1,0l0,0h-0.1l0,0c0,0-0.1,0-0.1,0
			c-0.1-0.1-0.1-0.1,0-0.1h-0.1c0,0-0.1,0,0-0.1l0,0c-0.1,0-0.1-0.1-0.1-0.1l0,0h-0.1C18.4,7.1,18.4,7.1,18.4,7.1L18.4,7.1"/>
		<path class="st1" d="M15.6,9.2c-0.1,0.1-0.2,0.1-0.3,0.1c0.1,0,0.1,0,0.1-0.1C15.5,9.2,15.5,9.2,15.6,9.2
			C15.6,9.2,15.6,9.2,15.6,9.2L15.6,9.2"/>
		<path class="st1" d="M16.2,9.4c0,0.1-0.1,0.1-0.2,0c0,0,0,0,0-0.1c-0.1,0.1-0.1,0.1-0.2,0.1l0,0l0,0l0,0c0-0.1-0.1,0-0.1,0
			c0,0,0,0,0-0.1c0,0,0,0-0.1-0.1c0,0,0-0.1,0.1-0.1l0,0l0,0l0.1,0.1C15.8,9.2,16,9.2,16,9.2v0.1l0,0c0,0,0.1,0,0.2-0.1l0,0l0,0l0,0
			l0,0C16.2,9.4,16.2,9.4,16.2,9.4"/>
		<path class="st1" d="M17.6,6.4c0.1,0,0.2,0.1,0.4,0.1c0.1,0,0.1,0,0.2,0c0.1,0,0.1,0,0.2,0l0,0l0,0l0,0c0.1,0,0.1,0.1,0.1,0.1l0,0
			c0.1,0,0.1,0,0.1,0c-0.1,0.1-0.1,0-0.1,0l0,0c-0.1,0-0.1,0-0.1,0l0,0h-0.2l0,0C17.9,6.5,17.9,6.5,17.6,6.4
			C17.4,6.4,17.4,6.4,17.6,6.4C17.4,6.4,17.6,6.4,17.6,6.4"/>
		<path class="st1" d="M16,9.6c0,0.2-0.2,0.2-0.2,0.2l0,0l0,0l0,0l0,0l0,0l0,0l0,0l0,0c0,0,0,0,0-0.1c0,0,0,0,0-0.1h-0.1l0,0
			c-0.1-0.1,0-0.1,0-0.1h0.1c0,0,0.1,0.1,0.1,0c0,0,0,0-0.1,0C15.8,9.5,15.8,9.5,16,9.6L16,9.6"/>
		<path class="st1" d="M20.4,8.7c0.1,0.2,0.1,0.3-0.1,0.4l0,0c0,0,0,0,0-0.1C20.2,9,20.2,9,20.1,9c0,0,0,0-0.1,0c0,0,0,0,0-0.1l0,0
			l0,0c0,0,0,0-0.1,0l0,0C19.9,9,19.9,9,19.9,9c-0.1-0.1-0.1-0.1-0.1-0.1c0-0.1,0.1,0,0.1,0s0,0,0.1,0.1l0,0l0,0
			c-0.1,0-0.1,0-0.1-0.1C20,8.8,20,8.8,20,8.8l0,0c0,0,0,0,0.1,0c0,0,0,0,0-0.1l0,0c0,0,0.1,0.1,0.1,0.1C20.2,8.7,20.3,8.7,20.4,8.7
			"/>
		<path class="st1" d="M22.1,9.2c0.1,0.1,0.1,0.1,0.1,0.1l0,0l0,0c0.1,0.1,0.1,0.2,0.1,0.3l0,0c0,0.1,0.1,0.1,0.1,0.1
			s-0.1,0.1,0,0.1l0,0c-0.1-0.2-0.1-0.2-0.1-0.2c-0.1,0-0.1,0-0.1,0.1c0,0,0,0-0.1,0C22,9.5,22,9.5,22,9.5l0,0l0,0l-0.1-0.1V9.3
			l-0.1-0.1l0,0c0,0-0.1,0-0.1-0.1c0,0,0,0,0,0.1l0,0h-0.1c-0.1,0-0.1-0.1-0.1-0.1c0,0,0,0,0.1,0.1c0,0,0,0-0.1-0.1l0.1,0.1
			c0,0-0.1,0-0.1-0.1l0,0l0,0l0,0l0,0l0,0l0,0l0,0l0,0c0,0-0.1,0-0.1-0.1c-0.1-0.1-0.1,0-0.1,0l-0.1-0.1c0,0,0,0,0.1,0
			C21.3,9.1,21.3,9,21.3,9s0,0,0-0.1c-0.1,0-0.1,0-0.1-0.1c0,0,0,0,0.1,0l0,0c0,0.1,0.1,0.1,0.1,0.1c0.1,0,0-0.1,0.1-0.1
			c0,0,0.1,0.1,0.2,0.2h0.1l0,0c0,0,0.1,0,0.1,0.1l0,0c0,0,0.1,0,0.2,0.1C22,9.2,22,9.2,22.1,9.2L22.1,9.2"/>
		<path class="st1" d="M17.6,17.2c-0.1,0-0.1,0-0.1-0.1c0-0.1-0.1-0.1-0.1-0.1s0,0,0-0.1V17c0.1,0,0.1,0,0.1,0.1
			S17.4,17.1,17.6,17.2L17.6,17.2"/>
		<path class="st1" d="M17.3,10L17.3,10L17.3,10C17.2,10,17.2,10,17.3,10C17.3,10,17.3,10,17.3,10C17.3,10,17.3,10,17.3,10L17.3,10"
			/>
		<polyline class="st1" points="15.7,7.2 15.7,7.2 15.7,7.2 15.7,7.2 15.7,7.2 15.7,7.2 15.7,7.2 15.7,7.2 15.7,7.2 15.7,7.2 
			15.7,7.2 15.7,7.2 15.7,7.2 15.7,7.2 		"/>
	</g>
</g>
</svg>
