<?xml version="1.0" encoding="utf-8"?>
<!-- Generator: Adobe Illustrator 19.0.0, SVG Export Plug-In . SVG Version: 6.00 Build 0)  -->
<svg version="1.1" id="Layer_1" xmlns="http://www.w3.org/2000/svg" xmlns:xlink="http://www.w3.org/1999/xlink" x="0px" y="0px"
	 width="20px" height="19.9px" viewBox="6 6.1 20 19.9" style="enable-background:new 6 6.1 20 19.9;" xml:space="preserve">
<style type="text/css">
	.st0{fill:#0064D2;}
	.st1{fill:#FFFFFF;}
</style>
<g>
	<g>
		<path class="st0" d="M8.1,21.9c-0.2-0.4-0.6-0.9-0.8-1.2c-0.2-0.4-0.4-1-0.6-1.4c-0.4-1.4-0.6-2.4-0.6-3.1c0-0.7,0.1-1.8,0.3-2.7
			c0.4-1.3,0.7-1.9,1.2-2.8c0.1-0.1,0.7-1.2,2-2.2c0.7-0.6,1.2-0.9,1.4-1.1c0.3-0.2,0.9-0.4,1.2-0.6c0,0,1.1-0.6,2.5-0.7
			c0.3-0.1,1.4-0.1,2.7,0.1c2.9,0.4,4.7,2,5.2,2.6c1,0.9,1.6,2,1.8,2.4c0.2,0.4,0.7,1.4,0.9,2.5c0.2,1.3,0.2,2.2,0.2,2.4
			c0,0.4-0.1,1.1-0.1,1.6c-0.1,0.4-0.2,1.1-0.4,1.6c-0.1,0.4-0.4,1-0.6,1.4c-0.2,0.4-0.6,0.9-0.8,1.2c-0.2,0.3-1,1.2-2.2,2.2
			c-1.2,0.8-3.7,2.1-7.1,1.6c-1.2-0.2-2.4-0.6-3.5-1.2c-0.4-0.2-0.9-0.6-1.2-0.9c-0.2-0.1-0.4-0.3-0.6-0.4
			C8.7,22.8,8.4,22.3,8.1,21.9c1.7,2.2,4.5,3.8,7.6,3.8C12.6,25.7,9.8,24.2,8.1,21.9"/>
		<path class="st0" d="M15.9,25.9c-0.6,0-1.1-0.1-1.7-0.1c-1.2-0.2-2.4-0.7-3.5-1.3c-0.2-0.1-0.4-0.2-0.7-0.4
			c-0.1-0.1-0.3-0.2-0.4-0.3l-0.1-0.1c-0.1-0.1-0.2-0.2-0.2-0.2c-0.1-0.1-0.2-0.2-0.2-0.2C9,23.1,8.9,23,8.7,22.9
			c-0.2-0.2-0.4-0.6-0.7-0.8l0,0l0,0c-0.2-0.4-0.6-0.9-0.8-1.2c-0.2-0.4-0.4-1-0.7-1.5C6.1,18,6,16.9,6,16.2c0-0.7,0.1-1.9,0.3-2.7
			c0.4-1.4,0.7-1.9,1.2-2.8c0.1-0.1,0.7-1.2,2-2.2c0.6-0.4,1.1-0.8,1.3-0.9c0.3-0.2,0.9-0.4,1.2-0.6c0,0,1.2-0.6,2.6-0.7
			C15,6.1,15.4,6.1,16,6.1c0.6,0,1.1,0.1,1.6,0.1c3,0.4,4.7,2.1,5.3,2.7c1,0.9,1.6,2,1.9,2.4c0.2,0.4,0.7,1.4,0.9,2.5
			c0.3,1.3,0.2,2.3,0.2,2.4c0,0.4-0.1,1.1-0.1,1.6c-0.1,0.4-0.2,1.1-0.4,1.6c-0.1,0.4-0.4,1-0.6,1.4c-0.2,0.4-0.6,0.9-0.8,1.2
			s-1,1.3-2.3,2.2C20.6,24.8,18.6,25.9,15.9,25.9z M15.8,25.6c0.1,0,0.1,0,0.2,0c2.6,0,4.5-1.1,5.5-1.7c1.2-0.9,2-1.8,2.2-2.1
			c0.2-0.3,0.6-0.9,0.8-1.2c0.2-0.4,0.4-1.1,0.6-1.4c0.2-0.4,0.3-1.1,0.4-1.5c0.1-0.3,0.1-0.9,0.1-1.6c0-0.1,0.1-1-0.2-2.3
			c-0.2-1.1-0.7-2-0.9-2.4c-0.2-0.4-0.8-1.5-1.8-2.3c-0.6-0.6-2.2-2.2-5.1-2.7c-0.6-0.1-1.1-0.1-1.6-0.1s-0.9,0.1-1.1,0.1
			c-1.4,0.1-2.5,0.7-2.5,0.7c-0.3,0.1-0.9,0.4-1.2,0.6c-0.2,0.1-0.7,0.4-1.4,0.9c-1.2,1-1.9,2-1.9,2.2c-0.5,0.9-0.9,1.4-1.2,2.7
			c-0.2,0.8-0.3,1.9-0.3,2.6c0,0.7,0.1,1.7,0.6,3c0.1,0.4,0.4,1,0.6,1.4c0.2,0.4,0.6,0.9,0.8,1.2l0.1,0.1c0.1,0.2,0.2,0.3,0.4,0.6
			c0.1,0.1,0.3,0.3,0.4,0.4c0,0,0.1,0.1,0.1,0.1c0.1,0.1,0.3,0.2,0.4,0.4c0.1,0.1,0.2,0.2,0.4,0.3c1.6,1.1,3.5,1.7,5.5,1.7l0,0l0,0
			l0,0L15.8,25.6z"/>
	</g>
	<g>
		<path class="st1" d="M14,8.1c0,0-0.1,0.1-0.1,0.1l0,0C13.9,8.1,13.9,8.1,14,8.1L14,8.1"/>
		<path class="st1" d="M15.6,6.3C15.6,6.3,15.5,6.3,15.6,6.3C15.6,6.3,15.6,6.3,15.6,6.3C15.6,6.3,15.5,6.3,15.6,6.3
			C15.5,6.3,15.6,6.3,15.6,6.3L15.6,6.3"/>
		<path class="st1" d="M15.4,6.4c0,0-0.1,0-0.1,0c-0.1,0-0.1,0-0.1,0c0,0,0,0,0.1,0l0,0l0,0l0,0h0.1C15.3,6.3,15.4,6.3,15.4,6.4
			L15.4,6.4"/>
		<path class="st1" d="M15.7,6.4c-0.1,0-0.2,0-0.2,0s0,0,0.1,0C15.5,6.3,15.6,6.3,15.7,6.4C15.6,6.4,15.6,6.4,15.7,6.4
			C15.6,6.4,15.6,6.4,15.7,6.4L15.7,6.4L15.7,6.4"/>
		<path class="st1" d="M15.3,6.4L15.3,6.4C15.2,6.4,15.2,6.4,15.3,6.4L15.3,6.4L15.3,6.4C15.3,6.4,15.3,6.4,15.3,6.4"/>
		<path class="st1" d="M15.1,6.4L15.1,6.4L15.1,6.4L15.1,6.4L15.1,6.4"/>
		<path class="st1" d="M15.8,6.4L15.8,6.4C15.8,6.4,15.8,6.4,15.8,6.4C15.8,6.4,15.8,6.4,15.8,6.4L15.8,6.4L15.8,6.4"/>
		<path class="st1" d="M14.6,6.4C14.6,6.4,14.6,6.4,14.6,6.4L14.6,6.4L14.6,6.4C14.7,6.4,14.7,6.4,14.6,6.4"/>
		<path class="st1" d="M14.9,6.4L14.9,6.4C14.9,6.4,14.9,6.4,14.9,6.4L14.9,6.4L14.9,6.4"/>
		<path class="st1" d="M18.9,6.7C19,6.7,19,6.7,18.9,6.7C19,6.7,19,6.7,18.9,6.7L18.9,6.7C18.9,6.7,18.9,6.7,18.9,6.7L18.9,6.7
			L18.9,6.7L18.9,6.7L18.9,6.7L18.9,6.7C18.9,6.7,18.9,6.7,18.9,6.7C18.9,6.7,18.9,6.7,18.9,6.7C18.9,6.7,18.9,6.7,18.9,6.7
			C18.9,6.7,18.9,6.7,18.9,6.7C18.9,6.7,18.9,6.7,18.9,6.7C18.9,6.7,18.9,6.7,18.9,6.7C18.9,6.7,18.9,6.7,18.9,6.7
			C18.9,6.7,18.9,6.7,18.9,6.7C18.9,6.7,18.9,6.7,18.9,6.7C18.9,6.7,18.9,6.7,18.9,6.7C18.9,6.7,18.9,6.7,18.9,6.7L18.9,6.7
			L18.9,6.7L18.9,6.7"/>
		<path class="st1" d="M19.6,6.9C19.7,6.9,19.7,6.9,19.6,6.9C19.7,6.9,19.7,6.9,19.6,6.9C19.7,6.9,19.7,6.9,19.6,6.9L19.6,6.9
			L19.6,6.9L19.6,6.9"/>
		<path class="st1" d="M16.1,6.7c0,0-0.1,0.1-0.1,0.1C15.9,6.7,15.9,6.7,16.1,6.7C16.1,6.7,16.1,6.7,16.1,6.7L16.1,6.7"/>
		<path class="st1" d="M14.5,6.7C14.5,6.7,14.5,6.7,14.5,6.7L14.5,6.7L14.5,6.7"/>
		<path class="st1" d="M16.2,6.7c0,0-0.1,0-0.1,0.1C16.1,6.7,16.1,6.7,16.2,6.7C16.2,6.7,16.2,6.7,16.2,6.7L16.2,6.7"/>
		<path class="st1" d="M16.3,6.7L16.3,6.7c-0.1,0-0.1,0-0.1,0l0,0C16.3,6.7,16.3,6.7,16.3,6.7L16.3,6.7"/>
		<path class="st1" d="M16,6.9L16,6.9C15.9,6.9,15.9,6.9,16,6.9L16,6.9"/>
		<path class="st1" d="M15.9,7C15.9,7,15.8,7,15.9,7C15.8,7,15.8,7,15.9,7L15.9,7C15.8,6.9,15.8,6.9,15.9,7
			C15.9,6.9,15.9,6.9,15.9,7L15.9,7"/>
		<path class="st1" d="M15.4,7c-0.1,0.1-0.1,0.1-0.2,0.1C15.3,7,15.3,7,15.4,7L15.4,7L15.4,7"/>
		<path class="st1" d="M15.7,7.1C15.7,7.1,15.7,7.1,15.7,7.1C15.5,7.1,15.6,7,15.7,7.1C15.7,7,15.7,7,15.7,7.1
			C15.7,7,15.7,7,15.7,7.1"/>
		<path class="st1" d="M20.7,7.4L20.7,7.4L20.7,7.4L20.7,7.4L20.7,7.4C20.7,7.4,20.6,7.4,20.7,7.4C20.6,7.4,20.6,7.4,20.7,7.4
			L20.7,7.4"/>
		<path class="st1" d="M16.9,7.1L16.9,7.1L16.9,7.1C16.9,7.1,16.9,7.1,16.9,7.1C16.9,7.1,16.9,7.1,16.9,7.1
			C16.9,7.1,16.9,7.1,16.9,7.1C16.9,7.1,16.9,7.1,16.9,7.1C16.9,7.1,16.9,7.1,16.9,7.1"/>
		<path class="st1" d="M16.7,7.2C16.7,7.2,16.6,7.2,16.7,7.2C16.6,7.1,16.6,7.1,16.7,7.2C16.6,7.1,16.7,7.1,16.7,7.2"/>
		<path class="st1" d="M21,7.7C21.1,7.7,21.1,7.7,21,7.7C21,7.7,21,7.7,21,7.7L21,7.7L21,7.7L21,7.7L21,7.7L21,7.7L21,7.7L21,7.7
			L21,7.7L21,7.7L21,7.7C21,7.7,21,7.7,21,7.7C21,7.7,21,7.7,21,7.7C21,7.7,21,7.7,21,7.7C21,7.7,21,7.7,21,7.7L21,7.7
			C21,7.7,21,7.7,21,7.7C21,7.7,21,7.7,21,7.7"/>
		<path class="st1" d="M10.6,7.7c-0.1,0.1-0.2,0.1-0.2,0.2C10.5,7.9,10.5,7.8,10.6,7.7L10.6,7.7"/>
		<path class="st1" d="M21.1,7.8C21.1,7.8,21.1,7.9,21.1,7.8c0.1,0.1,0.1,0.1,0.1,0.1l0,0C21.2,7.9,21.1,7.9,21.1,7.8
			C21.1,7.9,21.1,7.9,21.1,7.8C21.1,7.9,21.1,7.9,21.1,7.8C21,7.8,21,7.8,21.1,7.8C21,7.8,21,7.8,21.1,7.8C21,7.8,21,7.8,21.1,7.8"
			/>
		<path class="st1" d="M15.4,7.4c0,0,0,0-0.1,0.1l0,0C15.4,7.4,15.4,7.4,15.4,7.4c-0.1,0-0.1,0-0.1,0c0,0,0,0-0.1,0l0,0l0,0
			C15.3,7.4,15.4,7.4,15.4,7.4C15.4,7.4,15.4,7.4,15.4,7.4L15.4,7.4"/>
		<path class="st1" d="M21.6,8.1L21.6,8.1c0.1,0.1,0.1,0.1,0.1,0.1c0,0,0,0,0.1,0.1c-0.1,0-0.1,0-0.1,0s0,0-0.1,0
			c-0.1,0-0.1-0.1-0.1-0.1l0,0C21.6,8.2,21.5,8.2,21.6,8.1L21.6,8.1h-0.1l0,0l0,0l0,0l0,0l0,0l0,0l0,0l0,0l-0.1-0.1l0,0h0.1
			C21.5,8.1,21.6,8.1,21.6,8.1"/>
		<path class="st1" d="M21.7,8.1L21.7,8.1L21.7,8.1C21.6,8.1,21.6,8.1,21.7,8.1C21.6,8.1,21.6,8.1,21.7,8.1
			C21.6,8.1,21.7,8.1,21.7,8.1"/>
		<path class="st1" d="M17.1,8.1L17.1,8.1c-0.1,0-0.2-0.1-0.2-0.1c0,0,0,0,0.1,0C16.9,8.1,17,8.1,17.1,8.1L17.1,8.1"/>
		<path class="st1" d="M17.1,8.4C17.1,8.4,17.1,8.5,17.1,8.4C17.1,8.5,17.1,8.5,17.1,8.4c-0.1,0.1-0.2,0-0.3,0c0-0.1,0-0.1,0.1-0.1
			l0,0c0,0.1,0.1,0.1,0.1,0.1C17.1,8.4,17.1,8.4,17.1,8.4L17.1,8.4"/>
		<path class="st1" d="M23.7,10.1c0,0.1,0.1,0.1,0.1,0.1l0,0l0,0l0,0l0,0l0,0C23.8,10.1,23.7,10.1,23.7,10.1L23.7,10.1
			C23.6,10,23.6,10,23.6,10l0,0c0,0,0,0-0.2-0.2l0,0c0,0,0,0,0-0.1C23.4,9.7,23.6,10,23.7,10.1"/>
		<path class="st1" d="M23.6,10L23.6,10C23.6,10,23.5,10,23.6,10C23.5,10,23.5,10,23.6,10C23.5,10,23.5,10,23.6,10
			C23.5,10,23.6,10,23.6,10"/>
		<path class="st1" d="M23.6,10L23.6,10C23.6,10,23.6,10.1,23.6,10C23.6,10.1,23.6,10,23.6,10C23.5,10,23.5,10,23.6,10
			C23.5,10,23.5,10,23.6,10C23.5,10,23.5,10,23.6,10C23.5,10,23.6,10,23.6,10"/>
		<path class="st1" d="M21.7,9.9L21.7,9.9C21.7,9.9,21.7,9.9,21.7,9.9C21.7,9.9,21.7,9.9,21.7,9.9C21.7,9.9,21.7,9.8,21.7,9.9
			C21.6,9.8,21.7,9.8,21.7,9.9C21.7,9.9,21.7,9.9,21.7,9.9"/>
		<path class="st1" d="M22.8,10.7L22.8,10.7C22.8,10.7,22.8,10.7,22.8,10.7L22.8,10.7C22.8,10.7,22.8,10.7,22.8,10.7
			C22.8,10.7,22.8,10.7,22.8,10.7C22.8,10.7,22.8,10.7,22.8,10.7C22.8,10.7,22.8,10.7,22.8,10.7C22.8,10.7,22.8,10.7,22.8,10.7
			C22.8,10.7,22.8,10.7,22.8,10.7C22.8,10.7,22.8,10.7,22.8,10.7C22.8,10.7,22.8,10.7,22.8,10.7C22.8,10.7,22.8,10.7,22.8,10.7
			C22.8,10.7,22.8,10.7,22.8,10.7C22.8,10.7,22.8,10.7,22.8,10.7C22.8,10.7,22.8,10.7,22.8,10.7C22.8,10.7,22.8,10.7,22.8,10.7
			C22.8,10.7,22.8,10.7,22.8,10.7C22.8,10.7,22.8,10.7,22.8,10.7L22.8,10.7"/>
		<path class="st1" d="M23.3,11.3c0,0.1,0,0.1,0,0.1v0.1v-0.1C23.3,11.3,23.3,11.3,23.3,11.3L23.3,11.3"/>
		<path class="st1" d="M23,11.3C23,11.4,23,11.4,23,11.3L23,11.3C22.9,11.3,22.9,11.3,23,11.3L23,11.3"/>
		<path class="st1" d="M23.1,11.4L23.1,11.4C23.1,11.5,23.1,11.5,23.1,11.4C23,11.5,23,11.4,23.1,11.4
			C23.1,11.4,23.1,11.4,23.1,11.4L23.1,11.4"/>
		<path class="st1" d="M23.3,11.5L23.3,11.5L23.3,11.5C23.3,11.5,23.2,11.5,23.3,11.5C23.2,11.5,23.2,11.5,23.3,11.5
			C23.2,11.5,23.3,11.5,23.3,11.5L23.3,11.5L23.3,11.5L23.3,11.5"/>
		<path class="st1" d="M14.8,11.1C14.8,11.2,14.7,11.2,14.8,11.1c-0.1,0-0.1-0.1-0.1-0.1C14.8,11,14.8,11.1,14.8,11.1"/>
		<path class="st1" d="M15,11.5C15,11.5,14.9,11.5,15,11.5C14.9,11.5,14.9,11.5,15,11.5C14.9,11.4,14.9,11.4,15,11.5L15,11.5
			C14.9,11.4,14.9,11.4,15,11.5L15,11.5L15,11.5"/>
		<path class="st1" d="M15.1,11.7C15.1,11.7,15,11.7,15.1,11.7C15,11.7,15,11.7,15,11.6v-0.1C15,11.6,15.1,11.7,15.1,11.7L15.1,11.7
			"/>
		<path class="st1" d="M15.1,12.1c-0.2,0.1-0.4,0-0.6,0.1c0-0.1,0.1-0.1,0.1-0.1c-0.2-0.1-0.2-0.1-0.2-0.2c-0.1,0-0.1,0-0.6-0.1l0,0
			h0.1l0,0c-0.1-0.1-0.2,0-0.2,0.1c-0.1,0.1-0.1,0.1-0.2,0.1c0.1-0.1,0.2-0.2,0.6-0.2c0.1,0.1,0.2,0.1,0.3,0.1
			c0.1,0,0.1-0.1,0.1-0.1l0,0l0,0c0.4,0.2,0.4,0.2,0.5,0.2l0,0C14.9,12.1,15.1,12.1,15.1,12.1C15.2,12.1,15.1,12.1,15.1,12.1"/>
		<path class="st1" d="M15.3,11.8L15.3,11.8C15.1,11.8,15.1,11.8,15.3,11.8C15.2,11.8,15.2,11.8,15.3,11.8
			C15.2,11.7,15.3,11.7,15.3,11.8"/>
		<path class="st1" d="M13.8,11.9c-0.1,0-0.1,0-0.1,0v-0.1c0,0,0,0,0-0.1l0,0C13.7,11.8,13.8,11.8,13.8,11.9L13.8,11.9L13.8,11.9"/>
		<path class="st1" d="M15.3,12c0,0.1-0.1,0.1-0.1,0.1C15.3,12,15.3,12,15.3,12L15.3,12L15.3,12"/>
		<path class="st1" d="M6.5,13.3C6.5,13.4,6.5,13.4,6.5,13.3C6.4,13.5,6.5,13.5,6.5,13.3l0.1-0.1C6.5,13.3,6.5,13.3,6.5,13.3"/>
		<path class="st1" d="M16.2,12.5L16.2,12.5c-0.2,0-0.4,0-0.5,0.1c-0.1,0-0.1-0.1-0.1-0.1h-0.1h-0.1c-0.1,0-0.1,0-0.1,0
			c0-0.1-0.1-0.1-0.1-0.1l0.1-0.1c0.1,0.1,0.1,0.1,0.3,0.1c-0.1-0.1-0.1-0.2-0.2-0.2c0.1,0,0.1-0.1,0.2-0.1c0.2,0,0.4,0.1,0.4,0.1
			c0.1,0,0.1,0,0.1,0.1c0.1,0,0.1,0,0.1,0C16.1,12.4,16.1,12.5,16.2,12.5L16.2,12.5"/>
		<path class="st1" d="M14.8,12.6c-0.2,0-0.3-0.1-0.4-0.1c0-0.1,0.1-0.1,0.1-0.1C14.6,12.5,14.8,12.5,14.8,12.6L14.8,12.6"/>
		<path class="st1" d="M16.7,12.5c0,0.1-0.1,0.1-0.2,0.1l0,0l0,0c0-0.1,0-0.1,0-0.1c0.1,0,0.1,0,0.1,0
			C16.6,12.5,16.7,12.5,16.7,12.5"/>
		<path class="st1" d="M17.4,12.9L17.4,12.9C17.3,13,17.3,13,17.2,13v-0.1l0,0l0,0C17.3,12.9,17.3,12.8,17.4,12.9
			C17.3,12.8,17.3,12.8,17.4,12.9C17.3,12.8,17.3,12.8,17.4,12.9L17.4,12.9L17.4,12.9"/>
		<path class="st1" d="M22.9,13.6C22.9,13.6,22.9,13.7,22.9,13.6C22.8,13.6,22.8,13.6,22.9,13.6L22.9,13.6"/>
		<path class="st1" d="M17.5,13.3c-0.1,0-0.1-0.1-0.1-0.1l0,0l0,0C17.5,13.2,17.5,13.2,17.5,13.3L17.5,13.3"/>
		<path class="st1" d="M17.4,14.1L17.4,14.1c-0.1,0-0.1,0-0.2,0c0.1,0,0.1-0.1,0.1-0.1l0,0l0,0l0,0l0,0l0,0l0,0l0,0l0,0l0,0l0,0l0,0
			l0,0l0,0l0,0l0,0l0,0C17.4,14,17.4,14,17.4,14.1L17.4,14.1"/>
		<path class="st1" d="M25.5,16.5c0,0.1,0,0.1,0,0.1l0,0C25.4,16.6,25.4,16.5,25.5,16.5L25.5,16.5"/>
		<path class="st1" d="M25.3,17.2L25.3,17.2C25.3,17.2,25.3,17.1,25.3,17.2C25.3,17.1,25.3,17.1,25.3,17.2"/>
		<path class="st1" d="M12.2,16.1C12.1,16.1,12.1,16.1,12.2,16.1c-0.1,0.1-0.1,0.1-0.2,0.1c0,0,0-0.1,0.1-0.1c0-0.1-0.1,0-0.1-0.1
			c0,0,0.1,0,0.1-0.1l0,0c0,0,0,0,0-0.1c0,0.1,0.1,0.1,0.1,0.1C12.2,16.1,12.2,16.1,12.2,16.1L12.2,16.1"/>
		<path class="st1" d="M12.2,16.1C12.2,16.1,12.2,16.2,12.2,16.1C12.2,16.2,12.2,16.2,12.2,16.1C12.2,16.2,12.2,16.2,12.2,16.1
			C12.2,16.2,12.2,16.2,12.2,16.1C12.2,16.1,12.2,16.1,12.2,16.1L12.2,16.1L12.2,16.1L12.2,16.1"/>
		<path class="st1" d="M7.2,20.2L7.2,20.2L7.2,20.2L7.2,20.2L7.2,20.2L7.2,20.2C7.2,20.2,7.2,20.2,7.2,20.2L7.2,20.2
			C7.2,20.1,7.2,20.2,7.2,20.2"/>
		<path class="st1" d="M10.2,23.9C10.2,23.9,10.3,23.9,10.2,23.9L10.2,23.9L10.2,23.9L10.2,23.9"/>
		<path class="st1" d="M17.9,24.4C17.9,24.3,17.9,24.3,17.9,24.4C17.9,24.3,17.9,24.3,17.9,24.4C17.9,24.3,18,24.3,17.9,24.4
			L17.9,24.4"/>
		<path class="st1" d="M16,24.3L16,24.3C15.9,24.3,15.9,24.3,16,24.3L16,24.3L16,24.3C16.1,24.3,16.1,24.3,16,24.3"/>
		<path class="st1" d="M16.4,24.8L16.4,24.8C16.3,24.8,16.3,24.8,16.4,24.8C16.3,24.8,16.3,24.8,16.4,24.8
			C16.3,24.8,16.4,24.8,16.4,24.8L16.4,24.8"/>
		<path class="st1" d="M16.2,24.9L16.2,24.9C16.2,24.8,16.2,24.8,16.2,24.9C16.2,24.8,16.2,24.8,16.2,24.9L16.2,24.9"/>
		<path class="st1" d="M16.4,24.9C16.4,24.9,16.4,24.9,16.4,24.9L16.4,24.9L16.4,24.9C16.4,24.9,16.4,24.9,16.4,24.9L16.4,24.9
			L16.4,24.9L16.4,24.9"/>
		<path class="st1" d="M15.9,25L15.9,25L15.9,25L15.9,25C16,25,15.9,25,15.9,25"/>
		<path class="st1" d="M16.1,6.4L16.1,6.4C16,6.4,16,6.4,16.1,6.4L16.1,6.4L16.1,6.4L16.1,6.4L16.1,6.4L16.1,6.4L16.1,6.4L16.1,6.4
			L16.1,6.4C16,6.4,16,6.4,16.1,6.4C16,6.4,16,6.4,16.1,6.4C16,6.4,16.1,6.4,16.1,6.4L16.1,6.4L16.1,6.4 M16.1,6.3L16.1,6.3
			C16.1,6.3,16.1,6.3,16.1,6.3C16.1,6.3,16.1,6.3,16.1,6.3L16.1,6.3L16.1,6.3 M16.3,6.3L16.3,6.3C16.2,6.3,16.2,6.3,16.3,6.3
			C16.3,6.3,16.2,6.3,16.3,6.3C16.2,6.3,16.2,6.3,16.3,6.3L16.3,6.3L16.3,6.3 M17.1,6.3L17.1,6.3L17.1,6.3C17,6.3,17.1,6.3,17.1,6.3
			C17.1,6.3,17.1,6.3,17.1,6.3L17.1,6.3 M18.5,6.6c0,0,0,0-0.2-0.1l0,0c0,0,0,0-0.1,0l0,0c-0.1,0-0.2-0.1-0.4-0.1
			c-0.1,0-0.2,0-0.2,0l0,0c-0.7-0.1-1.1-0.1-1.7-0.1c0,0,0,0,0.1,0c-0.1,0-0.2,0-0.4,0c0,0,0,0,0.1,0l0,0c0,0,0,0,0.2,0
			c-0.2,0.1-0.4,0-0.6,0.1c0,0,0,0,0.1,0c0,0,0,0-0.1,0c0.1,0,0.7,0.1,0.7,0c-0.2-0.1-0.3,0-0.6,0c0.4,0,0.4,0,0.6,0l0,0
			c0,0,0,0,0.1,0l0,0c0.1,0,0.1,0,0.1,0s0,0-0.1,0c0,0,0.6-0.1,0.7-0.1c-0.1,0-0.1,0-0.1,0c0,0,0,0,0.1,0c-0.1,0-0.2,0-0.3,0
			c0.1,0,0.1,0,0.2,0c-0.1,0-0.1,0-0.1,0c0,0,0,0,0.1,0l0,0l0,0l0,0l0,0l0,0l0,0l0,0l0,0c0,0,0,0,0.2,0c0.2,0,0.3,0.1,0.4,0.1l0,0
			c0.1,0,0.1,0.1,0.1,0.1l0,0l0,0l0,0l0,0l0,0l0,0l0,0l0,0c0.1,0.1,0.1,0.1,0.1,0.1l0,0c0.1,0,0.1,0.1,0.1,0.1c-0.1,0-0.1,0-0.2,0
			l0,0l0,0c0.1,0.1,0.2,0.1,0.2,0.1c0,0,0,0-0.1,0c0.1,0,0.1,0.1,0.1,0.1l0,0c-0.1,0-0.1,0-0.1,0l0,0l0,0c0,0,0,0,0,0.1
			c0,0,0,0,0.1,0l0,0l0,0c0,0,0.1,0.1,0.1,0.1C18,7,18.5,7.2,18.7,7.2l0,0c-0.1-0.2-0.1-0.2-0.1-0.2c0.1,0,0.1,0,0.1-0.1h-0.1l0,0
			c0.1-0.1,0.2,0,0.2-0.1c0.2,0.1,0.2,0,0.2,0C19.1,6.7,19,6.7,19,6.7l0,0c0,0,0,0-0.1,0l0,0l0,0l0,0l0,0l0,0l0,0l0,0l0,0
			c0.1,0,0.1,0.1,0.2,0.1C19,6.7,19,6.7,18.9,6.7h0.1c-0.1,0-0.1,0-0.1-0.1h0.1c0,0,0,0-0.1,0c0,0,0,0,0.1,0
			C18.8,6.7,18.6,6.6,18.5,6.6c0.1,0.1,0.1,0.1,0.1,0.1l0,0l0,0c0,0,0.1,0,0.1,0.1c-0.1,0-0.1,0-0.1,0l0,0
			C18.7,6.6,18.6,6.6,18.5,6.6"/>
		<path class="st1" d="M23.4,22.3L23.4,22.3C23.4,22.3,23.5,22.2,23.4,22.3C23.5,22.2,23.5,22.2,23.4,22.3L23.4,22.3L23.4,22.3
			 M24.7,15.4L24.7,15.4L24.7,15.4C24.7,15.6,24.7,15.6,24.7,15.4v-0.1C24.7,15.4,24.7,15.4,24.7,15.4L24.7,15.4L24.7,15.4
			 M25.6,14.8C25.6,14.8,25.6,14.9,25.6,14.8C25.6,14.9,25.6,14.9,25.6,14.8C25.6,14.9,25.6,14.9,25.6,14.8
			C25.6,14.8,25.6,14.8,25.6,14.8L25.6,14.8C25.6,14.8,25.6,14.8,25.6,14.8C25.6,14.8,25.6,14.8,25.6,14.8
			C25.6,14.8,25.6,14.8,25.6,14.8C25.6,14.8,25.6,14.8,25.6,14.8 M25.6,14.8c0,0,0-0.1,0-0.1l0,0C25.6,14.6,25.6,14.6,25.6,14.8
			L25.6,14.8L25.6,14.8 M23.4,9.7c0-0.1-0.1-0.1-0.1-0.1l0,0l-0.1-0.1l0,0l0,0L23.4,9.7L23.4,9.7 M24.6,11.5
			c-0.1-0.1-0.1-0.2-0.2-0.4l0,0c0,0-0.1-0.1-0.1-0.1c-0.1-0.1-0.2-0.4-0.2-0.4s0,0,0,0.1C24,10.4,24,10.4,24,10.4s0,0,0,0.1
			c0,0,0,0-0.1-0.1l0,0c0,0,0,0-0.1-0.1l0,0c-0.1,0-0.1-0.1-0.1,0v0.1l0,0v0.1c0,0,0,0-0.1-0.1c0,0-0.1,0.1-0.2-0.2
			c0.1,0,0.1,0,0.1,0c0-0.1,0-0.1,0-0.1l0,0l0,0l0,0c0,0,0,0,0-0.1l0,0c-0.1-0.2-0.2-0.2-0.2-0.4s-0.1-0.1-0.1-0.2l0,0
			c0.1,0,0.1,0.1,0.1,0.1c-0.1-0.1-0.1-0.1-0.1-0.1c0.1,0.1,0.4,0.4,0.6,0.6l0.2,0.3l0,0c0,0.1,0.1,0.1,0.1,0.2
			C24.3,11,24.5,11.3,24.6,11.5L24.6,11.5 M23.5,12.7L23.5,12.7L23.5,12.7L23.5,12.7 M21.6,8c-0.1-0.1-0.4-0.2-0.6-0.4l0,0
			c0.1,0.1,0.2,0.2,0.4,0.2l0,0L21.6,8L21.6,8 M22.7,23c1.9-1.9,2.9-4.2,3-6.8c0-1.1,0-1.1-0.1-1.6c-0.2-1-0.2-1-0.3-1.6
			c-0.3-0.9-0.3-0.9-0.6-1.4c-0.4-0.8-0.6-0.9-0.9-1.6c-0.8-0.9-1-1.2-2-2l0,0c0.1,0.1,0.3,0.2,0.4,0.4c0,0-0.1,0-0.1-0.1
			c0.1,0.1,0.1,0.1,0.3,0.3h-0.1l0,0l0,0l0,0l0,0l0,0l0,0l0,0l0,0c0.1,0.1,0.1,0.1,0.1,0.1l0,0c-0.1,0-0.1-0.1-0.1-0.1
			C22.5,9,22.8,9.2,23,9.5c-0.1,0-0.2-0.1-0.4-0.1c0.2,0.2,0.7,0.9,0.7,0.9l0,0c0.1,0.1,0.2,0.4,0.1,0.5c0.1,0.7-0.1,1.2,0,1.9l0,0
			c0.1,0.1,0.2,0.9,0.1,1.1l0.8,1.9c0.1,0.2,0.1,0.2,0.2,0.3c0.2-0.1,0.2-0.1,0.4,0.1c0.1-0.1,0.1-0.1,0.3-0.2
			c0.1,0.1,0.1,0.1,0.1,0.4h0.1c0.1,0.3-0.2,2.3-0.6,3.1c-0.4,0.9-0.4,0.9-2.3,3.5C22.6,23,22.7,23,22.7,23"/>
		<path class="st1" d="M14.4,6.4L14.4,6.4L14.4,6.4L14.4,6.4C14.3,6.4,14.3,6.4,14.4,6.4C14.3,6.4,14.3,6.4,14.4,6.4L14.4,6.4
			C14.3,6.4,14.3,6.4,14.4,6.4L14.4,6.4 M14.9,6.4L14.9,6.4L14.9,6.4C14.8,6.4,14.9,6.4,14.9,6.4c-0.1,0-0.1,0-0.1,0l0,0l0,0l0,0
			h-0.1l0,0l0,0l0,0c-0.1,0-0.1,0-0.1,0h0.1c0,0,0,0-0.1,0c-0.1,0-0.2,0-0.4,0.1c0.1,0,0.1,0,0.1,0l0,0h0.1l0,0l0,0c0,0,0,0-0.1,0
			c0.1,0,0.1,0,0.2,0c-0.1,0-0.1,0-0.1,0C14.8,6.4,14.8,6.4,14.9,6.4"/>
		<path class="st1" d="M17.5,8.1L17.5,8.1L17.5,8.1L17.5,8.1L17.5,8.1 M15.7,7.4L15.7,7.4L15.7,7.4L15.7,7.4L15.7,7.4 M15.4,24.1
			L15.4,24.1L15.4,24.1L15.4,24.1L15.4,24.1 M15.1,23.9L15.1,23.9C15.1,24,15.1,23.9,15.1,23.9L15.1,23.9
			C15.1,23.9,15.1,23.9,15.1,23.9L15.1,23.9L15.1,23.9L15.1,23.9 M15.3,23.4c-0.1,0-0.1,0-0.1,0l-0.1,0.1c0,0,0,0,0-0.1
			c0,0,0,0,0-0.1l0,0C15.2,23.4,15.2,23.4,15.3,23.4L15.3,23.4L15.3,23.4 M15.5,23.3L15.5,23.3L15.5,23.3
			C15.4,23.3,15.4,23.3,15.5,23.3C15.4,23.3,15.5,23.3,15.5,23.3 M15.2,22.8L15.2,22.8C15.1,22.8,15.1,22.8,15.2,22.8
			C15.1,22.8,15.1,22.8,15.2,22.8C15.1,22.8,15.1,22.8,15.2,22.8C15.1,22.8,15.1,22.8,15.2,22.8C15.1,22.8,15.1,22.8,15.2,22.8
			L15.2,22.8L15.2,22.8 M17.2,21.8L17.2,21.8C17.1,21.8,17.1,21.8,17.2,21.8L17.2,21.8L17.2,21.8L17.2,21.8L17.2,21.8L17.2,21.8
			L17.2,21.8L17.2,21.8L17.2,21.8c-0.1,0.1-0.1,0.1-0.1,0.1c0,0,0,0-0.1,0h0.1C17.1,21.8,17.2,21.8,17.2,21.8
			C17.2,21.8,17.2,21.8,17.2,21.8 M17.6,21.8c0,0,0,0.1-0.1,0.1C17.6,21.9,17.6,21.9,17.6,21.8C17.6,21.8,17.6,21.8,17.6,21.8
			c-0.1,0.1-0.1,0.1-0.1,0.1v-0.1C17.5,21.8,17.6,21.8,17.6,21.8C17.6,21.7,17.6,21.8,17.6,21.8 M16.4,21.4L16.4,21.4L16.4,21.4
			C16.3,21.4,16.3,21.4,16.4,21.4C16.3,21.4,16.4,21.4,16.4,21.4 M17.9,21.4c-0.1,0.1-0.1,0.1-0.1,0.1l-0.1,0.1c0,0,0-0.1,0.1-0.1
			C17.9,21.5,17.9,21.5,17.9,21.4C17.9,21.4,17.9,21.4,17.9,21.4L17.9,21.4L17.9,21.4 M18.5,20.4L18.5,20.4L18.5,20.4
			C18.5,20.4,18.5,20.4,18.5,20.4c-0.1,0-0.1,0-0.1,0C18.5,20.3,18.5,20.3,18.5,20.4L18.5,20.4 M19.1,20C19,20.1,19,20,19.1,20
			C19,20,19,20,19.1,20L19.1,20C19,20,19,20,19,20l0,0C19,20,19,20.1,19.1,20L19,20.1l0,0l0,0c0,0,0,0,0-0.1s0-0.1,0-0.1l0,0
			L19.1,20C19,20,19,20,19.1,20C19,20,19,20,19.1,20L19.1,20 M15.9,19.4c0,0.1,0,0.1,0,0.1C15.9,19.5,15.9,19.5,15.9,19.4L15.9,19.4
			L15.9,19.4 M15.7,19C15.7,19,15.6,19,15.7,19C15.6,19,15.6,19,15.7,19c-0.1,0-0.1,0-0.1,0c0,0,0-0.1-0.1-0.1
			C15.5,18.9,15.6,19,15.7,19L15.7,19L15.7,19 M17.1,14.6c0,0.1,0,0.1,0,0.1C17.1,14.7,17.1,14.7,17.1,14.6L17.1,14.6
			C17.1,14.5,17.1,14.6,17.1,14.6 M15.6,14.1c0,0.1,0,0.1,0,0.1c0,0-0.1,0.1-0.1,0L15.6,14.1c-0.1,0.1-0.1,0.1-0.1,0.1
			c0-0.1,0-0.1,0-0.1V14C15.5,14,15.5,14,15.6,14.1C15.6,14,15.6,14.1,15.6,14.1L15.6,14.1 M13.2,13.8
			C13.1,13.8,13.1,13.8,13.2,13.8c-0.1,0-0.1-0.1-0.1-0.1c0.1,0,0-0.1,0-0.1l0,0l0,0l0,0c0,0,0,0,0-0.1v-0.1
			C13.1,13.7,13.2,13.8,13.2,13.8L13.2,13.8 M12.1,13L12.1,13L12,12.9c0,0,0-0.1,0.1-0.1C12,12.9,12,12.9,12.1,13
			C12,12.9,12.1,13,12.1,13L12.1,13 M10.8,12.6C10.8,12.6,10.7,12.6,10.8,12.6C10.7,12.6,10.7,12.6,10.8,12.6
			C10.7,12.6,10.7,12.6,10.8,12.6c-0.1-0.1-0.1-0.1-0.1-0.1C10.7,12.5,10.7,12.6,10.8,12.6L10.8,12.6 M14.1,11L14.1,11
			C14.1,11,14.1,11,14.1,11C14.1,11,14.1,11,14.1,11 M15.1,9.4C15.1,9.5,15.1,9.5,15.1,9.4C15.1,9.5,15.1,9.5,15.1,9.4
			C15.1,9.4,15.1,9.4,15.1,9.4L15.1,9.4 M10.8,9.2C10.8,9.2,10.7,9.2,10.8,9.2C10.7,9.2,10.7,9.2,10.8,9.2
			C10.8,9.1,10.8,9.1,10.8,9.2L10.8,9.2L10.8,9.2 M14.8,8.8c-0.2,0.1-0.4,0.2-0.6,0.1c0.1,0,0.1,0,0.1-0.1c0.1-0.1,0.2-0.1,0.3-0.1
			c0,0-0.1-0.1,0-0.1C14.8,8.8,14.8,8.8,14.8,8.8L14.8,8.8 M15.3,8.6c-0.1,0.1-0.1,0.1-0.1,0.1c-0.1,0-0.1,0-0.2,0l0,0
			c-0.1,0-0.1,0-0.2,0c0,0,0.1-0.1,0.1-0.1C15.1,8.7,15.2,8.7,15.3,8.6L15.3,8.6 M14.9,8.6L14.9,8.6C14.8,8.6,14.8,8.6,14.9,8.6
			L14.9,8.6C14.9,8.5,14.9,8.6,14.9,8.6L14.9,8.6L14.9,8.6 M14.2,8.5c-0.1,0.1-0.1,0.1-0.2,0.1C14,8.7,14,8.7,14,8.7
			c-0.1,0.1-0.1,0.2-0.2,0.2c0-0.1,0.1-0.2,0.2-0.4c0-0.1-0.1,0-0.1,0C13.9,8.5,14.1,8.4,14.2,8.5L14.2,8.5 M14.8,8.6L14.8,8.6
			c-0.1,0-0.1,0-0.1,0l-0.1-0.1c0,0,0,0.2-0.2,0.2V8.7c-0.1-0.1-0.1,0-0.1,0s0,0,0.1-0.1c0,0,0.1,0,0.1-0.1c0.1-0.1,0-0.1-0.1-0.1
			c0,0,0,0,0.1,0h0.1l0,0c0,0,0,0,0.1,0s0.1,0,0.1,0l0,0h-0.1c0.1,0.1,0.1,0,0.1,0.1c0,0,0.1,0,0.1-0.1l0,0c0,0,0,0,0.1,0
			s0.1,0,0.1,0C14.8,8.5,14.8,8.5,14.8,8.6 M15,8.3L15,8.3C14.9,8.3,14.9,8.3,15,8.3C14.9,8.2,14.9,8.2,15,8.3
			C14.9,8.2,15,8.3,15,8.3C15,8.2,15,8.3,15,8.3L15,8.3 M15.3,8.2L15.3,8.2C15.3,8.2,15.3,8.3,15.3,8.2C15.3,8.3,15.3,8.2,15.3,8.2
			C15.3,8.2,15.3,8.2,15.3,8.2L15.3,8.2L15.3,8.2C15.3,8.2,15.3,8.2,15.3,8.2L15.3,8.2L15.3,8.2 M12.4,8.3L12.4,8.3
			C12.3,8.3,12.3,8.3,12.4,8.3C12.3,8.3,12.3,8.3,12.4,8.3C12.3,8.2,12.4,8.2,12.4,8.3C12.4,8.2,12.4,8.2,12.4,8.3
			C12.4,8.2,12.4,8.2,12.4,8.3 M14.3,8.3C14.3,8.4,14.3,8.4,14.3,8.3c0-0.1-0.2,0-0.2,0S14,8.3,14,8.2H14c-0.1,0-0.2,0.1-0.4,0.1
			V8.2c-0.1,0-0.1,0-0.1,0c0.3-0.1,0.4-0.2,0.7-0.2c0,0.1,0,0.1,0.1,0.1C14.3,8.2,14.3,8.3,14.3,8.3 M13.5,8.1L13.5,8.1
			C13.4,8.1,13.4,8.1,13.5,8.1C13.5,8.1,13.5,8.1,13.5,8.1L13.5,8.1 M10.7,8.4C10.7,8.4,10.6,8.4,10.7,8.4L10.7,8.4L10.7,8.4
			L10.7,8.4C10.6,8.5,10.6,8.5,10.7,8.4L10.7,8.4L10.7,8.4C10.7,8.3,10.7,8.3,10.7,8.4L10.7,8.4c0-0.1,0-0.1,0.1-0.1c0,0,0,0,0.1,0
			c-0.1,0.1-0.1,0.1,0,0.1l0,0C10.7,8.3,10.7,8.3,10.7,8.4C10.7,8.3,10.7,8.3,10.7,8.4L10.7,8.4 M14.1,8.1L14.1,8.1
			C14,8.1,14,8.1,14.1,8.1C14,8.1,14,8,14.1,8.1C14.1,8,14.1,8,14.1,8.1 M13.8,8L13.8,8C13.7,8,13.7,8,13.8,8
			c-0.1,0.1-0.1,0.1-0.1,0.1S13.6,8,13.8,8L13.8,8C13.7,8,13.7,7.9,13.8,8C13.8,7.9,13.8,7.9,13.8,8 M15.4,7.9L15.4,7.9
			C15.4,7.9,15.4,7.9,15.4,7.9L15.4,7.9L15.4,7.9L15.4,7.9L15.4,7.9L15.4,7.9C15.4,7.9,15.4,7.9,15.4,7.9
			C15.4,7.9,15.4,7.9,15.4,7.9L15.4,7.9 M15.9,7.9L15.9,7.9c-0.1,0-0.1,0-0.1,0.1h-0.1l0,0C15.8,7.9,15.9,7.9,15.9,7.9L15.9,7.9
			 M13.1,8C13,8.1,13,8.1,13.1,8C13,8,13,8,13.1,8c0-0.1,0-0.1-0.1-0.1l0,0c0,0,0,0,0.1,0C13.1,7.9,13.1,7.9,13.1,8L13.1,8
			C13.1,7.9,13.1,7.9,13.1,8L13.1,8 M17,7.9C16.9,7.9,16.9,7.8,17,7.9c-0.1-0.1-0.1-0.1-0.1-0.1l0,0l0,0C16.9,7.8,16.9,7.8,17,7.9
			L17,7.9 M13.1,7.8C13.1,7.8,13.1,7.9,13.1,7.8C13,7.9,13,7.9,13.1,7.8L13.1,7.8L13.1,7.8L13.1,7.8 M16.2,7.8
			C16.1,7.8,16.1,7.8,16.2,7.8L16.2,7.8L16.2,7.8L16.2,7.8L16.2,7.8L16.2,7.8C16.1,7.7,16.1,7.7,16.2,7.8
			C16.1,7.7,16.1,7.7,16.2,7.8C16.1,7.7,16.1,7.7,16.2,7.8C16.2,7.7,16.2,7.7,16.2,7.8C16.2,7.7,16.2,7.7,16.2,7.8
			C16.2,7.7,16.2,7.7,16.2,7.8C16.2,7.7,16.2,7.7,16.2,7.8C16.2,7.7,16.2,7.7,16.2,7.8C16.2,7.7,16.2,7.7,16.2,7.8
			C16.2,7.7,16.2,7.7,16.2,7.8C16.2,7.7,16.2,7.7,16.2,7.8C16.2,7.7,16.2,7.7,16.2,7.8C16.2,7.7,16.2,7.7,16.2,7.8L16.2,7.8
			 M16.4,7.7C16.4,7.7,16.4,7.7,16.4,7.7C16.4,7.7,16.4,7.7,16.4,7.7L16.4,7.7C16.4,7.7,16.4,7.7,16.4,7.7
			C16.4,7.7,16.4,7.7,16.4,7.7L16.4,7.7L16.4,7.7 M13.3,7.9C13.3,8,13.2,8,13.1,8C13.2,7.9,13.3,7.9,13.3,7.9
			C13.3,7.9,13.3,7.9,13.3,7.9C13.2,7.9,13.2,7.9,13.3,7.9C13.2,7.9,13.2,7.9,13.3,7.9C13.3,7.9,13.3,7.9,13.3,7.9
			C13.2,7.9,13.3,7.9,13.3,7.9c-0.1-0.1-0.1-0.1-0.1-0.1c0-0.1,0-0.1,0-0.1c0.1,0,0.1,0,0.1-0.1c0,0,0,0,0.1,0h0.1c0,0,0,0,0.1,0
			c0,0,0,0-0.1,0c0,0,0,0,0.1,0c0,0,0,0-0.1,0C13.3,7.8,13.3,7.9,13.3,7.9 M13.9,7.6C13.9,7.6,13.8,7.6,13.9,7.6c-0.1,0-0.1,0-0.1,0
			l0,0C13.8,7.6,13.8,7.6,13.9,7.6L13.9,7.6 M15.9,7.4L15.9,7.4C15.9,7.4,15.9,7.4,15.9,7.4C15.9,7.4,15.9,7.4,15.9,7.4L15.9,7.4
			L15.9,7.4 M12.6,7.6L12.6,7.6C12.6,7.6,12.6,7.6,12.6,7.6L12.6,7.6L12.6,7.6C12.6,7.6,12.6,7.6,12.6,7.6L12.6,7.6L12.6,7.6
			C12.6,7.4,12.6,7.6,12.6,7.6C12.6,7.4,12.6,7.4,12.6,7.6C12.6,7.6,12.6,7.6,12.6,7.6L12.6,7.6L12.6,7.6L12.6,7.6L12.6,7.6
			L12.6,7.6L12.6,7.6L12.6,7.6L12.6,7.6C12.8,7.4,12.6,7.4,12.6,7.6L12.6,7.6 M13.7,7.4c0,0-0.1,0-0.1,0.1c-0.1,0-0.1,0-0.1,0
			S13.6,7.4,13.7,7.4L13.7,7.4L13.7,7.4 M13,7.4C13,7.4,13,7.4,13,7.4c-0.1,0-0.1,0-0.1,0.1C12.9,7.4,12.9,7.4,13,7.4
			C13,7.4,13,7.4,13,7.4L13,7.4 M13.4,7.3c-0.1,0.1-0.1,0.1-0.2,0.1c0,0,0-0.1,0.1-0.1C13.3,7.4,13.3,7.3,13.4,7.3
			C13.3,7.4,13.4,7.4,13.4,7.3L13.4,7.3 M13.3,7.3c-0.1,0.1-0.1,0.1-0.1,0.1l0,0C13.3,7.3,13.3,7.3,13.3,7.3L13.3,7.3 M12.6,7.3
			C12.6,7.4,12.6,7.4,12.6,7.3C12.6,7.4,12.6,7.4,12.6,7.3C12.6,7.4,12.6,7.4,12.6,7.3C12.6,7.4,12.6,7.3,12.6,7.3L12.6,7.3
			L12.6,7.3L12.6,7.3 M13.1,7.2L13.1,7.2c-0.1,0-0.1,0-0.1,0S13,7.2,13.1,7.2L13.1,7.2 M13.5,7.2L13.5,7.2
			C13.5,7.2,13.5,7.2,13.5,7.2C13.5,7.2,13.5,7.2,13.5,7.2C13.5,7.1,13.5,7.1,13.5,7.2C13.5,7.1,13.5,7.1,13.5,7.2
			C13.5,7.1,13.5,7.1,13.5,7.2C13.5,7.1,13.5,7.1,13.5,7.2 M13.8,7.1c-0.1,0-0.1,0-0.1,0.1C13.8,7.1,13.8,7.1,13.8,7.1
			C13.8,7.1,13.8,7.1,13.8,7.1L13.8,7.1 M14.1,7.1L14.1,7.1C14.1,7.1,14.1,7.1,14.1,7.1C14.1,7.1,14.1,7.1,14.1,7.1
			C14.1,7.1,14.1,7.1,14.1,7.1C14.1,7.1,14.1,7.1,14.1,7.1L14.1,7.1L14.1,7.1 M13.8,7.1L13.8,7.1C13.7,7.1,13.8,7.1,13.8,7.1
			L13.8,7.1 M13.3,7.1C13.2,7.1,13.2,7.1,13.3,7.1C13.2,7.1,13.2,7.1,13.3,7.1C13.2,7.1,13.2,7.1,13.3,7.1L13.3,7.1 M14,7.1
			C13.9,7.1,13.9,7.1,14,7.1C13.9,7.1,13.9,7.1,14,7.1L14,7.1L14,7.1L14,7.1L14,7.1L14,7.1C13.9,7.1,13.9,7.1,14,7.1L14,7.1L14,7.1
			 M13,7.1c-0.1,0-0.1,0.1-0.2,0.1c-0.1,0-0.1,0-0.1,0l0.2-0.1l0,0C13,7.1,13,7.1,13,7.1C13,7.1,13,7.1,13,7.1L13,7.1L13,7.1L13,7.1
			 M13.5,7.1C13.5,7.1,13.5,7.1,13.5,7.1C13.5,7.1,13.5,7.1,13.5,7.1C13.5,7.1,13.5,7.1,13.5,7.1L13.5,7.1L13.5,7.1 M14.2,7.1
			L14.2,7.1C14.1,7,14.1,7,14.2,7.1C14.2,7,14.2,7,14.2,7.1C14.2,7,14.2,7,14.2,7.1C14.2,7,14.2,7.1,14.2,7.1L14.2,7.1 M14.4,7
			L14.4,7C14.3,7,14.3,7,14.4,7C14.3,7,14.3,7,14.4,7C14.3,7,14.4,7,14.4,7L14.4,7 M14,7L14,7c-0.1,0.1-0.1,0.1-0.1,0.1
			C13.9,7,14,7,14,7L14,7 M12.9,7.1C12.9,7.1,12.8,7.1,12.9,7.1C12.8,7.1,12.8,7.1,12.9,7.1C12.8,7.1,12.8,7.1,12.9,7.1
			C12.8,7.1,12.9,7.1,12.9,7.1L12.9,7.1 M13.5,7L13.5,7L13.5,7L13.5,7L13.5,7L13.5,7L13.5,7L13.5,7L13.5,7L13.5,7L13.5,7L13.5,7
			L13.5,7L13.5,7L13.5,7L13.5,7 M14.3,6.9C14.3,6.9,14.3,6.9,14.3,6.9C14.3,6.9,14.3,6.9,14.3,6.9C14.2,6.9,14.3,6.9,14.3,6.9
			C14.3,6.9,14.3,6.9,14.3,6.9L14.3,6.9 M13.6,7C13.6,7,13.5,7,13.6,7c-0.1,0-0.1,0-0.1,0C13.5,7,13.5,6.9,13.6,7
			C13.5,7,13.5,7,13.6,7L13.6,7L13.6,7 M13,7L13,7C13,7.1,13,7.1,13,7C13,7,13,7,13,7L13,7L13,7L13,7L13,7L13,7L13,7L13,7 M15.1,6.8
			L15.1,6.8C15.1,6.8,15.1,6.8,15.1,6.8L15.1,6.8L15.1,6.8L15.1,6.8L15.1,6.8L15.1,6.8L15.1,6.8L15.1,6.8L15.1,6.8
			C15.1,6.8,15.1,6.8,15.1,6.8L15.1,6.8L15.1,6.8 M13.5,6.8C13.5,6.8,13.5,6.9,13.5,6.8C13.5,6.8,13.5,6.8,13.5,6.8L13.5,6.8
			 M14.2,6.8L14.2,6.8C14.1,6.8,14.1,6.8,14.2,6.8C14.1,6.8,14.2,6.8,14.2,6.8L14.2,6.8L14.2,6.8L14.2,6.8 M13.2,6.9
			c-0.1,0-0.1,0-0.2,0.1l0,0l0,0c-0.1,0-0.1,0.1-0.2,0.1C13,7,13,7,13,7l0,0l0,0l0,0c0,0,0,0-0.1,0C12.9,6.9,13.1,6.8,13.2,6.9
			c0,0,0,0-0.1,0C13.1,6.9,13.1,6.9,13.2,6.9C13.2,6.8,13.2,6.8,13.2,6.9 M13,6.8L13,6.8C12.8,6.9,12.9,6.8,13,6.8
			C12.9,6.8,12.9,6.8,13,6.8L13,6.8L13,6.8C12.9,6.8,12.9,6.8,13,6.8C12.9,6.8,12.9,6.8,13,6.8L13,6.8 M14.9,6.7
			C14.9,6.7,14.9,6.7,14.9,6.7C14.9,6.7,14.9,6.7,14.9,6.7c-0.1,0-0.1,0-0.1,0h-0.1c0,0,0,0-0.1,0c0.1-0.1,0.1-0.1,0.1-0.1l0,0
			C14.9,6.7,14.9,6.7,14.9,6.7L14.9,6.7L14.9,6.7C15,6.7,15,6.7,14.9,6.7L14.9,6.7L14.9,6.7L14.9,6.7L14.9,6.7L14.9,6.7L14.9,6.7
			L14.9,6.7L14.9,6.7L14.9,6.7L14.9,6.7L14.9,6.7L14.9,6.7 M15.8,6.7L15.8,6.7L15.8,6.7L15.8,6.7 M15.8,6.7L15.8,6.7L15.8,6.7
			L15.8,6.7 M12.3,6.8L12.3,6.8L12.3,6.8L12.3,6.8L12.3,6.8L12.3,6.8L12.3,6.8L12.3,6.8L12.3,6.8L12.3,6.8L12.3,6.8L12.3,6.8
			L12.3,6.8L12.3,6.8L12.3,6.8L12.3,6.8L12.3,6.8L12.3,6.8L12.3,6.8 M16.2,6.6c0,0-0.1,0-0.1,0l0,0l0,0C16.1,6.6,16.1,6.6,16.2,6.6
			L16.2,6.6 M15.8,6.6C15.8,6.6,15.8,6.6,15.8,6.6c-0.1,0.1-0.1,0.1-0.1,0.1C15.7,6.6,15.8,6.6,15.8,6.6c-0.1,0.1-0.1,0.1-0.1,0.1
			C15.7,6.6,15.8,6.6,15.8,6.6L15.8,6.6 M21.2,17.8c0.2-0.9-1.1-1.1-1.1-1.1c-0.2-0.3-0.2-0.3-0.6-0.4c-0.1,0.1-0.1,0.1-0.1,0.2
			c0.1-0.1,0.1-0.1,0.1-0.2c-0.1-0.1-0.1-0.1-0.2-0.2c0-0.1,0.1-0.1,0.1-0.2C19,15.9,19,15.8,19,15.4c-0.6-0.3-1.1-0.6-1.6-1
			c0,0,0-0.1,0-0.1c-0.1-0.1-0.1-0.1-0.2-0.1l-0.1-0.1h0.1c-0.4-0.2-1,0.1-1.4-0.3l0,0l0,0c-0.1,0.1-0.1,0.1-0.2,0.2V14
			c0.1-0.1,0.1-0.1,0.1-0.1s-0.1,0-0.1-0.1c0,0-0.7,0.3-0.8,0.6c-0.1,0.1-0.1,0.1-0.2,0.2c-0.4-0.2-0.4-0.2-0.4-0.2
			c-0.2,0.1-0.2,0.1-0.3,0.2c-0.2-0.1-0.3-0.2-0.4-0.4c-0.1-0.2,0.2-0.4,0.1-0.7c0-0.2-0.7-0.3-1-0.1c0.4-0.7,0.4-1.1,0.4-1.1
			c-0.2,0-0.4,0-0.6,0.1c0,0.2-0.1,0.4-0.7,0.4c-0.6-0.6-0.5-1.7,0.5-2l0,0l0,0l0,0c0.2,0,0.4,0.1,0.6,0.1c0-0.1,0-0.1,0.1-0.2
			c0.2,0,0.6,0.1,0.7,0c0.1,0,0.1,0,0.2,0.7c0,0,0.1,0,0.1,0.1v0.1c0.1,0,0.1,0,0.1,0c0-0.1,0.1-0.1,0.1-0.1
			c0.1-0.2-0.2-0.6-0.1-0.9c0.1-0.2,0.3-0.2,0.4-0.4l0,0l0,0l0,0l0,0l0,0l0,0l0,0l0,0c0.6-0.1,0.4-0.3,0.4-0.4
			c0.1-0.1,0.1-0.1,0.2-0.2c0,0,0-0.1-0.1-0.1c0.3-0.2,0.6-0.4,0.9-0.4l-0.1-0.1c0-0.1,0.1-0.3,0.7-0.3c-0.1,0.1-0.1,0.1-0.1,0.1
			l0.1,0.1c0.2-0.1,0.4-0.2,0.7-0.2c-0.1-0.1-0.1-0.1-0.1-0.1l-0.1,0.1c-0.3,0-0.4-0.1-0.4-0.2h0.1c0,0,0-0.1-0.1-0.1
			c-0.2-0.1-0.2,0-0.6,0.1c0.2-0.2,0.2-0.2,1.4-0.3c-0.1,0.1-0.2,0.2-0.2,0.3c0.3,0,0.4,0.1,0.6,0.1l0.1-0.1v0.1h0.1L18,8.2
			C17.9,8,17.9,8,17.7,7.9h-0.1c-0.1-0.1-0.1-0.1-0.1-0.1l0.1-0.1l-0.1-0.1l0.1-0.1c0,0,0,0-0.6-0.3c0-0.1,0-0.1-0.2-0.3
			c-0.4,0.2-0.7-0.2-1.1-0.2C15.6,6.9,15.6,7,15.6,7l-0.1,0.1c0,0.1,0.1,0.1,0.1,0.2c-0.1,0.1-0.1,0.1-0.4,0.1
			c0.1,0.2-0.1,0.3-0.2,0.2l-0.1-0.1H15l-0.1-0.1c0,0,0-0.1,0-0.1c-0.2-0.1-0.8-0.2-0.8-0.2s0-0.1,0.1-0.1c0,0-0.1,0-0.1-0.1
			c0.2-0.1,0.2-0.2,1.2-0.4c-0.1,0-0.1,0.1-0.2,0.1c0.1,0.1,0.1,0.1,0.6,0c0,0-0.2-0.1-0.3-0.1c0.1,0,0.1,0,0.2,0.1
			c0.2-0.1,0.2-0.1,0.4-0.2c0.1,0,0.1,0,0.2,0c0.1,0,0.1,0,0.1,0c0.1,0,0.1,0,0.2,0.1c-0.1,0.1-0.1,0.1-0.4,0.1
			c0.1,0.1,0.2,0.1,0.3,0.1c0.1,0,0.1,0,0.1,0l0,0l0,0l0,0l0,0l0,0l0,0l0,0l0,0c0.1,0.1,0.1,0.1,0.4,0.1c-0.1-0.1-0.1-0.1-0.2-0.1
			c0.1,0,0.2,0.1,0.3,0.1V6.8c-0.1,0-0.1-0.1-0.2-0.1c0.1,0,0.2,0,0.4-0.1c-0.2-0.1-0.4-0.1-0.4-0.1h0.1h-0.1l0,0l0,0l0,0l0,0l0,0
			l0,0l0,0l0,0c0,0-0.9-0.3-1.5-0.1c0.1,0,0.1,0.1,0.2,0.1c-0.1,0.1-0.1,0.1-0.2,0.1V6.6h-0.1V6.6c0.1-0.1,0.1-0.1,0.2-0.1
			c-0.4-0.2-0.9,0.2-1.3,0.2c0.1,0,0.1,0,0.2,0l0,0c0.1,0,0.1-0.1,0.2-0.1l-0.1-0.1c0.1,0,0.1-0.1,0.2-0.1c-0.1,0-0.1,0-0.2,0.1
			c-0.1,0-0.1,0-0.1,0l0,0l0,0l0,0l0,0l0,0l0,0l0,0c-0.2-0.1-0.4-0.1-0.4-0.1c-0.1,0-0.1,0-0.4,0.1c0.1,0,0.1,0,0.3-0.1
			c0,0-0.1,0-0.1,0.1c0.1,0,0.1,0,0.2,0c-0.1,0-0.2,0-0.2,0.1c0.1,0.1,0.1,0.1,0.2,0.1c-0.1,0-0.1,0.1-0.4,0.1h0.1
			c-0.1-0.1-0.1-0.1-1.2,0.1c-0.1,0-0.1,0-0.1,0l0,0l0,0l0,0l0,0l0,0l0,0l0,0c-0.4,0.1-1.1,0.4-2,1l0,0c0.3-0.2,0.4-0.2,0.6-0.3
			c-0.2,0.1-0.2,0.1-0.3,0.1c0.1,0,0.1-0.1,0.2-0.1c0.1,0,0.1,0,0.1,0l0,0l0,0l0,0l0,0l0,0l0,0l0,0c0.1,0,0.1-0.1,0.2-0.1
			c0,0.1,0,0.1-0.1,0.2c0,0,0.1,0,0.1-0.1c0,0.1-0.1,0.1-0.1,0.1H11c-0.2,0.2-0.4,0.4-0.4,0.4c0,0.1,0,0.1,0,0.2
			c-1,0.9-1.1,1.2-1.1,1.7c0.1,0.1,0.1,0.1,0.1,0.7C9.6,11,9.6,11,9.4,11.2c0.1,0.1,0.1,0.1,0.2,0.2c0,0.1,0,0.1-0.1,0.2
			c0.1,0.1,0.1,0.2,0.2,0.2h0.1c-0.1-1-0.2-1.2-0.1-1.2l0.1,0.1c-0.1,0.3,0.1,0.5,0.2,0.9c0.2,0.1,0.3,0.6,0.2,0.8
			c-0.1,0.1-0.1,0.3,0.6,0.7c0.1,0,0.2,0.1,0.3,0.1c0.2,0,0.3-0.2,0.5-0.1c0.2,0.1,0.2,0.2,0.3,0.3c0.6,0.2,0.6,0.2,0.6,0.1
			c0.3,0.4,0.3,0.4,0.2,0.6c0.1,0.1,0.1,0.1,0.1,0.1l0.1-0.1c0.1,0.1,0.1,0.1,0.2,0.2c0,0,0,0.1,0,0.1c0.1,0.1,0.2,0.1,0.3,0.1
			c0,0,0,0.1,0,0.1c0,0,0.1,0,0.1,0l0.1,0.1c0.1,0,0.1,0,0.2-0.1l-0.1-0.1c0.1-0.1,0.1-0.1,0.1-0.1c0,0,0.1,0,0.1,0
			c0.3,0.4,0.3,0.4-0.1,1.6c-0.2,0.1-0.2,0.1-0.3,0.7c0.1,0,0.1,0.1,0.1,0.1c-0.2,0.2-0.2,0.2-0.2,0.6l0.8,1.7
			c0.2,0.3,0.6,0.4,0.9,0.7c0.6,0.7-0.4,1.2-0.2,1.9c-0.1,0.2-0.1,0.2-0.2,1.8h0.1c0-0.1,0-0.1,0.1-0.2c0,0.1,0,0.1,0,0.3h-0.1v0
			c-0.1,0.1-0.1,0.1-0.1,0.1h0.1c0,0,0,0.1,0.1,0.1h-0.1c0.1,0.1,0.1,0.2,0.1,0.3v0.1c0.2,0.1,0.2,0.2,0.4,0.2
			c0.1,0.1,0.1,0.1,0.3,0c-0.2-0.1-0.2-0.1-0.3-0.3c0.2-0.2,0.2-0.2,0.2-0.2c0,0,0-0.1,0-0.1c-0.1,0-0.1-0.1-0.1-0.1v-0.1
			c0.1-0.1,0.1-0.1,0.2-0.1c0.1-0.1,0.1-0.1,0.2-0.2c-0.1,0-0.1-0.1-0.1-0.1l0.1-0.1c0.1,0,0.1,0,0.2,0c0.1-0.2,0.1-0.2,0.1-0.2
			c0.2,0.1,0.6,0.1,0.7-0.2l-0.1-0.1l0.1-0.1c0,0-0.1-0.1-0.1-0.1c0,0,0-0.1,0-0.1c0.4,0.3,1.2-0.3,1.6-1.2c0.7-0.3,0.7-0.3,1-0.3
			C21.1,17.9,21.1,17.9,21.2,17.8"/>
		<path class="st1" d="M10.8,7.9C10.7,8,10.7,8,10.7,8.1c-0.1,0.1-0.1,0.1-0.1,0.1C10.6,8.1,10.7,8,10.8,7.9
			C10.7,7.9,10.7,7.9,10.8,7.9L10.8,7.9L10.8,7.9"/>
		<path class="st1" d="M21.4,9.7L21.4,9.7L21.4,9.7L21.4,9.7C21.3,9.7,21.3,9.7,21.4,9.7C21.3,9.7,21.3,9.7,21.4,9.7L21.4,9.7
			L21.4,9.7L21.4,9.7C21.3,9.7,21.3,9.7,21.4,9.7C21.3,9.7,21.3,9.7,21.4,9.7L21.4,9.7"/>
		<path class="st1" d="M14.6,11L14.6,11c-0.1,0-0.1,0-0.1,0l0,0c0,0,0.1,0,0-0.1C14.4,11,14.5,11,14.6,11L14.6,11"/>
		<path class="st1" d="M14.9,11.4L14.9,11.4L14.9,11.4C14.8,11.4,14.8,11.4,14.9,11.4C14.9,11.3,14.9,11.3,14.9,11.4
			c-0.1-0.1-0.1-0.1-0.1-0.1l0,0C14.8,11.3,14.8,11.3,14.9,11.4C14.8,11.3,14.9,11.3,14.9,11.4C14.9,11.3,14.9,11.3,14.9,11.4
			C14.9,11.3,14.9,11.3,14.9,11.4"/>
		<path class="st1" d="M16.6,24C16.6,24,16.5,24,16.6,24l-0.1,0.1c0,0,0-0.1-0.1,0c-0.1,0-0.1,0-0.1-0.1c0,0,0,0,0.1,0l0,0
			C16.3,24,16.4,23.9,16.6,24C16.4,23.9,16.6,23.9,16.6,24L16.6,24"/>
		<path class="st1" d="M16.1,24.9C16.1,24.9,16.1,25,16.1,24.9C16.1,25,16.1,25,16.1,24.9L16.1,24.9L16.1,24.9L16.1,24.9 M15,25.7
			c-0.1,0-0.1,0-0.1,0C15.1,25.7,15.1,25.7,15,25.7c-0.1,0.1-0.6,0-0.7-0.1l0,0c0,0,0,0-0.1,0c0.1,0,0.2,0.1,0.4,0.1
			C14.9,25.7,14.9,25.7,15,25.7c0.1,0.1,0.1,0.1,0.2,0.1s0.1,0,0.2,0c0.1,0,0.2,0,0.2,0c0.1,0,0.1,0,0.2,0c0.1,0,0.1,0,0.3,0
			c0.1,0,0.2,0,0.2,0c0.2,0,0.2,0,0.2,0c0.2,0,0.2,0,0.3-0.1c0.2-0.1,0.3-0.1,0.4-0.1s0.2-0.1,0.4-0.1l0,0h-0.1c0,0,0,0,0.1,0h-0.1
			h0.2c-0.1,0-0.1,0-0.2,0c0.1,0,0.1,0,0.2-0.1c-0.1,0-0.1,0-0.1,0c0,0,0,0,0.1,0c-0.1,0-0.1,0-0.1,0l0,0c0.1-0.1,0.1-0.1,0.1-0.1
			c-0.1,0-0.1,0-0.2-0.1c0,0,0,0,0.1-0.1l0,0l0,0l0,0l0,0l0,0l0,0l0,0l0,0H17h-0.1l-0.7,0.1c-0.1,0-0.2-0.1-0.3-0.1
			c0.1,0,0.1-0.1,0.1-0.2c0,0,0,0,0.1-0.1l0,0c-0.1-0.1,0.1-0.2,0.1-0.2h0.1l0,0c0.1-0.1,0.1-0.1,0-0.1c0,0,0,0-0.1,0
			c-0.1,0-0.1,0-0.2,0.1c0,0,0,0,0-0.1c-0.1,0-0.1,0-0.1,0.1l0,0c0,0.1-0.1,0.1-0.1,0.1l0,0l0,0c0,0,0,0-0.1,0l0,0c0,0,0,0-0.1,0
			l0,0c0,0,0,0,0.1,0c0,0,0,0,0,0.1c0,0,0,0-0.1,0.1l0,0c-0.1-0.1-0.2-0.1-0.2,0c0,0,0,0,0.1,0l0,0c0.1,0,0.1,0,0.1,0s0,0-0.1,0l0,0
			c0.1,0,0.1,0,0.1,0.1l0,0c-0.1,0-0.1,0-0.1,0l0,0c-0.2,0.1-0.4,0-0.7,0l0,0c0.1,0.1,0.1,0.1,0.2,0.1c0,0,0,0-0.1,0l0,0
			c-0.1,0-0.1,0-0.2-0.1c0,0,0.1,0,0.1,0.1c-0.1,0-0.2,0-0.4,0c0,0,0,0,0.1,0l0,0c0,0,0,0-0.1,0.1c0,0,0,0,0.1,0l0,0c0,0,0,0,0.1,0
			l0,0h0.1l0,0c0.1,0,0.1,0,0.1,0.1l0,0c0.3,0.1,0.5,0.1,0.9,0.1l0,0C15.4,25.7,15.1,25.7,15,25.7"/>
		<path class="st1" d="M15,6.4c-0.1,0-0.2,0.1-0.3,0C14.8,6.4,14.9,6.4,15,6.4C14.9,6.4,15,6.4,15,6.4L15,6.4"/>
		<path class="st1" d="M15.4,6.4c0,0-0.1,0-0.2,0l0,0c-0.1,0-0.1,0-0.2,0l0,0l0,0l0,0c-0.1,0-0.1,0-0.1,0l0,0l0,0l0,0l0,0H15l0,0
			l0,0c0.1,0,0.1,0,0.1,0l0,0c0.1,0,0.2,0,0.2,0c0,0,0,0-0.1,0C15.3,6.4,15.4,6.4,15.4,6.4L15.4,6.4L15.4,6.4L15.4,6.4L15.4,6.4
			L15.4,6.4L15.4,6.4"/>
		<path class="st1" d="M15.1,6.6c-0.1,0.1-0.2,0.1-0.3,0.1l0,0l0,0l0,0l0,0l0,0l0,0l0,0l0,0l0,0l0,0c-0.1,0-0.1,0-0.1,0
			c0.1-0.1,0.1,0,0.1,0l0,0C14.9,6.4,15,6.4,15.1,6.6C15.1,6.4,15.1,6.6,15.1,6.6"/>
		<path class="st1" d="M20.1,7.2c0,0.1-0.3,0-0.3,0l0,0l0,0c-0.1-0.1-0.1-0.1-0.2-0.1h0.1l0,0l0,0c-0.1,0-0.1,0-0.1,0V7.1
			c0,0,0.1,0,0.1,0.1l0,0l0,0l0,0l0,0c-0.1,0-0.1,0-0.1,0c0.1,0,0.1,0,0.1,0l0,0l0,0c0,0,0,0,0.1,0l0,0l0,0l0,0c0.1,0,0.1,0,0.1,0.1
			C20,7.2,20,7.2,20.1,7.2"/>
		<path class="st1" d="M22.1,8.5c0.1,0.1,0.1,0.1,0.1,0.1C22.1,8.6,22.1,8.5,22.1,8.5c0,0.1,0,0.1,0.1,0.1c-0.1,0-0.1,0-0.1,0l0,0
			H22C22,8.5,22,8.5,22,8.5l0,0l-0.1-0.1l0,0l0,0l0,0l-0.1-0.1l0,0l0,0c-0.1-0.1-0.1-0.1-0.1-0.1c0.1,0,0.1,0,0.1,0l0,0
			c-0.1-0.1-0.1-0.1-0.2-0.1l0,0l0,0c-0.1,0-0.1-0.1-0.2-0.1c0,0,0,0,0.1,0.1c0,0,0,0-0.1-0.1l0,0c0,0-0.1,0-0.1-0.1l0,0l0,0l0,0
			l0,0l0,0l0,0l0,0l0,0l0,0l-0.1-0.1l0,0c-0.1,0-0.1-0.1-0.1-0.1c0,0,0.1,0,0.1,0.1c-0.1,0-0.1-0.1-0.1-0.1c0,0,0,0,0.1,0
			c0,0-0.1,0-0.1-0.1l0,0c0.1,0,0.1,0.1,0.1,0.1c0,0,0.1,0,0.1,0.1c0.1,0,0.1,0.1,0.1,0.1l0.2,0.2L22.1,8.5
			C22,8.5,22.1,8.5,22.1,8.5"/>
		<path class="st1" d="M14.6,11.5C14.5,11.5,14.5,11.5,14.6,11.5c-0.1-0.1-0.1-0.1-0.1-0.1c0,0,0,0,0-0.1v-0.1c0.1,0,0.1,0,0.1,0.1
			C14.6,11.4,14.6,11.5,14.6,11.5L14.6,11.5"/>
		<path class="st1" d="M16.2,6.7L16.2,6.7C16.2,6.7,16.2,6.7,16.2,6.7C16.2,6.7,16.2,6.7,16.2,6.7L16.2,6.7L16.2,6.7"/>
	</g>
</g>
</svg>
