<svg width="34.6" height="34.6" viewBox="0 0 34.6 34.6"><path fill="#fff" d="M29.5 5.1C26.3 1.8 21.9 0 17.3 0S8.4 1.8 5.1 5.1C1.8 8.3 0 12.7 0 17.3s1.8 8.9 5.1 12.2c3.2 3.3 7.6 5.1 12.2 5.1s8.9-1.8 12.2-5.1c3.3-3.2 5.1-7.6 5.1-12.2s-1.8-8.9-5.1-12.2zM17.3 33.4c-8.9 0-16.1-7.2-16.1-16.1S8.4 1.2 17.3 1.2s16.1 7.2 16.1 16.1-7.2 16.1-16.1 16.1zm13.2-16.1c0 .5 0 1-.1 1.5H17.6v-3h12.8c.1.5.1 1 .1 1.5zm-13 4.4h12.2c-.4 1-.9 2-1.5 2.9H17.5v-2.9zm0 5.8h8c-2.2 1.8-4.9 2.9-8 2.9v-2.9zm12.2-14.6H17.5V10h10.7c.6.9 1.1 1.9 1.5 2.9zm-4.2-5.8h-8V4.2c3 0 5.8 1.1 8 2.9zM4.1 17.3c0 7.2 5.8 13 12.9 13.1V4.2c-3.4 0-6.6 1.4-9 3.8-2.5 2.5-3.9 5.8-3.9 9.3zm6.2-7V8.5l1.1 1.5 1.7-.6-1 1.5 1.1 1.5-1.7-.6-1.1 1.5v-1.8l-1.8-.6 1.7-.6zm0 6.3v-1.8l1.1 1.5 1.7-.6-1 1.5 1.1 1.5-1.7-.6-1.1 1.5v-1.8l-1.8-.6 1.7-.6zm0 6.6v-1.8l1.1 1.5 1.7-.6-1 1.5 1.1 1.5-1.7-.6-1.1 1.5v-1.8l-1.8-.6 1.7-.6z"/></svg>