<svg version="1.1"
	 x="0px" y="0px" width="34.6px" height="34.6px" viewBox="0 0 34.6 34.6" enable-background="new 0 0 34.6 34.6">
<defs>
</defs>
<path fill="white" d="M15.9,22.6c0.1,0.2-0.1,0.6-0.2,0.9c-0.1,0.3-0.5,0.5-0.7,0.6s-0.8,0.9-0.9,1c-0.1,0.2-0.2,0.6-0.4,0.7
	c-0.2,0.1-1.2,0.8-1.2,0.8c-0.1,0-0.5,0.2-0.6,0.4s0.4,0.1,0.5,0.2c0.1,0,0.3,0,0.3,0.3s0,0.6,0,0.6c0,0.1-0.3,0.2-0.4,0.2
	s-0.2,0.2-0.2,0.2L12,28.6l-0.5,0.5C7,27,3.8,22.4,3.8,17.1c0-4.5,2.3-8.5,5.7-10.9c0.2,0.1,0.3,0.2,0.3,0.3
	c0.1,0.1,0.4,0.7,0.4,0.9c0,0.3-0.2,0.5-0.4,0.4S9.5,7.5,9.4,7.7c-0.1,0.2,0,0.6,0,0.8s0,0.8-0.1,0.9C9.2,9.6,8.9,10,8.7,9.9
	C8.6,9.8,8.5,9.3,8.3,9.2C8.1,9.1,7.6,9,7.5,9.4c-0.1,0.3-0.1,0.9-0.1,1.1c0,0.2,0.1,0.5,0.3,0.6s0.6,0.1,0.8,0.4
	c0.2,0.2,0.4,0.6,0.6,0.7c0.2,0.2,0.3,0.3,0.5,0.5c0.2,0.1,0.3,0.2,0.4,0.2c0.1,0,0.1,0,0.1,0.1s0,0.3,0,0.3c0,0.1,0.1,0.2-0.1,0.4
	S9.8,13.8,9.5,14c-0.2,0.2-0.2,0.1-0.3,0.3c0,0.2-0.1,0.4-0.1,0.5s0.1,0.4,0,0.6c-0.1,0.1-0.2,0.3-0.2,0.3s-0.1,0.1-0.1,0.2v0.2v0.1
	c-0.1,0-0.1,0-0.2,0.1c-0.2,0.1-0.8,0.4-1.1,0.7c-0.4,0.3-0.4,0.5-1.4,2s0.8,2.5,0.9,2.6c0.1,0.1,0.4-0.1,0.6-0.2
	c0.2-0.1,0.2,0,0.9,0.3s1,0.1,1.3,0c0.3,0,0.4-0.5,0.5-0.7s0.5-0.3,0.7-0.2s0.3,0.5,0.3,0.8c0.1,0.3,0.1,0.3,0.1,0.3l0.3,0.2h0.7
	c0,0,0.4,0,0.4-0.1c0.1,0,0.6-0.3,0.8-0.7c0.2-0.5,0.5-0.3,0.6-0.3s0.2,0.3,0.2,0.5S14.2,21.8,14,22c-0.2,0.1,0,0.3,0.1,0.4
	c0.1,0,0.5-0.3,0.7-0.4c0.2-0.1,0.7,0,0.9,0.1C15.9,22.2,15.8,22.5,15.9,22.6z M17.1,3.9c-2.3,0-4.4,0.6-6.3,1.6l-0.1,0.7
	c-0.1,0.1-0.1,0.4-0.1,0.5s0,0.3-0.1,0.6c-0.1,0.3-0.3,1.1-0.3,1.4S10,9.5,9.8,10.1c-0.1,0.7,0.2,1.4,0.2,1.8c0,0.4,0.6,1.5,0.6,1.9
	s-0.3,0.4-0.5,0.5c-0.2,0.2-0.3,0.3-0.6,0.8c-0.2,0.6-0.1,0.7-0.1,0.9s0.3,0.4,0.3,0.4c0.1,0.1,0.1,0.1,0.2,0.2
	c0.2,0.2,0.9,0.8,0.9,1.2c0.1,0.4,0,0.8,0.1,1.1s0.1,0.2,0.3,0.2c0.1,0,0.5,0.4,0.7,0.6c0.2,0.3,0.3,0.4,0.3,0.5s0,0.3,0.2,0.3
	s0.4-0.1,0.6-0.3s0.5-0.4,0.6-0.9s0.1-0.8,0.3-1s1.4-0.3,1.8-0.3c0.3,0,0.8,0,0.8,0.3s0,0.3,0.3,0.3s0.7-0.3,0.7-0.4
	c0,0,0.9-0.9,1-1.2c0.1-0.2,0.6-0.7,0.9-0.9c0.3-0.2,1.3-1,2.2-1.1c0.9-0.2,1.5-0.2,2.2-0.3c0.7,0,1.4-0.4,1.7-0.5s1.1-0.2,1.2-0.4
	c0.1-0.2,0.1-0.5,0.4-0.8s0.4-0.3,0.7-0.3c0.4,0,0.7-0.3,0.8,0.2c0.1,0.5-0.1,0.7-0.2,0.9c-0.1,0.1-0.6,0.6-0.8,0.6
	s-0.4-0.2-0.6-0.1c-0.2,0.1-0.4,0.2-0.4,0.4s0.1,0.4,0.1,0.6c0,0.2-0.3,0.4-0.5,0.6c-0.2,0.1-0.6,0.4-0.7,0.5
	c-0.1,0.2-0.4,0.7-0.6,0.8c-0.2,0.2-0.5,0.3-0.5,0.7c0.1,0.4-0.2,1-0.4,1.1s-0.2,0.5-0.2,0.7s-0.5,0.7-0.7,0.7
	c-0.2-0.1-0.3-0.2-0.6-0.1c-0.3,0.1-0.4,0.2-0.7,0.2s-0.6-0.2-1-0.1c-0.5,0.1-0.6,0.1-0.8,0c-0.1-0.1-0.4-0.5-0.9-0.4
	s-1.1-0.1-1.6,0.2s-0.6,0.4-0.6,0.8c-0.1,0.4-0.2,1.1-0.1,1.3c0.1,0.3,0.2,0.6,0.3,0.7c0.1,0.1,0.2,0.4,0.6,0.4c0.4,0,1.7,0,2-0.1
	c0.3,0,2.3-0.1,2.6,0c0.4,0.1,0.8,0.2,0.9,0.3c0.1,0.1,0,0.3,0.2,0.3s0.6-0.1,0.9,0s1,0.3,1.5,0s0.4-0.9,0.6-1
	c0.2-0.1,0.2-0.3,0.5-0.3s1.3,0.1,1.8-0.1c0.2-0.1,0.5-0.2,0.7-0.3l0.1-0.1c0.6-1.5,0.9-3.2,0.9-4.9C30.4,9.8,24.4,3.9,17.1,3.9z
	 M34.6,17.3c0,4.6-1.8,9-5.1,12.2c-3.3,3.3-7.6,5.1-12.2,5.1s-9-1.8-12.2-5.1C1.8,26.2,0,21.9,0,17.3s1.8-9,5.1-12.2
	C8.4,1.8,12.7,0,17.3,0s9,1.8,12.2,5.1C32.8,8.3,34.6,12.7,34.6,17.3z M33.4,17.3c0-8.9-7.2-16.1-16.1-16.1S1.2,8.4,1.2,17.3
	s7.2,16.1,16.1,16.1S33.4,26.2,33.4,17.3z"/>
</svg>
