<svg xmlns="http://www.w3.org/2000/svg" viewBox="0 0 1280 720" enable-background="new 0 0 1280 720"><g fill="#fff"><text transform="translate(420.928 301.684)" font-family="'Ubuntu'" font-size="166.795">NEXT</text><path d="M640 10.3c93.4 0 181.3 36.4 247.4 102.6S990 266.9 990 360.3s-36.4 181.3-102.6 247.4-154 102.6-247.4 102.6-181.3-36.4-247.4-102.6S290 453.7 290 360.3 326.4 179 392.6 112.9 546.6 10.3 640 10.3M640 0C441.2 0 280 161.2 280 360s161.2 360 360 360 360-161 360-360S839 0 640 0z"/></g><g><path fill="#fff" d="M1000 360c0 198.8-161.2 360-360 360S280 559 280 360h720z"/><path stroke="#fff" stroke-width="7" stroke-miterlimit="10" fill="none" d="M771.2 464.2L640 600.5 508.8 464.2"/></g><path fill="#fff" d="M640 10.3c93.4 0 181.3 36.4 247.4 102.6S990 266.9 990 360.3s-36.4 181.3-102.6 247.4-154 102.6-247.4 102.6-181.3-36.4-247.4-102.6S290 453.7 290 360.3 326.4 179 392.6 112.9 546.6 10.3 640 10.3M640 0C441.2 0 280 161.2 280 360s161.2 360 360 360 360-161 360-360S839 0 640 0z"/></svg>